<?xml version="1.0" encoding="UTF-8" standalone="no"?>
<!DOCTYPE svg PUBLIC "-//W3C//DTD SVG 1.0//EN" "http://www.w3.org/TR/2001/PR-SVG-20010719/DTD/svg10.dtd">
<svg width="29cm" height="18cm" viewBox="280 320 580 360" xmlns="http://www.w3.org/2000/svg" xmlns:xlink="http://www.w3.org/1999/xlink">
  <g>
    <g>
      <ellipse style="fill: #217521" cx="357.799" cy="512.16" rx="6.75" ry="6.75"/>
      <ellipse style="fill: none; fill-opacity:0; stroke-width: 2; stroke: #217521" cx="357.799" cy="512.16" rx="6.75" ry="6.75"/>
      <ellipse style="fill: none; fill-opacity:0; stroke-width: 2; stroke: #217521" cx="357.799" cy="512.16" rx="6.75" ry="6.75"/>
    </g>
    <g>
      <ellipse style="fill: #217521" cx="332.349" cy="496.298" rx="6.75" ry="6.75"/>
      <ellipse style="fill: none; fill-opacity:0; stroke-width: 2; stroke: #000000" cx="332.349" cy="496.298" rx="6.75" ry="6.75"/>
      <ellipse style="fill: none; fill-opacity:0; stroke-width: 2; stroke: #000000" cx="332.349" cy="496.298" rx="6.75" ry="6.75"/>
    </g>
    <g>
      <ellipse style="fill: #217521" cx="307.175" cy="481.138" rx="6.75" ry="6.75"/>
      <ellipse style="fill: none; fill-opacity:0; stroke-width: 2; stroke: #217521" cx="307.175" cy="481.138" rx="6.75" ry="6.75"/>
      <ellipse style="fill: none; fill-opacity:0; stroke-width: 2; stroke: #217521" cx="307.175" cy="481.138" rx="6.75" ry="6.75"/>
    </g>
    <line style="fill: none; fill-opacity:0; stroke-width: 4; stroke: #000000" x1="313.819" y1="485.139" x2="325.705" y2="492.297"/>
    <line style="fill: none; fill-opacity:0; stroke-width: 4; stroke: #000000" x1="338.922" y1="500.395" x2="351.225" y2="508.063"/>
  </g>
  <g>
    <ellipse style="fill: #9cdaa4" cx="416.787" cy="634.508" rx="6.75" ry="6.75"/>
    <ellipse style="fill: none; fill-opacity:0; stroke-width: 2; stroke: #9cdaa4" cx="416.787" cy="634.508" rx="6.75" ry="6.75"/>
    <ellipse style="fill: none; fill-opacity:0; stroke-width: 2; stroke: #9cdaa4" cx="416.787" cy="634.508" rx="6.75" ry="6.75"/>
  </g>
  <g>
    <g>
      <ellipse style="fill: #217521" cx="538.515" cy="500.004" rx="6.75" ry="6.75"/>
      <ellipse style="fill: none; fill-opacity:0; stroke-width: 2; stroke: #217521" cx="538.515" cy="500.004" rx="6.75" ry="6.75"/>
      <ellipse style="fill: none; fill-opacity:0; stroke-width: 2; stroke: #217521" cx="538.515" cy="500.004" rx="6.75" ry="6.75"/>
    </g>
    <g>
      <ellipse style="fill: #217521" cx="513.065" cy="484.142" rx="6.75" ry="6.75"/>
      <ellipse style="fill: none; fill-opacity:0; stroke-width: 2; stroke: #000000" cx="513.065" cy="484.142" rx="6.75" ry="6.75"/>
      <ellipse style="fill: none; fill-opacity:0; stroke-width: 2; stroke: #000000" cx="513.065" cy="484.142" rx="6.75" ry="6.75"/>
    </g>
    <g>
      <ellipse style="fill: #217521" cx="487.891" cy="468.984" rx="6.75" ry="6.75"/>
      <ellipse style="fill: none; fill-opacity:0; stroke-width: 2; stroke: #217521" cx="487.891" cy="468.984" rx="6.75" ry="6.75"/>
      <ellipse style="fill: none; fill-opacity:0; stroke-width: 2; stroke: #217521" cx="487.891" cy="468.984" rx="6.75" ry="6.75"/>
    </g>
    <line style="fill: none; fill-opacity:0; stroke-width: 4; stroke: #000000" x1="494.535" y1="472.984" x2="506.421" y2="480.142"/>
    <line style="fill: none; fill-opacity:0; stroke-width: 4; stroke: #000000" x1="519.638" y1="488.239" x2="531.941" y2="495.907"/>
  </g>
  <g>
    <ellipse style="fill: #9cdaa4" cx="419.209" cy="366.842" rx="6.75" ry="6.75"/>
    <ellipse style="fill: none; fill-opacity:0; stroke-width: 2; stroke: #9cdaa4" cx="419.209" cy="366.842" rx="6.75" ry="6.75"/>
    <ellipse style="fill: none; fill-opacity:0; stroke-width: 2; stroke: #9cdaa4" cx="419.209" cy="366.842" rx="6.75" ry="6.75"/>
  </g>
  <g>
    <g>
      <ellipse style="fill: #217521" cx="693.089" cy="475.4" rx="6.75" ry="6.75"/>
      <ellipse style="fill: none; fill-opacity:0; stroke-width: 2; stroke: #217521" cx="693.089" cy="475.4" rx="6.75" ry="6.75"/>
      <ellipse style="fill: none; fill-opacity:0; stroke-width: 2; stroke: #217521" cx="693.089" cy="475.4" rx="6.75" ry="6.75"/>
    </g>
    <g>
      <ellipse style="fill: #217521" cx="667.639" cy="459.538" rx="6.75" ry="6.75"/>
      <ellipse style="fill: none; fill-opacity:0; stroke-width: 2; stroke: #000000" cx="667.639" cy="459.538" rx="6.75" ry="6.75"/>
      <ellipse style="fill: none; fill-opacity:0; stroke-width: 2; stroke: #000000" cx="667.639" cy="459.538" rx="6.75" ry="6.75"/>
    </g>
    <g>
      <ellipse style="fill: #217521" cx="642.465" cy="444.38" rx="6.75" ry="6.75"/>
      <ellipse style="fill: none; fill-opacity:0; stroke-width: 2; stroke: #217521" cx="642.465" cy="444.38" rx="6.75" ry="6.75"/>
      <ellipse style="fill: none; fill-opacity:0; stroke-width: 2; stroke: #217521" cx="642.465" cy="444.38" rx="6.75" ry="6.75"/>
    </g>
    <line style="fill: none; fill-opacity:0; stroke-width: 4; stroke: #000000" x1="649.109" y1="448.38" x2="660.995" y2="455.538"/>
    <line style="fill: none; fill-opacity:0; stroke-width: 4; stroke: #000000" x1="674.212" y1="463.635" x2="686.515" y2="471.303"/>
  </g>
  <g>
    <ellipse style="fill: #9cdaa4" cx="735.531" cy="612.396" rx="6.75" ry="6.75"/>
    <ellipse style="fill: none; fill-opacity:0; stroke-width: 2; stroke: #cbcbcb" cx="735.531" cy="612.396" rx="6.75" ry="6.75"/>
    <ellipse style="fill: none; fill-opacity:0; stroke-width: 2; stroke: #cbcbcb" cx="735.531" cy="612.396" rx="6.75" ry="6.75"/>
  </g>
  <g>
    <ellipse style="fill: #217521" cx="710.357" cy="597.238" rx="6.75" ry="6.75"/>
    <ellipse style="fill: none; fill-opacity:0; stroke-width: 2; stroke: #217521" cx="710.357" cy="597.238" rx="6.75" ry="6.75"/>
    <ellipse style="fill: none; fill-opacity:0; stroke-width: 2; stroke: #217521" cx="710.357" cy="597.238" rx="6.75" ry="6.75"/>
  </g>
  <line style="fill: none; fill-opacity:0; stroke-width: 4; stroke: #cbcbcb" x1="717.001" y1="601.238" x2="728.887" y2="608.396"/>
  <g>
    <ellipse style="fill: #9cdaa4" cx="833.353" cy="427.66" rx="6.75" ry="6.75"/>
    <ellipse style="fill: none; fill-opacity:0; stroke-width: 2; stroke: #9cdaa4" cx="833.353" cy="427.66" rx="6.75" ry="6.75"/>
    <ellipse style="fill: none; fill-opacity:0; stroke-width: 2; stroke: #9cdaa4" cx="833.353" cy="427.66" rx="6.75" ry="6.75"/>
  </g>
  <line style="fill: none; fill-opacity:0; stroke-width: 4; stroke: #000000" x1="365.04" y1="509.757" x2="480.649" y2="471.387"/>
  <line style="fill: none; fill-opacity:0; stroke-width: 2; stroke: #cbcbcb" x1="423.535" y1="373.275" x2="483.581" y2="462.575"/>
  <line style="fill: none; fill-opacity:0; stroke-width: 2; stroke: #cbcbcb" x1="413.473" y1="627.634" x2="361.154" y2="519.12"/>
  <line style="fill: none; fill-opacity:0; stroke-width: 4; stroke: #000000" x1="635.632" y1="448.036" x2="545.348" y2="496.348"/>
  <line style="fill: none; fill-opacity:0; stroke-width: 4; stroke: #000000" x1="709.269" y1="589.564" x2="694.172" y2="483.045"/>
  <line style="fill: none; fill-opacity:0; stroke-width: 2; stroke: #cbcbcb" x1="826.01" y1="430.159" x2="700.425" y2="472.903"/>
  <line style="fill: none; fill-opacity:0; stroke-width: 2; stroke: #cbcbcb" x1="419.848" y1="627.383" x2="484.831" y2="476.106"/>
  <line style="fill: none; fill-opacity:0; stroke-width: 2; stroke: #cbcbcb" x1="416.215" y1="373.926" x2="360.816" y2="505.02"/>
  <rect style="fill: none; fill-opacity:0; stroke-width: 2.35099e-37; stroke: #ffffff" x="280.004" y="320.005" width="579.991" height="359.976"/>
</svg>
