<?xml version="1.0" encoding="UTF-8" standalone="no"?>
<!DOCTYPE svg PUBLIC "-//W3C//DTD SVG 1.0//EN" "http://www.w3.org/TR/2001/PR-SVG-20010719/DTD/svg10.dtd">
<svg width="29cm" height="18cm" viewBox="280 320 580 360" xmlns="http://www.w3.org/2000/svg" xmlns:xlink="http://www.w3.org/1999/xlink">
  <g>
    <g>
      <ellipse style="fill: #217521" cx="357.693" cy="512.094" rx="6.75" ry="6.75"/>
      <ellipse style="fill: none; fill-opacity:0; stroke-width: 2; stroke: #217521" cx="357.693" cy="512.094" rx="6.75" ry="6.75"/>
      <ellipse style="fill: none; fill-opacity:0; stroke-width: 2; stroke: #217521" cx="357.693" cy="512.094" rx="6.75" ry="6.75"/>
    </g>
    <g>
      <ellipse style="fill: #217521" cx="332.243" cy="496.232" rx="6.75" ry="6.75"/>
      <ellipse style="fill: none; fill-opacity:0; stroke-width: 2; stroke: #000000" cx="332.243" cy="496.232" rx="6.75" ry="6.75"/>
      <ellipse style="fill: none; fill-opacity:0; stroke-width: 2; stroke: #000000" cx="332.243" cy="496.232" rx="6.75" ry="6.75"/>
    </g>
    <g>
      <ellipse style="fill: #217521" cx="307.069" cy="481.072" rx="6.75" ry="6.75"/>
      <ellipse style="fill: none; fill-opacity:0; stroke-width: 2; stroke: #217521" cx="307.069" cy="481.072" rx="6.75" ry="6.75"/>
      <ellipse style="fill: none; fill-opacity:0; stroke-width: 2; stroke: #217521" cx="307.069" cy="481.072" rx="6.75" ry="6.75"/>
    </g>
    <line style="fill: none; fill-opacity:0; stroke-width: 4; stroke: #000000" x1="313.713" y1="485.073" x2="325.599" y2="492.231"/>
    <line style="fill: none; fill-opacity:0; stroke-width: 4; stroke: #000000" x1="338.817" y1="500.329" x2="351.119" y2="507.996"/>
  </g>
  <g>
    <ellipse style="fill: #9cdaa4" cx="416.681" cy="634.442" rx="6.75" ry="6.75"/>
    <ellipse style="fill: none; fill-opacity:0; stroke-width: 2; stroke: #9cdaa4" cx="416.681" cy="634.442" rx="6.75" ry="6.75"/>
    <ellipse style="fill: none; fill-opacity:0; stroke-width: 2; stroke: #9cdaa4" cx="416.681" cy="634.442" rx="6.75" ry="6.75"/>
  </g>
  <g>
    <g>
      <ellipse style="fill: #217521" cx="538.409" cy="499.938" rx="6.75" ry="6.75"/>
      <ellipse style="fill: none; fill-opacity:0; stroke-width: 2; stroke: #217521" cx="538.409" cy="499.938" rx="6.75" ry="6.75"/>
      <ellipse style="fill: none; fill-opacity:0; stroke-width: 2; stroke: #217521" cx="538.409" cy="499.938" rx="6.75" ry="6.75"/>
    </g>
    <g>
      <ellipse style="fill: #217521" cx="512.959" cy="484.076" rx="6.75" ry="6.75"/>
      <ellipse style="fill: none; fill-opacity:0; stroke-width: 2; stroke: #000000" cx="512.959" cy="484.076" rx="6.75" ry="6.75"/>
      <ellipse style="fill: none; fill-opacity:0; stroke-width: 2; stroke: #000000" cx="512.959" cy="484.076" rx="6.75" ry="6.75"/>
    </g>
    <g>
      <ellipse style="fill: #217521" cx="487.785" cy="468.918" rx="6.75" ry="6.75"/>
      <ellipse style="fill: none; fill-opacity:0; stroke-width: 2; stroke: #217521" cx="487.785" cy="468.918" rx="6.75" ry="6.75"/>
      <ellipse style="fill: none; fill-opacity:0; stroke-width: 2; stroke: #217521" cx="487.785" cy="468.918" rx="6.75" ry="6.75"/>
    </g>
    <line style="fill: none; fill-opacity:0; stroke-width: 4; stroke: #000000" x1="494.429" y1="472.918" x2="506.315" y2="480.075"/>
    <line style="fill: none; fill-opacity:0; stroke-width: 4; stroke: #000000" x1="519.533" y1="488.173" x2="531.835" y2="495.84"/>
  </g>
  <g>
    <ellipse style="fill: #9cdaa4" cx="419.103" cy="366.776" rx="6.75" ry="6.75"/>
    <ellipse style="fill: none; fill-opacity:0; stroke-width: 2; stroke: #9cdaa4" cx="419.103" cy="366.776" rx="6.75" ry="6.75"/>
    <ellipse style="fill: none; fill-opacity:0; stroke-width: 2; stroke: #9cdaa4" cx="419.103" cy="366.776" rx="6.75" ry="6.75"/>
  </g>
  <g>
    <g>
      <ellipse style="fill: #217521" cx="692.983" cy="475.334" rx="6.75" ry="6.75"/>
      <ellipse style="fill: none; fill-opacity:0; stroke-width: 2; stroke: #217521" cx="692.983" cy="475.334" rx="6.75" ry="6.75"/>
      <ellipse style="fill: none; fill-opacity:0; stroke-width: 2; stroke: #217521" cx="692.983" cy="475.334" rx="6.75" ry="6.75"/>
    </g>
    <g>
      <ellipse style="fill: #217521" cx="667.533" cy="459.472" rx="6.75" ry="6.75"/>
      <ellipse style="fill: none; fill-opacity:0; stroke-width: 2; stroke: #000000" cx="667.533" cy="459.472" rx="6.75" ry="6.75"/>
      <ellipse style="fill: none; fill-opacity:0; stroke-width: 2; stroke: #000000" cx="667.533" cy="459.472" rx="6.75" ry="6.75"/>
    </g>
    <g>
      <ellipse style="fill: #217521" cx="642.359" cy="444.314" rx="6.75" ry="6.75"/>
      <ellipse style="fill: none; fill-opacity:0; stroke-width: 2; stroke: #217521" cx="642.359" cy="444.314" rx="6.75" ry="6.75"/>
      <ellipse style="fill: none; fill-opacity:0; stroke-width: 2; stroke: #217521" cx="642.359" cy="444.314" rx="6.75" ry="6.75"/>
    </g>
    <line style="fill: none; fill-opacity:0; stroke-width: 4; stroke: #000000" x1="649.003" y1="448.314" x2="660.889" y2="455.471"/>
    <line style="fill: none; fill-opacity:0; stroke-width: 4; stroke: #000000" x1="674.107" y1="463.569" x2="686.409" y2="471.236"/>
  </g>
  <g>
    <ellipse style="fill: #9cdaa4" cx="710.251" cy="597.172" rx="6.75" ry="6.75"/>
    <ellipse style="fill: none; fill-opacity:0; stroke-width: 2; stroke: #9cdaa4" cx="710.251" cy="597.172" rx="6.75" ry="6.75"/>
    <ellipse style="fill: none; fill-opacity:0; stroke-width: 2; stroke: #9cdaa4" cx="710.251" cy="597.172" rx="6.75" ry="6.75"/>
  </g>
  <g>
    <ellipse style="fill: #9cdaa4" cx="833.247" cy="427.594" rx="6.75" ry="6.75"/>
    <ellipse style="fill: none; fill-opacity:0; stroke-width: 2; stroke: #9cdaa4" cx="833.247" cy="427.594" rx="6.75" ry="6.75"/>
    <ellipse style="fill: none; fill-opacity:0; stroke-width: 2; stroke: #9cdaa4" cx="833.247" cy="427.594" rx="6.75" ry="6.75"/>
  </g>
  <line style="fill: none; fill-opacity:0; stroke-width: 4; stroke: #000000" x1="364.934" y1="509.69" x2="480.543" y2="471.321"/>
  <line style="fill: none; fill-opacity:0; stroke-width: 2; stroke: #cbcbcb" x1="423.412" y1="373.184" x2="483.475" y2="462.509"/>
  <line style="fill: none; fill-opacity:0; stroke-width: 2; stroke: #cbcbcb" x1="413.325" y1="627.482" x2="361.048" y2="519.053"/>
  <line style="fill: none; fill-opacity:0; stroke-width: 4; stroke: #000000" x1="635.526" y1="447.97" x2="545.242" y2="496.281"/>
  <line style="fill: none; fill-opacity:0; stroke-width: 2; stroke: #cbcbcb" x1="709.167" y1="589.527" x2="694.066" y2="482.978"/>
  <line style="fill: none; fill-opacity:0; stroke-width: 2; stroke: #cbcbcb" x1="825.91" y1="430.091" x2="700.32" y2="472.836"/>
  <line style="fill: none; fill-opacity:0; stroke-width: 2; stroke: #cbcbcb" x1="419.74" y1="627.319" x2="484.725" y2="476.04"/>
  <line style="fill: none; fill-opacity:0; stroke-width: 2; stroke: #cbcbcb" x1="416.085" y1="373.916" x2="360.71" y2="504.954"/>
  <line style="fill: none; fill-opacity:0; stroke-width: 2; stroke: #cbcbcb" x1="545.142" y1="503.748" x2="703.517" y2="593.362"/>
  <rect style="fill: none; fill-opacity:0; stroke-width: 2.35099e-37; stroke: #ffffff" x="280.011" y="320.007" width="579.991" height="359.976"/>
</svg>
