<?xml version="1.0" encoding="UTF-8" standalone="no"?>
<!DOCTYPE svg PUBLIC "-//W3C//DTD SVG 1.0//EN" "http://www.w3.org/TR/2001/PR-SVG-20010719/DTD/svg10.dtd">
<svg width="29cm" height="18cm" viewBox="280 320 580 360" xmlns="http://www.w3.org/2000/svg" xmlns:xlink="http://www.w3.org/1999/xlink">
  <g>
    <g>
      <ellipse style="fill: #217521" cx="357.734" cy="512.15" rx="6.75" ry="6.75"/>
      <ellipse style="fill: none; fill-opacity:0; stroke-width: 2; stroke: #217521" cx="357.734" cy="512.15" rx="6.75" ry="6.75"/>
      <ellipse style="fill: none; fill-opacity:0; stroke-width: 2; stroke: #217521" cx="357.734" cy="512.15" rx="6.75" ry="6.75"/>
    </g>
    <g>
      <ellipse style="fill: #217521" cx="332.284" cy="496.288" rx="6.75" ry="6.75"/>
      <ellipse style="fill: none; fill-opacity:0; stroke-width: 2; stroke: #000000" cx="332.284" cy="496.288" rx="6.75" ry="6.75"/>
      <ellipse style="fill: none; fill-opacity:0; stroke-width: 2; stroke: #000000" cx="332.284" cy="496.288" rx="6.75" ry="6.75"/>
    </g>
    <g>
      <ellipse style="fill: #217521" cx="307.11" cy="481.128" rx="6.75" ry="6.75"/>
      <ellipse style="fill: none; fill-opacity:0; stroke-width: 2; stroke: #217521" cx="307.11" cy="481.128" rx="6.75" ry="6.75"/>
      <ellipse style="fill: none; fill-opacity:0; stroke-width: 2; stroke: #217521" cx="307.11" cy="481.128" rx="6.75" ry="6.75"/>
    </g>
    <line style="fill: none; fill-opacity:0; stroke-width: 4; stroke: #000000" x1="313.754" y1="485.129" x2="325.64" y2="492.287"/>
    <line style="fill: none; fill-opacity:0; stroke-width: 4; stroke: #000000" x1="338.858" y1="500.385" x2="351.16" y2="508.053"/>
  </g>
  <g>
    <ellipse style="fill: #9cdaa4" cx="416.722" cy="634.498" rx="6.75" ry="6.75"/>
    <ellipse style="fill: none; fill-opacity:0; stroke-width: 2; stroke: #9cdaa4" cx="416.722" cy="634.498" rx="6.75" ry="6.75"/>
    <ellipse style="fill: none; fill-opacity:0; stroke-width: 2; stroke: #9cdaa4" cx="416.722" cy="634.498" rx="6.75" ry="6.75"/>
  </g>
  <g>
    <ellipse style="fill: #9cdaa4" cx="538.45" cy="499.994" rx="6.75" ry="6.75"/>
    <ellipse style="fill: none; fill-opacity:0; stroke-width: 2; stroke: #9cdaa4" cx="538.45" cy="499.994" rx="6.75" ry="6.75"/>
    <ellipse style="fill: none; fill-opacity:0; stroke-width: 2; stroke: #9cdaa4" cx="538.45" cy="499.994" rx="6.75" ry="6.75"/>
  </g>
  <g>
    <ellipse style="fill: #217521" cx="513" cy="484.132" rx="6.75" ry="6.75"/>
    <ellipse style="fill: none; fill-opacity:0; stroke-width: 2; stroke: #000000" cx="513" cy="484.132" rx="6.75" ry="6.75"/>
    <ellipse style="fill: none; fill-opacity:0; stroke-width: 2; stroke: #000000" cx="513" cy="484.132" rx="6.75" ry="6.75"/>
  </g>
  <g>
    <ellipse style="fill: #217521" cx="487.826" cy="468.974" rx="6.75" ry="6.75"/>
    <ellipse style="fill: none; fill-opacity:0; stroke-width: 2; stroke: #217521" cx="487.826" cy="468.974" rx="6.75" ry="6.75"/>
    <ellipse style="fill: none; fill-opacity:0; stroke-width: 2; stroke: #217521" cx="487.826" cy="468.974" rx="6.75" ry="6.75"/>
  </g>
  <line style="fill: none; fill-opacity:0; stroke-width: 4; stroke: #000000" x1="494.47" y1="472.974" x2="506.356" y2="480.132"/>
  <line style="fill: none; fill-opacity:0; stroke-width: 4; stroke: #cbcbcb" x1="519.574" y1="488.229" x2="531.876" y2="495.897"/>
  <g>
    <ellipse style="fill: #9cdaa4" cx="419.144" cy="366.832" rx="6.75" ry="6.75"/>
    <ellipse style="fill: none; fill-opacity:0; stroke-width: 2; stroke: #9cdaa4" cx="419.144" cy="366.832" rx="6.75" ry="6.75"/>
    <ellipse style="fill: none; fill-opacity:0; stroke-width: 2; stroke: #9cdaa4" cx="419.144" cy="366.832" rx="6.75" ry="6.75"/>
  </g>
  <g>
    <ellipse style="fill: #9cdaa4" cx="642.4" cy="444.37" rx="6.75" ry="6.75"/>
    <ellipse style="fill: none; fill-opacity:0; stroke-width: 2; stroke: #9cdaa4" cx="642.4" cy="444.37" rx="6.75" ry="6.75"/>
    <ellipse style="fill: none; fill-opacity:0; stroke-width: 2; stroke: #9cdaa4" cx="642.4" cy="444.37" rx="6.75" ry="6.75"/>
  </g>
  <line style="fill: none; fill-opacity:0; stroke-width: 4; stroke: #000000" x1="364.975" y1="509.747" x2="480.585" y2="471.377"/>
  <line style="fill: none; fill-opacity:0; stroke-width: 2; stroke: #cbcbcb" x1="423.453" y1="373.241" x2="483.517" y2="462.565"/>
  <line style="fill: none; fill-opacity:0; stroke-width: 2; stroke: #cbcbcb" x1="413.366" y1="627.538" x2="361.09" y2="519.11"/>
  <line style="fill: none; fill-opacity:0; stroke-width: 2; stroke: #cbcbcb" x1="419.782" y1="627.376" x2="484.766" y2="476.096"/>
  <line style="fill: none; fill-opacity:0; stroke-width: 2; stroke: #cbcbcb" x1="416.127" y1="373.972" x2="360.751" y2="505.01"/>
  <line style="fill: none; fill-opacity:0; stroke-width: 2; stroke: #cbcbcb" x1="495.468" y1="467.758" x2="634.758" y2="445.586"/>
  <rect style="fill: none; fill-opacity:0; stroke-width: 2.35099e-37; stroke: #ffffff" x="280" y="320.01" width="579.991" height="359.976"/>
</svg>
