<?xml version="1.0" encoding="UTF-8" standalone="no"?>
<!DOCTYPE svg PUBLIC "-//W3C//DTD SVG 1.0//EN" "http://www.w3.org/TR/2001/PR-SVG-20010719/DTD/svg10.dtd">
<svg width="29cm" height="18cm" viewBox="280 319 580 360" xmlns="http://www.w3.org/2000/svg" xmlns:xlink="http://www.w3.org/1999/xlink">
  <g>
    <g>
      <ellipse style="fill: #217521" cx="357.764" cy="512.132" rx="6.75" ry="6.75"/>
      <ellipse style="fill: none; fill-opacity:0; stroke-width: 2; stroke: #217521" cx="357.764" cy="512.132" rx="6.75" ry="6.75"/>
      <ellipse style="fill: none; fill-opacity:0; stroke-width: 2; stroke: #217521" cx="357.764" cy="512.132" rx="6.75" ry="6.75"/>
    </g>
    <g>
      <ellipse style="fill: #217521" cx="332.314" cy="496.27" rx="6.75" ry="6.75"/>
      <ellipse style="fill: none; fill-opacity:0; stroke-width: 2; stroke: #000000" cx="332.314" cy="496.27" rx="6.75" ry="6.75"/>
      <ellipse style="fill: none; fill-opacity:0; stroke-width: 2; stroke: #000000" cx="332.314" cy="496.27" rx="6.75" ry="6.75"/>
    </g>
    <g>
      <ellipse style="fill: #217521" cx="307.14" cy="481.11" rx="6.75" ry="6.75"/>
      <ellipse style="fill: none; fill-opacity:0; stroke-width: 2; stroke: #217521" cx="307.14" cy="481.11" rx="6.75" ry="6.75"/>
      <ellipse style="fill: none; fill-opacity:0; stroke-width: 2; stroke: #217521" cx="307.14" cy="481.11" rx="6.75" ry="6.75"/>
    </g>
    <line style="fill: none; fill-opacity:0; stroke-width: 4; stroke: #000000" x1="313.784" y1="485.111" x2="325.67" y2="492.269"/>
    <line style="fill: none; fill-opacity:0; stroke-width: 4; stroke: #000000" x1="338.888" y1="500.367" x2="351.19" y2="508.035"/>
  </g>
  <g>
    <ellipse style="fill: #9cdaa4" cx="441.924" cy="649.64" rx="6.75" ry="6.75"/>
    <ellipse style="fill: none; fill-opacity:0; stroke-width: 2; stroke: #cbcbcb" cx="441.924" cy="649.64" rx="6.75" ry="6.75"/>
    <ellipse style="fill: none; fill-opacity:0; stroke-width: 2; stroke: #cbcbcb" cx="441.924" cy="649.64" rx="6.75" ry="6.75"/>
  </g>
  <g>
    <ellipse style="fill: #217521" cx="416.752" cy="634.48" rx="6.75" ry="6.75"/>
    <ellipse style="fill: none; fill-opacity:0; stroke-width: 2; stroke: #217521" cx="416.752" cy="634.48" rx="6.75" ry="6.75"/>
    <ellipse style="fill: none; fill-opacity:0; stroke-width: 2; stroke: #217521" cx="416.752" cy="634.48" rx="6.75" ry="6.75"/>
  </g>
  <line style="fill: none; fill-opacity:0; stroke-width: 4; stroke: #cbcbcb" x1="423.395" y1="638.481" x2="435.281" y2="645.639"/>
  <g>
    <g>
      <ellipse style="fill: #217521" cx="538.48" cy="499.976" rx="6.75" ry="6.75"/>
      <ellipse style="fill: none; fill-opacity:0; stroke-width: 2; stroke: #217521" cx="538.48" cy="499.976" rx="6.75" ry="6.75"/>
      <ellipse style="fill: none; fill-opacity:0; stroke-width: 2; stroke: #217521" cx="538.48" cy="499.976" rx="6.75" ry="6.75"/>
    </g>
    <g>
      <ellipse style="fill: #217521" cx="513.03" cy="484.114" rx="6.75" ry="6.75"/>
      <ellipse style="fill: none; fill-opacity:0; stroke-width: 2; stroke: #000000" cx="513.03" cy="484.114" rx="6.75" ry="6.75"/>
      <ellipse style="fill: none; fill-opacity:0; stroke-width: 2; stroke: #000000" cx="513.03" cy="484.114" rx="6.75" ry="6.75"/>
    </g>
    <g>
      <ellipse style="fill: #217521" cx="487.856" cy="468.956" rx="6.75" ry="6.75"/>
      <ellipse style="fill: none; fill-opacity:0; stroke-width: 2; stroke: #217521" cx="487.856" cy="468.956" rx="6.75" ry="6.75"/>
      <ellipse style="fill: none; fill-opacity:0; stroke-width: 2; stroke: #217521" cx="487.856" cy="468.956" rx="6.75" ry="6.75"/>
    </g>
    <line style="fill: none; fill-opacity:0; stroke-width: 4; stroke: #000000" x1="494.5" y1="472.956" x2="506.386" y2="480.114"/>
    <line style="fill: none; fill-opacity:0; stroke-width: 4; stroke: #000000" x1="519.604" y1="488.211" x2="531.906" y2="495.879"/>
  </g>
  <g>
    <g>
      <ellipse style="fill: #217521" cx="419.174" cy="366.814" rx="6.75" ry="6.75"/>
      <ellipse style="fill: none; fill-opacity:0; stroke-width: 2; stroke: #217521" cx="419.174" cy="366.814" rx="6.75" ry="6.75"/>
      <ellipse style="fill: none; fill-opacity:0; stroke-width: 2; stroke: #217521" cx="419.174" cy="366.814" rx="6.75" ry="6.75"/>
    </g>
    <g>
      <ellipse style="fill: #217521" cx="393.724" cy="350.952" rx="6.75" ry="6.75"/>
      <ellipse style="fill: none; fill-opacity:0; stroke-width: 2; stroke: #000000" cx="393.724" cy="350.952" rx="6.75" ry="6.75"/>
      <ellipse style="fill: none; fill-opacity:0; stroke-width: 2; stroke: #000000" cx="393.724" cy="350.952" rx="6.75" ry="6.75"/>
    </g>
    <g>
      <ellipse style="fill: #217521" cx="368.552" cy="335.794" rx="6.75" ry="6.75"/>
      <ellipse style="fill: none; fill-opacity:0; stroke-width: 2; stroke: #217521" cx="368.552" cy="335.794" rx="6.75" ry="6.75"/>
      <ellipse style="fill: none; fill-opacity:0; stroke-width: 2; stroke: #217521" cx="368.552" cy="335.794" rx="6.75" ry="6.75"/>
    </g>
    <line style="fill: none; fill-opacity:0; stroke-width: 4; stroke: #000000" x1="375.195" y1="339.794" x2="387.081" y2="346.952"/>
    <line style="fill: none; fill-opacity:0; stroke-width: 4; stroke: #000000" x1="400.298" y1="355.049" x2="412.6" y2="362.717"/>
  </g>
  <g>
    <g>
      <ellipse style="fill: #217521" cx="693.054" cy="475.372" rx="6.75" ry="6.75"/>
      <ellipse style="fill: none; fill-opacity:0; stroke-width: 2; stroke: #217521" cx="693.054" cy="475.372" rx="6.75" ry="6.75"/>
      <ellipse style="fill: none; fill-opacity:0; stroke-width: 2; stroke: #217521" cx="693.054" cy="475.372" rx="6.75" ry="6.75"/>
    </g>
    <g>
      <ellipse style="fill: #217521" cx="667.604" cy="459.51" rx="6.75" ry="6.75"/>
      <ellipse style="fill: none; fill-opacity:0; stroke-width: 2; stroke: #000000" cx="667.604" cy="459.51" rx="6.75" ry="6.75"/>
      <ellipse style="fill: none; fill-opacity:0; stroke-width: 2; stroke: #000000" cx="667.604" cy="459.51" rx="6.75" ry="6.75"/>
    </g>
    <g>
      <ellipse style="fill: #217521" cx="642.43" cy="444.352" rx="6.75" ry="6.75"/>
      <ellipse style="fill: none; fill-opacity:0; stroke-width: 2; stroke: #217521" cx="642.43" cy="444.352" rx="6.75" ry="6.75"/>
      <ellipse style="fill: none; fill-opacity:0; stroke-width: 2; stroke: #217521" cx="642.43" cy="444.352" rx="6.75" ry="6.75"/>
    </g>
    <line style="fill: none; fill-opacity:0; stroke-width: 4; stroke: #000000" x1="649.074" y1="448.352" x2="660.96" y2="455.51"/>
    <line style="fill: none; fill-opacity:0; stroke-width: 4; stroke: #000000" x1="674.178" y1="463.607" x2="686.48" y2="471.275"/>
  </g>
  <g>
    <g>
      <ellipse style="fill: #217521" cx="760.946" cy="628.23" rx="6.75" ry="6.75"/>
      <ellipse style="fill: none; fill-opacity:0; stroke-width: 2; stroke: #217521" cx="760.946" cy="628.23" rx="6.75" ry="6.75"/>
      <ellipse style="fill: none; fill-opacity:0; stroke-width: 2; stroke: #217521" cx="760.946" cy="628.23" rx="6.75" ry="6.75"/>
    </g>
    <g>
      <ellipse style="fill: #217521" cx="735.496" cy="612.368" rx="6.75" ry="6.75"/>
      <ellipse style="fill: none; fill-opacity:0; stroke-width: 2; stroke: #000000" cx="735.496" cy="612.368" rx="6.75" ry="6.75"/>
      <ellipse style="fill: none; fill-opacity:0; stroke-width: 2; stroke: #000000" cx="735.496" cy="612.368" rx="6.75" ry="6.75"/>
    </g>
    <g>
      <ellipse style="fill: #217521" cx="710.322" cy="597.21" rx="6.75" ry="6.75"/>
      <ellipse style="fill: none; fill-opacity:0; stroke-width: 2; stroke: #217521" cx="710.322" cy="597.21" rx="6.75" ry="6.75"/>
      <ellipse style="fill: none; fill-opacity:0; stroke-width: 2; stroke: #217521" cx="710.322" cy="597.21" rx="6.75" ry="6.75"/>
    </g>
    <line style="fill: none; fill-opacity:0; stroke-width: 4; stroke: #000000" x1="716.966" y1="601.21" x2="728.852" y2="608.368"/>
    <line style="fill: none; fill-opacity:0; stroke-width: 4; stroke: #000000" x1="742.07" y1="616.465" x2="754.372" y2="624.133"/>
  </g>
  <g>
    <g>
      <ellipse style="fill: #217521" cx="833.318" cy="427.632" rx="6.75" ry="6.75"/>
      <ellipse style="fill: none; fill-opacity:0; stroke-width: 2; stroke: #217521" cx="833.318" cy="427.632" rx="6.75" ry="6.75"/>
      <ellipse style="fill: none; fill-opacity:0; stroke-width: 2; stroke: #217521" cx="833.318" cy="427.632" rx="6.75" ry="6.75"/>
    </g>
    <g>
      <ellipse style="fill: #217521" cx="807.868" cy="411.77" rx="6.75" ry="6.75"/>
      <ellipse style="fill: none; fill-opacity:0; stroke-width: 2; stroke: #000000" cx="807.868" cy="411.77" rx="6.75" ry="6.75"/>
      <ellipse style="fill: none; fill-opacity:0; stroke-width: 2; stroke: #000000" cx="807.868" cy="411.77" rx="6.75" ry="6.75"/>
    </g>
    <g>
      <ellipse style="fill: #217521" cx="782.694" cy="396.612" rx="6.75" ry="6.75"/>
      <ellipse style="fill: none; fill-opacity:0; stroke-width: 2; stroke: #217521" cx="782.694" cy="396.612" rx="6.75" ry="6.75"/>
      <ellipse style="fill: none; fill-opacity:0; stroke-width: 2; stroke: #217521" cx="782.694" cy="396.612" rx="6.75" ry="6.75"/>
    </g>
    <line style="fill: none; fill-opacity:0; stroke-width: 4; stroke: #000000" x1="789.338" y1="400.612" x2="801.224" y2="407.77"/>
    <line style="fill: none; fill-opacity:0; stroke-width: 4; stroke: #000000" x1="814.442" y1="415.867" x2="826.744" y2="423.535"/>
  </g>
  <line style="fill: none; fill-opacity:0; stroke-width: 4; stroke: #000000" x1="365.006" y1="509.728" x2="480.614" y2="471.36"/>
  <line style="fill: none; fill-opacity:0; stroke-width: 4; stroke: #000000" x1="423.484" y1="373.222" x2="483.546" y2="462.546"/>
  <line style="fill: none; fill-opacity:0; stroke-width: 4; stroke: #000000" x1="413.438" y1="627.606" x2="361.12" y2="519.092"/>
  <line style="fill: none; fill-opacity:0; stroke-width: 4; stroke: #000000" x1="635.596" y1="448.008" x2="545.314" y2="496.32"/>
  <line style="fill: none; fill-opacity:0; stroke-width: 4; stroke: #000000" x1="709.238" y1="589.566" x2="694.138" y2="483.016"/>
  <line style="fill: none; fill-opacity:0; stroke-width: 4; stroke: #000000" x1="825.982" y1="430.128" x2="700.39" y2="472.874"/>
  <rect style="fill: none; fill-opacity:0; stroke-width: 2.35099e-37; stroke: #ffffff" x="280.01" y="319.982" width="579.991" height="359.976"/>
</svg>
