<?xml version="1.0" encoding="UTF-8" standalone="no"?>
<!DOCTYPE svg PUBLIC "-//W3C//DTD SVG 1.0//EN" "http://www.w3.org/TR/2001/PR-SVG-20010719/DTD/svg10.dtd">
<svg width="29cm" height="18cm" viewBox="280 320 580 360" xmlns="http://www.w3.org/2000/svg" xmlns:xlink="http://www.w3.org/1999/xlink">
  <rect style="fill: none; fill-opacity:0; stroke-width: 2.35099e-37; stroke: #ffffff" x="280.004" y="320.002" width="579.991" height="359.976"/>
  <g>
    <ellipse style="fill: #505050" cx="357.694" cy="512.108" rx="6.75" ry="6.75"/>
    <ellipse style="fill: none; fill-opacity:0; stroke-width: 2; stroke: #505050" cx="357.694" cy="512.108" rx="6.75" ry="6.75"/>
    <ellipse style="fill: none; fill-opacity:0; stroke-width: 2; stroke: #505050" cx="357.694" cy="512.108" rx="6.75" ry="6.75"/>
  </g>
  <g>
    <ellipse style="fill: #47a3ff" cx="332.244" cy="496.246" rx="6.75" ry="6.75"/>
    <ellipse style="fill: none; fill-opacity:0; stroke-width: 2; stroke: #47a3ff" cx="332.244" cy="496.246" rx="6.75" ry="6.75"/>
    <ellipse style="fill: none; fill-opacity:0; stroke-width: 2; stroke: #47a3ff" cx="332.244" cy="496.246" rx="6.75" ry="6.75"/>
  </g>
  <g>
    <ellipse style="fill: #505050" cx="307.07" cy="481.086" rx="6.75" ry="6.75"/>
    <ellipse style="fill: none; fill-opacity:0; stroke-width: 2; stroke: #505050" cx="307.07" cy="481.086" rx="6.75" ry="6.75"/>
    <ellipse style="fill: none; fill-opacity:0; stroke-width: 2; stroke: #505050" cx="307.07" cy="481.086" rx="6.75" ry="6.75"/>
  </g>
  <line style="fill: none; fill-opacity:0; stroke-width: 4; stroke: #cbcbcb" x1="313.714" y1="485.087" x2="325.6" y2="492.245"/>
  <line style="fill: none; fill-opacity:0; stroke-width: 4; stroke: #cbcbcb" x1="338.818" y1="500.343" x2="351.12" y2="508.011"/>
  <g>
    <ellipse style="fill: #505050" cx="467.304" cy="665.476" rx="6.75" ry="6.75"/>
    <ellipse style="fill: none; fill-opacity:0; stroke-width: 2; stroke: #505050" cx="467.304" cy="665.476" rx="6.75" ry="6.75"/>
    <ellipse style="fill: none; fill-opacity:0; stroke-width: 2; stroke: #505050" cx="467.304" cy="665.476" rx="6.75" ry="6.75"/>
  </g>
  <g>
    <ellipse style="fill: #47a3ff" cx="441.854" cy="649.616" rx="6.75" ry="6.75"/>
    <ellipse style="fill: none; fill-opacity:0; stroke-width: 2; stroke: #47a3ff" cx="441.854" cy="649.616" rx="6.75" ry="6.75"/>
    <ellipse style="fill: none; fill-opacity:0; stroke-width: 2; stroke: #47a3ff" cx="441.854" cy="649.616" rx="6.75" ry="6.75"/>
  </g>
  <g>
    <ellipse style="fill: #505050" cx="416.682" cy="634.456" rx="6.75" ry="6.75"/>
    <ellipse style="fill: none; fill-opacity:0; stroke-width: 2; stroke: #505050" cx="416.682" cy="634.456" rx="6.75" ry="6.75"/>
    <ellipse style="fill: none; fill-opacity:0; stroke-width: 2; stroke: #505050" cx="416.682" cy="634.456" rx="6.75" ry="6.75"/>
  </g>
  <line style="fill: none; fill-opacity:0; stroke-width: 4; stroke: #cbcbcb" x1="423.325" y1="638.457" x2="435.211" y2="645.615"/>
  <line style="fill: none; fill-opacity:0; stroke-width: 4; stroke: #cbcbcb" x1="448.428" y1="653.713" x2="460.73" y2="661.379"/>
  <g>
    <ellipse style="fill: #505050" cx="538.41" cy="499.952" rx="6.75" ry="6.75"/>
    <ellipse style="fill: none; fill-opacity:0; stroke-width: 2; stroke: #505050" cx="538.41" cy="499.952" rx="6.75" ry="6.75"/>
    <ellipse style="fill: none; fill-opacity:0; stroke-width: 2; stroke: #505050" cx="538.41" cy="499.952" rx="6.75" ry="6.75"/>
  </g>
  <g>
    <ellipse style="fill: #47a3ff" cx="512.96" cy="484.09" rx="6.75" ry="6.75"/>
    <ellipse style="fill: none; fill-opacity:0; stroke-width: 2; stroke: #47a3ff" cx="512.96" cy="484.09" rx="6.75" ry="6.75"/>
    <ellipse style="fill: none; fill-opacity:0; stroke-width: 2; stroke: #47a3ff" cx="512.96" cy="484.09" rx="6.75" ry="6.75"/>
  </g>
  <g>
    <ellipse style="fill: #505050" cx="487.786" cy="468.932" rx="6.75" ry="6.75"/>
    <ellipse style="fill: none; fill-opacity:0; stroke-width: 2; stroke: #505050" cx="487.786" cy="468.932" rx="6.75" ry="6.75"/>
    <ellipse style="fill: none; fill-opacity:0; stroke-width: 2; stroke: #505050" cx="487.786" cy="468.932" rx="6.75" ry="6.75"/>
  </g>
  <line style="fill: none; fill-opacity:0; stroke-width: 4; stroke: #cbcbcb" x1="494.43" y1="472.932" x2="506.316" y2="480.09"/>
  <line style="fill: none; fill-opacity:0; stroke-width: 4; stroke: #cbcbcb" x1="519.534" y1="488.187" x2="531.836" y2="495.855"/>
  <g>
    <ellipse style="fill: #505050" cx="419.104" cy="366.79" rx="6.75" ry="6.75"/>
    <ellipse style="fill: none; fill-opacity:0; stroke-width: 2; stroke: #505050" cx="419.104" cy="366.79" rx="6.75" ry="6.75"/>
    <ellipse style="fill: none; fill-opacity:0; stroke-width: 2; stroke: #505050" cx="419.104" cy="366.79" rx="6.75" ry="6.75"/>
  </g>
  <g>
    <ellipse style="fill: #47a3ff" cx="393.654" cy="350.928" rx="6.75" ry="6.75"/>
    <ellipse style="fill: none; fill-opacity:0; stroke-width: 2; stroke: #47a3ff" cx="393.654" cy="350.928" rx="6.75" ry="6.75"/>
    <ellipse style="fill: none; fill-opacity:0; stroke-width: 2; stroke: #47a3ff" cx="393.654" cy="350.928" rx="6.75" ry="6.75"/>
  </g>
  <g>
    <ellipse style="fill: #505050" cx="368.482" cy="335.77" rx="6.75" ry="6.75"/>
    <ellipse style="fill: none; fill-opacity:0; stroke-width: 2; stroke: #505050" cx="368.482" cy="335.77" rx="6.75" ry="6.75"/>
    <ellipse style="fill: none; fill-opacity:0; stroke-width: 2; stroke: #505050" cx="368.482" cy="335.77" rx="6.75" ry="6.75"/>
  </g>
  <line style="fill: none; fill-opacity:0; stroke-width: 4; stroke: #cbcbcb" x1="375.125" y1="339.77" x2="387.011" y2="346.928"/>
  <line style="fill: none; fill-opacity:0; stroke-width: 4; stroke: #cbcbcb" x1="400.228" y1="355.025" x2="412.53" y2="362.693"/>
  <g>
    <ellipse style="fill: #505050" cx="692.984" cy="475.348" rx="6.75" ry="6.75"/>
    <ellipse style="fill: none; fill-opacity:0; stroke-width: 2; stroke: #505050" cx="692.984" cy="475.348" rx="6.75" ry="6.75"/>
    <ellipse style="fill: none; fill-opacity:0; stroke-width: 2; stroke: #505050" cx="692.984" cy="475.348" rx="6.75" ry="6.75"/>
  </g>
  <g>
    <ellipse style="fill: #47a3ff" cx="667.534" cy="459.486" rx="6.75" ry="6.75"/>
    <ellipse style="fill: none; fill-opacity:0; stroke-width: 2; stroke: #47a3ff" cx="667.534" cy="459.486" rx="6.75" ry="6.75"/>
    <ellipse style="fill: none; fill-opacity:0; stroke-width: 2; stroke: #47a3ff" cx="667.534" cy="459.486" rx="6.75" ry="6.75"/>
  </g>
  <g>
    <ellipse style="fill: #505050" cx="642.36" cy="444.328" rx="6.75" ry="6.75"/>
    <ellipse style="fill: none; fill-opacity:0; stroke-width: 2; stroke: #505050" cx="642.36" cy="444.328" rx="6.75" ry="6.75"/>
    <ellipse style="fill: none; fill-opacity:0; stroke-width: 2; stroke: #505050" cx="642.36" cy="444.328" rx="6.75" ry="6.75"/>
  </g>
  <line style="fill: none; fill-opacity:0; stroke-width: 4; stroke: #cbcbcb" x1="649.004" y1="448.328" x2="660.89" y2="455.486"/>
  <line style="fill: none; fill-opacity:0; stroke-width: 4; stroke: #cbcbcb" x1="674.108" y1="463.583" x2="686.41" y2="471.251"/>
  <g>
    <ellipse style="fill: #505050" cx="760.876" cy="628.206" rx="6.75" ry="6.75"/>
    <ellipse style="fill: none; fill-opacity:0; stroke-width: 2; stroke: #505050" cx="760.876" cy="628.206" rx="6.75" ry="6.75"/>
    <ellipse style="fill: none; fill-opacity:0; stroke-width: 2; stroke: #505050" cx="760.876" cy="628.206" rx="6.75" ry="6.75"/>
  </g>
  <g>
    <ellipse style="fill: #47a3ff" cx="735.426" cy="612.344" rx="6.75" ry="6.75"/>
    <ellipse style="fill: none; fill-opacity:0; stroke-width: 2; stroke: #47a3ff" cx="735.426" cy="612.344" rx="6.75" ry="6.75"/>
    <ellipse style="fill: none; fill-opacity:0; stroke-width: 2; stroke: #47a3ff" cx="735.426" cy="612.344" rx="6.75" ry="6.75"/>
  </g>
  <g>
    <ellipse style="fill: #505050" cx="710.252" cy="597.186" rx="6.75" ry="6.75"/>
    <ellipse style="fill: none; fill-opacity:0; stroke-width: 2; stroke: #505050" cx="710.252" cy="597.186" rx="6.75" ry="6.75"/>
    <ellipse style="fill: none; fill-opacity:0; stroke-width: 2; stroke: #505050" cx="710.252" cy="597.186" rx="6.75" ry="6.75"/>
  </g>
  <line style="fill: none; fill-opacity:0; stroke-width: 4; stroke: #cbcbcb" x1="716.896" y1="601.186" x2="728.782" y2="608.344"/>
  <line style="fill: none; fill-opacity:0; stroke-width: 4; stroke: #cbcbcb" x1="742" y1="616.441" x2="754.302" y2="624.109"/>
  <g>
    <ellipse style="fill: #505050" cx="833.248" cy="427.608" rx="6.75" ry="6.75"/>
    <ellipse style="fill: none; fill-opacity:0; stroke-width: 2; stroke: #505050" cx="833.248" cy="427.608" rx="6.75" ry="6.75"/>
    <ellipse style="fill: none; fill-opacity:0; stroke-width: 2; stroke: #505050" cx="833.248" cy="427.608" rx="6.75" ry="6.75"/>
  </g>
  <g>
    <ellipse style="fill: #47a3ff" cx="807.798" cy="411.746" rx="6.75" ry="6.75"/>
    <ellipse style="fill: none; fill-opacity:0; stroke-width: 2; stroke: #47a3ff" cx="807.798" cy="411.746" rx="6.75" ry="6.75"/>
    <ellipse style="fill: none; fill-opacity:0; stroke-width: 2; stroke: #47a3ff" cx="807.798" cy="411.746" rx="6.75" ry="6.75"/>
  </g>
  <g>
    <ellipse style="fill: #505050" cx="782.624" cy="396.588" rx="6.75" ry="6.75"/>
    <ellipse style="fill: none; fill-opacity:0; stroke-width: 2; stroke: #505050" cx="782.624" cy="396.588" rx="6.75" ry="6.75"/>
    <ellipse style="fill: none; fill-opacity:0; stroke-width: 2; stroke: #505050" cx="782.624" cy="396.588" rx="6.75" ry="6.75"/>
  </g>
  <line style="fill: none; fill-opacity:0; stroke-width: 4; stroke: #cbcbcb" x1="789.268" y1="400.588" x2="801.154" y2="407.746"/>
  <line style="fill: none; fill-opacity:0; stroke-width: 4; stroke: #cbcbcb" x1="814.372" y1="415.843" x2="826.674" y2="423.511"/>
  <line style="fill: none; fill-opacity:0; stroke-width: 4; stroke-dasharray: 4; stroke: #ff9100" x1="423.414" y1="373.198" x2="483.46" y2="462.499"/>
  <line style="fill: none; fill-opacity:0; stroke-width: 4; stroke-dasharray: 4; stroke: #a020f0" x1="635.525" y1="447.985" x2="545.242" y2="496.294"/>
  <line style="fill: none; fill-opacity:0; stroke-width: 4; stroke-dasharray: 4; stroke: #8c8c8c" x1="709.169" y1="589.541" x2="694.067" y2="482.993"/>
  <line style="fill: none; fill-opacity:0; stroke-width: 4; stroke-dasharray: 4; stroke: #8c8c8c" x1="825.91" y1="430.104" x2="700.32" y2="472.85"/>
  <line style="fill: none; fill-opacity:0; stroke-width: 4; stroke-dasharray: 4; stroke: #ff9100" x1="416.087" y1="373.93" x2="360.711" y2="504.968"/>
  <line style="fill: none; fill-opacity:0; stroke-width: 4; stroke-dasharray: 4; stroke: #ff9100" x1="480.545" y1="471.335" x2="364.935" y2="509.705"/>
  <line style="fill: none; fill-opacity:0; stroke-width: 4; stroke-dasharray: 4; stroke: #a020f0" x1="413.326" y1="627.496" x2="361.05" y2="519.068"/>
  <line style="fill: none; fill-opacity:0; stroke-width: 4; stroke-dasharray: 4; stroke: #217521" x1="474.991" y1="664.5" x2="753.189" y2="629.182"/>
</svg>
