<?xml version="1.0" encoding="UTF-8" standalone="no"?>
<!DOCTYPE svg PUBLIC "-//W3C//DTD SVG 1.0//EN" "http://www.w3.org/TR/2001/PR-SVG-20010719/DTD/svg10.dtd">
<svg width="29cm" height="18cm" viewBox="280 320 580 360" xmlns="http://www.w3.org/2000/svg" xmlns:xlink="http://www.w3.org/1999/xlink">
  <g>
    <g>
      <ellipse style="fill: #217521" cx="357.771" cy="512.163" rx="6.75" ry="6.75"/>
      <ellipse style="fill: none; fill-opacity:0; stroke-width: 2; stroke: #217521" cx="357.771" cy="512.163" rx="6.75" ry="6.75"/>
      <ellipse style="fill: none; fill-opacity:0; stroke-width: 2; stroke: #217521" cx="357.771" cy="512.163" rx="6.75" ry="6.75"/>
    </g>
    <g>
      <ellipse style="fill: #217521" cx="332.321" cy="496.301" rx="6.75" ry="6.75"/>
      <ellipse style="fill: none; fill-opacity:0; stroke-width: 2; stroke: #000000" cx="332.321" cy="496.301" rx="6.75" ry="6.75"/>
      <ellipse style="fill: none; fill-opacity:0; stroke-width: 2; stroke: #000000" cx="332.321" cy="496.301" rx="6.75" ry="6.75"/>
    </g>
    <g>
      <ellipse style="fill: #217521" cx="307.147" cy="481.141" rx="6.75" ry="6.75"/>
      <ellipse style="fill: none; fill-opacity:0; stroke-width: 2; stroke: #217521" cx="307.147" cy="481.141" rx="6.75" ry="6.75"/>
      <ellipse style="fill: none; fill-opacity:0; stroke-width: 2; stroke: #217521" cx="307.147" cy="481.141" rx="6.75" ry="6.75"/>
    </g>
    <line style="fill: none; fill-opacity:0; stroke-width: 4; stroke: #000000" x1="313.791" y1="485.142" x2="325.677" y2="492.3"/>
    <line style="fill: none; fill-opacity:0; stroke-width: 4; stroke: #000000" x1="338.895" y1="500.398" x2="351.197" y2="508.066"/>
  </g>
  <g>
    <ellipse style="fill: #9cdaa4" cx="416.759" cy="634.511" rx="6.75" ry="6.75"/>
    <ellipse style="fill: none; fill-opacity:0; stroke-width: 2; stroke: #9cdaa4" cx="416.759" cy="634.511" rx="6.75" ry="6.75"/>
    <ellipse style="fill: none; fill-opacity:0; stroke-width: 2; stroke: #9cdaa4" cx="416.759" cy="634.511" rx="6.75" ry="6.75"/>
  </g>
  <g>
    <g>
      <ellipse style="fill: #217521" cx="538.487" cy="500.007" rx="6.75" ry="6.75"/>
      <ellipse style="fill: none; fill-opacity:0; stroke-width: 2; stroke: #217521" cx="538.487" cy="500.007" rx="6.75" ry="6.75"/>
      <ellipse style="fill: none; fill-opacity:0; stroke-width: 2; stroke: #217521" cx="538.487" cy="500.007" rx="6.75" ry="6.75"/>
    </g>
    <g>
      <ellipse style="fill: #217521" cx="513.037" cy="484.145" rx="6.75" ry="6.75"/>
      <ellipse style="fill: none; fill-opacity:0; stroke-width: 2; stroke: #000000" cx="513.037" cy="484.145" rx="6.75" ry="6.75"/>
      <ellipse style="fill: none; fill-opacity:0; stroke-width: 2; stroke: #000000" cx="513.037" cy="484.145" rx="6.75" ry="6.75"/>
    </g>
    <g>
      <ellipse style="fill: #217521" cx="487.863" cy="468.987" rx="6.75" ry="6.75"/>
      <ellipse style="fill: none; fill-opacity:0; stroke-width: 2; stroke: #217521" cx="487.863" cy="468.987" rx="6.75" ry="6.75"/>
      <ellipse style="fill: none; fill-opacity:0; stroke-width: 2; stroke: #217521" cx="487.863" cy="468.987" rx="6.75" ry="6.75"/>
    </g>
    <line style="fill: none; fill-opacity:0; stroke-width: 4; stroke: #000000" x1="494.507" y1="472.988" x2="506.393" y2="480.145"/>
    <line style="fill: none; fill-opacity:0; stroke-width: 4; stroke: #000000" x1="519.611" y1="488.242" x2="531.913" y2="495.91"/>
  </g>
  <g>
    <ellipse style="fill: #9cdaa4" cx="419.181" cy="366.845" rx="6.75" ry="6.75"/>
    <ellipse style="fill: none; fill-opacity:0; stroke-width: 2; stroke: #9cdaa4" cx="419.181" cy="366.845" rx="6.75" ry="6.75"/>
    <ellipse style="fill: none; fill-opacity:0; stroke-width: 2; stroke: #9cdaa4" cx="419.181" cy="366.845" rx="6.75" ry="6.75"/>
  </g>
  <g>
    <g>
      <ellipse style="fill: #217521" cx="693.061" cy="475.403" rx="6.75" ry="6.75"/>
      <ellipse style="fill: none; fill-opacity:0; stroke-width: 2; stroke: #217521" cx="693.061" cy="475.403" rx="6.75" ry="6.75"/>
      <ellipse style="fill: none; fill-opacity:0; stroke-width: 2; stroke: #217521" cx="693.061" cy="475.403" rx="6.75" ry="6.75"/>
    </g>
    <g>
      <ellipse style="fill: #217521" cx="667.611" cy="459.541" rx="6.75" ry="6.75"/>
      <ellipse style="fill: none; fill-opacity:0; stroke-width: 2; stroke: #000000" cx="667.611" cy="459.541" rx="6.75" ry="6.75"/>
      <ellipse style="fill: none; fill-opacity:0; stroke-width: 2; stroke: #000000" cx="667.611" cy="459.541" rx="6.75" ry="6.75"/>
    </g>
    <g>
      <ellipse style="fill: #217521" cx="642.437" cy="444.383" rx="6.75" ry="6.75"/>
      <ellipse style="fill: none; fill-opacity:0; stroke-width: 2; stroke: #217521" cx="642.437" cy="444.383" rx="6.75" ry="6.75"/>
      <ellipse style="fill: none; fill-opacity:0; stroke-width: 2; stroke: #217521" cx="642.437" cy="444.383" rx="6.75" ry="6.75"/>
    </g>
    <line style="fill: none; fill-opacity:0; stroke-width: 4; stroke: #000000" x1="649.081" y1="448.384" x2="660.967" y2="455.541"/>
    <line style="fill: none; fill-opacity:0; stroke-width: 4; stroke: #000000" x1="674.185" y1="463.638" x2="686.487" y2="471.306"/>
  </g>
  <g>
    <g>
      <ellipse style="fill: #217521" cx="760.953" cy="628.261" rx="6.75" ry="6.75"/>
      <ellipse style="fill: none; fill-opacity:0; stroke-width: 2; stroke: #217521" cx="760.953" cy="628.261" rx="6.75" ry="6.75"/>
      <ellipse style="fill: none; fill-opacity:0; stroke-width: 2; stroke: #217521" cx="760.953" cy="628.261" rx="6.75" ry="6.75"/>
    </g>
    <g>
      <ellipse style="fill: #217521" cx="735.503" cy="612.399" rx="6.75" ry="6.75"/>
      <ellipse style="fill: none; fill-opacity:0; stroke-width: 2; stroke: #000000" cx="735.503" cy="612.399" rx="6.75" ry="6.75"/>
      <ellipse style="fill: none; fill-opacity:0; stroke-width: 2; stroke: #000000" cx="735.503" cy="612.399" rx="6.75" ry="6.75"/>
    </g>
    <g>
      <ellipse style="fill: #217521" cx="710.329" cy="597.241" rx="6.75" ry="6.75"/>
      <ellipse style="fill: none; fill-opacity:0; stroke-width: 2; stroke: #217521" cx="710.329" cy="597.241" rx="6.75" ry="6.75"/>
      <ellipse style="fill: none; fill-opacity:0; stroke-width: 2; stroke: #217521" cx="710.329" cy="597.241" rx="6.75" ry="6.75"/>
    </g>
    <line style="fill: none; fill-opacity:0; stroke-width: 4; stroke: #000000" x1="716.973" y1="601.242" x2="728.859" y2="608.399"/>
    <line style="fill: none; fill-opacity:0; stroke-width: 4; stroke: #000000" x1="742.077" y1="616.496" x2="754.379" y2="624.164"/>
  </g>
  <g>
    <ellipse style="fill: #217521" cx="833.325" cy="427.663" rx="6.75" ry="6.75"/>
    <ellipse style="fill: none; fill-opacity:0; stroke-width: 2; stroke: #217521" cx="833.325" cy="427.663" rx="6.75" ry="6.75"/>
    <ellipse style="fill: none; fill-opacity:0; stroke-width: 2; stroke: #217521" cx="833.325" cy="427.663" rx="6.75" ry="6.75"/>
  </g>
  <g>
    <ellipse style="fill: #217521" cx="807.875" cy="411.801" rx="6.75" ry="6.75"/>
    <ellipse style="fill: none; fill-opacity:0; stroke-width: 2; stroke: #000000" cx="807.875" cy="411.801" rx="6.75" ry="6.75"/>
    <ellipse style="fill: none; fill-opacity:0; stroke-width: 2; stroke: #000000" cx="807.875" cy="411.801" rx="6.75" ry="6.75"/>
  </g>
  <g>
    <ellipse style="fill: #9cdaa4" cx="782.701" cy="396.643" rx="6.75" ry="6.75"/>
    <ellipse style="fill: none; fill-opacity:0; stroke-width: 2; stroke: #9cdaa4" cx="782.701" cy="396.643" rx="6.75" ry="6.75"/>
    <ellipse style="fill: none; fill-opacity:0; stroke-width: 2; stroke: #9cdaa4" cx="782.701" cy="396.643" rx="6.75" ry="6.75"/>
  </g>
  <line style="fill: none; fill-opacity:0; stroke-width: 4; stroke: #cbcbcb" x1="789.345" y1="400.644" x2="801.231" y2="407.801"/>
  <line style="fill: none; fill-opacity:0; stroke-width: 4; stroke: #000000" x1="814.449" y1="415.898" x2="826.751" y2="423.566"/>
  <line style="fill: none; fill-opacity:0; stroke-width: 4; stroke: #000000" x1="365.012" y1="509.76" x2="480.621" y2="471.391"/>
  <line style="fill: none; fill-opacity:0; stroke-width: 2; stroke: #cbcbcb" x1="423.49" y1="373.254" x2="483.553" y2="462.578"/>
  <line style="fill: none; fill-opacity:0; stroke-width: 2; stroke: #cbcbcb" x1="413.403" y1="627.552" x2="361.126" y2="519.123"/>
  <line style="fill: none; fill-opacity:0; stroke-width: 4; stroke: #000000" x1="635.604" y1="448.04" x2="545.32" y2="496.351"/>
  <line style="fill: none; fill-opacity:0; stroke-width: 4; stroke: #000000" x1="709.245" y1="589.597" x2="694.144" y2="483.048"/>
  <line style="fill: none; fill-opacity:0; stroke-width: 4; stroke: #000000" x1="825.988" y1="430.16" x2="700.398" y2="472.906"/>
  <line style="fill: none; fill-opacity:0; stroke-width: 2; stroke: #cbcbcb" x1="419.818" y1="627.389" x2="484.803" y2="476.11"/>
  <line style="fill: none; fill-opacity:0; stroke-width: 2; stroke: #cbcbcb" x1="416.163" y1="373.985" x2="360.788" y2="505.023"/>
  <rect style="fill: none; fill-opacity:0; stroke-width: 2.35099e-37; stroke: #ffffff" x="280.004" y="320.012" width="579.991" height="359.976"/>
</svg>
