<?xml version="1.0" encoding="UTF-8" standalone="no"?>
<!DOCTYPE svg PUBLIC "-//W3C//DTD SVG 1.1//EN"
 "http://www.w3.org/Graphics/SVG/1.1/DTD/svg11.dtd">
<!-- Generated by graphviz version 2.26.3 (20100126.1600)
 -->
<!-- Title: G Pages: 1 -->
<svg width="483pt" height="470pt"
 viewBox="0.00 0.00 483.06 469.70" xmlns="http://www.w3.org/2000/svg" xmlns:xlink="http://www.w3.org/1999/xlink">
<g id="graph1" class="graph" transform="scale(1 1) rotate(0) translate(4 465.699)">
<title>G</title>
<polygon fill="white" stroke="white" points="-4,5 -4,-465.699 480.061,-465.699 480.061,5 -4,5"/>
<!-- 0 -->
<g id="node1" class="node"><title>0</title>
<ellipse fill="none" stroke="black" cx="28" cy="-350.853" rx="27" ry="18"/>
<text text-anchor="middle" x="28" y="-346.753" font-family="Times Roman,serif" font-size="14.00">0</text>
</g>
<!-- 4 -->
<g id="node3" class="node"><title>4</title>
<ellipse fill="none" stroke="black" cx="66.3644" cy="-202.757" rx="27" ry="18"/>
<text text-anchor="middle" x="66.3644" y="-198.657" font-family="Times Roman,serif" font-size="14.00">4</text>
</g>
<!-- 0&#45;&#45;4 -->
<g id="edge2" class="edge"><title>0&#45;&#45;4</title>
<path fill="none" stroke="black" stroke-width="1.5" stroke-dasharray="1,5" d="M32.6276,-332.989C40.0014,-304.524 54.3362,-249.188 61.7203,-220.684"/>
</g>
<!-- 5 -->
<g id="node5" class="node"><title>5</title>
<ellipse fill="none" stroke="black" cx="235.69" cy="-89.6165" rx="27" ry="18"/>
<text text-anchor="middle" x="235.69" y="-85.5165" font-family="Times Roman,serif" font-size="14.00">5</text>
</g>
<!-- 0&#45;&#45;5 -->
<g id="edge4" class="edge"><title>0&#45;&#45;5</title>
<path fill="none" stroke="black" stroke-width="1.8" stroke-dasharray="1,5" d="M40.6793,-334.905C77.7575,-288.267 185.711,-152.482 222.913,-105.688"/>
</g>
<!-- 9 -->
<g id="node7" class="node"><title>9</title>
<ellipse fill="none" stroke="black" cx="165.458" cy="-19" rx="27" ry="18"/>
<text text-anchor="middle" x="165.458" y="-14.9" font-family="Times Roman,serif" font-size="14.00">9</text>
</g>
<!-- 0&#45;&#45;9 -->
<g id="edge6" class="edge"><title>0&#45;&#45;9</title>
<path fill="none" stroke="black" stroke-width="3" stroke-dasharray="1,5" d="M35.1968,-333.478C58.8949,-276.266 134.331,-94.1461 158.167,-36.603"/>
</g>
<!-- 16 -->
<g id="node9" class="node"><title>16</title>
<ellipse fill="none" stroke="black" cx="287.6" cy="-111.118" rx="27" ry="18"/>
<text text-anchor="middle" x="287.6" y="-107.018" font-family="Times Roman,serif" font-size="14.00">16</text>
</g>
<!-- 0&#45;&#45;16 -->
<g id="edge8" class="edge"><title>0&#45;&#45;16</title>
<path fill="none" stroke="black" stroke-width="3" stroke-dasharray="1,5" d="M43.8483,-336.217C90.1936,-293.418 225.128,-168.809 271.629,-125.867"/>
</g>
<!-- 18 -->
<g id="node11" class="node"><title>18</title>
<ellipse fill="none" stroke="black" cx="419.447" cy="-272.989" rx="27" ry="18"/>
<text text-anchor="middle" x="419.447" y="-268.889" font-family="Times Roman,serif" font-size="14.00">18</text>
</g>
<!-- 0&#45;&#45;18 -->
<g id="edge10" class="edge"><title>0&#45;&#45;18</title>
<path fill="none" stroke="black" stroke-width="0.9" stroke-dasharray="1,5" d="M53.9871,-345.684C125.108,-331.537 322.359,-292.301 393.469,-278.156"/>
</g>
<!-- 19 -->
<g id="node13" class="node"><title>19</title>
<ellipse fill="none" stroke="black" cx="87.8658" cy="-310.852" rx="27" ry="18"/>
<text text-anchor="middle" x="87.8658" y="-306.752" font-family="Times Roman,serif" font-size="14.00">19</text>
</g>
<!-- 0&#45;&#45;19 -->
<g id="edge12" class="edge"><title>0&#45;&#45;19</title>
<path fill="none" stroke="black" stroke-width="0.818182" stroke-dasharray="1,5" d="M47.2714,-337.976C54.1077,-333.408 61.7973,-328.27 68.6305,-323.704"/>
</g>
<!-- 21 -->
<g id="node15" class="node"><title>21</title>
<ellipse fill="none" stroke="black" cx="66.3644" cy="-258.943" rx="27" ry="18"/>
<text text-anchor="middle" x="66.3644" y="-254.843" font-family="Times Roman,serif" font-size="14.00">21</text>
</g>
<!-- 0&#45;&#45;21 -->
<g id="edge14" class="edge"><title>0&#45;&#45;21</title>
<path fill="none" stroke="black" stroke-width="0.642857" stroke-dasharray="1,5" d="M35.397,-333.132C42.234,-316.752 52.3323,-292.56 59.1201,-276.298"/>
</g>
<!-- 28 -->
<g id="node17" class="node"><title>28</title>
<ellipse fill="none" stroke="black" cx="327.601" cy="-410.447" rx="27" ry="18"/>
<text text-anchor="middle" x="327.601" y="-406.347" font-family="Times Roman,serif" font-size="14.00">28</text>
</g>
<!-- 0&#45;&#45;28 -->
<g id="edge16" class="edge"><title>0&#45;&#45;28</title>
<path fill="none" stroke="black" stroke-width="0.529412" stroke-dasharray="1,5" d="M54.0635,-356.037C110.725,-367.308 244.584,-393.934 301.384,-405.232"/>
</g>
<!-- 13 -->
<g id="node33" class="node"><title>13</title>
<ellipse fill="none" stroke="black" cx="348.831" cy="-202.757" rx="27" ry="18"/>
<text text-anchor="middle" x="348.831" y="-198.657" font-family="Times Roman,serif" font-size="14.00">13</text>
</g>
<!-- 4&#45;&#45;13 -->
<g id="edge52" class="edge"><title>4&#45;&#45;13</title>
<path fill="none" stroke="black" stroke-width="1.8" stroke-dasharray="1,5" d="M93.4484,-202.757C147.439,-202.757 267.905,-202.757 321.828,-202.757"/>
</g>
<!-- 14 -->
<g id="node35" class="node"><title>14</title>
<ellipse fill="none" stroke="black" cx="141.078" cy="-203.296" rx="27" ry="18"/>
<text text-anchor="middle" x="141.078" y="-199.196" font-family="Times Roman,serif" font-size="14.00">14</text>
</g>
<!-- 4&#45;&#45;14 -->
<g id="edge54" class="edge"><title>4&#45;&#45;14</title>
<path fill="none" stroke="black" stroke-width="0.75" stroke-dasharray="1,5" d="M93.7608,-202.955C100.341,-203.002 107.366,-203.053 113.935,-203.1"/>
</g>
<!-- 7 -->
<g id="node48" class="node"><title>7</title>
<ellipse fill="none" stroke="black" cx="87.5943" cy="-410.447" rx="27" ry="18"/>
<text text-anchor="middle" x="87.5943" y="-406.347" font-family="Times Roman,serif" font-size="14.00">7</text>
</g>
<!-- 4&#45;&#45;7 -->
<g id="edge56" class="edge"><title>4&#45;&#45;7</title>
<path fill="none" stroke="black" stroke-width="1.5" stroke-dasharray="1,5" d="M68.2112,-220.824C72.2263,-260.103 81.7116,-352.898 85.7365,-392.273"/>
</g>
<!-- 5&#45;&#45;21 -->
<g id="edge60" class="edge"><title>5&#45;&#45;21</title>
<path fill="none" stroke="black" stroke-width="1.28571" stroke-dasharray="1,5" d="M220.664,-104.643C188.612,-136.695 113.838,-211.469 81.6006,-243.706"/>
</g>
<!-- 12 -->
<g id="node50" class="node"><title>12</title>
<ellipse fill="none" stroke="black" cx="327.329" cy="-150.848" rx="27" ry="18"/>
<text text-anchor="middle" x="327.329" y="-146.748" font-family="Times Roman,serif" font-size="14.00">12</text>
</g>
<!-- 5&#45;&#45;12 -->
<g id="edge58" class="edge"><title>5&#45;&#45;12</title>
<path fill="none" stroke="black" stroke-width="0.692308" stroke-dasharray="1,5" d="M255.125,-102.602C270.781,-113.063 292.672,-127.691 308.237,-138.091"/>
</g>
<!-- 20 -->
<g id="node53" class="node"><title>20</title>
<ellipse fill="none" stroke="black" cx="247.598" cy="-170.984" rx="27" ry="18"/>
<text text-anchor="middle" x="247.598" y="-166.884" font-family="Times Roman,serif" font-size="14.00">20</text>
</g>
<!-- 5&#45;&#45;20 -->
<g id="edge62" class="edge"><title>5&#45;&#45;20</title>
<path fill="none" stroke="black" stroke-width="1.125" stroke-dasharray="1,5" d="M238.333,-107.675C240.307,-121.159 242.992,-139.504 244.963,-152.976"/>
</g>
<!-- 27 -->
<g id="node28" class="node"><title>27</title>
<ellipse fill="none" stroke="black" cx="165.458" cy="-442.699" rx="27" ry="18"/>
<text text-anchor="middle" x="165.458" y="-438.599" font-family="Times Roman,serif" font-size="14.00">27</text>
</g>
<!-- 9&#45;&#45;27 -->
<g id="edge102" class="edge"><title>9&#45;&#45;27</title>
<path fill="none" stroke="black" stroke-width="1.125" stroke-dasharray="1,5" d="M165.458,-37.2058C165.458,-106.742 165.458,-355.142 165.458,-424.561"/>
</g>
<!-- 11 -->
<g id="node58" class="node"><title>11</title>
<ellipse fill="none" stroke="black" cx="179.504" cy="-89.6165" rx="27" ry="18"/>
<text text-anchor="middle" x="179.504" y="-85.5165" font-family="Times Roman,serif" font-size="14.00">11</text>
</g>
<!-- 9&#45;&#45;11 -->
<g id="edge104" class="edge"><title>9&#45;&#45;11</title>
<path fill="none" stroke="black" stroke-width="0.818182" stroke-dasharray="1,5" d="M169.075,-37.1855C171.189,-47.8106 173.845,-61.1651 175.948,-71.7371"/>
</g>
<!-- 16&#45;&#45;20 -->
<g id="edge148" class="edge"><title>16&#45;&#45;20</title>
<path fill="none" stroke="black" stroke-width="1.28571" stroke-dasharray="1,5" d="M276.457,-127.794C270.909,-136.097 264.221,-146.106 258.681,-154.397"/>
</g>
<!-- 29 -->
<g id="node67" class="node"><title>29</title>
<ellipse fill="none" stroke="black" cx="340.636" cy="-285.956" rx="27" ry="18"/>
<text text-anchor="middle" x="340.636" y="-281.856" font-family="Times Roman,serif" font-size="14.00">29</text>
</g>
<!-- 18&#45;&#45;29 -->
<g id="edge150" class="edge"><title>18&#45;&#45;29</title>
<path fill="none" stroke="black" stroke-width="3" stroke-dasharray="1,5" d="M393.204,-277.307C384.786,-278.692 375.462,-280.226 367.033,-281.613"/>
</g>
<!-- 19&#45;&#45;28 -->
<g id="edge152" class="edge"><title>19&#45;&#45;28</title>
<path fill="none" stroke="black" stroke-width="9" stroke-dasharray="1,5" d="M110.853,-320.401C156.676,-339.438 258.917,-381.913 304.683,-400.926"/>
</g>
<!-- 22 -->
<g id="node37" class="node"><title>22</title>
<ellipse fill="none" stroke="black" cx="249.737" cy="-442.699" rx="27" ry="18"/>
<text text-anchor="middle" x="249.737" y="-438.599" font-family="Times Roman,serif" font-size="14.00">22</text>
</g>
<!-- 21&#45;&#45;22 -->
<g id="edge160" class="edge"><title>21&#45;&#45;22</title>
<path fill="none" stroke="black" stroke-width="1.28571" stroke-dasharray="1,5" d="M81.3705,-273.98C115.842,-308.524 200.358,-393.217 234.781,-427.712"/>
</g>
<!-- 21&#45;&#45;29 -->
<g id="edge162" class="edge"><title>21&#45;&#45;29</title>
<path fill="none" stroke="black" stroke-width="0.5625" stroke-dasharray="1,5" d="M93.1621,-261.582C145.596,-266.746 261.208,-278.133 313.73,-283.306"/>
</g>
<!-- 1 -->
<g id="node18" class="node"><title>1</title>
<ellipse fill="none" stroke="black" cx="28" cy="-110.846" rx="27" ry="18"/>
<text text-anchor="middle" x="28" y="-106.746" font-family="Times Roman,serif" font-size="14.00">1</text>
</g>
<!-- 1&#45;&#45;5 -->
<g id="edge20" class="edge"><title>1&#45;&#45;5</title>
<path fill="none" stroke="black" stroke-width="0.9" stroke-dasharray="1,5" d="M54.7267,-108.114C94.4964,-104.049 168.837,-96.4502 208.737,-92.3717"/>
</g>
<!-- 1&#45;&#45;18 -->
<g id="edge24" class="edge"><title>1&#45;&#45;18</title>
<path fill="none" stroke="black" stroke-width="0.5625" stroke-dasharray="1,5" d="M51.0254,-120.384C120.349,-149.099 326.596,-234.529 396.204,-263.362"/>
</g>
<!-- 1&#45;&#45;28 -->
<g id="edge30" class="edge"><title>1&#45;&#45;28</title>
<path fill="none" stroke="black" stroke-width="1.28571" stroke-dasharray="1,5" d="M43.2691,-126.116C94.6632,-177.51 261.014,-343.861 312.362,-395.209"/>
</g>
<!-- 2 -->
<g id="node20" class="node"><title>2</title>
<ellipse fill="none" stroke="black" cx="87.8658" cy="-150.848" rx="27" ry="18"/>
<text text-anchor="middle" x="87.8658" y="-146.748" font-family="Times Roman,serif" font-size="14.00">2</text>
</g>
<!-- 1&#45;&#45;2 -->
<g id="edge18" class="edge"><title>1&#45;&#45;2</title>
<path fill="none" stroke="black" stroke-dasharray="1,5" d="M47.2714,-123.723C54.1077,-128.291 61.7973,-133.429 68.6305,-137.995"/>
</g>
<!-- 10 -->
<g id="node23" class="node"><title>10</title>
<ellipse fill="none" stroke="black" cx="127.595" cy="-111.118" rx="27" ry="18"/>
<text text-anchor="middle" x="127.595" y="-107.018" font-family="Times Roman,serif" font-size="14.00">10</text>
</g>
<!-- 1&#45;&#45;10 -->
<g id="edge22" class="edge"><title>1&#45;&#45;10</title>
<path fill="none" stroke="black" stroke-width="0.529412" stroke-dasharray="1,5" d="M55.2149,-110.921C69.2679,-110.959 86.3651,-111.006 100.413,-111.044"/>
</g>
<!-- 25 -->
<g id="node26" class="node"><title>25</title>
<ellipse fill="none" stroke="black" cx="419.447" cy="-188.71" rx="27" ry="18"/>
<text text-anchor="middle" x="419.447" y="-184.61" font-family="Times Roman,serif" font-size="14.00">25</text>
</g>
<!-- 1&#45;&#45;25 -->
<g id="edge26" class="edge"><title>1&#45;&#45;25</title>
<path fill="none" stroke="black" stroke-width="0.5625" stroke-dasharray="1,5" d="M53.9871,-116.016C125.108,-130.162 322.359,-169.398 393.469,-183.543"/>
</g>
<!-- 1&#45;&#45;27 -->
<g id="edge28" class="edge"><title>1&#45;&#45;27</title>
<path fill="none" stroke="black" stroke-width="1.28571" stroke-dasharray="1,5" d="M35.1968,-128.221C58.8949,-185.433 134.331,-367.553 158.167,-425.096"/>
</g>
<!-- 2&#45;&#45;28 -->
<g id="edge40" class="edge"><title>2&#45;&#45;28</title>
<path fill="none" stroke="black" stroke-width="1.8" stroke-dasharray="1,5" d="M102.144,-166.309C144.783,-212.481 270.856,-349 313.397,-395.066"/>
</g>
<!-- 3 -->
<g id="node31" class="node"><title>3</title>
<ellipse fill="none" stroke="black" cx="262.704" cy="-363.888" rx="27" ry="18"/>
<text text-anchor="middle" x="262.704" y="-359.788" font-family="Times Roman,serif" font-size="14.00">3</text>
</g>
<!-- 2&#45;&#45;3 -->
<g id="edge32" class="edge"><title>2&#45;&#45;3</title>
<path fill="none" stroke="black" stroke-width="1.28571" stroke-dasharray="1,5" d="M101.007,-166.86C133.488,-206.438 217.259,-308.513 249.649,-347.98"/>
</g>
<!-- 2&#45;&#45;13 -->
<g id="edge34" class="edge"><title>2&#45;&#45;13</title>
<path fill="none" stroke="black" stroke-width="3" stroke-dasharray="1,5" d="M113.842,-156.015C163.735,-165.939 272.458,-187.565 322.572,-197.533"/>
</g>
<!-- 2&#45;&#45;14 -->
<g id="edge36" class="edge"><title>2&#45;&#45;14</title>
<path fill="none" stroke="black" stroke-width="0.529412" stroke-dasharray="1,5" d="M103.257,-166.018C110.378,-173.037 118.811,-181.349 125.905,-188.341"/>
</g>
<!-- 2&#45;&#45;22 -->
<g id="edge38" class="edge"><title>2&#45;&#45;22</title>
<path fill="none" stroke="black" stroke-width="0.642857" stroke-dasharray="1,5" d="M97.2684,-167.8C125.878,-219.383 211.664,-374.055 240.308,-425.7"/>
</g>
<!-- 10&#45;&#45;19 -->
<g id="edge108" class="edge"><title>10&#45;&#45;19</title>
<path fill="none" stroke="black" stroke-width="2.25" stroke-dasharray="1,5" d="M124,-129.195C116.435,-167.222 98.9567,-255.094 91.4249,-292.959"/>
</g>
<!-- 10&#45;&#45;14 -->
<g id="edge106" class="edge"><title>10&#45;&#45;14</title>
<path fill="none" stroke="black" stroke-width="1.8" stroke-dasharray="1,5" d="M130.259,-129.329C132.623,-145.49 136.058,-168.974 138.42,-185.123"/>
</g>
<!-- 10&#45;&#45;22 -->
<g id="edge112" class="edge"><title>10&#45;&#45;22</title>
<path fill="none" stroke="black" stroke-width="0.5625" stroke-dasharray="1,5" d="M134.162,-128.945C155.42,-186.653 222.195,-367.93 243.286,-425.186"/>
</g>
<!-- 10&#45;&#45;20 -->
<g id="edge110" class="edge"><title>10&#45;&#45;20</title>
<path fill="none" stroke="black" stroke-width="0.9" stroke-dasharray="1,5" d="M149.327,-121.959C170.941,-132.742 203.924,-149.196 225.623,-160.021"/>
</g>
<!-- 3&#45;&#45;16 -->
<g id="edge42" class="edge"><title>3&#45;&#45;16</title>
<path fill="none" stroke="black" stroke-width="9" stroke-dasharray="1,5" d="M264.494,-345.71C269.088,-299.072 281.25,-175.588 285.825,-129.132"/>
</g>
<!-- 3&#45;&#45;21 -->
<g id="edge44" class="edge"><title>3&#45;&#45;21</title>
<path fill="none" stroke="black" stroke-width="0.5625" stroke-dasharray="1,5" d="M241.318,-352.457C203.551,-332.27 125.472,-290.537 87.7235,-270.359"/>
</g>
<!-- 3&#45;&#45;28 -->
<g id="edge50" class="edge"><title>3&#45;&#45;28</title>
<path fill="none" stroke="black" stroke-dasharray="1,5" d="M281.127,-377.106C289.821,-383.343 300.178,-390.773 308.906,-397.035"/>
</g>
<!-- 3&#45;&#45;22 -->
<g id="edge46" class="edge"><title>3&#45;&#45;22</title>
<path fill="none" stroke="black" stroke-width="0.75" stroke-dasharray="1,5" d="M259.696,-382.167C257.587,-394.99 254.78,-412.051 252.683,-424.791"/>
</g>
<!-- 26 -->
<g id="node43" class="node"><title>26</title>
<ellipse fill="none" stroke="black" cx="235.151" cy="-297.369" rx="27" ry="18"/>
<text text-anchor="middle" x="235.151" y="-293.269" font-family="Times Roman,serif" font-size="14.00">26</text>
</g>
<!-- 3&#45;&#45;26 -->
<g id="edge48" class="edge"><title>3&#45;&#45;26</title>
<path fill="none" stroke="black" stroke-width="0.75" stroke-dasharray="1,5" d="M255.465,-346.411C251.447,-336.711 246.463,-324.679 242.437,-314.96"/>
</g>
<!-- 13&#45;&#45;19 -->
<g id="edge126" class="edge"><title>13&#45;&#45;19</title>
<path fill="none" stroke="black" stroke-width="0.9" stroke-dasharray="1,5" d="M325.672,-212.349C276.149,-232.862 160.449,-280.787 110.973,-301.281"/>
</g>
<!-- 13&#45;&#45;25 -->
<g id="edge130" class="edge"><title>13&#45;&#45;25</title>
<path fill="none" stroke="black" stroke-dasharray="1,5" d="M374.725,-197.606C380.865,-196.385 387.416,-195.082 393.556,-193.86"/>
</g>
<!-- 24 -->
<g id="node64" class="node"><title>24</title>
<ellipse fill="none" stroke="black" cx="179.504" cy="-372.083" rx="27" ry="18"/>
<text text-anchor="middle" x="179.504" y="-367.983" font-family="Times Roman,serif" font-size="14.00">24</text>
</g>
<!-- 13&#45;&#45;24 -->
<g id="edge128" class="edge"><title>13&#45;&#45;24</title>
<path fill="none" stroke="black" stroke-width="0.692308" stroke-dasharray="1,5" d="M333.804,-217.783C301.752,-249.835 226.978,-324.609 194.741,-356.846"/>
</g>
<!-- 15 -->
<g id="node91" class="node"><title>15</title>
<ellipse fill="none" stroke="black" cx="278.214" cy="-216.803" rx="27" ry="18"/>
<text text-anchor="middle" x="278.214" y="-212.703" font-family="Times Roman,serif" font-size="14.00">15</text>
</g>
<!-- 13&#45;&#45;15 -->
<g id="edge124" class="edge"><title>13&#45;&#45;15</title>
<path fill="none" stroke="black" stroke-width="4.5" stroke-dasharray="1,5" d="M322.937,-207.907C316.796,-209.129 310.245,-210.432 304.105,-211.653"/>
</g>
<!-- 14&#45;&#45;19 -->
<g id="edge132" class="edge"><title>14&#45;&#45;19</title>
<path fill="none" stroke="black" stroke-width="0.5625" stroke-dasharray="1,5" d="M132.529,-220.577C122.599,-240.648 106.315,-273.561 96.3941,-293.614"/>
</g>
<!-- 14&#45;&#45;21 -->
<g id="edge136" class="edge"><title>14&#45;&#45;21</title>
<path fill="none" stroke="black" stroke-width="0.818182" stroke-dasharray="1,5" d="M122.992,-216.767C111.332,-225.451 96.2215,-236.705 84.5429,-245.403"/>
</g>
<!-- 14&#45;&#45;20 -->
<g id="edge134" class="edge"><title>14&#45;&#45;20</title>
<path fill="none" stroke="black" stroke-dasharray="1,5" d="M165.784,-195.802C182.869,-190.619 205.521,-183.748 222.658,-178.549"/>
</g>
<!-- 14&#45;&#45;24 -->
<g id="edge140" class="edge"><title>14&#45;&#45;24</title>
<path fill="none" stroke="black" stroke-width="0.818182" stroke-dasharray="1,5" d="M145.19,-221.36C152.586,-253.846 168.047,-321.758 175.422,-354.149"/>
</g>
<!-- 14&#45;&#45;29 -->
<g id="edge142" class="edge"><title>14&#45;&#45;29</title>
<path fill="none" stroke="black" stroke-dasharray="1,5" d="M164.361,-212.94C202.813,-228.868 279.147,-260.486 317.502,-276.374"/>
</g>
<!-- 23 -->
<g id="node99" class="node"><title>23</title>
<ellipse fill="none" stroke="black" cx="207.597" cy="-230.85" rx="27" ry="18"/>
<text text-anchor="middle" x="207.597" y="-226.75" font-family="Times Roman,serif" font-size="14.00">23</text>
</g>
<!-- 14&#45;&#45;23 -->
<g id="edge138" class="edge"><title>14&#45;&#45;23</title>
<path fill="none" stroke="black" stroke-width="0.75" stroke-dasharray="1,5" d="M164.343,-212.933C170.787,-215.602 177.783,-218.5 184.233,-221.172"/>
</g>
<!-- 22&#45;&#45;25 -->
<g id="edge164" class="edge"><title>22&#45;&#45;25</title>
<path fill="none" stroke="black" stroke-width="0.642857" stroke-dasharray="1,5" d="M260.872,-426.034C291.623,-380.013 377.472,-251.531 408.271,-205.436"/>
</g>
<!-- 22&#45;&#45;27 -->
<g id="edge166" class="edge"><title>22&#45;&#45;27</title>
<path fill="none" stroke="black" stroke-width="4.5" stroke-dasharray="1,5" d="M222.607,-442.699C212.983,-442.699 202.157,-442.699 192.537,-442.699"/>
</g>
<!-- 26&#45;&#45;29 -->
<g id="edge174" class="edge"><title>26&#45;&#45;29</title>
<path fill="none" stroke="black" stroke-width="0.473684" stroke-dasharray="1,5" d="M262.042,-294.459C277.913,-292.742 297.932,-290.576 313.794,-288.86"/>
</g>
<!-- 7&#45;&#45;9 -->
<g id="edge84" class="edge"><title>7&#45;&#45;9</title>
<path fill="none" stroke="black" stroke-width="0.6" stroke-dasharray="1,5" d="M91.1936,-392.352C104.234,-326.794 148.918,-102.15 161.897,-36.9033"/>
</g>
<!-- 7&#45;&#45;18 -->
<g id="edge88" class="edge"><title>7&#45;&#45;18</title>
<path fill="none" stroke="black" stroke-width="3" stroke-dasharray="1,5" d="M110.666,-400.89C171.371,-375.745 335.056,-307.945 396.087,-282.665"/>
</g>
<!-- 7&#45;&#45;19 -->
<g id="edge90" class="edge"><title>7&#45;&#45;19</title>
<path fill="none" stroke="black" stroke-width="4.5" stroke-dasharray="1,5" d="M87.6441,-392.18C87.6931,-374.21 87.7674,-346.933 87.8163,-329.003"/>
</g>
<!-- 7&#45;&#45;10 -->
<g id="edge86" class="edge"><title>7&#45;&#45;10</title>
<path fill="none" stroke="black" stroke-width="2.25" stroke-dasharray="1,5" d="M90.0363,-392.173C97.1945,-338.608 118.068,-182.411 125.185,-129.153"/>
</g>
<!-- 8 -->
<g id="node69" class="node"><title>8</title>
<ellipse fill="none" stroke="black" cx="127.595" cy="-350.581" rx="27" ry="18"/>
<text text-anchor="middle" x="127.595" y="-346.481" font-family="Times Roman,serif" font-size="14.00">8</text>
</g>
<!-- 7&#45;&#45;8 -->
<g id="edge82" class="edge"><title>7&#45;&#45;8</title>
<path fill="none" stroke="black" stroke-width="4.5" stroke-dasharray="1,5" d="M98.7368,-393.771C104.285,-385.468 110.973,-375.459 116.513,-367.168"/>
</g>
<!-- 12&#45;&#45;18 -->
<g id="edge118" class="edge"><title>12&#45;&#45;18</title>
<path fill="none" stroke="black" stroke-width="0.692308" stroke-dasharray="1,5" d="M339.562,-167.067C357.18,-190.428 389.517,-233.304 407.164,-256.703"/>
</g>
<!-- 12&#45;&#45;19 -->
<g id="edge120" class="edge"><title>12&#45;&#45;19</title>
<path fill="none" stroke="black" stroke-width="0.75" stroke-dasharray="1,5" d="M308.138,-163.671C263.3,-193.63 152.076,-267.948 107.149,-297.967"/>
</g>
<!-- 12&#45;&#45;20 -->
<g id="edge122" class="edge"><title>12&#45;&#45;20</title>
<path fill="none" stroke="black" stroke-width="1.125" stroke-dasharray="1,5" d="M301.663,-157.33C292.467,-159.652 282.112,-162.267 272.944,-164.583"/>
</g>
<!-- 20&#45;&#45;21 -->
<g id="edge154" class="edge"><title>20&#45;&#45;21</title>
<path fill="none" stroke="black" stroke-width="1.28571" stroke-dasharray="1,5" d="M225.737,-181.594C190.903,-198.5 123.186,-231.365 88.303,-248.295"/>
</g>
<!-- 20&#45;&#45;26 -->
<g id="edge158" class="edge"><title>20&#45;&#45;26</title>
<path fill="none" stroke="black" stroke-width="0.9" stroke-dasharray="1,5" d="M245.815,-189.092C243.449,-213.118 239.295,-255.286 236.931,-279.295"/>
</g>
<!-- 20&#45;&#45;23 -->
<g id="edge156" class="edge"><title>20&#45;&#45;23</title>
<path fill="none" stroke="black" stroke-width="1.5" stroke-dasharray="1,5" d="M236.456,-187.66C230.908,-195.963 224.22,-205.972 218.68,-214.263"/>
</g>
<!-- 6 -->
<g id="node54" class="node"><title>6</title>
<ellipse fill="none" stroke="black" cx="387.195" cy="-350.853" rx="27" ry="18"/>
<text text-anchor="middle" x="387.195" y="-346.753" font-family="Times Roman,serif" font-size="14.00">6</text>
</g>
<!-- 6&#45;&#45;9 -->
<g id="edge66" class="edge"><title>6&#45;&#45;9</title>
<path fill="none" stroke="black" stroke-dasharray="1,5" d="M376.199,-334.396C338.448,-277.898 214.372,-92.2055 176.52,-35.556"/>
</g>
<!-- 6&#45;&#45;28 -->
<g id="edge78" class="edge"><title>6&#45;&#45;28</title>
<path fill="none" stroke="black" stroke-width="0.75" stroke-dasharray="1,5" d="M372.157,-365.891C363.192,-374.856 351.842,-386.206 342.841,-395.206"/>
</g>
<!-- 6&#45;&#45;22 -->
<g id="edge74" class="edge"><title>6&#45;&#45;22</title>
<path fill="none" stroke="black" stroke-width="1.5" stroke-dasharray="1,5" d="M368.082,-363.624C341.968,-381.073 295.391,-412.194 269.131,-429.741"/>
</g>
<!-- 6&#45;&#45;7 -->
<g id="edge64" class="edge"><title>6&#45;&#45;7</title>
<path fill="none" stroke="black" stroke-width="4.5" stroke-dasharray="1,5" d="M361.131,-356.037C304.47,-367.308 170.611,-393.934 113.811,-405.232"/>
</g>
<!-- 6&#45;&#45;12 -->
<g id="edge70" class="edge"><title>6&#45;&#45;12</title>
<path fill="none" stroke="black" stroke-width="1.28571" stroke-dasharray="1,5" d="M381.882,-333.104C370.522,-295.149 343.98,-206.476 332.63,-168.557"/>
</g>
<!-- 6&#45;&#45;11 -->
<g id="edge68" class="edge"><title>6&#45;&#45;11</title>
<path fill="none" stroke="black" stroke-width="4.5" stroke-dasharray="1,5" d="M374.516,-334.905C337.437,-288.267 229.484,-152.482 192.282,-105.688"/>
</g>
<!-- 17 -->
<g id="node61" class="node"><title>17</title>
<ellipse fill="none" stroke="black" cx="447.061" cy="-390.854" rx="27" ry="18"/>
<text text-anchor="middle" x="447.061" y="-386.754" font-family="Times Roman,serif" font-size="14.00">17</text>
</g>
<!-- 6&#45;&#45;17 -->
<g id="edge72" class="edge"><title>6&#45;&#45;17</title>
<path fill="none" stroke="black" stroke-width="0.5" stroke-dasharray="1,5" d="M406.466,-363.73C413.303,-368.297 420.992,-373.435 427.825,-378.001"/>
</g>
<!-- 6&#45;&#45;24 -->
<g id="edge76" class="edge"><title>6&#45;&#45;24</title>
<path fill="none" stroke="black" stroke-width="2.25" stroke-dasharray="1,5" d="M360.468,-353.585C320.698,-357.65 246.358,-365.249 206.458,-369.328"/>
</g>
<!-- 6&#45;&#45;29 -->
<g id="edge80" class="edge"><title>6&#45;&#45;29</title>
<path fill="none" stroke="black" stroke-width="0.5625" stroke-dasharray="1,5" d="M375.446,-334.477C368.442,-324.714 359.575,-312.354 352.543,-302.553"/>
</g>
<!-- 11&#45;&#45;16 -->
<g id="edge114" class="edge"><title>11&#45;&#45;16</title>
<path fill="none" stroke="black" stroke-width="0.5625" stroke-dasharray="1,5" d="M205.396,-94.7667C222.385,-98.146 244.523,-102.55 261.545,-105.935"/>
</g>
<!-- 11&#45;&#45;14 -->
<g id="edge116" class="edge"><title>11&#45;&#45;14</title>
<path fill="none" stroke="black" stroke-width="0.9" stroke-dasharray="1,5" d="M173.5,-107.379C166.281,-128.736 154.24,-164.358 147.04,-185.659"/>
</g>
<!-- 24&#45;&#45;27 -->
<g id="edge170" class="edge"><title>24&#45;&#45;27</title>
<path fill="none" stroke="black" stroke-width="9" stroke-dasharray="1,5" d="M175.887,-390.268C173.774,-400.893 171.117,-414.248 169.014,-424.82"/>
</g>
<!-- 24&#45;&#45;26 -->
<g id="edge172" class="edge"><title>24&#45;&#45;26</title>
<path fill="none" stroke="black" stroke-width="1.8" stroke-dasharray="1,5" d="M191.579,-355.871C200.913,-343.339 213.772,-326.073 223.1,-313.549"/>
</g>
<!-- 8&#45;&#45;19 -->
<g id="edge94" class="edge"><title>8&#45;&#45;19</title>
<path fill="none" stroke="black" stroke-dasharray="1,5" d="M112.348,-335.334C109.285,-332.271 106.066,-329.052 103.006,-325.992"/>
</g>
<!-- 8&#45;&#45;10 -->
<g id="edge92" class="edge"><title>8&#45;&#45;10</title>
<path fill="none" stroke="black" stroke-width="0.75" stroke-dasharray="1,5" d="M127.595,-332.189C127.595,-287.505 127.595,-173.654 127.595,-129.246"/>
</g>
<!-- 8&#45;&#45;27 -->
<g id="edge100" class="edge"><title>8&#45;&#45;27</title>
<path fill="none" stroke="black" stroke-width="0.692308" stroke-dasharray="1,5" d="M134.896,-368.343C141.643,-384.759 151.609,-409.006 158.308,-425.305"/>
</g>
<!-- 8&#45;&#45;26 -->
<g id="edge98" class="edge"><title>8&#45;&#45;26</title>
<path fill="none" stroke="black" stroke-width="0.75" stroke-dasharray="1,5" d="M149.361,-339.813C168.021,-330.581 194.767,-317.349 213.418,-308.121"/>
</g>
<!-- 8&#45;&#45;20 -->
<g id="edge96" class="edge"><title>8&#45;&#45;20</title>
<path fill="none" stroke="black" stroke-width="1.8" stroke-dasharray="1,5" d="M138.67,-334.007C161.531,-299.793 213.713,-221.698 236.551,-187.518"/>
</g>
<!-- 15&#45;&#45;29 -->
<g id="edge144" class="edge"><title>15&#45;&#45;29</title>
<path fill="none" stroke="black" stroke-dasharray="1,5" d="M292.379,-232.495C302.594,-243.812 316.325,-259.023 326.528,-270.326"/>
</g>
<!-- 15&#45;&#45;23 -->
<g id="edge146" class="edge"><title>15&#45;&#45;23</title>
<path fill="none" stroke="black" stroke-width="0.5" stroke-dasharray="1,5" d="M252.32,-221.954C246.179,-223.175 239.629,-224.478 233.488,-225.7"/>
</g>
<!-- 23&#45;&#45;26 -->
<g id="edge168" class="edge"><title>23&#45;&#45;26</title>
<path fill="none" stroke="black" stroke-width="0.642857" stroke-dasharray="1,5" d="M214.837,-248.327C218.855,-258.027 223.839,-270.059 227.864,-279.778"/>
</g>
</g>
</svg>
