<?xml version="1.0" encoding="UTF-8" standalone="no"?>
<!DOCTYPE svg PUBLIC "-//W3C//DTD SVG 1.1//EN"
 "http://www.w3.org/Graphics/SVG/1.1/DTD/svg11.dtd">
<!-- Generated by graphviz version 2.26.3 (20100126.1600)
 -->
<!-- Title: G Pages: 1 -->
<svg width="696pt" height="658pt"
 viewBox="0.00 0.00 695.75 658.35" xmlns="http://www.w3.org/2000/svg" xmlns:xlink="http://www.w3.org/1999/xlink">
<g id="graph1" class="graph" transform="scale(1 1) rotate(0) translate(4 654.349)">
<title>G</title>
<polygon fill="white" stroke="white" points="-4,5 -4,-654.349 692.753,-654.349 692.753,5 -4,5"/>
<!-- 0 -->
<g id="node1" class="node"><title>0</title>
<ellipse fill="none" stroke="black" cx="378.974" cy="-235" rx="27" ry="18"/>
<text text-anchor="middle" x="378.974" y="-230.9" font-family="Times Roman,serif" font-size="14.00">0</text>
</g>
<!-- 16 -->
<g id="node3" class="node"><title>16</title>
<ellipse fill="none" stroke="black" cx="238.584" cy="-274.957" rx="27" ry="18"/>
<text text-anchor="middle" x="238.584" y="-270.857" font-family="Times Roman,serif" font-size="14.00">16</text>
</g>
<!-- 0&#45;&#45;16 -->
<g id="edge2" class="edge"><title>0&#45;&#45;16</title>
<path fill="none" stroke="blue" stroke-width="3" d="M353.875,-242.144C328.322,-249.416 288.941,-260.625 263.466,-267.875"/>
</g>
<!-- 9 -->
<g id="node5" class="node"><title>9</title>
<ellipse fill="none" stroke="black" cx="289.192" cy="-194.416" rx="27" ry="18"/>
<text text-anchor="middle" x="289.192" y="-190.316" font-family="Times Roman,serif" font-size="14.00">9</text>
</g>
<!-- 0&#45;&#45;9 -->
<g id="edge4" class="edge"><title>0&#45;&#45;9</title>
<path fill="none" stroke="orange" stroke-width="3" d="M356.318,-224.759C342.708,-218.607 325.449,-210.806 311.84,-204.654"/>
</g>
<!-- 4 -->
<g id="node7" class="node"><title>4</title>
<ellipse fill="none" stroke="black" cx="468.757" cy="-194.416" rx="27" ry="18"/>
<text text-anchor="middle" x="468.757" y="-190.316" font-family="Times Roman,serif" font-size="14.00">4</text>
</g>
<!-- 0&#45;&#45;4 -->
<g id="edge6" class="edge"><title>0&#45;&#45;4</title>
<path fill="none" stroke="orange" stroke-width="1.5" d="M401.63,-224.759C415.24,-218.607 432.499,-210.806 446.108,-204.654"/>
</g>
<!-- 5 -->
<g id="node9" class="node"><title>5</title>
<ellipse fill="none" stroke="black" cx="378.974" cy="-307" rx="27" ry="18"/>
<text text-anchor="middle" x="378.974" y="-302.9" font-family="Times Roman,serif" font-size="14.00">5</text>
</g>
<!-- 0&#45;&#45;5 -->
<g id="edge8" class="edge"><title>0&#45;&#45;5</title>
<path fill="none" stroke="blue" stroke-width="1.8" d="M378.974,-253.169C378.974,-264 378.974,-277.712 378.974,-288.587"/>
</g>
<!-- 20 -->
<g id="node48" class="node"><title>20</title>
<ellipse fill="none" stroke="black" cx="378.974" cy="-451" rx="27" ry="18"/>
<text text-anchor="middle" x="378.974" y="-446.9" font-family="Times Roman,serif" font-size="14.00">20</text>
</g>
<!-- 16&#45;&#45;20 -->
<g id="edge72" class="edge"><title>16&#45;&#45;20</title>
<path fill="none" stroke="blue" stroke-width="1.28571" d="M251.291,-290.89C277.952,-324.322 339.471,-401.465 366.195,-434.976"/>
</g>
<!-- 27 -->
<g id="node12" class="node"><title>27</title>
<ellipse fill="none" stroke="black" cx="244.3" cy="-138.124" rx="27" ry="18"/>
<text text-anchor="middle" x="244.3" y="-134.024" font-family="Times Roman,serif" font-size="14.00">27</text>
</g>
<!-- 9&#45;&#45;27 -->
<g id="edge50" class="edge"><title>9&#45;&#45;27</title>
<path fill="none" stroke="green" stroke-width="1.125" d="M276.448,-178.436C270.434,-170.895 263.269,-161.911 257.232,-154.34"/>
</g>
<!-- 13 -->
<g id="node20" class="node"><title>13</title>
<ellipse fill="none" stroke="black" cx="427.039" cy="-96.4156" rx="27" ry="18"/>
<text text-anchor="middle" x="427.039" y="-92.3156" font-family="Times Roman,serif" font-size="14.00">13</text>
</g>
<!-- 4&#45;&#45;13 -->
<g id="edge22" class="edge"><title>4&#45;&#45;13</title>
<path fill="none" stroke="red" stroke-width="1.8" d="M461.298,-176.896C453.705,-159.058 442.002,-131.568 434.432,-113.784"/>
</g>
<!-- 7 -->
<g id="node24" class="node"><title>7</title>
<ellipse fill="none" stroke="black" cx="573.583" cy="-213.281" rx="27" ry="18"/>
<text text-anchor="middle" x="573.583" y="-209.181" font-family="Times Roman,serif" font-size="14.00">7</text>
</g>
<!-- 4&#45;&#45;7 -->
<g id="edge24" class="edge"><title>4&#45;&#45;7</title>
<path fill="none" stroke="red" stroke-width="1.5" d="M494.938,-199.128C510.948,-202.009 531.357,-205.682 547.372,-208.564"/>
</g>
<!-- 21 -->
<g id="node26" class="node"><title>21</title>
<ellipse fill="none" stroke="black" cx="378.974" cy="-379" rx="27" ry="18"/>
<text text-anchor="middle" x="378.974" y="-374.9" font-family="Times Roman,serif" font-size="14.00">21</text>
</g>
<!-- 5&#45;&#45;21 -->
<g id="edge26" class="edge"><title>5&#45;&#45;21</title>
<path fill="none" stroke="green" stroke-width="1.28571" d="M378.974,-325.169C378.974,-336 378.974,-349.712 378.974,-360.587"/>
</g>
<!-- 1 -->
<g id="node10" class="node"><title>1</title>
<ellipse fill="none" stroke="black" cx="153.807" cy="-127.435" rx="27" ry="18"/>
<text text-anchor="middle" x="153.807" y="-123.335" font-family="Times Roman,serif" font-size="14.00">1</text>
</g>
<!-- 1&#45;&#45;27 -->
<g id="edge10" class="edge"><title>1&#45;&#45;27</title>
<path fill="none" stroke="black" stroke-width="1.28571" stroke-dasharray="1,5" d="M180.468,-130.584C192.147,-131.964 205.824,-133.579 217.516,-134.961"/>
</g>
<!-- 28 -->
<g id="node14" class="node"><title>28</title>
<ellipse fill="none" stroke="black" cx="28" cy="-226.892" rx="27" ry="18"/>
<text text-anchor="middle" x="28" y="-222.792" font-family="Times Roman,serif" font-size="14.00">28</text>
</g>
<!-- 1&#45;&#45;28 -->
<g id="edge12" class="edge"><title>1&#45;&#45;28</title>
<path fill="none" stroke="black" stroke-width="1.28571" stroke-dasharray="1,5" d="M136.314,-141.264C112.413,-160.159 69.7839,-193.86 45.7499,-212.86"/>
</g>
<!-- 2 -->
<g id="node15" class="node"><title>2</title>
<ellipse fill="none" stroke="black" cx="98.1948" cy="-242.914" rx="27" ry="18"/>
<text text-anchor="middle" x="98.1948" y="-238.814" font-family="Times Roman,serif" font-size="14.00">2</text>
</g>
<!-- 2&#45;&#45;28 -->
<g id="edge16" class="edge"><title>2&#45;&#45;28</title>
<path fill="none" stroke="black" stroke-width="1.8" stroke-dasharray="1,5" d="M72.4554,-237.039C66.3515,-235.646 59.8401,-234.16 53.7363,-232.767"/>
</g>
<!-- 3 -->
<g id="node17" class="node"><title>3</title>
<ellipse fill="none" stroke="black" cx="168.39" cy="-258.935" rx="27" ry="18"/>
<text text-anchor="middle" x="168.39" y="-254.835" font-family="Times Roman,serif" font-size="14.00">3</text>
</g>
<!-- 2&#45;&#45;3 -->
<g id="edge14" class="edge"><title>2&#45;&#45;3</title>
<path fill="none" stroke="blue" stroke-width="1.28571" d="M123.934,-248.789C130.038,-250.182 136.55,-251.668 142.653,-253.061"/>
</g>
<!-- 2&#45;&#45;13 -->
<g id="edge18" class="edge"><title>2&#45;&#45;13</title>
<path fill="none" stroke="black" stroke-width="3" stroke-dasharray="1,5" d="M120.798,-232.845C180.872,-206.082 344.023,-133.399 404.278,-106.555"/>
</g>
<!-- 3&#45;&#45;16 -->
<g id="edge20" class="edge"><title>3&#45;&#45;16</title>
<path fill="none" stroke="orange" stroke-width="9" d="M194.129,-264.81C200.233,-266.204 206.744,-267.69 212.848,-269.083"/>
</g>
<!-- 25 -->
<g id="node56" class="node"><title>25</title>
<ellipse fill="none" stroke="black" cx="378.974" cy="-19" rx="27" ry="18"/>
<text text-anchor="middle" x="378.974" y="-14.9" font-family="Times Roman,serif" font-size="14.00">25</text>
</g>
<!-- 13&#45;&#45;25 -->
<g id="edge60" class="edge"><title>13&#45;&#45;25</title>
<path fill="none" stroke="black" stroke-dasharray="1,5" d="M416.609,-79.6175C408.547,-66.6324 397.44,-48.7422 389.383,-35.7652"/>
</g>
<!-- 15 -->
<g id="node58" class="node"><title>15</title>
<ellipse fill="none" stroke="black" cx="503.933" cy="-47.521" rx="27" ry="18"/>
<text text-anchor="middle" x="503.933" y="-43.421" font-family="Times Roman,serif" font-size="14.00">15</text>
</g>
<!-- 13&#45;&#45;15 -->
<g id="edge62" class="edge"><title>13&#45;&#45;15</title>
<path fill="none" stroke="black" stroke-width="4.5" stroke-dasharray="1,5" d="M446.841,-83.824C458.321,-76.5238 472.728,-67.3628 484.198,-60.0699"/>
</g>
<!-- 8 -->
<g id="node40" class="node"><title>8</title>
<ellipse fill="none" stroke="black" cx="378.974" cy="-523" rx="27" ry="18"/>
<text text-anchor="middle" x="378.974" y="-518.9" font-family="Times Roman,serif" font-size="14.00">8</text>
</g>
<!-- 7&#45;&#45;8 -->
<g id="edge40" class="edge"><title>7&#45;&#45;8</title>
<path fill="none" stroke="black" stroke-width="4.5" stroke-dasharray="1,5" d="M563.12,-229.933C529.33,-283.71 423.353,-452.371 389.489,-506.266"/>
</g>
<!-- 10 -->
<g id="node42" class="node"><title>10</title>
<ellipse fill="none" stroke="black" cx="98.1948" cy="-371.086" rx="27" ry="18"/>
<text text-anchor="middle" x="98.1948" y="-366.986" font-family="Times Roman,serif" font-size="14.00">10</text>
</g>
<!-- 7&#45;&#45;10 -->
<g id="edge42" class="edge"><title>7&#45;&#45;10</title>
<path fill="none" stroke="black" stroke-width="2.25" stroke-dasharray="1,5" d="M549.355,-221.324C467.806,-248.394 203.85,-336.014 122.374,-363.06"/>
</g>
<!-- 18 -->
<g id="node44" class="node"><title>18</title>
<ellipse fill="none" stroke="black" cx="604.142" cy="-127.435" rx="27" ry="18"/>
<text text-anchor="middle" x="604.142" y="-123.335" font-family="Times Roman,serif" font-size="14.00">18</text>
</g>
<!-- 7&#45;&#45;18 -->
<g id="edge44" class="edge"><title>7&#45;&#45;18</title>
<path fill="none" stroke="black" stroke-width="3" stroke-dasharray="1,5" d="M579.915,-195.494C585.16,-180.76 592.576,-159.927 597.818,-145.2"/>
</g>
<!-- 19 -->
<g id="node46" class="node"><title>19</title>
<ellipse fill="none" stroke="black" cx="659.753" cy="-242.914" rx="27" ry="18"/>
<text text-anchor="middle" x="659.753" y="-238.814" font-family="Times Roman,serif" font-size="14.00">19</text>
</g>
<!-- 7&#45;&#45;19 -->
<g id="edge46" class="edge"><title>7&#45;&#45;19</title>
<path fill="none" stroke="black" stroke-width="4.5" stroke-dasharray="1,5" d="M597.586,-221.536C609.439,-225.611 623.705,-230.517 635.58,-234.601"/>
</g>
<!-- 6 -->
<g id="node27" class="node"><title>6</title>
<ellipse fill="none" stroke="black" cx="503.933" cy="-566.479" rx="27" ry="18"/>
<text text-anchor="middle" x="503.933" y="-562.379" font-family="Times Roman,serif" font-size="14.00">6</text>
</g>
<!-- 6&#45;&#45;7 -->
<g id="edge28" class="edge"><title>6&#45;&#45;7</title>
<path fill="none" stroke="black" stroke-width="4.5" stroke-dasharray="1,5" d="M507.482,-548.478C519.43,-487.89 558.103,-291.78 570.041,-231.246"/>
</g>
<!-- 11 -->
<g id="node30" class="node"><title>11</title>
<ellipse fill="none" stroke="black" cx="153.807" cy="-486.565" rx="27" ry="18"/>
<text text-anchor="middle" x="153.807" y="-482.465" font-family="Times Roman,serif" font-size="14.00">11</text>
</g>
<!-- 6&#45;&#45;11 -->
<g id="edge30" class="edge"><title>6&#45;&#45;11</title>
<path fill="none" stroke="black" stroke-width="4.5" stroke-dasharray="1,5" d="M478.187,-560.603C413.438,-545.824 244.379,-507.238 179.59,-492.45"/>
</g>
<!-- 12 -->
<g id="node32" class="node"><title>12</title>
<ellipse fill="none" stroke="black" cx="472.693" cy="-501.609" rx="27" ry="18"/>
<text text-anchor="middle" x="472.693" y="-497.509" font-family="Times Roman,serif" font-size="14.00">12</text>
</g>
<!-- 6&#45;&#45;12 -->
<g id="edge32" class="edge"><title>6&#45;&#45;12</title>
<path fill="none" stroke="black" stroke-width="1.28571" stroke-dasharray="1,5" d="M495.561,-549.095C491.079,-539.788 485.573,-528.356 481.088,-519.041"/>
</g>
<!-- 17 -->
<g id="node34" class="node"><title>17</title>
<ellipse fill="none" stroke="black" cx="535.172" cy="-631.349" rx="27" ry="18"/>
<text text-anchor="middle" x="535.172" y="-627.249" font-family="Times Roman,serif" font-size="14.00">17</text>
</g>
<!-- 6&#45;&#45;17 -->
<g id="edge34" class="edge"><title>6&#45;&#45;17</title>
<path fill="none" stroke="black" stroke-width="0.5" stroke-dasharray="1,5" d="M512.304,-583.863C516.786,-593.17 522.292,-604.602 526.777,-613.917"/>
</g>
<!-- 22 -->
<g id="node36" class="node"><title>22</title>
<ellipse fill="none" stroke="black" cx="254.016" cy="-47.521" rx="27" ry="18"/>
<text text-anchor="middle" x="254.016" y="-43.421" font-family="Times Roman,serif" font-size="14.00">22</text>
</g>
<!-- 6&#45;&#45;22 -->
<g id="edge36" class="edge"><title>6&#45;&#45;22</title>
<path fill="none" stroke="black" stroke-width="1.5" stroke-dasharray="1,5" d="M495.617,-549.212C457.589,-470.245 300.456,-143.955 262.362,-64.8525"/>
</g>
<!-- 24 -->
<g id="node38" class="node"><title>24</title>
<ellipse fill="none" stroke="black" cx="604.142" cy="-486.565" rx="27" ry="18"/>
<text text-anchor="middle" x="604.142" y="-482.465" font-family="Times Roman,serif" font-size="14.00">24</text>
</g>
<!-- 6&#45;&#45;24 -->
<g id="edge38" class="edge"><title>6&#45;&#45;24</title>
<path fill="none" stroke="black" stroke-width="2.25" stroke-dasharray="1,5" d="M521.388,-552.559C539.668,-537.981 568.219,-515.212 586.55,-500.594"/>
</g>
<!-- 14 -->
<g id="node52" class="node"><title>14</title>
<ellipse fill="none" stroke="black" cx="210.098" cy="-441.674" rx="27" ry="18"/>
<text text-anchor="middle" x="210.098" y="-437.574" font-family="Times Roman,serif" font-size="14.00">14</text>
</g>
<!-- 11&#45;&#45;14 -->
<g id="edge56" class="edge"><title>11&#45;&#45;14</title>
<path fill="none" stroke="black" stroke-width="0.9" stroke-dasharray="1,5" d="M171.309,-472.607C178.022,-467.254 185.683,-461.145 192.413,-455.778"/>
</g>
<!-- 12&#45;&#45;20 -->
<g id="edge58" class="edge"><title>12&#45;&#45;20</title>
<path fill="none" stroke="black" stroke-width="1.125" stroke-dasharray="1,5" d="M451.427,-490.125C436.089,-481.843 415.474,-470.711 400.156,-462.439"/>
</g>
<!-- 22&#45;&#45;27 -->
<g id="edge86" class="edge"><title>22&#45;&#45;27</title>
<path fill="none" stroke="black" stroke-width="4.5" stroke-dasharray="1,5" d="M252.049,-65.8559C250.353,-81.6786 247.916,-104.402 246.23,-120.126"/>
</g>
<!-- 22&#45;&#45;25 -->
<g id="edge84" class="edge"><title>22&#45;&#45;25</title>
<path fill="none" stroke="black" stroke-width="0.642857" stroke-dasharray="1,5" d="M279.604,-41.6805C301.168,-36.7587 331.866,-29.7522 353.42,-24.8327"/>
</g>
<!-- 24&#45;&#45;27 -->
<g id="edge90" class="edge"><title>24&#45;&#45;27</title>
<path fill="none" stroke="black" stroke-width="9" stroke-dasharray="1,5" d="M588.68,-471.593C529.624,-414.408 318.661,-210.13 259.705,-153.041"/>
</g>
<!-- 26 -->
<g id="node71" class="node"><title>26</title>
<ellipse fill="none" stroke="black" cx="547.85" cy="-441.674" rx="27" ry="18"/>
<text text-anchor="middle" x="547.85" y="-437.574" font-family="Times Roman,serif" font-size="14.00">26</text>
</g>
<!-- 24&#45;&#45;26 -->
<g id="edge88" class="edge"><title>24&#45;&#45;26</title>
<path fill="none" stroke="black" stroke-width="1.8" stroke-dasharray="1,5" d="M586.639,-472.607C579.926,-467.254 572.265,-461.145 565.535,-455.778"/>
</g>
<!-- 8&#45;&#45;20 -->
<g id="edge48" class="edge"><title>8&#45;&#45;20</title>
<path fill="none" stroke="black" stroke-width="1.8" stroke-dasharray="1,5" d="M378.974,-504.831C378.974,-494 378.974,-480.288 378.974,-469.413"/>
</g>
<!-- 10&#45;&#45;19 -->
<g id="edge52" class="edge"><title>10&#45;&#45;19</title>
<path fill="none" stroke="black" stroke-width="2.25" stroke-dasharray="1,5" d="M123.783,-365.246C217.333,-343.893 540.219,-270.197 634.015,-248.789"/>
</g>
<!-- 10&#45;&#45;14 -->
<g id="edge54" class="edge"><title>10&#45;&#45;14</title>
<path fill="none" stroke="black" stroke-width="1.8" stroke-dasharray="1,5" d="M117.943,-383.543C138.273,-396.367 169.776,-416.239 190.171,-429.104"/>
</g>
<!-- 29 -->
<g id="node61" class="node"><title>29</title>
<ellipse fill="none" stroke="black" cx="254.016" cy="-566.479" rx="27" ry="18"/>
<text text-anchor="middle" x="254.016" y="-562.379" font-family="Times Roman,serif" font-size="14.00">29</text>
</g>
<!-- 18&#45;&#45;29 -->
<g id="edge74" class="edge"><title>18&#45;&#45;29</title>
<path fill="none" stroke="black" stroke-width="3" stroke-dasharray="1,5" d="M591.265,-143.581C536.364,-212.426 322.136,-481.058 267.009,-550.186"/>
</g>
<!-- 19&#45;&#45;28 -->
<g id="edge76" class="edge"><title>19&#45;&#45;28</title>
<path fill="none" stroke="black" stroke-width="9" stroke-dasharray="1,5" d="M632.608,-242.226C528.927,-239.596 158.552,-230.203 55.0445,-227.578"/>
</g>
<!-- 20&#45;&#45;21 -->
<g id="edge78" class="edge"><title>20&#45;&#45;21</title>
<path fill="none" stroke="black" stroke-width="1.28571" stroke-dasharray="1,5" d="M378.974,-432.831C378.974,-422 378.974,-408.288 378.974,-397.413"/>
</g>
<!-- 23 -->
<g id="node63" class="node"><title>23</title>
<ellipse fill="none" stroke="black" cx="589.558" cy="-355.065" rx="27" ry="18"/>
<text text-anchor="middle" x="589.558" y="-350.965" font-family="Times Roman,serif" font-size="14.00">23</text>
</g>
<!-- 20&#45;&#45;23 -->
<g id="edge80" class="edge"><title>20&#45;&#45;23</title>
<path fill="none" stroke="black" stroke-width="1.5" stroke-dasharray="1,5" d="M401.51,-440.733C442.042,-422.268 526.771,-383.669 567.184,-365.257"/>
</g>
<!-- 20&#45;&#45;26 -->
<g id="edge82" class="edge"><title>20&#45;&#45;26</title>
<path fill="none" stroke="black" stroke-width="0.9" stroke-dasharray="1,5" d="M406.107,-449.502C437.621,-447.761 489.299,-444.907 520.784,-443.168"/>
</g>
<!-- 14&#45;&#45;20 -->
<g id="edge64" class="edge"><title>14&#45;&#45;20</title>
<path fill="none" stroke="black" stroke-dasharray="1,5" d="M237.231,-443.172C268.745,-444.913 320.423,-447.767 351.909,-449.505"/>
</g>
<!-- 14&#45;&#45;29 -->
<g id="edge66" class="edge"><title>14&#45;&#45;29</title>
<path fill="none" stroke="black" stroke-dasharray="1,5" d="M216.298,-459.291C224.668,-483.077 239.494,-525.212 247.848,-548.952"/>
</g>
<!-- 14&#45;&#45;23 -->
<g id="edge68" class="edge"><title>14&#45;&#45;23</title>
<path fill="none" stroke="black" stroke-width="0.75" stroke-dasharray="1,5" d="M235.882,-435.789C305.191,-419.969 494.929,-376.663 563.989,-360.901"/>
</g>
<!-- 15&#45;&#45;29 -->
<g id="edge70" class="edge"><title>15&#45;&#45;29</title>
<path fill="none" stroke="black" stroke-dasharray="1,5" d="M495.617,-64.7876C457.589,-143.755 300.456,-470.045 262.362,-549.148"/>
</g>
</g>
</svg>
