<?xml version="1.0" encoding="UTF-8" standalone="no"?>
<!DOCTYPE svg PUBLIC "-//W3C//DTD SVG 1.1//EN"
 "http://www.w3.org/Graphics/SVG/1.1/DTD/svg11.dtd">
<!-- Generated by graphviz version 2.26.3 (20100126.1600)
 -->
<!-- Title: G Pages: 1 -->
<svg width="841pt" height="811pt"
 viewBox="0.00 0.00 841.13 810.91" xmlns="http://www.w3.org/2000/svg" xmlns:xlink="http://www.w3.org/1999/xlink">
<g id="graph1" class="graph" transform="scale(1 1) rotate(0) translate(4 806.912)">
<title>G</title>
<polygon fill="white" stroke="white" points="-4,5 -4,-806.912 838.126,-806.912 838.126,5 -4,5"/>
<!-- AP12 -->
<g id="node1" class="node"><title>AP12</title>
<ellipse fill="none" stroke="black" cx="569.249" cy="-49.9843" rx="36.8288" ry="18"/>
<text text-anchor="middle" x="569.249" y="-45.8843" font-family="Times Roman,serif" font-size="14.00">AP12</text>
</g>
<!-- AP17 -->
<g id="node9" class="node"><title>AP17</title>
<ellipse fill="none" stroke="black" cx="733.788" cy="-192.558" rx="36.8288" ry="18"/>
<text text-anchor="middle" x="733.788" y="-188.458" font-family="Times Roman,serif" font-size="14.00">AP17</text>
</g>
<!-- AP12&#45;&#45;AP17 -->
<g id="edge26" class="edge"><title>AP12&#45;&#45;AP17</title>
<path fill="none" stroke="green" stroke-width="3" d="M587.486,-65.787C619.114,-93.1927 683.785,-149.23 715.469,-176.685"/>
</g>
<!-- AP16 -->
<g id="node2" class="node"><title>AP16</title>
<ellipse fill="none" stroke="black" cx="353.749" cy="-19" rx="36.8288" ry="18"/>
<text text-anchor="middle" x="353.749" y="-14.9" font-family="Times Roman,serif" font-size="14.00">AP16</text>
</g>
<!-- AP16&#45;&#45;AP12 -->
<g id="edge16" class="edge"><title>AP16&#45;&#45;AP12</title>
<path fill="none" stroke="#cfcfcf" stroke-width="3.31818" d="M389.334,-24.1164C429.263,-29.8573 493.66,-39.1163 533.611,-44.8603"/>
<text text-anchor="middle" x="462.472" y="-24.4884" font-family="Times Roman,serif" font-size="10.00">11</text>
</g>
<!-- AP18 -->
<g id="node3" class="node"><title>AP18</title>
<ellipse fill="none" stroke="black" cx="38" cy="-292.598" rx="36.8288" ry="18"/>
<text text-anchor="middle" x="38" y="-288.498" font-family="Times Roman,serif" font-size="14.00">AP18</text>
</g>
<!-- AP16&#45;&#45;AP18 -->
<g id="edge34" class="edge"><title>AP16&#45;&#45;AP18</title>
<path fill="none" stroke="green" stroke-width="3" d="M335.408,-34.8924C279.602,-83.2486 112.265,-228.247 56.3914,-276.661"/>
</g>
<!-- AP11 -->
<g id="node6" class="node"><title>AP11</title>
<ellipse fill="none" stroke="black" cx="155.707" cy="-109.443" rx="36.8288" ry="18"/>
<text text-anchor="middle" x="155.707" y="-105.343" font-family="Times Roman,serif" font-size="14.00">AP11</text>
</g>
<!-- AP16&#45;&#45;AP11 -->
<g id="edge8" class="edge"><title>AP16&#45;&#45;AP11</title>
<path fill="none" stroke="#cfcfcf" stroke-width="4.54545" d="M326.627,-31.386C288.808,-48.6573 220.631,-79.7928 182.818,-97.0615"/>
<text text-anchor="middle" x="257.722" y="-69.2238" font-family="Times Roman,serif" font-size="10.00">11</text>
</g>
<!-- MASTER&#45;AP0 -->
<g id="node7" class="node"><title>MASTER&#45;AP0</title>
<ellipse fill="none" stroke="black" cx="569.249" cy="-752.928" rx="73.8534" ry="18"/>
<text text-anchor="middle" x="569.249" y="-748.828" font-family="Times Roman,serif" font-size="14.00">MASTER&#45;AP0</text>
</g>
<!-- AP16&#45;&#45;MASTER&#45;AP0 -->
<g id="edge2" class="edge"><title>AP16&#45;&#45;MASTER&#45;AP0</title>
<path fill="none" stroke="#cfcfcf" stroke-width="4.22727" d="M359.076,-37.1421C388.826,-138.462 534.148,-633.384 563.915,-734.763"/>
<text text-anchor="middle" x="453.495" y="-384.952" font-family="Times Roman,serif" font-size="10.00">11</text>
</g>
<!-- AP13 -->
<g id="node8" class="node"><title>AP13</title>
<ellipse fill="none" stroke="black" cx="795.126" cy="-401.456" rx="36.8288" ry="18"/>
<text text-anchor="middle" x="795.126" y="-397.356" font-family="Times Roman,serif" font-size="14.00">AP13</text>
</g>
<!-- AP16&#45;&#45;AP13 -->
<g id="edge12" class="edge"><title>AP16&#45;&#45;AP13</title>
<path fill="none" stroke="#cfcfcf" stroke-width="4.54545" d="M371.874,-34.7057C443.25,-96.5535 704.531,-322.955 776.605,-385.407"/>
<text text-anchor="middle" x="568.239" y="-214.056" font-family="Times Roman,serif" font-size="10.00">11</text>
</g>
<!-- AP15 -->
<g id="node4" class="node"><title>AP15</title>
<ellipse fill="none" stroke="black" cx="38" cy="-510.314" rx="36.8288" ry="18"/>
<text text-anchor="middle" x="38" y="-506.214" font-family="Times Roman,serif" font-size="14.00">AP15</text>
</g>
<!-- AP18&#45;&#45;AP15 -->
<g id="edge14" class="edge"><title>AP18&#45;&#45;AP15</title>
<path fill="none" stroke="#cfcfcf" stroke-width="4.54545" d="M38,-310.786C38,-351.767 38,-450.947 38,-492.025"/>
<text text-anchor="middle" x="45" y="-398.405" font-family="Times Roman,serif" font-size="10.00">11</text>
</g>
<!-- AP19 -->
<g id="node5" class="node"><title>AP19</title>
<ellipse fill="none" stroke="black" cx="155.707" cy="-693.469" rx="36.8288" ry="18"/>
<text text-anchor="middle" x="155.707" y="-689.369" font-family="Times Roman,serif" font-size="14.00">AP19</text>
</g>
<!-- AP18&#45;&#45;AP19 -->
<g id="edge22" class="edge"><title>AP18&#45;&#45;AP19</title>
<path fill="none" stroke="#cfcfcf" stroke-width="4.54545" d="M43.2863,-310.601C62.8349,-377.178 130.91,-609.021 150.435,-675.515"/>
<text text-anchor="middle" x="104.861" y="-488.058" font-family="Times Roman,serif" font-size="10.00">11</text>
</g>
<!-- AP18&#45;&#45;MASTER&#45;AP0 -->
<g id="edge38" class="edge"><title>AP18&#45;&#45;MASTER&#45;AP0</title>
<path fill="none" stroke="green" stroke-width="3" d="M53.0949,-309.076C127.304,-380.592 452.697,-662.707 544.881,-735.691"/>
</g>
<!-- AP18&#45;&#45;AP17 -->
<g id="edge4" class="edge"><title>AP18&#45;&#45;AP17</title>
<path fill="none" stroke="#cfcfcf" stroke-width="4.54545" d="M73.9434,-287.43C193.742,-270.205 578.579,-214.874 698.06,-197.695"/>
<text text-anchor="middle" x="385.002" y="-232.563" font-family="Times Roman,serif" font-size="10.00">11</text>
</g>
<!-- AP14 -->
<g id="node10" class="node"><title>AP14</title>
<ellipse fill="none" stroke="black" cx="353.749" cy="-783.912" rx="36.8288" ry="18"/>
<text text-anchor="middle" x="353.749" y="-779.812" font-family="Times Roman,serif" font-size="14.00">AP14</text>
</g>
<!-- AP18&#45;&#45;AP14 -->
<g id="edge18" class="edge"><title>AP18&#45;&#45;AP14</title>
<path fill="none" stroke="#cfcfcf" stroke-width="4.54545" d="M49.0525,-309.796C97.8429,-385.715 293.683,-690.449 342.622,-766.599"/>
<text text-anchor="middle" x="203.837" y="-530.197" font-family="Times Roman,serif" font-size="10.00">11</text>
</g>
<!-- AP15&#45;&#45;MASTER&#45;AP0 -->
<g id="edge32" class="edge"><title>AP15&#45;&#45;MASTER&#45;AP0</title>
<path fill="none" stroke="green" stroke-width="3" d="M65.0751,-522.679C153.669,-563.139 434.911,-691.578 534.158,-736.902"/>
</g>
<!-- AP19&#45;&#45;MASTER&#45;AP0 -->
<g id="edge40" class="edge"><title>AP19&#45;&#45;MASTER&#45;AP0</title>
<path fill="none" stroke="green" stroke-width="3" d="M191.323,-698.59C261.266,-708.646 417.411,-731.097 505.542,-743.768"/>
</g>
<!-- AP11&#45;&#45;MASTER&#45;AP0 -->
<g id="edge24" class="edge"><title>AP11&#45;&#45;MASTER&#45;AP0</title>
<path fill="none" stroke="green" stroke-width="3" d="M166.768,-126.654C225.275,-217.694 498.234,-642.426 557.765,-735.057"/>
</g>
<!-- MASTER&#45;AP0&#45;&#45;AP18 -->
<g id="edge6" class="edge"><title>MASTER&#45;AP0&#45;&#45;AP18</title>
<path fill="none" stroke="#cfcfcf" stroke-width="4.54545" d="M553.005,-735.345C475.814,-661.275 147.011,-376.317 59.4472,-307.531"/>
<text text-anchor="middle" x="312.226" y="-511.438" font-family="Times Roman,serif" font-size="10.00">11</text>
</g>
<!-- AP13&#45;&#45;MASTER&#45;AP0 -->
<g id="edge28" class="edge"><title>AP13&#45;&#45;MASTER&#45;AP0</title>
<path fill="none" stroke="green" stroke-width="3" d="M783.925,-418.886C745.558,-478.586 619.661,-674.485 580.787,-734.974"/>
</g>
<!-- AP20 -->
<g id="node11" class="node"><title>AP20</title>
<ellipse fill="none" stroke="black" cx="733.788" cy="-610.354" rx="36.8288" ry="18"/>
<text text-anchor="middle" x="733.788" y="-606.254" font-family="Times Roman,serif" font-size="14.00">AP20</text>
</g>
<!-- AP13&#45;&#45;AP20 -->
<g id="edge20" class="edge"><title>AP13&#45;&#45;AP20</title>
<path fill="none" stroke="#cfcfcf" stroke-width="4.45455" d="M789.79,-419.629C778.161,-459.235 750.647,-552.939 739.068,-592.372"/>
<text text-anchor="middle" x="772.429" y="-505" font-family="Times Roman,serif" font-size="10.00">11</text>
</g>
<!-- AP17&#45;&#45;AP16 -->
<g id="edge10" class="edge"><title>AP17&#45;&#45;AP16</title>
<path fill="none" stroke="#cfcfcf" stroke-width="4.36364" d="M706.762,-180.216C636.896,-148.309 450.887,-63.3614 380.892,-31.3959"/>
<text text-anchor="middle" x="540.827" y="-110.806" font-family="Times Roman,serif" font-size="10.00">11</text>
</g>
<!-- AP17&#45;&#45;MASTER&#45;AP0 -->
<g id="edge36" class="edge"><title>AP17&#45;&#45;MASTER&#45;AP0</title>
<path fill="none" stroke="green" stroke-width="3" d="M728.5,-210.568C703.747,-294.869 599.488,-649.945 574.6,-734.703"/>
</g>
<!-- AP14&#45;&#45;MASTER&#45;AP0 -->
<g id="edge30" class="edge"><title>AP14&#45;&#45;MASTER&#45;AP0</title>
<path fill="none" stroke="green" stroke-width="3" d="M389.334,-778.796C420.775,-774.275 467.387,-767.573 505.289,-762.124"/>
</g>
<!-- AP20&#45;&#45;MASTER&#45;AP0 -->
<g id="edge42" class="edge"><title>AP20&#45;&#45;MASTER&#45;AP0</title>
<path fill="none" stroke="green" stroke-width="3" d="M715.551,-626.156C684.509,-653.054 621.637,-707.534 589.362,-735.5"/>
</g>
<!-- AP6 -->
<g id="node33" class="node"><title>AP6</title>
<ellipse fill="red" stroke="black" cx="535.737" cy="-355.456" rx="30.0736" ry="18"/>
<text text-anchor="middle" x="535.737" y="-351.356" font-family="Times Roman,serif" font-size="14.00">AP6</text>
</g>
<!-- AP7 -->
<g id="node34" class="node"><title>AP7</title>
<ellipse fill="red" stroke="black" cx="563.737" cy="-439.456" rx="30.0736" ry="18"/>
<text text-anchor="middle" x="563.737" y="-435.356" font-family="Times Roman,serif" font-size="14.00">AP7</text>
</g>
<!-- AP8 -->
<g id="node35" class="node"><title>AP8</title>
<ellipse fill="red" stroke="black" cx="255.737" cy="-383.456" rx="30.0736" ry="18"/>
<text text-anchor="middle" x="255.737" y="-379.356" font-family="Times Roman,serif" font-size="14.00">AP8</text>
</g>
<!-- AP9 -->
<g id="node36" class="node"><title>AP9</title>
<ellipse fill="red" stroke="black" cx="311.737" cy="-215.456" rx="30.0736" ry="18"/>
<text text-anchor="middle" x="311.737" y="-211.356" font-family="Times Roman,serif" font-size="14.00">AP9</text>
</g>
<!-- AP1 -->
<g id="node37" class="node"><title>AP1</title>
<ellipse fill="red" stroke="black" cx="731.737" cy="-719.456" rx="30.0736" ry="18"/>
<text text-anchor="middle" x="731.737" y="-715.356" font-family="Times Roman,serif" font-size="14.00">AP1</text>
</g>
<!-- AP2 -->
<g id="node38" class="node"><title>AP2</title>
<ellipse fill="red" stroke="black" cx="731.737" cy="-103.456" rx="30.0736" ry="18"/>
<text text-anchor="middle" x="731.737" y="-99.356" font-family="Times Roman,serif" font-size="14.00">AP2</text>
</g>
<!-- AP3 -->
<g id="node39" class="node"><title>AP3</title>
<ellipse fill="red" stroke="black" cx="787.737" cy="-271.456" rx="30.0736" ry="18"/>
<text text-anchor="middle" x="787.737" y="-267.356" font-family="Times Roman,serif" font-size="14.00">AP3</text>
</g>
<!-- AP4 -->
<g id="node40" class="node"><title>AP4</title>
<ellipse fill="red" stroke="black" cx="255.737" cy="-775.456" rx="30.0736" ry="18"/>
<text text-anchor="middle" x="255.737" y="-771.356" font-family="Times Roman,serif" font-size="14.00">AP4</text>
</g>
<!-- AP5 -->
<g id="node41" class="node"><title>AP5</title>
<ellipse fill="red" stroke="black" cx="143.737" cy="-775.456" rx="30.0736" ry="18"/>
<text text-anchor="middle" x="143.737" y="-771.356" font-family="Times Roman,serif" font-size="14.00">AP5</text>
</g>
</g>
</svg>
