<?xml version="1.0" encoding="UTF-8" standalone="no"?>
<!DOCTYPE svg PUBLIC "-//W3C//DTD SVG 1.1//EN"
 "http://www.w3.org/Graphics/SVG/1.1/DTD/svg11.dtd">
<!-- Generated by graphviz version 2.26.3 (20100126.1600)
 -->
<!-- Title: G Pages: 1 -->
<svg width="1060pt" height="286pt"
 viewBox="0.00 0.00 1060.00 286.00" xmlns="http://www.w3.org/2000/svg" xmlns:xlink="http://www.w3.org/1999/xlink">
<g id="graph1" class="graph" transform="scale(1 1) rotate(0) translate(4 282)">
<title>G</title>
<polygon fill="white" stroke="white" points="-4,5 -4,-282 1057,-282 1057,5 -4,5"/>
<!-- AP11 -->
<g id="node1" class="node"><title>AP11</title>
<ellipse fill="none" stroke="black" cx="129" cy="-176" rx="36.8288" ry="18"/>
<text text-anchor="middle" x="129" y="-171.9" font-family="Times Roman,serif" font-size="14.00">AP11</text>
</g>
<!-- MASTER&#45;AP0 -->
<g id="node5" class="node"><title>MASTER&#45;AP0</title>
<ellipse fill="none" stroke="black" cx="416" cy="-18" rx="73.8534" ry="18"/>
<text text-anchor="middle" x="416" y="-13.9" font-family="Times Roman,serif" font-size="14.00">MASTER&#45;AP0</text>
</g>
<!-- AP11&#45;&#45;MASTER&#45;AP0 -->
<g id="edge20" class="edge"><title>AP11&#45;&#45;MASTER&#45;AP0</title>
<path fill="none" stroke="green" d="M109.28,-160.493C85.547,-139.922 51.3159,-102.852 72,-74 87.7987,-51.9627 250.127,-33.3309 346.041,-24.1399"/>
</g>
<!-- AP18 -->
<g id="node2" class="node"><title>AP18</title>
<ellipse fill="none" stroke="black" cx="221" cy="-176" rx="36.8288" ry="18"/>
<text text-anchor="middle" x="221" y="-171.9" font-family="Times Roman,serif" font-size="14.00">AP18</text>
</g>
<!-- AP18&#45;&#45;MASTER&#45;AP0 -->
<g id="edge30" class="edge"><title>AP18&#45;&#45;MASTER&#45;AP0</title>
<path fill="none" stroke="green" d="M192.453,-164.273C153.919,-148.158 89.3187,-120.026 83,-110 74.4692,-96.4639 72.6669,-86.2159 83,-74 99.8716,-54.0542 254.693,-34.7347 347.178,-24.8393"/>
</g>
<!-- AP13 -->
<g id="node6" class="node"><title>AP13</title>
<ellipse fill="none" stroke="black" cx="129" cy="-92" rx="36.8288" ry="18"/>
<text text-anchor="middle" x="129" y="-87.9" font-family="Times Roman,serif" font-size="14.00">AP13</text>
</g>
<!-- AP18&#45;&#45;AP13 -->
<g id="edge10" class="edge"><title>AP18&#45;&#45;AP13</title>
<path fill="none" stroke="grey" stroke-width="3.68182" d="M203.261,-159.804C186.97,-144.929 162.958,-123.005 146.684,-108.146"/>
<text text-anchor="middle" x="187.5" y="-131" font-family="Times Roman,serif" font-size="10.00">11</text>
</g>
<!-- AP19 -->
<g id="node8" class="node"><title>AP19</title>
<ellipse fill="none" stroke="black" cx="221" cy="-92" rx="36.8288" ry="18"/>
<text text-anchor="middle" x="221" y="-87.9" font-family="Times Roman,serif" font-size="14.00">AP19</text>
</g>
<!-- AP18&#45;&#45;AP19 -->
<g id="edge18" class="edge"><title>AP18&#45;&#45;AP19</title>
<path fill="none" stroke="grey" stroke-width="4.54545" d="M221,-157.773C221,-143.684 221,-124.272 221,-110.191"/>
<text text-anchor="middle" x="227.5" y="-131" font-family="Times Roman,serif" font-size="10.00">11</text>
</g>
<!-- AP20 -->
<g id="node9" class="node"><title>AP20</title>
<ellipse fill="none" stroke="black" cx="313" cy="-92" rx="36.8288" ry="18"/>
<text text-anchor="middle" x="313" y="-87.9" font-family="Times Roman,serif" font-size="14.00">AP20</text>
</g>
<!-- AP18&#45;&#45;AP20 -->
<g id="edge16" class="edge"><title>AP18&#45;&#45;AP20</title>
<path fill="none" stroke="grey" stroke-width="1.59091" d="M238.739,-159.804C255.03,-144.929 279.042,-123.005 295.316,-108.146"/>
<text text-anchor="middle" x="279.5" y="-131" font-family="Times Roman,serif" font-size="10.00">11</text>
</g>
<!-- AP17 -->
<g id="node3" class="node"><title>AP17</title>
<ellipse fill="red" stroke="black" cx="221" cy="-260" rx="36.8288" ry="18"/>
<text text-anchor="middle" x="221" y="-255.9" font-family="Times Roman,serif" font-size="14.00">AP17</text>
</g>
<!-- AP12 -->
<g id="node4" class="node"><title>AP12</title>
<ellipse fill="none" stroke="black" cx="313" cy="-176" rx="36.8288" ry="18"/>
<text text-anchor="middle" x="313" y="-171.9" font-family="Times Roman,serif" font-size="14.00">AP12</text>
</g>
<!-- AP12&#45;&#45;MASTER&#45;AP0 -->
<g id="edge22" class="edge"><title>AP12&#45;&#45;MASTER&#45;AP0</title>
<path fill="none" stroke="green" d="M325.365,-158.805C334.776,-145.587 347.95,-126.804 359,-110 375.724,-84.5673 394.107,-54.4813 405.353,-35.8159"/>
</g>
<!-- AP13&#45;&#45;MASTER&#45;AP0 -->
<g id="edge24" class="edge"><title>AP13&#45;&#45;MASTER&#45;AP0</title>
<path fill="none" stroke="green" d="M157.482,-80.1169C163.229,-77.9291 169.266,-75.7777 175,-74 236.337,-54.9825 308.225,-39.0787 357.422,-29.1376"/>
</g>
<!-- AP16 -->
<g id="node7" class="node"><title>AP16</title>
<ellipse fill="none" stroke="black" cx="37" cy="-176" rx="36.8288" ry="18"/>
<text text-anchor="middle" x="37" y="-171.9" font-family="Times Roman,serif" font-size="14.00">AP16</text>
</g>
<!-- AP16&#45;&#45;MASTER&#45;AP0 -->
<g id="edge28" class="edge"><title>AP16&#45;&#45;MASTER&#45;AP0</title>
<path fill="none" stroke="green" d="M36.5447,-157.801C36.9722,-135.364 41.0592,-97.3436 62,-74 79.3687,-54.6384 91.7002,-60.0386 117,-54 193.157,-35.8227 282.528,-26.593 343.594,-22.0628"/>
</g>
<!-- AP14 -->
<g id="node10" class="node"><title>AP14</title>
<ellipse fill="none" stroke="black" cx="129" cy="-260" rx="36.8288" ry="18"/>
<text text-anchor="middle" x="129" y="-255.9" font-family="Times Roman,serif" font-size="14.00">AP14</text>
</g>
<!-- AP16&#45;&#45;AP14 -->
<g id="edge14" class="edge"><title>AP16&#45;&#45;AP14</title>
<path fill="none" stroke="grey" stroke-width="3.22727" d="M54.6841,-192.146C70.9579,-207.005 94.9704,-228.929 111.261,-243.804"/>
<text text-anchor="middle" x="95.5" y="-215" font-family="Times Roman,serif" font-size="10.00">11</text>
</g>
<!-- AP19&#45;&#45;MASTER&#45;AP0 -->
<g id="edge32" class="edge"><title>AP19&#45;&#45;MASTER&#45;AP0</title>
<path fill="none" stroke="green" d="M250.178,-80.5141C255.757,-78.3373 261.555,-76.0883 267,-74 303.639,-59.9471 345.475,-44.2542 375.471,-33.0644"/>
</g>
<!-- AP20&#45;&#45;MASTER&#45;AP0 -->
<g id="edge34" class="edge"><title>AP20&#45;&#45;MASTER&#45;AP0</title>
<path fill="none" stroke="green" d="M333.231,-76.674C342.545,-69.6828 353.777,-61.344 364,-54 372.739,-47.7219 382.408,-40.9749 391.014,-35.0379"/>
</g>
<!-- AP14&#45;&#45;AP11 -->
<g id="edge6" class="edge"><title>AP14&#45;&#45;AP11</title>
<path fill="none" stroke="grey" stroke-width="4.36364" d="M129,-241.773C129,-227.684 129,-208.272 129,-194.191"/>
<text text-anchor="middle" x="135.5" y="-215" font-family="Times Roman,serif" font-size="10.00">11</text>
</g>
<!-- AP14&#45;&#45;AP18 -->
<g id="edge4" class="edge"><title>AP14&#45;&#45;AP18</title>
<path fill="none" stroke="grey" stroke-width="4.54545" d="M146.739,-243.804C163.03,-228.929 187.042,-207.005 203.316,-192.146"/>
<text text-anchor="middle" x="187.5" y="-215" font-family="Times Roman,serif" font-size="10.00">11</text>
</g>
<!-- AP14&#45;&#45;AP12 -->
<g id="edge12" class="edge"><title>AP14&#45;&#45;AP12</title>
<path fill="none" stroke="grey" stroke-width="3.18182" d="M156.15,-247.606C190.938,-231.724 250.897,-204.351 285.739,-188.445"/>
<text text-anchor="middle" x="239.5" y="-215" font-family="Times Roman,serif" font-size="10.00">11</text>
</g>
<!-- AP14&#45;&#45;MASTER&#45;AP0 -->
<g id="edge2" class="edge"><title>AP14&#45;&#45;MASTER&#45;AP0</title>
<path fill="none" stroke="grey" stroke-width="1.54545" d="M157.493,-248.15C163.238,-245.959 169.273,-243.798 175,-242 255.633,-216.68 297.921,-252.413 359,-194 404.147,-150.824 413.595,-71.6603 415.528,-36.1165"/>
<text text-anchor="middle" x="405.5" y="-131" font-family="Times Roman,serif" font-size="10.00">11</text>
</g>
<!-- AP14&#45;&#45;MASTER&#45;AP0 -->
<g id="edge26" class="edge"><title>AP14&#45;&#45;MASTER&#45;AP0</title>
<path fill="none" stroke="green" d="M156.838,-247.756C162.742,-245.544 169.004,-243.475 175,-242 268.812,-218.928 320.971,-264.52 387,-194 430.818,-147.201 424.871,-119.978 429,-56 429.431,-49.3202 427.711,-42.3065 425.392,-36.1487"/>
</g>
<!-- AP14&#45;&#45;AP16 -->
<g id="edge8" class="edge"><title>AP14&#45;&#45;AP16</title>
<path fill="none" stroke="grey" stroke-width="3.22727" d="M96.5163,-251.135C81.4653,-245.55 64.4255,-236.894 53,-224 45.6597,-215.716 41.6691,-203.959 39.5089,-194.154"/>
<text text-anchor="middle" x="59.5" y="-215" font-family="Times Roman,serif" font-size="10.00">11</text>
</g>
<!-- AP6 -->
<g id="node28" class="node"><title>AP6</title>
<ellipse fill="red" stroke="black" cx="306" cy="-260" rx="30.0736" ry="18"/>
<text text-anchor="middle" x="306" y="-255.9" font-family="Times Roman,serif" font-size="14.00">AP6</text>
</g>
<!-- AP7 -->
<g id="node29" class="node"><title>AP7</title>
<ellipse fill="red" stroke="black" cx="384" cy="-260" rx="30.0736" ry="18"/>
<text text-anchor="middle" x="384" y="-255.9" font-family="Times Roman,serif" font-size="14.00">AP7</text>
</g>
<!-- AP8 -->
<g id="node30" class="node"><title>AP8</title>
<ellipse fill="red" stroke="black" cx="462" cy="-260" rx="30.0736" ry="18"/>
<text text-anchor="middle" x="462" y="-255.9" font-family="Times Roman,serif" font-size="14.00">AP8</text>
</g>
<!-- AP9 -->
<g id="node31" class="node"><title>AP9</title>
<ellipse fill="red" stroke="black" cx="540" cy="-260" rx="30.0736" ry="18"/>
<text text-anchor="middle" x="540" y="-255.9" font-family="Times Roman,serif" font-size="14.00">AP9</text>
</g>
<!-- AP1 -->
<g id="node32" class="node"><title>AP1</title>
<ellipse fill="red" stroke="black" cx="618" cy="-260" rx="30.0736" ry="18"/>
<text text-anchor="middle" x="618" y="-255.9" font-family="Times Roman,serif" font-size="14.00">AP1</text>
</g>
<!-- AP2 -->
<g id="node33" class="node"><title>AP2</title>
<ellipse fill="red" stroke="black" cx="696" cy="-260" rx="30.0736" ry="18"/>
<text text-anchor="middle" x="696" y="-255.9" font-family="Times Roman,serif" font-size="14.00">AP2</text>
</g>
<!-- AP3 -->
<g id="node34" class="node"><title>AP3</title>
<ellipse fill="red" stroke="black" cx="774" cy="-260" rx="30.0736" ry="18"/>
<text text-anchor="middle" x="774" y="-255.9" font-family="Times Roman,serif" font-size="14.00">AP3</text>
</g>
<!-- AP4 -->
<g id="node35" class="node"><title>AP4</title>
<ellipse fill="red" stroke="black" cx="852" cy="-260" rx="30.0736" ry="18"/>
<text text-anchor="middle" x="852" y="-255.9" font-family="Times Roman,serif" font-size="14.00">AP4</text>
</g>
<!-- AP5 -->
<g id="node36" class="node"><title>AP5</title>
<ellipse fill="red" stroke="black" cx="930" cy="-260" rx="30.0736" ry="18"/>
<text text-anchor="middle" x="930" y="-255.9" font-family="Times Roman,serif" font-size="14.00">AP5</text>
</g>
<!-- AP15 -->
<g id="node37" class="node"><title>AP15</title>
<ellipse fill="red" stroke="black" cx="1015" cy="-260" rx="36.8288" ry="18"/>
<text text-anchor="middle" x="1015" y="-255.9" font-family="Times Roman,serif" font-size="14.00">AP15</text>
</g>
</g>
</svg>
