<?xml version="1.0" encoding="UTF-8" standalone="no"?>
<!DOCTYPE svg PUBLIC "-//W3C//DTD SVG 1.1//EN"
 "http://www.w3.org/Graphics/SVG/1.1/DTD/svg11.dtd">
<!-- Generated by graphviz version 2.26.3 (20100126.1600)
 -->
<!-- Title: G Pages: 1 -->
<svg width="557pt" height="535pt"
 viewBox="0.00 0.00 557.00 535.00" xmlns="http://www.w3.org/2000/svg" xmlns:xlink="http://www.w3.org/1999/xlink">
<g id="graph1" class="graph" transform="scale(1 1) rotate(0) translate(4 531)">
<title>G</title>
<polygon fill="white" stroke="white" points="-4,5 -4,-531 554,-531 554,5 -4,5"/>
<!-- 0 -->
<g id="node1" class="node"><title>0</title>
<ellipse fill="none" stroke="black" cx="206.36" cy="-19.3822" rx="27" ry="18"/>
<text text-anchor="middle" x="206.36" y="-15.2822" font-family="Times Roman,serif" font-size="14.00">0</text>
</g>
<!-- 24 -->
<g id="node3" class="node"><title>24</title>
<ellipse fill="none" stroke="black" cx="203.58" cy="-149.546" rx="27" ry="18"/>
<text text-anchor="middle" x="203.58" y="-145.446" font-family="Times Roman,serif" font-size="14.00">24</text>
</g>
<!-- 0&#45;&#45;24 -->
<g id="edge2" class="edge"><title>0&#45;&#45;24</title>
<path fill="none" stroke="green" stroke-width="3" d="M205.973,-37.4809C205.445,-62.2093 204.503,-106.315 203.972,-131.181"/>
</g>
<!-- 17 -->
<g id="node5" class="node"><title>17</title>
<ellipse fill="none" stroke="black" cx="301.162" cy="-32.2179" rx="27" ry="18"/>
<text text-anchor="middle" x="301.162" y="-28.1179" font-family="Times Roman,serif" font-size="14.00">17</text>
</g>
<!-- 0&#45;&#45;17 -->
<g id="edge4" class="edge"><title>0&#45;&#45;17</title>
<path fill="none" stroke="blue" d="M233.02,-22.9918C245.944,-24.7418 261.432,-26.8387 274.374,-28.5909"/>
</g>
<!-- 26 -->
<g id="node36" class="node"><title>26</title>
<ellipse fill="none" stroke="black" cx="262.574" cy="-88.3339" rx="27" ry="18"/>
<text text-anchor="middle" x="262.574" y="-84.2339" font-family="Times Roman,serif" font-size="14.00">26</text>
</g>
<!-- 17&#45;&#45;26 -->
<g id="edge74" class="edge"><title>17&#45;&#45;26</title>
<path fill="none" stroke="orange" stroke-width="3" d="M289.793,-48.751C284.813,-55.9929 278.981,-64.4745 273.995,-71.725"/>
</g>
<!-- 1 -->
<g id="node6" class="node"><title>1</title>
<ellipse fill="none" stroke="black" cx="217.237" cy="-268.903" rx="27" ry="18"/>
<text text-anchor="middle" x="217.237" y="-264.803" font-family="Times Roman,serif" font-size="14.00">1</text>
</g>
<!-- 1&#45;&#45;24 -->
<g id="edge6" class="edge"><title>1&#45;&#45;24</title>
<path fill="none" stroke="red" stroke-width="2.25" d="M215.163,-250.775C212.596,-228.341 208.25,-190.356 205.674,-167.844"/>
</g>
<!-- 2 -->
<g id="node9" class="node"><title>2</title>
<ellipse fill="none" stroke="black" cx="284.873" cy="-231.246" rx="27" ry="18"/>
<text text-anchor="middle" x="284.873" y="-227.146" font-family="Times Roman,serif" font-size="14.00">2</text>
</g>
<!-- 1&#45;&#45;2 -->
<g id="edge8" class="edge"><title>1&#45;&#45;2</title>
<path fill="none" stroke="green" stroke-width="4.5" d="M238.267,-257.194C246.488,-252.617 255.891,-247.382 264.089,-242.818"/>
</g>
<!-- 28 -->
<g id="node11" class="node"><title>28</title>
<ellipse fill="none" stroke="black" cx="264.323" cy="-406.604" rx="27" ry="18"/>
<text text-anchor="middle" x="264.323" y="-402.504" font-family="Times Roman,serif" font-size="14.00">28</text>
</g>
<!-- 1&#45;&#45;28 -->
<g id="edge10" class="edge"><title>1&#45;&#45;28</title>
<path fill="none" stroke="red" stroke-width="3" d="M223.296,-286.623C232.337,-313.063 249.259,-362.551 258.287,-388.952"/>
</g>
<!-- 14 -->
<g id="node13" class="node"><title>14</title>
<ellipse fill="none" stroke="black" cx="340.141" cy="-287.542" rx="27" ry="18"/>
<text text-anchor="middle" x="340.141" y="-283.442" font-family="Times Roman,serif" font-size="14.00">14</text>
</g>
<!-- 1&#45;&#45;14 -->
<g id="edge12" class="edge"><title>1&#45;&#45;14</title>
<path fill="none" stroke="green" stroke-width="0.75" d="M243.603,-272.901C264.199,-276.025 292.702,-280.347 313.395,-283.485"/>
</g>
<!-- 22 -->
<g id="node15" class="node"><title>22</title>
<ellipse fill="none" stroke="black" cx="138.485" cy="-182.156" rx="27" ry="18"/>
<text text-anchor="middle" x="138.485" y="-178.056" font-family="Times Roman,serif" font-size="14.00">22</text>
</g>
<!-- 1&#45;&#45;22 -->
<g id="edge14" class="edge"><title>1&#45;&#45;22</title>
<path fill="none" stroke="red" stroke-width="2.25" d="M203.158,-253.394C188.912,-237.702 167.005,-213.571 152.708,-197.823"/>
</g>
<!-- 18 -->
<g id="node17" class="node"><title>18</title>
<ellipse fill="none" stroke="black" cx="385.706" cy="-204.141" rx="27" ry="18"/>
<text text-anchor="middle" x="385.706" y="-200.041" font-family="Times Roman,serif" font-size="14.00">18</text>
</g>
<!-- 2&#45;&#45;18 -->
<g id="edge16" class="edge"><title>2&#45;&#45;18</title>
<path fill="none" stroke="green" stroke-width="1.5" d="M310.057,-224.476C325.457,-220.336 345.088,-215.059 360.493,-210.918"/>
</g>
<!-- 5 -->
<g id="node19" class="node"><title>5</title>
<ellipse fill="none" stroke="black" cx="225.837" cy="-342.634" rx="27" ry="18"/>
<text text-anchor="middle" x="225.837" y="-338.534" font-family="Times Roman,serif" font-size="14.00">5</text>
</g>
<!-- 2&#45;&#45;5 -->
<g id="edge18" class="edge"><title>2&#45;&#45;5</title>
<path fill="none" stroke="blue" stroke-width="1.8" d="M275.649,-248.65C264.558,-269.576 246.058,-304.481 234.996,-325.352"/>
</g>
<!-- 6 -->
<g id="node21" class="node"><title>6</title>
<ellipse fill="none" stroke="black" cx="364.852" cy="-147.638" rx="27" ry="18"/>
<text text-anchor="middle" x="364.852" y="-143.538" font-family="Times Roman,serif" font-size="14.00">6</text>
</g>
<!-- 2&#45;&#45;6 -->
<g id="edge20" class="edge"><title>2&#45;&#45;6</title>
<path fill="none" stroke="blue" stroke-width="9" d="M299.542,-215.911C313.973,-200.825 335.877,-177.928 350.275,-162.876"/>
</g>
<!-- 23 -->
<g id="node26" class="node"><title>23</title>
<ellipse fill="none" stroke="black" cx="447.857" cy="-242.63" rx="27" ry="18"/>
<text text-anchor="middle" x="447.857" y="-238.53" font-family="Times Roman,serif" font-size="14.00">23</text>
</g>
<!-- 14&#45;&#45;23 -->
<g id="edge64" class="edge"><title>14&#45;&#45;23</title>
<path fill="none" stroke="orange" stroke-width="0.818182" d="M363.249,-277.907C381.423,-270.329 406.623,-259.822 424.787,-252.249"/>
</g>
<!-- 18&#45;&#45;23 -->
<g id="edge76" class="edge"><title>18&#45;&#45;23</title>
<path fill="none" stroke="orange" stroke-width="4.5" d="M405.713,-216.531C412.81,-220.926 420.793,-225.87 427.887,-230.263"/>
</g>
<!-- 16 -->
<g id="node33" class="node"><title>16</title>
<ellipse fill="none" stroke="black" cx="181.777" cy="-453.995" rx="27" ry="18"/>
<text text-anchor="middle" x="181.777" y="-449.895" font-family="Times Roman,serif" font-size="14.00">16</text>
</g>
<!-- 5&#45;&#45;16 -->
<g id="edge30" class="edge"><title>5&#45;&#45;16</title>
<path fill="none" stroke="green" stroke-width="1.125" d="M218.758,-360.526C210.487,-381.43 196.893,-415.789 188.693,-436.515"/>
</g>
<!-- 6&#45;&#45;17 -->
<g id="edge32" class="edge"><title>6&#45;&#45;17</title>
<path fill="none" stroke="blue" stroke-width="1.5" d="M355.454,-130.607C343.412,-108.785 322.658,-71.1741 310.598,-49.3184"/>
</g>
<!-- 6&#45;&#45;23 -->
<g id="edge36" class="edge"><title>6&#45;&#45;23</title>
<path fill="none" stroke="red" d="M378.558,-163.324C393.938,-180.925 418.742,-209.311 434.13,-226.921"/>
</g>
<!-- 6&#45;&#45;26 -->
<g id="edge34" class="edge"><title>6&#45;&#45;26</title>
<path fill="none" stroke="red" stroke-width="3" d="M344.154,-135.637C326.41,-125.348 300.976,-110.601 283.24,-100.317"/>
</g>
<!-- 3 -->
<g id="node22" class="node"><title>3</title>
<ellipse fill="none" stroke="black" cx="521.476" cy="-354.965" rx="27" ry="18"/>
<text text-anchor="middle" x="521.476" y="-350.865" font-family="Times Roman,serif" font-size="14.00">3</text>
</g>
<!-- 21 -->
<g id="node24" class="node"><title>21</title>
<ellipse fill="none" stroke="black" cx="487.112" cy="-463.002" rx="27" ry="18"/>
<text text-anchor="middle" x="487.112" y="-458.902" font-family="Times Roman,serif" font-size="14.00">21</text>
</g>
<!-- 3&#45;&#45;21 -->
<g id="edge22" class="edge"><title>3&#45;&#45;21</title>
<path fill="none" stroke="green" stroke-width="2.25" d="M515.802,-372.805C509.435,-392.823 499.166,-425.107 492.795,-445.135"/>
</g>
<!-- 3&#45;&#45;23 -->
<g id="edge24" class="edge"><title>3&#45;&#45;23</title>
<path fill="none" stroke="red" stroke-width="0.818182" d="M510.613,-338.39C496.694,-317.151 472.705,-280.545 458.764,-259.274"/>
</g>
<!-- 27 -->
<g id="node70" class="node"><title>27</title>
<ellipse fill="none" stroke="black" cx="370.034" cy="-481.735" rx="27" ry="18"/>
<text text-anchor="middle" x="370.034" y="-477.635" font-family="Times Roman,serif" font-size="14.00">27</text>
</g>
<!-- 21&#45;&#45;27 -->
<g id="edge80" class="edge"><title>21&#45;&#45;27</title>
<path fill="none" stroke="blue" stroke-width="1.125" d="M460.838,-467.206C441.69,-470.269 415.846,-474.405 396.626,-477.48"/>
</g>
<!-- 4 -->
<g id="node27" class="node"><title>4</title>
<ellipse fill="none" stroke="black" cx="506.867" cy="-68.6771" rx="27" ry="18"/>
<text text-anchor="middle" x="506.867" y="-64.5771" font-family="Times Roman,serif" font-size="14.00">4</text>
</g>
<!-- 11 -->
<g id="node29" class="node"><title>11</title>
<ellipse fill="none" stroke="black" cx="396.873" cy="-74.4148" rx="27" ry="18"/>
<text text-anchor="middle" x="396.873" y="-70.3148" font-family="Times Roman,serif" font-size="14.00">11</text>
</g>
<!-- 4&#45;&#45;11 -->
<g id="edge26" class="edge"><title>4&#45;&#45;11</title>
<path fill="none" stroke="green" stroke-width="4.5" d="M479.677,-70.0954C462.755,-70.9782 441.066,-72.1095 424.131,-72.9929"/>
</g>
<!-- 20 -->
<g id="node31" class="node"><title>20</title>
<ellipse fill="none" stroke="black" cx="474.278" cy="-173.913" rx="27" ry="18"/>
<text text-anchor="middle" x="474.278" y="-169.813" font-family="Times Roman,serif" font-size="14.00">20</text>
</g>
<!-- 4&#45;&#45;20 -->
<g id="edge28" class="edge"><title>4&#45;&#45;20</title>
<path fill="none" stroke="red" stroke-width="1.5" d="M501.338,-86.529C495.346,-105.881 485.836,-136.588 479.833,-155.974"/>
</g>
<!-- 11&#45;&#45;20 -->
<g id="edge58" class="edge"><title>11&#45;&#45;20</title>
<path fill="none" stroke="orange" stroke-width="3" d="M409.309,-90.4009C423.668,-108.859 447.161,-139.056 461.615,-157.636"/>
</g>
<!-- 11&#45;&#45;26 -->
<g id="edge56" class="edge"><title>11&#45;&#45;26</title>
<path fill="none" stroke="orange" stroke-width="9" d="M370.018,-77.1981C346.595,-79.6257 312.791,-83.1292 289.382,-85.5554"/>
</g>
<!-- 16&#45;&#45;28 -->
<g id="edge70" class="edge"><title>16&#45;&#45;28</title>
<path fill="none" stroke="orange" stroke-width="2.25" d="M202.607,-442.036C215.216,-434.797 231.23,-425.603 243.786,-418.395"/>
</g>
<!-- 29 -->
<g id="node41" class="node"><title>29</title>
<ellipse fill="none" stroke="black" cx="160.581" cy="-396.689" rx="27" ry="18"/>
<text text-anchor="middle" x="160.581" y="-392.589" font-family="Times Roman,serif" font-size="14.00">29</text>
</g>
<!-- 16&#45;&#45;29 -->
<g id="edge72" class="edge"><title>16&#45;&#45;29</title>
<path fill="none" stroke="green" stroke-width="9" d="M175.302,-436.49C172.721,-429.512 169.754,-421.489 167.163,-414.483"/>
</g>
<!-- 7 -->
<g id="node38" class="node"><title>7</title>
<ellipse fill="none" stroke="black" cx="80.7926" cy="-474.621" rx="27" ry="18"/>
<text text-anchor="middle" x="80.7926" y="-470.521" font-family="Times Roman,serif" font-size="14.00">7</text>
</g>
<!-- 7&#45;&#45;16 -->
<g id="edge38" class="edge"><title>7&#45;&#45;16</title>
<path fill="none" stroke="orange" stroke-width="0.9" d="M106.799,-469.309C121.876,-466.23 140.797,-462.365 155.859,-459.289"/>
</g>
<!-- 7&#45;&#45;29 -->
<g id="edge40" class="edge"><title>7&#45;&#45;29</title>
<path fill="none" stroke="blue" stroke-width="0.529412" d="M96.1767,-459.595C110.306,-445.795 131.131,-425.455 145.245,-411.669"/>
</g>
<!-- 8 -->
<g id="node42" class="node"><title>8</title>
<ellipse fill="none" stroke="black" cx="122.442" cy="-110.851" rx="27" ry="18"/>
<text text-anchor="middle" x="122.442" y="-106.751" font-family="Times Roman,serif" font-size="14.00">8</text>
</g>
<!-- 8&#45;&#45;26 -->
<g id="edge42" class="edge"><title>8&#45;&#45;26</title>
<path fill="none" stroke="red" stroke-width="9" d="M148.8,-106.616C173.695,-102.616 210.846,-96.6457 235.858,-92.6267"/>
</g>
<!-- 12 -->
<g id="node45" class="node"><title>12</title>
<ellipse fill="none" stroke="black" cx="27.9659" cy="-37.3785" rx="27" ry="18"/>
<text text-anchor="middle" x="27.9659" y="-33.2785" font-family="Times Roman,serif" font-size="14.00">12</text>
</g>
<!-- 8&#45;&#45;12 -->
<g id="edge44" class="edge"><title>8&#45;&#45;12</title>
<path fill="none" stroke="green" stroke-width="2.25" d="M104.672,-97.0315C87.7812,-83.8957 62.5211,-64.2514 45.6565,-51.1361"/>
</g>
<!-- 15 -->
<g id="node47" class="node"><title>15</title>
<ellipse fill="none" stroke="black" cx="33.8299" cy="-208.154" rx="27" ry="18"/>
<text text-anchor="middle" x="33.8299" y="-204.054" font-family="Times Roman,serif" font-size="14.00">15</text>
</g>
<!-- 8&#45;&#45;15 -->
<g id="edge46" class="edge"><title>8&#45;&#45;15</title>
<path fill="none" stroke="green" stroke-width="3" d="M108.205,-126.484C91.6693,-144.642 64.5527,-174.418 48.0317,-192.559"/>
</g>
<!-- 15&#45;&#45;22 -->
<g id="edge68" class="edge"><title>15&#45;&#45;22</title>
<path fill="none" stroke="blue" stroke-width="9" d="M59.1641,-201.861C75.4975,-197.803 96.6628,-192.545 113.022,-188.482"/>
</g>
<!-- 19 -->
<g id="node62" class="node"><title>19</title>
<ellipse fill="none" stroke="black" cx="54.7228" cy="-322.83" rx="27" ry="18"/>
<text text-anchor="middle" x="54.7228" y="-318.73" font-family="Times Roman,serif" font-size="14.00">19</text>
</g>
<!-- 15&#45;&#45;19 -->
<g id="edge66" class="edge"><title>15&#45;&#45;19</title>
<path fill="none" stroke="green" stroke-width="1.28571" d="M37.0944,-226.072C40.9966,-247.49 47.4899,-283.13 51.4123,-304.659"/>
</g>
<!-- 9 -->
<g id="node48" class="node"><title>9</title>
<ellipse fill="none" stroke="black" cx="153.085" cy="-508.496" rx="27" ry="18"/>
<text text-anchor="middle" x="153.085" y="-504.396" font-family="Times Roman,serif" font-size="14.00">9</text>
</g>
<!-- 9&#45;&#45;16 -->
<g id="edge48" class="edge"><title>9&#45;&#45;16</title>
<path fill="none" stroke="orange" stroke-width="0.9" d="M162.163,-491.252C165.512,-484.89 169.306,-477.683 172.659,-471.314"/>
</g>
<!-- 9&#45;&#45;29 -->
<g id="edge50" class="edge"><title>9&#45;&#45;29</title>
<path fill="none" stroke="blue" d="M154.323,-490.033C155.72,-469.193 157.979,-435.506 159.367,-414.808"/>
</g>
<!-- 10 -->
<g id="node51" class="node"><title>10</title>
<ellipse fill="none" stroke="black" cx="191.92" cy="-83.3317" rx="27" ry="18"/>
<text text-anchor="middle" x="191.92" y="-79.2317" font-family="Times Roman,serif" font-size="14.00">10</text>
</g>
<!-- 10&#45;&#45;17 -->
<g id="edge52" class="edge"><title>10&#45;&#45;17</title>
<path fill="none" stroke="orange" stroke-width="4.5" d="M214.027,-72.9881C232.855,-64.1784 259.788,-51.5768 278.713,-42.7216"/>
</g>
<!-- 10&#45;&#45;22 -->
<g id="edge54" class="edge"><title>10&#45;&#45;22</title>
<path fill="none" stroke="blue" stroke-width="1.5" d="M182.613,-100.546C172.805,-118.684 157.453,-147.076 147.686,-165.139"/>
</g>
<!-- 13 -->
<g id="node56" class="node"><title>13</title>
<ellipse fill="none" stroke="black" cx="421.081" cy="-296.469" rx="27" ry="18"/>
<text text-anchor="middle" x="421.081" y="-292.369" font-family="Times Roman,serif" font-size="14.00">13</text>
</g>
<!-- 13&#45;&#45;20 -->
<g id="edge62" class="edge"><title>13&#45;&#45;20</title>
<path fill="none" stroke="red" stroke-width="9" d="M428.59,-279.169C438.671,-255.944 456.485,-214.903 466.635,-191.521"/>
</g>
<!-- 25 -->
<g id="node58" class="node"><title>25</title>
<ellipse fill="none" stroke="black" cx="308.526" cy="-349.228" rx="27" ry="18"/>
<text text-anchor="middle" x="308.526" y="-345.128" font-family="Times Roman,serif" font-size="14.00">25</text>
</g>
<!-- 13&#45;&#45;25 -->
<g id="edge60" class="edge"><title>13&#45;&#45;25</title>
<path fill="none" stroke="blue" stroke-width="9" d="M398.843,-306.892C379.111,-316.142 350.436,-329.583 330.717,-338.826"/>
</g>
<!-- 25&#45;&#45;28 -->
<g id="edge82" class="edge"><title>25&#45;&#45;28</title>
<path fill="none" stroke="red" stroke-width="3" d="M295.978,-365.516C289.954,-373.335 282.758,-382.675 276.75,-390.474"/>
</g>
<!-- 25&#45;&#45;29 -->
<g id="edge84" class="edge"><title>25&#45;&#45;29</title>
<path fill="none" stroke="blue" stroke-width="1.5" d="M284.096,-357.065C256.684,-365.859 212.474,-380.042 185.048,-388.84"/>
</g>
<!-- 19&#45;&#45;29 -->
<g id="edge78" class="edge"><title>19&#45;&#45;29</title>
<path fill="none" stroke="green" stroke-width="9" d="M73.6482,-336.034C92.9166,-349.478 122.611,-370.197 141.82,-383.599"/>
</g>
<!-- 27&#45;&#45;28 -->
<g id="edge86" class="edge"><title>27&#45;&#45;28</title>
<path fill="none" stroke="orange" stroke-width="9" d="M351.135,-468.303C331.893,-454.628 302.24,-433.553 283.058,-419.92"/>
</g>
</g>
</svg>
