<?xml version="1.0" encoding="UTF-8" standalone="no"?>
<!DOCTYPE svg PUBLIC "-//W3C//DTD SVG 1.1//EN"
 "http://www.w3.org/Graphics/SVG/1.1/DTD/svg11.dtd">
<!-- Generated by graphviz version 2.26.3 (20100126.1600)
 -->
<!-- Title: G Pages: 1 -->
<svg width="2107pt" height="1792pt"
 viewBox="0.00 0.00 2107.00 1792.00" xmlns="http://www.w3.org/2000/svg" xmlns:xlink="http://www.w3.org/1999/xlink">
<g id="graph1" class="graph" transform="scale(1 1) rotate(0) translate(4 1788)">
<title>G</title>
<polygon fill="white" stroke="white" points="-4,5 -4,-1788 2104,-1788 2104,5 -4,5"/>
<!-- 00a0571c2f85 -->
<g id="node1" class="node"><title>00a0571c2f85</title>
<polygon fill="none" stroke="black" points="528.708,-1110.09 412.708,-1110.09 412.708,-1074.09 528.708,-1074.09 528.708,-1110.09"/>
<text text-anchor="middle" x="470.708" y="-1087.99" font-family="Times Roman,serif" font-size="14.00">00a0571c2f85</text>
</g>
<!-- 00a0571c2c44 -->
<g id="node16" class="node"><title>00a0571c2c44</title>
<polygon fill="none" stroke="black" points="670.463,-996.546 552.463,-996.546 552.463,-960.546 670.463,-960.546 670.463,-996.546"/>
<text text-anchor="middle" x="611.463" y="-974.446" font-family="Times Roman,serif" font-size="14.00">00a0571c2c44</text>
</g>
<!-- 00a0571c2f85&#45;&#45;00a0571c2c44 -->
<g id="edge2" class="edge"><title>00a0571c2f85&#45;&#45;00a0571c2c44</title>
<path fill="none" stroke="blue" stroke-width="5" stroke-dasharray="1,5" d="M493.322,-1073.85C519.589,-1052.66 562.662,-1017.91 588.904,-996.743"/>
</g>
<!-- 00a0571da017 -->
<g id="node18" class="node"><title>00a0571da017</title>
<ellipse fill="none" stroke="black" cx="331.078" cy="-1243.15" rx="84.7756" ry="18"/>
<text text-anchor="middle" x="331.078" y="-1239.05" font-family="Times Roman,serif" font-size="14.00">00a0571da017</text>
</g>
<!-- 00a0571c2f85&#45;&#45;00a0571da017 -->
<g id="edge4" class="edge"><title>00a0571c2f85&#45;&#45;00a0571da017</title>
<path fill="none" stroke="black" stroke-width="2" d="M453.865,-1110.31C426.883,-1139.5 374.291,-1196.4 347.547,-1225.33"/>
</g>
<!-- ece55574a4d5 -->
<g id="node2" class="node"><title>ece55574a4d5</title>
<ellipse fill="none" stroke="black" cx="1277.66" cy="-1182.08" rx="82.1898" ry="18"/>
<text text-anchor="middle" x="1277.66" y="-1177.98" font-family="Times Roman,serif" font-size="14.00">ece55574a4d5</text>
</g>
<!-- ece555ffd6cc -->
<g id="node30" class="node"><title>ece555ffd6cc</title>
<polygon fill="none" stroke="black" points="1445.17,-995.381 1339.17,-995.381 1339.17,-959.381 1445.17,-959.381 1445.17,-995.381"/>
<text text-anchor="middle" x="1392.17" y="-973.281" font-family="Times Roman,serif" font-size="14.00">ece555ffd6cc</text>
</g>
<!-- ece55574a4d5&#45;&#45;ece555ffd6cc -->
<g id="edge8" class="edge"><title>ece55574a4d5&#45;&#45;ece555ffd6cc</title>
<path fill="none" stroke="black" stroke-width="2" d="M1287.82,-1163.92C1309.55,-1125.07 1360.32,-1034.32 1382.03,-995.507"/>
</g>
<!-- ece555ffd61e -->
<g id="node31" class="node"><title>ece555ffd61e</title>
<polygon fill="none" stroke="black" points="1194.92,-1370.51 1084.92,-1370.51 1084.92,-1334.51 1194.92,-1334.51 1194.92,-1370.51"/>
<text text-anchor="middle" x="1139.92" y="-1348.41" font-family="Times Roman,serif" font-size="14.00">ece555ffd61e</text>
</g>
<!-- ece55574a4d5&#45;&#45;ece555ffd61e -->
<g id="edge6" class="edge"><title>ece55574a4d5&#45;&#45;ece555ffd61e</title>
<path fill="none" stroke="black" stroke-width="2" d="M1263.18,-1200C1236.79,-1232.65 1181.17,-1301.48 1154.62,-1334.32"/>
</g>
<!-- ece555ffd650 -->
<g id="node3" class="node"><title>ece555ffd650</title>
<polygon fill="none" stroke="black" points="1192.86,-389.341 1080.86,-389.341 1080.86,-353.341 1192.86,-353.341 1192.86,-389.341"/>
<text text-anchor="middle" x="1136.86" y="-367.241" font-family="Times Roman,serif" font-size="14.00">ece555ffd650</text>
</g>
<!-- ece555ffd5c1 -->
<g id="node11" class="node"><title>ece555ffd5c1</title>
<polygon fill="none" stroke="black" points="1135.81,-563.787 1025.81,-563.787 1025.81,-527.787 1135.81,-527.787 1135.81,-563.787"/>
<text text-anchor="middle" x="1080.81" y="-541.687" font-family="Times Roman,serif" font-size="14.00">ece555ffd5c1</text>
</g>
<!-- ece555ffd650&#45;&#45;ece555ffd5c1 -->
<g id="edge10" class="edge"><title>ece555ffd650&#45;&#45;ece555ffd5c1</title>
<path fill="none" stroke="orange" stroke-width="5" stroke-dasharray="1,5" d="M1131.07,-389.353C1120.33,-422.781 1097.43,-494.061 1086.65,-527.612"/>
</g>
<!-- ece555748695 -->
<g id="node35" class="node"><title>ece555748695</title>
<ellipse fill="none" stroke="black" cx="1228.2" cy="-179.909" rx="84.0808" ry="18"/>
<text text-anchor="middle" x="1228.2" y="-175.809" font-family="Times Roman,serif" font-size="14.00">ece555748695</text>
</g>
<!-- ece555ffd650&#45;&#45;ece555748695 -->
<g id="edge12" class="edge"><title>ece555ffd650&#45;&#45;ece555748695</title>
<path fill="none" stroke="black" stroke-width="2" d="M1145.45,-353.332C1162.86,-316.846 1202.12,-234.572 1219.56,-198.01"/>
</g>
<!-- 00a0571c363f -->
<g id="node4" class="node"><title>00a0571c363f</title>
<polygon fill="none" stroke="black" points="746.009,-1635.16 630.009,-1635.16 630.009,-1599.16 746.009,-1599.16 746.009,-1635.16"/>
<text text-anchor="middle" x="688.009" y="-1613.06" font-family="Times Roman,serif" font-size="14.00">00a0571c363f</text>
</g>
<!-- 00a0571d6865 -->
<g id="node13" class="node"><title>00a0571d6865</title>
<ellipse fill="none" stroke="black" cx="905.993" cy="-1604.27" rx="84.9707" ry="18"/>
<text text-anchor="middle" x="905.993" y="-1600.17" font-family="Times Roman,serif" font-size="14.00">00a0571d6865</text>
</g>
<!-- 00a0571c363f&#45;&#45;00a0571d6865 -->
<g id="edge16" class="edge"><title>00a0571c363f&#45;&#45;00a0571d6865</title>
<path fill="none" stroke="black" stroke-width="2" d="M746.138,-1613.73C769.975,-1612.32 797.996,-1610.66 823.864,-1609.13"/>
</g>
<!-- ece555ffd5d6 -->
<g id="node29" class="node"><title>ece555ffd5d6</title>
<polygon fill="none" stroke="black" points="548.886,-1561.57 438.886,-1561.57 438.886,-1525.57 548.886,-1525.57 548.886,-1561.57"/>
<text text-anchor="middle" x="493.886" y="-1539.47" font-family="Times Roman,serif" font-size="14.00">ece555ffd5d6</text>
</g>
<!-- 00a0571c363f&#45;&#45;ece555ffd5d6 -->
<g id="edge14" class="edge"><title>00a0571c363f&#45;&#45;ece555ffd5d6</title>
<path fill="none" stroke="orange" stroke-width="5" stroke-dasharray="1,5" d="M640.521,-1599.16C610.439,-1587.76 571.673,-1573.06 541.556,-1561.64"/>
</g>
<!-- ece555ffd5da -->
<g id="node5" class="node"><title>ece555ffd5da</title>
<polygon fill="none" stroke="black" points="1500.26,-822.659 1390.26,-822.659 1390.26,-786.659 1500.26,-786.659 1500.26,-822.659"/>
<text text-anchor="middle" x="1445.26" y="-800.559" font-family="Times Roman,serif" font-size="14.00">ece555ffd5da</text>
</g>
<!-- 00a0571c373e -->
<g id="node9" class="node"><title>00a0571c373e</title>
<polygon fill="none" stroke="black" points="1692.86,-768.729 1572.86,-768.729 1572.86,-732.729 1692.86,-732.729 1692.86,-768.729"/>
<text text-anchor="middle" x="1632.86" y="-746.629" font-family="Times Roman,serif" font-size="14.00">00a0571c373e</text>
</g>
<!-- ece555ffd5da&#45;&#45;00a0571c373e -->
<g id="edge18" class="edge"><title>ece555ffd5da&#45;&#45;00a0571c373e</title>
<path fill="none" stroke="red" stroke-width="5" stroke-dasharray="1,5" d="M1500.28,-788.842C1522.98,-782.316 1549.36,-774.731 1572.59,-768.055"/>
</g>
<!-- ece55571dcd0 -->
<g id="node22" class="node"><title>ece55571dcd0</title>
<ellipse fill="none" stroke="black" cx="1271.2" cy="-645.598" rx="80.8024" ry="18"/>
<text text-anchor="middle" x="1271.2" y="-641.498" font-family="Times Roman,serif" font-size="14.00">ece55571dcd0</text>
</g>
<!-- ece555ffd5da&#45;&#45;ece55571dcd0 -->
<g id="edge20" class="edge"><title>ece555ffd5da&#45;&#45;ece55571dcd0</title>
<path fill="none" stroke="black" stroke-width="2" d="M1425.29,-786.412C1391.54,-755.567 1323.63,-693.514 1290.4,-663.147"/>
</g>
<!-- ece555ffd5da&#45;&#45;ece555ffd6cc -->
<g id="edge22" class="edge"><title>ece555ffd5da&#45;&#45;ece555ffd6cc</title>
<path fill="none" stroke="red" stroke-width="5" stroke-dasharray="1,5" d="M1439.68,-822.816C1429.48,-855.989 1407.96,-926.023 1397.76,-959.208"/>
</g>
<!-- ece555ffd5bf -->
<g id="node6" class="node"><title>ece555ffd5bf</title>
<polygon fill="none" stroke="black" points="107.658,-887.8 1.65846,-887.8 1.65846,-851.8 107.658,-851.8 107.658,-887.8"/>
<text text-anchor="middle" x="54.6585" y="-865.7" font-family="Times Roman,serif" font-size="14.00">ece555ffd5bf</text>
</g>
<!-- ece55571dca0 -->
<g id="node10" class="node"><title>ece55571dca0</title>
<ellipse fill="none" stroke="black" cx="220.234" cy="-971.346" rx="80.8024" ry="18"/>
<text text-anchor="middle" x="220.234" y="-967.246" font-family="Times Roman,serif" font-size="14.00">ece55571dca0</text>
</g>
<!-- ece555ffd5bf&#45;&#45;ece55571dca0 -->
<g id="edge24" class="edge"><title>ece555ffd5bf&#45;&#45;ece55571dca0</title>
<path fill="none" stroke="black" stroke-width="2" d="M84.2601,-887.954C114.956,-906.78 162.569,-935.98 192.541,-954.362"/>
</g>
<!-- 00a0571c3501 -->
<g id="node7" class="node"><title>00a0571c3501</title>
<polygon fill="none" stroke="black" points="943.162,-646.733 821.162,-646.733 821.162,-610.733 943.162,-610.733 943.162,-646.733"/>
<text text-anchor="middle" x="882.162" y="-624.633" font-family="Times Roman,serif" font-size="14.00">00a0571c3501</text>
</g>
<!-- 00a0571c3501&#45;&#45;ece555ffd5c1 -->
<g id="edge26" class="edge"><title>00a0571c3501&#45;&#45;ece555ffd5c1</title>
<path fill="none" stroke="orange" stroke-width="5" stroke-dasharray="1,5" d="M925.756,-610.53C958.991,-596.653 1004.53,-577.636 1037.66,-563.805"/>
</g>
<!-- 00a0571d6864 -->
<g id="node12" class="node"><title>00a0571d6864</title>
<ellipse fill="none" stroke="black" cx="701.169" cy="-761.876" rx="84.9707" ry="18"/>
<text text-anchor="middle" x="701.169" y="-757.776" font-family="Times Roman,serif" font-size="14.00">00a0571d6864</text>
</g>
<!-- 00a0571c3501&#45;&#45;00a0571d6864 -->
<g id="edge28" class="edge"><title>00a0571c3501&#45;&#45;00a0571d6864</title>
<path fill="none" stroke="black" stroke-width="2" d="M857.375,-646.967C822.425,-672.677 759.104,-719.257 724.795,-744.496"/>
</g>
<!-- 00a0571c3641 -->
<g id="node8" class="node"><title>00a0571c3641</title>
<polygon fill="none" stroke="black" points="715.566,-842.593 593.566,-842.593 593.566,-806.593 715.566,-806.593 715.566,-842.593"/>
<text text-anchor="middle" x="654.566" y="-820.493" font-family="Times Roman,serif" font-size="14.00">00a0571c3641</text>
</g>
<!-- 00a0571c3641&#45;&#45;00a0571d6864 -->
<g id="edge30" class="edge"><title>00a0571c3641&#45;&#45;00a0571d6864</title>
<path fill="none" stroke="black" stroke-width="2" d="M668.045,-806.452C674.282,-798.059 681.668,-788.12 687.88,-779.759"/>
</g>
<!-- 00a0571c3641&#45;&#45;00a0571c2c44 -->
<g id="edge32" class="edge"><title>00a0571c3641&#45;&#45;00a0571c2c44</title>
<path fill="none" stroke="blue" stroke-width="5" stroke-dasharray="1,5" d="M649.452,-842.858C641.157,-872.488 624.861,-930.69 616.57,-960.305"/>
</g>
<!-- 00a0571d6867 -->
<g id="node14" class="node"><title>00a0571d6867</title>
<ellipse fill="none" stroke="black" cx="1840.77" cy="-703.91" rx="84.9707" ry="18"/>
<text text-anchor="middle" x="1840.77" y="-699.81" font-family="Times Roman,serif" font-size="14.00">00a0571d6867</text>
</g>
<!-- 00a0571c373e&#45;&#45;00a0571d6867 -->
<g id="edge34" class="edge"><title>00a0571c373e&#45;&#45;00a0571d6867</title>
<path fill="none" stroke="black" stroke-width="2" d="M1692.99,-737.187C1721.06,-730.867 1754.33,-723.373 1782.2,-717.099"/>
</g>
<!-- ece555ffd5af -->
<g id="node20" class="node"><title>ece555ffd5af</title>
<polygon fill="none" stroke="black" points="305.482,-1035.86 199.482,-1035.86 199.482,-999.86 305.482,-999.86 305.482,-1035.86"/>
<text text-anchor="middle" x="252.482" y="-1013.76" font-family="Times Roman,serif" font-size="14.00">ece555ffd5af</text>
</g>
<!-- ece55571dca0&#45;&#45;ece555ffd5af -->
<g id="edge36" class="edge"><title>ece55571dca0&#45;&#45;ece555ffd5af</title>
<path fill="none" stroke="black" stroke-width="2" d="M232.61,-989.196C235.026,-992.681 237.56,-996.336 239.98,-999.827"/>
</g>
<!-- ece555ffd5c1&#45;&#45;ece55571dcd0 -->
<g id="edge38" class="edge"><title>ece555ffd5c1&#45;&#45;ece55571dcd0</title>
<path fill="none" stroke="black" stroke-width="2" d="M1115.29,-563.862C1150.65,-582.401 1205.2,-610.997 1239.51,-628.984"/>
</g>
<!-- 00a0571c3511 -->
<g id="node24" class="node"><title>00a0571c3511</title>
<polygon fill="none" stroke="black" points="974.528,-1415.68 852.528,-1415.68 852.528,-1379.68 974.528,-1379.68 974.528,-1415.68"/>
<text text-anchor="middle" x="913.528" y="-1393.58" font-family="Times Roman,serif" font-size="14.00">00a0571c3511</text>
</g>
<!-- 00a0571d6865&#45;&#45;00a0571c3511 -->
<g id="edge40" class="edge"><title>00a0571d6865&#45;&#45;00a0571c3511</title>
<path fill="none" stroke="black" stroke-width="2" d="M906.661,-1585.94C908.091,-1546.73 911.432,-1455.14 912.861,-1415.97"/>
</g>
<!-- 00a0571c3732 -->
<g id="node36" class="node"><title>00a0571c3732</title>
<polygon fill="none" stroke="black" points="2097.53,-680.895 1975.53,-680.895 1975.53,-644.895 2097.53,-644.895 2097.53,-680.895"/>
<text text-anchor="middle" x="2036.53" y="-658.795" font-family="Times Roman,serif" font-size="14.00">00a0571c3732</text>
</g>
<!-- 00a0571d6867&#45;&#45;00a0571c3732 -->
<g id="edge42" class="edge"><title>00a0571d6867&#45;&#45;00a0571c3732</title>
<path fill="none" stroke="black" stroke-width="2" d="M1901.37,-691.213C1924.84,-686.296 1951.67,-680.675 1975.2,-675.744"/>
</g>
<!-- 00a0571c2b52 -->
<g id="node15" class="node"><title>00a0571c2b52</title>
<polygon fill="none" stroke="black" points="203.75,-1348.4 83.7498,-1348.4 83.7498,-1312.4 203.75,-1312.4 203.75,-1348.4"/>
<text text-anchor="middle" x="143.75" y="-1326.3" font-family="Times Roman,serif" font-size="14.00">00a0571c2b52</text>
</g>
<!-- 00a0571c2b52&#45;&#45;00a0571da017 -->
<g id="edge44" class="edge"><title>00a0571c2b52&#45;&#45;00a0571da017</title>
<path fill="none" stroke="black" stroke-width="2" d="M182.564,-1312.32C215.893,-1296.8 263.529,-1274.61 295.794,-1259.58"/>
</g>
<!-- 00a0571da012 -->
<g id="node17" class="node"><title>00a0571da012</title>
<ellipse fill="none" stroke="black" cx="805.71" cy="-1005.17" rx="84.7756" ry="18"/>
<text text-anchor="middle" x="805.71" y="-1001.07" font-family="Times Roman,serif" font-size="14.00">00a0571da012</text>
</g>
<!-- 00a0571c2c44&#45;&#45;00a0571da012 -->
<g id="edge46" class="edge"><title>00a0571c2c44&#45;&#45;00a0571da012</title>
<path fill="none" stroke="black" stroke-width="2" d="M670.535,-986.642C690.626,-989.396 713.298,-992.503 734.252,-995.375"/>
</g>
<!-- 00a0571c2c0d -->
<g id="node21" class="node"><title>00a0571c2c0d</title>
<polygon fill="none" stroke="black" points="1014.57,-1138.65 896.571,-1138.65 896.571,-1102.65 1014.57,-1102.65 1014.57,-1138.65"/>
<text text-anchor="middle" x="955.571" y="-1116.55" font-family="Times Roman,serif" font-size="14.00">00a0571c2c0d</text>
</g>
<!-- 00a0571da012&#45;&#45;00a0571c2c0d -->
<g id="edge48" class="edge"><title>00a0571da012&#45;&#45;00a0571c2c0d</title>
<path fill="none" stroke="black" stroke-width="2" d="M828.471,-1022.71C856.474,-1044.29 903.777,-1080.74 932.101,-1102.56"/>
</g>
<!-- ece55571dd00 -->
<g id="node19" class="node"><title>ece55571dd00</title>
<ellipse fill="none" stroke="black" cx="337.152" cy="-1401.12" rx="82.1898" ry="18"/>
<text text-anchor="middle" x="337.152" y="-1397.02" font-family="Times Roman,serif" font-size="14.00">ece55571dd00</text>
</g>
<!-- ece55571dd00&#45;&#45;ece555ffd5d6 -->
<g id="edge52" class="edge"><title>ece55571dd00&#45;&#45;ece555ffd5d6</title>
<path fill="none" stroke="black" stroke-width="2" d="M356.686,-1418.88C386.556,-1446.02 443.3,-1497.6 473.609,-1525.14"/>
</g>
<!-- ece555ffd5b9 -->
<g id="node33" class="node"><title>ece555ffd5b9</title>
<polygon fill="none" stroke="black" points="288.464,-1208.32 178.464,-1208.32 178.464,-1172.32 288.464,-1172.32 288.464,-1208.32"/>
<text text-anchor="middle" x="233.464" y="-1186.22" font-family="Times Roman,serif" font-size="14.00">ece555ffd5b9</text>
</g>
<!-- ece55571dd00&#45;&#45;ece555ffd5b9 -->
<g id="edge50" class="edge"><title>ece55571dd00&#45;&#45;ece555ffd5b9</title>
<path fill="none" stroke="black" stroke-width="2" d="M328.312,-1383.15C308.771,-1343.42 262.085,-1248.51 242.429,-1208.55"/>
</g>
<!-- ece555ffd5af&#45;&#45;ece555ffd5b9 -->
<g id="edge54" class="edge"><title>ece555ffd5af&#45;&#45;ece555ffd5b9</title>
<path fill="none" stroke="red" stroke-width="5" stroke-dasharray="1,5" d="M250.483,-1035.99C246.83,-1069.11 239.119,-1139.04 235.465,-1172.17"/>
</g>
<!-- 00a0571de372 -->
<g id="node34" class="node"><title>00a0571de372</title>
<polygon fill="none" stroke="black" points="986.398,-1233.66 864.398,-1233.66 864.398,-1197.66 986.398,-1197.66 986.398,-1233.66"/>
<text text-anchor="middle" x="925.398" y="-1211.56" font-family="Times Roman,serif" font-size="14.00">00a0571de372</text>
</g>
<!-- 00a0571c2c0d&#45;&#45;00a0571de372 -->
<g id="edge56" class="edge"><title>00a0571c2c0d&#45;&#45;00a0571de372</title>
<path fill="none" stroke="green" stroke-width="5" stroke-dasharray="1,5" d="M949.754,-1138.97C944.411,-1155.79 936.535,-1180.59 931.198,-1197.4"/>
</g>
<!-- ece555ffd642 -->
<g id="node23" class="node"><title>ece555ffd642</title>
<polygon fill="none" stroke="black" points="1030.52,-1500.4 918.516,-1500.4 918.516,-1464.4 1030.52,-1464.4 1030.52,-1500.4"/>
<text text-anchor="middle" x="974.516" y="-1478.3" font-family="Times Roman,serif" font-size="14.00">ece555ffd642</text>
</g>
<!-- ece55574a4a5 -->
<g id="node26" class="node"><title>ece55574a4a5</title>
<ellipse fill="none" stroke="black" cx="768.546" cy="-1558.65" rx="82.1898" ry="18"/>
<text text-anchor="middle" x="768.546" y="-1554.55" font-family="Times Roman,serif" font-size="14.00">ece55574a4a5</text>
</g>
<!-- ece555ffd642&#45;&#45;ece55574a4a5 -->
<g id="edge60" class="edge"><title>ece555ffd642&#45;&#45;ece55574a4a5</title>
<path fill="none" stroke="black" stroke-width="2" d="M925.704,-1500.47C890.61,-1513.46 843.784,-1530.8 810.396,-1543.16"/>
</g>
<!-- ece555ffd642&#45;&#45;ece555ffd61e -->
<g id="edge58" class="edge"><title>ece555ffd642&#45;&#45;ece555ffd61e</title>
<path fill="none" stroke="green" stroke-width="5" stroke-dasharray="1,5" d="M997.514,-1464.34C1029.03,-1439.59 1085.3,-1395.4 1116.85,-1370.63"/>
</g>
<!-- 00a0571c3511&#45;&#45;00a0571de372 -->
<g id="edge62" class="edge"><title>00a0571c3511&#45;&#45;00a0571de372</title>
<path fill="none" stroke="green" stroke-width="5" stroke-dasharray="1,5" d="M914.71,-1379.56C916.985,-1344.67 921.95,-1268.54 924.221,-1233.71"/>
</g>
<!-- ece555ffd63a -->
<g id="node25" class="node"><title>ece555ffd63a</title>
<polygon fill="none" stroke="black" points="1387.82,-37.4378 1277.82,-37.4378 1277.82,-1.43785 1387.82,-1.43785 1387.82,-37.4378"/>
<text text-anchor="middle" x="1332.82" y="-15.3378" font-family="Times Roman,serif" font-size="14.00">ece555ffd63a</text>
</g>
<!-- ece555ffd63a&#45;&#45;ece555748695 -->
<g id="edge64" class="edge"><title>ece555ffd63a&#45;&#45;ece555748695</title>
<path fill="none" stroke="black" stroke-width="2" d="M1321.02,-37.534C1300.93,-68.3537 1260.29,-130.691 1240.11,-161.633"/>
</g>
<!-- ece555ffd667 -->
<g id="node28" class="node"><title>ece555ffd667</title>
<polygon fill="none" stroke="black" points="797.333,-1783.17 685.333,-1783.17 685.333,-1747.17 797.333,-1747.17 797.333,-1783.17"/>
<text text-anchor="middle" x="741.333" y="-1761.07" font-family="Times Roman,serif" font-size="14.00">ece555ffd667</text>
</g>
<!-- ece55574a4a5&#45;&#45;ece555ffd667 -->
<g id="edge66" class="edge"><title>ece55574a4a5&#45;&#45;ece555ffd667</title>
<path fill="none" stroke="black" stroke-width="2" d="M766.131,-1576.98C760.967,-1616.17 748.902,-1707.73 743.743,-1746.88"/>
</g>
<!-- 00a0571da270 -->
<g id="node27" class="node"><title>00a0571da270</title>
<ellipse fill="none" stroke="black" cx="1116.43" cy="-1236.53" rx="84.7756" ry="18"/>
<text text-anchor="middle" x="1116.43" y="-1232.43" font-family="Times Roman,serif" font-size="14.00">00a0571da270</text>
</g>
<!-- 00a0571de370 -->
<g id="node32" class="node"><title>00a0571de370</title>
<polygon fill="none" stroke="black" points="1346.26,-1358.11 1224.26,-1358.11 1224.26,-1322.11 1346.26,-1322.11 1346.26,-1358.11"/>
<text text-anchor="middle" x="1285.26" y="-1336.01" font-family="Times Roman,serif" font-size="14.00">00a0571de370</text>
</g>
<!-- 00a0571da270&#45;&#45;00a0571de370 -->
<g id="edge68" class="edge"><title>00a0571da270&#45;&#45;00a0571de370</title>
<path fill="none" stroke="black" stroke-width="2" d="M1144.31,-1253.63C1175.03,-1272.48 1224.24,-1302.67 1255.64,-1321.93"/>
</g>
<!-- 00a0571da270&#45;&#45;00a0571de372 -->
<g id="edge70" class="edge"><title>00a0571da270&#45;&#45;00a0571de372</title>
<path fill="none" stroke="black" stroke-width="2" d="M1040.65,-1228.25C1022.74,-1226.29 1003.85,-1224.23 986.669,-1222.35"/>
</g>
</g>
</svg>
