<?xml version="1.0" encoding="UTF-8" standalone="no"?>
<!DOCTYPE svg PUBLIC "-//W3C//DTD SVG 1.1//EN"
 "http://www.w3.org/Graphics/SVG/1.1/DTD/svg11.dtd">
<!-- Generated by graphviz version 2.26.3 (20100126.1600)
 -->
<!-- Title: G Pages: 1 -->
<svg width="2393pt" height="404pt"
 viewBox="0.00 0.00 2393.00 404.00" xmlns="http://www.w3.org/2000/svg" xmlns:xlink="http://www.w3.org/1999/xlink">
<g id="graph1" class="graph" transform="scale(1 1) rotate(0) translate(4 400)">
<title>G</title>
<polygon fill="white" stroke="white" points="-4,5 -4,-400 2390,-400 2390,5 -4,5"/>
<!-- 00a0571c2f85 -->
<g id="node1" class="node"><title>00a0571c2f85</title>
<polygon fill="none" stroke="black" points="442,-108 326,-108 326,-72 442,-72 442,-108"/>
<text text-anchor="middle" x="384" y="-85.9" font-family="Times Roman,serif" font-size="14.00">00a0571c2f85</text>
</g>
<!-- 00a0571da017 -->
<g id="node18" class="node"><title>00a0571da017</title>
<ellipse fill="none" stroke="black" cx="283" cy="-18" rx="84.7756" ry="18"/>
<text text-anchor="middle" x="283" y="-13.9" font-family="Times Roman,serif" font-size="14.00">00a0571da017</text>
</g>
<!-- 00a0571c2f85&#45;&#45;00a0571da017 -->
<g id="edge6" class="edge"><title>00a0571c2f85&#45;&#45;00a0571da017</title>
<path fill="none" stroke="black" stroke-width="2" d="M358.513,-71.8314C342.852,-60.6667 322.896,-46.441 307.433,-35.4177"/>
</g>
<!-- ece555ffd667 -->
<g id="node28" class="node"><title>ece555ffd667</title>
<polygon fill="none" stroke="black" points="531,-36 419,-36 419,-1.06581e-14 531,-0 531,-36"/>
<text text-anchor="middle" x="475" y="-13.9" font-family="Times Roman,serif" font-size="14.00">ece555ffd667</text>
</g>
<!-- 00a0571c2f85&#45;&#45;ece555ffd667 -->
<g id="edge4" class="edge"><title>00a0571c2f85&#45;&#45;ece555ffd667</title>
<path fill="none" stroke="grey" stroke-width="2.61702" stroke-dasharray="1,5" d="M406.963,-71.8314C420.758,-60.9167 438.251,-47.0764 452.044,-36.1628"/>
</g>
<!-- ece555ffd5af -->
<g id="node31" class="node"><title>ece555ffd5af</title>
<polygon fill="none" stroke="black" points="1388,-36 1282,-36 1282,-1.06581e-14 1388,-0 1388,-36"/>
<text text-anchor="middle" x="1335" y="-13.9" font-family="Times Roman,serif" font-size="14.00">ece555ffd5af</text>
</g>
<!-- 00a0571c2f85&#45;&#45;ece555ffd5af -->
<g id="edge2" class="edge"><title>00a0571c2f85&#45;&#45;ece555ffd5af</title>
<path fill="none" stroke="grey" stroke-width="4.47739" stroke-dasharray="1,5" d="M442.315,-73.5918C445.24,-73.0019 448.147,-72.4655 451,-72 612.521,-45.6463 1116.67,-25.782 1281.94,-19.8373"/>
</g>
<!-- ece55574a4d5 -->
<g id="node2" class="node"><title>ece55574a4d5</title>
<ellipse fill="none" stroke="black" cx="1524" cy="-162" rx="82.1898" ry="18"/>
<text text-anchor="middle" x="1524" y="-157.9" font-family="Times Roman,serif" font-size="14.00">ece55574a4d5</text>
</g>
<!-- ece555ffd61e -->
<g id="node20" class="node"><title>ece555ffd61e</title>
<polygon fill="none" stroke="black" points="1848,-108 1738,-108 1738,-72 1848,-72 1848,-108"/>
<text text-anchor="middle" x="1793" y="-85.9" font-family="Times Roman,serif" font-size="14.00">ece555ffd61e</text>
</g>
<!-- ece55574a4d5&#45;&#45;ece555ffd61e -->
<g id="edge8" class="edge"><title>ece55574a4d5&#45;&#45;ece555ffd61e</title>
<path fill="none" stroke="black" stroke-width="2" d="M1577.16,-148.256C1618.58,-137.484 1677.51,-122.022 1729,-108 1731.9,-107.212 1734.86,-106.398 1737.86,-105.571"/>
</g>
<!-- ece555ffd6cc -->
<g id="node30" class="node"><title>ece555ffd6cc</title>
<polygon fill="none" stroke="black" points="1464,-108 1358,-108 1358,-72 1464,-72 1464,-108"/>
<text text-anchor="middle" x="1411" y="-85.9" font-family="Times Roman,serif" font-size="14.00">ece555ffd6cc</text>
</g>
<!-- ece55574a4d5&#45;&#45;ece555ffd6cc -->
<g id="edge10" class="edge"><title>ece55574a4d5&#45;&#45;ece555ffd6cc</title>
<path fill="none" stroke="black" stroke-width="2" d="M1497.22,-144.937C1479.86,-133.875 1457.27,-119.479 1439.56,-108.199"/>
</g>
<!-- ece555ffd650 -->
<g id="node3" class="node"><title>ece555ffd650</title>
<polygon fill="none" stroke="black" points="1863,-180 1751,-180 1751,-144 1863,-144 1863,-180"/>
<text text-anchor="middle" x="1807" y="-157.9" font-family="Times Roman,serif" font-size="14.00">ece555ffd650</text>
</g>
<!-- ece555ffd650&#45;&#45;ece555ffd61e -->
<g id="edge12" class="edge"><title>ece555ffd650&#45;&#45;ece555ffd61e</title>
<path fill="none" stroke="grey" stroke-width="2.28358" stroke-dasharray="1,5" d="M1803.47,-143.831C1801.36,-133 1798.69,-119.288 1796.58,-108.413"/>
</g>
<!-- ece555748695 -->
<g id="node35" class="node"><title>ece555748695</title>
<ellipse fill="none" stroke="black" cx="1950" cy="-90" rx="84.0808" ry="18"/>
<text text-anchor="middle" x="1950" y="-85.9" font-family="Times Roman,serif" font-size="14.00">ece555748695</text>
</g>
<!-- ece555ffd650&#45;&#45;ece555748695 -->
<g id="edge14" class="edge"><title>ece555ffd650&#45;&#45;ece555748695</title>
<path fill="none" stroke="black" stroke-width="2" d="M1843.08,-143.831C1865.76,-132.417 1894.78,-117.802 1916.87,-106.682"/>
</g>
<!-- 00a0571c363f -->
<g id="node4" class="node"><title>00a0571c363f</title>
<polygon fill="none" stroke="black" points="224,-180 108,-180 108,-144 224,-144 224,-180"/>
<text text-anchor="middle" x="166" y="-157.9" font-family="Times Roman,serif" font-size="14.00">00a0571c363f</text>
</g>
<!-- 00a0571d6865 -->
<g id="node13" class="node"><title>00a0571d6865</title>
<ellipse fill="none" stroke="black" cx="85" cy="-90" rx="84.9707" ry="18"/>
<text text-anchor="middle" x="85" y="-85.9" font-family="Times Roman,serif" font-size="14.00">00a0571d6865</text>
</g>
<!-- 00a0571c363f&#45;&#45;00a0571d6865 -->
<g id="edge18" class="edge"><title>00a0571c363f&#45;&#45;00a0571d6865</title>
<path fill="none" stroke="black" stroke-width="2" d="M145.56,-143.831C133.094,-132.75 117.235,-118.653 104.873,-107.665"/>
</g>
<!-- 00a0571c2b52 -->
<g id="node15" class="node"><title>00a0571c2b52</title>
<polygon fill="none" stroke="black" points="308,-108 188,-108 188,-72 308,-72 308,-108"/>
<text text-anchor="middle" x="248" y="-85.9" font-family="Times Roman,serif" font-size="14.00">00a0571c2b52</text>
</g>
<!-- 00a0571c363f&#45;&#45;00a0571c2b52 -->
<g id="edge16" class="edge"><title>00a0571c363f&#45;&#45;00a0571c2b52</title>
<path fill="none" stroke="grey" stroke-width="3.91525" stroke-dasharray="1,5" d="M186.692,-143.831C199.123,-132.917 214.885,-119.076 227.315,-108.163"/>
</g>
<!-- ece555ffd5da -->
<g id="node5" class="node"><title>ece555ffd5da</title>
<polygon fill="none" stroke="black" points="1720,-108 1610,-108 1610,-72 1720,-72 1720,-108"/>
<text text-anchor="middle" x="1665" y="-85.9" font-family="Times Roman,serif" font-size="14.00">ece555ffd5da</text>
</g>
<!-- ece55571dcd0 -->
<g id="node22" class="node"><title>ece55571dcd0</title>
<ellipse fill="none" stroke="black" cx="1601" cy="-18" rx="80.8024" ry="18"/>
<text text-anchor="middle" x="1601" y="-13.9" font-family="Times Roman,serif" font-size="14.00">ece55571dcd0</text>
</g>
<!-- ece555ffd5da&#45;&#45;ece55571dcd0 -->
<g id="edge20" class="edge"><title>ece555ffd5da&#45;&#45;ece55571dcd0</title>
<path fill="none" stroke="black" stroke-width="2" d="M1648.85,-71.8314C1639.07,-60.8334 1626.66,-46.865 1616.92,-35.9134"/>
</g>
<!-- ece555ffd5bf -->
<g id="node6" class="node"><title>ece555ffd5bf</title>
<polygon fill="none" stroke="black" points="1312,-180 1206,-180 1206,-144 1312,-144 1312,-180"/>
<text text-anchor="middle" x="1259" y="-157.9" font-family="Times Roman,serif" font-size="14.00">ece555ffd5bf</text>
</g>
<!-- ece55571dca0 -->
<g id="node10" class="node"><title>ece55571dca0</title>
<ellipse fill="none" stroke="black" cx="1259" cy="-90" rx="80.8024" ry="18"/>
<text text-anchor="middle" x="1259" y="-85.9" font-family="Times Roman,serif" font-size="14.00">ece55571dca0</text>
</g>
<!-- ece555ffd5bf&#45;&#45;ece55571dca0 -->
<g id="edge22" class="edge"><title>ece555ffd5bf&#45;&#45;ece55571dca0</title>
<path fill="none" stroke="black" stroke-width="2" d="M1259,-143.831C1259,-133 1259,-119.288 1259,-108.413"/>
</g>
<!-- 00a0571c3501 -->
<g id="node7" class="node"><title>00a0571c3501</title>
<polygon fill="none" stroke="black" points="2198,-324 2076,-324 2076,-288 2198,-288 2198,-324"/>
<text text-anchor="middle" x="2137" y="-301.9" font-family="Times Roman,serif" font-size="14.00">00a0571c3501</text>
</g>
<!-- 00a0571d6864 -->
<g id="node12" class="node"><title>00a0571d6864</title>
<ellipse fill="none" stroke="black" cx="2112" cy="-234" rx="84.9707" ry="18"/>
<text text-anchor="middle" x="2112" y="-229.9" font-family="Times Roman,serif" font-size="14.00">00a0571d6864</text>
</g>
<!-- 00a0571c3501&#45;&#45;00a0571d6864 -->
<g id="edge24" class="edge"><title>00a0571c3501&#45;&#45;00a0571d6864</title>
<path fill="none" stroke="black" stroke-width="2" d="M2130.69,-287.831C2126.93,-277 2122.17,-263.288 2118.39,-252.413"/>
</g>
<!-- 00a0571c3641 -->
<g id="node8" class="node"><title>00a0571c3641</title>
<polygon fill="none" stroke="black" points="2058,-324 1936,-324 1936,-288 2058,-288 2058,-324"/>
<text text-anchor="middle" x="1997" y="-301.9" font-family="Times Roman,serif" font-size="14.00">00a0571c3641</text>
</g>
<!-- 00a0571c3641&#45;&#45;00a0571d6864 -->
<g id="edge28" class="edge"><title>00a0571c3641&#45;&#45;00a0571d6864</title>
<path fill="none" stroke="black" stroke-width="2" d="M2026.02,-287.831C2043.98,-276.583 2066.91,-262.229 2084.57,-251.171"/>
</g>
<!-- 00a0571c2c0d -->
<g id="node21" class="node"><title>00a0571c2c0d</title>
<polygon fill="none" stroke="black" points="2009,-252 1891,-252 1891,-216 2009,-216 2009,-252"/>
<text text-anchor="middle" x="1950" y="-229.9" font-family="Times Roman,serif" font-size="14.00">00a0571c2c0d</text>
</g>
<!-- 00a0571c3641&#45;&#45;00a0571c2c0d -->
<g id="edge26" class="edge"><title>00a0571c3641&#45;&#45;00a0571c2c0d</title>
<path fill="none" stroke="grey" stroke-width="4.38462" stroke-dasharray="1,5" d="M1985.14,-287.831C1978.07,-277 1969.12,-263.288 1962.02,-252.413"/>
</g>
<!-- 00a0571c373e -->
<g id="node9" class="node"><title>00a0571c373e</title>
<polygon fill="none" stroke="black" points="2360,-324 2240,-324 2240,-288 2360,-288 2360,-324"/>
<text text-anchor="middle" x="2300" y="-301.9" font-family="Times Roman,serif" font-size="14.00">00a0571c373e</text>
</g>
<!-- 00a0571d6867 -->
<g id="node14" class="node"><title>00a0571d6867</title>
<ellipse fill="none" stroke="black" cx="2300" cy="-234" rx="84.9707" ry="18"/>
<text text-anchor="middle" x="2300" y="-229.9" font-family="Times Roman,serif" font-size="14.00">00a0571d6867</text>
</g>
<!-- 00a0571c373e&#45;&#45;00a0571d6867 -->
<g id="edge30" class="edge"><title>00a0571c373e&#45;&#45;00a0571d6867</title>
<path fill="none" stroke="black" stroke-width="2" d="M2300,-287.831C2300,-277 2300,-263.288 2300,-252.413"/>
</g>
<!-- ece55571dca0&#45;&#45;ece555ffd5af -->
<g id="edge32" class="edge"><title>ece55571dca0&#45;&#45;ece555ffd5af</title>
<path fill="none" stroke="black" stroke-width="2" d="M1277.79,-72.2022C1289.39,-61.2085 1304.24,-47.1413 1315.9,-36.0931"/>
</g>
<!-- ece555ffd5c1 -->
<g id="node11" class="node"><title>ece555ffd5c1</title>
<polygon fill="none" stroke="black" points="1592,-108 1482,-108 1482,-72 1592,-72 1592,-108"/>
<text text-anchor="middle" x="1537" y="-85.9" font-family="Times Roman,serif" font-size="14.00">ece555ffd5c1</text>
</g>
<!-- ece555ffd5c1&#45;&#45;ece55571dcd0 -->
<g id="edge36" class="edge"><title>ece555ffd5c1&#45;&#45;ece55571dcd0</title>
<path fill="none" stroke="black" stroke-width="2" d="M1553.15,-71.8314C1562.93,-60.8334 1575.34,-46.865 1585.08,-35.9134"/>
</g>
<!-- ece555ffd5c1&#45;&#45;ece555ffd5af -->
<g id="edge34" class="edge"><title>ece555ffd5c1&#45;&#45;ece555ffd5af</title>
<path fill="none" stroke="grey" stroke-width="4.40816" stroke-dasharray="1,5" d="M1486.29,-71.9243C1455.55,-60.9688 1416.47,-47.04 1385.73,-36.0831"/>
</g>
<!-- 00a0571c3511 -->
<g id="node24" class="node"><title>00a0571c3511</title>
<polygon fill="none" stroke="black" points="146,-36 24,-36 24,-1.06581e-14 146,-0 146,-36"/>
<text text-anchor="middle" x="85" y="-13.9" font-family="Times Roman,serif" font-size="14.00">00a0571c3511</text>
</g>
<!-- 00a0571d6865&#45;&#45;00a0571c3511 -->
<g id="edge38" class="edge"><title>00a0571d6865&#45;&#45;00a0571c3511</title>
<path fill="none" stroke="black" stroke-width="2" d="M85,-71.8314C85,-61 85,-47.2876 85,-36.4133"/>
</g>
<!-- 00a0571c3732 -->
<g id="node36" class="node"><title>00a0571c3732</title>
<polygon fill="none" stroke="black" points="2253,-180 2131,-180 2131,-144 2253,-144 2253,-180"/>
<text text-anchor="middle" x="2192" y="-157.9" font-family="Times Roman,serif" font-size="14.00">00a0571c3732</text>
</g>
<!-- 00a0571d6867&#45;&#45;00a0571c3732 -->
<g id="edge40" class="edge"><title>00a0571d6867&#45;&#45;00a0571c3732</title>
<path fill="none" stroke="black" stroke-width="2" d="M2274.13,-216.754C2257.53,-205.688 2236.01,-191.341 2219.16,-180.11"/>
</g>
<!-- 00a0571c2b52&#45;&#45;00a0571da017 -->
<g id="edge42" class="edge"><title>00a0571c2b52&#45;&#45;00a0571da017</title>
<path fill="none" stroke="black" stroke-width="2" d="M256.832,-71.8314C262.178,-60.8334 268.968,-46.865 274.292,-35.9134"/>
</g>
<!-- 00a0571c2c44 -->
<g id="node16" class="node"><title>00a0571c2c44</title>
<polygon fill="none" stroke="black" points="1892,-396 1774,-396 1774,-360 1892,-360 1892,-396"/>
<text text-anchor="middle" x="1833" y="-373.9" font-family="Times Roman,serif" font-size="14.00">00a0571c2c44</text>
</g>
<!-- 00a0571da012 -->
<g id="node17" class="node"><title>00a0571da012</title>
<ellipse fill="none" stroke="black" cx="1833" cy="-306" rx="84.7756" ry="18"/>
<text text-anchor="middle" x="1833" y="-301.9" font-family="Times Roman,serif" font-size="14.00">00a0571da012</text>
</g>
<!-- 00a0571c2c44&#45;&#45;00a0571da012 -->
<g id="edge44" class="edge"><title>00a0571c2c44&#45;&#45;00a0571da012</title>
<path fill="none" stroke="black" stroke-width="2" d="M1833,-359.831C1833,-349 1833,-335.288 1833,-324.413"/>
</g>
<!-- 00a0571da012&#45;&#45;00a0571c2c0d -->
<g id="edge46" class="edge"><title>00a0571da012&#45;&#45;00a0571c2c0d</title>
<path fill="none" stroke="black" stroke-width="2" d="M1860.73,-288.937C1878.7,-277.875 1902.1,-263.479 1920.43,-252.199"/>
</g>
<!-- ece55571dd00 -->
<g id="node19" class="node"><title>ece55571dd00</title>
<ellipse fill="none" stroke="black" cx="825" cy="-162" rx="82.1898" ry="18"/>
<text text-anchor="middle" x="825" y="-157.9" font-family="Times Roman,serif" font-size="14.00">ece55571dd00</text>
</g>
<!-- ece555ffd5d6 -->
<g id="node29" class="node"><title>ece555ffd5d6</title>
<polygon fill="none" stroke="black" points="880,-108 770,-108 770,-72 880,-72 880,-108"/>
<text text-anchor="middle" x="825" y="-85.9" font-family="Times Roman,serif" font-size="14.00">ece555ffd5d6</text>
</g>
<!-- ece55571dd00&#45;&#45;ece555ffd5d6 -->
<g id="edge50" class="edge"><title>ece55571dd00&#45;&#45;ece555ffd5d6</title>
<path fill="none" stroke="black" stroke-width="2" d="M825,-143.831C825,-133 825,-119.288 825,-108.413"/>
</g>
<!-- ece555ffd5b9 -->
<g id="node33" class="node"><title>ece555ffd5b9</title>
<polygon fill="none" stroke="black" points="752,-108 642,-108 642,-72 752,-72 752,-108"/>
<text text-anchor="middle" x="697" y="-85.9" font-family="Times Roman,serif" font-size="14.00">ece555ffd5b9</text>
</g>
<!-- ece55571dd00&#45;&#45;ece555ffd5b9 -->
<g id="edge48" class="edge"><title>ece55571dd00&#45;&#45;ece555ffd5b9</title>
<path fill="none" stroke="black" stroke-width="2" d="M794.99,-145.119C775.187,-133.98 749.267,-119.4 729.06,-108.034"/>
</g>
<!-- ece555ffd63a -->
<g id="node25" class="node"><title>ece555ffd63a</title>
<polygon fill="none" stroke="black" points="2005,-180 1895,-180 1895,-144 2005,-144 2005,-180"/>
<text text-anchor="middle" x="1950" y="-157.9" font-family="Times Roman,serif" font-size="14.00">ece555ffd63a</text>
</g>
<!-- 00a0571c2c0d&#45;&#45;ece555ffd63a -->
<g id="edge54" class="edge"><title>00a0571c2c0d&#45;&#45;ece555ffd63a</title>
<path fill="none" stroke="grey" stroke-width="4.36082" stroke-dasharray="1,5" d="M1950,-215.831C1950,-205 1950,-191.288 1950,-180.413"/>
</g>
<!-- 00a0571c2c0d&#45;&#45;00a0571c3732 -->
<g id="edge52" class="edge"><title>00a0571c2c0d&#45;&#45;00a0571c3732</title>
<path fill="none" stroke="grey" stroke-width="4.1087" stroke-dasharray="1,5" d="M2009.2,-216.387C2046.28,-205.354 2093.95,-191.173 2131.31,-180.057"/>
</g>
<!-- ece555ffd642 -->
<g id="node23" class="node"><title>ece555ffd642</title>
<polygon fill="none" stroke="black" points="725,-180 613,-180 613,-144 725,-144 725,-180"/>
<text text-anchor="middle" x="669" y="-157.9" font-family="Times Roman,serif" font-size="14.00">ece555ffd642</text>
</g>
<!-- ece55574a4a5 -->
<g id="node26" class="node"><title>ece55574a4a5</title>
<ellipse fill="none" stroke="black" cx="542" cy="-90" rx="82.1898" ry="18"/>
<text text-anchor="middle" x="542" y="-85.9" font-family="Times Roman,serif" font-size="14.00">ece55574a4a5</text>
</g>
<!-- ece555ffd642&#45;&#45;ece55574a4a5 -->
<g id="edge60" class="edge"><title>ece555ffd642&#45;&#45;ece55574a4a5</title>
<path fill="none" stroke="black" stroke-width="2" d="M636.953,-143.831C616.965,-132.5 591.417,-118.016 571.856,-106.926"/>
</g>
<!-- ece555ffd642&#45;&#45;ece555ffd5b9 -->
<g id="edge56" class="edge"><title>ece555ffd642&#45;&#45;ece555ffd5b9</title>
<path fill="none" stroke="grey" stroke-width="2.52518" stroke-dasharray="1,5" d="M676.066,-143.831C680.278,-133 685.61,-119.288 689.839,-108.413"/>
</g>
<!-- 00a0571de372 -->
<g id="node34" class="node"><title>00a0571de372</title>
<polygon fill="none" stroke="black" points="1020,-108 898,-108 898,-72 1020,-72 1020,-108"/>
<text text-anchor="middle" x="959" y="-85.9" font-family="Times Roman,serif" font-size="14.00">00a0571de372</text>
</g>
<!-- ece555ffd642&#45;&#45;00a0571de372 -->
<g id="edge58" class="edge"><title>ece555ffd642&#45;&#45;00a0571de372</title>
<path fill="none" stroke="grey" stroke-width="4.33679" stroke-dasharray="1,5" d="M725.332,-146.245C728.26,-145.475 731.163,-144.722 734,-144 802.538,-126.559 820.304,-124.808 889,-108 891.925,-107.284 894.917,-106.545 897.938,-105.792"/>
</g>
<!-- ece555ffd63a&#45;&#45;ece555748695 -->
<g id="edge62" class="edge"><title>ece555ffd63a&#45;&#45;ece555748695</title>
<path fill="none" stroke="black" stroke-width="2" d="M1950,-143.831C1950,-133 1950,-119.288 1950,-108.413"/>
</g>
<!-- ece55574a4a5&#45;&#45;ece555ffd667 -->
<g id="edge64" class="edge"><title>ece55574a4a5&#45;&#45;ece555ffd667</title>
<path fill="none" stroke="black" stroke-width="2" d="M525.438,-72.2022C515.208,-61.2085 502.118,-47.1413 491.837,-36.0931"/>
</g>
<!-- 00a0571da270 -->
<g id="node27" class="node"><title>00a0571da270</title>
<ellipse fill="none" stroke="black" cx="1054" cy="-162" rx="84.7756" ry="18"/>
<text text-anchor="middle" x="1054" y="-157.9" font-family="Times Roman,serif" font-size="14.00">00a0571da270</text>
</g>
<!-- 00a0571de370 -->
<g id="node32" class="node"><title>00a0571de370</title>
<polygon fill="none" stroke="black" points="1160,-108 1038,-108 1038,-72 1160,-72 1160,-108"/>
<text text-anchor="middle" x="1099" y="-85.9" font-family="Times Roman,serif" font-size="14.00">00a0571de370</text>
</g>
<!-- 00a0571da270&#45;&#45;00a0571de370 -->
<g id="edge66" class="edge"><title>00a0571da270&#45;&#45;00a0571de370</title>
<path fill="none" stroke="black" stroke-width="2" d="M1065.36,-143.831C1072.12,-133 1080.7,-119.288 1087.49,-108.413"/>
</g>
<!-- 00a0571da270&#45;&#45;00a0571de372 -->
<g id="edge68" class="edge"><title>00a0571da270&#45;&#45;00a0571de372</title>
<path fill="none" stroke="black" stroke-width="2" d="M1031,-144.571C1016.4,-133.5 997.532,-119.203 982.777,-108.021"/>
</g>
<!-- ece555ffd6cc&#45;&#45;ece555ffd5af -->
<g id="edge70" class="edge"><title>ece555ffd6cc&#45;&#45;ece555ffd5af</title>
<path fill="none" stroke="grey" stroke-width="4.2381" stroke-dasharray="1,5" d="M1391.82,-71.8314C1380.3,-60.9167 1365.69,-47.0764 1354.17,-36.1628"/>
</g>
</g>
</svg>
