<?xml version="1.0" encoding="UTF-8" standalone="no"?>
<!DOCTYPE svg PUBLIC "-//W3C//DTD SVG 1.1//EN"
 "http://www.w3.org/Graphics/SVG/1.1/DTD/svg11.dtd">
<!-- Generated by graphviz version 2.26.3 (20100126.1600)
 -->
<!-- Title: G Pages: 1 -->
<svg width="1241pt" height="404pt"
 viewBox="0.00 0.00 1241.00 404.00" xmlns="http://www.w3.org/2000/svg" xmlns:xlink="http://www.w3.org/1999/xlink">
<g id="graph1" class="graph" transform="scale(1 1) rotate(0) translate(4 400)">
<title>G</title>
<polygon fill="white" stroke="white" points="-4,5 -4,-400 1238,-400 1238,5 -4,5"/>
<!-- ece555ffd650 -->
<g id="node1" class="node"><title>ece555ffd650</title>
<ellipse fill="none" stroke="black" cx="260" cy="-234" rx="77.8268" ry="18"/>
<text text-anchor="middle" x="260" y="-229.9" font-family="Times Roman,serif" font-size="14.00">ece555ffd650</text>
</g>
<!-- ece555ffd5b9 -->
<g id="node3" class="node"><title>ece555ffd5b9</title>
<ellipse fill="none" stroke="black" cx="82" cy="-162" rx="77.1319" ry="18"/>
<text text-anchor="middle" x="82" y="-157.9" font-family="Times Roman,serif" font-size="14.00">ece555ffd5b9</text>
</g>
<!-- ece555ffd650&#45;&#45;ece555ffd5b9 -->
<g id="edge2" class="edge"><title>ece555ffd650&#45;&#45;ece555ffd5b9</title>
<path fill="none" stroke="black" stroke-width="3.26752" stroke-dasharray="1,5" d="M220.937,-218.199C191.157,-206.153 150.347,-189.646 120.665,-177.64"/>
</g>
<!-- ece555748695 -->
<g id="node5" class="node"><title>ece555748695</title>
<ellipse fill="none" stroke="black" cx="607" cy="-162" rx="84.0808" ry="18"/>
<text text-anchor="middle" x="607" y="-157.9" font-family="Times Roman,serif" font-size="14.00">ece555748695</text>
</g>
<!-- ece555ffd650&#45;&#45;ece555748695 -->
<g id="edge4" class="edge"><title>ece555ffd650&#45;&#45;ece555748695</title>
<path fill="none" stroke="black" stroke-width="9" stroke-dasharray="1,5" d="M318.08,-221.949C381.362,-208.818 482.137,-187.908 546.396,-174.575"/>
</g>
<!-- ece555ffd667 -->
<g id="node7" class="node"><title>ece555ffd667</title>
<ellipse fill="none" stroke="black" cx="255" cy="-162" rx="77.8268" ry="18"/>
<text text-anchor="middle" x="255" y="-157.9" font-family="Times Roman,serif" font-size="14.00">ece555ffd667</text>
</g>
<!-- ece555ffd650&#45;&#45;ece555ffd667 -->
<g id="edge6" class="edge"><title>ece555ffd650&#45;&#45;ece555ffd667</title>
<path fill="none" stroke="black" stroke-width="3.26752" stroke-dasharray="1,5" d="M258.738,-215.831C257.986,-205 257.034,-191.288 256.279,-180.413"/>
</g>
<!-- ece55574a4a5 -->
<g id="node37" class="node"><title>ece55574a4a5</title>
<ellipse fill="none" stroke="black" cx="432" cy="-90" rx="82.1898" ry="18"/>
<text text-anchor="middle" x="432" y="-85.9" font-family="Times Roman,serif" font-size="14.00">ece55574a4a5</text>
</g>
<!-- ece555ffd667&#45;&#45;ece55574a4a5 -->
<g id="edge38" class="edge"><title>ece555ffd667&#45;&#45;ece55574a4a5</title>
<path fill="none" stroke="black" stroke-width="9" stroke-dasharray="1,5" d="M293.843,-146.199C323.253,-134.236 363.48,-117.873 392.942,-105.888"/>
</g>
<!-- ece55571dcd0 -->
<g id="node8" class="node"><title>ece55571dcd0</title>
<ellipse fill="none" stroke="black" cx="659" cy="-378" rx="80.8024" ry="18"/>
<text text-anchor="middle" x="659" y="-373.9" font-family="Times Roman,serif" font-size="14.00">ece55571dcd0</text>
</g>
<!-- ece555ffd5c1 -->
<g id="node10" class="node"><title>ece555ffd5c1</title>
<ellipse fill="none" stroke="black" cx="744" cy="-306" rx="75.9375" ry="18"/>
<text text-anchor="middle" x="744" y="-301.9" font-family="Times Roman,serif" font-size="14.00">ece555ffd5c1</text>
</g>
<!-- ece55571dcd0&#45;&#45;ece555ffd5c1 -->
<g id="edge8" class="edge"><title>ece55571dcd0&#45;&#45;ece555ffd5c1</title>
<path fill="none" stroke="black" stroke-width="9" stroke-dasharray="1,5" d="M679.576,-360.571C692.842,-349.334 710.032,-334.773 723.319,-323.518"/>
</g>
<!-- ece555ffd5da -->
<g id="node12" class="node"><title>ece555ffd5da</title>
<ellipse fill="none" stroke="black" cx="574" cy="-306" rx="75.9375" ry="18"/>
<text text-anchor="middle" x="574" y="-301.9" font-family="Times Roman,serif" font-size="14.00">ece555ffd5da</text>
</g>
<!-- ece55571dcd0&#45;&#45;ece555ffd5da -->
<g id="edge10" class="edge"><title>ece55571dcd0&#45;&#45;ece555ffd5da</title>
<path fill="none" stroke="black" stroke-width="9" stroke-dasharray="1,5" d="M638.424,-360.571C625.158,-349.334 607.968,-334.773 594.681,-323.518"/>
</g>
<!-- ece555ffd63a -->
<g id="node14" class="node"><title>ece555ffd63a</title>
<ellipse fill="none" stroke="black" cx="663" cy="-234" rx="77.1319" ry="18"/>
<text text-anchor="middle" x="663" y="-229.9" font-family="Times Roman,serif" font-size="14.00">ece555ffd63a</text>
</g>
<!-- ece555ffd5da&#45;&#45;ece555ffd63a -->
<g id="edge12" class="edge"><title>ece555ffd5da&#45;&#45;ece555ffd63a</title>
<path fill="none" stroke="green" stroke-width="3.97207" d="M595.544,-288.571C609.435,-277.334 627.434,-262.773 641.346,-251.518"/>
</g>
<!-- ece555ffd63a&#45;&#45;ece555748695 -->
<g id="edge26" class="edge"><title>ece555ffd63a&#45;&#45;ece555748695</title>
<path fill="none" stroke="black" stroke-width="9" stroke-dasharray="1,5" d="M649.157,-216.202C640.542,-205.125 629.5,-190.928 620.878,-179.843"/>
</g>
<!-- ece555ffd5d6 -->
<g id="node20" class="node"><title>ece555ffd5d6</title>
<ellipse fill="none" stroke="black" cx="428" cy="-162" rx="77.1319" ry="18"/>
<text text-anchor="middle" x="428" y="-157.9" font-family="Times Roman,serif" font-size="14.00">ece555ffd5d6</text>
</g>
<!-- ece555ffd63a&#45;&#45;ece555ffd5d6 -->
<g id="edge18" class="edge"><title>ece555ffd63a&#45;&#45;ece555ffd5d6</title>
<path fill="none" stroke="green" stroke-width="4.33679" d="M616.291,-219.689C575.331,-207.14 516.075,-188.985 475.023,-176.407"/>
</g>
<!-- ece555ffd6cc -->
<g id="node22" class="node"><title>ece555ffd6cc</title>
<ellipse fill="none" stroke="black" cx="987" cy="-162" rx="73.8534" ry="18"/>
<text text-anchor="middle" x="987" y="-157.9" font-family="Times Roman,serif" font-size="14.00">ece555ffd6cc</text>
</g>
<!-- ece555ffd63a&#45;&#45;ece555ffd6cc -->
<g id="edge20" class="edge"><title>ece555ffd63a&#45;&#45;ece555ffd6cc</title>
<path fill="none" stroke="green" stroke-width="2.18182" d="M719.067,-221.541C778.836,-208.259 872.864,-187.364 932.16,-174.187"/>
</g>
<!-- ece555ffd5af -->
<g id="node24" class="node"><title>ece555ffd5af</title>
<ellipse fill="none" stroke="black" cx="821" cy="-162" rx="73.8534" ry="18"/>
<text text-anchor="middle" x="821" y="-157.9" font-family="Times Roman,serif" font-size="14.00">ece555ffd5af</text>
</g>
<!-- ece555ffd63a&#45;&#45;ece555ffd5af -->
<g id="edge22" class="edge"><title>ece555ffd63a&#45;&#45;ece555ffd5af</title>
<path fill="none" stroke="green" stroke-width="3.54545" d="M698.458,-217.842C724.571,-205.943 759.913,-189.837 785.932,-177.98"/>
</g>
<!-- ece555ffd642 -->
<g id="node26" class="node"><title>ece555ffd642</title>
<ellipse fill="none" stroke="black" cx="575" cy="-18" rx="77.8268" ry="18"/>
<text text-anchor="middle" x="575" y="-13.9" font-family="Times Roman,serif" font-size="14.00">ece555ffd642</text>
</g>
<!-- ece555ffd63a&#45;&#45;ece555ffd642 -->
<g id="edge24" class="edge"><title>ece555ffd63a&#45;&#45;ece555ffd642</title>
<path fill="none" stroke="green" stroke-width="3.23077" d="M679.428,-215.989C687.303,-206.129 695.898,-193.244 700,-180 704.734,-164.716 706.093,-158.794 700,-144 680.168,-95.8497 632.044,-56.3612 601.626,-35.0825"/>
</g>
<!-- ece555ffd5bf -->
<g id="node15" class="node"><title>ece555ffd5bf</title>
<ellipse fill="none" stroke="black" cx="875" cy="-378" rx="73.8534" ry="18"/>
<text text-anchor="middle" x="875" y="-373.9" font-family="Times Roman,serif" font-size="14.00">ece555ffd5bf</text>
</g>
<!-- ece555ffd5bf&#45;&#45;ece555ffd5c1 -->
<g id="edge14" class="edge"><title>ece555ffd5bf&#45;&#45;ece555ffd5c1</title>
<path fill="none" stroke="black" stroke-width="3.33962" stroke-dasharray="1,5" d="M844.946,-361.482C823.795,-349.857 795.588,-334.354 774.368,-322.691"/>
</g>
<!-- ece55571dca0 -->
<g id="node18" class="node"><title>ece55571dca0</title>
<ellipse fill="none" stroke="black" cx="919" cy="-306" rx="80.8024" ry="18"/>
<text text-anchor="middle" x="919" y="-301.9" font-family="Times Roman,serif" font-size="14.00">ece55571dca0</text>
</g>
<!-- ece555ffd5bf&#45;&#45;ece55571dca0 -->
<g id="edge16" class="edge"><title>ece555ffd5bf&#45;&#45;ece55571dca0</title>
<path fill="none" stroke="black" stroke-width="9" stroke-dasharray="1,5" d="M886.103,-359.831C892.824,-348.833 901.36,-334.865 908.053,-323.913"/>
</g>
<!-- ece55571dca0&#45;&#45;ece555ffd5af -->
<g id="edge28" class="edge"><title>ece55571dca0&#45;&#45;ece555ffd5af</title>
<path fill="none" stroke="black" stroke-width="9" stroke-dasharray="1,5" d="M906.786,-288.053C888.007,-260.459 852.239,-207.903 833.368,-180.173"/>
</g>
<!-- ece55574a4d5 -->
<g id="node29" class="node"><title>ece55574a4d5</title>
<ellipse fill="none" stroke="black" cx="1071" cy="-234" rx="82.1898" ry="18"/>
<text text-anchor="middle" x="1071" y="-229.9" font-family="Times Roman,serif" font-size="14.00">ece55574a4d5</text>
</g>
<!-- ece55574a4d5&#45;&#45;ece555ffd6cc -->
<g id="edge32" class="edge"><title>ece55574a4d5&#45;&#45;ece555ffd6cc</title>
<path fill="none" stroke="black" stroke-width="9" stroke-dasharray="1,5" d="M1050.24,-216.202C1037.12,-204.959 1020.25,-190.5 1007.24,-179.345"/>
</g>
<!-- ece555ffd61e -->
<g id="node31" class="node"><title>ece555ffd61e</title>
<ellipse fill="none" stroke="black" cx="1156" cy="-162" rx="77.1319" ry="18"/>
<text text-anchor="middle" x="1156" y="-157.9" font-family="Times Roman,serif" font-size="14.00">ece555ffd61e</text>
</g>
<!-- ece55574a4d5&#45;&#45;ece555ffd61e -->
<g id="edge30" class="edge"><title>ece55574a4d5&#45;&#45;ece555ffd61e</title>
<path fill="none" stroke="black" stroke-width="9" stroke-dasharray="1,5" d="M1091.58,-216.571C1104.84,-205.334 1122.03,-190.773 1135.32,-179.518"/>
</g>
<!-- ece55571dd00 -->
<g id="node33" class="node"><title>ece55571dd00</title>
<ellipse fill="none" stroke="black" cx="82" cy="-234" rx="82.1898" ry="18"/>
<text text-anchor="middle" x="82" y="-229.9" font-family="Times Roman,serif" font-size="14.00">ece55571dd00</text>
</g>
<!-- ece55571dd00&#45;&#45;ece555ffd5b9 -->
<g id="edge34" class="edge"><title>ece55571dd00&#45;&#45;ece555ffd5b9</title>
<path fill="none" stroke="black" stroke-width="9" stroke-dasharray="1,5" d="M82,-215.831C82,-205 82,-191.288 82,-180.413"/>
</g>
<!-- ece55571dd00&#45;&#45;ece555ffd5d6 -->
<g id="edge36" class="edge"><title>ece55571dd00&#45;&#45;ece555ffd5d6</title>
<path fill="none" stroke="black" stroke-width="9" stroke-dasharray="1,5" d="M141.641,-221.64C194.343,-210.712 273.287,-194.326 342,-180 351.258,-178.07 361.077,-176.019 370.64,-174.018"/>
</g>
<!-- ece55574a4a5&#45;&#45;ece555ffd642 -->
<g id="edge40" class="edge"><title>ece55574a4a5&#45;&#45;ece555ffd642</title>
<path fill="none" stroke="black" stroke-width="9" stroke-dasharray="1,5" d="M464.807,-73.4817C488.06,-61.7739 519.127,-46.132 542.346,-34.4414"/>
</g>
</g>
</svg>
