<?xml version="1.0" encoding="UTF-8" standalone="no"?>
<!DOCTYPE svg PUBLIC "-//W3C//DTD SVG 1.1//EN"
 "http://www.w3.org/Graphics/SVG/1.1/DTD/svg11.dtd">
<!-- Generated by graphviz version 2.26.3 (20100126.1600)
 -->
<!-- Title: G Pages: 1 -->
<svg width="2196pt" height="476pt"
 viewBox="0.00 0.00 2196.00 476.00" xmlns="http://www.w3.org/2000/svg" xmlns:xlink="http://www.w3.org/1999/xlink">
<g id="graph1" class="graph" transform="scale(1 1) rotate(0) translate(4 472)">
<title>G</title>
<polygon fill="white" stroke="white" points="-4,5 -4,-472 2193,-472 2193,5 -4,5"/>
<!-- 00a0571c2f85 -->
<g id="node1" class="node"><title>00a0571c2f85</title>
<polygon fill="none" stroke="black" points="508,-468 392,-468 392,-432 508,-432 508,-468"/>
<text text-anchor="middle" x="450" y="-445.9" font-family="Times Roman,serif" font-size="14.00">00a0571c2f85</text>
</g>
<!-- ece555ffd5da -->
<g id="node5" class="node"><title>ece555ffd5da</title>
<polygon fill="none" stroke="black" points="426,-396 316,-396 316,-360 426,-360 426,-396"/>
<text text-anchor="middle" x="371" y="-373.9" font-family="Times Roman,serif" font-size="14.00">ece555ffd5da</text>
</g>
<!-- 00a0571c2f85&#45;&#45;ece555ffd5da -->
<g id="edge2" class="edge"><title>00a0571c2f85&#45;&#45;ece555ffd5da</title>
<path fill="none" stroke="orange" stroke-width="5" stroke-dasharray="1,5" d="M430.065,-431.831C418.089,-420.917 402.903,-407.076 390.929,-396.163"/>
</g>
<!-- 00a0571da017 -->
<g id="node18" class="node"><title>00a0571da017</title>
<ellipse fill="none" stroke="black" cx="529" cy="-378" rx="84.7756" ry="18"/>
<text text-anchor="middle" x="529" y="-373.9" font-family="Times Roman,serif" font-size="14.00">00a0571da017</text>
</g>
<!-- 00a0571c2f85&#45;&#45;00a0571da017 -->
<g id="edge4" class="edge"><title>00a0571c2f85&#45;&#45;00a0571da017</title>
<path fill="none" stroke="black" stroke-width="2" d="M469.935,-431.831C482.094,-420.75 497.561,-406.653 509.618,-395.665"/>
</g>
<!-- ece55574a4d5 -->
<g id="node2" class="node"><title>ece55574a4d5</title>
<ellipse fill="none" stroke="black" cx="994" cy="-378" rx="82.1898" ry="18"/>
<text text-anchor="middle" x="994" y="-373.9" font-family="Times Roman,serif" font-size="14.00">ece55574a4d5</text>
</g>
<!-- ece555ffd6cc -->
<g id="node30" class="node"><title>ece555ffd6cc</title>
<polygon fill="none" stroke="black" points="915,-324 809,-324 809,-288 915,-288 915,-324"/>
<text text-anchor="middle" x="862" y="-301.9" font-family="Times Roman,serif" font-size="14.00">ece555ffd6cc</text>
</g>
<!-- ece55574a4d5&#45;&#45;ece555ffd6cc -->
<g id="edge8" class="edge"><title>ece55574a4d5&#45;&#45;ece555ffd6cc</title>
<path fill="none" stroke="black" stroke-width="2" d="M963.385,-361.301C942.974,-350.168 916.152,-335.538 895.224,-324.122"/>
</g>
<!-- ece555ffd61e -->
<g id="node31" class="node"><title>ece555ffd61e</title>
<polygon fill="none" stroke="black" points="1048,-324 938,-324 938,-288 1048,-288 1048,-324"/>
<text text-anchor="middle" x="993" y="-301.9" font-family="Times Roman,serif" font-size="14.00">ece555ffd61e</text>
</g>
<!-- ece55574a4d5&#45;&#45;ece555ffd61e -->
<g id="edge6" class="edge"><title>ece55574a4d5&#45;&#45;ece555ffd61e</title>
<path fill="none" stroke="black" stroke-width="2" d="M993.748,-359.831C993.597,-349 993.407,-335.288 993.256,-324.413"/>
</g>
<!-- ece555ffd650 -->
<g id="node3" class="node"><title>ece555ffd650</title>
<polygon fill="none" stroke="black" points="1350,-396 1238,-396 1238,-360 1350,-360 1350,-396"/>
<text text-anchor="middle" x="1294" y="-373.9" font-family="Times Roman,serif" font-size="14.00">ece555ffd650</text>
</g>
<!-- ece555ffd642 -->
<g id="node23" class="node"><title>ece555ffd642</title>
<polygon fill="none" stroke="black" points="1364,-324 1252,-324 1252,-288 1364,-288 1364,-324"/>
<text text-anchor="middle" x="1308" y="-301.9" font-family="Times Roman,serif" font-size="14.00">ece555ffd642</text>
</g>
<!-- ece555ffd650&#45;&#45;ece555ffd642 -->
<g id="edge10" class="edge"><title>ece555ffd650&#45;&#45;ece555ffd642</title>
<path fill="none" stroke="blue" stroke-width="5" stroke-dasharray="1,5" d="M1297.53,-359.831C1299.64,-349 1302.31,-335.288 1304.42,-324.413"/>
</g>
<!-- ece555748695 -->
<g id="node35" class="node"><title>ece555748695</title>
<ellipse fill="none" stroke="black" cx="1150" cy="-306" rx="84.0808" ry="18"/>
<text text-anchor="middle" x="1150" y="-301.9" font-family="Times Roman,serif" font-size="14.00">ece555748695</text>
</g>
<!-- ece555ffd650&#45;&#45;ece555748695 -->
<g id="edge12" class="edge"><title>ece555ffd650&#45;&#45;ece555748695</title>
<path fill="none" stroke="black" stroke-width="2" d="M1257.66,-359.831C1234.83,-348.417 1205.6,-333.802 1183.36,-322.682"/>
</g>
<!-- 00a0571c363f -->
<g id="node4" class="node"><title>00a0571c363f</title>
<polygon fill="none" stroke="black" points="1850,-252 1734,-252 1734,-216 1850,-216 1850,-252"/>
<text text-anchor="middle" x="1792" y="-229.9" font-family="Times Roman,serif" font-size="14.00">00a0571c363f</text>
</g>
<!-- 00a0571d6865 -->
<g id="node13" class="node"><title>00a0571d6865</title>
<ellipse fill="none" stroke="black" cx="1793" cy="-162" rx="84.9707" ry="18"/>
<text text-anchor="middle" x="1793" y="-157.9" font-family="Times Roman,serif" font-size="14.00">00a0571d6865</text>
</g>
<!-- 00a0571c363f&#45;&#45;00a0571d6865 -->
<g id="edge16" class="edge"><title>00a0571c363f&#45;&#45;00a0571d6865</title>
<path fill="none" stroke="black" stroke-width="2" d="M1792.25,-215.831C1792.4,-205 1792.59,-191.288 1792.74,-180.413"/>
</g>
<!-- 00a0571de370 -->
<g id="node32" class="node"><title>00a0571de370</title>
<polygon fill="none" stroke="black" points="1690,-180 1568,-180 1568,-144 1690,-144 1690,-180"/>
<text text-anchor="middle" x="1629" y="-157.9" font-family="Times Roman,serif" font-size="14.00">00a0571de370</text>
</g>
<!-- 00a0571c363f&#45;&#45;00a0571de370 -->
<g id="edge14" class="edge"><title>00a0571c363f&#45;&#45;00a0571de370</title>
<path fill="none" stroke="orange" stroke-width="5" stroke-dasharray="1,5" d="M1750.87,-215.831C1726.06,-204.875 1694.59,-190.971 1669.84,-180.038"/>
</g>
<!-- ece55571dcd0 -->
<g id="node22" class="node"><title>ece55571dcd0</title>
<ellipse fill="none" stroke="black" cx="133" cy="-306" rx="80.8024" ry="18"/>
<text text-anchor="middle" x="133" y="-301.9" font-family="Times Roman,serif" font-size="14.00">ece55571dcd0</text>
</g>
<!-- ece555ffd5da&#45;&#45;ece55571dcd0 -->
<g id="edge18" class="edge"><title>ece555ffd5da&#45;&#45;ece55571dcd0</title>
<path fill="none" stroke="black" stroke-width="2" d="M315.8,-361.301C275.016,-348.963 220.037,-332.331 181.055,-320.538"/>
</g>
<!-- ece555ffd5bf -->
<g id="node6" class="node"><title>ece555ffd5bf</title>
<polygon fill="none" stroke="black" points="2160,-252 2054,-252 2054,-216 2160,-216 2160,-252"/>
<text text-anchor="middle" x="2107" y="-229.9" font-family="Times Roman,serif" font-size="14.00">ece555ffd5bf</text>
</g>
<!-- ece55571dca0 -->
<g id="node10" class="node"><title>ece55571dca0</title>
<ellipse fill="none" stroke="black" cx="2107" cy="-162" rx="80.8024" ry="18"/>
<text text-anchor="middle" x="2107" y="-157.9" font-family="Times Roman,serif" font-size="14.00">ece55571dca0</text>
</g>
<!-- ece555ffd5bf&#45;&#45;ece55571dca0 -->
<g id="edge20" class="edge"><title>ece555ffd5bf&#45;&#45;ece55571dca0</title>
<path fill="none" stroke="black" stroke-width="2" d="M2107,-215.831C2107,-205 2107,-191.288 2107,-180.413"/>
</g>
<!-- 00a0571c3501 -->
<g id="node7" class="node"><title>00a0571c3501</title>
<polygon fill="none" stroke="black" points="894,-396 772,-396 772,-360 894,-360 894,-396"/>
<text text-anchor="middle" x="833" y="-373.9" font-family="Times Roman,serif" font-size="14.00">00a0571c3501</text>
</g>
<!-- 00a0571d6864 -->
<g id="node12" class="node"><title>00a0571d6864</title>
<ellipse fill="none" stroke="black" cx="698" cy="-306" rx="84.9707" ry="18"/>
<text text-anchor="middle" x="698" y="-301.9" font-family="Times Roman,serif" font-size="14.00">00a0571d6864</text>
</g>
<!-- 00a0571c3501&#45;&#45;00a0571d6864 -->
<g id="edge24" class="edge"><title>00a0571c3501&#45;&#45;00a0571d6864</title>
<path fill="none" stroke="black" stroke-width="2" d="M798.934,-359.831C777.688,-348.5 750.529,-334.016 729.737,-322.926"/>
</g>
<!-- 00a0571c3501&#45;&#45;ece555ffd6cc -->
<g id="edge22" class="edge"><title>00a0571c3501&#45;&#45;ece555ffd6cc</title>
<path fill="none" stroke="orange" stroke-width="5" stroke-dasharray="1,5" d="M840.318,-359.831C844.681,-349 850.204,-335.288 854.584,-324.413"/>
</g>
<!-- 00a0571c3641 -->
<g id="node8" class="node"><title>00a0571c3641</title>
<polygon fill="none" stroke="black" points="754,-396 632,-396 632,-360 754,-360 754,-396"/>
<text text-anchor="middle" x="693" y="-373.9" font-family="Times Roman,serif" font-size="14.00">00a0571c3641</text>
</g>
<!-- 00a0571c3641&#45;&#45;00a0571d6864 -->
<g id="edge26" class="edge"><title>00a0571c3641&#45;&#45;00a0571d6864</title>
<path fill="none" stroke="black" stroke-width="2" d="M694.262,-359.831C695.014,-349 695.966,-335.288 696.721,-324.413"/>
</g>
<!-- 00a0571c3732 -->
<g id="node36" class="node"><title>00a0571c3732</title>
<polygon fill="none" stroke="black" points="511,-324 389,-324 389,-288 511,-288 511,-324"/>
<text text-anchor="middle" x="450" y="-301.9" font-family="Times Roman,serif" font-size="14.00">00a0571c3732</text>
</g>
<!-- 00a0571c3641&#45;&#45;00a0571c3732 -->
<g id="edge28" class="edge"><title>00a0571c3641&#45;&#45;00a0571c3732</title>
<path fill="none" stroke="red" stroke-width="5" stroke-dasharray="1,5" d="M631.994,-359.924C595.02,-348.969 548.01,-335.04 511.031,-324.083"/>
</g>
<!-- 00a0571c373e -->
<g id="node9" class="node"><title>00a0571c373e</title>
<polygon fill="none" stroke="black" points="194,-468 74,-468 74,-432 194,-432 194,-468"/>
<text text-anchor="middle" x="134" y="-445.9" font-family="Times Roman,serif" font-size="14.00">00a0571c373e</text>
</g>
<!-- ece555ffd5c1 -->
<g id="node11" class="node"><title>ece555ffd5c1</title>
<polygon fill="none" stroke="black" points="110,-396 4.26326e-14,-396 0,-360 110,-360 110,-396"/>
<text text-anchor="middle" x="55" y="-373.9" font-family="Times Roman,serif" font-size="14.00">ece555ffd5c1</text>
</g>
<!-- 00a0571c373e&#45;&#45;ece555ffd5c1 -->
<g id="edge30" class="edge"><title>00a0571c373e&#45;&#45;ece555ffd5c1</title>
<path fill="none" stroke="blue" stroke-width="5" stroke-dasharray="1,5" d="M114.065,-431.831C102.089,-420.917 86.9033,-407.076 74.9287,-396.163"/>
</g>
<!-- 00a0571d6867 -->
<g id="node14" class="node"><title>00a0571d6867</title>
<ellipse fill="none" stroke="black" cx="213" cy="-378" rx="84.9707" ry="18"/>
<text text-anchor="middle" x="213" y="-373.9" font-family="Times Roman,serif" font-size="14.00">00a0571d6867</text>
</g>
<!-- 00a0571c373e&#45;&#45;00a0571d6867 -->
<g id="edge32" class="edge"><title>00a0571c373e&#45;&#45;00a0571d6867</title>
<path fill="none" stroke="black" stroke-width="2" d="M153.935,-431.831C166.094,-420.75 181.561,-406.653 193.618,-395.665"/>
</g>
<!-- ece555ffd5af -->
<g id="node20" class="node"><title>ece555ffd5af</title>
<polygon fill="none" stroke="black" points="2160,-108 2054,-108 2054,-72 2160,-72 2160,-108"/>
<text text-anchor="middle" x="2107" y="-85.9" font-family="Times Roman,serif" font-size="14.00">ece555ffd5af</text>
</g>
<!-- ece55571dca0&#45;&#45;ece555ffd5af -->
<g id="edge34" class="edge"><title>ece55571dca0&#45;&#45;ece555ffd5af</title>
<path fill="none" stroke="black" stroke-width="2" d="M2107,-143.831C2107,-133 2107,-119.288 2107,-108.413"/>
</g>
<!-- ece555ffd5c1&#45;&#45;ece55571dcd0 -->
<g id="edge36" class="edge"><title>ece555ffd5c1&#45;&#45;ece55571dcd0</title>
<path fill="none" stroke="black" stroke-width="2" d="M74.6827,-359.831C86.6874,-348.75 101.959,-334.653 113.863,-323.665"/>
</g>
<!-- 00a0571c3511 -->
<g id="node24" class="node"><title>00a0571c3511</title>
<polygon fill="none" stroke="black" points="1854,-108 1732,-108 1732,-72 1854,-72 1854,-108"/>
<text text-anchor="middle" x="1793" y="-85.9" font-family="Times Roman,serif" font-size="14.00">00a0571c3511</text>
</g>
<!-- 00a0571d6865&#45;&#45;00a0571c3511 -->
<g id="edge38" class="edge"><title>00a0571d6865&#45;&#45;00a0571c3511</title>
<path fill="none" stroke="black" stroke-width="2" d="M1793,-143.831C1793,-133 1793,-119.288 1793,-108.413"/>
</g>
<!-- 00a0571d6867&#45;&#45;00a0571c3732 -->
<g id="edge40" class="edge"><title>00a0571d6867&#45;&#45;00a0571c3732</title>
<path fill="none" stroke="black" stroke-width="2" d="M261.819,-363.169C299.083,-351.848 350.605,-336.196 390.319,-324.131"/>
</g>
<!-- 00a0571c2b52 -->
<g id="node15" class="node"><title>00a0571c2b52</title>
<polygon fill="none" stroke="black" points="1051,-468 931,-468 931,-432 1051,-432 1051,-468"/>
<text text-anchor="middle" x="991" y="-445.9" font-family="Times Roman,serif" font-size="14.00">00a0571c2b52</text>
</g>
<!-- 00a0571c2c44 -->
<g id="node16" class="node"><title>00a0571c2c44</title>
<polygon fill="none" stroke="black" points="1499,-396 1381,-396 1381,-360 1499,-360 1499,-396"/>
<text text-anchor="middle" x="1440" y="-373.9" font-family="Times Roman,serif" font-size="14.00">00a0571c2c44</text>
</g>
<!-- 00a0571c2b52&#45;&#45;00a0571c2c44 -->
<g id="edge42" class="edge"><title>00a0571c2b52&#45;&#45;00a0571c2c44</title>
<path fill="none" stroke="green" stroke-width="5" stroke-dasharray="1,5" d="M1051.14,-442.546C1124.19,-433.176 1251.04,-415.889 1359,-396 1366.08,-394.695 1373.49,-393.213 1380.82,-391.673"/>
</g>
<!-- 00a0571c2b52&#45;&#45;00a0571da017 -->
<g id="edge44" class="edge"><title>00a0571c2b52&#45;&#45;00a0571da017</title>
<path fill="none" stroke="black" stroke-width="2" d="M930.958,-442.006C858.003,-432.105 731.239,-414.296 623,-396 612.678,-394.255 601.744,-392.279 591.124,-390.291"/>
</g>
<!-- 00a0571da012 -->
<g id="node17" class="node"><title>00a0571da012</title>
<ellipse fill="none" stroke="black" cx="1467" cy="-306" rx="84.7756" ry="18"/>
<text text-anchor="middle" x="1467" y="-301.9" font-family="Times Roman,serif" font-size="14.00">00a0571da012</text>
</g>
<!-- 00a0571c2c44&#45;&#45;00a0571da012 -->
<g id="edge46" class="edge"><title>00a0571c2c44&#45;&#45;00a0571da012</title>
<path fill="none" stroke="black" stroke-width="2" d="M1446.81,-359.831C1450.87,-349 1456.02,-335.288 1460.1,-324.413"/>
</g>
<!-- 00a0571c2c0d -->
<g id="node21" class="node"><title>00a0571c2c0d</title>
<polygon fill="none" stroke="black" points="1526,-252 1408,-252 1408,-216 1526,-216 1526,-252"/>
<text text-anchor="middle" x="1467" y="-229.9" font-family="Times Roman,serif" font-size="14.00">00a0571c2c0d</text>
</g>
<!-- 00a0571da012&#45;&#45;00a0571c2c0d -->
<g id="edge48" class="edge"><title>00a0571da012&#45;&#45;00a0571c2c0d</title>
<path fill="none" stroke="black" stroke-width="2" d="M1467,-287.831C1467,-277 1467,-263.288 1467,-252.413"/>
</g>
<!-- ece55571dd00 -->
<g id="node19" class="node"><title>ece55571dd00</title>
<ellipse fill="none" stroke="black" cx="1954" cy="-90" rx="82.1898" ry="18"/>
<text text-anchor="middle" x="1954" y="-85.9" font-family="Times Roman,serif" font-size="14.00">ece55571dd00</text>
</g>
<!-- ece555ffd5d6 -->
<g id="node29" class="node"><title>ece555ffd5d6</title>
<polygon fill="none" stroke="black" points="1937,-36 1827,-36 1827,-1.77636e-14 1937,-3.55271e-15 1937,-36"/>
<text text-anchor="middle" x="1882" y="-13.9" font-family="Times Roman,serif" font-size="14.00">ece555ffd5d6</text>
</g>
<!-- ece55571dd00&#45;&#45;ece555ffd5d6 -->
<g id="edge52" class="edge"><title>ece55571dd00&#45;&#45;ece555ffd5d6</title>
<path fill="none" stroke="black" stroke-width="2" d="M1936.2,-72.2022C1925.21,-61.2085 1911.14,-47.1413 1900.09,-36.0931"/>
</g>
<!-- ece555ffd5b9 -->
<g id="node33" class="node"><title>ece555ffd5b9</title>
<polygon fill="none" stroke="black" points="2081,-36 1971,-36 1971,-1.77636e-14 2081,-3.55271e-15 2081,-36"/>
<text text-anchor="middle" x="2026" y="-13.9" font-family="Times Roman,serif" font-size="14.00">ece555ffd5b9</text>
</g>
<!-- ece55571dd00&#45;&#45;ece555ffd5b9 -->
<g id="edge50" class="edge"><title>ece55571dd00&#45;&#45;ece555ffd5b9</title>
<path fill="none" stroke="black" stroke-width="2" d="M1971.8,-72.2022C1982.79,-61.2085 1996.86,-47.1413 2007.91,-36.0931"/>
</g>
<!-- ece555ffd5af&#45;&#45;ece555ffd5b9 -->
<g id="edge54" class="edge"><title>ece555ffd5af&#45;&#45;ece555ffd5b9</title>
<path fill="none" stroke="red" stroke-width="5" stroke-dasharray="1,5" d="M2086.56,-71.8314C2074.28,-60.9167 2058.71,-47.0764 2046.43,-36.1628"/>
</g>
<!-- 00a0571de372 -->
<g id="node34" class="node"><title>00a0571de372</title>
<polygon fill="none" stroke="black" points="1539,-180 1417,-180 1417,-144 1539,-144 1539,-180"/>
<text text-anchor="middle" x="1478" y="-157.9" font-family="Times Roman,serif" font-size="14.00">00a0571de372</text>
</g>
<!-- 00a0571c2c0d&#45;&#45;00a0571de372 -->
<g id="edge56" class="edge"><title>00a0571c2c0d&#45;&#45;00a0571de372</title>
<path fill="none" stroke="blue" stroke-width="5" stroke-dasharray="1,5" d="M1469.78,-215.831C1471.43,-205 1473.53,-191.288 1475.19,-180.413"/>
</g>
<!-- ece55574a4a5 -->
<g id="node26" class="node"><title>ece55574a4a5</title>
<ellipse fill="none" stroke="black" cx="1308" cy="-234" rx="82.1898" ry="18"/>
<text text-anchor="middle" x="1308" y="-229.9" font-family="Times Roman,serif" font-size="14.00">ece55574a4a5</text>
</g>
<!-- ece555ffd642&#45;&#45;ece55574a4a5 -->
<g id="edge58" class="edge"><title>ece555ffd642&#45;&#45;ece55574a4a5</title>
<path fill="none" stroke="black" stroke-width="2" d="M1308,-287.831C1308,-277 1308,-263.288 1308,-252.413"/>
</g>
<!-- 00a0571c3511&#45;&#45;ece555ffd5d6 -->
<g id="edge60" class="edge"><title>00a0571c3511&#45;&#45;ece555ffd5d6</title>
<path fill="none" stroke="green" stroke-width="5" stroke-dasharray="1,5" d="M1815.46,-71.8314C1828.95,-60.9167 1846.06,-47.0764 1859.55,-36.1628"/>
</g>
<!-- ece555ffd63a -->
<g id="node25" class="node"><title>ece555ffd63a</title>
<polygon fill="none" stroke="black" points="1205,-396 1095,-396 1095,-360 1205,-360 1205,-396"/>
<text text-anchor="middle" x="1150" y="-373.9" font-family="Times Roman,serif" font-size="14.00">ece555ffd63a</text>
</g>
<!-- ece555ffd63a&#45;&#45;ece555ffd61e -->
<g id="edge62" class="edge"><title>ece555ffd63a&#45;&#45;ece555ffd61e</title>
<path fill="none" stroke="red" stroke-width="5" stroke-dasharray="1,5" d="M1110.38,-359.831C1086.49,-348.875 1056.17,-334.971 1032.33,-324.038"/>
</g>
<!-- ece555ffd63a&#45;&#45;ece555748695 -->
<g id="edge64" class="edge"><title>ece555ffd63a&#45;&#45;ece555748695</title>
<path fill="none" stroke="black" stroke-width="2" d="M1150,-359.831C1150,-349 1150,-335.288 1150,-324.413"/>
</g>
<!-- ece555ffd667 -->
<g id="node28" class="node"><title>ece555ffd667</title>
<polygon fill="none" stroke="black" points="1364,-180 1252,-180 1252,-144 1364,-144 1364,-180"/>
<text text-anchor="middle" x="1308" y="-157.9" font-family="Times Roman,serif" font-size="14.00">ece555ffd667</text>
</g>
<!-- ece55574a4a5&#45;&#45;ece555ffd667 -->
<g id="edge66" class="edge"><title>ece55574a4a5&#45;&#45;ece555ffd667</title>
<path fill="none" stroke="black" stroke-width="2" d="M1308,-215.831C1308,-205 1308,-191.288 1308,-180.413"/>
</g>
<!-- 00a0571da270 -->
<g id="node27" class="node"><title>00a0571da270</title>
<ellipse fill="none" stroke="black" cx="1629" cy="-234" rx="84.7756" ry="18"/>
<text text-anchor="middle" x="1629" y="-229.9" font-family="Times Roman,serif" font-size="14.00">00a0571da270</text>
</g>
<!-- 00a0571da270&#45;&#45;00a0571de370 -->
<g id="edge68" class="edge"><title>00a0571da270&#45;&#45;00a0571de370</title>
<path fill="none" stroke="black" stroke-width="2" d="M1629,-215.831C1629,-205 1629,-191.288 1629,-180.413"/>
</g>
<!-- 00a0571da270&#45;&#45;00a0571de372 -->
<g id="edge70" class="edge"><title>00a0571da270&#45;&#45;00a0571de372</title>
<path fill="none" stroke="black" stroke-width="2" d="M1594.36,-217.482C1570.94,-206.314 1540.01,-191.566 1515.92,-180.083"/>
</g>
</g>
</svg>
