<?xml version="1.0" encoding="UTF-8" standalone="no"?>
<!DOCTYPE svg PUBLIC "-//W3C//DTD SVG 1.1//EN"
 "http://www.w3.org/Graphics/SVG/1.1/DTD/svg11.dtd">
<!-- Generated by graphviz version 2.26.3 (20100126.1600)
 -->
<!-- Title: G Pages: 1 -->
<svg width="844pt" height="332pt"
 viewBox="0.00 0.00 844.00 332.00" xmlns="http://www.w3.org/2000/svg" xmlns:xlink="http://www.w3.org/1999/xlink">
<g id="graph1" class="graph" transform="scale(1 1) rotate(0) translate(4 328)">
<title>G</title>
<polygon fill="white" stroke="white" points="-4,5 -4,-328 841,-328 841,5 -4,5"/>
<!-- ece555ffd650 -->
<g id="node1" class="node"><title>ece555ffd650</title>
<ellipse fill="none" stroke="black" cx="520" cy="-234" rx="77.8268" ry="18"/>
<text text-anchor="middle" x="520" y="-229.9" font-family="Times Roman,serif" font-size="14.00">ece555ffd650</text>
</g>
<!-- ece555ffd5b9 -->
<g id="node3" class="node"><title>ece555ffd5b9</title>
<ellipse fill="none" stroke="black" cx="181" cy="-162" rx="77.1319" ry="18"/>
<text text-anchor="middle" x="181" y="-157.9" font-family="Times Roman,serif" font-size="14.00">ece555ffd5b9</text>
</g>
<!-- ece555ffd650&#45;&#45;ece555ffd5b9 -->
<g id="edge2" class="edge"><title>ece555ffd650&#45;&#45;ece555ffd5b9</title>
<path fill="none" stroke="black" stroke-width="3" stroke-dasharray="1,5" d="M462.493,-221.786C399.966,-208.506 300.637,-187.41 238.222,-174.153"/>
</g>
<!-- ece555748695 -->
<g id="node5" class="node"><title>ece555748695</title>
<ellipse fill="none" stroke="black" cx="700" cy="-162" rx="84.0808" ry="18"/>
<text text-anchor="middle" x="700" y="-157.9" font-family="Times Roman,serif" font-size="14.00">ece555748695</text>
</g>
<!-- ece555ffd650&#45;&#45;ece555748695 -->
<g id="edge4" class="edge"><title>ece555ffd650&#45;&#45;ece555748695</title>
<path fill="none" stroke="black" stroke-width="9" stroke-dasharray="1,5" d="M559.057,-218.377C588.939,-206.424 629.993,-190.003 660.085,-177.966"/>
</g>
<!-- ece555ffd667 -->
<g id="node7" class="node"><title>ece555ffd667</title>
<ellipse fill="none" stroke="black" cx="520" cy="-162" rx="77.8268" ry="18"/>
<text text-anchor="middle" x="520" y="-157.9" font-family="Times Roman,serif" font-size="14.00">ece555ffd667</text>
</g>
<!-- ece555ffd650&#45;&#45;ece555ffd667 -->
<g id="edge6" class="edge"><title>ece555ffd650&#45;&#45;ece555ffd667</title>
<path fill="none" stroke="black" stroke-width="3.03974" stroke-dasharray="1,5" d="M520,-215.831C520,-205 520,-191.288 520,-180.413"/>
</g>
<!-- ece55574a4a5 -->
<g id="node10" class="node"><title>ece55574a4a5</title>
<ellipse fill="none" stroke="black" cx="754" cy="-90" rx="82.1898" ry="18"/>
<text text-anchor="middle" x="754" y="-85.9" font-family="Times Roman,serif" font-size="14.00">ece55574a4a5</text>
</g>
<!-- ece555ffd667&#45;&#45;ece55574a4a5 -->
<g id="edge24" class="edge"><title>ece555ffd667&#45;&#45;ece55574a4a5</title>
<path fill="none" stroke="black" stroke-width="9" stroke-dasharray="1,5" d="M567.072,-147.516C607.51,-135.074 665.553,-117.215 706.201,-104.707"/>
</g>
<!-- ece555ffd61e -->
<g id="node22" class="node"><title>ece555ffd61e</title>
<ellipse fill="none" stroke="black" cx="519" cy="-90" rx="77.1319" ry="18"/>
<text text-anchor="middle" x="519" y="-85.9" font-family="Times Roman,serif" font-size="14.00">ece555ffd61e</text>
</g>
<!-- ece555ffd667&#45;&#45;ece555ffd61e -->
<g id="edge22" class="edge"><title>ece555ffd667&#45;&#45;ece555ffd61e</title>
<path fill="none" stroke="black" stroke-width="3.33962" stroke-dasharray="1,5" d="M519.748,-143.831C519.597,-133 519.407,-119.288 519.256,-108.413"/>
</g>
<!-- ece555ffd642 -->
<g id="node8" class="node"><title>ece555ffd642</title>
<ellipse fill="none" stroke="black" cx="756" cy="-306" rx="77.8268" ry="18"/>
<text text-anchor="middle" x="756" y="-301.9" font-family="Times Roman,serif" font-size="14.00">ece555ffd642</text>
</g>
<!-- ece555ffd642&#45;&#45;ece55574a4a5 -->
<g id="edge8" class="edge"><title>ece555ffd642&#45;&#45;ece55574a4a5</title>
<path fill="none" stroke="black" stroke-width="9" stroke-dasharray="1,5" d="M768.548,-287.862C774.882,-277.763 782.045,-264.697 786,-252 800.307,-206.076 807.799,-189.768 793,-144 788.659,-130.576 779.598,-117.683 771.302,-107.863"/>
</g>
<!-- ece555ffd63a -->
<g id="node12" class="node"><title>ece555ffd63a</title>
<ellipse fill="none" stroke="black" cx="700" cy="-234" rx="77.1319" ry="18"/>
<text text-anchor="middle" x="700" y="-229.9" font-family="Times Roman,serif" font-size="14.00">ece555ffd63a</text>
</g>
<!-- ece555ffd642&#45;&#45;ece555ffd63a -->
<g id="edge10" class="edge"><title>ece555ffd642&#45;&#45;ece555ffd63a</title>
<path fill="none" stroke="black" stroke-width="2.43066" stroke-dasharray="1,5" d="M742.157,-288.202C733.542,-277.125 722.5,-262.928 713.878,-251.843"/>
</g>
<!-- ece555ffd63a&#45;&#45;ece555748695 -->
<g id="edge18" class="edge"><title>ece555ffd63a&#45;&#45;ece555748695</title>
<path fill="none" stroke="black" stroke-width="9" stroke-dasharray="1,5" d="M700,-215.831C700,-205 700,-191.288 700,-180.413"/>
</g>
<!-- ece555ffd5af -->
<g id="node18" class="node"><title>ece555ffd5af</title>
<ellipse fill="none" stroke="black" cx="350" cy="-162" rx="73.8534" ry="18"/>
<text text-anchor="middle" x="350" y="-157.9" font-family="Times Roman,serif" font-size="14.00">ece555ffd5af</text>
</g>
<!-- ece555ffd63a&#45;&#45;ece555ffd5af -->
<g id="edge16" class="edge"><title>ece555ffd63a&#45;&#45;ece555ffd5af</title>
<path fill="none" stroke="black" stroke-width="4.26316" stroke-dasharray="1,5" d="M641.092,-222.332C586.958,-211.552 504.514,-194.986 433,-180 424.053,-178.125 414.571,-176.103 405.338,-174.114"/>
</g>
<!-- ece555ffd5bf -->
<g id="node13" class="node"><title>ece555ffd5bf</title>
<ellipse fill="none" stroke="black" cx="277" cy="-306" rx="73.8534" ry="18"/>
<text text-anchor="middle" x="277" y="-301.9" font-family="Times Roman,serif" font-size="14.00">ece555ffd5bf</text>
</g>
<!-- ece555ffd5bf&#45;&#45;ece555ffd5b9 -->
<g id="edge12" class="edge"><title>ece555ffd5bf&#45;&#45;ece555ffd5b9</title>
<path fill="none" stroke="black" stroke-width="3.11765" stroke-dasharray="1,5" d="M265.036,-288.053C246.639,-260.459 211.602,-207.903 193.115,-180.173"/>
</g>
<!-- ece55571dca0 -->
<g id="node16" class="node"><title>ece55571dca0</title>
<ellipse fill="none" stroke="black" cx="337" cy="-234" rx="80.8024" ry="18"/>
<text text-anchor="middle" x="337" y="-229.9" font-family="Times Roman,serif" font-size="14.00">ece55571dca0</text>
</g>
<!-- ece555ffd5bf&#45;&#45;ece55571dca0 -->
<g id="edge14" class="edge"><title>ece555ffd5bf&#45;&#45;ece55571dca0</title>
<path fill="none" stroke="black" stroke-width="9" stroke-dasharray="1,5" d="M291.831,-288.202C301.062,-277.125 312.893,-262.928 322.131,-251.843"/>
</g>
<!-- ece55571dca0&#45;&#45;ece555ffd5af -->
<g id="edge20" class="edge"><title>ece55571dca0&#45;&#45;ece555ffd5af</title>
<path fill="none" stroke="black" stroke-width="9" stroke-dasharray="1,5" d="M340.28,-215.831C342.236,-205 344.712,-191.288 346.675,-180.413"/>
</g>
<!-- ece555ffd5d6 -->
<g id="node27" class="node"><title>ece555ffd5d6</title>
<ellipse fill="none" stroke="black" cx="129" cy="-90" rx="77.1319" ry="18"/>
<text text-anchor="middle" x="129" y="-85.9" font-family="Times Roman,serif" font-size="14.00">ece555ffd5d6</text>
</g>
<!-- ece555ffd5af&#45;&#45;ece555ffd5d6 -->
<g id="edge30" class="edge"><title>ece555ffd5af&#45;&#45;ece555ffd5d6</title>
<path fill="none" stroke="black" stroke-width="2.43066" stroke-dasharray="1,5" d="M305.543,-147.516C267.351,-135.074 212.533,-117.215 174.144,-104.707"/>
</g>
<!-- ece555ffd6cc -->
<g id="node30" class="node"><title>ece555ffd6cc</title>
<ellipse fill="none" stroke="black" cx="350" cy="-90" rx="73.8534" ry="18"/>
<text text-anchor="middle" x="350" y="-85.9" font-family="Times Roman,serif" font-size="14.00">ece555ffd6cc</text>
</g>
<!-- ece555ffd5af&#45;&#45;ece555ffd6cc -->
<g id="edge32" class="edge"><title>ece555ffd5af&#45;&#45;ece555ffd6cc</title>
<path fill="none" stroke="black" stroke-width="4.40816" stroke-dasharray="1,5" d="M350,-143.831C350,-133 350,-119.288 350,-108.413"/>
</g>
<!-- ece55574a4d5 -->
<g id="node32" class="node"><title>ece55574a4d5</title>
<ellipse fill="none" stroke="black" cx="434" cy="-18" rx="82.1898" ry="18"/>
<text text-anchor="middle" x="434" y="-13.9" font-family="Times Roman,serif" font-size="14.00">ece55574a4d5</text>
</g>
<!-- ece555ffd61e&#45;&#45;ece55574a4d5 -->
<g id="edge36" class="edge"><title>ece555ffd61e&#45;&#45;ece55574a4d5</title>
<path fill="none" stroke="black" stroke-width="9" stroke-dasharray="1,5" d="M498.424,-72.5708C485.158,-61.3339 467.968,-46.7727 454.681,-35.5182"/>
</g>
<!-- ece55571dd00 -->
<g id="node24" class="node"><title>ece55571dd00</title>
<ellipse fill="none" stroke="black" cx="82" cy="-234" rx="82.1898" ry="18"/>
<text text-anchor="middle" x="82" y="-229.9" font-family="Times Roman,serif" font-size="14.00">ece55571dd00</text>
</g>
<!-- ece55571dd00&#45;&#45;ece555ffd5b9 -->
<g id="edge26" class="edge"><title>ece55571dd00&#45;&#45;ece555ffd5b9</title>
<path fill="none" stroke="black" stroke-width="9" stroke-dasharray="1,5" d="M105.713,-216.754C121.272,-205.438 141.548,-190.692 157.137,-179.355"/>
</g>
<!-- ece55571dd00&#45;&#45;ece555ffd5d6 -->
<g id="edge28" class="edge"><title>ece55571dd00&#45;&#45;ece555ffd5d6</title>
<path fill="none" stroke="black" stroke-width="9" stroke-dasharray="1,5" d="M82.4149,-215.871C83.342,-197.3 86.2203,-167.853 95,-144 99.7452,-131.108 107.871,-118.036 114.988,-107.983"/>
</g>
<!-- ece555ffd6cc&#45;&#45;ece55574a4d5 -->
<g id="edge34" class="edge"><title>ece555ffd6cc&#45;&#45;ece55574a4d5</title>
<path fill="none" stroke="black" stroke-width="9" stroke-dasharray="1,5" d="M370.334,-72.5708C383.444,-61.3339 400.432,-46.7727 413.562,-35.5182"/>
</g>
</g>
</svg>
