<?xml version="1.0" encoding="UTF-8" standalone="no"?>
<!DOCTYPE svg PUBLIC "-//W3C//DTD SVG 1.1//EN"
 "http://www.w3.org/Graphics/SVG/1.1/DTD/svg11.dtd">
<!-- Generated by graphviz version 2.26.3 (20100126.1600)
 -->
<!-- Title: G Pages: 1 -->
<svg width="493pt" height="508pt"
 viewBox="0.00 0.00 493.00 508.00" xmlns="http://www.w3.org/2000/svg" xmlns:xlink="http://www.w3.org/1999/xlink">
<g id="graph1" class="graph" transform="scale(1 1) rotate(0) translate(4 504)">
<title>G</title>
<polygon fill="white" stroke="white" points="-4,5 -4,-504 490,-504 490,5 -4,5"/>
<!-- 0 -->
<g id="node1" class="node"><title>0</title>
<ellipse fill="none" stroke="black" cx="231.146" cy="-191.878" rx="27" ry="18"/>
<text text-anchor="middle" x="231.146" y="-187.778" font-family="Times Roman,serif" font-size="14.00">0</text>
</g>
<!-- 1 -->
<g id="node3" class="node"><title>1</title>
<ellipse fill="none" stroke="black" cx="408.344" cy="-117.064" rx="27" ry="18"/>
<text text-anchor="middle" x="408.344" y="-112.964" font-family="Times Roman,serif" font-size="14.00">1</text>
</g>
<!-- 0&#45;&#45;1 -->
<g id="edge2" class="edge"><title>0&#45;&#45;1</title>
<path fill="none" stroke="blue" stroke-width="3" d="M254.312,-182.098C288.365,-167.72 351.558,-141.04 385.454,-126.728"/>
</g>
<!-- 2 -->
<g id="node5" class="node"><title>2</title>
<ellipse fill="none" stroke="black" cx="265.156" cy="-19.1333" rx="27" ry="18"/>
<text text-anchor="middle" x="265.156" y="-15.0333" font-family="Times Roman,serif" font-size="14.00">2</text>
</g>
<!-- 0&#45;&#45;2 -->
<g id="edge4" class="edge"><title>0&#45;&#45;2</title>
<path fill="none" stroke="green" stroke-width="3" d="M234.721,-173.718C241.27,-140.454 255.115,-70.1323 261.629,-37.0503"/>
</g>
<!-- 3 -->
<g id="node7" class="node"><title>3</title>
<ellipse fill="none" stroke="black" cx="187.282" cy="-79.2793" rx="27" ry="18"/>
<text text-anchor="middle" x="187.282" y="-75.1793" font-family="Times Roman,serif" font-size="14.00">3</text>
</g>
<!-- 0&#45;&#45;3 -->
<g id="edge6" class="edge"><title>0&#45;&#45;3</title>
<path fill="none" stroke="blue" stroke-width="3" d="M224.292,-174.285C216.052,-153.131 202.307,-117.848 194.088,-96.7494"/>
</g>
<!-- 5 -->
<g id="node9" class="node"><title>5</title>
<ellipse fill="none" stroke="black" cx="236.675" cy="-400.013" rx="27" ry="18"/>
<text text-anchor="middle" x="236.675" y="-395.913" font-family="Times Roman,serif" font-size="14.00">5</text>
</g>
<!-- 0&#45;&#45;5 -->
<g id="edge8" class="edge"><title>0&#45;&#45;5</title>
<path fill="none" stroke="green" stroke-width="3" d="M231.627,-209.985C232.673,-249.348 235.143,-342.341 236.191,-381.8"/>
</g>
<!-- 8 -->
<g id="node11" class="node"><title>8</title>
<ellipse fill="none" stroke="black" cx="157.23" cy="-222.476" rx="27" ry="18"/>
<text text-anchor="middle" x="157.23" y="-218.376" font-family="Times Roman,serif" font-size="14.00">8</text>
</g>
<!-- 0&#45;&#45;8 -->
<g id="edge10" class="edge"><title>0&#45;&#45;8</title>
<path fill="none" stroke="green" stroke-width="3" d="M208.164,-201.392C199.264,-205.076 189.096,-209.285 180.198,-212.968"/>
</g>
<!-- 9 -->
<g id="node13" class="node"><title>9</title>
<ellipse fill="none" stroke="black" cx="392.519" cy="-212.749" rx="27" ry="18"/>
<text text-anchor="middle" x="392.519" y="-208.649" font-family="Times Roman,serif" font-size="14.00">9</text>
</g>
<!-- 0&#45;&#45;9 -->
<g id="edge12" class="edge"><title>0&#45;&#45;9</title>
<path fill="none" stroke="blue" stroke-width="3" d="M257.794,-195.325C287.693,-199.192 335.916,-205.428 365.832,-209.297"/>
</g>
<!-- 10 -->
<g id="node15" class="node"><title>10</title>
<ellipse fill="none" stroke="black" cx="145.309" cy="-331.348" rx="27" ry="18"/>
<text text-anchor="middle" x="145.309" y="-327.248" font-family="Times Roman,serif" font-size="14.00">10</text>
</g>
<!-- 0&#45;&#45;10 -->
<g id="edge14" class="edge"><title>0&#45;&#45;10</title>
<path fill="none" stroke="blue" stroke-width="3" d="M220.792,-208.702C204.294,-235.508 172.221,-287.621 155.7,-314.465"/>
</g>
<!-- 13 -->
<g id="node17" class="node"><title>13</title>
<ellipse fill="none" stroke="black" cx="259.566" cy="-141.297" rx="27" ry="18"/>
<text text-anchor="middle" x="259.566" y="-137.197" font-family="Times Roman,serif" font-size="14.00">13</text>
</g>
<!-- 0&#45;&#45;13 -->
<g id="edge16" class="edge"><title>0&#45;&#45;13</title>
<path fill="none" stroke="green" stroke-width="3" d="M240.768,-174.754C243.731,-169.48 246.992,-163.676 249.954,-158.404"/>
</g>
<!-- 14 -->
<g id="node19" class="node"><title>14</title>
<ellipse fill="none" stroke="black" cx="409.179" cy="-322.265" rx="27" ry="18"/>
<text text-anchor="middle" x="409.179" y="-318.165" font-family="Times Roman,serif" font-size="14.00">14</text>
</g>
<!-- 0&#45;&#45;14 -->
<g id="edge18" class="edge"><title>0&#45;&#45;14</title>
<path fill="none" stroke="green" stroke-width="3" d="M249.528,-205.341C283.732,-230.391 356.769,-283.881 390.897,-308.876"/>
</g>
<!-- 15 -->
<g id="node21" class="node"><title>15</title>
<ellipse fill="none" stroke="black" cx="312.603" cy="-248.617" rx="27" ry="18"/>
<text text-anchor="middle" x="312.603" y="-244.517" font-family="Times Roman,serif" font-size="14.00">15</text>
</g>
<!-- 0&#45;&#45;15 -->
<g id="edge20" class="edge"><title>0&#45;&#45;15</title>
<path fill="none" stroke="blue" stroke-width="3" d="M250.039,-205.038C263.198,-214.204 280.676,-226.378 293.813,-235.529"/>
</g>
<!-- 16 -->
<g id="node23" class="node"><title>16</title>
<ellipse fill="none" stroke="black" cx="457.182" cy="-259.932" rx="27" ry="18"/>
<text text-anchor="middle" x="457.182" y="-255.832" font-family="Times Roman,serif" font-size="14.00">16</text>
</g>
<!-- 0&#45;&#45;16 -->
<g id="edge22" class="edge"><title>0&#45;&#45;16</title>
<path fill="none" stroke="blue" stroke-width="3" d="M255.766,-199.291C299.132,-212.347 388.661,-239.302 432.249,-252.425"/>
</g>
<!-- 18 -->
<g id="node25" class="node"><title>18</title>
<ellipse fill="none" stroke="black" cx="140.978" cy="-411.606" rx="27" ry="18"/>
<text text-anchor="middle" x="140.978" y="-407.506" font-family="Times Roman,serif" font-size="14.00">18</text>
</g>
<!-- 0&#45;&#45;18 -->
<g id="edge24" class="edge"><title>0&#45;&#45;18</title>
<path fill="none" stroke="green" stroke-width="3" d="M223.92,-209.488C206.995,-250.732 164.948,-353.193 148.114,-394.218"/>
</g>
<!-- 20 -->
<g id="node27" class="node"><title>20</title>
<ellipse fill="none" stroke="black" cx="237.805" cy="-337.19" rx="27" ry="18"/>
<text text-anchor="middle" x="237.805" y="-333.09" font-family="Times Roman,serif" font-size="14.00">20</text>
</g>
<!-- 0&#45;&#45;20 -->
<g id="edge26" class="edge"><title>0&#45;&#45;20</title>
<path fill="none" stroke="green" stroke-width="3" d="M231.976,-209.988C233.252,-237.834 235.682,-290.869 236.965,-318.852"/>
</g>
<!-- 22 -->
<g id="node29" class="node"><title>22</title>
<ellipse fill="none" stroke="black" cx="216.484" cy="-480.999" rx="27" ry="18"/>
<text text-anchor="middle" x="216.484" y="-476.899" font-family="Times Roman,serif" font-size="14.00">22</text>
</g>
<!-- 0&#45;&#45;22 -->
<g id="edge28" class="edge"><title>0&#45;&#45;22</title>
<path fill="none" stroke="blue" stroke-width="3" d="M230.229,-209.964C227.596,-261.886 220.034,-411.007 217.401,-462.92"/>
</g>
<!-- 1&#45;&#45;2 -->
<g id="edge30" class="edge"><title>1&#45;&#45;2</title>
<path fill="none" stroke="red" stroke-width="3" d="M389.33,-104.059C361.943,-85.3288 311.679,-50.952 284.249,-32.1915"/>
</g>
<!-- 1&#45;&#45;3 -->
<g id="edge32" class="edge"><title>1&#45;&#45;3</title>
<path fill="none" stroke="red" stroke-width="3" d="M382.117,-112.581C339.572,-105.309 255.998,-91.0244 213.475,-83.7562"/>
</g>
<!-- 1&#45;&#45;9 -->
<g id="edge38" class="edge"><title>1&#45;&#45;9</title>
<path fill="none" stroke="blue" stroke-width="3" d="M405.368,-135.061C402.538,-152.168 398.307,-177.752 395.482,-194.832"/>
</g>
<!-- 1&#45;&#45;13 -->
<g id="edge40" class="edge"><title>1&#45;&#45;13</title>
<path fill="none" stroke="red" stroke-width="3" d="M382.088,-121.34C354.977,-125.756 312.916,-132.607 285.809,-137.022"/>
</g>
<!-- 1&#45;&#45;15 -->
<g id="edge42" class="edge"><title>1&#45;&#45;15</title>
<path fill="none" stroke="blue" stroke-width="3" d="M396.412,-133.459C378.066,-158.668 343.123,-206.682 324.686,-232.015"/>
</g>
<!-- 1&#45;&#45;16 -->
<g id="edge44" class="edge"><title>1&#45;&#45;16</title>
<path fill="none" stroke="red" stroke-width="3" d="M414.431,-134.869C423.841,-162.396 441.809,-214.961 451.172,-242.351"/>
</g>
<!-- 1&#45;&#45;20 -->
<g id="edge46" class="edge"><title>1&#45;&#45;20</title>
<path fill="none" stroke="blue" stroke-width="3" d="M395.804,-133.25C364.266,-173.958 281.921,-280.246 250.363,-320.98"/>
</g>
<!-- 4 -->
<g id="node33" class="node"><title>4</title>
<ellipse fill="none" stroke="black" cx="335.795" cy="-163.134" rx="27" ry="18"/>
<text text-anchor="middle" x="335.795" y="-159.034" font-family="Times Roman,serif" font-size="14.00">4</text>
</g>
<!-- 1&#45;&#45;4 -->
<g id="edge34" class="edge"><title>1&#45;&#45;4</title>
<path fill="none" stroke="blue" stroke-width="3" d="M388.52,-129.653C378.283,-136.153 365.829,-144.062 355.596,-150.56"/>
</g>
<!-- 7 -->
<g id="node35" class="node"><title>7</title>
<ellipse fill="none" stroke="black" cx="394.37" cy="-381.027" rx="27" ry="18"/>
<text text-anchor="middle" x="394.37" y="-376.927" font-family="Times Roman,serif" font-size="14.00">7</text>
</g>
<!-- 1&#45;&#45;7 -->
<g id="edge36" class="edge"><title>1&#45;&#45;7</title>
<path fill="none" stroke="red" stroke-width="3" d="M407.384,-135.207C404.831,-183.429 397.898,-314.39 395.337,-362.756"/>
</g>
<!-- 24 -->
<g id="node42" class="node"><title>24</title>
<ellipse fill="none" stroke="black" cx="301.865" cy="-334.334" rx="27" ry="18"/>
<text text-anchor="middle" x="301.865" y="-330.234" font-family="Times Roman,serif" font-size="14.00">24</text>
</g>
<!-- 1&#45;&#45;24 -->
<g id="edge48" class="edge"><title>1&#45;&#45;24</title>
<path fill="none" stroke="red" stroke-width="3" d="M399.811,-134.477C379.824,-175.259 330.172,-276.575 310.292,-317.14"/>
</g>
<!-- 2&#45;&#45;3 -->
<g id="edge50" class="edge"><title>2&#45;&#45;3</title>
<path fill="none" stroke="red" stroke-width="3" d="M247.485,-32.7814C234.83,-42.5553 217.852,-55.6683 205.153,-65.4771"/>
</g>
<!-- 2&#45;&#45;8 -->
<g id="edge54" class="edge"><title>2&#45;&#45;8</title>
<path fill="none" stroke="red" stroke-width="3" d="M256.14,-36.1205C235.824,-74.3967 186.659,-167.029 166.296,-205.394"/>
</g>
<!-- 2&#45;&#45;9 -->
<g id="edge56" class="edge"><title>2&#45;&#45;9</title>
<path fill="none" stroke="green" stroke-width="3" d="M276.015,-35.6409C300.017,-72.1288 357.363,-159.305 381.507,-196.008"/>
</g>
<!-- 2&#45;&#45;13 -->
<g id="edge58" class="edge"><title>2&#45;&#45;13</title>
<path fill="none" stroke="red" stroke-width="3" d="M264.331,-37.159C263.274,-60.2561 261.453,-100.065 260.394,-123.197"/>
</g>
<!-- 2&#45;&#45;15 -->
<g id="edge60" class="edge"><title>2&#45;&#45;15</title>
<path fill="none" stroke="green" stroke-width="3" d="M268.879,-37.1406C277.749,-80.0392 300.046,-187.88 308.898,-230.694"/>
</g>
<!-- 2&#45;&#45;4 -->
<g id="edge52" class="edge"><title>2&#45;&#45;4</title>
<path fill="none" stroke="green" stroke-width="3" d="M273.677,-36.5031C287.254,-64.1807 313.648,-117.986 327.244,-145.702"/>
</g>
<!-- 17 -->
<g id="node50" class="node"><title>17</title>
<ellipse fill="none" stroke="black" cx="87.1398" cy="-185.032" rx="27" ry="18"/>
<text text-anchor="middle" x="87.1398" y="-180.932" font-family="Times Roman,serif" font-size="14.00">17</text>
</g>
<!-- 2&#45;&#45;17 -->
<g id="edge62" class="edge"><title>2&#45;&#45;17</title>
<path fill="none" stroke="red" stroke-width="3" d="M249.358,-33.8557C215.577,-65.3377 136.652,-138.89 102.902,-170.342"/>
</g>
<!-- 3&#45;&#45;8 -->
<g id="edge66" class="edge"><title>3&#45;&#45;8</title>
<path fill="none" stroke="red" stroke-width="3" d="M183.537,-97.1258C177.778,-124.566 166.809,-176.83 161.022,-204.405"/>
</g>
<!-- 3&#45;&#45;9 -->
<g id="edge68" class="edge"><title>3&#45;&#45;9</title>
<path fill="none" stroke="blue" stroke-width="3" d="M206.961,-92.0769C246.19,-117.588 333.72,-174.51 372.9,-199.99"/>
</g>
<!-- 3&#45;&#45;10 -->
<g id="edge70" class="edge"><title>3&#45;&#45;10</title>
<path fill="none" stroke="red" stroke-width="3" d="M184.264,-97.4075C176.519,-143.916 156.015,-267.057 148.301,-313.384"/>
</g>
<!-- 3&#45;&#45;15 -->
<g id="edge74" class="edge"><title>3&#45;&#45;15</title>
<path fill="none" stroke="blue" stroke-width="3" d="M199.298,-95.5162C223.252,-127.884 276.699,-200.103 300.623,-232.43"/>
</g>
<!-- 3&#45;&#45;4 -->
<g id="edge64" class="edge"><title>3&#45;&#45;4</title>
<path fill="none" stroke="blue" stroke-width="3" d="M207.932,-90.9389C236.147,-106.87 286.47,-135.283 314.842,-151.303"/>
</g>
<!-- 3&#45;&#45;17 -->
<g id="edge76" class="edge"><title>3&#45;&#45;17</title>
<path fill="none" stroke="red" stroke-width="3" d="M172.506,-94.8834C153.463,-114.993 120.564,-149.735 101.651,-169.707"/>
</g>
<!-- 12 -->
<g id="node56" class="node"><title>12</title>
<ellipse fill="none" stroke="black" cx="163.589" cy="-281.463" rx="27" ry="18"/>
<text text-anchor="middle" x="163.589" y="-277.363" font-family="Times Roman,serif" font-size="14.00">12</text>
</g>
<!-- 3&#45;&#45;12 -->
<g id="edge72" class="edge"><title>3&#45;&#45;12</title>
<path fill="none" stroke="blue" stroke-width="3" d="M185.138,-97.5784C180.627,-136.072 170.203,-225.022 165.711,-263.351"/>
</g>
<!-- 23 -->
<g id="node60" class="node"><title>23</title>
<ellipse fill="none" stroke="black" cx="250.528" cy="-261.885" rx="27" ry="18"/>
<text text-anchor="middle" x="250.528" y="-257.785" font-family="Times Roman,serif" font-size="14.00">23</text>
</g>
<!-- 3&#45;&#45;23 -->
<g id="edge78" class="edge"><title>3&#45;&#45;23</title>
<path fill="none" stroke="red" stroke-width="3" d="M193.462,-97.1208C205.584,-132.121 232.349,-209.399 244.416,-244.24"/>
</g>
<!-- 5&#45;&#45;8 -->
<g id="edge102" class="edge"><title>5&#45;&#45;8</title>
<path fill="none" stroke="green" stroke-width="3" d="M228.912,-382.667C213.724,-348.726 180.237,-273.89 165.023,-239.893"/>
</g>
<!-- 5&#45;&#45;9 -->
<g id="edge104" class="edge"><title>5&#45;&#45;9</title>
<path fill="none" stroke="blue" stroke-width="3" d="M249.962,-384.047C279.405,-348.668 349.853,-264.016 379.266,-228.675"/>
</g>
<!-- 5&#45;&#45;10 -->
<g id="edge106" class="edge"><title>5&#45;&#45;10</title>
<path fill="none" stroke="blue" stroke-width="3" d="M218.624,-386.447C202.606,-374.409 179.329,-356.915 163.323,-344.886"/>
</g>
<!-- 5&#45;&#45;13 -->
<g id="edge112" class="edge"><title>5&#45;&#45;13</title>
<path fill="none" stroke="green" stroke-width="3" d="M238.284,-381.821C242.487,-334.318 253.757,-206.949 257.958,-159.469"/>
</g>
<!-- 5&#45;&#45;14 -->
<g id="edge114" class="edge"><title>5&#45;&#45;14</title>
<path fill="none" stroke="blue" stroke-width="3" d="M259.227,-389.849C292.287,-374.949 353.558,-347.334 386.622,-332.432"/>
</g>
<!-- 5&#45;&#45;18 -->
<g id="edge116" class="edge"><title>5&#45;&#45;18</title>
<path fill="none" stroke="blue" stroke-width="3" d="M210.018,-403.243C196.855,-404.837 181.012,-406.757 167.824,-408.354"/>
</g>
<!-- 5&#45;&#45;20 -->
<g id="edge120" class="edge"><title>5&#45;&#45;20</title>
<path fill="none" stroke="blue" stroke-width="3" d="M237.002,-381.842C237.15,-373.58 237.326,-363.821 237.475,-355.538"/>
</g>
<!-- 5&#45;&#45;7 -->
<g id="edge100" class="edge"><title>5&#45;&#45;7</title>
<path fill="none" stroke="blue" stroke-width="3" d="M263.425,-396.792C292.511,-393.29 338.717,-387.727 367.751,-384.231"/>
</g>
<!-- 5&#45;&#45;24 -->
<g id="edge124" class="edge"><title>5&#45;&#45;24</title>
<path fill="none" stroke="blue" stroke-width="3" d="M251.794,-384.78C262.326,-374.169 276.314,-360.077 286.827,-349.485"/>
</g>
<!-- 5&#45;&#45;12 -->
<g id="edge110" class="edge"><title>5&#45;&#45;12</title>
<path fill="none" stroke="green" stroke-width="3" d="M226.358,-383.279C212.429,-360.685 187.755,-320.662 173.853,-298.112"/>
</g>
<!-- 5&#45;&#45;23 -->
<g id="edge122" class="edge"><title>5&#45;&#45;23</title>
<path fill="none" stroke="green" stroke-width="3" d="M238.486,-381.955C241.141,-355.483 246.061,-306.422 248.716,-279.947"/>
</g>
<!-- 11 -->
<g id="node66" class="node"><title>11</title>
<ellipse fill="none" stroke="black" cx="299.881" cy="-390.068" rx="27" ry="18"/>
<text text-anchor="middle" x="299.881" y="-385.968" font-family="Times Roman,serif" font-size="14.00">11</text>
</g>
<!-- 5&#45;&#45;11 -->
<g id="edge108" class="edge"><title>5&#45;&#45;11</title>
<path fill="none" stroke="green" stroke-width="3" d="M263.114,-395.853C266.497,-395.321 269.961,-394.776 273.345,-394.243"/>
</g>
<!-- 19 -->
<g id="node82" class="node"><title>19</title>
<ellipse fill="none" stroke="black" cx="333.776" cy="-451.802" rx="27" ry="18"/>
<text text-anchor="middle" x="333.776" y="-447.702" font-family="Times Roman,serif" font-size="14.00">19</text>
</g>
<!-- 5&#45;&#45;19 -->
<g id="edge118" class="edge"><title>5&#45;&#45;19</title>
<path fill="none" stroke="green" stroke-width="3" d="M258.224,-411.507C274.428,-420.149 296.514,-431.928 312.62,-440.519"/>
</g>
<!-- 8&#45;&#45;9 -->
<g id="edge158" class="edge"><title>8&#45;&#45;9</title>
<path fill="none" stroke="green" stroke-width="3" d="M184.22,-221.36C229.486,-219.489 320.185,-215.739 365.482,-213.867"/>
</g>
<!-- 8&#45;&#45;10 -->
<g id="edge160" class="edge"><title>8&#45;&#45;10</title>
<path fill="none" stroke="red" stroke-width="3" d="M155.261,-240.454C153.053,-260.626 149.491,-293.16 147.281,-313.343"/>
</g>
<!-- 8&#45;&#45;15 -->
<g id="edge164" class="edge"><title>8&#45;&#45;15</title>
<path fill="none" stroke="green" stroke-width="3" d="M183.587,-226.911C212.245,-231.732 257.77,-239.392 286.377,-244.205"/>
</g>
<!-- 8&#45;&#45;18 -->
<g id="edge166" class="edge"><title>8&#45;&#45;18</title>
<path fill="none" stroke="green" stroke-width="3" d="M155.671,-240.611C152.565,-276.761 145.634,-357.421 142.531,-393.527"/>
</g>
<!-- 8&#45;&#45;20 -->
<g id="edge170" class="edge"><title>8&#45;&#45;20</title>
<path fill="none" stroke="green" stroke-width="3" d="M168.774,-238.912C184.092,-260.719 210.975,-298.993 226.282,-320.785"/>
</g>
<!-- 8&#45;&#45;24 -->
<g id="edge172" class="edge"><title>8&#45;&#45;24</title>
<path fill="none" stroke="red" stroke-width="3" d="M174.965,-236.192C202.724,-257.661 256.136,-298.969 283.985,-320.506"/>
</g>
<!-- 8&#45;&#45;12 -->
<g id="edge162" class="edge"><title>8&#45;&#45;12</title>
<path fill="none" stroke="green" stroke-width="3" d="M159.172,-240.495C159.947,-247.678 160.837,-255.936 161.614,-263.148"/>
</g>
<!-- 8&#45;&#45;19 -->
<g id="edge168" class="edge"><title>8&#45;&#45;19</title>
<path fill="none" stroke="red" stroke-width="3" d="M169.644,-238.602C202.059,-280.708 288.975,-393.608 321.375,-435.694"/>
</g>
<!-- 9&#45;&#45;24 -->
<g id="edge184" class="edge"><title>9&#45;&#45;24</title>
<path fill="none" stroke="blue" stroke-width="3" d="M380.481,-228.894C363.142,-252.149 331.32,-294.83 313.953,-318.122"/>
</g>
<!-- 9&#45;&#45;12 -->
<g id="edge176" class="edge"><title>9&#45;&#45;12</title>
<path fill="none" stroke="green" stroke-width="3" d="M367.584,-220.233C323.547,-233.451 232.508,-260.777 188.493,-273.988"/>
</g>
<!-- 9&#45;&#45;23 -->
<g id="edge182" class="edge"><title>9&#45;&#45;23</title>
<path fill="none" stroke="green" stroke-width="3" d="M368.432,-221.084C342.322,-230.12 300.889,-244.457 274.733,-253.509"/>
</g>
<!-- 9&#45;&#45;11 -->
<g id="edge174" class="edge"><title>9&#45;&#45;11</title>
<path fill="none" stroke="green" stroke-width="3" d="M383.637,-229.751C365.975,-263.557 326.624,-338.88 308.873,-372.857"/>
</g>
<!-- 9&#45;&#45;19 -->
<g id="edge178" class="edge"><title>9&#45;&#45;19</title>
<path fill="none" stroke="green" stroke-width="3" d="M388.104,-230.717C377.191,-275.127 349.045,-389.665 338.162,-433.952"/>
</g>
<!-- 21 -->
<g id="node101" class="node"><title>21</title>
<ellipse fill="none" stroke="black" cx="445.052" cy="-431.883" rx="27" ry="18"/>
<text text-anchor="middle" x="445.052" y="-427.783" font-family="Times Roman,serif" font-size="14.00">21</text>
</g>
<!-- 9&#45;&#45;21 -->
<g id="edge180" class="edge"><title>9&#45;&#45;21</title>
<path fill="none" stroke="blue" stroke-width="3" d="M396.818,-230.682C406.693,-271.875 430.905,-372.873 440.767,-414.01"/>
</g>
<!-- 10&#45;&#45;14 -->
<g id="edge186" class="edge"><title>10&#45;&#45;14</title>
<path fill="none" stroke="blue" stroke-width="3" d="M172.554,-330.41C223.25,-328.665 331.499,-324.939 382.082,-323.198"/>
</g>
<!-- 10&#45;&#45;15 -->
<g id="edge188" class="edge"><title>10&#45;&#45;15</title>
<path fill="none" stroke="blue" stroke-width="3" d="M167.18,-320.532C199.242,-304.677 258.662,-275.292 290.727,-259.436"/>
</g>
<!-- 10&#45;&#45;18 -->
<g id="edge192" class="edge"><title>10&#45;&#45;18</title>
<path fill="none" stroke="blue" stroke-width="3" d="M144.326,-349.56C143.618,-362.695 142.665,-380.348 141.957,-393.467"/>
</g>
<!-- 10&#45;&#45;17 -->
<g id="edge190" class="edge"><title>10&#45;&#45;17</title>
<path fill="none" stroke="red" stroke-width="3" d="M138.293,-313.699C127.112,-285.576 105.377,-230.905 94.1813,-202.743"/>
</g>
<!-- 10&#45;&#45;23 -->
<g id="edge196" class="edge"><title>10&#45;&#45;23</title>
<path fill="none" stroke="red" stroke-width="3" d="M164.608,-318.608C183.474,-306.153 212.049,-287.288 230.995,-274.78"/>
</g>
<!-- 10&#45;&#45;21 -->
<g id="edge194" class="edge"><title>10&#45;&#45;21</title>
<path fill="none" stroke="red" stroke-width="3" d="M169.585,-339.49C225.751,-358.329 364.162,-404.752 420.55,-423.665"/>
</g>
<!-- 13&#45;&#45;14 -->
<g id="edge230" class="edge"><title>13&#45;&#45;14</title>
<path fill="none" stroke="green" stroke-width="3" d="M272.843,-157.357C301.306,-191.785 367.901,-272.336 396.145,-306.5"/>
</g>
<!-- 13&#45;&#45;16 -->
<g id="edge232" class="edge"><title>13&#45;&#45;16</title>
<path fill="none" stroke="red" stroke-width="3" d="M279.97,-153.546C317.937,-176.339 399.007,-225.008 436.889,-247.749"/>
</g>
<!-- 13&#45;&#45;18 -->
<g id="edge236" class="edge"><title>13&#45;&#45;18</title>
<path fill="none" stroke="green" stroke-width="3" d="M251.967,-158.617C230.599,-207.324 170.145,-345.124 148.667,-394.081"/>
</g>
<!-- 13&#45;&#45;20 -->
<g id="edge238" class="edge"><title>13&#45;&#45;20</title>
<path fill="none" stroke="green" stroke-width="3" d="M257.558,-159.375C253.412,-196.693 243.95,-281.874 239.808,-319.155"/>
</g>
<!-- 13&#45;&#45;24 -->
<g id="edge242" class="edge"><title>13&#45;&#45;24</title>
<path fill="none" stroke="red" stroke-width="3" d="M263.47,-159.112C271.507,-195.793 289.828,-279.399 297.91,-316.282"/>
</g>
<!-- 13&#45;&#45;17 -->
<g id="edge234" class="edge"><title>13&#45;&#45;17</title>
<path fill="none" stroke="green" stroke-width="3" d="M234.124,-147.75C201.43,-156.043 145.013,-170.352 112.405,-178.623"/>
</g>
<!-- 13&#45;&#45;23 -->
<g id="edge240" class="edge"><title>13&#45;&#45;23</title>
<path fill="none" stroke="red" stroke-width="3" d="M258.213,-159.35C256.509,-182.084 253.598,-220.917 251.89,-243.709"/>
</g>
<!-- 14&#45;&#45;15 -->
<g id="edge244" class="edge"><title>14&#45;&#45;15</title>
<path fill="none" stroke="blue" stroke-width="3" d="M391.014,-308.412C373.748,-295.245 347.926,-275.554 330.687,-262.408"/>
</g>
<!-- 14&#45;&#45;16 -->
<g id="edge246" class="edge"><title>14&#45;&#45;16</title>
<path fill="none" stroke="blue" stroke-width="3" d="M421.541,-306.213C428.653,-296.978 437.563,-285.408 444.695,-276.147"/>
</g>
<!-- 14&#45;&#45;20 -->
<g id="edge250" class="edge"><title>14&#45;&#45;20</title>
<path fill="none" stroke="blue" stroke-width="3" d="M382.402,-324.597C350.301,-327.393 296.819,-332.05 264.676,-334.85"/>
</g>
<!-- 14&#45;&#45;22 -->
<g id="edge254" class="edge"><title>14&#45;&#45;22</title>
<path fill="none" stroke="green" stroke-width="3" d="M392.079,-336.352C355.511,-366.474 270.079,-436.85 233.546,-466.944"/>
</g>
<!-- 14&#45;&#45;24 -->
<g id="edge258" class="edge"><title>14&#45;&#45;24</title>
<path fill="none" stroke="blue" stroke-width="3" d="M382.376,-325.279C365.987,-327.123 345.093,-329.472 328.698,-331.316"/>
</g>
<!-- 14&#45;&#45;23 -->
<g id="edge256" class="edge"><title>14&#45;&#45;23</title>
<path fill="none" stroke="green" stroke-width="3" d="M385.427,-313.226C355.432,-301.81 304.132,-282.286 274.182,-270.888"/>
</g>
<!-- 14&#45;&#45;19 -->
<g id="edge248" class="edge"><title>14&#45;&#45;19</title>
<path fill="none" stroke="green" stroke-width="3" d="M399.321,-339.2C384.87,-364.025 358.088,-410.035 343.636,-434.863"/>
</g>
<!-- 14&#45;&#45;21 -->
<g id="edge252" class="edge"><title>14&#45;&#45;21</title>
<path fill="none" stroke="blue" stroke-width="3" d="M414.943,-339.877C421.597,-360.212 432.484,-393.481 439.183,-413.95"/>
</g>
<!-- 15&#45;&#45;20 -->
<g id="edge264" class="edge"><title>15&#45;&#45;20</title>
<path fill="none" stroke="blue" stroke-width="3" d="M299.231,-264.452C285.616,-280.574 264.634,-305.42 251.062,-321.492"/>
</g>
<!-- 15&#45;&#45;22 -->
<g id="edge268" class="edge"><title>15&#45;&#45;22</title>
<path fill="none" stroke="green" stroke-width="3" d="M305.379,-266.084C287.566,-309.149 241.693,-420.053 223.793,-463.33"/>
</g>
<!-- 15&#45;&#45;24 -->
<g id="edge270" class="edge"><title>15&#45;&#45;24</title>
<path fill="none" stroke="blue" stroke-width="3" d="M310.326,-266.796C308.504,-281.342 305.961,-301.643 304.139,-316.182"/>
</g>
<!-- 15&#45;&#45;17 -->
<g id="edge260" class="edge"><title>15&#45;&#45;17</title>
<path fill="none" stroke="green" stroke-width="3" d="M287.613,-241.57C244.275,-229.347 155.658,-204.355 112.242,-192.111"/>
</g>
<!-- 15&#45;&#45;19 -->
<g id="edge262" class="edge"><title>15&#45;&#45;19</title>
<path fill="none" stroke="green" stroke-width="3" d="M314.482,-266.649C318.5,-305.206 327.887,-395.289 331.901,-433.811"/>
</g>
<!-- 15&#45;&#45;21 -->
<g id="edge266" class="edge"><title>15&#45;&#45;21</title>
<path fill="none" stroke="blue" stroke-width="3" d="M324.357,-264.881C349.492,-299.659 408.213,-380.91 433.324,-415.655"/>
</g>
<!-- 16&#45;&#45;24 -->
<g id="edge278" class="edge"><title>16&#45;&#45;24</title>
<path fill="none" stroke="blue" stroke-width="3" d="M434.929,-270.592C405.403,-284.736 353.582,-309.56 324.077,-323.694"/>
</g>
<!-- 16&#45;&#45;23 -->
<g id="edge276" class="edge"><title>16&#45;&#45;23</title>
<path fill="none" stroke="red" stroke-width="3" d="M430.166,-260.187C390.561,-260.562 317.16,-261.255 277.551,-261.63"/>
</g>
<!-- 16&#45;&#45;19 -->
<g id="edge272" class="edge"><title>16&#45;&#45;19</title>
<path fill="none" stroke="red" stroke-width="3" d="M446.447,-276.624C423.108,-312.91 367.971,-398.636 344.574,-435.012"/>
</g>
<!-- 16&#45;&#45;21 -->
<g id="edge274" class="edge"><title>16&#45;&#45;21</title>
<path fill="none" stroke="red" stroke-width="3" d="M455.907,-278.009C453.577,-311.033 448.659,-380.754 446.328,-413.79"/>
</g>
<!-- 18&#45;&#45;20 -->
<g id="edge286" class="edge"><title>18&#45;&#45;20</title>
<path fill="none" stroke="green" stroke-width="3" d="M158.737,-397.957C176.099,-384.614 202.395,-364.404 219.83,-351.004"/>
</g>
<!-- 18&#45;&#45;22 -->
<g id="edge288" class="edge"><title>18&#45;&#45;22</title>
<path fill="none" stroke="blue" stroke-width="3" d="M156.991,-426.323C169.804,-438.099 187.687,-454.533 200.494,-466.304"/>
</g>
<!-- 18&#45;&#45;24 -->
<g id="edge292" class="edge"><title>18&#45;&#45;24</title>
<path fill="none" stroke="blue" stroke-width="3" d="M163.011,-401.024C193.735,-386.268 249.121,-359.666 279.84,-344.912"/>
</g>
<!-- 18&#45;&#45;23 -->
<g id="edge290" class="edge"><title>18&#45;&#45;23</title>
<path fill="none" stroke="green" stroke-width="3" d="M152.91,-395.299C173.983,-366.498 217.548,-306.959 238.61,-278.173"/>
</g>
<!-- 18&#45;&#45;19 -->
<g id="edge284" class="edge"><title>18&#45;&#45;19</title>
<path fill="none" stroke="green" stroke-width="3" d="M166.979,-417.027C203.879,-424.72 271.037,-438.722 307.879,-446.403"/>
</g>
<!-- 20&#45;&#45;24 -->
<g id="edge306" class="edge"><title>20&#45;&#45;24</title>
<path fill="none" stroke="blue" stroke-width="3" d="M264.972,-335.979C268.246,-335.833 271.589,-335.684 274.86,-335.538"/>
</g>
<!-- 20&#45;&#45;23 -->
<g id="edge304" class="edge"><title>20&#45;&#45;23</title>
<path fill="none" stroke="green" stroke-width="3" d="M240.885,-318.961C242.885,-307.121 245.481,-291.753 247.476,-279.946"/>
</g>
<!-- 20&#45;&#45;21 -->
<g id="edge302" class="edge"><title>20&#45;&#45;21</title>
<path fill="none" stroke="blue" stroke-width="3" d="M260.378,-347.504C300.244,-365.719 382.66,-403.375 422.506,-421.581"/>
</g>
<!-- 22&#45;&#45;24 -->
<g id="edge310" class="edge"><title>22&#45;&#45;24</title>
<path fill="none" stroke="blue" stroke-width="3" d="M226.278,-464.175C242.661,-436.034 275.441,-379.724 291.922,-351.414"/>
</g>
<!-- 4&#45;&#45;5 -->
<g id="edge80" class="edge"><title>4&#45;&#45;5</title>
<path fill="none" stroke="green" stroke-width="3" d="M328.507,-180.552C310.176,-224.358 262.316,-338.736 243.974,-382.569"/>
</g>
<!-- 4&#45;&#45;8 -->
<g id="edge84" class="edge"><title>4&#45;&#45;8</title>
<path fill="none" stroke="green" stroke-width="3" d="M311.341,-171.261C277.241,-182.593 215.769,-203.022 181.675,-214.352"/>
</g>
<!-- 4&#45;&#45;10 -->
<g id="edge86" class="edge"><title>4&#45;&#45;10</title>
<path fill="none" stroke="blue" stroke-width="3" d="M319.224,-177.767C283.108,-209.661 197.663,-285.115 161.706,-316.868"/>
</g>
<!-- 4&#45;&#45;14 -->
<g id="edge92" class="edge"><title>4&#45;&#45;14</title>
<path fill="none" stroke="green" stroke-width="3" d="M343.788,-180.467C357.904,-211.077 387.087,-274.359 401.196,-304.954"/>
</g>
<!-- 4&#45;&#45;15 -->
<g id="edge94" class="edge"><title>4&#45;&#45;15</title>
<path fill="none" stroke="green" stroke-width="3" d="M330.877,-181.263C326.914,-195.868 321.374,-216.289 317.435,-230.808"/>
</g>
<!-- 4&#45;&#45;16 -->
<g id="edge96" class="edge"><title>4&#45;&#45;16</title>
<path fill="none" stroke="blue" stroke-width="3" d="M353.187,-177.003C376.263,-195.404 416.763,-227.701 439.823,-246.089"/>
</g>
<!-- 4&#45;&#45;7 -->
<g id="edge82" class="edge"><title>4&#45;&#45;7</title>
<path fill="none" stroke="blue" stroke-width="3" d="M340.589,-180.965C351.6,-221.925 378.597,-322.352 389.592,-363.255"/>
</g>
<!-- 4&#45;&#45;24 -->
<g id="edge98" class="edge"><title>4&#45;&#45;24</title>
<path fill="none" stroke="blue" stroke-width="3" d="M332.228,-181.132C325.712,-214.012 311.954,-283.428 305.435,-316.321"/>
</g>
<!-- 4&#45;&#45;12 -->
<g id="edge90" class="edge"><title>4&#45;&#45;12</title>
<path fill="none" stroke="blue" stroke-width="3" d="M316.708,-176.249C283.519,-199.055 215.564,-245.749 182.499,-268.469"/>
</g>
<!-- 4&#45;&#45;11 -->
<g id="edge88" class="edge"><title>4&#45;&#45;11</title>
<path fill="none" stroke="green" stroke-width="3" d="M332.917,-181.321C326.176,-223.918 309.429,-329.739 302.724,-372.109"/>
</g>
<!-- 7&#45;&#45;8 -->
<g id="edge142" class="edge"><title>7&#45;&#45;8</title>
<path fill="none" stroke="red" stroke-width="3" d="M374.964,-368.052C330.385,-338.247 221.088,-265.171 176.571,-235.408"/>
</g>
<!-- 7&#45;&#45;15 -->
<g id="edge146" class="edge"><title>7&#45;&#45;15</title>
<path fill="none" stroke="blue" stroke-width="3" d="M384.014,-364.257C368.372,-338.927 338.878,-291.165 323.133,-265.669"/>
</g>
<!-- 7&#45;&#45;18 -->
<g id="edge148" class="edge"><title>7&#45;&#45;18</title>
<path fill="none" stroke="blue" stroke-width="3" d="M367.731,-384.241C319.065,-390.114 216.323,-402.514 167.64,-408.389"/>
</g>
<!-- 7&#45;&#45;20 -->
<g id="edge150" class="edge"><title>7&#45;&#45;20</title>
<path fill="none" stroke="blue" stroke-width="3" d="M369.215,-373.983C339.998,-365.803 292.087,-352.388 262.897,-344.215"/>
</g>
<!-- 7&#45;&#45;22 -->
<g id="edge154" class="edge"><title>7&#45;&#45;22</title>
<path fill="none" stroke="blue" stroke-width="3" d="M373.616,-392.69C339.431,-411.903 271.659,-449.991 237.381,-469.255"/>
</g>
<!-- 7&#45;&#45;24 -->
<g id="edge156" class="edge"><title>7&#45;&#45;24</title>
<path fill="none" stroke="red" stroke-width="3" d="M372.447,-369.961C357.701,-362.518 338.343,-352.747 323.63,-345.32"/>
</g>
<!-- 7&#45;&#45;11 -->
<g id="edge144" class="edge"><title>7&#45;&#45;11</title>
<path fill="none" stroke="red" stroke-width="3" d="M367.546,-383.593C354.779,-384.815 339.548,-386.272 326.772,-387.495"/>
</g>
<!-- 7&#45;&#45;21 -->
<g id="edge152" class="edge"><title>7&#45;&#45;21</title>
<path fill="none" stroke="red" stroke-width="3" d="M409.576,-396.285C415.991,-402.722 423.443,-410.199 429.856,-416.635"/>
</g>
<!-- 17&#45;&#45;20 -->
<g id="edge280" class="edge"><title>17&#45;&#45;20</title>
<path fill="none" stroke="green" stroke-width="3" d="M102.137,-200.177C131.016,-229.343 194.037,-292.988 222.868,-322.105"/>
</g>
<!-- 17&#45;&#45;23 -->
<g id="edge282" class="edge"><title>17&#45;&#45;23</title>
<path fill="none" stroke="red" stroke-width="3" d="M109.516,-195.557C140.804,-210.274 197.279,-236.839 228.422,-251.487"/>
</g>
<!-- 12&#45;&#45;15 -->
<g id="edge216" class="edge"><title>12&#45;&#45;15</title>
<path fill="none" stroke="green" stroke-width="3" d="M189.545,-275.742C216.896,-269.713 259.707,-260.277 286.945,-254.273"/>
</g>
<!-- 12&#45;&#45;16 -->
<g id="edge218" class="edge"><title>12&#45;&#45;16</title>
<path fill="none" stroke="blue" stroke-width="3" d="M190.683,-279.476C246.614,-275.374 374.279,-266.012 430.154,-261.914"/>
</g>
<!-- 12&#45;&#45;18 -->
<g id="edge222" class="edge"><title>12&#45;&#45;18</title>
<path fill="none" stroke="blue" stroke-width="3" d="M160.445,-299.559C156.125,-324.423 148.401,-368.881 144.095,-393.664"/>
</g>
<!-- 12&#45;&#45;22 -->
<g id="edge226" class="edge"><title>12&#45;&#45;22</title>
<path fill="none" stroke="green" stroke-width="3" d="M168.376,-299.523C178.447,-337.512 201.718,-425.297 211.746,-463.124"/>
</g>
<!-- 12&#45;&#45;24 -->
<g id="edge228" class="edge"><title>12&#45;&#45;24</title>
<path fill="none" stroke="blue" stroke-width="3" d="M187.046,-290.432C212.473,-300.154 252.821,-315.582 278.293,-325.321"/>
</g>
<!-- 12&#45;&#45;17 -->
<g id="edge220" class="edge"><title>12&#45;&#45;17</title>
<path fill="none" stroke="green" stroke-width="3" d="M150.965,-265.54C136.8,-247.672 113.955,-218.856 99.7826,-200.979"/>
</g>
<!-- 12&#45;&#45;19 -->
<g id="edge224" class="edge"><title>12&#45;&#45;19</title>
<path fill="none" stroke="green" stroke-width="3" d="M178.692,-296.58C210.906,-328.823 286.061,-404.045 318.462,-436.474"/>
</g>
<!-- 11&#45;&#45;16 -->
<g id="edge198" class="edge"><title>11&#45;&#45;16</title>
<path fill="none" stroke="red" stroke-width="3" d="M317.015,-375.893C347.273,-350.86 409.827,-299.109 440.07,-274.089"/>
</g>
<!-- 11&#45;&#45;18 -->
<g id="edge202" class="edge"><title>11&#45;&#45;18</title>
<path fill="none" stroke="green" stroke-width="3" d="M273.285,-393.673C243.952,-397.649 197.029,-404.009 167.662,-407.99"/>
</g>
<!-- 11&#45;&#45;20 -->
<g id="edge206" class="edge"><title>11&#45;&#45;20</title>
<path fill="none" stroke="green" stroke-width="3" d="M282.919,-375.619C274.16,-368.157 263.503,-359.08 254.747,-351.621"/>
</g>
<!-- 11&#45;&#45;22 -->
<g id="edge210" class="edge"><title>11&#45;&#45;22</title>
<path fill="none" stroke="green" stroke-width="3" d="M285.734,-405.493C270.398,-422.214 246.064,-448.748 230.701,-465.498"/>
</g>
<!-- 11&#45;&#45;24 -->
<g id="edge214" class="edge"><title>11&#45;&#45;24</title>
<path fill="none" stroke="red" stroke-width="3" d="M300.531,-371.819C300.752,-365.596 301,-358.645 301.221,-352.434"/>
</g>
<!-- 11&#45;&#45;17 -->
<g id="edge200" class="edge"><title>11&#45;&#45;17</title>
<path fill="none" stroke="green" stroke-width="3" d="M284.238,-374.991C244.8,-336.981 141.672,-237.588 102.519,-199.854"/>
</g>
<!-- 11&#45;&#45;23 -->
<g id="edge212" class="edge"><title>11&#45;&#45;23</title>
<path fill="none" stroke="red" stroke-width="3" d="M293.122,-372.513C283.724,-348.104 266.802,-304.154 257.363,-279.639"/>
</g>
<!-- 11&#45;&#45;19 -->
<g id="edge204" class="edge"><title>11&#45;&#45;19</title>
<path fill="none" stroke="red" stroke-width="3" d="M309.323,-407.264C314.024,-415.827 319.691,-426.148 324.385,-434.698"/>
</g>
<!-- 11&#45;&#45;21 -->
<g id="edge208" class="edge"><title>11&#45;&#45;21</title>
<path fill="none" stroke="red" stroke-width="3" d="M324.837,-397.256C351.427,-404.915 393.285,-416.972 419.936,-424.648"/>
</g>
<!-- 19&#45;&#45;20 -->
<g id="edge294" class="edge"><title>19&#45;&#45;20</title>
<path fill="none" stroke="green" stroke-width="3" d="M320.431,-435.865C302.096,-413.968 269.312,-374.816 251.036,-352.991"/>
</g>
<!-- 19&#45;&#45;24 -->
<g id="edge300" class="edge"><title>19&#45;&#45;24</title>
<path fill="none" stroke="red" stroke-width="3" d="M328.929,-433.961C322.931,-411.882 312.776,-374.499 306.757,-352.343"/>
</g>
<!-- 19&#45;&#45;23 -->
<g id="edge298" class="edge"><title>19&#45;&#45;23</title>
<path fill="none" stroke="green" stroke-width="3" d="M326.093,-434.275C310.234,-398.095 274.035,-315.513 258.192,-279.369"/>
</g>
<!-- 19&#45;&#45;21 -->
<g id="edge296" class="edge"><title>19&#45;&#45;21</title>
<path fill="none" stroke="red" stroke-width="3" d="M359.865,-447.132C377.595,-443.958 400.964,-439.775 418.74,-436.593"/>
</g>
<!-- 6 -->
<g id="node86" class="node"><title>6</title>
<ellipse fill="none" stroke="black" cx="28.1224" cy="-378.536" rx="27" ry="18"/>
<text text-anchor="middle" x="28.1224" y="-374.436" font-family="Times Roman,serif" font-size="14.00">6</text>
</g>
<!-- 6&#45;&#45;8 -->
<g id="edge126" class="edge"><title>6&#45;&#45;8</title>
<path fill="none" stroke="red" stroke-width="3" d="M41.2124,-362.713C65.9577,-332.802 119.333,-268.284 144.105,-238.341"/>
</g>
<!-- 6&#45;&#45;10 -->
<g id="edge128" class="edge"><title>6&#45;&#45;10</title>
<path fill="none" stroke="red" stroke-width="3" d="M51.2747,-369.213C71.6858,-360.994 101.288,-349.074 121.804,-340.813"/>
</g>
<!-- 6&#45;&#45;18 -->
<g id="edge134" class="edge"><title>6&#45;&#45;18</title>
<path fill="none" stroke="blue" stroke-width="3" d="M52.889,-385.793C71.5757,-391.269 97.1118,-398.752 115.879,-404.252"/>
</g>
<!-- 6&#45;&#45;20 -->
<g id="edge136" class="edge"><title>6&#45;&#45;20</title>
<path fill="none" stroke="blue" stroke-width="3" d="M54.2548,-373.383C94.5453,-365.438 171.383,-350.287 211.673,-342.343"/>
</g>
<!-- 6&#45;&#45;22 -->
<g id="edge138" class="edge"><title>6&#45;&#45;22</title>
<path fill="none" stroke="blue" stroke-width="3" d="M49.3637,-390.091C85.6363,-409.822 159.101,-449.785 195.32,-469.487"/>
</g>
<!-- 6&#45;&#45;24 -->
<g id="edge140" class="edge"><title>6&#45;&#45;24</title>
<path fill="none" stroke="red" stroke-width="3" d="M54.37,-374.298C106.56,-365.871 222.842,-347.094 275.295,-338.625"/>
</g>
<!-- 6&#45;&#45;17 -->
<g id="edge132" class="edge"><title>6&#45;&#45;17</title>
<path fill="none" stroke="red" stroke-width="3" d="M33.5688,-360.678C44.8119,-323.815 70.4747,-239.672 81.7065,-202.846"/>
</g>
<!-- 6&#45;&#45;12 -->
<g id="edge130" class="edge"><title>6&#45;&#45;12</title>
<path fill="none" stroke="blue" stroke-width="3" d="M46.6743,-365.242C72.471,-346.757 118.918,-313.474 144.826,-294.908"/>
</g>
<!-- 21&#45;&#45;24 -->
<g id="edge308" class="edge"><title>21&#45;&#45;24</title>
<path fill="none" stroke="red" stroke-width="3" d="M426.038,-418.929C398.651,-400.271 348.388,-366.029 320.958,-347.341"/>
</g>
</g>
</svg>
