<?xml version="1.0" encoding="UTF-8" standalone="no"?>
<!DOCTYPE svg PUBLIC "-//W3C//DTD SVG 1.1//EN"
 "http://www.w3.org/Graphics/SVG/1.1/DTD/svg11.dtd">
<!-- Generated by graphviz version 2.26.3 (20100126.1600)
 -->
<!-- Title: G Pages: 1 -->
<svg width="501pt" height="633pt"
 viewBox="0.00 0.00 501.00 633.00" xmlns="http://www.w3.org/2000/svg" xmlns:xlink="http://www.w3.org/1999/xlink">
<g id="graph1" class="graph" transform="scale(1 1) rotate(0) translate(4 629)">
<title>G</title>
<polygon fill="white" stroke="white" points="-4,5 -4,-629 498,-629 498,5 -4,5"/>
<!-- 0 -->
<g id="node1" class="node"><title>0</title>
<ellipse fill="none" stroke="black" cx="307.654" cy="-19.3397" rx="27" ry="18"/>
<text text-anchor="middle" x="307.654" y="-15.2397" font-family="Times Roman,serif" font-size="14.00">0</text>
</g>
<!-- 12 -->
<g id="node3" class="node"><title>12</title>
<ellipse fill="none" stroke="black" cx="245.28" cy="-195.554" rx="27" ry="18"/>
<text text-anchor="middle" x="245.28" y="-191.454" font-family="Times Roman,serif" font-size="14.00">12</text>
</g>
<!-- 0&#45;&#45;12 -->
<g id="edge2" class="edge"><title>0&#45;&#45;12</title>
<path fill="none" stroke="red" d="M301.445,-36.88C289.52,-70.5697 263.534,-143.984 251.556,-177.823"/>
</g>
<!-- 23 -->
<g id="node5" class="node"><title>23</title>
<ellipse fill="none" stroke="black" cx="341.174" cy="-115.678" rx="27" ry="18"/>
<text text-anchor="middle" x="341.174" y="-111.578" font-family="Times Roman,serif" font-size="14.00">23</text>
</g>
<!-- 0&#45;&#45;23 -->
<g id="edge4" class="edge"><title>0&#45;&#45;23</title>
<path fill="none" stroke="blue" d="M313.802,-37.0096C319.85,-54.3921 329.03,-80.7763 335.065,-98.1201"/>
</g>
<!-- 20 -->
<g id="node32" class="node"><title>20</title>
<ellipse fill="none" stroke="black" cx="192.95" cy="-98.4206" rx="27" ry="18"/>
<text text-anchor="middle" x="192.95" y="-94.3206" font-family="Times Roman,serif" font-size="14.00">20</text>
</g>
<!-- 12&#45;&#45;20 -->
<g id="edge102" class="edge"><title>12&#45;&#45;20</title>
<path fill="none" stroke="red" d="M235.924,-178.189C226.399,-160.508 211.72,-133.262 202.225,-115.636"/>
</g>
<!-- 21 -->
<g id="node46" class="node"><title>21</title>
<ellipse fill="none" stroke="black" cx="103.902" cy="-147.77" rx="27" ry="18"/>
<text text-anchor="middle" x="103.902" y="-143.67" font-family="Times Roman,serif" font-size="14.00">21</text>
</g>
<!-- 12&#45;&#45;21 -->
<g id="edge104" class="edge"><title>12&#45;&#45;21</title>
<path fill="none" stroke="green" d="M220.976,-187.34C195.081,-178.587 154.316,-164.809 128.362,-156.037"/>
</g>
<!-- 24 -->
<g id="node66" class="node"><title>24</title>
<ellipse fill="none" stroke="black" cx="232.75" cy="-438.729" rx="27" ry="18"/>
<text text-anchor="middle" x="232.75" y="-434.629" font-family="Times Roman,serif" font-size="14.00">24</text>
</g>
<!-- 12&#45;&#45;24 -->
<g id="edge100" class="edge"><title>12&#45;&#45;24</title>
<path fill="none" stroke="green" d="M244.338,-213.832C242.01,-259.008 236.007,-375.521 233.686,-420.571"/>
</g>
<!-- 1 -->
<g id="node6" class="node"><title>1</title>
<ellipse fill="none" stroke="black" cx="249.873" cy="-575.879" rx="27" ry="18"/>
<text text-anchor="middle" x="249.873" y="-571.779" font-family="Times Roman,serif" font-size="14.00">1</text>
</g>
<!-- 8 -->
<g id="node8" class="node"><title>8</title>
<ellipse fill="none" stroke="black" cx="296.596" cy="-429.764" rx="27" ry="18"/>
<text text-anchor="middle" x="296.596" y="-425.664" font-family="Times Roman,serif" font-size="14.00">8</text>
</g>
<!-- 1&#45;&#45;8 -->
<g id="edge6" class="edge"><title>1&#45;&#45;8</title>
<path fill="none" stroke="red" d="M255.509,-558.255C264.489,-530.171 281.947,-475.575 290.94,-447.452"/>
</g>
<!-- 17 -->
<g id="node10" class="node"><title>17</title>
<ellipse fill="none" stroke="black" cx="365.768" cy="-558.48" rx="27" ry="18"/>
<text text-anchor="middle" x="365.768" y="-554.38" font-family="Times Roman,serif" font-size="14.00">17</text>
</g>
<!-- 1&#45;&#45;17 -->
<g id="edge8" class="edge"><title>1&#45;&#45;17</title>
<path fill="none" stroke="blue" d="M276.461,-571.888C295.307,-569.058 320.485,-565.278 339.303,-562.453"/>
</g>
<!-- 18 -->
<g id="node12" class="node"><title>18</title>
<ellipse fill="none" stroke="black" cx="143.636" cy="-454.374" rx="27" ry="18"/>
<text text-anchor="middle" x="143.636" y="-450.274" font-family="Times Roman,serif" font-size="14.00">18</text>
</g>
<!-- 1&#45;&#45;18 -->
<g id="edge10" class="edge"><title>1&#45;&#45;18</title>
<path fill="none" stroke="blue" d="M235.984,-559.995C215.624,-536.708 177.89,-493.551 157.528,-470.263"/>
</g>
<!-- 13 -->
<g id="node14" class="node"><title>13</title>
<ellipse fill="none" stroke="black" cx="340.874" cy="-606.192" rx="27" ry="18"/>
<text text-anchor="middle" x="340.874" y="-602.092" font-family="Times Roman,serif" font-size="14.00">13</text>
</g>
<!-- 1&#45;&#45;13 -->
<g id="edge12" class="edge"><title>1&#45;&#45;13</title>
<path fill="none" stroke="black" d="M274.259,-584.003C287.316,-588.352 303.353,-593.694 316.42,-598.046"/>
</g>
<!-- 22 -->
<g id="node16" class="node"><title>22</title>
<ellipse fill="none" stroke="black" cx="182.745" cy="-600.955" rx="27" ry="18"/>
<text text-anchor="middle" x="182.745" y="-596.855" font-family="Times Roman,serif" font-size="14.00">22</text>
</g>
<!-- 1&#45;&#45;22 -->
<g id="edge14" class="edge"><title>1&#45;&#45;22</title>
<path fill="none" stroke="black" d="M226.017,-584.791C219.686,-587.155 212.851,-589.709 206.524,-592.072"/>
</g>
<!-- 8&#45;&#45;18 -->
<g id="edge80" class="edge"><title>8&#45;&#45;18</title>
<path fill="none" stroke="blue" d="M270.301,-433.995C242.284,-438.503 198.181,-445.598 170.1,-450.117"/>
</g>
<!-- 8&#45;&#45;13 -->
<g id="edge74" class="edge"><title>8&#45;&#45;13</title>
<path fill="none" stroke="blue" d="M301.085,-447.652C309.572,-481.467 327.877,-554.406 336.372,-588.257"/>
</g>
<!-- 11 -->
<g id="node24" class="node"><title>11</title>
<ellipse fill="none" stroke="black" cx="335.301" cy="-265.474" rx="27" ry="18"/>
<text text-anchor="middle" x="335.301" y="-261.374" font-family="Times Roman,serif" font-size="14.00">11</text>
</g>
<!-- 8&#45;&#45;11 -->
<g id="edge72" class="edge"><title>8&#45;&#45;11</title>
<path fill="none" stroke="blue" d="M300.812,-411.87C308.257,-380.267 323.649,-314.934 331.09,-283.347"/>
</g>
<!-- 16 -->
<g id="node28" class="node"><title>16</title>
<ellipse fill="none" stroke="black" cx="362.944" cy="-384.104" rx="27" ry="18"/>
<text text-anchor="middle" x="362.944" y="-380.004" font-family="Times Roman,serif" font-size="14.00">16</text>
</g>
<!-- 8&#45;&#45;16 -->
<g id="edge78" class="edge"><title>8&#45;&#45;16</title>
<path fill="none" stroke="red" d="M315.431,-416.802C324.319,-410.685 334.908,-403.398 343.831,-397.258"/>
</g>
<!-- 14 -->
<g id="node38" class="node"><title>14</title>
<ellipse fill="none" stroke="black" cx="114.215" cy="-352.397" rx="27" ry="18"/>
<text text-anchor="middle" x="114.215" y="-348.297" font-family="Times Roman,serif" font-size="14.00">14</text>
</g>
<!-- 8&#45;&#45;14 -->
<g id="edge76" class="edge"><title>8&#45;&#45;14</title>
<path fill="none" stroke="red" d="M273.497,-419.966C238.416,-405.084 172.096,-376.951 137.126,-362.116"/>
</g>
<!-- 8&#45;&#45;24 -->
<g id="edge82" class="edge"><title>8&#45;&#45;24</title>
<path fill="none" stroke="blue" d="M269.889,-433.514C266.472,-433.994 262.973,-434.485 259.555,-434.965"/>
</g>
<!-- 17&#45;&#45;24 -->
<g id="edge116" class="edge"><title>17&#45;&#45;24</title>
<path fill="none" stroke="green" d="M349.457,-543.796C323.928,-520.813 274.806,-476.59 249.194,-453.533"/>
</g>
<!-- 18&#45;&#45;22 -->
<g id="edge120" class="edge"><title>18&#45;&#45;22</title>
<path fill="none" stroke="black" d="M148.432,-472.348C155.938,-500.481 170.38,-554.611 177.91,-582.834"/>
</g>
<!-- 19 -->
<g id="node30" class="node"><title>19</title>
<ellipse fill="none" stroke="black" cx="159.528" cy="-291.222" rx="27" ry="18"/>
<text text-anchor="middle" x="159.528" y="-287.122" font-family="Times Roman,serif" font-size="14.00">19</text>
</g>
<!-- 18&#45;&#45;19 -->
<g id="edge118" class="edge"><title>18&#45;&#45;19</title>
<path fill="none" stroke="black" d="M145.398,-436.291C148.452,-404.93 154.698,-340.804 157.759,-309.387"/>
</g>
<!-- 18&#45;&#45;24 -->
<g id="edge122" class="edge"><title>18&#45;&#45;24</title>
<path fill="none" stroke="blue" d="M169.891,-449.765C181.392,-447.746 194.861,-445.381 206.375,-443.359"/>
</g>
<!-- 13&#45;&#45;22 -->
<g id="edge106" class="edge"><title>13&#45;&#45;22</title>
<path fill="none" stroke="black" d="M313.69,-605.292C284.639,-604.33 238.855,-602.813 209.838,-601.852"/>
</g>
<!-- 22&#45;&#45;24 -->
<g id="edge128" class="edge"><title>22&#45;&#45;24</title>
<path fill="none" stroke="green" d="M188.192,-583.285C197.811,-552.079 217.696,-487.567 227.31,-456.377"/>
</g>
<!-- 2 -->
<g id="node17" class="node"><title>2</title>
<ellipse fill="none" stroke="black" cx="266.222" cy="-248.345" rx="27" ry="18"/>
<text text-anchor="middle" x="266.222" y="-244.245" font-family="Times Roman,serif" font-size="14.00">2</text>
</g>
<!-- 2&#45;&#45;23 -->
<g id="edge32" class="edge"><title>2&#45;&#45;23</title>
<path fill="none" stroke="green" d="M275.868,-231.273C290.259,-205.799 317.196,-158.12 331.566,-132.685"/>
</g>
<!-- 2&#45;&#45;8 -->
<g id="edge20" class="edge"><title>2&#45;&#45;8</title>
<path fill="none" stroke="red" d="M269.246,-266.403C275.068,-301.178 287.772,-377.062 293.585,-411.779"/>
</g>
<!-- 4 -->
<g id="node19" class="node"><title>4</title>
<ellipse fill="none" stroke="black" cx="157.758" cy="-234.619" rx="27" ry="18"/>
<text text-anchor="middle" x="157.758" y="-230.519" font-family="Times Roman,serif" font-size="14.00">4</text>
</g>
<!-- 2&#45;&#45;4 -->
<g id="edge16" class="edge"><title>2&#45;&#45;4</title>
<path fill="none" stroke="red" d="M239.689,-244.987C222.881,-242.86 201.221,-240.119 184.394,-237.99"/>
</g>
<!-- 5 -->
<g id="node21" class="node"><title>5</title>
<ellipse fill="none" stroke="black" cx="97.4702" cy="-287.716" rx="27" ry="18"/>
<text text-anchor="middle" x="97.4702" y="-283.616" font-family="Times Roman,serif" font-size="14.00">5</text>
</g>
<!-- 2&#45;&#45;5 -->
<g id="edge18" class="edge"><title>2&#45;&#45;5</title>
<path fill="none" stroke="green" d="M240.593,-254.325C208.783,-261.746 154.858,-274.327 123.064,-281.745"/>
</g>
<!-- 2&#45;&#45;11 -->
<g id="edge22" class="edge"><title>2&#45;&#45;11</title>
<path fill="none" stroke="green" d="M291.552,-254.626C297.559,-256.115 303.967,-257.704 309.974,-259.194"/>
</g>
<!-- 15 -->
<g id="node26" class="node"><title>15</title>
<ellipse fill="none" stroke="black" cx="246.756" cy="-364.49" rx="27" ry="18"/>
<text text-anchor="middle" x="246.756" y="-360.39" font-family="Times Roman,serif" font-size="14.00">15</text>
</g>
<!-- 2&#45;&#45;15 -->
<g id="edge24" class="edge"><title>2&#45;&#45;15</title>
<path fill="none" stroke="red" d="M263.223,-266.238C259.576,-288 253.454,-324.528 249.791,-346.386"/>
</g>
<!-- 2&#45;&#45;16 -->
<g id="edge26" class="edge"><title>2&#45;&#45;16</title>
<path fill="none" stroke="green" d="M277.889,-264.721C296.48,-290.814 332.619,-341.541 351.236,-367.671"/>
</g>
<!-- 2&#45;&#45;19 -->
<g id="edge28" class="edge"><title>2&#45;&#45;19</title>
<path fill="none" stroke="red" d="M243.071,-257.649C225.298,-264.791 200.856,-274.614 183.002,-281.789"/>
</g>
<!-- 2&#45;&#45;20 -->
<g id="edge30" class="edge"><title>2&#45;&#45;20</title>
<path fill="none" stroke="red" d="M257.817,-231.147C243.758,-202.381 215.627,-144.819 201.483,-115.88"/>
</g>
<!-- 4&#45;&#45;5 -->
<g id="edge40" class="edge"><title>4&#45;&#45;5</title>
<path fill="none" stroke="black" d="M141.284,-249.128C132.778,-256.62 122.428,-265.735 113.924,-273.225"/>
</g>
<!-- 4&#45;&#45;11 -->
<g id="edge46" class="edge"><title>4&#45;&#45;11</title>
<path fill="none" stroke="blue" d="M183.955,-239.172C217.523,-245.006 275.377,-255.06 308.996,-260.903"/>
</g>
<!-- 7 -->
<g id="node41" class="node"><title>7</title>
<ellipse fill="none" stroke="black" cx="245.767" cy="-299.967" rx="27" ry="18"/>
<text text-anchor="middle" x="245.767" y="-295.867" font-family="Times Roman,serif" font-size="14.00">7</text>
</g>
<!-- 4&#45;&#45;7 -->
<g id="edge42" class="edge"><title>4&#45;&#45;7</title>
<path fill="none" stroke="blue" d="M175.994,-248.159C191.098,-259.375 212.457,-275.234 227.555,-286.444"/>
</g>
<!-- 9 -->
<g id="node43" class="node"><title>9</title>
<ellipse fill="none" stroke="black" cx="27.9268" cy="-364.004" rx="27" ry="18"/>
<text text-anchor="middle" x="27.9268" y="-359.904" font-family="Times Roman,serif" font-size="14.00">9</text>
</g>
<!-- 4&#45;&#45;9 -->
<g id="edge44" class="edge"><title>4&#45;&#45;9</title>
<path fill="none" stroke="black" d="M142.611,-249.715C117.594,-274.646 67.9314,-324.137 42.9778,-349.005"/>
</g>
<!-- 4&#45;&#45;21 -->
<g id="edge48" class="edge"><title>4&#45;&#45;21</title>
<path fill="none" stroke="red" d="M147.374,-217.874C137.837,-202.495 123.781,-179.827 114.254,-164.464"/>
</g>
<!-- 5&#45;&#45;18 -->
<g id="edge54" class="edge"><title>5&#45;&#45;18</title>
<path fill="none" stroke="blue" d="M102.411,-305.552C111.296,-337.629 129.871,-404.684 138.731,-436.667"/>
</g>
<!-- 5&#45;&#45;7 -->
<g id="edge50" class="edge"><title>5&#45;&#45;7</title>
<path fill="none" stroke="blue" d="M124.326,-289.935C151.035,-292.141 191.796,-295.508 218.61,-297.723"/>
</g>
<!-- 5&#45;&#45;21 -->
<g id="edge56" class="edge"><title>5&#45;&#45;21</title>
<path fill="none" stroke="green" d="M98.2979,-269.707C99.5261,-242.983 101.819,-193.093 103.057,-166.154"/>
</g>
<!-- 10 -->
<g id="node49" class="node"><title>10</title>
<ellipse fill="none" stroke="black" cx="179.306" cy="-391.423" rx="27" ry="18"/>
<text text-anchor="middle" x="179.306" y="-387.323" font-family="Times Roman,serif" font-size="14.00">10</text>
</g>
<!-- 5&#45;&#45;10 -->
<g id="edge52" class="edge"><title>5&#45;&#45;10</title>
<path fill="none" stroke="black" d="M110.257,-303.921C125.631,-323.404 151.275,-355.901 166.609,-375.333"/>
</g>
<!-- 11&#45;&#45;23 -->
<g id="edge98" class="edge"><title>11&#45;&#45;23</title>
<path fill="none" stroke="blue" d="M336.009,-247.405C337.138,-218.614 339.332,-162.643 340.463,-133.811"/>
</g>
<!-- 11&#45;&#45;15 -->
<g id="edge94" class="edge"><title>11&#45;&#45;15</title>
<path fill="none" stroke="green" d="M321.466,-280.945C304.928,-299.438 277.409,-330.212 260.786,-348.801"/>
</g>
<!-- 11&#45;&#45;16 -->
<g id="edge96" class="edge"><title>11&#45;&#45;16</title>
<path fill="none" stroke="green" d="M339.499,-283.491C344.725,-305.918 353.595,-343.982 358.797,-366.306"/>
</g>
<!-- 15&#45;&#45;18 -->
<g id="edge112" class="edge"><title>15&#45;&#45;18</title>
<path fill="none" stroke="black" d="M230.188,-378.932C210.945,-395.705 179.389,-423.211 160.163,-439.969"/>
</g>
<!-- 15&#45;&#45;19 -->
<g id="edge114" class="edge"><title>15&#45;&#45;19</title>
<path fill="none" stroke="black" d="M229.938,-350.364C214.59,-337.473 192.016,-318.511 176.592,-305.556"/>
</g>
<!-- 19&#45;&#45;21 -->
<g id="edge124" class="edge"><title>19&#45;&#45;21</title>
<path fill="none" stroke="red" d="M152.707,-273.632C142.031,-246.1 121.489,-193.124 110.779,-165.504"/>
</g>
<!-- 20&#45;&#45;23 -->
<g id="edge126" class="edge"><title>20&#45;&#45;23</title>
<path fill="none" stroke="green" d="M219.792,-101.546C246.655,-104.673 287.739,-109.457 314.531,-112.576"/>
</g>
<!-- 3 -->
<g id="node34" class="node"><title>3</title>
<ellipse fill="none" stroke="black" cx="41.0858" cy="-186.005" rx="27" ry="18"/>
<text text-anchor="middle" x="41.0858" y="-181.905" font-family="Times Roman,serif" font-size="14.00">3</text>
</g>
<!-- 3&#45;&#45;5 -->
<g id="edge36" class="edge"><title>3&#45;&#45;5</title>
<path fill="none" stroke="black" d="M50.6506,-203.259C61.0819,-222.076 77.6714,-252.002 88.0466,-270.717"/>
</g>
<!-- 3&#45;&#45;20 -->
<g id="edge34" class="edge"><title>3&#45;&#45;20</title>
<path fill="none" stroke="green" d="M61.5669,-174.193C90.5512,-157.477 143.237,-127.092 172.309,-110.325"/>
</g>
<!-- 3&#45;&#45;14 -->
<g id="edge38" class="edge"><title>3&#45;&#45;14</title>
<path fill="none" stroke="red" d="M48.7737,-203.498C62.8188,-235.455 92.4706,-302.921 106.521,-334.89"/>
</g>
<!-- 14&#45;&#45;15 -->
<g id="edge110" class="edge"><title>14&#45;&#45;15</title>
<path fill="none" stroke="red" d="M141.037,-354.845C164.032,-356.943 196.991,-359.95 219.974,-362.047"/>
</g>
<!-- 14&#45;&#45;24 -->
<g id="edge108" class="edge"><title>14&#45;&#45;24</title>
<path fill="none" stroke="blue" d="M132.477,-365.697C154.687,-381.873 191.966,-409.024 214.273,-425.271"/>
</g>
<!-- 7&#45;&#45;12 -->
<g id="edge66" class="edge"><title>7&#45;&#45;12</title>
<path fill="none" stroke="red" d="M245.682,-281.779C245.593,-262.732 245.454,-232.984 245.365,-213.883"/>
</g>
<!-- 7&#45;&#45;16 -->
<g id="edge68" class="edge"><title>7&#45;&#45;16</title>
<path fill="none" stroke="red" d="M264.334,-313.299C286.275,-329.053 322.561,-355.108 344.464,-370.835"/>
</g>
<!-- 7&#45;&#45;19 -->
<g id="edge70" class="edge"><title>7&#45;&#45;19</title>
<path fill="none" stroke="blue" d="M218.953,-297.248C208.57,-296.195 196.707,-294.992 186.325,-293.94"/>
</g>
<!-- 7&#45;&#45;10 -->
<g id="edge64" class="edge"><title>7&#45;&#45;10</title>
<path fill="none" stroke="red" d="M233.885,-316.317C221.788,-332.964 203.145,-358.619 191.085,-375.214"/>
</g>
<!-- 9&#45;&#45;18 -->
<g id="edge86" class="edge"><title>9&#45;&#45;18</title>
<path fill="none" stroke="blue" d="M45.5006,-377.729C67.2487,-394.715 104.073,-423.475 125.897,-440.52"/>
</g>
<!-- 9&#45;&#45;10 -->
<g id="edge84" class="edge"><title>9&#45;&#45;10</title>
<path fill="none" stroke="black" d="M54.2951,-368.78C82.0797,-373.813 125.57,-381.69 153.24,-386.702"/>
</g>
<!-- 10&#45;&#45;15 -->
<g id="edge90" class="edge"><title>10&#45;&#45;15</title>
<path fill="none" stroke="black" d="M202.519,-382.155C209.225,-379.477 216.549,-376.552 223.272,-373.868"/>
</g>
<!-- 10&#45;&#45;16 -->
<g id="edge92" class="edge"><title>10&#45;&#45;16</title>
<path fill="none" stroke="black" d="M206.403,-390.343C241.122,-388.96 300.963,-386.575 335.737,-385.189"/>
</g>
<!-- 10&#45;&#45;14 -->
<g id="edge88" class="edge"><title>10&#45;&#45;14</title>
<path fill="none" stroke="blue" d="M159.068,-379.289C151.305,-374.635 142.448,-369.324 134.665,-364.658"/>
</g>
<!-- 6 -->
<g id="node52" class="node"><title>6</title>
<ellipse fill="none" stroke="black" cx="465.481" cy="-527.327" rx="27" ry="18"/>
<text text-anchor="middle" x="465.481" y="-523.227" font-family="Times Roman,serif" font-size="14.00">6</text>
</g>
<!-- 6&#45;&#45;17 -->
<g id="edge60" class="edge"><title>6&#45;&#45;17</title>
<path fill="none" stroke="green" d="M440.833,-535.028C425.492,-539.82 405.831,-545.963 390.478,-550.76"/>
</g>
<!-- 6&#45;&#45;13 -->
<g id="edge62" class="edge"><title>6&#45;&#45;13</title>
<path fill="none" stroke="black" d="M445.737,-539.823C422.404,-554.591 383.818,-579.012 360.526,-593.754"/>
</g>
<!-- 6&#45;&#45;16 -->
<g id="edge58" class="edge"><title>6&#45;&#45;16</title>
<path fill="none" stroke="black" d="M453.719,-510.897C434.045,-483.417 394.678,-428.429 374.885,-400.783"/>
</g>
</g>
</svg>
