<?xml version="1.0" encoding="UTF-8" standalone="no"?>
<!DOCTYPE svg PUBLIC "-//W3C//DTD SVG 1.1//EN"
 "http://www.w3.org/Graphics/SVG/1.1/DTD/svg11.dtd">
<!-- Generated by graphviz version 2.26.3 (20100126.1600)
 -->
<!-- Title: G Pages: 1 -->
<svg width="1035pt" height="332pt"
 viewBox="0.00 0.00 1035.00 332.00" xmlns="http://www.w3.org/2000/svg" xmlns:xlink="http://www.w3.org/1999/xlink">
<g id="graph1" class="graph" transform="scale(1 1) rotate(0) translate(4 328)">
<title>G</title>
<polygon fill="white" stroke="white" points="-4,5 -4,-328 1032,-328 1032,5 -4,5"/>
<!-- ece555ffd650 -->
<g id="node1" class="node"><title>ece555ffd650</title>
<ellipse fill="none" stroke="black" cx="426" cy="-306" rx="77.8268" ry="18"/>
<text text-anchor="middle" x="426" y="-301.9" font-family="Times Roman,serif" font-size="14.00">ece555ffd650</text>
</g>
<!-- ece555ffd5b9 -->
<g id="node3" class="node"><title>ece555ffd5b9</title>
<ellipse fill="none" stroke="black" cx="187" cy="-234" rx="77.1319" ry="18"/>
<text text-anchor="middle" x="187" y="-229.9" font-family="Times Roman,serif" font-size="14.00">ece555ffd5b9</text>
</g>
<!-- ece555ffd650&#45;&#45;ece555ffd5b9 -->
<g id="edge2" class="edge"><title>ece555ffd650&#45;&#45;ece555ffd5b9</title>
<path fill="none" stroke="blue" stroke-width="3" d="M378.496,-291.689C336.703,-279.099 276.18,-260.866 234.415,-248.284"/>
</g>
<!-- ece555748695 -->
<g id="node5" class="node"><title>ece555748695</title>
<ellipse fill="none" stroke="black" cx="894" cy="-234" rx="84.0808" ry="18"/>
<text text-anchor="middle" x="894" y="-229.9" font-family="Times Roman,serif" font-size="14.00">ece555748695</text>
</g>
<!-- ece555ffd650&#45;&#45;ece555748695 -->
<g id="edge4" class="edge"><title>ece555ffd650&#45;&#45;ece555748695</title>
<path fill="none" stroke="black" stroke-width="9" stroke-dasharray="1,5" d="M494.24,-297.178C569.512,-287.214 694.144,-270.024 801,-252 811.216,-250.277 822.037,-248.312 832.545,-246.328"/>
</g>
<!-- ece555ffd667 -->
<g id="node7" class="node"><title>ece555ffd667</title>
<ellipse fill="none" stroke="black" cx="360" cy="-234" rx="77.8268" ry="18"/>
<text text-anchor="middle" x="360" y="-229.9" font-family="Times Roman,serif" font-size="14.00">ece555ffd667</text>
</g>
<!-- ece555ffd650&#45;&#45;ece555ffd667 -->
<g id="edge6" class="edge"><title>ece555ffd650&#45;&#45;ece555ffd667</title>
<path fill="none" stroke="blue" stroke-width="2.91892" d="M409.685,-288.202C399.531,-277.125 386.517,-262.928 376.356,-251.843"/>
</g>
<!-- ece55574a4a5 -->
<g id="node12" class="node"><title>ece55574a4a5</title>
<ellipse fill="none" stroke="black" cx="404" cy="-162" rx="82.1898" ry="18"/>
<text text-anchor="middle" x="404" y="-157.9" font-family="Times Roman,serif" font-size="14.00">ece55574a4a5</text>
</g>
<!-- ece555ffd667&#45;&#45;ece55574a4a5 -->
<g id="edge22" class="edge"><title>ece555ffd667&#45;&#45;ece55574a4a5</title>
<path fill="none" stroke="black" stroke-width="9" stroke-dasharray="1,5" d="M371.103,-215.831C377.824,-204.833 386.36,-190.865 393.053,-179.913"/>
</g>
<!-- ece555ffd642 -->
<g id="node8" class="node"><title>ece555ffd642</title>
<ellipse fill="none" stroke="black" cx="534" cy="-234" rx="77.8268" ry="18"/>
<text text-anchor="middle" x="534" y="-229.9" font-family="Times Roman,serif" font-size="14.00">ece555ffd642</text>
</g>
<!-- ece555ffd5af -->
<g id="node10" class="node"><title>ece555ffd5af</title>
<ellipse fill="none" stroke="black" cx="666" cy="-162" rx="73.8534" ry="18"/>
<text text-anchor="middle" x="666" y="-157.9" font-family="Times Roman,serif" font-size="14.00">ece555ffd5af</text>
</g>
<!-- ece555ffd642&#45;&#45;ece555ffd5af -->
<g id="edge8" class="edge"><title>ece555ffd642&#45;&#45;ece555ffd5af</title>
<path fill="none" stroke="green" stroke-width="1.37288" d="M564.615,-217.301C585.94,-205.669 614.262,-190.221 635.551,-178.609"/>
</g>
<!-- ece555ffd642&#45;&#45;ece55574a4a5 -->
<g id="edge10" class="edge"><title>ece555ffd642&#45;&#45;ece55574a4a5</title>
<path fill="none" stroke="black" stroke-width="9" stroke-dasharray="1,5" d="M503.849,-217.301C482.997,-205.752 455.352,-190.441 434.438,-178.858"/>
</g>
<!-- ece555ffd5d6 -->
<g id="node25" class="node"><title>ece555ffd5d6</title>
<ellipse fill="none" stroke="black" cx="497" cy="-90" rx="77.1319" ry="18"/>
<text text-anchor="middle" x="497" y="-85.9" font-family="Times Roman,serif" font-size="14.00">ece555ffd5d6</text>
</g>
<!-- ece555ffd5af&#45;&#45;ece555ffd5d6 -->
<g id="edge28" class="edge"><title>ece555ffd5af&#45;&#45;ece555ffd5d6</title>
<path fill="none" stroke="green" stroke-width="3.33962" d="M628.912,-146.199C600.832,-134.236 562.423,-117.873 534.293,-105.888"/>
</g>
<!-- ece555ffd6cc -->
<g id="node28" class="node"><title>ece555ffd6cc</title>
<ellipse fill="none" stroke="black" cx="666" cy="-90" rx="73.8534" ry="18"/>
<text text-anchor="middle" x="666" y="-85.9" font-family="Times Roman,serif" font-size="14.00">ece555ffd6cc</text>
</g>
<!-- ece555ffd5af&#45;&#45;ece555ffd6cc -->
<g id="edge30" class="edge"><title>ece555ffd5af&#45;&#45;ece555ffd6cc</title>
<path fill="none" stroke="green" stroke-width="0.743119" d="M666,-143.831C666,-133 666,-119.288 666,-108.413"/>
</g>
<!-- ece555ffd5bf -->
<g id="node13" class="node"><title>ece555ffd5bf</title>
<ellipse fill="none" stroke="black" cx="256" cy="-306" rx="73.8534" ry="18"/>
<text text-anchor="middle" x="256" y="-301.9" font-family="Times Roman,serif" font-size="14.00">ece555ffd5bf</text>
</g>
<!-- ece555ffd5bf&#45;&#45;ece555ffd5b9 -->
<g id="edge12" class="edge"><title>ece555ffd5bf&#45;&#45;ece555ffd5b9</title>
<path fill="none" stroke="blue" stroke-width="3.11765" d="M238.944,-288.202C228.248,-277.042 214.518,-262.714 203.86,-251.593"/>
</g>
<!-- ece55571dca0 -->
<g id="node16" class="node"><title>ece55571dca0</title>
<ellipse fill="none" stroke="black" cx="711" cy="-234" rx="80.8024" ry="18"/>
<text text-anchor="middle" x="711" y="-229.9" font-family="Times Roman,serif" font-size="14.00">ece55571dca0</text>
</g>
<!-- ece555ffd5bf&#45;&#45;ece55571dca0 -->
<g id="edge14" class="edge"><title>ece555ffd5bf&#45;&#45;ece55571dca0</title>
<path fill="none" stroke="black" stroke-width="9" stroke-dasharray="1,5" d="M309.891,-293.604C319.555,-291.584 329.555,-289.624 339,-288 463.523,-266.591 496.308,-272.402 621,-252 631.064,-250.353 641.721,-248.405 652.046,-246.409"/>
</g>
<!-- ece55571dca0&#45;&#45;ece555ffd5af -->
<g id="edge20" class="edge"><title>ece55571dca0&#45;&#45;ece555ffd5af</title>
<path fill="none" stroke="black" stroke-width="9" stroke-dasharray="1,5" d="M699.645,-215.831C692.771,-204.833 684.041,-190.865 677.196,-179.913"/>
</g>
<!-- ece555ffd63a -->
<g id="node17" class="node"><title>ece555ffd63a</title>
<ellipse fill="none" stroke="black" cx="950" cy="-306" rx="77.1319" ry="18"/>
<text text-anchor="middle" x="950" y="-301.9" font-family="Times Roman,serif" font-size="14.00">ece555ffd63a</text>
</g>
<!-- ece555ffd63a&#45;&#45;ece555748695 -->
<g id="edge18" class="edge"><title>ece555ffd63a&#45;&#45;ece555748695</title>
<path fill="none" stroke="black" stroke-width="9" stroke-dasharray="1,5" d="M936.157,-288.202C927.542,-277.125 916.5,-262.928 907.878,-251.843"/>
</g>
<!-- ece555ffd63a&#45;&#45;ece555ffd5af -->
<g id="edge16" class="edge"><title>ece555ffd63a&#45;&#45;ece555ffd5af</title>
<path fill="none" stroke="green" stroke-width="3.03974" d="M967.219,-288.39C984.177,-268.898 1005.11,-237.412 987,-216 970.874,-196.934 823.997,-178.454 734.605,-168.84"/>
</g>
<!-- ece55571dd00 -->
<g id="node22" class="node"><title>ece55571dd00</title>
<ellipse fill="none" stroke="black" cx="82" cy="-306" rx="82.1898" ry="18"/>
<text text-anchor="middle" x="82" y="-301.9" font-family="Times Roman,serif" font-size="14.00">ece55571dd00</text>
</g>
<!-- ece55571dd00&#45;&#45;ece555ffd5b9 -->
<g id="edge24" class="edge"><title>ece55571dd00&#45;&#45;ece555ffd5b9</title>
<path fill="none" stroke="black" stroke-width="9" stroke-dasharray="1,5" d="M107.15,-288.754C123.774,-277.355 145.473,-262.475 162.055,-251.105"/>
</g>
<!-- ece55571dd00&#45;&#45;ece555ffd5d6 -->
<g id="edge26" class="edge"><title>ece55571dd00&#45;&#45;ece555ffd5d6</title>
<path fill="none" stroke="black" stroke-width="9" stroke-dasharray="1,5" d="M80.8703,-287.803C80.6406,-267.785 83.4064,-235.829 101,-216 124.402,-189.624 343.006,-130.051 445.024,-103.366"/>
</g>
<!-- ece55574a4d5 -->
<g id="node30" class="node"><title>ece55574a4d5</title>
<ellipse fill="none" stroke="black" cx="495" cy="-18" rx="82.1898" ry="18"/>
<text text-anchor="middle" x="495" y="-13.9" font-family="Times Roman,serif" font-size="14.00">ece55574a4d5</text>
</g>
<!-- ece555ffd6cc&#45;&#45;ece55574a4d5 -->
<g id="edge32" class="edge"><title>ece555ffd6cc&#45;&#45;ece55574a4d5</title>
<path fill="none" stroke="black" stroke-width="9" stroke-dasharray="1,5" d="M628.896,-74.3771C600.508,-62.4243 561.507,-46.003 532.919,-33.9659"/>
</g>
<!-- ece555ffd61e -->
<g id="node31" class="node"><title>ece555ffd61e</title>
<ellipse fill="none" stroke="black" cx="325" cy="-90" rx="77.1319" ry="18"/>
<text text-anchor="middle" x="325" y="-85.9" font-family="Times Roman,serif" font-size="14.00">ece555ffd61e</text>
</g>
<!-- ece555ffd61e&#45;&#45;ece55574a4d5 -->
<g id="edge34" class="edge"><title>ece555ffd61e&#45;&#45;ece55574a4d5</title>
<path fill="none" stroke="black" stroke-width="9" stroke-dasharray="1,5" d="M362.307,-74.1993C390.456,-62.2775 428.922,-45.9859 457.192,-34.0127"/>
</g>
</g>
</svg>
