<?xml version="1.0" encoding="UTF-8" standalone="no"?>
<!DOCTYPE svg PUBLIC "-//W3C//DTD SVG 1.1//EN"
 "http://www.w3.org/Graphics/SVG/1.1/DTD/svg11.dtd">
<!-- Generated by graphviz version 2.26.3 (20100126.1600)
 -->
<!-- Title: G Pages: 1 -->
<svg width="1214pt" height="1173pt"
 viewBox="0.00 0.00 1214.00 1173.00" xmlns="http://www.w3.org/2000/svg" xmlns:xlink="http://www.w3.org/1999/xlink">
<g id="graph1" class="graph" transform="scale(1 1) rotate(0) translate(4 1169)">
<title>G</title>
<polygon fill="white" stroke="white" points="-4,5 -4,-1169 1211,-1169 1211,5 -4,5"/>
<!-- 12_0 -->
<g id="node1" class="node"><title>12_0</title>
<polygon fill="none" stroke="black" points="436.687,-617.856 382.687,-617.856 382.687,-581.856 436.687,-581.856 436.687,-617.856"/>
<text text-anchor="middle" x="409.687" y="-595.756" font-family="Times Roman,serif" font-size="14.00">12_0</text>
</g>
<!-- 2_2 -->
<g id="node20" class="node"><title>2_2</title>
<polygon fill="none" stroke="black" points="322.708,-565.379 268.708,-565.379 268.708,-529.379 322.708,-529.379 322.708,-565.379"/>
<text text-anchor="middle" x="295.708" y="-543.279" font-family="Times Roman,serif" font-size="14.00">2_2</text>
</g>
<!-- 12_0&#45;&#45;2_2 -->
<g id="edge2" class="edge"><title>12_0&#45;&#45;2_2</title>
<path fill="none" stroke="red" stroke-width="5" stroke-dasharray="1,5" d="M382.675,-587.42C364.638,-579.115 340.999,-568.232 322.921,-559.908"/>
</g>
<!-- node_12 -->
<g id="node52" class="node"><title>node_12</title>
<ellipse fill="none" stroke="black" cx="448.155" cy="-765.98" rx="52.8111" ry="18"/>
<text text-anchor="middle" x="448.155" y="-761.88" font-family="Times Roman,serif" font-size="14.00">node_12</text>
</g>
<!-- 12_0&#45;&#45;node_12 -->
<g id="edge4" class="edge"><title>12_0&#45;&#45;node_12</title>
<path fill="none" stroke="black" stroke-width="2" d="M413.877,-617.951C421.276,-649.906 436.574,-715.969 443.97,-747.908"/>
</g>
<!-- 12_1 -->
<g id="node2" class="node"><title>12_1</title>
<polygon fill="none" stroke="black" points="505.849,-917.876 451.849,-917.876 451.849,-881.876 505.849,-881.876 505.849,-917.876"/>
<text text-anchor="middle" x="478.849" y="-895.776" font-family="Times Roman,serif" font-size="14.00">12_1</text>
</g>
<!-- 3_0 -->
<g id="node15" class="node"><title>3_0</title>
<polygon fill="none" stroke="black" points="498.623,-1037.16 444.623,-1037.16 444.623,-1001.16 498.623,-1001.16 498.623,-1037.16"/>
<text text-anchor="middle" x="471.623" y="-1015.06" font-family="Times Roman,serif" font-size="14.00">3_0</text>
</g>
<!-- 12_1&#45;&#45;3_0 -->
<g id="edge6" class="edge"><title>12_1&#45;&#45;3_0</title>
<path fill="none" stroke="green" stroke-width="5" stroke-dasharray="1,5" d="M477.752,-917.993C476.393,-940.414 474.094,-978.377 472.731,-1000.88"/>
</g>
<!-- 12_1&#45;&#45;node_12 -->
<g id="edge8" class="edge"><title>12_1&#45;&#45;node_12</title>
<path fill="none" stroke="black" stroke-width="2" d="M474.71,-881.818C468.851,-856.263 458.203,-809.811 452.327,-784.179"/>
</g>
<!-- 6_0 -->
<g id="node3" class="node"><title>6_0</title>
<polygon fill="none" stroke="black" points="414.081,-1003.77 360.081,-1003.77 360.081,-967.767 414.081,-967.767 414.081,-1003.77"/>
<text text-anchor="middle" x="387.081" y="-981.667" font-family="Times Roman,serif" font-size="14.00">6_0</text>
</g>
<!-- 6_0&#45;&#45;3_0 -->
<g id="edge10" class="edge"><title>6_0&#45;&#45;3_0</title>
<path fill="none" stroke="green" stroke-width="5" stroke-dasharray="1,5" d="M414.296,-996.518C423.95,-1000.33 434.809,-1004.62 444.459,-1008.43"/>
</g>
<!-- node_6 -->
<g id="node34" class="node"><title>node_6</title>
<ellipse fill="none" stroke="black" cx="333.332" cy="-1055.97" rx="46.0565" ry="18"/>
<text text-anchor="middle" x="333.332" y="-1051.87" font-family="Times Roman,serif" font-size="14.00">node_6</text>
</g>
<!-- 6_0&#45;&#45;node_6 -->
<g id="edge12" class="edge"><title>6_0&#45;&#45;node_6</title>
<path fill="none" stroke="black" stroke-width="2" d="M373.239,-1003.85C365.028,-1014.57 354.674,-1028.09 346.571,-1038.68"/>
</g>
<!-- 10_0 -->
<g id="node4" class="node"><title>10_0</title>
<polygon fill="none" stroke="black" points="508.337,-692.703 454.337,-692.703 454.337,-656.703 508.337,-656.703 508.337,-692.703"/>
<text text-anchor="middle" x="481.337" y="-670.603" font-family="Times Roman,serif" font-size="14.00">10_0</text>
</g>
<!-- 17_1 -->
<g id="node21" class="node"><title>17_1</title>
<polygon fill="none" stroke="black" points="606.177,-676.617 552.177,-676.617 552.177,-640.617 606.177,-640.617 606.177,-676.617"/>
<text text-anchor="middle" x="579.177" y="-654.517" font-family="Times Roman,serif" font-size="14.00">17_1</text>
</g>
<!-- 10_0&#45;&#45;17_1 -->
<g id="edge16" class="edge"><title>10_0&#45;&#45;17_1</title>
<path fill="none" stroke="orange" stroke-width="5" stroke-dasharray="1,5" d="M508.591,-670.222C522.161,-667.991 538.519,-665.302 552.069,-663.074"/>
</g>
<!-- node_10 -->
<g id="node54" class="node"><title>node_10</title>
<ellipse fill="none" stroke="black" cx="582.499" cy="-752.987" rx="52.8111" ry="18"/>
<text text-anchor="middle" x="582.499" y="-748.887" font-family="Times Roman,serif" font-size="14.00">node_10</text>
</g>
<!-- 10_0&#45;&#45;node_10 -->
<g id="edge18" class="edge"><title>10_0&#45;&#45;node_10</title>
<path fill="none" stroke="black" stroke-width="2" d="M504.8,-692.86C521.726,-705.959 544.405,-723.509 560.89,-736.265"/>
</g>
<!-- 20_0 -->
<g id="node56" class="node"><title>20_0</title>
<polygon fill="none" stroke="black" points="359.799,-673.778 305.799,-673.778 305.799,-637.778 359.799,-637.778 359.799,-673.778"/>
<text text-anchor="middle" x="332.799" y="-651.678" font-family="Times Roman,serif" font-size="14.00">20_0</text>
</g>
<!-- 10_0&#45;&#45;20_0 -->
<g id="edge14" class="edge"><title>10_0&#45;&#45;20_0</title>
<path fill="none" stroke="orange" stroke-width="5" stroke-dasharray="1,5" d="M454.093,-671.232C427.292,-667.817 386.611,-662.634 359.87,-659.227"/>
</g>
<!-- 13_0 -->
<g id="node5" class="node"><title>13_0</title>
<polygon fill="none" stroke="black" points="312.434,-753.99 258.434,-753.99 258.434,-717.99 312.434,-717.99 312.434,-753.99"/>
<text text-anchor="middle" x="285.434" y="-731.89" font-family="Times Roman,serif" font-size="14.00">13_0</text>
</g>
<!-- 7_1 -->
<g id="node11" class="node"><title>7_1</title>
<polygon fill="none" stroke="black" points="434.414,-709.186 380.414,-709.186 380.414,-673.186 434.414,-673.186 434.414,-709.186"/>
<text text-anchor="middle" x="407.414" y="-687.086" font-family="Times Roman,serif" font-size="14.00">7_1</text>
</g>
<!-- 13_0&#45;&#45;7_1 -->
<g id="edge22" class="edge"><title>13_0&#45;&#45;7_1</title>
<path fill="none" stroke="green" stroke-width="5" stroke-dasharray="1,5" d="M312.506,-726.047C332.579,-718.673 359.841,-708.66 379.997,-701.257"/>
</g>
<!-- node_13 -->
<g id="node51" class="node"><title>node_13</title>
<ellipse fill="none" stroke="black" cx="170.605" cy="-785.828" rx="52.8111" ry="18"/>
<text text-anchor="middle" x="170.605" y="-781.728" font-family="Times Roman,serif" font-size="14.00">node_13</text>
</g>
<!-- 13_0&#45;&#45;node_13 -->
<g id="edge20" class="edge"><title>13_0&#45;&#45;node_13</title>
<path fill="none" stroke="black" stroke-width="2" d="M258.222,-747.801C241.774,-754.939 220.703,-764.084 203.347,-771.617"/>
</g>
<!-- 10_1 -->
<g id="node6" class="node"><title>10_1</title>
<polygon fill="none" stroke="black" points="736.331,-864.361 682.331,-864.361 682.331,-828.361 736.331,-828.361 736.331,-864.361"/>
<text text-anchor="middle" x="709.331" y="-842.261" font-family="Times Roman,serif" font-size="14.00">10_1</text>
</g>
<!-- 9_1 -->
<g id="node23" class="node"><title>9_1</title>
<polygon fill="none" stroke="black" points="820.606,-919.172 766.606,-919.172 766.606,-883.172 820.606,-883.172 820.606,-919.172"/>
<text text-anchor="middle" x="793.606" y="-897.072" font-family="Times Roman,serif" font-size="14.00">9_1</text>
</g>
<!-- 10_1&#45;&#45;9_1 -->
<g id="edge24" class="edge"><title>10_1&#45;&#45;9_1</title>
<path fill="none" stroke="red" stroke-width="5" stroke-dasharray="1,5" d="M736.46,-864.005C746.083,-870.264 756.908,-877.304 766.528,-883.561"/>
</g>
<!-- 10_1&#45;&#45;node_10 -->
<g id="edge26" class="edge"><title>10_1&#45;&#45;node_10</title>
<path fill="none" stroke="black" stroke-width="2" d="M684.876,-828.358C661.697,-811.293 627.181,-785.882 604.755,-769.372"/>
</g>
<!-- 7_2 -->
<g id="node7" class="node"><title>7_2</title>
<polygon fill="none" stroke="black" points="316.494,-445.841 262.494,-445.841 262.494,-409.841 316.494,-409.841 316.494,-445.841"/>
<text text-anchor="middle" x="289.494" y="-423.741" font-family="Times Roman,serif" font-size="14.00">7_2</text>
</g>
<!-- 2_1 -->
<g id="node19" class="node"><title>2_1</title>
<polygon fill="none" stroke="black" points="235.525,-387.931 181.525,-387.931 181.525,-351.931 235.525,-351.931 235.525,-387.931"/>
<text text-anchor="middle" x="208.525" y="-365.831" font-family="Times Roman,serif" font-size="14.00">2_1</text>
</g>
<!-- 7_2&#45;&#45;2_1 -->
<g id="edge30" class="edge"><title>7_2&#45;&#45;2_1</title>
<path fill="none" stroke="blue" stroke-width="5" stroke-dasharray="1,5" d="M264.319,-409.835C254.663,-402.929 243.644,-395.049 233.964,-388.125"/>
</g>
<!-- node_7 -->
<g id="node33" class="node"><title>node_7</title>
<ellipse fill="none" stroke="black" cx="397.39" cy="-534.221" rx="46.0565" ry="18"/>
<text text-anchor="middle" x="397.39" y="-530.121" font-family="Times Roman,serif" font-size="14.00">node_7</text>
</g>
<!-- 7_2&#45;&#45;node_7 -->
<g id="edge28" class="edge"><title>7_2&#45;&#45;node_7</title>
<path fill="none" stroke="black" stroke-width="2" d="M307.798,-445.887C327.999,-465.804 360.27,-497.622 380.07,-517.144"/>
</g>
<!-- 18_0 -->
<g id="node8" class="node"><title>18_0</title>
<polygon fill="none" stroke="black" points="788.556,-98.2925 734.556,-98.2925 734.556,-62.2925 788.556,-62.2925 788.556,-98.2925"/>
<text text-anchor="middle" x="761.556" y="-76.1925" font-family="Times Roman,serif" font-size="14.00">18_0</text>
</g>
<!-- node_18 -->
<g id="node46" class="node"><title>node_18</title>
<ellipse fill="none" stroke="black" cx="807.889" cy="-18.71" rx="52.8111" ry="18"/>
<text text-anchor="middle" x="807.889" y="-14.61" font-family="Times Roman,serif" font-size="14.00">node_18</text>
</g>
<!-- 18_0&#45;&#45;node_18 -->
<g id="edge34" class="edge"><title>18_0&#45;&#45;node_18</title>
<path fill="none" stroke="black" stroke-width="2" d="M775.206,-62.1488C781.293,-54.0596 788.439,-44.5607 794.495,-36.5119"/>
</g>
<!-- 15_0 -->
<g id="node48" class="node"><title>15_0</title>
<polygon fill="none" stroke="black" points="718.756,-113.98 664.756,-113.98 664.756,-77.9803 718.756,-77.9803 718.756,-113.98"/>
<text text-anchor="middle" x="691.756" y="-91.8803" font-family="Times Roman,serif" font-size="14.00">15_0</text>
</g>
<!-- 18_0&#45;&#45;15_0 -->
<g id="edge32" class="edge"><title>18_0&#45;&#45;15_0</title>
<path fill="none" stroke="green" stroke-width="5" stroke-dasharray="1,5" d="M734.37,-86.4028C729.317,-87.5384 724.037,-88.7251 718.983,-89.861"/>
</g>
<!-- 8_0 -->
<g id="node9" class="node"><title>8_0</title>
<polygon fill="none" stroke="black" points="475.326,-321.421 421.326,-321.421 421.326,-285.421 475.326,-285.421 475.326,-321.421"/>
<text text-anchor="middle" x="448.326" y="-299.321" font-family="Times Roman,serif" font-size="14.00">8_0</text>
</g>
<!-- 7_0 -->
<g id="node12" class="node"><title>7_0</title>
<polygon fill="none" stroke="black" points="512.775,-417.111 458.775,-417.111 458.775,-381.111 512.775,-381.111 512.775,-417.111"/>
<text text-anchor="middle" x="485.775" y="-395.011" font-family="Times Roman,serif" font-size="14.00">7_0</text>
</g>
<!-- 8_0&#45;&#45;7_0 -->
<g id="edge36" class="edge"><title>8_0&#45;&#45;7_0</title>
<path fill="none" stroke="red" stroke-width="5" stroke-dasharray="1,5" d="M455.546,-321.871C462.22,-338.924 472.078,-364.112 478.703,-381.042"/>
</g>
<!-- node_8 -->
<g id="node32" class="node"><title>node_8</title>
<ellipse fill="none" stroke="black" cx="412.087" cy="-184.738" rx="46.0565" ry="18"/>
<text text-anchor="middle" x="412.087" y="-180.638" font-family="Times Roman,serif" font-size="14.00">node_8</text>
</g>
<!-- 8_0&#45;&#45;node_8 -->
<g id="edge38" class="edge"><title>8_0&#45;&#45;node_8</title>
<path fill="none" stroke="black" stroke-width="2" d="M442.822,-285.396C436.01,-263.089 424.477,-225.318 417.642,-202.933"/>
</g>
<!-- 1_0 -->
<g id="node10" class="node"><title>1_0</title>
<polygon fill="none" stroke="black" points="150.677,-293.53 96.6768,-293.53 96.6768,-257.53 150.677,-257.53 150.677,-293.53"/>
<text text-anchor="middle" x="123.677" y="-271.43" font-family="Times Roman,serif" font-size="14.00">1_0</text>
</g>
<!-- 1_0&#45;&#45;2_1 -->
<g id="edge40" class="edge"><title>1_0&#45;&#45;2_1</title>
<path fill="none" stroke="blue" stroke-width="5" stroke-dasharray="1,5" d="M140.036,-293.732C155.061,-310.448 177.207,-335.087 192.216,-351.786"/>
</g>
<!-- node_1 -->
<g id="node39" class="node"><title>node_1</title>
<ellipse fill="none" stroke="black" cx="47.7932" cy="-188.915" rx="46.0565" ry="18"/>
<text text-anchor="middle" x="47.7932" y="-184.815" font-family="Times Roman,serif" font-size="14.00">node_1</text>
</g>
<!-- 1_0&#45;&#45;node_1 -->
<g id="edge42" class="edge"><title>1_0&#45;&#45;node_1</title>
<path fill="none" stroke="black" stroke-width="2" d="M107.584,-257.162C94.3581,-242.065 75.7594,-220.836 62.8307,-206.079"/>
</g>
<!-- 11_0 -->
<g id="node28" class="node"><title>11_0</title>
<polygon fill="none" stroke="black" points="383.766,-824.816 329.766,-824.816 329.766,-788.816 383.766,-788.816 383.766,-824.816"/>
<text text-anchor="middle" x="356.766" y="-802.716" font-family="Times Roman,serif" font-size="14.00">11_0</text>
</g>
<!-- 7_1&#45;&#45;11_0 -->
<g id="edge46" class="edge"><title>7_1&#45;&#45;11_0</title>
<path fill="none" stroke="green" stroke-width="5" stroke-dasharray="1,5" d="M399.5,-709.253C390.041,-730.849 374.3,-766.786 364.791,-788.494"/>
</g>
<!-- 7_1&#45;&#45;node_7 -->
<g id="edge44" class="edge"><title>7_1&#45;&#45;node_7</title>
<path fill="none" stroke="black" stroke-width="2" d="M406.264,-673.18C404.341,-643.063 400.492,-582.799 398.558,-552.5"/>
</g>
<!-- 0_1 -->
<g id="node14" class="node"><title>0_1</title>
<polygon fill="none" stroke="black" points="613.904,-363.534 559.904,-363.534 559.904,-327.534 613.904,-327.534 613.904,-363.534"/>
<text text-anchor="middle" x="586.904" y="-341.434" font-family="Times Roman,serif" font-size="14.00">0_1</text>
</g>
<!-- 7_0&#45;&#45;0_1 -->
<g id="edge50" class="edge"><title>7_0&#45;&#45;0_1</title>
<path fill="none" stroke="red" stroke-width="5" stroke-dasharray="1,5" d="M512.876,-384.753C527.385,-377.066 545.207,-367.625 559.728,-359.931"/>
</g>
<!-- 7_0&#45;&#45;node_7 -->
<g id="edge48" class="edge"><title>7_0&#45;&#45;node_7</title>
<path fill="none" stroke="black" stroke-width="2" d="M473.855,-417.333C456.798,-443.407 425.636,-491.042 408.842,-516.716"/>
</g>
<!-- 0_0 -->
<g id="node13" class="node"><title>0_0</title>
<polygon fill="none" stroke="black" points="902.136,-288.641 848.136,-288.641 848.136,-252.641 902.136,-252.641 902.136,-288.641"/>
<text text-anchor="middle" x="875.136" y="-266.541" font-family="Times Roman,serif" font-size="14.00">0_0</text>
</g>
<!-- 5_0 -->
<g id="node26" class="node"><title>5_0</title>
<polygon fill="none" stroke="black" points="988.178,-345.489 934.178,-345.489 934.178,-309.489 988.178,-309.489 988.178,-345.489"/>
<text text-anchor="middle" x="961.178" y="-323.389" font-family="Times Roman,serif" font-size="14.00">5_0</text>
</g>
<!-- 0_0&#45;&#45;5_0 -->
<g id="edge54" class="edge"><title>0_0&#45;&#45;5_0</title>
<path fill="none" stroke="orange" stroke-width="5" stroke-dasharray="1,5" d="M902.36,-288.628C912.502,-295.329 924.004,-302.928 934.13,-309.619"/>
</g>
<!-- 14_0 -->
<g id="node29" class="node"><title>14_0</title>
<polygon fill="none" stroke="black" points="985.372,-227.177 931.372,-227.177 931.372,-191.177 985.372,-191.177 985.372,-227.177"/>
<text text-anchor="middle" x="958.372" y="-205.077" font-family="Times Roman,serif" font-size="14.00">14_0</text>
</g>
<!-- 0_0&#45;&#45;14_0 -->
<g id="edge52" class="edge"><title>0_0&#45;&#45;14_0</title>
<path fill="none" stroke="orange" stroke-width="5" stroke-dasharray="1,5" d="M899.659,-252.532C910.401,-244.6 922.982,-235.31 933.736,-227.368"/>
</g>
<!-- node_0 -->
<g id="node40" class="node"><title>node_0</title>
<ellipse fill="none" stroke="black" cx="714.998" cy="-288.517" rx="46.0565" ry="18"/>
<text text-anchor="middle" x="714.998" y="-284.417" font-family="Times Roman,serif" font-size="14.00">node_0</text>
</g>
<!-- 0_0&#45;&#45;node_0 -->
<g id="edge56" class="edge"><title>0_0&#45;&#45;node_0</title>
<path fill="none" stroke="black" stroke-width="2" d="M847.97,-273.674C823.699,-276.383 787.687,-280.403 759.26,-283.576"/>
</g>
<!-- 0_1&#45;&#45;node_0 -->
<g id="edge58" class="edge"><title>0_1&#45;&#45;node_0</title>
<path fill="none" stroke="black" stroke-width="2" d="M614.069,-333.442C634.632,-324.289 662.889,-311.711 684.275,-302.192"/>
</g>
<!-- node_3 -->
<g id="node37" class="node"><title>node_3</title>
<ellipse fill="none" stroke="black" cx="469.382" cy="-1146.29" rx="46.0565" ry="18"/>
<text text-anchor="middle" x="469.382" y="-1142.19" font-family="Times Roman,serif" font-size="14.00">node_3</text>
</g>
<!-- 3_0&#45;&#45;node_3 -->
<g id="edge60" class="edge"><title>3_0&#45;&#45;node_3</title>
<path fill="none" stroke="black" stroke-width="2" d="M471.302,-1037.38C470.876,-1061.55 470.128,-1103.96 469.703,-1128.11"/>
</g>
<!-- 16_0 -->
<g id="node16" class="node"><title>16_0</title>
<polygon fill="none" stroke="black" points="1047.76,-826.628 993.765,-826.628 993.765,-790.628 1047.76,-790.628 1047.76,-826.628"/>
<text text-anchor="middle" x="1020.76" y="-804.528" font-family="Times Roman,serif" font-size="14.00">16_0</text>
</g>
<!-- 9_0 -->
<g id="node24" class="node"><title>9_0</title>
<polygon fill="none" stroke="black" points="1060.7,-929.384 1006.7,-929.384 1006.7,-893.384 1060.7,-893.384 1060.7,-929.384"/>
<text text-anchor="middle" x="1033.7" y="-907.284" font-family="Times Roman,serif" font-size="14.00">9_0</text>
</g>
<!-- 16_0&#45;&#45;9_0 -->
<g id="edge64" class="edge"><title>16_0&#45;&#45;9_0</title>
<path fill="none" stroke="blue" stroke-width="5" stroke-dasharray="1,5" d="M1023.08,-826.998C1025.43,-845.702 1029.06,-874.526 1031.41,-893.172"/>
</g>
<!-- node_16 -->
<g id="node58" class="node"><title>node_16</title>
<ellipse fill="none" stroke="black" cx="941.61" cy="-708.739" rx="52.8111" ry="18"/>
<text text-anchor="middle" x="941.61" y="-704.639" font-family="Times Roman,serif" font-size="14.00">node_16</text>
</g>
<!-- 16_0&#45;&#45;node_16 -->
<g id="edge62" class="edge"><title>16_0&#45;&#45;node_16</title>
<path fill="none" stroke="black" stroke-width="2" d="M1006.25,-790.306C991.786,-772.058 969.743,-744.241 955.505,-726.274"/>
</g>
<!-- 16_1 -->
<g id="node17" class="node"><title>16_1</title>
<polygon fill="none" stroke="black" points="880.061,-625.382 826.061,-625.382 826.061,-589.382 880.061,-589.382 880.061,-625.382"/>
<text text-anchor="middle" x="853.061" y="-603.282" font-family="Times Roman,serif" font-size="14.00">16_1</text>
</g>
<!-- 16_1&#45;&#45;node_16 -->
<g id="edge66" class="edge"><title>16_1&#45;&#45;node_16</title>
<path fill="none" stroke="black" stroke-width="2" d="M868.892,-625.502C885.208,-644.179 910.463,-673.086 926.507,-691.452"/>
</g>
<!-- 2_0 -->
<g id="node18" class="node"><title>2_0</title>
<polygon fill="none" stroke="black" points="82.3803,-464.193 28.3803,-464.193 28.3803,-428.193 82.3803,-428.193 82.3803,-464.193"/>
<text text-anchor="middle" x="55.3803" y="-442.093" font-family="Times Roman,serif" font-size="14.00">2_0</text>
</g>
<!-- node_2 -->
<g id="node38" class="node"><title>node_2</title>
<ellipse fill="none" stroke="black" cx="175.817" cy="-474.387" rx="46.0565" ry="18"/>
<text text-anchor="middle" x="175.817" y="-470.287" font-family="Times Roman,serif" font-size="14.00">node_2</text>
</g>
<!-- 2_0&#45;&#45;node_2 -->
<g id="edge68" class="edge"><title>2_0&#45;&#45;node_2</title>
<path fill="none" stroke="black" stroke-width="2" d="M82.4088,-452.52C98.2213,-456.222 118.474,-460.963 136.077,-465.084"/>
</g>
<!-- 2_1&#45;&#45;node_2 -->
<g id="edge70" class="edge"><title>2_1&#45;&#45;node_2</title>
<path fill="none" stroke="black" stroke-width="2" d="M202.828,-388.126C196.825,-407.298 187.428,-437.308 181.449,-456.401"/>
</g>
<!-- 2_2&#45;&#45;node_2 -->
<g id="edge72" class="edge"><title>2_2&#45;&#45;node_2</title>
<path fill="none" stroke="black" stroke-width="2" d="M268.503,-530.816C248.191,-518.45 220.645,-501.679 200.871,-489.64"/>
</g>
<!-- node_17 -->
<g id="node47" class="node"><title>node_17</title>
<ellipse fill="none" stroke="black" cx="734.008" cy="-660.481" rx="52.8111" ry="18"/>
<text text-anchor="middle" x="734.008" y="-656.381" font-family="Times Roman,serif" font-size="14.00">node_17</text>
</g>
<!-- 17_1&#45;&#45;node_17 -->
<g id="edge74" class="edge"><title>17_1&#45;&#45;node_17</title>
<path fill="none" stroke="black" stroke-width="2" d="M606.501,-658.946C627.076,-659.194 655.924,-659.541 680.977,-659.842"/>
</g>
<!-- 17_0 -->
<g id="node22" class="node"><title>17_0</title>
<polygon fill="none" stroke="black" points="891.609,-671.367 837.609,-671.367 837.609,-635.367 891.609,-635.367 891.609,-671.367"/>
<text text-anchor="middle" x="864.609" y="-649.267" font-family="Times Roman,serif" font-size="14.00">17_0</text>
</g>
<!-- 4_0 -->
<g id="node27" class="node"><title>4_0</title>
<polygon fill="none" stroke="black" points="995.723,-617.328 941.723,-617.328 941.723,-581.328 995.723,-581.328 995.723,-617.328"/>
<text text-anchor="middle" x="968.723" y="-595.228" font-family="Times Roman,serif" font-size="14.00">4_0</text>
</g>
<!-- 17_0&#45;&#45;4_0 -->
<g id="edge78" class="edge"><title>17_0&#45;&#45;4_0</title>
<path fill="none" stroke="blue" stroke-width="5" stroke-dasharray="1,5" d="M891.692,-639.31C906.996,-631.367 926.074,-621.465 941.414,-613.502"/>
</g>
<!-- 17_0&#45;&#45;node_17 -->
<g id="edge76" class="edge"><title>17_0&#45;&#45;node_17</title>
<path fill="none" stroke="black" stroke-width="2" d="M837.549,-654.841C822.755,-655.646 803.919,-656.672 786.379,-657.628"/>
</g>
<!-- node_9 -->
<g id="node31" class="node"><title>node_9</title>
<ellipse fill="none" stroke="black" cx="923.537" cy="-948.916" rx="46.0565" ry="18"/>
<text text-anchor="middle" x="923.537" y="-944.816" font-family="Times Roman,serif" font-size="14.00">node_9</text>
</g>
<!-- 9_1&#45;&#45;node_9 -->
<g id="edge80" class="edge"><title>9_1&#45;&#45;node_9</title>
<path fill="none" stroke="black" stroke-width="2" d="M820.844,-911.181C840.936,-918.563 868.395,-928.654 889.864,-936.543"/>
</g>
<!-- 9_0&#45;&#45;node_9 -->
<g id="edge82" class="edge"><title>9_0&#45;&#45;node_9</title>
<path fill="none" stroke="black" stroke-width="2" d="M1006.47,-920.662C991.944,-925.611 973.909,-931.755 958.371,-937.049"/>
</g>
<!-- 15_1 -->
<g id="node25" class="node"><title>15_1</title>
<polygon fill="none" stroke="black" points="852.922,-341.692 798.922,-341.692 798.922,-305.692 852.922,-305.692 852.922,-341.692"/>
<text text-anchor="middle" x="825.922" y="-319.592" font-family="Times Roman,serif" font-size="14.00">15_1</text>
</g>
<!-- 4_1 -->
<g id="node44" class="node"><title>4_1</title>
<polygon fill="none" stroke="black" points="921.672,-399.117 867.672,-399.117 867.672,-363.117 921.672,-363.117 921.672,-399.117"/>
<text text-anchor="middle" x="894.672" y="-377.017" font-family="Times Roman,serif" font-size="14.00">4_1</text>
</g>
<!-- 15_1&#45;&#45;4_1 -->
<g id="edge86" class="edge"><title>15_1&#45;&#45;4_1</title>
<path fill="none" stroke="orange" stroke-width="5" stroke-dasharray="1,5" d="M847.675,-341.861C855.7,-348.565 864.791,-356.158 872.824,-362.868"/>
</g>
<!-- node_15 -->
<g id="node49" class="node"><title>node_15</title>
<ellipse fill="none" stroke="black" cx="765.055" cy="-195.631" rx="52.8111" ry="18"/>
<text text-anchor="middle" x="765.055" y="-191.531" font-family="Times Roman,serif" font-size="14.00">node_15</text>
</g>
<!-- 15_1&#45;&#45;node_15 -->
<g id="edge84" class="edge"><title>15_1&#45;&#45;node_15</title>
<path fill="none" stroke="black" stroke-width="2" d="M817.331,-305.615C805.73,-281.209 785.181,-237.974 773.603,-213.615"/>
</g>
<!-- node_5 -->
<g id="node35" class="node"><title>node_5</title>
<ellipse fill="none" stroke="black" cx="1055.26" cy="-431.658" rx="46.0565" ry="18"/>
<text text-anchor="middle" x="1055.26" y="-427.558" font-family="Times Roman,serif" font-size="14.00">node_5</text>
</g>
<!-- 5_0&#45;&#45;node_5 -->
<g id="edge88" class="edge"><title>5_0&#45;&#45;node_5</title>
<path fill="none" stroke="black" stroke-width="2" d="M977.566,-345.634C995.046,-364.986 1022.53,-395.412 1039.69,-414.413"/>
</g>
<!-- node_4 -->
<g id="node36" class="node"><title>node_4</title>
<ellipse fill="none" stroke="black" cx="954.877" cy="-484.686" rx="46.0565" ry="18"/>
<text text-anchor="middle" x="954.877" y="-480.586" font-family="Times Roman,serif" font-size="14.00">node_4</text>
</g>
<!-- 4_0&#45;&#45;node_4 -->
<g id="edge92" class="edge"><title>4_0&#45;&#45;node_4</title>
<path fill="none" stroke="black" stroke-width="2" d="M966.529,-581.163C963.937,-559.696 959.649,-524.196 957.06,-502.766"/>
</g>
<!-- 5_1 -->
<g id="node57" class="node"><title>5_1</title>
<polygon fill="none" stroke="black" points="1088.73,-570.154 1034.73,-570.154 1034.73,-534.154 1088.73,-534.154 1088.73,-570.154"/>
<text text-anchor="middle" x="1061.73" y="-548.054" font-family="Times Roman,serif" font-size="14.00">5_1</text>
</g>
<!-- 4_0&#45;&#45;5_1 -->
<g id="edge90" class="edge"><title>4_0&#45;&#45;5_1</title>
<path fill="none" stroke="blue" stroke-width="5" stroke-dasharray="1,5" d="M996.126,-585.429C1008.24,-579.287 1022.44,-572.084 1034.52,-565.953"/>
</g>
<!-- 19_1 -->
<g id="node41" class="node"><title>19_1</title>
<polygon fill="none" stroke="black" points="443.33,-913.494 389.33,-913.494 389.33,-877.494 443.33,-877.494 443.33,-913.494"/>
<text text-anchor="middle" x="416.33" y="-891.394" font-family="Times Roman,serif" font-size="14.00">19_1</text>
</g>
<!-- 11_0&#45;&#45;19_1 -->
<g id="edge94" class="edge"><title>11_0&#45;&#45;19_1</title>
<path fill="none" stroke="green" stroke-width="5" stroke-dasharray="1,5" d="M369.108,-825.19C379.399,-840.511 393.979,-862.218 404.208,-877.447"/>
</g>
<!-- node_11 -->
<g id="node53" class="node"><title>node_11</title>
<ellipse fill="none" stroke="black" cx="252.17" cy="-885.163" rx="52.8111" ry="18"/>
<text text-anchor="middle" x="252.17" y="-881.063" font-family="Times Roman,serif" font-size="14.00">node_11</text>
</g>
<!-- 11_0&#45;&#45;node_11 -->
<g id="edge96" class="edge"><title>11_0&#45;&#45;node_11</title>
<path fill="none" stroke="black" stroke-width="2" d="M332.507,-824.987C314.885,-838.187 291.233,-855.903 274.16,-868.691"/>
</g>
<!-- node_14 -->
<g id="node50" class="node"><title>node_14</title>
<ellipse fill="none" stroke="black" cx="1077.81" cy="-133.376" rx="52.8111" ry="18"/>
<text text-anchor="middle" x="1077.81" y="-129.276" font-family="Times Roman,serif" font-size="14.00">node_14</text>
</g>
<!-- 14_0&#45;&#45;node_14 -->
<g id="edge98" class="edge"><title>14_0&#45;&#45;node_14</title>
<path fill="none" stroke="black" stroke-width="2" d="M985.474,-191.976C1005.57,-179.222 1032.78,-161.955 1052.45,-149.472"/>
</g>
<!-- 14_1 -->
<g id="node30" class="node"><title>14_1</title>
<polygon fill="none" stroke="black" points="1205.05,-84.9947 1151.05,-84.9947 1151.05,-48.9947 1205.05,-48.9947 1205.05,-84.9947"/>
<text text-anchor="middle" x="1178.05" y="-62.8947" font-family="Times Roman,serif" font-size="14.00">14_1</text>
</g>
<!-- 14_1&#45;&#45;node_14 -->
<g id="edge100" class="edge"><title>14_1&#45;&#45;node_14</title>
<path fill="none" stroke="black" stroke-width="2" d="M1150.92,-84.9585C1135.73,-95.0186 1116.94,-107.461 1102.22,-117.214"/>
</g>
<!-- node_5&#45;&#45;5_1 -->
<g id="edge102" class="edge"><title>node_5&#45;&#45;5_1</title>
<path fill="none" stroke="black" stroke-width="2" d="M1056.23,-449.697C1057.45,-472.413 1059.53,-511.217 1060.76,-533.991"/>
</g>
<!-- node_4&#45;&#45;4_1 -->
<g id="edge104" class="edge"><title>node_4&#45;&#45;4_1</title>
<path fill="none" stroke="black" stroke-width="2" d="M944.664,-467.117C933.66,-448.187 916.238,-418.217 905.137,-399.12"/>
</g>
<!-- node_19 -->
<g id="node45" class="node"><title>node_19</title>
<ellipse fill="none" stroke="black" cx="537.53" cy="-968.497" rx="52.8111" ry="18"/>
<text text-anchor="middle" x="537.53" y="-964.397" font-family="Times Roman,serif" font-size="14.00">node_19</text>
</g>
<!-- 19_1&#45;&#45;node_19 -->
<g id="edge106" class="edge"><title>19_1&#45;&#45;node_19</title>
<path fill="none" stroke="black" stroke-width="2" d="M443.53,-911.877C463.769,-924.068 491.238,-940.614 511.253,-952.669"/>
</g>
<!-- 19_0 -->
<g id="node42" class="node"><title>19_0</title>
<polygon fill="none" stroke="black" points="616.436,-1100.36 562.436,-1100.36 562.436,-1064.36 616.436,-1064.36 616.436,-1100.36"/>
<text text-anchor="middle" x="589.436" y="-1078.26" font-family="Times Roman,serif" font-size="14.00">19_0</text>
</g>
<!-- 19_0&#45;&#45;node_19 -->
<g id="edge108" class="edge"><title>19_0&#45;&#45;node_19</title>
<path fill="none" stroke="black" stroke-width="2" d="M581.212,-1064.32C571.492,-1043 555.419,-1007.74 545.716,-986.454"/>
</g>
<!-- node_20 -->
<g id="node43" class="node"><title>node_20</title>
<ellipse fill="none" stroke="black" cx="202.391" cy="-660.978" rx="52.8111" ry="18"/>
<text text-anchor="middle" x="202.391" y="-656.878" font-family="Times Roman,serif" font-size="14.00">node_20</text>
</g>
<!-- 20_1 -->
<g id="node55" class="node"><title>20_1</title>
<polygon fill="none" stroke="black" points="87.2775,-692.008 33.2775,-692.008 33.2775,-656.008 87.2775,-656.008 87.2775,-692.008"/>
<text text-anchor="middle" x="60.2775" y="-669.908" font-family="Times Roman,serif" font-size="14.00">20_1</text>
</g>
<!-- node_20&#45;&#45;20_1 -->
<g id="edge110" class="edge"><title>node_20&#45;&#45;20_1</title>
<path fill="none" stroke="black" stroke-width="2" d="M151.085,-665.682C129.618,-667.65 105.54,-669.858 87.5733,-671.506"/>
</g>
<!-- node_20&#45;&#45;20_0 -->
<g id="edge112" class="edge"><title>node_20&#45;&#45;20_0</title>
<path fill="none" stroke="black" stroke-width="2" d="M255.057,-658.878C272.446,-658.185 291.072,-657.442 305.732,-656.857"/>
</g>
<!-- 15_0&#45;&#45;node_15 -->
<g id="edge114" class="edge"><title>15_0&#45;&#45;node_15</title>
<path fill="none" stroke="black" stroke-width="2" d="M705.201,-114.258C718.591,-132.463 739.003,-160.213 752.188,-178.137"/>
</g>
</g>
</svg>
