<?xml version="1.0" encoding="UTF-8" standalone="no"?>
<!DOCTYPE svg PUBLIC "-//W3C//DTD SVG 1.1//EN"
 "http://www.w3.org/Graphics/SVG/1.1/DTD/svg11.dtd">
<!-- Generated by graphviz version 2.26.3 (20100126.1600)
 -->
<!-- Title: G Pages: 1 -->
<svg width="1030pt" height="779pt"
 viewBox="0.00 0.00 1030.00 779.00" xmlns="http://www.w3.org/2000/svg" xmlns:xlink="http://www.w3.org/1999/xlink">
<g id="graph1" class="graph" transform="scale(1 1) rotate(0) translate(4 775)">
<title>G</title>
<polygon fill="white" stroke="white" points="-4,5 -4,-775 1027,-775 1027,5 -4,5"/>
<!-- 12_0 -->
<g id="node1" class="node"><title>12_0</title>
<polygon fill="none" stroke="black" points="313.665,-370.358 259.665,-370.358 259.665,-334.358 313.665,-334.358 313.665,-370.358"/>
<text text-anchor="middle" x="286.665" y="-348.258" font-family="Times Roman,serif" font-size="14.00">12_0</text>
</g>
<!-- 6_0 -->
<g id="node3" class="node"><title>6_0</title>
<polygon fill="none" stroke="black" points="283.03,-477.417 229.03,-477.417 229.03,-441.417 283.03,-441.417 283.03,-477.417"/>
<text text-anchor="middle" x="256.03" y="-455.317" font-family="Times Roman,serif" font-size="14.00">6_0</text>
</g>
<!-- 12_0&#45;&#45;6_0 -->
<g id="edge4" class="edge"><title>12_0&#45;&#45;6_0</title>
<path fill="none" stroke="orange" stroke-width="5" stroke-dasharray="1,5" d="M281.468,-370.519C275.835,-390.206 266.896,-421.445 261.252,-441.167"/>
</g>
<!-- 5_0 -->
<g id="node19" class="node"><title>5_0</title>
<polygon fill="none" stroke="black" points="450.263,-349.557 396.263,-349.557 396.263,-313.557 450.263,-313.557 450.263,-349.557"/>
<text text-anchor="middle" x="423.263" y="-327.457" font-family="Times Roman,serif" font-size="14.00">5_0</text>
</g>
<!-- 12_0&#45;&#45;5_0 -->
<g id="edge2" class="edge"><title>12_0&#45;&#45;5_0</title>
<path fill="none" stroke="orange" stroke-width="5" stroke-dasharray="1,5" d="M313.98,-348.198C337.804,-344.57 372.186,-339.335 395.996,-335.709"/>
</g>
<!-- node_12 -->
<g id="node33" class="node"><title>node_12</title>
<ellipse fill="none" stroke="black" cx="150.755" cy="-315.861" rx="52.8111" ry="18"/>
<text text-anchor="middle" x="150.755" y="-311.761" font-family="Times Roman,serif" font-size="14.00">node_12</text>
</g>
<!-- 12_0&#45;&#45;node_12 -->
<g id="edge6" class="edge"><title>12_0&#45;&#45;node_12</title>
<path fill="none" stroke="black" stroke-width="2" d="M259.488,-345.06C240.277,-339.901 214.166,-332.889 192.346,-327.03"/>
</g>
<!-- 12_1 -->
<g id="node2" class="node"><title>12_1</title>
<polygon fill="none" stroke="black" points="55.3306,-304.789 1.33058,-304.789 1.33058,-268.789 55.3306,-268.789 55.3306,-304.789"/>
<text text-anchor="middle" x="28.3306" y="-282.689" font-family="Times Roman,serif" font-size="14.00">12_1</text>
</g>
<!-- 12_1&#45;&#45;node_12 -->
<g id="edge8" class="edge"><title>12_1&#45;&#45;node_12</title>
<path fill="none" stroke="black" stroke-width="2" d="M55.5004,-293.241C70.7162,-296.854 90.0469,-301.444 107.312,-305.545"/>
</g>
<!-- node_6 -->
<g id="node25" class="node"><title>node_6</title>
<ellipse fill="none" stroke="black" cx="356.58" cy="-529.752" rx="46.0565" ry="18"/>
<text text-anchor="middle" x="356.58" y="-525.652" font-family="Times Roman,serif" font-size="14.00">node_6</text>
</g>
<!-- 6_0&#45;&#45;node_6 -->
<g id="edge10" class="edge"><title>6_0&#45;&#45;node_6</title>
<path fill="none" stroke="black" stroke-width="2" d="M281.924,-477.53C297.984,-488.764 318.423,-503.061 333.854,-513.855"/>
</g>
<!-- 6_1 -->
<g id="node4" class="node"><title>6_1</title>
<polygon fill="none" stroke="black" points="535.559,-581.189 481.559,-581.189 481.559,-545.189 535.559,-545.189 535.559,-581.189"/>
<text text-anchor="middle" x="508.559" y="-559.089" font-family="Times Roman,serif" font-size="14.00">6_1</text>
</g>
<!-- 13_0 -->
<g id="node5" class="node"><title>13_0</title>
<polygon fill="none" stroke="black" points="677.331,-604.176 623.331,-604.176 623.331,-568.176 677.331,-568.176 677.331,-604.176"/>
<text text-anchor="middle" x="650.331" y="-582.076" font-family="Times Roman,serif" font-size="14.00">13_0</text>
</g>
<!-- 6_1&#45;&#45;13_0 -->
<g id="edge12" class="edge"><title>6_1&#45;&#45;13_0</title>
<path fill="none" stroke="green" stroke-width="5" stroke-dasharray="1,5" d="M535.894,-567.621C560.999,-571.691 598.002,-577.691 623.08,-581.757"/>
</g>
<!-- 11_0 -->
<g id="node12" class="node"><title>11_0</title>
<polygon fill="none" stroke="black" points="475.239,-510.855 421.239,-510.855 421.239,-474.855 475.239,-474.855 475.239,-510.855"/>
<text text-anchor="middle" x="448.239" y="-488.755" font-family="Times Roman,serif" font-size="14.00">11_0</text>
</g>
<!-- 6_1&#45;&#45;11_0 -->
<g id="edge14" class="edge"><title>6_1&#45;&#45;11_0</title>
<path fill="none" stroke="green" stroke-width="5" stroke-dasharray="1,5" d="M493.025,-545.076C484.089,-534.656 472.893,-521.601 463.93,-511.151"/>
</g>
<!-- 6_1&#45;&#45;node_6 -->
<g id="edge16" class="edge"><title>6_1&#45;&#45;node_6</title>
<path fill="none" stroke="black" stroke-width="2" d="M481.389,-557.211C457.909,-552.045 423.646,-544.507 396.957,-538.635"/>
</g>
<!-- 7_1 -->
<g id="node9" class="node"><title>7_1</title>
<polygon fill="none" stroke="black" points="788.909,-641.74 734.909,-641.74 734.909,-605.74 788.909,-605.74 788.909,-641.74"/>
<text text-anchor="middle" x="761.909" y="-619.64" font-family="Times Roman,serif" font-size="14.00">7_1</text>
</g>
<!-- 13_0&#45;&#45;7_1 -->
<g id="edge20" class="edge"><title>13_0&#45;&#45;7_1</title>
<path fill="none" stroke="green" stroke-width="5" stroke-dasharray="1,5" d="M677.341,-595.269C694.755,-601.132 717.32,-608.729 734.761,-614.6"/>
</g>
<!-- node_13 -->
<g id="node32" class="node"><title>node_13</title>
<ellipse fill="none" stroke="black" cx="716.77" cy="-694.354" rx="52.8111" ry="18"/>
<text text-anchor="middle" x="716.77" y="-690.254" font-family="Times Roman,serif" font-size="14.00">node_13</text>
</g>
<!-- 13_0&#45;&#45;node_13 -->
<g id="edge18" class="edge"><title>13_0&#45;&#45;node_13</title>
<path fill="none" stroke="black" stroke-width="2" d="M661.602,-604.527C673.967,-624.661 693.676,-656.753 705.886,-676.633"/>
</g>
<!-- 8_1 -->
<g id="node6" class="node"><title>8_1</title>
<polygon fill="none" stroke="black" points="592.759,-635.626 538.759,-635.626 538.759,-599.626 592.759,-599.626 592.759,-635.626"/>
<text text-anchor="middle" x="565.759" y="-613.526" font-family="Times Roman,serif" font-size="14.00">8_1</text>
</g>
<!-- 7_0 -->
<g id="node10" class="node"><title>7_0</title>
<polygon fill="none" stroke="black" points="643.979,-740.821 589.979,-740.821 589.979,-704.821 643.979,-704.821 643.979,-740.821"/>
<text text-anchor="middle" x="616.979" y="-718.721" font-family="Times Roman,serif" font-size="14.00">7_0</text>
</g>
<!-- 8_1&#45;&#45;7_0 -->
<g id="edge24" class="edge"><title>8_1&#45;&#45;7_0</title>
<path fill="none" stroke="green" stroke-width="5" stroke-dasharray="1,5" d="M574.681,-635.949C584.082,-655.257 598.797,-685.479 608.159,-704.707"/>
</g>
<!-- 5_1 -->
<g id="node18" class="node"><title>5_1</title>
<polygon fill="none" stroke="black" points="658.314,-510.786 604.314,-510.786 604.314,-474.786 658.314,-474.786 658.314,-510.786"/>
<text text-anchor="middle" x="631.314" y="-488.686" font-family="Times Roman,serif" font-size="14.00">5_1</text>
</g>
<!-- 8_1&#45;&#45;5_1 -->
<g id="edge22" class="edge"><title>8_1&#45;&#45;5_1</title>
<path fill="none" stroke="green" stroke-width="5" stroke-dasharray="1,5" d="M575.291,-599.473C587.72,-575.804 609.336,-534.64 621.77,-510.961"/>
</g>
<!-- node_8 -->
<g id="node23" class="node"><title>node_8</title>
<ellipse fill="none" stroke="black" cx="452.804" cy="-648.265" rx="46.0565" ry="18"/>
<text text-anchor="middle" x="452.804" y="-644.165" font-family="Times Roman,serif" font-size="14.00">node_8</text>
</g>
<!-- 8_1&#45;&#45;node_8 -->
<g id="edge26" class="edge"><title>8_1&#45;&#45;node_8</title>
<path fill="none" stroke="black" stroke-width="2" d="M538.703,-624.964C524.345,-628.859 506.466,-633.709 490.743,-637.974"/>
</g>
<!-- 1_1 -->
<g id="node7" class="node"><title>1_1</title>
<polygon fill="none" stroke="black" points="750.603,-440.214 696.603,-440.214 696.603,-404.214 750.603,-404.214 750.603,-440.214"/>
<text text-anchor="middle" x="723.603" y="-418.114" font-family="Times Roman,serif" font-size="14.00">1_1</text>
</g>
<!-- 1_1&#45;&#45;5_1 -->
<g id="edge28" class="edge"><title>1_1&#45;&#45;5_1</title>
<path fill="none" stroke="green" stroke-width="5" stroke-dasharray="1,5" d="M699.836,-440.388C686.057,-450.925 668.765,-464.148 655,-474.674"/>
</g>
<!-- 4_0 -->
<g id="node20" class="node"><title>4_0</title>
<polygon fill="none" stroke="black" points="765.445,-304.007 711.445,-304.007 711.445,-268.007 765.445,-268.007 765.445,-304.007"/>
<text text-anchor="middle" x="738.445" y="-281.907" font-family="Times Roman,serif" font-size="14.00">4_0</text>
</g>
<!-- 1_1&#45;&#45;4_0 -->
<g id="edge30" class="edge"><title>1_1&#45;&#45;4_0</title>
<path fill="none" stroke="green" stroke-width="5" stroke-dasharray="1,5" d="M725.574,-404.127C728.413,-378.075 733.622,-330.262 736.466,-304.169"/>
</g>
<!-- node_1 -->
<g id="node30" class="node"><title>node_1</title>
<ellipse fill="none" stroke="black" cx="862.036" cy="-452.54" rx="46.0565" ry="18"/>
<text text-anchor="middle" x="862.036" y="-448.44" font-family="Times Roman,serif" font-size="14.00">node_1</text>
</g>
<!-- 1_1&#45;&#45;node_1 -->
<g id="edge32" class="edge"><title>1_1&#45;&#45;node_1</title>
<path fill="none" stroke="black" stroke-width="2" d="M750.623,-428.133C770.845,-432.563 798.837,-438.695 821.704,-443.704"/>
</g>
<!-- 1_0 -->
<g id="node8" class="node"><title>1_0</title>
<polygon fill="none" stroke="black" points="979.221,-559.444 925.221,-559.444 925.221,-523.444 979.221,-523.444 979.221,-559.444"/>
<text text-anchor="middle" x="952.221" y="-537.344" font-family="Times Roman,serif" font-size="14.00">1_0</text>
</g>
<!-- 1_0&#45;&#45;node_1 -->
<g id="edge34" class="edge"><title>1_0&#45;&#45;node_1</title>
<path fill="none" stroke="black" stroke-width="2" d="M933.534,-523.023C917.54,-507.256 894.703,-484.743 879.173,-469.434"/>
</g>
<!-- 0_0 -->
<g id="node11" class="node"><title>0_0</title>
<polygon fill="none" stroke="black" points="905.562,-605.137 851.562,-605.137 851.562,-569.137 905.562,-569.137 905.562,-605.137"/>
<text text-anchor="middle" x="878.562" y="-583.037" font-family="Times Roman,serif" font-size="14.00">0_0</text>
</g>
<!-- 7_1&#45;&#45;0_0 -->
<g id="edge38" class="edge"><title>7_1&#45;&#45;0_0</title>
<path fill="none" stroke="green" stroke-width="5" stroke-dasharray="1,5" d="M788.965,-615.251C807.676,-609.379 832.482,-601.596 851.249,-595.707"/>
</g>
<!-- node_7 -->
<g id="node24" class="node"><title>node_7</title>
<ellipse fill="none" stroke="black" cx="737.557" cy="-751.79" rx="46.0565" ry="18"/>
<text text-anchor="middle" x="737.557" y="-747.69" font-family="Times Roman,serif" font-size="14.00">node_7</text>
</g>
<!-- 7_1&#45;&#45;node_7 -->
<g id="edge36" class="edge"><title>7_1&#45;&#45;node_7</title>
<path fill="none" stroke="black" stroke-width="2" d="M758.472,-641.815C753.831,-666.219 745.609,-709.45 740.977,-733.807"/>
</g>
<!-- 7_0&#45;&#45;node_7 -->
<g id="edge40" class="edge"><title>7_0&#45;&#45;node_7</title>
<path fill="none" stroke="black" stroke-width="2" d="M644.039,-729.322C660.009,-733.159 680.503,-738.083 698.233,-742.342"/>
</g>
<!-- node_0 -->
<g id="node31" class="node"><title>node_0</title>
<ellipse fill="none" stroke="black" cx="974.856" cy="-493.36" rx="46.0565" ry="18"/>
<text text-anchor="middle" x="974.856" y="-489.26" font-family="Times Roman,serif" font-size="14.00">node_0</text>
</g>
<!-- 0_0&#45;&#45;node_0 -->
<g id="edge42" class="edge"><title>0_0&#45;&#45;node_0</title>
<path fill="none" stroke="black" stroke-width="2" d="M897.128,-569.056C914.617,-552.024 940.607,-526.713 957.641,-510.126"/>
</g>
<!-- 3_0 -->
<g id="node13" class="node"><title>3_0</title>
<polygon fill="none" stroke="black" points="571.119,-477.264 517.119,-477.264 517.119,-441.264 571.119,-441.264 571.119,-477.264"/>
<text text-anchor="middle" x="544.119" y="-455.164" font-family="Times Roman,serif" font-size="14.00">3_0</text>
</g>
<!-- 11_0&#45;&#45;3_0 -->
<g id="edge44" class="edge"><title>11_0&#45;&#45;3_0</title>
<path fill="none" stroke="green" stroke-width="5" stroke-dasharray="1,5" d="M475.458,-483.319C488.413,-478.781 503.868,-473.366 516.832,-468.824"/>
</g>
<!-- node_11 -->
<g id="node34" class="node"><title>node_11</title>
<ellipse fill="none" stroke="black" cx="321.668" cy="-592.437" rx="52.8111" ry="18"/>
<text text-anchor="middle" x="321.668" y="-588.337" font-family="Times Roman,serif" font-size="14.00">node_11</text>
</g>
<!-- 11_0&#45;&#45;node_11 -->
<g id="edge46" class="edge"><title>11_0&#45;&#45;node_11</title>
<path fill="none" stroke="black" stroke-width="2" d="M425.318,-510.889C401.809,-529.385 365.547,-557.915 342.736,-575.861"/>
</g>
<!-- 3_0&#45;&#45;5_1 -->
<g id="edge48" class="edge"><title>3_0&#45;&#45;5_1</title>
<path fill="none" stroke="green" stroke-width="5" stroke-dasharray="1,5" d="M571.23,-469.687C581.729,-473.723 593.723,-478.335 604.22,-482.37"/>
</g>
<!-- node_3 -->
<g id="node28" class="node"><title>node_3</title>
<ellipse fill="none" stroke="black" cx="638.257" cy="-367.807" rx="46.0565" ry="18"/>
<text text-anchor="middle" x="638.257" y="-363.707" font-family="Times Roman,serif" font-size="14.00">node_3</text>
</g>
<!-- 3_0&#45;&#45;node_3 -->
<g id="edge50" class="edge"><title>3_0&#45;&#45;node_3</title>
<path fill="none" stroke="black" stroke-width="2" d="M562.718,-441.195C579.65,-424.745 604.456,-400.646 620.967,-384.605"/>
</g>
<!-- 2_0 -->
<g id="node14" class="node"><title>2_0</title>
<polygon fill="none" stroke="black" points="492.063,-242.537 438.063,-242.537 438.063,-206.537 492.063,-206.537 492.063,-242.537"/>
<text text-anchor="middle" x="465.063" y="-220.437" font-family="Times Roman,serif" font-size="14.00">2_0</text>
</g>
<!-- 2_0&#45;&#45;5_0 -->
<g id="edge52" class="edge"><title>2_0&#45;&#45;5_0</title>
<path fill="none" stroke="orange" stroke-width="5" stroke-dasharray="1,5" d="M457.972,-242.691C450.286,-262.371 438.089,-293.599 430.389,-313.313"/>
</g>
<!-- node_2 -->
<g id="node29" class="node"><title>node_2</title>
<ellipse fill="none" stroke="black" cx="551.684" cy="-128.412" rx="46.0565" ry="18"/>
<text text-anchor="middle" x="551.684" y="-124.312" font-family="Times Roman,serif" font-size="14.00">node_2</text>
</g>
<!-- 2_0&#45;&#45;node_2 -->
<g id="edge54" class="edge"><title>2_0&#45;&#45;node_2</title>
<path fill="none" stroke="black" stroke-width="2" d="M481.356,-206.456C497.136,-188.944 520.884,-162.591 536.337,-145.443"/>
</g>
<!-- 2_1 -->
<g id="node15" class="node"><title>2_1</title>
<polygon fill="none" stroke="black" points="642.863,-36.5492 588.863,-36.5492 588.863,-0.549221 642.863,-0.549221 642.863,-36.5492"/>
<text text-anchor="middle" x="615.863" y="-14.4492" font-family="Times Roman,serif" font-size="14.00">2_1</text>
</g>
<!-- 4_1 -->
<g id="node21" class="node"><title>4_1</title>
<polygon fill="none" stroke="black" points="602.807,-102.041 548.807,-102.041 548.807,-66.0411 602.807,-66.0411 602.807,-102.041"/>
<text text-anchor="middle" x="575.807" y="-79.9411" font-family="Times Roman,serif" font-size="14.00">4_1</text>
</g>
<!-- 2_1&#45;&#45;4_1 -->
<g id="edge56" class="edge"><title>2_1&#45;&#45;4_1</title>
<path fill="none" stroke="blue" stroke-width="5" stroke-dasharray="1,5" d="M604.705,-36.7924C599.149,-45.876 592.452,-56.8256 586.905,-65.8958"/>
</g>
<!-- 2_1&#45;&#45;node_2 -->
<g id="edge58" class="edge"><title>2_1&#45;&#45;node_2</title>
<path fill="none" stroke="black" stroke-width="2" d="M605.265,-36.6908C593.303,-57.1684 573.965,-90.2701 562.085,-110.608"/>
</g>
<!-- 9_1 -->
<g id="node16" class="node"><title>9_1</title>
<polygon fill="none" stroke="black" points="402.165,-454.009 348.165,-454.009 348.165,-418.009 402.165,-418.009 402.165,-454.009"/>
<text text-anchor="middle" x="375.165" y="-431.909" font-family="Times Roman,serif" font-size="14.00">9_1</text>
</g>
<!-- node_9 -->
<g id="node22" class="node"><title>node_9</title>
<ellipse fill="none" stroke="black" cx="322.385" cy="-296.079" rx="46.0565" ry="18"/>
<text text-anchor="middle" x="322.385" y="-291.979" font-family="Times Roman,serif" font-size="14.00">node_9</text>
</g>
<!-- 9_1&#45;&#45;node_9 -->
<g id="edge60" class="edge"><title>9_1&#45;&#45;node_9</title>
<path fill="none" stroke="black" stroke-width="2" d="M368.373,-418.002C358.239,-391.134 339.27,-340.845 329.151,-314.017"/>
</g>
<!-- 8_0 -->
<g id="node37" class="node"><title>8_0</title>
<polygon fill="none" stroke="black" points="473.477,-577.945 419.477,-577.945 419.477,-541.945 473.477,-541.945 473.477,-577.945"/>
<text text-anchor="middle" x="446.477" y="-555.845" font-family="Times Roman,serif" font-size="14.00">8_0</text>
</g>
<!-- 9_1&#45;&#45;8_0 -->
<g id="edge62" class="edge"><title>9_1&#45;&#45;8_0</title>
<path fill="none" stroke="red" stroke-width="5" stroke-dasharray="1,5" d="M385.535,-454.03C399.055,-477.528 422.569,-518.394 436.095,-541.902"/>
</g>
<!-- 9_0 -->
<g id="node17" class="node"><title>9_0</title>
<polygon fill="none" stroke="black" points="393.606,-178.067 339.606,-178.067 339.606,-142.067 393.606,-142.067 393.606,-178.067"/>
<text text-anchor="middle" x="366.606" y="-155.967" font-family="Times Roman,serif" font-size="14.00">9_0</text>
</g>
<!-- 9_0&#45;&#45;node_9 -->
<g id="edge66" class="edge"><title>9_0&#45;&#45;node_9</title>
<path fill="none" stroke="black" stroke-width="2" d="M360.734,-178.128C352.276,-204.143 336.753,-251.887 328.282,-277.943"/>
</g>
<!-- 10_0 -->
<g id="node36" class="node"><title>10_0</title>
<polygon fill="none" stroke="black" points="485.331,-104.889 431.331,-104.889 431.331,-68.8886 485.331,-68.8886 485.331,-104.889"/>
<text text-anchor="middle" x="458.331" y="-82.7886" font-family="Times Roman,serif" font-size="14.00">10_0</text>
</g>
<!-- 9_0&#45;&#45;10_0 -->
<g id="edge64" class="edge"><title>9_0&#45;&#45;10_0</title>
<path fill="none" stroke="blue" stroke-width="5" stroke-dasharray="1,5" d="M389.28,-141.978C403.391,-130.72 421.478,-116.29 435.601,-105.023"/>
</g>
<!-- node_5 -->
<g id="node26" class="node"><title>node_5</title>
<ellipse fill="none" stroke="black" cx="518.516" cy="-401.759" rx="46.0565" ry="18"/>
<text text-anchor="middle" x="518.516" y="-397.659" font-family="Times Roman,serif" font-size="14.00">node_5</text>
</g>
<!-- 5_1&#45;&#45;node_5 -->
<g id="edge68" class="edge"><title>5_1&#45;&#45;node_5</title>
<path fill="none" stroke="black" stroke-width="2" d="M608.758,-474.584C588.314,-458.086 558.453,-433.988 538.76,-418.096"/>
</g>
<!-- 5_0&#45;&#45;node_5 -->
<g id="edge70" class="edge"><title>5_0&#45;&#45;node_5</title>
<path fill="none" stroke="black" stroke-width="2" d="M447.793,-349.635C462.897,-360.767 482.089,-374.912 496.668,-385.657"/>
</g>
<!-- node_4 -->
<g id="node27" class="node"><title>node_4</title>
<ellipse fill="none" stroke="black" cx="692.695" cy="-167.484" rx="46.0565" ry="18"/>
<text text-anchor="middle" x="692.695" y="-163.384" font-family="Times Roman,serif" font-size="14.00">node_4</text>
</g>
<!-- 4_0&#45;&#45;node_4 -->
<g id="edge72" class="edge"><title>4_0&#45;&#45;node_4</title>
<path fill="none" stroke="black" stroke-width="2" d="M731.496,-268.006C722.897,-245.729 708.338,-208.009 699.709,-185.655"/>
</g>
<!-- 4_1&#45;&#45;node_4 -->
<g id="edge74" class="edge"><title>4_1&#45;&#45;node_4</title>
<path fill="none" stroke="black" stroke-width="2" d="M601.17,-102.147C621.85,-116.91 650.77,-137.555 670.533,-151.663"/>
</g>
<!-- 4_1&#45;&#45;10_0 -->
<g id="edge76" class="edge"><title>4_1&#45;&#45;10_0</title>
<path fill="none" stroke="blue" stroke-width="5" stroke-dasharray="1,5" d="M548.56,-84.7015C529.582,-85.1616 504.376,-85.7725 485.43,-86.2318"/>
</g>
<!-- node_8&#45;&#45;8_0 -->
<g id="edge78" class="edge"><title>node_8&#45;&#45;8_0</title>
<path fill="none" stroke="black" stroke-width="2" d="M451.493,-629.965C450.407,-614.807 448.872,-593.373 447.786,-578.222"/>
</g>
<!-- node_10 -->
<g id="node35" class="node"><title>node_10</title>
<ellipse fill="none" stroke="black" cx="446.684" cy="-33.0451" rx="52.8111" ry="18"/>
<text text-anchor="middle" x="446.684" y="-28.9451" font-family="Times Roman,serif" font-size="14.00">node_10</text>
</g>
<!-- node_10&#45;&#45;10_0 -->
<g id="edge80" class="edge"><title>node_10&#45;&#45;10_0</title>
<path fill="none" stroke="black" stroke-width="2" d="M450.627,-51.2741C451.842,-56.8877 453.178,-63.0661 454.392,-68.6784"/>
</g>
</g>
</svg>
