<?xml version="1.0" encoding="UTF-8" standalone="no"?>
<!DOCTYPE svg PUBLIC "-//W3C//DTD SVG 1.1//EN"
 "http://www.w3.org/Graphics/SVG/1.1/DTD/svg11.dtd">
<!-- Generated by graphviz version 2.26.3 (20100126.1600)
 -->
<!-- Title: G Pages: 1 -->
<svg width="497pt" height="517pt"
 viewBox="0.00 0.00 497.00 517.00" xmlns="http://www.w3.org/2000/svg" xmlns:xlink="http://www.w3.org/1999/xlink">
<g id="graph1" class="graph" transform="scale(1 1) rotate(0) translate(4 513)">
<title>G</title>
<polygon fill="white" stroke="white" points="-4,5 -4,-513 494,-513 494,5 -4,5"/>
<!-- 0 -->
<g id="node1" class="node"><title>0</title>
<ellipse fill="none" stroke="black" cx="456.726" cy="-406.617" rx="27" ry="18"/>
<text text-anchor="middle" x="456.726" y="-402.517" font-family="Times Roman,serif" font-size="14.00">0</text>
</g>
<!-- 6 -->
<g id="node3" class="node"><title>6</title>
<ellipse fill="none" stroke="black" cx="220.895" cy="-315.076" rx="27" ry="18"/>
<text text-anchor="middle" x="220.895" y="-310.976" font-family="Times Roman,serif" font-size="14.00">6</text>
</g>
<!-- 0&#45;&#45;6 -->
<g id="edge2" class="edge"><title>0&#45;&#45;6</title>
<path fill="none" stroke="green" stroke-width="1.2" d="M433.251,-397.505C388.047,-379.958 289.404,-341.668 244.275,-324.151"/>
</g>
<!-- 22 -->
<g id="node5" class="node"><title>22</title>
<ellipse fill="none" stroke="black" cx="460.598" cy="-311.332" rx="27" ry="18"/>
<text text-anchor="middle" x="460.598" y="-307.232" font-family="Times Roman,serif" font-size="14.00">22</text>
</g>
<!-- 0&#45;&#45;22 -->
<g id="edge4" class="edge"><title>0&#45;&#45;22</title>
<path fill="none" stroke="blue" stroke-width="6" d="M457.472,-388.245C458.158,-371.372 459.168,-346.503 459.853,-329.648"/>
</g>
<!-- 1 -->
<g id="node6" class="node"><title>1</title>
<ellipse fill="none" stroke="black" cx="411.232" cy="-190.398" rx="27" ry="18"/>
<text text-anchor="middle" x="411.232" y="-186.298" font-family="Times Roman,serif" font-size="14.00">1</text>
</g>
<!-- 0&#45;&#45;1 -->
<g id="edge74" class="edge"><title>0&#45;&#45;1</title>
<path fill="none" stroke="#999999" stroke-width="0.545455" stroke-dasharray="1,5" d="M452.925,-388.554C444.34,-347.753 423.534,-248.865 414.99,-208.258"/>
</g>
<!-- 24 -->
<g id="node8" class="node"><title>24</title>
<ellipse fill="none" stroke="black" cx="340.813" cy="-455.232" rx="27" ry="18"/>
<text text-anchor="middle" x="340.813" y="-451.132" font-family="Times Roman,serif" font-size="14.00">24</text>
</g>
<!-- 0&#45;&#45;24 -->
<g id="edge86" class="edge"><title>0&#45;&#45;24</title>
<path fill="none" stroke="#999999" stroke-width="0.428571" stroke-dasharray="1,5" d="M433.825,-416.222C413.636,-424.689 384.356,-436.969 364.063,-445.481"/>
</g>
<!-- 3 -->
<g id="node20" class="node"><title>3</title>
<ellipse fill="none" stroke="black" cx="293.244" cy="-362.883" rx="27" ry="18"/>
<text text-anchor="middle" x="293.244" y="-358.783" font-family="Times Roman,serif" font-size="14.00">3</text>
</g>
<!-- 0&#45;&#45;3 -->
<g id="edge76" class="edge"><title>0&#45;&#45;3</title>
<path fill="none" stroke="#999999" stroke-width="0.75" stroke-dasharray="1,5" d="M431.54,-399.879C400.819,-391.661 349.193,-377.85 318.459,-369.629"/>
</g>
<!-- 4 -->
<g id="node26" class="node"><title>4</title>
<ellipse fill="none" stroke="black" cx="354.178" cy="-316.763" rx="27" ry="18"/>
<text text-anchor="middle" x="354.178" y="-312.663" font-family="Times Roman,serif" font-size="14.00">4</text>
</g>
<!-- 0&#45;&#45;4 -->
<g id="edge78" class="edge"><title>0&#45;&#45;4</title>
<path fill="none" stroke="#999999" stroke-width="0.333333" stroke-dasharray="1,5" d="M440.249,-392.18C421.113,-375.413 389.732,-347.916 370.613,-331.163"/>
</g>
<!-- 16 -->
<g id="node42" class="node"><title>16</title>
<ellipse fill="none" stroke="black" cx="207.896" cy="-257.407" rx="27" ry="18"/>
<text text-anchor="middle" x="207.896" y="-253.307" font-family="Times Roman,serif" font-size="14.00">16</text>
</g>
<!-- 0&#45;&#45;16 -->
<g id="edge84" class="edge"><title>0&#45;&#45;16</title>
<path fill="none" stroke="#999999" stroke-width="0.6" stroke-dasharray="1,5" d="M436.363,-394.407C389.586,-366.357 274.901,-297.587 228.191,-269.577"/>
</g>
<!-- 12 -->
<g id="node46" class="node"><title>12</title>
<ellipse fill="none" stroke="black" cx="259.775" cy="-190.513" rx="27" ry="18"/>
<text text-anchor="middle" x="259.775" y="-186.413" font-family="Times Roman,serif" font-size="14.00">12</text>
</g>
<!-- 0&#45;&#45;12 -->
<g id="edge80" class="edge"><title>0&#45;&#45;12</title>
<path fill="none" stroke="#999999" stroke-width="0.315789" stroke-dasharray="1,5" d="M442.561,-391.075C406.223,-351.202 310.009,-245.631 273.811,-205.914"/>
</g>
<!-- 15 -->
<g id="node54" class="node"><title>15</title>
<ellipse fill="none" stroke="black" cx="299.663" cy="-258.831" rx="27" ry="18"/>
<text text-anchor="middle" x="299.663" y="-254.731" font-family="Times Roman,serif" font-size="14.00">15</text>
</g>
<!-- 0&#45;&#45;15 -->
<g id="edge82" class="edge"><title>0&#45;&#45;15</title>
<path fill="none" stroke="#999999" stroke-width="1.2" stroke-dasharray="1,5" d="M441.092,-391.906C411.141,-363.725 345.966,-302.399 315.702,-273.922"/>
</g>
<!-- 6&#45;&#45;22 -->
<g id="edge188" class="edge"><title>6&#45;&#45;22</title>
<path fill="none" stroke="#999999" stroke-width="0.315789" stroke-dasharray="1,5" d="M247.926,-314.653C293.963,-313.934 387.078,-312.48 433.298,-311.758"/>
</g>
<!-- 6&#45;&#45;24 -->
<g id="edge190" class="edge"><title>6&#45;&#45;24</title>
<path fill="none" stroke="#999999" stroke-width="0.857143" stroke-dasharray="1,5" d="M234.418,-330.881C257.449,-357.799 304.033,-412.244 327.155,-439.269"/>
</g>
<!-- 8 -->
<g id="node12" class="node"><title>8</title>
<ellipse fill="none" stroke="black" cx="237.958" cy="-82.2845" rx="27" ry="18"/>
<text text-anchor="middle" x="237.958" y="-78.1845" font-family="Times Roman,serif" font-size="14.00">8</text>
</g>
<!-- 6&#45;&#45;8 -->
<g id="edge176" class="edge"><title>6&#45;&#45;8</title>
<path fill="none" stroke="#999999" stroke-width="0.5" stroke-dasharray="1,5" d="M222.234,-296.809C225.424,-253.292 233.442,-143.897 236.625,-100.466"/>
</g>
<!-- 11 -->
<g id="node14" class="node"><title>11</title>
<ellipse fill="none" stroke="black" cx="162.462" cy="-359.127" rx="27" ry="18"/>
<text text-anchor="middle" x="162.462" y="-355.027" font-family="Times Roman,serif" font-size="14.00">11</text>
</g>
<!-- 6&#45;&#45;11 -->
<g id="edge178" class="edge"><title>6&#45;&#45;11</title>
<path fill="none" stroke="#999999" stroke-width="0.333333" stroke-dasharray="1,5" d="M202.727,-328.772C195.624,-334.126 187.5,-340.251 180.418,-345.59"/>
</g>
<!-- 19 -->
<g id="node23" class="node"><title>19</title>
<ellipse fill="none" stroke="black" cx="263.734" cy="-438.508" rx="27" ry="18"/>
<text text-anchor="middle" x="263.734" y="-434.408" font-family="Times Roman,serif" font-size="14.00">19</text>
</g>
<!-- 6&#45;&#45;19 -->
<g id="edge186" class="edge"><title>6&#45;&#45;19</title>
<path fill="none" stroke="#999999" stroke-width="0.315789" stroke-dasharray="1,5" d="M227.033,-332.76C235.176,-356.225 249.469,-397.408 257.607,-420.856"/>
</g>
<!-- 7 -->
<g id="node31" class="node"><title>7</title>
<ellipse fill="none" stroke="black" cx="336.1" cy="-193.706" rx="27" ry="18"/>
<text text-anchor="middle" x="336.1" y="-189.606" font-family="Times Roman,serif" font-size="14.00">7</text>
</g>
<!-- 6&#45;&#45;7 -->
<g id="edge174" class="edge"><title>6&#45;&#45;7</title>
<path fill="none" stroke="#999999" stroke-width="0.857143" stroke-dasharray="1,5" d="M235.486,-299.704C257.646,-276.358 299.538,-232.224 321.628,-208.952"/>
</g>
<!-- 13 -->
<g id="node40" class="node"><title>13</title>
<ellipse fill="none" stroke="black" cx="99.8282" cy="-84.4787" rx="27" ry="18"/>
<text text-anchor="middle" x="99.8282" y="-80.3787" font-family="Times Roman,serif" font-size="14.00">13</text>
</g>
<!-- 6&#45;&#45;13 -->
<g id="edge182" class="edge"><title>6&#45;&#45;13</title>
<path fill="none" stroke="#999999" stroke-width="0.428571" stroke-dasharray="1,5" d="M211.795,-297.743C189.304,-254.904 131.297,-144.417 108.868,-101.698"/>
</g>
<!-- 6&#45;&#45;16 -->
<g id="edge184" class="edge"><title>6&#45;&#45;16</title>
<path fill="none" stroke="#999999" stroke-width="0.75" stroke-dasharray="1,5" d="M216.853,-297.145C215.303,-290.268 213.534,-282.42 211.98,-275.525"/>
</g>
<!-- 6&#45;&#45;12 -->
<g id="edge180" class="edge"><title>6&#45;&#45;12</title>
<path fill="none" stroke="#999999" stroke-width="0.375" stroke-dasharray="1,5" d="M226.466,-297.229C233.857,-273.549 246.829,-231.989 254.215,-208.327"/>
</g>
<!-- 22&#45;&#45;24 -->
<g id="edge312" class="edge"><title>22&#45;&#45;24</title>
<path fill="none" stroke="#999999" stroke-dasharray="1,5" d="M447.321,-327.282C424.296,-354.942 377.216,-411.5 354.149,-439.211"/>
</g>
<!-- 23 -->
<g id="node19" class="node"><title>23</title>
<ellipse fill="none" stroke="black" cx="423.96" cy="-251.59" rx="27" ry="18"/>
<text text-anchor="middle" x="423.96" y="-247.49" font-family="Times Roman,serif" font-size="14.00">23</text>
</g>
<!-- 22&#45;&#45;23 -->
<g id="edge310" class="edge"><title>22&#45;&#45;23</title>
<path fill="none" stroke="#999999" stroke-width="0.857143" stroke-dasharray="1,5" d="M450.197,-294.372C445.204,-286.231 439.24,-276.505 434.26,-268.386"/>
</g>
<!-- 1&#45;&#45;6 -->
<g id="edge94" class="edge"><title>1&#45;&#45;6</title>
<path fill="none" stroke="#999999" stroke-width="0.428571" stroke-dasharray="1,5" d="M391.934,-203.039C355.453,-226.935 276.765,-278.479 240.244,-302.401"/>
</g>
<!-- 1&#45;&#45;22 -->
<g id="edge8" class="edge"><title>1&#45;&#45;22</title>
<path fill="none" stroke="green" stroke-width="1.2" d="M418.41,-207.983C427.77,-230.911 444.047,-270.787 453.411,-293.726"/>
</g>
<!-- 1&#45;&#45;24 -->
<g id="edge6" class="edge"><title>1&#45;&#45;24</title>
<path fill="none" stroke="red" stroke-width="6" d="M406.502,-208.186C393.705,-256.315 358.496,-388.728 345.615,-437.173"/>
</g>
<!-- 2 -->
<g id="node10" class="node"><title>2</title>
<ellipse fill="none" stroke="black" cx="179.567" cy="-142.683" rx="27" ry="18"/>
<text text-anchor="middle" x="179.567" y="-138.583" font-family="Times Roman,serif" font-size="14.00">2</text>
</g>
<!-- 1&#45;&#45;2 -->
<g id="edge88" class="edge"><title>1&#45;&#45;2</title>
<path fill="none" stroke="#999999" stroke-width="0.5" stroke-dasharray="1,5" d="M385.108,-185.017C340.496,-175.829 250.142,-157.219 205.596,-148.044"/>
</g>
<!-- 1&#45;&#45;8 -->
<g id="edge98" class="edge"><title>1&#45;&#45;8</title>
<path fill="none" stroke="#999999" stroke-width="0.666667" stroke-dasharray="1,5" d="M391.355,-177.996C358.02,-157.197 291.227,-115.522 257.869,-94.7079"/>
</g>
<!-- 5 -->
<g id="node16" class="node"><title>5</title>
<ellipse fill="none" stroke="black" cx="109.599" cy="-184.937" rx="27" ry="18"/>
<text text-anchor="middle" x="109.599" y="-180.837" font-family="Times Roman,serif" font-size="14.00">5</text>
</g>
<!-- 1&#45;&#45;5 -->
<g id="edge92" class="edge"><title>1&#45;&#45;5</title>
<path fill="none" stroke="#999999" stroke-width="0.545455" stroke-dasharray="1,5" d="M384.199,-189.909C326.937,-188.872 193.985,-186.465 136.681,-185.427"/>
</g>
<!-- 1&#45;&#45;23 -->
<g id="edge106" class="edge"><title>1&#45;&#45;23</title>
<path fill="none" stroke="#999999" stroke-width="0.4" stroke-dasharray="1,5" d="M414.982,-208.427C416.625,-216.324 418.549,-225.573 420.193,-233.479"/>
</g>
<!-- 1&#45;&#45;3 -->
<g id="edge90" class="edge"><title>1&#45;&#45;3</title>
<path fill="none" stroke="#999999" stroke-dasharray="1,5" d="M399.919,-206.937C377.367,-239.906 327.047,-313.467 304.523,-346.395"/>
</g>
<!-- 1&#45;&#45;7 -->
<g id="edge96" class="edge"><title>1&#45;&#45;7</title>
<path fill="none" stroke="#999999" stroke-width="0.545455" stroke-dasharray="1,5" d="M384.108,-191.592C377.299,-191.892 369.992,-192.214 363.185,-192.513"/>
</g>
<!-- 1&#45;&#45;16 -->
<g id="edge104" class="edge"><title>1&#45;&#45;16</title>
<path fill="none" stroke="#999999" stroke-width="0.545455" stroke-dasharray="1,5" d="M386.705,-198.481C347.517,-211.395 271.236,-236.533 232.193,-249.4"/>
</g>
<!-- 1&#45;&#45;12 -->
<g id="edge100" class="edge"><title>1&#45;&#45;12</title>
<path fill="none" stroke="#999999" stroke-width="0.461538" stroke-dasharray="1,5" d="M384.155,-190.419C356.672,-190.44 314.364,-190.472 286.873,-190.492"/>
</g>
<!-- 1&#45;&#45;15 -->
<g id="edge102" class="edge"><title>1&#45;&#45;15</title>
<path fill="none" stroke="#999999" stroke-width="0.375" stroke-dasharray="1,5" d="M391.286,-202.633C371.104,-215.012 340.068,-234.048 319.813,-246.472"/>
</g>
<!-- 2&#45;&#45;6 -->
<g id="edge16" class="edge"><title>2&#45;&#45;6</title>
<path fill="none" stroke="red" stroke-width="1.5" d="M183.834,-160.483C191.753,-193.518 208.641,-263.959 216.589,-297.114"/>
</g>
<!-- 2&#45;&#45;8 -->
<g id="edge10" class="edge"><title>2&#45;&#45;8</title>
<path fill="none" stroke="blue" stroke-width="6" d="M194.301,-127.442C203.085,-118.356 214.206,-106.853 223.025,-97.7309"/>
</g>
<!-- 2&#45;&#45;11 -->
<g id="edge12" class="edge"><title>2&#45;&#45;11</title>
<path fill="none" stroke="red" stroke-width="2" d="M178.138,-160.765C174.918,-201.507 167.126,-300.107 163.899,-340.944"/>
</g>
<!-- 2&#45;&#45;5 -->
<g id="edge14" class="edge"><title>2&#45;&#45;5</title>
<path fill="none" stroke="blue" stroke-width="6" d="M159.329,-154.905C150.127,-160.462 139.259,-167.025 130.034,-172.596"/>
</g>
<!-- 2&#45;&#45;23 -->
<g id="edge18" class="edge"><title>2&#45;&#45;23</title>
<path fill="none" stroke="red" stroke-width="6" d="M202.12,-152.734C248.678,-173.481 354.949,-220.838 401.461,-241.564"/>
</g>
<!-- 2&#45;&#45;19 -->
<g id="edge116" class="edge"><title>2&#45;&#45;19</title>
<path fill="none" stroke="#999999" stroke-width="0.428571" stroke-dasharray="1,5" d="M184.705,-160.743C199.767,-213.681 243.687,-368.05 258.663,-420.685"/>
</g>
<!-- 21 -->
<g id="node25" class="node"><title>21</title>
<ellipse fill="none" stroke="black" cx="136.376" cy="-245.965" rx="27" ry="18"/>
<text text-anchor="middle" x="136.376" y="-241.865" font-family="Times Roman,serif" font-size="14.00">21</text>
</g>
<!-- 2&#45;&#45;21 -->
<g id="edge118" class="edge"><title>2&#45;&#45;21</title>
<path fill="none" stroke="#999999" stroke-width="0.4" stroke-dasharray="1,5" d="M172.24,-160.204C164.298,-179.196 151.695,-209.333 143.738,-228.359"/>
</g>
<!-- 2&#45;&#45;13 -->
<g id="edge110" class="edge"><title>2&#45;&#45;13</title>
<path fill="none" stroke="#999999" stroke-width="0.666667" stroke-dasharray="1,5" d="M161.073,-129.184C148.191,-119.781 131.082,-107.292 118.222,-97.9051"/>
</g>
<!-- 2&#45;&#45;16 -->
<g id="edge114" class="edge"><title>2&#45;&#45;16</title>
<path fill="none" stroke="#999999" stroke-width="0.375" stroke-dasharray="1,5" d="M183.993,-160.609C189.315,-182.162 198.192,-218.111 203.5,-239.607"/>
</g>
<!-- 2&#45;&#45;12 -->
<g id="edge108" class="edge"><title>2&#45;&#45;12</title>
<path fill="none" stroke="#999999" stroke-width="0.545455" stroke-dasharray="1,5" d="M199.807,-154.753C211.966,-162.003 227.384,-171.197 239.542,-178.447"/>
</g>
<!-- 2&#45;&#45;15 -->
<g id="edge112" class="edge"><title>2&#45;&#45;15</title>
<path fill="none" stroke="#999999" stroke-width="0.75" stroke-dasharray="1,5" d="M195.267,-157.868C218.411,-180.25 261.412,-221.838 284.339,-244.01"/>
</g>
<!-- 8&#45;&#45;21 -->
<g id="edge216" class="edge"><title>8&#45;&#45;21</title>
<path fill="none" stroke="#999999" stroke-width="0.75" stroke-dasharray="1,5" d="M227.469,-99.1847C208.004,-130.55 166.496,-197.431 146.959,-228.912"/>
</g>
<!-- 20 -->
<g id="node34" class="node"><title>20</title>
<ellipse fill="none" stroke="black" cx="354.459" cy="-77.4229" rx="27" ry="18"/>
<text text-anchor="middle" x="354.459" y="-73.3229" font-family="Times Roman,serif" font-size="14.00">20</text>
</g>
<!-- 8&#45;&#45;20 -->
<g id="edge34" class="edge"><title>8&#45;&#45;20</title>
<path fill="none" stroke="green" stroke-width="3" d="M264.978,-81.1569C283.665,-80.3771 308.439,-79.3433 327.181,-78.5612"/>
</g>
<!-- 8&#45;&#45;13 -->
<g id="edge208" class="edge"><title>8&#45;&#45;13</title>
<path fill="none" stroke="#999999" stroke-width="0.75" stroke-dasharray="1,5" d="M210.668,-82.718C186.452,-83.1027 151.26,-83.6617 127.061,-84.0461"/>
</g>
<!-- 8&#45;&#45;16 -->
<g id="edge214" class="edge"><title>8&#45;&#45;16</title>
<path fill="none" stroke="#999999" stroke-width="0.75" stroke-dasharray="1,5" d="M234.854,-100.366C229.078,-134.011 216.745,-205.853 210.983,-239.424"/>
</g>
<!-- 8&#45;&#45;12 -->
<g id="edge206" class="edge"><title>8&#45;&#45;12</title>
<path fill="none" stroke="#999999" stroke-width="0.352941" stroke-dasharray="1,5" d="M241.56,-100.156C245.603,-120.209 252.123,-152.551 256.167,-172.615"/>
</g>
<!-- 14 -->
<g id="node49" class="node"><title>14</title>
<ellipse fill="none" stroke="black" cx="284.065" cy="-18.6033" rx="27" ry="18"/>
<text text-anchor="middle" x="284.065" y="-14.5033" font-family="Times Roman,serif" font-size="14.00">14</text>
</g>
<!-- 8&#45;&#45;14 -->
<g id="edge210" class="edge"><title>8&#45;&#45;14</title>
<path fill="none" stroke="#999999" stroke-dasharray="1,5" d="M249.832,-65.885C256.662,-56.4509 265.221,-44.6304 272.071,-35.1686"/>
</g>
<!-- 8&#45;&#45;15 -->
<g id="edge212" class="edge"><title>8&#45;&#45;15</title>
<path fill="none" stroke="#999999" stroke-width="0.666667" stroke-dasharray="1,5" d="M244.1,-99.8579C255.897,-133.611 281.605,-207.164 293.454,-241.066"/>
</g>
<!-- 11&#45;&#45;22 -->
<g id="edge48" class="edge"><title>11&#45;&#45;22</title>
<path fill="none" stroke="blue" stroke-width="3" d="M188.92,-354.885C245.496,-345.815 377.676,-324.625 434.199,-315.564"/>
</g>
<!-- 11&#45;&#45;24 -->
<g id="edge248" class="edge"><title>11&#45;&#45;24</title>
<path fill="none" stroke="#999999" stroke-width="0.4" stroke-dasharray="1,5" d="M183.622,-370.529C217.947,-389.025 285.373,-425.358 319.681,-443.845"/>
</g>
<!-- 11&#45;&#45;23 -->
<g id="edge246" class="edge"><title>11&#45;&#45;23</title>
<path fill="none" stroke="#999999" stroke-width="0.666667" stroke-dasharray="1,5" d="M185.668,-349.584C235.292,-329.177 351.229,-281.5 400.806,-261.112"/>
</g>
<!-- 11&#45;&#45;19 -->
<g id="edge242" class="edge"><title>11&#45;&#45;19</title>
<path fill="none" stroke="#999999" stroke-width="0.857143" stroke-dasharray="1,5" d="M180.102,-372.954C198.577,-387.435 227.43,-410.052 245.956,-424.573"/>
</g>
<!-- 11&#45;&#45;21 -->
<g id="edge244" class="edge"><title>11&#45;&#45;21</title>
<path fill="none" stroke="#999999" stroke-width="0.6" stroke-dasharray="1,5" d="M158.329,-341.196C153.444,-320.007 145.366,-284.965 140.49,-263.812"/>
</g>
<!-- 11&#45;&#45;13 -->
<g id="edge42" class="edge"><title>11&#45;&#45;13</title>
<path fill="none" stroke="blue" stroke-width="6" d="M158.352,-341.106C147.004,-291.342 115.32,-152.409 103.953,-102.565"/>
</g>
<!-- 11&#45;&#45;16 -->
<g id="edge44" class="edge"><title>11&#45;&#45;16</title>
<path fill="none" stroke="red" d="M170.169,-341.871C178.524,-323.166 191.781,-293.485 200.151,-274.747"/>
</g>
<!-- 18 -->
<g id="node44" class="node"><title>18</title>
<ellipse fill="none" stroke="black" cx="96.8139" cy="-453.29" rx="27" ry="18"/>
<text text-anchor="middle" x="96.8139" y="-449.19" font-family="Times Roman,serif" font-size="14.00">18</text>
</g>
<!-- 11&#45;&#45;18 -->
<g id="edge46" class="edge"><title>11&#45;&#45;18</title>
<path fill="none" stroke="blue" stroke-width="0.75" d="M151.027,-375.529C139.051,-392.706 120.347,-419.535 108.338,-436.76"/>
</g>
<!-- 11&#45;&#45;12 -->
<g id="edge236" class="edge"><title>11&#45;&#45;12</title>
<path fill="none" stroke="#999999" stroke-width="0.333333" stroke-dasharray="1,5" d="M172.328,-342.031C190.98,-309.714 231.211,-240.006 249.883,-207.654"/>
</g>
<!-- 17 -->
<g id="node51" class="node"><title>17</title>
<ellipse fill="none" stroke="black" cx="27.7853" cy="-312.431" rx="27" ry="18"/>
<text text-anchor="middle" x="27.7853" y="-308.331" font-family="Times Roman,serif" font-size="14.00">17</text>
</g>
<!-- 11&#45;&#45;17 -->
<g id="edge240" class="edge"><title>11&#45;&#45;17</title>
<path fill="none" stroke="#999999" stroke-width="0.6" stroke-dasharray="1,5" d="M138.384,-350.778C114.022,-342.332 76.5585,-329.342 52.1084,-320.865"/>
</g>
<!-- 11&#45;&#45;15 -->
<g id="edge238" class="edge"><title>11&#45;&#45;15</title>
<path fill="none" stroke="#999999" stroke-width="0.666667" stroke-dasharray="1,5" d="M180.681,-345.808C206.923,-326.625 255.085,-291.418 281.369,-272.204"/>
</g>
<!-- 5&#45;&#45;6 -->
<g id="edge160" class="edge"><title>5&#45;&#45;6</title>
<path fill="none" stroke="#999999" stroke-width="0.375" stroke-dasharray="1,5" d="M123.024,-200.635C144.416,-225.648 186.001,-274.274 207.423,-299.322"/>
</g>
<!-- 5&#45;&#45;21 -->
<g id="edge172" class="edge"><title>5&#45;&#45;21</title>
<path fill="none" stroke="#999999" stroke-width="0.666667" stroke-dasharray="1,5" d="M117.201,-202.262C120.788,-210.437 125.061,-220.177 128.662,-228.385"/>
</g>
<!-- 5&#45;&#45;7 -->
<g id="edge30" class="edge"><title>5&#45;&#45;7</title>
<path fill="none" stroke="red" stroke-width="1.5" d="M136.921,-185.994C180.573,-187.684 265.545,-190.974 309.035,-192.658"/>
</g>
<!-- 5&#45;&#45;20 -->
<g id="edge170" class="edge"><title>5&#45;&#45;20</title>
<path fill="none" stroke="#999999" stroke-width="0.5" stroke-dasharray="1,5" d="M132.196,-175.015C178.725,-154.585 284.776,-108.019 331.56,-87.4772"/>
</g>
<!-- 5&#45;&#45;18 -->
<g id="edge168" class="edge"><title>5&#45;&#45;18</title>
<path fill="none" stroke="#999999" stroke-width="0.428571" stroke-dasharray="1,5" d="M108.741,-202.961C106.417,-251.73 100.024,-385.903 97.6857,-434.991"/>
</g>
<!-- 5&#45;&#45;12 -->
<g id="edge162" class="edge"><title>5&#45;&#45;12</title>
<path fill="none" stroke="#999999" stroke-width="0.5" stroke-dasharray="1,5" d="M136.795,-185.947C164.012,-186.957 205.637,-188.503 232.782,-189.511"/>
</g>
<!-- 5&#45;&#45;17 -->
<g id="edge166" class="edge"><title>5&#45;&#45;17</title>
<path fill="none" stroke="#999999" stroke-width="0.75" stroke-dasharray="1,5" d="M98.9036,-201.604C83.224,-226.039 54.1648,-271.323 38.4837,-295.76"/>
</g>
<!-- 5&#45;&#45;15 -->
<g id="edge164" class="edge"><title>5&#45;&#45;15</title>
<path fill="none" stroke="#999999" stroke-width="0.333333" stroke-dasharray="1,5" d="M133.287,-194.146C169.907,-208.383 239.836,-235.571 276.274,-249.738"/>
</g>
<!-- 23&#45;&#45;24 -->
<g id="edge72" class="edge"><title>23&#45;&#45;24</title>
<path fill="none" stroke="blue" stroke-width="6" d="M416.727,-269.306C400.962,-307.916 363.666,-399.262 347.97,-437.702"/>
</g>
<!-- 3&#45;&#45;6 -->
<g id="edge122" class="edge"><title>3&#45;&#45;6</title>
<path fill="none" stroke="#999999" stroke-width="0.545455" stroke-dasharray="1,5" d="M273.856,-350.072C263.392,-343.157 250.52,-334.651 240.086,-327.757"/>
</g>
<!-- 3&#45;&#45;22 -->
<g id="edge138" class="edge"><title>3&#45;&#45;22</title>
<path fill="none" stroke="#999999" stroke-width="0.315789" stroke-dasharray="1,5" d="M317.938,-355.277C349.67,-345.502 404.427,-328.635 436.075,-318.886"/>
</g>
<!-- 3&#45;&#45;8 -->
<g id="edge20" class="edge"><title>3&#45;&#45;8</title>
<path fill="none" stroke="green" stroke-width="6" d="M289.702,-344.904C279.74,-294.343 251.555,-151.298 241.542,-100.477"/>
</g>
<!-- 3&#45;&#45;11 -->
<g id="edge128" class="edge"><title>3&#45;&#45;11</title>
<path fill="none" stroke="#999999" stroke-width="0.857143" stroke-dasharray="1,5" d="M266.146,-362.105C243.701,-361.46 211.961,-360.549 189.525,-359.904"/>
</g>
<!-- 3&#45;&#45;23 -->
<g id="edge140" class="edge"><title>3&#45;&#45;23</title>
<path fill="none" stroke="#999999" stroke-width="1.5" stroke-dasharray="1,5" d="M310.065,-348.562C335.165,-327.192 382.142,-287.195 407.203,-265.857"/>
</g>
<!-- 3&#45;&#45;19 -->
<g id="edge22" class="edge"><title>3&#45;&#45;19</title>
<path fill="none" stroke="red" stroke-width="1.5" d="M286.4,-380.423C281.632,-392.641 275.3,-408.867 270.541,-421.063"/>
</g>
<!-- 3&#45;&#45;21 -->
<g id="edge24" class="edge"><title>3&#45;&#45;21</title>
<path fill="none" stroke="green" stroke-width="2" d="M274.942,-349.243C244.715,-326.714 184.711,-281.991 154.561,-259.519"/>
</g>
<!-- 3&#45;&#45;4 -->
<g id="edge120" class="edge"><title>3&#45;&#45;4</title>
<path fill="none" stroke="#999999" stroke-width="0.4" stroke-dasharray="1,5" d="M311.197,-349.295C319.06,-343.343 328.27,-336.372 336.143,-330.413"/>
</g>
<!-- 3&#45;&#45;7 -->
<g id="edge124" class="edge"><title>3&#45;&#45;7</title>
<path fill="none" stroke="#999999" stroke-width="0.6" stroke-dasharray="1,5" d="M297.75,-345.098C305.98,-312.606 323.357,-244.01 331.591,-211.506"/>
</g>
<!-- 3&#45;&#45;20 -->
<g id="edge136" class="edge"><title>3&#45;&#45;20</title>
<path fill="none" stroke="#999999" stroke-width="0.5" stroke-dasharray="1,5" d="M297.073,-345.027C308.067,-293.762 339.639,-146.529 350.631,-95.273"/>
</g>
<!-- 10 -->
<g id="node36" class="node"><title>10</title>
<ellipse fill="none" stroke="black" cx="193.658" cy="-490.054" rx="27" ry="18"/>
<text text-anchor="middle" x="193.658" y="-485.954" font-family="Times Roman,serif" font-size="14.00">10</text>
</g>
<!-- 3&#45;&#45;10 -->
<g id="edge126" class="edge"><title>3&#45;&#45;10</title>
<path fill="none" stroke="#999999" stroke-width="0.545455" stroke-dasharray="1,5" d="M280.632,-378.99C261.476,-403.451 225.263,-449.694 206.168,-474.078"/>
</g>
<!-- 3&#45;&#45;18 -->
<g id="edge134" class="edge"><title>3&#45;&#45;18</title>
<path fill="none" stroke="#999999" stroke-width="0.461538" stroke-dasharray="1,5" d="M270.711,-373.254C232.82,-390.693 156.798,-425.683 119.084,-443.04"/>
</g>
<!-- 3&#45;&#45;12 -->
<g id="edge130" class="edge"><title>3&#45;&#45;12</title>
<path fill="none" stroke="#999999" stroke-width="0.428571" stroke-dasharray="1,5" d="M289.726,-344.762C283.281,-311.571 269.656,-241.401 263.247,-208.391"/>
</g>
<!-- 3&#45;&#45;17 -->
<g id="edge132" class="edge"><title>3&#45;&#45;17</title>
<path fill="none" stroke="#999999" stroke-width="1.2" stroke-dasharray="1,5" d="M266.821,-357.861C215.937,-348.191 104.901,-327.088 54.1021,-317.433"/>
</g>
<!-- 19&#45;&#45;22 -->
<g id="edge302" class="edge"><title>19&#45;&#45;22</title>
<path fill="none" stroke="#999999" stroke-width="0.315789" stroke-dasharray="1,5" d="M283.329,-425.849C321.064,-401.472 403.409,-348.277 441.081,-323.94"/>
</g>
<!-- 19&#45;&#45;24 -->
<g id="edge306" class="edge"><title>19&#45;&#45;24</title>
<path fill="none" stroke="#999999" stroke-width="0.375" stroke-dasharray="1,5" d="M289.829,-444.17C297.953,-445.932 306.902,-447.874 315.006,-449.632"/>
</g>
<!-- 19&#45;&#45;23 -->
<g id="edge304" class="edge"><title>19&#45;&#45;23</title>
<path fill="none" stroke="#999999" stroke-width="0.75" stroke-dasharray="1,5" d="M277.394,-422.572C307.741,-387.169 380.457,-302.34 410.56,-267.223"/>
</g>
<!-- 19&#45;&#45;21 -->
<g id="edge300" class="edge"><title>19&#45;&#45;21</title>
<path fill="none" stroke="#999999" stroke-dasharray="1,5" d="M252.654,-421.758C228.507,-385.252 171.379,-298.884 147.339,-262.539"/>
</g>
<!-- 21&#45;&#45;24 -->
<g id="edge70" class="edge"><title>21&#45;&#45;24</title>
<path fill="none" stroke="red" stroke-width="1.5" d="M151.408,-261.353C189.307,-300.147 288.41,-401.59 326.034,-440.103"/>
</g>
<!-- 4&#45;&#45;22 -->
<g id="edge156" class="edge"><title>4&#45;&#45;22</title>
<path fill="none" stroke="#999999" stroke-width="0.375" stroke-dasharray="1,5" d="M381.307,-315.378C397.318,-314.561 417.515,-313.531 433.518,-312.714"/>
</g>
<!-- 4&#45;&#45;24 -->
<g id="edge158" class="edge"><title>4&#45;&#45;24</title>
<path fill="none" stroke="#999999" stroke-width="0.545455" stroke-dasharray="1,5" d="M352.43,-334.865C349.869,-361.403 345.122,-410.585 342.561,-437.125"/>
</g>
<!-- 4&#45;&#45;8 -->
<g id="edge26" class="edge"><title>4&#45;&#45;8</title>
<path fill="none" stroke="blue" stroke-width="2" d="M345.632,-299.521C324.139,-256.159 268.022,-142.941 246.516,-99.5515"/>
</g>
<!-- 4&#45;&#45;11 -->
<g id="edge146" class="edge"><title>4&#45;&#45;11</title>
<path fill="none" stroke="#999999" stroke-width="0.545455" stroke-dasharray="1,5" d="M328.322,-322.476C291.63,-330.584 224.849,-345.341 188.213,-353.436"/>
</g>
<!-- 4&#45;&#45;5 -->
<g id="edge142" class="edge"><title>4&#45;&#45;5</title>
<path fill="none" stroke="#999999" stroke-width="0.461538" stroke-dasharray="1,5" d="M332.901,-305.295C286.529,-280.301 176.82,-221.168 130.653,-196.284"/>
</g>
<!-- 4&#45;&#45;19 -->
<g id="edge154" class="edge"><title>4&#45;&#45;19</title>
<path fill="none" stroke="#999999" stroke-width="0.666667" stroke-dasharray="1,5" d="M342.167,-332.93C324.869,-356.215 293.12,-398.952 275.794,-422.274"/>
</g>
<!-- 9 -->
<g id="node29" class="node"><title>9</title>
<ellipse fill="none" stroke="black" cx="419.222" cy="-73.1598" rx="27" ry="18"/>
<text text-anchor="middle" x="419.222" y="-69.0598" font-family="Times Roman,serif" font-size="14.00">9</text>
</g>
<!-- 4&#45;&#45;9 -->
<g id="edge28" class="edge"><title>4&#45;&#45;9</title>
<path fill="none" stroke="green" d="M358.96,-298.85C370.989,-253.8 402.396,-136.177 414.432,-91.0988"/>
</g>
<!-- 4&#45;&#45;10 -->
<g id="edge144" class="edge"><title>4&#45;&#45;10</title>
<path fill="none" stroke="#999999" stroke-width="0.461538" stroke-dasharray="1,5" d="M339.933,-332.141C309.548,-364.943 238.662,-441.469 208.102,-474.461"/>
</g>
<!-- 4&#45;&#45;16 -->
<g id="edge150" class="edge"><title>4&#45;&#45;16</title>
<path fill="none" stroke="#999999" stroke-width="0.666667" stroke-dasharray="1,5" d="M330.999,-307.358C303.608,-296.243 258.31,-277.863 230.966,-266.768"/>
</g>
<!-- 4&#45;&#45;18 -->
<g id="edge152" class="edge"><title>4&#45;&#45;18</title>
<path fill="none" stroke="#999999" stroke-width="0.428571" stroke-dasharray="1,5" d="M332.678,-328.168C284.112,-353.931 166.407,-416.372 118.072,-442.013"/>
</g>
<!-- 4&#45;&#45;14 -->
<g id="edge148" class="edge"><title>4&#45;&#45;14</title>
<path fill="none" stroke="#999999" stroke-dasharray="1,5" d="M349.897,-298.56C337.351,-245.205 300.764,-89.6175 288.29,-36.5675"/>
</g>
<!-- 9&#45;&#45;22 -->
<g id="edge224" class="edge"><title>9&#45;&#45;22</title>
<path fill="none" stroke="#999999" stroke-width="0.333333" stroke-dasharray="1,5" d="M422.331,-91.0615C429.999,-135.2 449.746,-248.867 457.452,-293.223"/>
</g>
<!-- 9&#45;&#45;23 -->
<g id="edge226" class="edge"><title>9&#45;&#45;23</title>
<path fill="none" stroke="#999999" stroke-width="0.666667" stroke-dasharray="1,5" d="M419.702,-91.2506C420.61,-125.449 422.569,-199.216 423.478,-233.452"/>
</g>
<!-- 9&#45;&#45;21 -->
<g id="edge36" class="edge"><title>9&#45;&#45;21</title>
<path fill="none" stroke="red" stroke-width="1.5" d="M398.88,-85.5876C346.693,-117.471 208.517,-201.89 156.533,-233.65"/>
</g>
<!-- 9&#45;&#45;13 -->
<g id="edge218" class="edge"><title>9&#45;&#45;13</title>
<path fill="none" stroke="#999999" stroke-width="0.5" stroke-dasharray="1,5" d="M391.99,-74.1249C331.648,-76.2633 187.269,-81.3799 126.991,-83.5161"/>
</g>
<!-- 9&#45;&#45;14 -->
<g id="edge220" class="edge"><title>9&#45;&#45;14</title>
<path fill="none" stroke="#999999" stroke-width="0.666667" stroke-dasharray="1,5" d="M395.987,-63.7812C371.232,-53.7885 332.261,-38.0579 307.449,-28.0421"/>
</g>
<!-- 9&#45;&#45;15 -->
<g id="edge222" class="edge"><title>9&#45;&#45;15</title>
<path fill="none" stroke="#999999" stroke-width="0.375" stroke-dasharray="1,5" d="M408.401,-89.9644C385.638,-125.314 333.039,-206.999 310.374,-242.198"/>
</g>
<!-- 7&#45;&#45;22 -->
<g id="edge202" class="edge"><title>7&#45;&#45;22</title>
<path fill="none" stroke="#999999" stroke-width="0.333333" stroke-dasharray="1,5" d="M351.868,-208.603C375.816,-231.229 421.087,-274.002 444.958,-296.556"/>
</g>
<!-- 7&#45;&#45;8 -->
<g id="edge32" class="edge"><title>7&#45;&#45;8</title>
<path fill="none" stroke="green" stroke-width="3" d="M322.039,-177.742C303.276,-156.44 270.264,-118.962 251.677,-97.8596"/>
</g>
<!-- 7&#45;&#45;11 -->
<g id="edge194" class="edge"><title>7&#45;&#45;11</title>
<path fill="none" stroke="#999999" stroke-width="0.352941" stroke-dasharray="1,5" d="M320.385,-208.677C287.326,-240.172 210.935,-312.948 178.017,-344.308"/>
</g>
<!-- 7&#45;&#45;23 -->
<g id="edge204" class="edge"><title>7&#45;&#45;23</title>
<path fill="none" stroke="#999999" stroke-width="0.5" stroke-dasharray="1,5" d="M355.599,-206.552C370.159,-216.145 389.969,-229.196 404.516,-238.78"/>
</g>
<!-- 7&#45;&#45;20 -->
<g id="edge200" class="edge"><title>7&#45;&#45;20</title>
<path fill="none" stroke="#999999" stroke-width="0.352941" stroke-dasharray="1,5" d="M338.929,-175.791C342.368,-154.003 348.142,-117.433 351.597,-95.5492"/>
</g>
<!-- 7&#45;&#45;10 -->
<g id="edge192" class="edge"><title>7&#45;&#45;10</title>
<path fill="none" stroke="#999999" stroke-width="0.857143" stroke-dasharray="1,5" d="M327.826,-210.92C302.651,-263.297 227.161,-420.352 201.955,-472.792"/>
</g>
<!-- 7&#45;&#45;12 -->
<g id="edge196" class="edge"><title>7&#45;&#45;12</title>
<path fill="none" stroke="#999999" stroke-width="0.75" stroke-dasharray="1,5" d="M308.976,-192.571C301.778,-192.27 294.006,-191.945 286.812,-191.644"/>
</g>
<!-- 7&#45;&#45;14 -->
<g id="edge198" class="edge"><title>7&#45;&#45;14</title>
<path fill="none" stroke="#999999" stroke-width="0.6" stroke-dasharray="1,5" d="M330.825,-175.952C320.851,-142.391 299.339,-70.0009 289.355,-36.4037"/>
</g>
<!-- 20&#45;&#45;22 -->
<g id="edge308" class="edge"><title>20&#45;&#45;22</title>
<path fill="none" stroke="#999999" stroke-width="0.75" stroke-dasharray="1,5" d="M362.436,-95.0041C382.154,-138.459 433.009,-250.532 452.672,-293.866"/>
</g>
<!-- 10&#45;&#45;24 -->
<g id="edge234" class="edge"><title>10&#45;&#45;24</title>
<path fill="none" stroke="#999999" stroke-width="0.352941" stroke-dasharray="1,5" d="M219.29,-483.988C246.135,-477.636 288.061,-467.715 314.981,-461.345"/>
</g>
<!-- 10&#45;&#45;11 -->
<g id="edge40" class="edge"><title>10&#45;&#45;11</title>
<path fill="none" stroke="red" stroke-width="1.5" d="M189.386,-472.123C183.445,-447.191 172.749,-402.301 166.783,-377.261"/>
</g>
<!-- 10&#45;&#45;19 -->
<g id="edge38" class="edge"><title>10&#45;&#45;19</title>
<path fill="none" stroke="green" stroke-width="1.2" d="M212.07,-476.511C222.288,-468.994 234.964,-459.67 245.202,-452.14"/>
</g>
<!-- 10&#45;&#45;16 -->
<g id="edge230" class="edge"><title>10&#45;&#45;16</title>
<path fill="none" stroke="#999999" stroke-width="0.5" stroke-dasharray="1,5" d="M194.775,-471.798C197.437,-428.309 204.127,-318.982 206.784,-275.577"/>
</g>
<!-- 10&#45;&#45;17 -->
<g id="edge232" class="edge"><title>10&#45;&#45;17</title>
<path fill="none" stroke="#999999" stroke-width="0.315789" stroke-dasharray="1,5" d="M179.228,-474.602C147.779,-440.925 73.3745,-361.25 42.0638,-327.721"/>
</g>
<!-- 10&#45;&#45;15 -->
<g id="edge228" class="edge"><title>10&#45;&#45;15</title>
<path fill="none" stroke="#999999" stroke-width="0.315789" stroke-dasharray="1,5" d="M201.626,-472.675C221.319,-429.719 272.11,-318.932 291.748,-276.096"/>
</g>
<!-- 13&#45;&#45;21 -->
<g id="edge56" class="edge"><title>13&#45;&#45;21</title>
<path fill="none" stroke="green" stroke-width="2" d="M103.879,-102.378C110.904,-133.419 125.269,-196.889 132.307,-227.986"/>
</g>
<!-- 13&#45;&#45;16 -->
<g id="edge266" class="edge"><title>13&#45;&#45;16</title>
<path fill="none" stroke="#999999" stroke-width="0.352941" stroke-dasharray="1,5" d="M110.387,-101.375C131.1,-134.519 176.834,-207.703 197.453,-240.697"/>
</g>
<!-- 13&#45;&#45;14 -->
<g id="edge264" class="edge"><title>13&#45;&#45;14</title>
<path fill="none" stroke="#999999" stroke-width="0.857143" stroke-dasharray="1,5" d="M123.914,-75.8666C159.32,-63.2068 225.023,-39.7143 260.266,-27.1131"/>
</g>
<!-- 13&#45;&#45;17 -->
<g id="edge54" class="edge"><title>13&#45;&#45;17</title>
<path fill="none" stroke="green" stroke-width="3" d="M94.1751,-102.366C80.7078,-144.978 46.8529,-252.099 33.4121,-294.627"/>
</g>
<!-- 16&#45;&#45;24 -->
<g id="edge294" class="edge"><title>16&#45;&#45;24</title>
<path fill="none" stroke="#999999" stroke-width="0.6" stroke-dasharray="1,5" d="M218.999,-273.933C244.019,-311.171 304.569,-401.289 329.647,-438.613"/>
</g>
<!-- 16&#45;&#45;23 -->
<g id="edge292" class="edge"><title>16&#45;&#45;23</title>
<path fill="none" stroke="#999999" stroke-width="0.6" stroke-dasharray="1,5" d="M235.26,-256.67C276.821,-255.551 355.389,-253.436 396.818,-252.321"/>
</g>
<!-- 16&#45;&#45;21 -->
<g id="edge290" class="edge"><title>16&#45;&#45;21</title>
<path fill="none" stroke="#999999" stroke-width="0.428571" stroke-dasharray="1,5" d="M181.264,-253.146C175.227,-252.181 168.819,-251.155 162.791,-250.191"/>
</g>
<!-- 16&#45;&#45;20 -->
<g id="edge288" class="edge"><title>16&#45;&#45;20</title>
<path fill="none" stroke="#999999" stroke-dasharray="1,5" d="M220.902,-241.434C248.715,-207.279 313.694,-127.483 341.481,-93.3595"/>
</g>
<!-- 16&#45;&#45;18 -->
<g id="edge286" class="edge"><title>16&#45;&#45;18</title>
<path fill="none" stroke="#999999" stroke-width="0.5" stroke-dasharray="1,5" d="M198.232,-274.448C177.171,-311.587 127.344,-399.453 106.376,-436.428"/>
</g>
<!-- 16&#45;&#45;17 -->
<g id="edge64" class="edge"><title>16&#45;&#45;17</title>
<path fill="none" stroke="blue" d="M183.23,-264.942C148.835,-275.45 86.831,-294.393 52.4416,-304.899"/>
</g>
<!-- 18&#45;&#45;24 -->
<g id="edge298" class="edge"><title>18&#45;&#45;24</title>
<path fill="none" stroke="#999999" stroke-width="0.315789" stroke-dasharray="1,5" d="M123.858,-453.505C170.76,-453.879 266.662,-454.642 313.647,-455.015"/>
</g>
<!-- 18&#45;&#45;19 -->
<g id="edge296" class="edge"><title>18&#45;&#45;19</title>
<path fill="none" stroke="#999999" stroke-width="0.666667" stroke-dasharray="1,5" d="M123.632,-450.915C154.689,-448.165 205.559,-443.66 236.705,-440.902"/>
</g>
<!-- 18&#45;&#45;21 -->
<g id="edge68" class="edge"><title>18&#45;&#45;21</title>
<path fill="none" stroke="red" stroke-width="1.2" d="M100.255,-435.254C107.738,-396.044 125.413,-303.413 132.914,-264.107"/>
</g>
<!-- 12&#45;&#45;22 -->
<g id="edge260" class="edge"><title>12&#45;&#45;22</title>
<path fill="none" stroke="#999999" stroke-dasharray="1,5" d="M280.137,-202.763C318.727,-225.979 402.081,-276.127 440.481,-299.23"/>
</g>
<!-- 12&#45;&#45;23 -->
<g id="edge262" class="edge"><title>12&#45;&#45;23</title>
<path fill="none" stroke="#999999" stroke-width="0.461538" stroke-dasharray="1,5" d="M283.649,-199.394C314.867,-211.007 369.225,-231.228 400.324,-242.798"/>
</g>
<!-- 12&#45;&#45;19 -->
<g id="edge256" class="edge"><title>12&#45;&#45;19</title>
<path fill="none" stroke="#999999" stroke-width="0.666667" stroke-dasharray="1,5" d="M260.067,-208.749C260.798,-254.61 262.71,-374.355 263.442,-420.246"/>
</g>
<!-- 12&#45;&#45;21 -->
<g id="edge50" class="edge"><title>12&#45;&#45;21</title>
<path fill="none" stroke="red" stroke-width="2" d="M237.142,-200.684C214.877,-210.689 181.081,-225.876 158.866,-235.859"/>
</g>
<!-- 12&#45;&#45;20 -->
<g id="edge258" class="edge"><title>12&#45;&#45;20</title>
<path fill="none" stroke="#999999" stroke-width="0.352941" stroke-dasharray="1,5" d="M272.941,-174.788C290.929,-153.303 323.012,-114.983 341.1,-93.3786"/>
</g>
<!-- 12&#45;&#45;13 -->
<g id="edge250" class="edge"><title>12&#45;&#45;13</title>
<path fill="none" stroke="#999999" stroke-width="0.428571" stroke-dasharray="1,5" d="M240.482,-177.723C209.739,-157.342 149.976,-117.723 119.19,-97.3143"/>
</g>
<!-- 12&#45;&#45;14 -->
<g id="edge52" class="edge"><title>12&#45;&#45;14</title>
<path fill="none" stroke="blue" stroke-width="3" d="M262.329,-172.441C266.994,-139.424 276.843,-69.7199 281.51,-36.6916"/>
</g>
<!-- 12&#45;&#45;17 -->
<g id="edge254" class="edge"><title>12&#45;&#45;17</title>
<path fill="none" stroke="#999999" stroke-width="0.461538" stroke-dasharray="1,5" d="M238.366,-201.764C194.171,-224.99 93.2936,-278.005 49.1428,-301.207"/>
</g>
<!-- 12&#45;&#45;15 -->
<g id="edge252" class="edge"><title>12&#45;&#45;15</title>
<path fill="none" stroke="#999999" stroke-width="0.75" stroke-dasharray="1,5" d="M269.635,-207.4C275.726,-217.832 283.519,-231.18 289.64,-241.663"/>
</g>
<!-- 14&#45;&#45;23 -->
<g id="edge272" class="edge"><title>14&#45;&#45;23</title>
<path fill="none" stroke="#999999" stroke-width="0.375" stroke-dasharray="1,5" d="M294.126,-35.3592C319.875,-78.2427 387.948,-191.614 413.802,-234.673"/>
</g>
<!-- 14&#45;&#45;21 -->
<g id="edge270" class="edge"><title>14&#45;&#45;21</title>
<path fill="none" stroke="#999999" stroke-dasharray="1,5" d="M273.205,-35.3218C245.893,-77.3679 174.581,-187.15 147.252,-229.222"/>
</g>
<!-- 14&#45;&#45;20 -->
<g id="edge58" class="edge"><title>14&#45;&#45;20</title>
<path fill="none" stroke="red" stroke-width="3" d="M301.106,-32.8419C312.173,-42.0898 326.539,-54.0938 337.575,-63.3155"/>
</g>
<!-- 14&#45;&#45;16 -->
<g id="edge268" class="edge"><title>14&#45;&#45;16</title>
<path fill="none" stroke="#999999" stroke-width="0.6" stroke-dasharray="1,5" d="M278.34,-36.5524C264.19,-80.9165 227.694,-195.335 213.583,-239.575"/>
</g>
<!-- 17&#45;&#45;21 -->
<g id="edge66" class="edge"><title>17&#45;&#45;21</title>
<path fill="none" stroke="green" stroke-width="2" d="M47.7024,-300.24C67.1732,-288.323 96.664,-270.272 116.217,-258.304"/>
</g>
<!-- 15&#45;&#45;22 -->
<g id="edge60" class="edge"><title>15&#45;&#45;22</title>
<path fill="none" stroke="green" stroke-width="2" d="M324.106,-266.805C354.442,-276.701 405.869,-293.478 436.189,-303.369"/>
</g>
<!-- 15&#45;&#45;24 -->
<g id="edge284" class="edge"><title>15&#45;&#45;24</title>
<path fill="none" stroke="#999999" stroke-dasharray="1,5" d="M303.461,-276.956C311.3,-314.371 329.193,-399.773 337.025,-437.151"/>
</g>
<!-- 15&#45;&#45;23 -->
<g id="edge62" class="edge"><title>15&#45;&#45;23</title>
<path fill="none" stroke="blue" stroke-width="2" d="M326.634,-257.26C347.483,-256.045 376.207,-254.372 397.042,-253.158"/>
</g>
<!-- 15&#45;&#45;19 -->
<g id="edge278" class="edge"><title>15&#45;&#45;19</title>
<path fill="none" stroke="#999999" stroke-width="0.461538" stroke-dasharray="1,5" d="M296.087,-276.716C289.218,-311.068 274.249,-385.925 267.349,-420.429"/>
</g>
<!-- 15&#45;&#45;21 -->
<g id="edge282" class="edge"><title>15&#45;&#45;21</title>
<path fill="none" stroke="#999999" stroke-width="1.5" stroke-dasharray="1,5" d="M272.7,-256.706C242.445,-254.322 193.65,-250.478 163.379,-248.093"/>
</g>
<!-- 15&#45;&#45;20 -->
<g id="edge280" class="edge"><title>15&#45;&#45;20</title>
<path fill="none" stroke="#999999" stroke-width="0.545455" stroke-dasharray="1,5" d="M305.017,-241.106C315.493,-206.425 338.59,-129.958 349.083,-95.2193"/>
</g>
<!-- 15&#45;&#45;16 -->
<g id="edge274" class="edge"><title>15&#45;&#45;16</title>
<path fill="none" stroke="#999999" stroke-width="0.4" stroke-dasharray="1,5" d="M272.626,-258.411C260.784,-258.227 246.913,-258.012 235.056,-257.828"/>
</g>
<!-- 15&#45;&#45;17 -->
<g id="edge276" class="edge"><title>15&#45;&#45;17</title>
<path fill="none" stroke="#999999" stroke-width="0.428571" stroke-dasharray="1,5" d="M273.595,-263.97C221.627,-274.216 105.677,-297.075 53.7752,-307.308"/>
</g>
</g>
</svg>
