<?xml version="1.0" encoding="UTF-8" standalone="no"?>
<!DOCTYPE svg PUBLIC "-//W3C//DTD SVG 1.1//EN"
 "http://www.w3.org/Graphics/SVG/1.1/DTD/svg11.dtd">
<!-- Generated by graphviz version 2.26.3 (20100126.1600)
 -->
<!-- Title: G Pages: 1 -->
<svg width="496pt" height="478pt"
 viewBox="0.00 0.00 496.00 478.00" xmlns="http://www.w3.org/2000/svg" xmlns:xlink="http://www.w3.org/1999/xlink">
<g id="graph1" class="graph" transform="scale(1 1) rotate(0) translate(4 474)">
<title>G</title>
<polygon fill="white" stroke="white" points="-4,5 -4,-474 493,-474 493,5 -4,5"/>
<!-- 12_0 -->
<g id="node1" class="node"><title>12_0</title>
<polygon fill="none" stroke="black" points="145.238,-228.641 91.2381,-228.641 91.2381,-192.641 145.238,-192.641 145.238,-228.641"/>
<text text-anchor="middle" x="118.238" y="-206.541" font-family="Times Roman,serif" font-size="14.00">12_0</text>
</g>
<!-- 6_0 -->
<g id="node2" class="node"><title>6_0</title>
<polygon fill="none" stroke="black" points="133.238,-180.641 79.2381,-180.641 79.2381,-144.641 133.238,-144.641 133.238,-180.641"/>
<text text-anchor="middle" x="106.238" y="-158.541" font-family="Times Roman,serif" font-size="14.00">6_0</text>
</g>
<!-- 10_0 -->
<g id="node3" class="node"><title>10_0</title>
<polygon fill="none" stroke="black" points="109.238,-414.641 55.2381,-414.641 55.2381,-378.641 109.238,-378.641 109.238,-414.641"/>
<text text-anchor="middle" x="82.2381" y="-392.541" font-family="Times Roman,serif" font-size="14.00">10_0</text>
</g>
<!-- 13_0 -->
<g id="node4" class="node"><title>13_0</title>
<polygon fill="none" stroke="black" points="109.238,-276.641 55.2381,-276.641 55.2381,-240.641 109.238,-240.641 109.238,-276.641"/>
<text text-anchor="middle" x="82.2381" y="-254.541" font-family="Times Roman,serif" font-size="14.00">13_0</text>
</g>
<!-- 8_1 -->
<g id="node5" class="node"><title>8_1</title>
<polygon fill="none" stroke="black" points="439.238,-420.641 385.238,-420.641 385.238,-384.641 439.238,-384.641 439.238,-420.641"/>
<text text-anchor="middle" x="412.238" y="-398.541" font-family="Times Roman,serif" font-size="14.00">8_1</text>
</g>
<!-- 8_0 -->
<g id="node6" class="node"><title>8_0</title>
<polygon fill="none" stroke="black" points="373.238,-420.641 319.238,-420.641 319.238,-384.641 373.238,-384.641 373.238,-420.641"/>
<text text-anchor="middle" x="346.238" y="-398.541" font-family="Times Roman,serif" font-size="14.00">8_0</text>
</g>
<!-- 1_0 -->
<g id="node7" class="node"><title>1_0</title>
<polygon fill="none" stroke="black" points="307.238,-420.641 253.238,-420.641 253.238,-384.641 307.238,-384.641 307.238,-420.641"/>
<text text-anchor="middle" x="280.238" y="-398.541" font-family="Times Roman,serif" font-size="14.00">1_0</text>
</g>
<!-- 7_0 -->
<g id="node8" class="node"><title>7_0</title>
<polygon fill="none" stroke="black" points="241.238,-420.641 187.238,-420.641 187.238,-384.641 241.238,-384.641 241.238,-420.641"/>
<text text-anchor="middle" x="214.238" y="-398.541" font-family="Times Roman,serif" font-size="14.00">7_0</text>
</g>
<!-- 0_0 -->
<g id="node9" class="node"><title>0_0</title>
<polygon fill="none" stroke="black" points="175.238,-420.641 121.238,-420.641 121.238,-384.641 175.238,-384.641 175.238,-420.641"/>
<text text-anchor="middle" x="148.238" y="-398.541" font-family="Times Roman,serif" font-size="14.00">0_0</text>
</g>
<!-- 0_1 -->
<g id="node10" class="node"><title>0_1</title>
<polygon fill="none" stroke="black" points="103.238,-84.6409 49.2381,-84.6409 49.2381,-48.6409 103.238,-48.6409 103.238,-84.6409"/>
<text text-anchor="middle" x="76.2381" y="-62.5409" font-family="Times Roman,serif" font-size="14.00">0_1</text>
</g>
<!-- 3_1 -->
<g id="node11" class="node"><title>3_1</title>
<polygon fill="none" stroke="black" points="169.238,-84.6409 115.238,-84.6409 115.238,-48.6409 169.238,-48.6409 169.238,-84.6409"/>
<text text-anchor="middle" x="142.238" y="-62.5409" font-family="Times Roman,serif" font-size="14.00">3_1</text>
</g>
<!-- 3_0 -->
<g id="node12" class="node"><title>3_0</title>
<polygon fill="none" stroke="black" points="451.238,-192.641 397.238,-192.641 397.238,-156.641 451.238,-156.641 451.238,-192.641"/>
<text text-anchor="middle" x="424.238" y="-170.541" font-family="Times Roman,serif" font-size="14.00">3_0</text>
</g>
<!-- 16_0 -->
<g id="node13" class="node"><title>16_0</title>
<polygon fill="none" stroke="black" points="85.2381,-132.641 31.2381,-132.641 31.2381,-96.6409 85.2381,-96.6409 85.2381,-132.641"/>
<text text-anchor="middle" x="58.2381" y="-110.541" font-family="Times Roman,serif" font-size="14.00">16_0</text>
</g>
<!-- 16_1 -->
<g id="node14" class="node"><title>16_1</title>
<polygon fill="none" stroke="black" points="463.238,-288.641 409.238,-288.641 409.238,-252.641 463.238,-252.641 463.238,-288.641"/>
<text text-anchor="middle" x="436.238" y="-266.541" font-family="Times Roman,serif" font-size="14.00">16_1</text>
</g>
<!-- 16_2 -->
<g id="node15" class="node"><title>16_2</title>
<polygon fill="none" stroke="black" points="79.2381,-228.641 25.2381,-228.641 25.2381,-192.641 79.2381,-192.641 79.2381,-228.641"/>
<text text-anchor="middle" x="52.2381" y="-206.541" font-family="Times Roman,serif" font-size="14.00">16_2</text>
</g>
<!-- 2_0 -->
<g id="node16" class="node"><title>2_0</title>
<polygon fill="none" stroke="black" points="271.238,-48.6409 217.238,-48.6409 217.238,-12.6409 271.238,-12.6409 271.238,-48.6409"/>
<text text-anchor="middle" x="244.238" y="-26.5409" font-family="Times Roman,serif" font-size="14.00">2_0</text>
</g>
<!-- 15_1 -->
<g id="node17" class="node"><title>15_1</title>
<polygon fill="none" stroke="black" points="337.238,-48.6409 283.238,-48.6409 283.238,-12.6409 337.238,-12.6409 337.238,-48.6409"/>
<text text-anchor="middle" x="310.238" y="-26.5409" font-family="Times Roman,serif" font-size="14.00">15_1</text>
</g>
<!-- 9_1 -->
<g id="node18" class="node"><title>9_1</title>
<polygon fill="none" stroke="black" points="403.238,-48.6409 349.238,-48.6409 349.238,-12.6409 403.238,-12.6409 403.238,-48.6409"/>
<text text-anchor="middle" x="376.238" y="-26.5409" font-family="Times Roman,serif" font-size="14.00">9_1</text>
</g>
<!-- 9_0 -->
<g id="node19" class="node"><title>9_0</title>
<polygon fill="none" stroke="black" points="469.238,-48.6409 415.238,-48.6409 415.238,-12.6409 469.238,-12.6409 469.238,-48.6409"/>
<text text-anchor="middle" x="442.238" y="-26.5409" font-family="Times Roman,serif" font-size="14.00">9_0</text>
</g>
<!-- 5_2 -->
<g id="node20" class="node"><title>5_2</title>
<polygon fill="none" stroke="black" points="67.2381,-180.641 13.2381,-180.641 13.2381,-144.641 67.2381,-144.641 67.2381,-180.641"/>
<text text-anchor="middle" x="40.2381" y="-158.541" font-family="Times Roman,serif" font-size="14.00">5_2</text>
</g>
<!-- 5_1 -->
<g id="node21" class="node"><title>5_1</title>
<polygon fill="none" stroke="black" points="109.238,-462.641 55.2381,-462.641 55.2381,-426.641 109.238,-426.641 109.238,-462.641"/>
<text text-anchor="middle" x="82.2381" y="-440.541" font-family="Times Roman,serif" font-size="14.00">5_1</text>
</g>
<!-- 5_0 -->
<g id="node22" class="node"><title>5_0</title>
<polygon fill="none" stroke="black" points="487.238,-96.6409 433.238,-96.6409 433.238,-60.6409 487.238,-60.6409 487.238,-96.6409"/>
<text text-anchor="middle" x="460.238" y="-74.5409" font-family="Times Roman,serif" font-size="14.00">5_0</text>
</g>
<!-- 11_1 -->
<g id="node23" class="node"><title>11_1</title>
<polygon fill="none" stroke="black" points="487.238,-468.641 433.238,-468.641 433.238,-432.641 487.238,-432.641 487.238,-468.641"/>
<text text-anchor="middle" x="460.238" y="-446.541" font-family="Times Roman,serif" font-size="14.00">11_1</text>
</g>
<!-- 4_0 -->
<g id="node24" class="node"><title>4_0</title>
<polygon fill="none" stroke="black" points="421.238,-468.641 367.238,-468.641 367.238,-432.641 421.238,-432.641 421.238,-468.641"/>
<text text-anchor="middle" x="394.238" y="-446.541" font-family="Times Roman,serif" font-size="14.00">4_0</text>
</g>
<!-- 11_0 -->
<g id="node25" class="node"><title>11_0</title>
<polygon fill="none" stroke="black" points="355.238,-468.641 301.238,-468.641 301.238,-432.641 355.238,-432.641 355.238,-468.641"/>
<text text-anchor="middle" x="328.238" y="-446.541" font-family="Times Roman,serif" font-size="14.00">11_0</text>
</g>
<!-- 14_0 -->
<g id="node26" class="node"><title>14_0</title>
<polygon fill="none" stroke="black" points="289.238,-468.641 235.238,-468.641 235.238,-432.641 289.238,-432.641 289.238,-468.641"/>
<text text-anchor="middle" x="262.238" y="-446.541" font-family="Times Roman,serif" font-size="14.00">14_0</text>
</g>
<!-- node_9 -->
<g id="node27" class="node"><title>node_9</title>
<ellipse fill="none" stroke="black" cx="311.238" cy="-126.641" rx="46.0565" ry="18"/>
<text text-anchor="middle" x="311.238" y="-122.541" font-family="Times Roman,serif" font-size="14.00">node_9</text>
</g>
<!-- node_8 -->
<g id="node28" class="node"><title>node_8</title>
<ellipse fill="none" stroke="black" cx="383.238" cy="-354.641" rx="46.0565" ry="18"/>
<text text-anchor="middle" x="383.238" y="-350.541" font-family="Times Roman,serif" font-size="14.00">node_8</text>
</g>
<!-- node_7 -->
<g id="node29" class="node"><title>node_7</title>
<ellipse fill="none" stroke="black" cx="275.238" cy="-354.641" rx="46.0565" ry="18"/>
<text text-anchor="middle" x="275.238" y="-350.541" font-family="Times Roman,serif" font-size="14.00">node_7</text>
</g>
<!-- node_6 -->
<g id="node30" class="node"><title>node_6</title>
<ellipse fill="none" stroke="black" cx="167.238" cy="-354.641" rx="46.0565" ry="18"/>
<text text-anchor="middle" x="167.238" y="-350.541" font-family="Times Roman,serif" font-size="14.00">node_6</text>
</g>
<!-- node_5 -->
<g id="node31" class="node"><title>node_5</title>
<ellipse fill="none" stroke="black" cx="143.238" cy="-114.641" rx="46.0565" ry="18"/>
<text text-anchor="middle" x="143.238" y="-110.541" font-family="Times Roman,serif" font-size="14.00">node_5</text>
</g>
<!-- node_4 -->
<g id="node32" class="node"><title>node_4</title>
<ellipse fill="none" stroke="black" cx="407.238" cy="-222.641" rx="46.0565" ry="18"/>
<text text-anchor="middle" x="407.238" y="-218.541" font-family="Times Roman,serif" font-size="14.00">node_4</text>
</g>
<!-- node_3 -->
<g id="node33" class="node"><title>node_3</title>
<ellipse fill="none" stroke="black" cx="263.238" cy="-78.6409" rx="46.0565" ry="18"/>
<text text-anchor="middle" x="263.238" y="-74.5409" font-family="Times Roman,serif" font-size="14.00">node_3</text>
</g>
<!-- node_2 -->
<g id="node34" class="node"><title>node_2</title>
<ellipse fill="none" stroke="black" cx="371.238" cy="-78.6409" rx="46.0565" ry="18"/>
<text text-anchor="middle" x="371.238" y="-74.5409" font-family="Times Roman,serif" font-size="14.00">node_2</text>
</g>
<!-- node_1 -->
<g id="node35" class="node"><title>node_1</title>
<ellipse fill="none" stroke="black" cx="419.238" cy="-126.641" rx="46.0565" ry="18"/>
<text text-anchor="middle" x="419.238" y="-122.541" font-family="Times Roman,serif" font-size="14.00">node_1</text>
</g>
<!-- node_0 -->
<g id="node36" class="node"><title>node_0</title>
<ellipse fill="none" stroke="black" cx="107.238" cy="-306.641" rx="46.0565" ry="18"/>
<text text-anchor="middle" x="107.238" y="-302.541" font-family="Times Roman,serif" font-size="14.00">node_0</text>
</g>
<!-- 11_2 -->
<g id="node37" class="node"><title>11_2</title>
<polygon fill="none" stroke="black" points="223.238,-468.641 169.238,-468.641 169.238,-432.641 223.238,-432.641 223.238,-468.641"/>
<text text-anchor="middle" x="196.238" y="-446.541" font-family="Times Roman,serif" font-size="14.00">11_2</text>
</g>
<!-- 15_0 -->
<g id="node38" class="node"><title>15_0</title>
<polygon fill="none" stroke="black" points="55.2381,-36.6409 1.23812,-36.6409 1.23812,-0.640888 55.2381,-0.640888 55.2381,-36.6409"/>
<text text-anchor="middle" x="28.2381" y="-14.5409" font-family="Times Roman,serif" font-size="14.00">15_0</text>
</g>
<!-- node_15 -->
<g id="node39" class="node"><title>node_15</title>
<ellipse fill="none" stroke="black" cx="210.238" cy="-210.641" rx="52.8111" ry="18"/>
<text text-anchor="middle" x="210.238" y="-206.541" font-family="Times Roman,serif" font-size="14.00">node_15</text>
</g>
<!-- node_14 -->
<g id="node40" class="node"><title>node_14</title>
<ellipse fill="none" stroke="black" cx="294.238" cy="-258.641" rx="52.8111" ry="18"/>
<text text-anchor="middle" x="294.238" y="-254.541" font-family="Times Roman,serif" font-size="14.00">node_14</text>
</g>
<!-- node_13 -->
<g id="node41" class="node"><title>node_13</title>
<ellipse fill="none" stroke="black" cx="330.238" cy="-174.641" rx="52.8111" ry="18"/>
<text text-anchor="middle" x="330.238" y="-170.541" font-family="Times Roman,serif" font-size="14.00">node_13</text>
</g>
<!-- node_12 -->
<g id="node42" class="node"><title>node_12</title>
<ellipse fill="none" stroke="black" cx="342.238" cy="-306.641" rx="52.8111" ry="18"/>
<text text-anchor="middle" x="342.238" y="-302.541" font-family="Times Roman,serif" font-size="14.00">node_12</text>
</g>
<!-- node_11 -->
<g id="node43" class="node"><title>node_11</title>
<ellipse fill="none" stroke="black" cx="222.238" cy="-306.641" rx="52.8111" ry="18"/>
<text text-anchor="middle" x="222.238" y="-302.541" font-family="Times Roman,serif" font-size="14.00">node_11</text>
</g>
<!-- node_10 -->
<g id="node44" class="node"><title>node_10</title>
<ellipse fill="none" stroke="black" cx="198.238" cy="-162.641" rx="52.8111" ry="18"/>
<text text-anchor="middle" x="198.238" y="-158.541" font-family="Times Roman,serif" font-size="14.00">node_10</text>
</g>
<!-- node_16 -->
<g id="node45" class="node"><title>node_16</title>
<ellipse fill="none" stroke="black" cx="174.238" cy="-258.641" rx="52.8111" ry="18"/>
<text text-anchor="middle" x="174.238" y="-254.541" font-family="Times Roman,serif" font-size="14.00">node_16</text>
</g>
</g>
</svg>
