<?xml version="1.0" encoding="UTF-8" standalone="no"?>
<!DOCTYPE svg PUBLIC "-//W3C//DTD SVG 1.1//EN"
 "http://www.w3.org/Graphics/SVG/1.1/DTD/svg11.dtd">
<!-- Generated by graphviz version 2.26.3 (20100126.1600)
 -->
<!-- Title: G Pages: 1 -->
<svg width="3312pt" height="188pt"
 viewBox="0.00 0.00 3312.00 188.00" xmlns="http://www.w3.org/2000/svg" xmlns:xlink="http://www.w3.org/1999/xlink">
<g id="graph1" class="graph" transform="scale(1 1) rotate(0) translate(4 184)">
<title>G</title>
<polygon fill="white" stroke="white" points="-4,5 -4,-184 3309,-184 3309,5 -4,5"/>
<!-- 00a0571c2f85 -->
<g id="node1" class="node"><title>00a0571c2f85</title>
<ellipse fill="none" stroke="black" cx="81" cy="-162" rx="80.8024" ry="18"/>
<text text-anchor="middle" x="81" y="-157.9" font-family="Times Roman,serif" font-size="14.00">00a0571c2f85</text>
</g>
<!-- 00a0571da017 -->
<g id="node3" class="node"><title>00a0571da017</title>
<ellipse fill="none" stroke="black" cx="90" cy="-90" rx="84.7756" ry="18"/>
<text text-anchor="middle" x="90" y="-85.9" font-family="Times Roman,serif" font-size="14.00">00a0571da017</text>
</g>
<!-- 00a0571c2f85&#45;&#45;00a0571da017 -->
<g id="edge2" class="edge"><title>00a0571c2f85&#45;&#45;00a0571da017</title>
<path fill="none" stroke="black" stroke-width="2" d="M83.2711,-143.831C84.625,-133 86.3391,-119.288 87.6983,-108.413"/>
</g>
<!-- ece55574a4d5 -->
<g id="node4" class="node"><title>ece55574a4d5</title>
<ellipse fill="none" stroke="black" cx="448" cy="-162" rx="82.1898" ry="18"/>
<text text-anchor="middle" x="448" y="-157.9" font-family="Times Roman,serif" font-size="14.00">ece55574a4d5</text>
</g>
<!-- ece555ffd61e -->
<g id="node6" class="node"><title>ece555ffd61e</title>
<ellipse fill="none" stroke="black" cx="280" cy="-90" rx="77.1319" ry="18"/>
<text text-anchor="middle" x="280" y="-85.9" font-family="Times Roman,serif" font-size="14.00">ece555ffd61e</text>
</g>
<!-- ece55574a4d5&#45;&#45;ece555ffd61e -->
<g id="edge4" class="edge"><title>ece55574a4d5&#45;&#45;ece555ffd61e</title>
<path fill="none" stroke="black" stroke-width="2" d="M410.298,-145.842C382.436,-133.901 344.692,-117.725 316.998,-105.856"/>
</g>
<!-- ece555ffd6cc -->
<g id="node8" class="node"><title>ece555ffd6cc</title>
<ellipse fill="none" stroke="black" cx="449" cy="-90" rx="73.8534" ry="18"/>
<text text-anchor="middle" x="449" y="-85.9" font-family="Times Roman,serif" font-size="14.00">ece555ffd6cc</text>
</g>
<!-- ece55574a4d5&#45;&#45;ece555ffd6cc -->
<g id="edge6" class="edge"><title>ece55574a4d5&#45;&#45;ece555ffd6cc</title>
<path fill="none" stroke="black" stroke-width="2" d="M448.252,-143.831C448.403,-133 448.593,-119.288 448.744,-108.413"/>
</g>
<!-- ece555ffd650 -->
<g id="node9" class="node"><title>ece555ffd650</title>
<ellipse fill="none" stroke="black" cx="626" cy="-162" rx="77.8268" ry="18"/>
<text text-anchor="middle" x="626" y="-157.9" font-family="Times Roman,serif" font-size="14.00">ece555ffd650</text>
</g>
<!-- ece555748695 -->
<g id="node11" class="node"><title>ece555748695</title>
<ellipse fill="none" stroke="black" cx="707" cy="-90" rx="84.0808" ry="18"/>
<text text-anchor="middle" x="707" y="-85.9" font-family="Times Roman,serif" font-size="14.00">ece555748695</text>
</g>
<!-- ece555ffd650&#45;&#45;ece555748695 -->
<g id="edge8" class="edge"><title>ece555ffd650&#45;&#45;ece555748695</title>
<path fill="none" stroke="black" stroke-width="2" d="M645.608,-144.571C658.249,-133.334 674.631,-118.773 687.292,-107.518"/>
</g>
<!-- 00a0571c363f -->
<g id="node12" class="node"><title>00a0571c363f</title>
<ellipse fill="none" stroke="black" cx="975" cy="-162" rx="80.8024" ry="18"/>
<text text-anchor="middle" x="975" y="-157.9" font-family="Times Roman,serif" font-size="14.00">00a0571c363f</text>
</g>
<!-- 00a0571d6865 -->
<g id="node14" class="node"><title>00a0571d6865</title>
<ellipse fill="none" stroke="black" cx="975" cy="-90" rx="84.9707" ry="18"/>
<text text-anchor="middle" x="975" y="-85.9" font-family="Times Roman,serif" font-size="14.00">00a0571d6865</text>
</g>
<!-- 00a0571c363f&#45;&#45;00a0571d6865 -->
<g id="edge10" class="edge"><title>00a0571c363f&#45;&#45;00a0571d6865</title>
<path fill="none" stroke="black" stroke-width="2" d="M975,-143.831C975,-133 975,-119.288 975,-108.413"/>
</g>
<!-- 00a0571c3511 -->
<g id="node34" class="node"><title>00a0571c3511</title>
<ellipse fill="none" stroke="black" cx="975" cy="-18" rx="84.7756" ry="18"/>
<text text-anchor="middle" x="975" y="-13.9" font-family="Times Roman,serif" font-size="14.00">00a0571c3511</text>
</g>
<!-- 00a0571d6865&#45;&#45;00a0571c3511 -->
<g id="edge26" class="edge"><title>00a0571d6865&#45;&#45;00a0571c3511</title>
<path fill="none" stroke="black" stroke-width="2" d="M975,-71.8314C975,-61 975,-47.2876 975,-36.4133"/>
</g>
<!-- ece555ffd5da -->
<g id="node15" class="node"><title>ece555ffd5da</title>
<ellipse fill="none" stroke="black" cx="1191" cy="-162" rx="75.9375" ry="18"/>
<text text-anchor="middle" x="1191" y="-157.9" font-family="Times Roman,serif" font-size="14.00">ece555ffd5da</text>
</g>
<!-- ece55571dcd0 -->
<g id="node17" class="node"><title>ece55571dcd0</title>
<ellipse fill="none" stroke="black" cx="1233" cy="-90" rx="80.8024" ry="18"/>
<text text-anchor="middle" x="1233" y="-85.9" font-family="Times Roman,serif" font-size="14.00">ece55571dcd0</text>
</g>
<!-- ece555ffd5da&#45;&#45;ece55571dcd0 -->
<g id="edge12" class="edge"><title>ece555ffd5da&#45;&#45;ece55571dcd0</title>
<path fill="none" stroke="black" stroke-width="2" d="M1201.6,-143.831C1208.01,-132.833 1216.16,-118.865 1222.55,-107.913"/>
</g>
<!-- ece555ffd5bf -->
<g id="node18" class="node"><title>ece555ffd5bf</title>
<ellipse fill="none" stroke="black" cx="1529" cy="-162" rx="73.8534" ry="18"/>
<text text-anchor="middle" x="1529" y="-157.9" font-family="Times Roman,serif" font-size="14.00">ece555ffd5bf</text>
</g>
<!-- ece55571dca0 -->
<g id="node20" class="node"><title>ece55571dca0</title>
<ellipse fill="none" stroke="black" cx="1529" cy="-90" rx="80.8024" ry="18"/>
<text text-anchor="middle" x="1529" y="-85.9" font-family="Times Roman,serif" font-size="14.00">ece55571dca0</text>
</g>
<!-- ece555ffd5bf&#45;&#45;ece55571dca0 -->
<g id="edge14" class="edge"><title>ece555ffd5bf&#45;&#45;ece55571dca0</title>
<path fill="none" stroke="black" stroke-width="2" d="M1529,-143.831C1529,-133 1529,-119.288 1529,-108.413"/>
</g>
<!-- ece555ffd5af -->
<g id="node30" class="node"><title>ece555ffd5af</title>
<ellipse fill="none" stroke="black" cx="1529" cy="-18" rx="73.8534" ry="18"/>
<text text-anchor="middle" x="1529" y="-13.9" font-family="Times Roman,serif" font-size="14.00">ece555ffd5af</text>
</g>
<!-- ece55571dca0&#45;&#45;ece555ffd5af -->
<g id="edge22" class="edge"><title>ece55571dca0&#45;&#45;ece555ffd5af</title>
<path fill="none" stroke="black" stroke-width="2" d="M1529,-71.8314C1529,-61 1529,-47.2876 1529,-36.4133"/>
</g>
<!-- 00a0571c3501 -->
<g id="node21" class="node"><title>00a0571c3501</title>
<ellipse fill="none" stroke="black" cx="1754" cy="-162" rx="84.7756" ry="18"/>
<text text-anchor="middle" x="1754" y="-157.9" font-family="Times Roman,serif" font-size="14.00">00a0571c3501</text>
</g>
<!-- 00a0571d6864 -->
<g id="node23" class="node"><title>00a0571d6864</title>
<ellipse fill="none" stroke="black" cx="1803" cy="-90" rx="84.9707" ry="18"/>
<text text-anchor="middle" x="1803" y="-85.9" font-family="Times Roman,serif" font-size="14.00">00a0571d6864</text>
</g>
<!-- 00a0571c3501&#45;&#45;00a0571d6864 -->
<g id="edge16" class="edge"><title>00a0571c3501&#45;&#45;00a0571d6864</title>
<path fill="none" stroke="black" stroke-width="2" d="M1766.36,-143.831C1773.85,-132.833 1783.36,-118.865 1790.81,-107.913"/>
</g>
<!-- 00a0571c3641 -->
<g id="node24" class="node"><title>00a0571c3641</title>
<ellipse fill="none" stroke="black" cx="1942" cy="-162" rx="84.7756" ry="18"/>
<text text-anchor="middle" x="1942" y="-157.9" font-family="Times Roman,serif" font-size="14.00">00a0571c3641</text>
</g>
<!-- 00a0571c3641&#45;&#45;00a0571d6864 -->
<g id="edge18" class="edge"><title>00a0571c3641&#45;&#45;00a0571d6864</title>
<path fill="none" stroke="black" stroke-width="2" d="M1909.76,-145.301C1887.47,-133.752 1857.91,-118.441 1835.55,-106.858"/>
</g>
<!-- 00a0571c373e -->
<g id="node26" class="node"><title>00a0571c373e</title>
<ellipse fill="none" stroke="black" cx="2129" cy="-162" rx="84.0808" ry="18"/>
<text text-anchor="middle" x="2129" y="-157.9" font-family="Times Roman,serif" font-size="14.00">00a0571c373e</text>
</g>
<!-- 00a0571d6867 -->
<g id="node28" class="node"><title>00a0571d6867</title>
<ellipse fill="none" stroke="black" cx="2129" cy="-90" rx="84.9707" ry="18"/>
<text text-anchor="middle" x="2129" y="-85.9" font-family="Times Roman,serif" font-size="14.00">00a0571d6867</text>
</g>
<!-- 00a0571c373e&#45;&#45;00a0571d6867 -->
<g id="edge20" class="edge"><title>00a0571c373e&#45;&#45;00a0571d6867</title>
<path fill="none" stroke="black" stroke-width="2" d="M2129,-143.831C2129,-133 2129,-119.288 2129,-108.413"/>
</g>
<!-- 00a0571c3732 -->
<g id="node36" class="node"><title>00a0571c3732</title>
<ellipse fill="none" stroke="black" cx="2129" cy="-18" rx="84.7756" ry="18"/>
<text text-anchor="middle" x="2129" y="-13.9" font-family="Times Roman,serif" font-size="14.00">00a0571c3732</text>
</g>
<!-- 00a0571d6867&#45;&#45;00a0571c3732 -->
<g id="edge28" class="edge"><title>00a0571d6867&#45;&#45;00a0571c3732</title>
<path fill="none" stroke="black" stroke-width="2" d="M2129,-71.8314C2129,-61 2129,-47.2876 2129,-36.4133"/>
</g>
<!-- ece555ffd5c1 -->
<g id="node31" class="node"><title>ece555ffd5c1</title>
<ellipse fill="none" stroke="black" cx="1361" cy="-162" rx="75.9375" ry="18"/>
<text text-anchor="middle" x="1361" y="-157.9" font-family="Times Roman,serif" font-size="14.00">ece555ffd5c1</text>
</g>
<!-- ece555ffd5c1&#45;&#45;ece55571dcd0 -->
<g id="edge24" class="edge"><title>ece555ffd5c1&#45;&#45;ece55571dcd0</title>
<path fill="none" stroke="black" stroke-width="2" d="M1331.31,-145.301C1310.78,-133.752 1283.56,-118.441 1262.97,-106.858"/>
</g>
<!-- 00a0571c2b52 -->
<g id="node37" class="node"><title>00a0571c2b52</title>
<ellipse fill="none" stroke="black" cx="264" cy="-162" rx="84.0808" ry="18"/>
<text text-anchor="middle" x="264" y="-157.9" font-family="Times Roman,serif" font-size="14.00">00a0571c2b52</text>
</g>
<!-- 00a0571c2b52&#45;&#45;00a0571da017 -->
<g id="edge30" class="edge"><title>00a0571c2b52&#45;&#45;00a0571da017</title>
<path fill="none" stroke="black" stroke-width="2" d="M224.951,-145.842C196.295,-133.984 157.544,-117.949 128.919,-106.104"/>
</g>
<!-- 00a0571c2c44 -->
<g id="node39" class="node"><title>00a0571c2c44</title>
<ellipse fill="none" stroke="black" cx="2317" cy="-162" rx="82.1898" ry="18"/>
<text text-anchor="middle" x="2317" y="-157.9" font-family="Times Roman,serif" font-size="14.00">00a0571c2c44</text>
</g>
<!-- 00a0571da012 -->
<g id="node41" class="node"><title>00a0571da012</title>
<ellipse fill="none" stroke="black" cx="2317" cy="-90" rx="84.7756" ry="18"/>
<text text-anchor="middle" x="2317" y="-85.9" font-family="Times Roman,serif" font-size="14.00">00a0571da012</text>
</g>
<!-- 00a0571c2c44&#45;&#45;00a0571da012 -->
<g id="edge32" class="edge"><title>00a0571c2c44&#45;&#45;00a0571da012</title>
<path fill="none" stroke="black" stroke-width="2" d="M2317,-143.831C2317,-133 2317,-119.288 2317,-108.413"/>
</g>
<!-- 00a0571c2c0d -->
<g id="node43" class="node"><title>00a0571c2c0d</title>
<ellipse fill="none" stroke="black" cx="2317" cy="-18" rx="82.1898" ry="18"/>
<text text-anchor="middle" x="2317" y="-13.9" font-family="Times Roman,serif" font-size="14.00">00a0571c2c0d</text>
</g>
<!-- 00a0571da012&#45;&#45;00a0571c2c0d -->
<g id="edge34" class="edge"><title>00a0571da012&#45;&#45;00a0571c2c0d</title>
<path fill="none" stroke="black" stroke-width="2" d="M2317,-71.8314C2317,-61 2317,-47.2876 2317,-36.4133"/>
</g>
<!-- ece55571dd00 -->
<g id="node44" class="node"><title>ece55571dd00</title>
<ellipse fill="none" stroke="black" cx="2584" cy="-162" rx="82.1898" ry="18"/>
<text text-anchor="middle" x="2584" y="-157.9" font-family="Times Roman,serif" font-size="14.00">ece55571dd00</text>
</g>
<!-- ece555ffd5b9 -->
<g id="node46" class="node"><title>ece555ffd5b9</title>
<ellipse fill="none" stroke="black" cx="2497" cy="-90" rx="77.1319" ry="18"/>
<text text-anchor="middle" x="2497" y="-85.9" font-family="Times Roman,serif" font-size="14.00">ece555ffd5b9</text>
</g>
<!-- ece55571dd00&#45;&#45;ece555ffd5b9 -->
<g id="edge36" class="edge"><title>ece55571dd00&#45;&#45;ece555ffd5b9</title>
<path fill="none" stroke="black" stroke-width="2" d="M2562.94,-144.571C2549.36,-133.334 2531.77,-118.773 2518.17,-107.518"/>
</g>
<!-- ece555ffd5d6 -->
<g id="node48" class="node"><title>ece555ffd5d6</title>
<ellipse fill="none" stroke="black" cx="2669" cy="-90" rx="77.1319" ry="18"/>
<text text-anchor="middle" x="2669" y="-85.9" font-family="Times Roman,serif" font-size="14.00">ece555ffd5d6</text>
</g>
<!-- ece55571dd00&#45;&#45;ece555ffd5d6 -->
<g id="edge38" class="edge"><title>ece55571dd00&#45;&#45;ece555ffd5d6</title>
<path fill="none" stroke="black" stroke-width="2" d="M2604.58,-144.571C2617.84,-133.334 2635.03,-118.773 2648.32,-107.518"/>
</g>
<!-- ece555ffd642 -->
<g id="node49" class="node"><title>ece555ffd642</title>
<ellipse fill="none" stroke="black" cx="2846" cy="-162" rx="77.8268" ry="18"/>
<text text-anchor="middle" x="2846" y="-157.9" font-family="Times Roman,serif" font-size="14.00">ece555ffd642</text>
</g>
<!-- ece55574a4a5 -->
<g id="node51" class="node"><title>ece55574a4a5</title>
<ellipse fill="none" stroke="black" cx="2846" cy="-90" rx="82.1898" ry="18"/>
<text text-anchor="middle" x="2846" y="-85.9" font-family="Times Roman,serif" font-size="14.00">ece55574a4a5</text>
</g>
<!-- ece555ffd642&#45;&#45;ece55574a4a5 -->
<g id="edge40" class="edge"><title>ece555ffd642&#45;&#45;ece55574a4a5</title>
<path fill="none" stroke="black" stroke-width="2" d="M2846,-143.831C2846,-133 2846,-119.288 2846,-108.413"/>
</g>
<!-- ece555ffd667 -->
<g id="node55" class="node"><title>ece555ffd667</title>
<ellipse fill="none" stroke="black" cx="2846" cy="-18" rx="77.8268" ry="18"/>
<text text-anchor="middle" x="2846" y="-13.9" font-family="Times Roman,serif" font-size="14.00">ece555ffd667</text>
</g>
<!-- ece55574a4a5&#45;&#45;ece555ffd667 -->
<g id="edge44" class="edge"><title>ece55574a4a5&#45;&#45;ece555ffd667</title>
<path fill="none" stroke="black" stroke-width="2" d="M2846,-71.8314C2846,-61 2846,-47.2876 2846,-36.4133"/>
</g>
<!-- ece555ffd63a -->
<g id="node52" class="node"><title>ece555ffd63a</title>
<ellipse fill="none" stroke="black" cx="799" cy="-162" rx="77.1319" ry="18"/>
<text text-anchor="middle" x="799" y="-157.9" font-family="Times Roman,serif" font-size="14.00">ece555ffd63a</text>
</g>
<!-- ece555ffd63a&#45;&#45;ece555748695 -->
<g id="edge42" class="edge"><title>ece555ffd63a&#45;&#45;ece555748695</title>
<path fill="none" stroke="black" stroke-width="2" d="M776.729,-144.571C762.371,-133.334 743.765,-118.773 729.384,-107.518"/>
</g>
<!-- 00a0571da270 -->
<g id="node56" class="node"><title>00a0571da270</title>
<ellipse fill="none" stroke="black" cx="3125" cy="-162" rx="84.7756" ry="18"/>
<text text-anchor="middle" x="3125" y="-157.9" font-family="Times Roman,serif" font-size="14.00">00a0571da270</text>
</g>
<!-- 00a0571de370 -->
<g id="node58" class="node"><title>00a0571de370</title>
<ellipse fill="none" stroke="black" cx="3031" cy="-90" rx="84.7756" ry="18"/>
<text text-anchor="middle" x="3031" y="-85.9" font-family="Times Roman,serif" font-size="14.00">00a0571de370</text>
</g>
<!-- 00a0571da270&#45;&#45;00a0571de370 -->
<g id="edge46" class="edge"><title>00a0571da270&#45;&#45;00a0571de370</title>
<path fill="none" stroke="black" stroke-width="2" d="M3102.25,-144.571C3087.57,-133.334 3068.56,-118.773 3053.87,-107.518"/>
</g>
<!-- 00a0571de372 -->
<g id="node60" class="node"><title>00a0571de372</title>
<ellipse fill="none" stroke="black" cx="3219" cy="-90" rx="84.7756" ry="18"/>
<text text-anchor="middle" x="3219" y="-85.9" font-family="Times Roman,serif" font-size="14.00">00a0571de372</text>
</g>
<!-- 00a0571da270&#45;&#45;00a0571de372 -->
<g id="edge48" class="edge"><title>00a0571da270&#45;&#45;00a0571de372</title>
<path fill="none" stroke="black" stroke-width="2" d="M3147.75,-144.571C3162.43,-133.334 3181.44,-118.773 3196.13,-107.518"/>
</g>
</g>
</svg>
