<?xml version="1.0" encoding="UTF-8" standalone="no"?>
<!DOCTYPE svg PUBLIC "-//W3C//DTD SVG 1.1//EN"
 "http://www.w3.org/Graphics/SVG/1.1/DTD/svg11.dtd">
<!-- Generated by graphviz version 2.26.3 (20100126.1600)
 -->
<!-- Title: G Pages: 1 -->
<svg width="466pt" height="577pt"
 viewBox="0.00 0.00 466.00 577.00" xmlns="http://www.w3.org/2000/svg" xmlns:xlink="http://www.w3.org/1999/xlink">
<g id="graph1" class="graph" transform="scale(1 1) rotate(0) translate(4 573)">
<title>G</title>
<polygon fill="white" stroke="white" points="-4,5 -4,-573 463,-573 463,5 -4,5"/>
<!-- 3_1 -->
<g id="node1" class="node"><title>3_1</title>
<polygon fill="none" stroke="black" points="194.742,-38.2562 140.742,-38.2562 140.742,-2.25617 194.742,-2.25617 194.742,-38.2562"/>
<text text-anchor="middle" x="167.742" y="-16.1562" font-family="Times Roman,serif" font-size="14.00">3_1</text>
</g>
<!-- 6_0 -->
<g id="node3" class="node"><title>6_0</title>
<polygon fill="none" stroke="black" points="165.903,-123.273 111.903,-123.273 111.903,-87.2729 165.903,-87.2729 165.903,-123.273"/>
<text text-anchor="middle" x="138.903" y="-101.173" font-family="Times Roman,serif" font-size="14.00">6_0</text>
</g>
<!-- 3_1&#45;&#45;6_0 -->
<g id="edge2" class="edge"><title>3_1&#45;&#45;6_0</title>
<path fill="none" stroke="red" stroke-width="5" stroke-dasharray="1,5" d="M161.626,-38.286C156.732,-52.7137 149.902,-72.8483 145.01,-87.2691"/>
</g>
<!-- node_3 -->
<g id="node9" class="node"><title>node_3</title>
<ellipse fill="none" stroke="black" cx="55.1727" cy="-50.3812" rx="46.0565" ry="18"/>
<text text-anchor="middle" x="55.1727" y="-46.2812" font-family="Times Roman,serif" font-size="14.00">node_3</text>
</g>
<!-- 3_1&#45;&#45;node_3 -->
<g id="edge6" class="edge"><title>3_1&#45;&#45;node_3</title>
<path fill="none" stroke="black" stroke-width="2" d="M140.492,-27.5486C126.307,-31.3447 108.734,-36.0475 93.2294,-40.1967"/>
</g>
<!-- 5_1 -->
<g id="node13" class="node"><title>5_1</title>
<polygon fill="none" stroke="black" points="295.241,-36.7784 241.241,-36.7784 241.241,-0.778417 295.241,-0.778417 295.241,-36.7784"/>
<text text-anchor="middle" x="268.241" y="-14.6784" font-family="Times Roman,serif" font-size="14.00">5_1</text>
</g>
<!-- 3_1&#45;&#45;5_1 -->
<g id="edge4" class="edge"><title>3_1&#45;&#45;5_1</title>
<path fill="none" stroke="red" stroke-width="5" stroke-dasharray="1,5" d="M194.938,-19.8563C209.239,-19.646 226.719,-19.389 241.023,-19.1786"/>
</g>
<!-- 3_0 -->
<g id="node2" class="node"><title>3_0</title>
<polygon fill="none" stroke="black" points="55.3222,-179.1 1.32219,-179.1 1.32219,-143.1 55.3222,-143.1 55.3222,-179.1"/>
<text text-anchor="middle" x="28.3222" y="-157" font-family="Times Roman,serif" font-size="14.00">3_0</text>
</g>
<!-- 3_0&#45;&#45;node_3 -->
<g id="edge10" class="edge"><title>3_0&#45;&#45;node_3</title>
<path fill="none" stroke="black" stroke-width="2" d="M32.756,-142.817C37.7608,-122.18 45.8508,-88.8202 50.8213,-68.324"/>
</g>
<!-- 4_0 -->
<g id="node18" class="node"><title>4_0</title>
<polygon fill="none" stroke="black" points="56.1523,-276.15 2.15227,-276.15 2.15227,-240.15 56.1523,-240.15 56.1523,-276.15"/>
<text text-anchor="middle" x="29.1523" y="-254.05" font-family="Times Roman,serif" font-size="14.00">4_0</text>
</g>
<!-- 3_0&#45;&#45;4_0 -->
<g id="edge8" class="edge"><title>3_0&#45;&#45;4_0</title>
<path fill="none" stroke="blue" stroke-width="5" stroke-dasharray="1,5" d="M28.4783,-179.355C28.6267,-196.706 28.8487,-222.654 28.9968,-239.978"/>
</g>
<!-- node_6 -->
<g id="node6" class="node"><title>node_6</title>
<ellipse fill="none" stroke="black" cx="204.701" cy="-198.337" rx="46.0565" ry="18"/>
<text text-anchor="middle" x="204.701" y="-194.237" font-family="Times Roman,serif" font-size="14.00">node_6</text>
</g>
<!-- 6_0&#45;&#45;node_6 -->
<g id="edge12" class="edge"><title>6_0&#45;&#45;node_6</title>
<path fill="none" stroke="black" stroke-width="2" d="M151.902,-123.659C163.662,-140.293 180.856,-164.612 192.396,-180.933"/>
</g>
<!-- 6_1 -->
<g id="node4" class="node"><title>6_1</title>
<polygon fill="none" stroke="black" points="311.583,-300.098 257.583,-300.098 257.583,-264.098 311.583,-264.098 311.583,-300.098"/>
<text text-anchor="middle" x="284.583" y="-277.998" font-family="Times Roman,serif" font-size="14.00">6_1</text>
</g>
<!-- 2_0 -->
<g id="node5" class="node"><title>2_0</title>
<polygon fill="none" stroke="black" points="426.013,-287.12 372.013,-287.12 372.013,-251.12 426.013,-251.12 426.013,-287.12"/>
<text text-anchor="middle" x="399.013" y="-265.02" font-family="Times Roman,serif" font-size="14.00">2_0</text>
</g>
<!-- 6_1&#45;&#45;2_0 -->
<g id="edge14" class="edge"><title>6_1&#45;&#45;2_0</title>
<path fill="none" stroke="orange" stroke-width="5" stroke-dasharray="1,5" d="M311.701,-279.022C329.81,-276.968 353.542,-274.277 371.693,-272.218"/>
</g>
<!-- 6_1&#45;&#45;node_6 -->
<g id="edge16" class="edge"><title>6_1&#45;&#45;node_6</title>
<path fill="none" stroke="black" stroke-width="2" d="M267.25,-263.923C253.484,-249.489 234.375,-229.452 220.911,-215.335"/>
</g>
<!-- 4_1 -->
<g id="node19" class="node"><title>4_1</title>
<polygon fill="none" stroke="black" points="220.61,-344.856 166.61,-344.856 166.61,-308.856 220.61,-308.856 220.61,-344.856"/>
<text text-anchor="middle" x="193.61" y="-322.756" font-family="Times Roman,serif" font-size="14.00">4_1</text>
</g>
<!-- 6_1&#45;&#45;4_1 -->
<g id="edge18" class="edge"><title>6_1&#45;&#45;4_1</title>
<path fill="none" stroke="orange" stroke-width="5" stroke-dasharray="1,5" d="M257.288,-295.527C245.774,-301.191 232.398,-307.772 220.885,-313.436"/>
</g>
<!-- node_2 -->
<g id="node10" class="node"><title>node_2</title>
<ellipse fill="none" stroke="black" cx="313.265" cy="-228.349" rx="46.0565" ry="18"/>
<text text-anchor="middle" x="313.265" y="-224.249" font-family="Times Roman,serif" font-size="14.00">node_2</text>
</g>
<!-- 2_0&#45;&#45;node_2 -->
<g id="edge22" class="edge"><title>2_0&#45;&#45;node_2</title>
<path fill="none" stroke="black" stroke-width="2" d="M371.882,-256.22C362.559,-251.787 352.084,-246.807 342.595,-242.295"/>
</g>
<!-- 5_0 -->
<g id="node14" class="node"><title>5_0</title>
<polygon fill="none" stroke="black" points="457.04,-192.92 403.04,-192.92 403.04,-156.92 457.04,-156.92 457.04,-192.92"/>
<text text-anchor="middle" x="430.04" y="-170.82" font-family="Times Roman,serif" font-size="14.00">5_0</text>
</g>
<!-- 2_0&#45;&#45;5_0 -->
<g id="edge20" class="edge"><title>2_0&#45;&#45;5_0</title>
<path fill="none" stroke="orange" stroke-width="5" stroke-dasharray="1,5" d="M404.995,-250.957C410.489,-234.277 418.588,-209.69 424.076,-193.027"/>
</g>
<!-- node_5 -->
<g id="node7" class="node"><title>node_5</title>
<ellipse fill="none" stroke="black" cx="375.33" cy="-70.1468" rx="46.0565" ry="18"/>
<text text-anchor="middle" x="375.33" y="-66.0468" font-family="Times Roman,serif" font-size="14.00">node_5</text>
</g>
<!-- node_5&#45;&#45;5_1 -->
<g id="edge24" class="edge"><title>node_5&#45;&#45;5_1</title>
<path fill="none" stroke="black" stroke-width="2" d="M346.067,-56.1101C330.214,-48.5055 310.757,-39.1726 295.264,-31.7408"/>
</g>
<!-- node_5&#45;&#45;5_0 -->
<g id="edge26" class="edge"><title>node_5&#45;&#45;5_0</title>
<path fill="none" stroke="black" stroke-width="2" d="M384.611,-87.9201C394.61,-107.07 410.442,-137.389 420.53,-156.707"/>
</g>
<!-- node_4 -->
<g id="node8" class="node"><title>node_4</title>
<ellipse fill="none" stroke="black" cx="72.2681" cy="-307.478" rx="46.0565" ry="18"/>
<text text-anchor="middle" x="72.2681" y="-303.378" font-family="Times Roman,serif" font-size="14.00">node_4</text>
</g>
<!-- node_4&#45;&#45;4_0 -->
<g id="edge28" class="edge"><title>node_4&#45;&#45;4_0</title>
<path fill="none" stroke="black" stroke-width="2" d="M57.1883,-290.225C53.3028,-285.78 49.1079,-280.981 45.1764,-276.483"/>
</g>
<!-- node_4&#45;&#45;4_1 -->
<g id="edge30" class="edge"><title>node_4&#45;&#45;4_1</title>
<path fill="none" stroke="black" stroke-width="2" d="M115.049,-314.31C132.107,-317.034 151.237,-320.089 166.349,-322.502"/>
</g>
<!-- 2_1 -->
<g id="node16" class="node"><title>2_1</title>
<polygon fill="none" stroke="black" points="371.755,-361.229 317.755,-361.229 317.755,-325.229 371.755,-325.229 371.755,-361.229"/>
<text text-anchor="middle" x="344.755" y="-339.129" font-family="Times Roman,serif" font-size="14.00">2_1</text>
</g>
<!-- node_2&#45;&#45;2_1 -->
<g id="edge32" class="edge"><title>node_2&#45;&#45;2_1</title>
<path fill="none" stroke="black" stroke-width="2" d="M318.185,-246.299C324.067,-267.755 333.854,-303.459 339.765,-325.026"/>
</g>
<!-- node_1 -->
<g id="node11" class="node"><title>node_1</title>
<ellipse fill="none" stroke="black" cx="264.172" cy="-442.898" rx="46.0565" ry="18"/>
<text text-anchor="middle" x="264.172" y="-438.798" font-family="Times Roman,serif" font-size="14.00">node_1</text>
</g>
<!-- 1_1 -->
<g id="node15" class="node"><title>1_1</title>
<polygon fill="none" stroke="black" points="225.314,-554.895 171.314,-554.895 171.314,-518.895 225.314,-518.895 225.314,-554.895"/>
<text text-anchor="middle" x="198.314" y="-532.795" font-family="Times Roman,serif" font-size="14.00">1_1</text>
</g>
<!-- node_1&#45;&#45;1_1 -->
<g id="edge34" class="edge"><title>node_1&#45;&#45;1_1</title>
<path fill="none" stroke="black" stroke-width="2" d="M251.785,-460.578C240.16,-477.171 222.847,-501.88 211.096,-518.653"/>
</g>
<!-- 1_0 -->
<g id="node17" class="node"><title>1_0</title>
<polygon fill="none" stroke="black" points="296.01,-413.011 242.01,-413.011 242.01,-377.011 296.01,-377.011 296.01,-413.011"/>
<text text-anchor="middle" x="269.01" y="-390.911" font-family="Times Roman,serif" font-size="14.00">1_0</text>
</g>
<!-- node_1&#45;&#45;1_0 -->
<g id="edge36" class="edge"><title>node_1&#45;&#45;1_0</title>
<path fill="none" stroke="black" stroke-width="2" d="M266.001,-424.794C266.387,-420.98 266.793,-416.956 267.179,-413.141"/>
</g>
<!-- node_0 -->
<g id="node12" class="node"><title>node_0</title>
<ellipse fill="none" stroke="black" cx="80.9216" cy="-491.915" rx="46.0565" ry="18"/>
<text text-anchor="middle" x="80.9216" y="-487.815" font-family="Times Roman,serif" font-size="14.00">node_0</text>
</g>
<!-- 0_0 -->
<g id="node20" class="node"><title>0_0</title>
<polygon fill="none" stroke="black" points="131.073,-568.189 77.0727,-568.189 77.0727,-532.189 131.073,-532.189 131.073,-568.189"/>
<text text-anchor="middle" x="104.073" y="-546.089" font-family="Times Roman,serif" font-size="14.00">0_0</text>
</g>
<!-- node_0&#45;&#45;0_0 -->
<g id="edge38" class="edge"><title>node_0&#45;&#45;0_0</title>
<path fill="none" stroke="black" stroke-width="2" d="M87.9935,-509.716C90.8125,-516.811 94.0538,-524.97 96.8843,-532.095"/>
</g>
<!-- 0_1 -->
<g id="node21" class="node"><title>0_1</title>
<polygon fill="none" stroke="black" points="199.457,-443.315 145.457,-443.315 145.457,-407.315 199.457,-407.315 199.457,-443.315"/>
<text text-anchor="middle" x="172.457" y="-421.215" font-family="Times Roman,serif" font-size="14.00">0_1</text>
</g>
<!-- node_0&#45;&#45;0_1 -->
<g id="edge40" class="edge"><title>node_0&#45;&#45;0_1</title>
<path fill="none" stroke="black" stroke-width="2" d="M103.08,-475.793C116.519,-466.015 133.698,-453.515 147.599,-443.401"/>
</g>
<!-- 1_1&#45;&#45;0_0 -->
<g id="edge42" class="edge"><title>1_1&#45;&#45;0_0</title>
<path fill="none" stroke="green" stroke-width="5" stroke-dasharray="1,5" d="M171.309,-540.704C158.69,-542.484 143.702,-544.599 131.083,-546.379"/>
</g>
<!-- 2_1&#45;&#45;1_0 -->
<g id="edge44" class="edge"><title>2_1&#45;&#45;1_0</title>
<path fill="none" stroke="orange" stroke-width="5" stroke-dasharray="1,5" d="M318.263,-361.34C310.84,-366.414 302.774,-371.929 295.359,-376.998"/>
</g>
<!-- 1_0&#45;&#45;0_1 -->
<g id="edge46" class="edge"><title>1_0&#45;&#45;0_1</title>
<path fill="none" stroke="orange" stroke-width="5" stroke-dasharray="1,5" d="M241.858,-403.533C228.694,-407.664 212.921,-412.615 199.74,-416.752"/>
</g>
<!-- 4_1&#45;&#45;0_1 -->
<g id="edge48" class="edge"><title>4_1&#45;&#45;0_1</title>
<path fill="none" stroke="orange" stroke-width="5" stroke-dasharray="1,5" d="M189.73,-344.915C185.937,-362.569 180.192,-389.308 176.384,-407.037"/>
</g>
</g>
</svg>
