<?xml version="1.0" encoding="UTF-8" standalone="no"?>
<!DOCTYPE svg PUBLIC "-//W3C//DTD SVG 1.1//EN"
 "http://www.w3.org/Graphics/SVG/1.1/DTD/svg11.dtd">
<!-- Generated by graphviz version 2.26.3 (20100126.1600)
 -->
<!-- Title: G Pages: 1 -->
<svg width="446pt" height="741pt"
 viewBox="0.00 0.00 446.00 741.00" xmlns="http://www.w3.org/2000/svg" xmlns:xlink="http://www.w3.org/1999/xlink">
<g id="graph1" class="graph" transform="scale(1 1) rotate(0) translate(4 737)">
<title>G</title>
<polygon fill="white" stroke="white" points="-4,5 -4,-737 443,-737 443,5 -4,5"/>
<!-- 0 -->
<g id="node1" class="node"><title>0</title>
<ellipse fill="none" stroke="black" cx="122.389" cy="-145.594" rx="27" ry="18"/>
<text text-anchor="middle" x="122.389" y="-141.494" font-family="Times Roman,serif" font-size="14.00">0</text>
</g>
<!-- 4 -->
<g id="node3" class="node"><title>4</title>
<ellipse fill="none" stroke="black" cx="228.24" cy="-208.215" rx="27" ry="18"/>
<text text-anchor="middle" x="228.24" y="-204.115" font-family="Times Roman,serif" font-size="14.00">4</text>
</g>
<!-- 0&#45;&#45;4 -->
<g id="edge2" class="edge"><title>0&#45;&#45;4</title>
<path fill="none" stroke="orange" stroke-width="0.642857" d="M142.798,-157.668C161.542,-168.757 189.17,-185.101 207.893,-196.178"/>
</g>
<!-- 7 -->
<g id="node5" class="node"><title>7</title>
<ellipse fill="none" stroke="black" cx="66.4796" cy="-86.4676" rx="27" ry="18"/>
<text text-anchor="middle" x="66.4796" y="-82.3676" font-family="Times Roman,serif" font-size="14.00">7</text>
</g>
<!-- 0&#45;&#45;7 -->
<g id="edge4" class="edge"><title>0&#45;&#45;7</title>
<path fill="none" stroke="green" stroke-width="2.25" d="M107.7,-130.06C99.5466,-121.437 89.4337,-110.742 81.2652,-102.104"/>
</g>
<!-- 10 -->
<g id="node7" class="node"><title>10</title>
<ellipse fill="none" stroke="black" cx="168.622" cy="-31.4616" rx="27" ry="18"/>
<text text-anchor="middle" x="168.622" y="-27.3616" font-family="Times Roman,serif" font-size="14.00">10</text>
</g>
<!-- 0&#45;&#45;10 -->
<g id="edge6" class="edge"><title>0&#45;&#45;10</title>
<path fill="none" stroke="green" stroke-width="1.8" d="M129.613,-127.761C138.299,-106.319 152.786,-70.5553 161.449,-49.1696"/>
</g>
<!-- 14 -->
<g id="node9" class="node"><title>14</title>
<ellipse fill="none" stroke="black" cx="142.811" cy="-189.628" rx="27" ry="18"/>
<text text-anchor="middle" x="142.811" y="-185.528" font-family="Times Roman,serif" font-size="14.00">14</text>
</g>
<!-- 0&#45;&#45;14 -->
<g id="edge8" class="edge"><title>0&#45;&#45;14</title>
<path fill="none" stroke="orange" stroke-width="2.25" d="M130.46,-162.998C131.887,-166.075 133.373,-169.278 134.798,-172.351"/>
</g>
<!-- 23 -->
<g id="node11" class="node"><title>23</title>
<ellipse fill="none" stroke="black" cx="28.2608" cy="-134.69" rx="27" ry="18"/>
<text text-anchor="middle" x="28.2608" y="-130.59" font-family="Times Roman,serif" font-size="14.00">23</text>
</g>
<!-- 0&#45;&#45;23 -->
<g id="edge10" class="edge"><title>0&#45;&#45;23</title>
<path fill="none" stroke="orange" stroke-width="1.28571" d="M95.6678,-142.499C82.9492,-141.025 67.7764,-139.267 55.0493,-137.793"/>
</g>
<!-- 25 -->
<g id="node13" class="node"><title>25</title>
<ellipse fill="none" stroke="black" cx="114.93" cy="-299.986" rx="27" ry="18"/>
<text text-anchor="middle" x="114.93" y="-295.886" font-family="Times Roman,serif" font-size="14.00">25</text>
</g>
<!-- 0&#45;&#45;25 -->
<g id="edge12" class="edge"><title>0&#45;&#45;25</title>
<path fill="none" stroke="green" stroke-width="3" d="M121.519,-163.607C120.09,-193.198 117.259,-251.783 115.818,-281.61"/>
</g>
<!-- 26 -->
<g id="node15" class="node"><title>26</title>
<ellipse fill="none" stroke="black" cx="80.3916" cy="-19.4034" rx="27" ry="18"/>
<text text-anchor="middle" x="80.3916" y="-15.3034" font-family="Times Roman,serif" font-size="14.00">26</text>
</g>
<!-- 0&#45;&#45;26 -->
<g id="edge14" class="edge"><title>0&#45;&#45;26</title>
<path fill="none" stroke="green" stroke-width="1.8" d="M116.461,-127.782C108.457,-103.732 94.2783,-61.1288 86.2896,-37.1253"/>
</g>
<!-- 15 -->
<g id="node30" class="node"><title>15</title>
<ellipse fill="none" stroke="black" cx="307.173" cy="-320.602" rx="27" ry="18"/>
<text text-anchor="middle" x="307.173" y="-316.502" font-family="Times Roman,serif" font-size="14.00">15</text>
</g>
<!-- 4&#45;&#45;15 -->
<g id="edge28" class="edge"><title>4&#45;&#45;15</title>
<path fill="none" stroke="blue" stroke-width="1.5" d="M239.887,-224.798C254.81,-246.047 280.532,-282.67 295.479,-303.951"/>
</g>
<!-- 7&#45;&#45;14 -->
<g id="edge40" class="edge"><title>7&#45;&#45;14</title>
<path fill="none" stroke="red" stroke-width="2.25" d="M78.7435,-103.042C93.0719,-122.407 116.623,-154.235 130.829,-173.435"/>
</g>
<!-- 10&#45;&#45;26 -->
<g id="edge54" class="edge"><title>10&#45;&#45;26</title>
<path fill="none" stroke="blue" stroke-width="1.28571" d="M142.15,-27.8437C130.983,-26.3176 118.01,-24.5446 106.845,-23.0187"/>
</g>
<!-- 21 -->
<g id="node20" class="node"><title>21</title>
<ellipse fill="none" stroke="black" cx="228.938" cy="-123.067" rx="27" ry="18"/>
<text text-anchor="middle" x="228.938" y="-118.967" font-family="Times Roman,serif" font-size="14.00">21</text>
</g>
<!-- 10&#45;&#45;21 -->
<g id="edge56" class="edge"><title>10&#45;&#45;21</title>
<path fill="none" stroke="blue" stroke-width="4.5" d="M179.685,-48.2635C190.568,-64.7921 207.086,-89.8803 217.945,-106.372"/>
</g>
<!-- 14&#45;&#45;23 -->
<g id="edge64" class="edge"><title>14&#45;&#45;23</title>
<path fill="none" stroke="red" stroke-width="1.8" d="M120.724,-179.035C100.44,-169.307 70.5421,-154.968 50.2794,-145.25"/>
</g>
<!-- 14&#45;&#45;21 -->
<g id="edge62" class="edge"><title>14&#45;&#45;21</title>
<path fill="none" stroke="orange" stroke-width="2.25" d="M160.656,-175.837C175.438,-164.413 196.34,-148.26 211.115,-136.841"/>
</g>
<!-- 27 -->
<g id="node60" class="node"><title>27</title>
<ellipse fill="none" stroke="black" cx="290.95" cy="-166.568" rx="27" ry="18"/>
<text text-anchor="middle" x="290.95" y="-162.468" font-family="Times Roman,serif" font-size="14.00">27</text>
</g>
<!-- 14&#45;&#45;27 -->
<g id="edge66" class="edge"><title>14&#45;&#45;27</title>
<path fill="none" stroke="orange" stroke-width="3" d="M169.295,-185.505C196.093,-181.334 237.301,-174.919 264.196,-170.733"/>
</g>
<!-- 1 -->
<g id="node16" class="node"><title>1</title>
<ellipse fill="none" stroke="black" cx="274.987" cy="-252.551" rx="27" ry="18"/>
<text text-anchor="middle" x="274.987" y="-248.451" font-family="Times Roman,serif" font-size="14.00">1</text>
</g>
<!-- 19 -->
<g id="node18" class="node"><title>19</title>
<ellipse fill="none" stroke="black" cx="249.303" cy="-391.509" rx="27" ry="18"/>
<text text-anchor="middle" x="249.303" y="-387.409" font-family="Times Roman,serif" font-size="14.00">19</text>
</g>
<!-- 1&#45;&#45;19 -->
<g id="edge16" class="edge"><title>1&#45;&#45;19</title>
<path fill="none" stroke="orange" stroke-width="1.28571" d="M271.682,-270.433C266.777,-296.968 257.621,-346.506 252.677,-373.255"/>
</g>
<!-- 1&#45;&#45;21 -->
<g id="edge18" class="edge"><title>1&#45;&#45;21</title>
<path fill="none" stroke="blue" stroke-width="1.28571" d="M268.681,-234.818C259.862,-210.022 243.945,-165.266 235.168,-140.586"/>
</g>
<!-- 20 -->
<g id="node49" class="node"><title>20</title>
<ellipse fill="none" stroke="black" cx="148.838" cy="-479.473" rx="27" ry="18"/>
<text text-anchor="middle" x="148.838" y="-475.373" font-family="Times Roman,serif" font-size="14.00">20</text>
</g>
<!-- 19&#45;&#45;20 -->
<g id="edge82" class="edge"><title>19&#45;&#45;20</title>
<path fill="none" stroke="orange" stroke-width="4.5" d="M232.713,-406.035C214.098,-422.333 184.077,-448.619 165.452,-464.926"/>
</g>
<!-- 29 -->
<g id="node51" class="node"><title>29</title>
<ellipse fill="none" stroke="black" cx="216.065" cy="-509.614" rx="27" ry="18"/>
<text text-anchor="middle" x="216.065" y="-505.514" font-family="Times Roman,serif" font-size="14.00">29</text>
</g>
<!-- 19&#45;&#45;29 -->
<g id="edge84" class="edge"><title>19&#45;&#45;29</title>
<path fill="none" stroke="blue" stroke-width="0.818182" d="M244.254,-409.447C237.971,-431.774 227.306,-469.669 221.051,-491.895"/>
</g>
<!-- 2 -->
<g id="node21" class="node"><title>2</title>
<ellipse fill="none" stroke="black" cx="280.757" cy="-678.389" rx="27" ry="18"/>
<text text-anchor="middle" x="280.757" y="-674.289" font-family="Times Roman,serif" font-size="14.00">2</text>
</g>
<!-- 5 -->
<g id="node23" class="node"><title>5</title>
<ellipse fill="none" stroke="black" cx="181.239" cy="-714.469" rx="27" ry="18"/>
<text text-anchor="middle" x="181.239" y="-710.369" font-family="Times Roman,serif" font-size="14.00">5</text>
</g>
<!-- 2&#45;&#45;5 -->
<g id="edge20" class="edge"><title>2&#45;&#45;5</title>
<path fill="none" stroke="red" stroke-width="9" d="M256.92,-687.031C241.279,-692.702 220.898,-700.091 205.227,-705.773"/>
</g>
<!-- 6 -->
<g id="node25" class="node"><title>6</title>
<ellipse fill="none" stroke="black" cx="278.117" cy="-549.065" rx="27" ry="18"/>
<text text-anchor="middle" x="278.117" y="-544.965" font-family="Times Roman,serif" font-size="14.00">6</text>
</g>
<!-- 2&#45;&#45;6 -->
<g id="edge22" class="edge"><title>2&#45;&#45;6</title>
<path fill="none" stroke="green" stroke-width="9" d="M280.384,-660.134C279.881,-635.487 278.99,-591.826 278.488,-567.226"/>
</g>
<!-- 9 -->
<g id="node33" class="node"><title>9</title>
<ellipse fill="none" stroke="black" cx="162.236" cy="-591.795" rx="27" ry="18"/>
<text text-anchor="middle" x="162.236" y="-587.695" font-family="Times Roman,serif" font-size="14.00">9</text>
</g>
<!-- 5&#45;&#45;9 -->
<g id="edge30" class="edge"><title>5&#45;&#45;9</title>
<path fill="none" stroke="blue" stroke-width="9" d="M178.435,-696.368C174.842,-673.175 168.65,-633.2 165.051,-609.971"/>
</g>
<!-- 13 -->
<g id="node28" class="node"><title>13</title>
<ellipse fill="none" stroke="black" cx="403.027" cy="-530.953" rx="27" ry="18"/>
<text text-anchor="middle" x="403.027" y="-526.853" font-family="Times Roman,serif" font-size="14.00">13</text>
</g>
<!-- 6&#45;&#45;13 -->
<g id="edge38" class="edge"><title>6&#45;&#45;13</title>
<path fill="none" stroke="green" d="M304.607,-545.224C325.805,-542.15 355.387,-537.861 376.575,-534.788"/>
</g>
<!-- 6&#45;&#45;9 -->
<g id="edge34" class="edge"><title>6&#45;&#45;9</title>
<path fill="none" stroke="orange" stroke-width="9" d="M254.387,-557.815C234.39,-565.189 205.922,-575.686 185.934,-583.057"/>
</g>
<!-- 24 -->
<g id="node35" class="node"><title>24</title>
<ellipse fill="none" stroke="black" cx="187.251" cy="-434.197" rx="27" ry="18"/>
<text text-anchor="middle" x="187.251" y="-430.097" font-family="Times Roman,serif" font-size="14.00">24</text>
</g>
<!-- 6&#45;&#45;24 -->
<g id="edge32" class="edge"><title>6&#45;&#45;24</title>
<path fill="none" stroke="green" stroke-width="9" d="M265.482,-533.093C248.22,-511.27 217.43,-472.348 200.071,-450.403"/>
</g>
<!-- 28 -->
<g id="node38" class="node"><title>28</title>
<ellipse fill="none" stroke="black" cx="343.218" cy="-445.627" rx="27" ry="18"/>
<text text-anchor="middle" x="343.218" y="-441.527" font-family="Times Roman,serif" font-size="14.00">28</text>
</g>
<!-- 6&#45;&#45;28 -->
<g id="edge36" class="edge"><title>6&#45;&#45;28</title>
<path fill="none" stroke="orange" stroke-width="4.5" d="M288.576,-532.446C300.653,-513.257 320.411,-481.864 332.568,-462.548"/>
</g>
<!-- 3 -->
<g id="node26" class="node"><title>3</title>
<ellipse fill="none" stroke="black" cx="410.47" cy="-409.159" rx="27" ry="18"/>
<text text-anchor="middle" x="410.47" y="-405.059" font-family="Times Roman,serif" font-size="14.00">3</text>
</g>
<!-- 3&#45;&#45;13 -->
<g id="edge24" class="edge"><title>3&#45;&#45;13</title>
<path fill="none" stroke="orange" stroke-width="0.9" d="M409.356,-427.392C407.953,-450.353 405.556,-489.575 404.149,-512.594"/>
</g>
<!-- 3&#45;&#45;15 -->
<g id="edge26" class="edge"><title>3&#45;&#45;15</title>
<path fill="none" stroke="green" stroke-width="2.25" d="M393.874,-394.931C374.712,-378.503 343.361,-351.626 324.072,-335.089"/>
</g>
<!-- 15&#45;&#45;28 -->
<g id="edge72" class="edge"><title>15&#45;&#45;28</title>
<path fill="none" stroke="green" stroke-width="9" d="M312.338,-338.515C319.19,-362.282 331.216,-403.997 338.063,-427.747"/>
</g>
<!-- 16 -->
<g id="node62" class="node"><title>16</title>
<ellipse fill="none" stroke="black" cx="180.753" cy="-336.575" rx="27" ry="18"/>
<text text-anchor="middle" x="180.753" y="-332.475" font-family="Times Roman,serif" font-size="14.00">16</text>
</g>
<!-- 15&#45;&#45;16 -->
<g id="edge68" class="edge"><title>15&#45;&#45;16</title>
<path fill="none" stroke="green" stroke-width="3" d="M280.363,-323.989C258.909,-326.7 228.969,-330.483 207.525,-333.192"/>
</g>
<!-- 22 -->
<g id="node64" class="node"><title>22</title>
<ellipse fill="none" stroke="black" cx="388.178" cy="-224.572" rx="27" ry="18"/>
<text text-anchor="middle" x="388.178" y="-220.472" font-family="Times Roman,serif" font-size="14.00">22</text>
</g>
<!-- 15&#45;&#45;22 -->
<g id="edge70" class="edge"><title>15&#45;&#45;22</title>
<path fill="none" stroke="blue" stroke-width="1.5" d="M320.55,-304.745C335.559,-286.952 359.765,-258.255 374.782,-240.453"/>
</g>
<!-- 11 -->
<g id="node45" class="node"><title>11</title>
<ellipse fill="none" stroke="black" cx="86.5609" cy="-485.27" rx="27" ry="18"/>
<text text-anchor="middle" x="86.5609" y="-481.17" font-family="Times Roman,serif" font-size="14.00">11</text>
</g>
<!-- 9&#45;&#45;11 -->
<g id="edge48" class="edge"><title>9&#45;&#45;11</title>
<path fill="none" stroke="blue" stroke-width="3" d="M150.411,-575.151C136.195,-555.138 112.482,-521.758 98.3021,-501.798"/>
</g>
<!-- 9&#45;&#45;20 -->
<g id="edge50" class="edge"><title>9&#45;&#45;20</title>
<path fill="none" stroke="orange" stroke-width="2.25" d="M160.083,-573.749C157.583,-552.788 153.483,-518.416 150.985,-497.474"/>
</g>
<!-- 9&#45;&#45;29 -->
<g id="edge52" class="edge"><title>9&#45;&#45;29</title>
<path fill="none" stroke="orange" stroke-width="1.8" d="M173.129,-575.165C182.468,-560.907 195.853,-540.471 205.188,-526.22"/>
</g>
<!-- 24&#45;&#45;25 -->
<g id="edge88" class="edge"><title>24&#45;&#45;25</title>
<path fill="none" stroke="red" stroke-width="3" d="M178.091,-417.199C164.256,-391.524 138.169,-343.113 124.244,-317.27"/>
</g>
<!-- 8 -->
<g id="node41" class="node"><title>8</title>
<ellipse fill="none" stroke="black" cx="114.924" cy="-344.7" rx="27" ry="18"/>
<text text-anchor="middle" x="114.924" y="-340.6" font-family="Times Roman,serif" font-size="14.00">8</text>
</g>
<!-- 8&#45;&#45;14 -->
<g id="edge46" class="edge"><title>8&#45;&#45;14</title>
<path fill="none" stroke="red" stroke-width="2.25" d="M118.177,-326.608C123.551,-296.727 134.218,-237.41 139.578,-207.605"/>
</g>
<!-- 18 -->
<g id="node43" class="node"><title>18</title>
<ellipse fill="none" stroke="black" cx="52.5833" cy="-313.257" rx="27" ry="18"/>
<text text-anchor="middle" x="52.5833" y="-309.157" font-family="Times Roman,serif" font-size="14.00">18</text>
</g>
<!-- 8&#45;&#45;18 -->
<g id="edge42" class="edge"><title>8&#45;&#45;18</title>
<path fill="none" stroke="orange" stroke-width="1.8" d="M93.12,-333.703C87.0808,-330.657 80.5245,-327.35 74.48,-324.301"/>
</g>
<!-- 8&#45;&#45;11 -->
<g id="edge44" class="edge"><title>8&#45;&#45;11</title>
<path fill="none" stroke="red" stroke-width="0.75" d="M111.274,-362.789C105.828,-389.78 95.6346,-440.299 90.1968,-467.25"/>
</g>
<!-- 12 -->
<g id="node54" class="node"><title>12</title>
<ellipse fill="none" stroke="black" cx="180.9" cy="-291.828" rx="27" ry="18"/>
<text text-anchor="middle" x="180.9" y="-287.728" font-family="Times Roman,serif" font-size="14.00">12</text>
</g>
<!-- 12&#45;&#45;15 -->
<g id="edge60" class="edge"><title>12&#45;&#45;15</title>
<path fill="none" stroke="blue" stroke-width="2.25" d="M206.453,-297.651C228.217,-302.61 259.348,-309.704 281.225,-314.689"/>
</g>
<!-- 12&#45;&#45;18 -->
<g id="edge58" class="edge"><title>12&#45;&#45;18</title>
<path fill="none" stroke="blue" stroke-width="4.5" d="M154.624,-296.216C132.48,-299.914 100.958,-305.178 78.8246,-308.875"/>
</g>
<!-- 16&#45;&#45;19 -->
<g id="edge76" class="edge"><title>16&#45;&#45;19</title>
<path fill="none" stroke="blue" stroke-width="4.5" d="M198.051,-350.437C208.363,-358.701 221.419,-369.163 231.772,-377.46"/>
</g>
<!-- 16&#45;&#45;18 -->
<g id="edge74" class="edge"><title>16&#45;&#45;18</title>
<path fill="none" stroke="blue" stroke-width="4.5" d="M154.507,-331.8C132.389,-327.776 100.903,-322.048 78.7946,-318.026"/>
</g>
<!-- 22&#45;&#45;27 -->
<g id="edge86" class="edge"><title>22&#45;&#45;27</title>
<path fill="none" stroke="red" stroke-width="2.25" d="M368.033,-212.553C351.457,-202.665 328.064,-188.709 311.405,-178.771"/>
</g>
<!-- 17 -->
<g id="node68" class="node"><title>17</title>
<ellipse fill="none" stroke="black" cx="50.5349" cy="-409.61" rx="27" ry="18"/>
<text text-anchor="middle" x="50.5349" y="-405.51" font-family="Times Roman,serif" font-size="14.00">17</text>
</g>
<!-- 17&#45;&#45;25 -->
<g id="edge78" class="edge"><title>17&#45;&#45;25</title>
<path fill="none" stroke="red" stroke-width="2.25" d="M60.5967,-392.482C72.6944,-371.887 92.8729,-337.536 104.939,-316.995"/>
</g>
<!-- 17&#45;&#45;20 -->
<g id="edge80" class="edge"><title>17&#45;&#45;20</title>
<path fill="none" stroke="green" stroke-width="2.25" d="M69.0249,-422.751C86.4887,-435.162 112.551,-453.684 130.096,-466.153"/>
</g>
</g>
</svg>
