<?xml version="1.0" encoding="UTF-8" standalone="no"?>
<!DOCTYPE svg PUBLIC "-//W3C//DTD SVG 1.1//EN"
 "http://www.w3.org/Graphics/SVG/1.1/DTD/svg11.dtd">
<!-- Generated by graphviz version 2.26.3 (20100126.1600)
 -->
<!-- Title: G Pages: 1 -->
<svg width="237pt" height="228pt"
 viewBox="0.00 0.00 237.00 228.00" xmlns="http://www.w3.org/2000/svg" xmlns:xlink="http://www.w3.org/1999/xlink">
<g id="graph1" class="graph" transform="scale(1 1) rotate(0) translate(4 224)">
<title>G</title>
<polygon fill="white" stroke="white" points="-4,5 -4,-224 234,-224 234,5 -4,5"/>
<!-- A -->
<g id="node1" class="node"><title>A</title>
<ellipse fill="none" stroke="black" cx="109.485" cy="-126.278" rx="27" ry="18"/>
<text text-anchor="middle" x="109.485" y="-122.178" font-family="Times Roman,serif" font-size="14.00">A</text>
</g>
<!-- C -->
<g id="node3" class="node"><title>C</title>
<ellipse fill="none" stroke="black" cx="200.798" cy="-157.017" rx="27" ry="18"/>
<text text-anchor="middle" x="200.798" y="-152.917" font-family="Times Roman,serif" font-size="14.00">C</text>
</g>
<!-- A&#45;&#45;C -->
<g id="edge2" class="edge"><title>A&#45;&#45;C</title>
<path fill="none" stroke="black" d="M128.813,-138.905C141.93,-144.545 159.433,-150.539 173.903,-154.39"/>
</g>
<!-- A&#45;&#45;C -->
<g id="edge20" class="edge"><title>A&#45;&#45;C</title>
<path fill="none" stroke="green" d="M136.38,-128.905C150.84,-132.754 168.328,-138.742 181.442,-144.378"/>
</g>
<!-- B -->
<g id="node5" class="node"><title>B</title>
<ellipse fill="none" stroke="black" cx="85.189" cy="-18.7633" rx="27" ry="18"/>
<text text-anchor="middle" x="85.189" y="-14.6633" font-family="Times Roman,serif" font-size="14.00">B</text>
</g>
<!-- A&#45;&#45;B -->
<g id="edge4" class="edge"><title>A&#45;&#45;B</title>
<path fill="none" stroke="black" d="M110.571,-107.876C108.208,-87.6968 100.991,-55.5958 94.4228,-35.9225"/>
</g>
<!-- A&#45;&#45;B -->
<g id="edge22" class="edge"><title>A&#45;&#45;B</title>
<path fill="none" stroke="blue" d="M100.275,-109.189C93.6599,-89.4004 86.3797,-56.9691 84.0601,-36.7901"/>
</g>
<!-- D -->
<g id="node7" class="node"><title>D</title>
<ellipse fill="none" stroke="black" cx="28.1509" cy="-201.423" rx="27" ry="18"/>
<text text-anchor="middle" x="28.1509" y="-197.323" font-family="Times Roman,serif" font-size="14.00">D</text>
</g>
<!-- A&#45;&#45;D -->
<g id="edge24" class="edge"><title>A&#45;&#45;D</title>
<path fill="none" stroke="green" d="M88.4117,-138.075C72.3995,-150.681 51.1857,-170.459 38.5755,-184.655"/>
</g>
<!-- A&#45;&#45;D -->
<g id="edge6" class="edge"><title>A&#45;&#45;D</title>
<path fill="none" stroke="black" d="M98.892,-143.236C86.2214,-157.463 65.03,-177.202 49.0711,-189.747"/>
</g>
<!-- E -->
<g id="node9" class="node"><title>E</title>
<ellipse fill="none" stroke="black" cx="149.583" cy="-72.4488" rx="27" ry="18"/>
<text text-anchor="middle" x="149.583" y="-68.3488" font-family="Times Roman,serif" font-size="14.00">E</text>
</g>
<!-- C&#45;&#45;E -->
<g id="edge26" class="edge"><title>C&#45;&#45;E</title>
<path fill="none" stroke="red" d="M196.189,-139.145C188.981,-123.77 175.885,-101.939 165.257,-87.4519"/>
</g>
<!-- C&#45;&#45;E -->
<g id="edge8" class="edge"><title>C&#45;&#45;E</title>
<path fill="none" stroke="black" d="M185.116,-142.002C174.48,-127.503 161.376,-105.655 154.174,-90.2828"/>
</g>
<!-- F -->
<g id="node11" class="node"><title>F</title>
<ellipse fill="none" stroke="black" cx="111.616" cy="-199.757" rx="27" ry="18"/>
<text text-anchor="middle" x="111.616" y="-195.657" font-family="Times Roman,serif" font-size="14.00">F</text>
</g>
<!-- C&#45;&#45;F -->
<g id="edge28" class="edge"><title>C&#45;&#45;F</title>
<path fill="none" stroke="red" d="M174.763,-162.815C159.743,-168.815 141.328,-177.778 128.247,-185.519"/>
</g>
<!-- C&#45;&#45;F -->
<g id="edge10" class="edge"><title>C&#45;&#45;F</title>
<path fill="none" stroke="black" d="M183.901,-171.412C170.738,-179.175 152.295,-188.132 137.316,-194.092"/>
</g>
<!-- B&#45;&#45;E -->
<g id="edge30" class="edge"><title>B&#45;&#45;E</title>
<path fill="none" stroke="green" d="M96.1122,-35.3702C104.712,-44.0667 116.835,-54.3427 127.404,-61.9667"/>
</g>
<!-- B&#45;&#45;E -->
<g id="edge12" class="edge"><title>B&#45;&#45;E</title>
<path fill="none" stroke="black" d="M107.411,-29.2762C117.957,-36.8876 130.041,-47.1314 138.628,-55.8092"/>
</g>
<!-- D&#45;&#45;F -->
<g id="edge32" class="edge"><title>D&#45;&#45;F</title>
<path fill="none" stroke="blue" d="M53.7718,-207.186C64.1396,-207.618 76.0747,-207.376 86.401,-206.525"/>
</g>
<!-- D&#45;&#45;F -->
<g id="edge16" class="edge"><title>D&#45;&#45;F</title>
<path fill="none" stroke="black" d="M53.5213,-194.641C63.7679,-193.804 75.5781,-193.566 85.863,-193.988"/>
</g>
<!-- G -->
<g id="node14" class="node"><title>G</title>
<ellipse fill="none" stroke="black" cx="47.4052" cy="-111.685" rx="27" ry="18"/>
<text text-anchor="middle" x="47.4052" y="-107.585" font-family="Times Roman,serif" font-size="14.00">G</text>
</g>
<!-- E&#45;&#45;G -->
<g id="edge34" class="edge"><title>E&#45;&#45;G</title>
<path fill="none" stroke="red" d="M123.009,-76.3771C105.192,-81.8477 82.1832,-90.7893 66.2359,-98.4961"/>
</g>
<!-- E&#45;&#45;G -->
<g id="edge14" class="edge"><title>E&#45;&#45;G</title>
<path fill="none" stroke="black" d="M130.895,-85.5687C114.984,-93.2713 91.9679,-102.224 74.1174,-107.714"/>
</g>
<!-- F&#45;&#45;G -->
<g id="edge36" class="edge"><title>F&#45;&#45;G</title>
<path fill="none" stroke="blue" d="M105.187,-182.17C95.5447,-165.554 77.8504,-141.101 64.4472,-125.738"/>
</g>
<!-- G&#45;&#45;F -->
<g id="edge18" class="edge"><title>G&#45;&#45;F</title>
<path fill="none" stroke="black" d="M53.8336,-129.272C63.476,-145.887 81.1704,-170.341 94.5735,-185.703"/>
</g>
</g>
</svg>
