<?xml version="1.0" encoding="UTF-8" standalone="no"?>
<!DOCTYPE svg PUBLIC "-//W3C//DTD SVG 1.1//EN"
 "http://www.w3.org/Graphics/SVG/1.1/DTD/svg11.dtd">
<!-- Generated by graphviz version 2.26.3 (20100126.1600)
 -->
<!-- Title: G Pages: 1 -->
<svg width="971pt" height="563pt"
 viewBox="0.00 0.00 971.00 563.00" xmlns="http://www.w3.org/2000/svg" xmlns:xlink="http://www.w3.org/1999/xlink">
<g id="graph1" class="graph" transform="scale(1 1) rotate(0) translate(4 559)">
<title>G</title>
<polygon fill="white" stroke="white" points="-4,5 -4,-559 968,-559 968,5 -4,5"/>
<!-- 3_1 -->
<g id="node1" class="node"><title>3_1</title>
<polygon fill="none" stroke="black" points="294.746,-288.35 240.746,-288.35 240.746,-252.35 294.746,-252.35 294.746,-288.35"/>
<text text-anchor="middle" x="267.746" y="-266.25" font-family="Times Roman,serif" font-size="14.00">3_1</text>
</g>
<!-- node_3 -->
<g id="node9" class="node"><title>node_3</title>
<ellipse fill="none" stroke="black" cx="274.564" cy="-180.37" rx="46.0565" ry="18"/>
<text text-anchor="middle" x="274.564" y="-176.27" font-family="Times Roman,serif" font-size="14.00">node_3</text>
</g>
<!-- 3_1&#45;&#45;node_3 -->
<g id="edge4" class="edge"><title>3_1&#45;&#45;node_3</title>
<path fill="none" stroke="black" stroke-width="2" d="M269.126,-252.141C270.309,-236.53 272.004,-214.155 273.187,-198.552"/>
</g>
<!-- 4_0 -->
<g id="node18" class="node"><title>4_0</title>
<polygon fill="none" stroke="black" points="241.348,-401.571 187.348,-401.571 187.348,-365.571 241.348,-365.571 241.348,-401.571"/>
<text text-anchor="middle" x="214.348" y="-379.471" font-family="Times Roman,serif" font-size="14.00">4_0</text>
</g>
<!-- 3_1&#45;&#45;4_0 -->
<g id="edge2" class="edge"><title>3_1&#45;&#45;4_0</title>
<path fill="none" stroke="grey" stroke-width="5" stroke-dasharray="1,5" d="M259.167,-288.541C249.202,-309.669 232.861,-344.317 222.906,-365.426"/>
</g>
<!-- 3_0 -->
<g id="node2" class="node"><title>3_0</title>
<polygon fill="none" stroke="black" points="424.795,-215.354 370.795,-215.354 370.795,-179.354 424.795,-179.354 424.795,-215.354"/>
<text text-anchor="middle" x="397.795" y="-193.254" font-family="Times Roman,serif" font-size="14.00">3_0</text>
</g>
<!-- 2_0 -->
<g id="node5" class="node"><title>2_0</title>
<polygon fill="none" stroke="black" points="471.55,-311.842 417.55,-311.842 417.55,-275.842 471.55,-275.842 471.55,-311.842"/>
<text text-anchor="middle" x="444.55" y="-289.742" font-family="Times Roman,serif" font-size="14.00">2_0</text>
</g>
<!-- 3_0&#45;&#45;2_0 -->
<g id="edge6" class="edge"><title>3_0&#45;&#45;2_0</title>
<path fill="none" stroke="grey" stroke-width="5" stroke-dasharray="1,5" d="M406.589,-215.503C414.948,-232.754 427.449,-258.551 435.795,-275.775"/>
</g>
<!-- 3_0&#45;&#45;node_3 -->
<g id="edge8" class="edge"><title>3_0&#45;&#45;node_3</title>
<path fill="none" stroke="black" stroke-width="2" d="M370.751,-193.627C355.306,-191.499 335.576,-188.779 318.01,-186.358"/>
</g>
<!-- 6_0 -->
<g id="node3" class="node"><title>6_0</title>
<polygon fill="none" stroke="black" points="771.654,-296.655 717.654,-296.655 717.654,-260.655 771.654,-260.655 771.654,-296.655"/>
<text text-anchor="middle" x="744.654" y="-274.555" font-family="Times Roman,serif" font-size="14.00">6_0</text>
</g>
<!-- node_6 -->
<g id="node6" class="node"><title>node_6</title>
<ellipse fill="none" stroke="black" cx="623.881" cy="-313.401" rx="46.0565" ry="18"/>
<text text-anchor="middle" x="623.881" y="-309.301" font-family="Times Roman,serif" font-size="14.00">node_6</text>
</g>
<!-- 6_0&#45;&#45;node_6 -->
<g id="edge10" class="edge"><title>6_0&#45;&#45;node_6</title>
<path fill="none" stroke="black" stroke-width="2" d="M717.55,-286.453C700.859,-291.255 679.234,-297.476 660.969,-302.731"/>
</g>
<!-- 1_1 -->
<g id="node16" class="node"><title>1_1</title>
<polygon fill="none" stroke="black" points="788.51,-197.715 734.51,-197.715 734.51,-161.715 788.51,-161.715 788.51,-197.715"/>
<text text-anchor="middle" x="761.51" y="-175.615" font-family="Times Roman,serif" font-size="14.00">1_1</text>
</g>
<!-- 6_0&#45;&#45;1_1 -->
<g id="edge14" class="edge"><title>6_0&#45;&#45;1_1</title>
<path fill="none" stroke="grey" stroke-width="5" stroke-dasharray="1,5" d="M747.745,-260.508C750.787,-242.656 755.403,-215.559 758.438,-197.747"/>
</g>
<!-- 7_0 -->
<g id="node20" class="node"><title>7_0</title>
<polygon fill="none" stroke="black" points="831.663,-385.741 777.663,-385.741 777.663,-349.741 831.663,-349.741 831.663,-385.741"/>
<text text-anchor="middle" x="804.663" y="-363.641" font-family="Times Roman,serif" font-size="14.00">7_0</text>
</g>
<!-- 6_0&#45;&#45;7_0 -->
<g id="edge12" class="edge"><title>6_0&#45;&#45;7_0</title>
<path fill="none" stroke="grey" stroke-width="5" stroke-dasharray="1,5" d="M756.797,-296.683C767.209,-312.139 782.131,-334.292 792.537,-349.74"/>
</g>
<!-- 6_1 -->
<g id="node4" class="node"><title>6_1</title>
<polygon fill="none" stroke="black" points="510.813,-370.589 456.813,-370.589 456.813,-334.589 510.813,-334.589 510.813,-370.589"/>
<text text-anchor="middle" x="483.813" y="-348.489" font-family="Times Roman,serif" font-size="14.00">6_1</text>
</g>
<!-- 6_1&#45;&#45;2_0 -->
<g id="edge16" class="edge"><title>6_1&#45;&#45;2_0</title>
<path fill="none" stroke="grey" stroke-width="5" stroke-dasharray="1,5" d="M471.605,-334.323C466.833,-327.182 461.374,-319.015 456.615,-311.895"/>
</g>
<!-- 6_1&#45;&#45;node_6 -->
<g id="edge18" class="edge"><title>6_1&#45;&#45;node_6</title>
<path fill="none" stroke="black" stroke-width="2" d="M510.82,-345.033C532.284,-339.028 562.551,-330.56 586.369,-323.896"/>
</g>
<!-- node_2 -->
<g id="node10" class="node"><title>node_2</title>
<ellipse fill="none" stroke="black" cx="569.471" cy="-373.472" rx="46.0565" ry="18"/>
<text text-anchor="middle" x="569.471" y="-369.372" font-family="Times Roman,serif" font-size="14.00">node_2</text>
</g>
<!-- 2_0&#45;&#45;node_2 -->
<g id="edge22" class="edge"><title>2_0&#45;&#45;node_2</title>
<path fill="none" stroke="black" stroke-width="2" d="M471.656,-311.121C493.614,-325.118 524.264,-344.655 545.373,-358.111"/>
</g>
<!-- 0_0 -->
<g id="node21" class="node"><title>0_0</title>
<polygon fill="none" stroke="black" points="369.67,-341.717 315.67,-341.717 315.67,-305.717 369.67,-305.717 369.67,-341.717"/>
<text text-anchor="middle" x="342.67" y="-319.617" font-family="Times Roman,serif" font-size="14.00">0_0</text>
</g>
<!-- 2_0&#45;&#45;0_0 -->
<g id="edge20" class="edge"><title>2_0&#45;&#45;0_0</title>
<path fill="none" stroke="grey" stroke-width="5" stroke-dasharray="1,5" d="M417.515,-301.77C402.778,-306.091 384.588,-311.425 369.83,-315.753"/>
</g>
<!-- node_5 -->
<g id="node7" class="node"><title>node_5</title>
<ellipse fill="none" stroke="black" cx="89.7141" cy="-472.499" rx="46.0565" ry="18"/>
<text text-anchor="middle" x="89.7141" y="-468.399" font-family="Times Roman,serif" font-size="14.00">node_5</text>
</g>
<!-- 5_1 -->
<g id="node14" class="node"><title>5_1</title>
<polygon fill="none" stroke="black" points="148.041,-434.201 94.0413,-434.201 94.0413,-398.201 148.041,-398.201 148.041,-434.201"/>
<text text-anchor="middle" x="121.041" y="-412.101" font-family="Times Roman,serif" font-size="14.00">5_1</text>
</g>
<!-- node_5&#45;&#45;5_1 -->
<g id="edge24" class="edge"><title>node_5&#45;&#45;5_1</title>
<path fill="none" stroke="black" stroke-width="2" d="M99.6262,-454.686C103.211,-448.243 107.263,-440.961 110.87,-434.479"/>
</g>
<!-- 5_0 -->
<g id="node15" class="node"><title>5_0</title>
<polygon fill="none" stroke="black" points="55.1427,-554.19 1.14275,-554.19 1.14275,-518.19 55.1427,-518.19 55.1427,-554.19"/>
<text text-anchor="middle" x="28.1427" y="-532.09" font-family="Times Roman,serif" font-size="14.00">5_0</text>
</g>
<!-- node_5&#45;&#45;5_0 -->
<g id="edge26" class="edge"><title>node_5&#45;&#45;5_0</title>
<path fill="none" stroke="black" stroke-width="2" d="M73.2141,-489.567C64.6649,-498.411 54.2273,-509.208 45.55,-518.184"/>
</g>
<!-- node_4 -->
<g id="node8" class="node"><title>node_4</title>
<ellipse fill="none" stroke="black" cx="222.912" cy="-512.437" rx="46.0565" ry="18"/>
<text text-anchor="middle" x="222.912" y="-508.337" font-family="Times Roman,serif" font-size="14.00">node_4</text>
</g>
<!-- node_4&#45;&#45;4_0 -->
<g id="edge28" class="edge"><title>node_4&#45;&#45;4_0</title>
<path fill="none" stroke="black" stroke-width="2" d="M221.703,-494.247C220.071,-469.687 217.179,-426.181 215.55,-401.669"/>
</g>
<!-- node_1 -->
<g id="node11" class="node"><title>node_1</title>
<ellipse fill="none" stroke="black" cx="779.488" cy="-121.421" rx="46.0565" ry="18"/>
<text text-anchor="middle" x="779.488" y="-117.321" font-family="Times Roman,serif" font-size="14.00">node_1</text>
</g>
<!-- node_1&#45;&#45;1_1 -->
<g id="edge30" class="edge"><title>node_1&#45;&#45;1_1</title>
<path fill="none" stroke="black" stroke-width="2" d="M773.898,-139.546C771.754,-146.498 769.308,-154.431 767.158,-161.4"/>
</g>
<!-- 1_0 -->
<g id="node17" class="node"><title>1_0</title>
<polygon fill="none" stroke="black" points="866.868,-36.8531 812.868,-36.8531 812.868,-0.853123 866.868,-0.853123 866.868,-36.8531"/>
<text text-anchor="middle" x="839.868" y="-14.7531" font-family="Times Roman,serif" font-size="14.00">1_0</text>
</g>
<!-- node_1&#45;&#45;1_0 -->
<g id="edge32" class="edge"><title>node_1&#45;&#45;1_0</title>
<path fill="none" stroke="black" stroke-width="2" d="M790.005,-103.555C801.02,-84.8442 818.223,-55.6214 829.268,-36.8585"/>
</g>
<!-- node_0 -->
<g id="node12" class="node"><title>node_0</title>
<ellipse fill="none" stroke="black" cx="201.133" cy="-321.298" rx="46.0565" ry="18"/>
<text text-anchor="middle" x="201.133" y="-317.198" font-family="Times Roman,serif" font-size="14.00">node_0</text>
</g>
<!-- node_0&#45;&#45;0_0 -->
<g id="edge34" class="edge"><title>node_0&#45;&#45;0_0</title>
<path fill="none" stroke="black" stroke-width="2" d="M247.477,-322.09C270.051,-322.476 296.404,-322.926 315.652,-323.255"/>
</g>
<!-- node_7 -->
<g id="node13" class="node"><title>node_7</title>
<ellipse fill="none" stroke="black" cx="848.006" cy="-457.795" rx="46.0565" ry="18"/>
<text text-anchor="middle" x="848.006" y="-453.695" font-family="Times Roman,serif" font-size="14.00">node_7</text>
</g>
<!-- 7_1 -->
<g id="node19" class="node"><title>7_1</title>
<polygon fill="none" stroke="black" points="961.832,-545.405 907.832,-545.405 907.832,-509.405 961.832,-509.405 961.832,-545.405"/>
<text text-anchor="middle" x="934.832" y="-523.305" font-family="Times Roman,serif" font-size="14.00">7_1</text>
</g>
<!-- node_7&#45;&#45;7_1 -->
<g id="edge36" class="edge"><title>node_7&#45;&#45;7_1</title>
<path fill="none" stroke="black" stroke-width="2" d="M868.583,-474.292C881.722,-484.825 898.761,-498.487 912.269,-509.316"/>
</g>
<!-- node_7&#45;&#45;7_0 -->
<g id="edge38" class="edge"><title>node_7&#45;&#45;7_0</title>
<path fill="none" stroke="black" stroke-width="2" d="M839.443,-440.004C831.894,-424.318 820.945,-401.57 813.357,-385.804"/>
</g>
<!-- 5_1&#45;&#45;4_0 -->
<g id="edge40" class="edge"><title>5_1&#45;&#45;4_0</title>
<path fill="none" stroke="grey" stroke-width="5" stroke-dasharray="1,5" d="M148.532,-406.587C160.68,-402.339 174.928,-397.356 187.054,-393.116"/>
</g>
</g>
</svg>
