<?xml version="1.0" encoding="UTF-8" standalone="no"?>
<!DOCTYPE svg PUBLIC "-//W3C//DTD SVG 1.1//EN"
 "http://www.w3.org/Graphics/SVG/1.1/DTD/svg11.dtd">
<!-- Generated by graphviz version 2.26.3 (20100126.1600)
 -->
<!-- Title: G Pages: 1 -->
<svg width="1105pt" height="1075pt"
 viewBox="0.00 0.00 1105.00 1075.00" xmlns="http://www.w3.org/2000/svg" xmlns:xlink="http://www.w3.org/1999/xlink">
<g id="graph1" class="graph" transform="scale(1 1) rotate(0) translate(4 1071)">
<title>G</title>
<polygon fill="white" stroke="white" points="-4,5 -4,-1071 1102,-1071 1102,5 -4,5"/>
<!-- 12_0 -->
<g id="node1" class="node"><title>12_0</title>
<polygon fill="none" stroke="black" points="813.845,-394.649 759.845,-394.649 759.845,-358.649 813.845,-358.649 813.845,-394.649"/>
<text text-anchor="middle" x="786.845" y="-372.549" font-family="Times Roman,serif" font-size="14.00">12_0</text>
</g>
<!-- 10_0 -->
<g id="node6" class="node"><title>10_0</title>
<polygon fill="none" stroke="black" points="681.924,-411.333 627.924,-411.333 627.924,-375.333 681.924,-375.333 681.924,-411.333"/>
<text text-anchor="middle" x="654.924" y="-389.233" font-family="Times Roman,serif" font-size="14.00">10_0</text>
</g>
<!-- 12_0&#45;&#45;10_0 -->
<g id="edge4" class="edge"><title>12_0&#45;&#45;10_0</title>
<path fill="none" stroke="grey" stroke-width="5" stroke-dasharray="1,5" d="M759.831,-380.066C737.216,-382.926 705.086,-386.989 682.356,-389.864"/>
</g>
<!-- node_12 -->
<g id="node45" class="node"><title>node_12</title>
<ellipse fill="none" stroke="black" cx="914.776" cy="-340.404" rx="52.8111" ry="18"/>
<text text-anchor="middle" x="914.776" y="-336.304" font-family="Times Roman,serif" font-size="14.00">node_12</text>
</g>
<!-- 12_0&#45;&#45;node_12 -->
<g id="edge2" class="edge"><title>12_0&#45;&#45;node_12</title>
<path fill="none" stroke="black" stroke-width="2" d="M813.976,-368.962C831.433,-364.017 854.441,-357.498 874.067,-351.938"/>
</g>
<!-- 6_0 -->
<g id="node2" class="node"><title>6_0</title>
<polygon fill="none" stroke="black" points="403.788,-125.118 349.788,-125.118 349.788,-89.1177 403.788,-89.1177 403.788,-125.118"/>
<text text-anchor="middle" x="376.788" y="-103.018" font-family="Times Roman,serif" font-size="14.00">6_0</text>
</g>
<!-- 0_1 -->
<g id="node10" class="node"><title>0_1</title>
<polygon fill="none" stroke="black" points="388.67,-234.838 334.67,-234.838 334.67,-198.838 388.67,-198.838 388.67,-234.838"/>
<text text-anchor="middle" x="361.67" y="-212.738" font-family="Times Roman,serif" font-size="14.00">0_1</text>
</g>
<!-- 6_0&#45;&#45;0_1 -->
<g id="edge8" class="edge"><title>6_0&#45;&#45;0_1</title>
<path fill="none" stroke="grey" stroke-width="5" stroke-dasharray="1,5" d="M374.291,-125.236C371.49,-145.565 366.973,-178.353 364.17,-198.693"/>
</g>
<!-- node_6 -->
<g id="node29" class="node"><title>node_6</title>
<ellipse fill="none" stroke="black" cx="412.116" cy="-19.0937" rx="46.0565" ry="18"/>
<text text-anchor="middle" x="412.116" y="-14.9937" font-family="Times Roman,serif" font-size="14.00">node_6</text>
</g>
<!-- 6_0&#45;&#45;node_6 -->
<g id="edge6" class="edge"><title>6_0&#45;&#45;node_6</title>
<path fill="none" stroke="black" stroke-width="2" d="M384.108,-88.8791C390.211,-73.6713 398.859,-52.1245 404.926,-37.0078"/>
</g>
<!-- 8_0 -->
<g id="node3" class="node"><title>8_0</title>
<polygon fill="none" stroke="black" points="610.537,-310.084 556.537,-310.084 556.537,-274.084 610.537,-274.084 610.537,-310.084"/>
<text text-anchor="middle" x="583.537" y="-287.984" font-family="Times Roman,serif" font-size="14.00">8_0</text>
</g>
<!-- 0_0 -->
<g id="node9" class="node"><title>0_0</title>
<polygon fill="none" stroke="black" points="617.458,-435.619 563.458,-435.619 563.458,-399.619 617.458,-399.619 617.458,-435.619"/>
<text text-anchor="middle" x="590.458" y="-413.519" font-family="Times Roman,serif" font-size="14.00">0_0</text>
</g>
<!-- 8_0&#45;&#45;0_0 -->
<g id="edge12" class="edge"><title>8_0&#45;&#45;0_0</title>
<path fill="none" stroke="grey" stroke-width="5" stroke-dasharray="1,5" d="M584.543,-310.338C585.855,-334.139 588.137,-375.532 589.45,-399.343"/>
</g>
<!-- 3_0 -->
<g id="node12" class="node"><title>3_0</title>
<polygon fill="none" stroke="black" points="623.532,-357.906 569.532,-357.906 569.532,-321.906 623.532,-321.906 623.532,-357.906"/>
<text text-anchor="middle" x="596.532" y="-335.806" font-family="Times Roman,serif" font-size="14.00">3_0</text>
</g>
<!-- 8_0&#45;&#45;3_0 -->
<g id="edge10" class="edge"><title>8_0&#45;&#45;3_0</title>
<path fill="none" stroke="grey" stroke-width="5" stroke-dasharray="1,5" d="M588.449,-310.164C589.484,-313.973 590.577,-317.992 591.612,-321.801"/>
</g>
<!-- node_8 -->
<g id="node27" class="node"><title>node_8</title>
<ellipse fill="none" stroke="black" cx="599.982" cy="-168.183" rx="46.0565" ry="18"/>
<text text-anchor="middle" x="599.982" y="-164.083" font-family="Times Roman,serif" font-size="14.00">node_8</text>
</g>
<!-- 8_0&#45;&#45;node_8 -->
<g id="edge14" class="edge"><title>8_0&#45;&#45;node_8</title>
<path fill="none" stroke="black" stroke-width="2" d="M585.928,-274.068C589.046,-250.577 594.468,-209.723 597.588,-186.221"/>
</g>
<!-- 13_1 -->
<g id="node4" class="node"><title>13_1</title>
<polygon fill="none" stroke="black" points="1008.95,-522.326 954.951,-522.326 954.951,-486.326 1008.95,-486.326 1008.95,-522.326"/>
<text text-anchor="middle" x="981.951" y="-500.226" font-family="Times Roman,serif" font-size="14.00">13_1</text>
</g>
<!-- node_13 -->
<g id="node44" class="node"><title>node_13</title>
<ellipse fill="none" stroke="black" cx="855.517" cy="-494.363" rx="52.8111" ry="18"/>
<text text-anchor="middle" x="855.517" y="-490.263" font-family="Times Roman,serif" font-size="14.00">node_13</text>
</g>
<!-- 13_1&#45;&#45;node_13 -->
<g id="edge16" class="edge"><title>13_1&#45;&#45;node_13</title>
<path fill="none" stroke="black" stroke-width="2" d="M954.828,-502.189C940.969,-501.097 923.63,-499.73 907.336,-498.446"/>
</g>
<!-- 13_0 -->
<g id="node5" class="node"><title>13_0</title>
<polygon fill="none" stroke="black" points="720.515,-497.28 666.515,-497.28 666.515,-461.28 720.515,-461.28 720.515,-497.28"/>
<text text-anchor="middle" x="693.515" y="-475.18" font-family="Times Roman,serif" font-size="14.00">13_0</text>
</g>
<!-- 13_0&#45;&#45;0_0 -->
<g id="edge22" class="edge"><title>13_0&#45;&#45;0_0</title>
<path fill="none" stroke="grey" stroke-width="5" stroke-dasharray="1,5" d="M666.438,-463.079C651.409,-454.087 632.768,-442.934 617.712,-433.925"/>
</g>
<!-- 5_0 -->
<g id="node20" class="node"><title>5_0</title>
<polygon fill="none" stroke="black" points="785.62,-615.413 731.62,-615.413 731.62,-579.413 785.62,-579.413 785.62,-615.413"/>
<text text-anchor="middle" x="758.62" y="-593.313" font-family="Times Roman,serif" font-size="14.00">5_0</text>
</g>
<!-- 13_0&#45;&#45;5_0 -->
<g id="edge18" class="edge"><title>13_0&#45;&#45;5_0</title>
<path fill="none" stroke="grey" stroke-width="5" stroke-dasharray="1,5" d="M703.545,-497.479C715.815,-519.743 736.459,-557.202 748.686,-579.387"/>
</g>
<!-- 13_0&#45;&#45;node_13 -->
<g id="edge20" class="edge"><title>13_0&#45;&#45;node_13</title>
<path fill="none" stroke="black" stroke-width="2" d="M720.63,-481.804C743.419,-483.926 776.622,-487.017 804.383,-489.602"/>
</g>
<!-- 7_0 -->
<g id="node8" class="node"><title>7_0</title>
<polygon fill="none" stroke="black" points="657.653,-511.162 603.653,-511.162 603.653,-475.162 657.653,-475.162 657.653,-511.162"/>
<text text-anchor="middle" x="630.653" y="-489.062" font-family="Times Roman,serif" font-size="14.00">7_0</text>
</g>
<!-- 10_0&#45;&#45;7_0 -->
<g id="edge28" class="edge"><title>10_0&#45;&#45;7_0</title>
<path fill="none" stroke="grey" stroke-width="5" stroke-dasharray="1,5" d="M650.472,-411.643C646.093,-429.655 639.446,-456.995 635.076,-474.967"/>
</g>
<!-- 10_0&#45;&#45;3_0 -->
<g id="edge24" class="edge"><title>10_0&#45;&#45;3_0</title>
<path fill="none" stroke="grey" stroke-width="5" stroke-dasharray="1,5" d="M635.155,-375.245C629.067,-369.675 622.367,-363.544 616.28,-357.975"/>
</g>
<!-- 19_0 -->
<g id="node36" class="node"><title>19_0</title>
<polygon fill="none" stroke="black" points="532.831,-392.517 478.831,-392.517 478.831,-356.517 532.831,-356.517 532.831,-392.517"/>
<text text-anchor="middle" x="505.831" y="-370.417" font-family="Times Roman,serif" font-size="14.00">19_0</text>
</g>
<!-- 10_0&#45;&#45;19_0 -->
<g id="edge26" class="edge"><title>10_0&#45;&#45;19_0</title>
<path fill="none" stroke="grey" stroke-width="5" stroke-dasharray="1,5" d="M627.578,-389.882C600.677,-386.487 559.845,-381.334 533.004,-377.947"/>
</g>
<!-- node_10 -->
<g id="node47" class="node"><title>node_10</title>
<ellipse fill="none" stroke="black" cx="783.976" cy="-325.791" rx="52.8111" ry="18"/>
<text text-anchor="middle" x="783.976" y="-321.691" font-family="Times Roman,serif" font-size="14.00">node_10</text>
</g>
<!-- 10_0&#45;&#45;node_10 -->
<g id="edge30" class="edge"><title>10_0&#45;&#45;node_10</title>
<path fill="none" stroke="black" stroke-width="2" d="M681.977,-379.174C703.264,-368.033 732.876,-352.535 754.712,-341.106"/>
</g>
<!-- 1_0 -->
<g id="node7" class="node"><title>1_0</title>
<polygon fill="none" stroke="black" points="245.203,-208.774 191.203,-208.774 191.203,-172.774 245.203,-172.774 245.203,-208.774"/>
<text text-anchor="middle" x="218.203" y="-186.674" font-family="Times Roman,serif" font-size="14.00">1_0</text>
</g>
<!-- 1_0&#45;&#45;0_1 -->
<g id="edge36" class="edge"><title>1_0&#45;&#45;0_1</title>
<path fill="none" stroke="grey" stroke-width="5" stroke-dasharray="1,5" d="M245.526,-195.738C271.054,-200.375 308.954,-207.261 334.449,-211.893"/>
</g>
<!-- 2_1 -->
<g id="node16" class="node"><title>2_1</title>
<polygon fill="none" stroke="black" points="147.512,-188.608 93.5123,-188.608 93.5123,-152.608 147.512,-152.608 147.512,-188.608"/>
<text text-anchor="middle" x="120.512" y="-166.508" font-family="Times Roman,serif" font-size="14.00">2_1</text>
</g>
<!-- 1_0&#45;&#45;2_1 -->
<g id="edge32" class="edge"><title>1_0&#45;&#45;2_1</title>
<path fill="none" stroke="grey" stroke-width="5" stroke-dasharray="1,5" d="M190.991,-185.156C177.441,-182.359 161.108,-178.988 147.579,-176.195"/>
</g>
<!-- node_1 -->
<g id="node34" class="node"><title>node_1</title>
<ellipse fill="none" stroke="black" cx="144.383" cy="-90.163" rx="46.0565" ry="18"/>
<text text-anchor="middle" x="144.383" y="-86.063" font-family="Times Roman,serif" font-size="14.00">node_1</text>
</g>
<!-- 1_0&#45;&#45;node_1 -->
<g id="edge34" class="edge"><title>1_0&#45;&#45;node_1</title>
<path fill="none" stroke="black" stroke-width="2" d="M204.664,-172.32C191.094,-153.826 170.366,-125.576 157.097,-107.491"/>
</g>
<!-- node_7 -->
<g id="node28" class="node"><title>node_7</title>
<ellipse fill="none" stroke="black" cx="649.555" cy="-603.326" rx="46.0565" ry="18"/>
<text text-anchor="middle" x="649.555" y="-599.226" font-family="Times Roman,serif" font-size="14.00">node_7</text>
</g>
<!-- 7_0&#45;&#45;node_7 -->
<g id="edge38" class="edge"><title>7_0&#45;&#45;node_7</title>
<path fill="none" stroke="black" stroke-width="2" d="M633.774,-511.353C637.276,-531.765 642.925,-564.685 646.429,-585.108"/>
</g>
<!-- 3_1 -->
<g id="node11" class="node"><title>3_1</title>
<polygon fill="none" stroke="black" points="687.901,-349.403 633.901,-349.403 633.901,-313.403 687.901,-313.403 687.901,-349.403"/>
<text text-anchor="middle" x="660.901" y="-327.303" font-family="Times Roman,serif" font-size="14.00">3_1</text>
</g>
<!-- 0_0&#45;&#45;3_1 -->
<g id="edge40" class="edge"><title>0_0&#45;&#45;3_1</title>
<path fill="none" stroke="grey" stroke-width="5" stroke-dasharray="1,5" d="M605.397,-399.335C617.351,-384.703 634.035,-364.285 645.984,-349.661"/>
</g>
<!-- 11_0 -->
<g id="node23" class="node"><title>11_0</title>
<polygon fill="none" stroke="black" points="525.711,-547.286 471.711,-547.286 471.711,-511.286 525.711,-511.286 525.711,-547.286"/>
<text text-anchor="middle" x="498.711" y="-525.186" font-family="Times Roman,serif" font-size="14.00">11_0</text>
</g>
<!-- 0_0&#45;&#45;11_0 -->
<g id="edge42" class="edge"><title>0_0&#45;&#45;11_0</title>
<path fill="none" stroke="grey" stroke-width="5" stroke-dasharray="1,5" d="M575.308,-436.058C558.207,-456.872 530.563,-490.518 513.579,-511.19"/>
</g>
<!-- node_0 -->
<g id="node35" class="node"><title>node_0</title>
<ellipse fill="none" stroke="black" cx="471.198" cy="-301.62" rx="46.0565" ry="18"/>
<text text-anchor="middle" x="471.198" y="-297.52" font-family="Times Roman,serif" font-size="14.00">node_0</text>
</g>
<!-- 0_0&#45;&#45;node_0 -->
<g id="edge44" class="edge"><title>0_0&#45;&#45;node_0</title>
<path fill="none" stroke="black" stroke-width="2" d="M571.823,-399.494C549.025,-377.319 510.732,-340.073 488.539,-318.487"/>
</g>
<!-- 0_1&#45;&#45;node_0 -->
<g id="edge46" class="edge"><title>0_1&#45;&#45;node_0</title>
<path fill="none" stroke="black" stroke-width="2" d="M385.166,-235.026C404.526,-250.012 431.727,-271.067 450.329,-285.466"/>
</g>
<!-- node_3 -->
<g id="node32" class="node"><title>node_3</title>
<ellipse fill="none" stroke="black" cx="683.171" cy="-262.073" rx="46.0565" ry="18"/>
<text text-anchor="middle" x="683.171" y="-257.973" font-family="Times Roman,serif" font-size="14.00">node_3</text>
</g>
<!-- 3_1&#45;&#45;node_3 -->
<g id="edge48" class="edge"><title>3_1&#45;&#45;node_3</title>
<path fill="none" stroke="black" stroke-width="2" d="M666.752,-313.187C670,-303.077 674.028,-290.537 677.282,-280.408"/>
</g>
<!-- 3_0&#45;&#45;node_3 -->
<g id="edge50" class="edge"><title>3_0&#45;&#45;node_3</title>
<path fill="none" stroke="black" stroke-width="2" d="M616.626,-321.854C631.123,-308.831 650.546,-291.382 664.665,-278.698"/>
</g>
<!-- 16_0 -->
<g id="node13" class="node"><title>16_0</title>
<polygon fill="none" stroke="black" points="868.032,-990.262 814.032,-990.262 814.032,-954.262 868.032,-954.262 868.032,-990.262"/>
<text text-anchor="middle" x="841.032" y="-968.162" font-family="Times Roman,serif" font-size="14.00">16_0</text>
</g>
<!-- 4_1 -->
<g id="node37" class="node"><title>4_1</title>
<polygon fill="none" stroke="black" points="768.224,-959.578 714.224,-959.578 714.224,-923.578 768.224,-923.578 768.224,-959.578"/>
<text text-anchor="middle" x="741.224" y="-937.478" font-family="Times Roman,serif" font-size="14.00">4_1</text>
</g>
<!-- 16_0&#45;&#45;4_1 -->
<g id="edge54" class="edge"><title>16_0&#45;&#45;4_1</title>
<path fill="none" stroke="grey" stroke-width="5" stroke-dasharray="1,5" d="M814.023,-963.959C799.821,-959.593 782.46,-954.256 768.255,-949.889"/>
</g>
<!-- node_16 -->
<g id="node48" class="node"><title>node_16</title>
<ellipse fill="none" stroke="black" cx="955.426" cy="-1018.99" rx="52.8111" ry="18"/>
<text text-anchor="middle" x="955.426" y="-1014.89" font-family="Times Roman,serif" font-size="14.00">node_16</text>
</g>
<!-- 16_0&#45;&#45;node_16 -->
<g id="edge52" class="edge"><title>16_0&#45;&#45;node_16</title>
<path fill="none" stroke="black" stroke-width="2" d="M868.142,-983.337C883.999,-989.814 904.168,-998.053 921.123,-1004.98"/>
</g>
<!-- 16_1 -->
<g id="node14" class="node"><title>16_1</title>
<polygon fill="none" stroke="black" points="1096.04,-1065.92 1042.04,-1065.92 1042.04,-1029.92 1096.04,-1029.92 1096.04,-1065.92"/>
<text text-anchor="middle" x="1069.04" y="-1043.82" font-family="Times Roman,serif" font-size="14.00">16_1</text>
</g>
<!-- 16_1&#45;&#45;node_16 -->
<g id="edge56" class="edge"><title>16_1&#45;&#45;node_16</title>
<path fill="none" stroke="black" stroke-width="2" d="M1041.82,-1040.99C1028.7,-1037.65 1012.64,-1033.56 997.948,-1029.82"/>
</g>
<!-- 2_0 -->
<g id="node15" class="node"><title>2_0</title>
<polygon fill="none" stroke="black" points="189.283,-297.335 135.283,-297.335 135.283,-261.335 189.283,-261.335 189.283,-297.335"/>
<text text-anchor="middle" x="162.283" y="-275.235" font-family="Times Roman,serif" font-size="14.00">2_0</text>
</g>
<!-- 17_0 -->
<g id="node17" class="node"><title>17_0</title>
<polygon fill="none" stroke="black" points="309.547,-301.024 255.547,-301.024 255.547,-265.024 309.547,-265.024 309.547,-301.024"/>
<text text-anchor="middle" x="282.547" y="-278.924" font-family="Times Roman,serif" font-size="14.00">17_0</text>
</g>
<!-- 2_0&#45;&#45;17_0 -->
<g id="edge60" class="edge"><title>2_0&#45;&#45;17_0</title>
<path fill="none" stroke="grey" stroke-width="5" stroke-dasharray="1,5" d="M189.573,-280.172C209.255,-280.776 235.708,-281.587 255.365,-282.19"/>
</g>
<!-- node_2 -->
<g id="node33" class="node"><title>node_2</title>
<ellipse fill="none" stroke="black" cx="47.8855" cy="-250.269" rx="46.0565" ry="18"/>
<text text-anchor="middle" x="47.8855" y="-246.169" font-family="Times Roman,serif" font-size="14.00">node_2</text>
</g>
<!-- 2_0&#45;&#45;node_2 -->
<g id="edge58" class="edge"><title>2_0&#45;&#45;node_2</title>
<path fill="none" stroke="black" stroke-width="2" d="M135.173,-272.446C120.637,-268.753 102.477,-264.139 86.4907,-260.077"/>
</g>
<!-- 2_1&#45;&#45;node_2 -->
<g id="edge62" class="edge"><title>2_1&#45;&#45;node_2</title>
<path fill="none" stroke="black" stroke-width="2" d="M104.032,-188.684C91.8952,-201.997 75.4944,-219.986 63.5536,-233.083"/>
</g>
<!-- 18_0 -->
<g id="node18" class="node"><title>18_0</title>
<polygon fill="none" stroke="black" points="417.782,-365.808 363.782,-365.808 363.782,-329.808 417.782,-329.808 417.782,-365.808"/>
<text text-anchor="middle" x="390.782" y="-343.708" font-family="Times Roman,serif" font-size="14.00">18_0</text>
</g>
<!-- 17_0&#45;&#45;18_0 -->
<g id="edge66" class="edge"><title>17_0&#45;&#45;18_0</title>
<path fill="none" stroke="grey" stroke-width="5" stroke-dasharray="1,5" d="M309.58,-299.205C326.11,-309.099 347.182,-321.712 363.718,-331.61"/>
</g>
<!-- node_17 -->
<g id="node40" class="node"><title>node_17</title>
<ellipse fill="none" stroke="black" cx="287.154" cy="-141.504" rx="52.8111" ry="18"/>
<text text-anchor="middle" x="287.154" y="-137.404" font-family="Times Roman,serif" font-size="14.00">node_17</text>
</g>
<!-- 17_0&#45;&#45;node_17 -->
<g id="edge64" class="edge"><title>17_0&#45;&#45;node_17</title>
<path fill="none" stroke="black" stroke-width="2" d="M283.14,-264.813C284.025,-237.639 285.68,-186.779 286.564,-159.645"/>
</g>
<!-- 18_0&#45;&#45;19_0 -->
<g id="edge68" class="edge"><title>18_0&#45;&#45;19_0</title>
<path fill="none" stroke="grey" stroke-width="5" stroke-dasharray="1,5" d="M418.047,-354.138C436.387,-358.396 460.463,-363.985 478.762,-368.233"/>
</g>
<!-- node_18 -->
<g id="node39" class="node"><title>node_18</title>
<ellipse fill="none" stroke="black" cx="262.58" cy="-397.26" rx="52.8111" ry="18"/>
<text text-anchor="middle" x="262.58" y="-393.16" font-family="Times Roman,serif" font-size="14.00">node_18</text>
</g>
<!-- 18_0&#45;&#45;node_18 -->
<g id="edge70" class="edge"><title>18_0&#45;&#45;node_18</title>
<path fill="none" stroke="black" stroke-width="2" d="M363.593,-358.296C344.483,-365.667 318.733,-375.6 298.015,-383.592"/>
</g>
<!-- 9_0 -->
<g id="node19" class="node"><title>9_0</title>
<polygon fill="none" stroke="black" points="659.403,-780.692 605.403,-780.692 605.403,-744.692 659.403,-744.692 659.403,-780.692"/>
<text text-anchor="middle" x="632.403" y="-758.592" font-family="Times Roman,serif" font-size="14.00">9_0</text>
</g>
<!-- 4_0 -->
<g id="node22" class="node"><title>4_0</title>
<polygon fill="none" stroke="black" points="745.636,-712.339 691.636,-712.339 691.636,-676.339 745.636,-676.339 745.636,-712.339"/>
<text text-anchor="middle" x="718.636" y="-690.239" font-family="Times Roman,serif" font-size="14.00">4_0</text>
</g>
<!-- 9_0&#45;&#45;4_0 -->
<g id="edge72" class="edge"><title>9_0&#45;&#45;4_0</title>
<path fill="none" stroke="grey" stroke-width="5" stroke-dasharray="1,5" d="M655.512,-744.374C667.984,-734.488 683.326,-722.327 695.762,-712.47"/>
</g>
<!-- node_9 -->
<g id="node26" class="node"><title>node_9</title>
<ellipse fill="none" stroke="black" cx="525.115" cy="-728.241" rx="46.0565" ry="18"/>
<text text-anchor="middle" x="525.115" y="-724.141" font-family="Times Roman,serif" font-size="14.00">node_9</text>
</g>
<!-- 9_0&#45;&#45;node_9 -->
<g id="edge74" class="edge"><title>9_0&#45;&#45;node_9</title>
<path fill="none" stroke="black" stroke-width="2" d="M605.33,-753.998C591.797,-749.653 575.246,-744.338 560.701,-739.668"/>
</g>
<!-- 5_0&#45;&#45;4_0 -->
<g id="edge76" class="edge"><title>5_0&#45;&#45;4_0</title>
<path fill="none" stroke="grey" stroke-width="5" stroke-dasharray="1,5" d="M751.099,-615.644C743.951,-632.973 733.26,-658.888 726.123,-676.19"/>
</g>
<!-- node_5 -->
<g id="node30" class="node"><title>node_5</title>
<ellipse fill="none" stroke="black" cx="869.31" cy="-647.389" rx="46.0565" ry="18"/>
<text text-anchor="middle" x="869.31" y="-643.289" font-family="Times Roman,serif" font-size="14.00">node_5</text>
</g>
<!-- 5_0&#45;&#45;node_5 -->
<g id="edge78" class="edge"><title>5_0&#45;&#45;node_5</title>
<path fill="none" stroke="black" stroke-width="2" d="M785.698,-609.638C801.827,-616.92 822.334,-626.179 839.002,-633.705"/>
</g>
<!-- 11_1 -->
<g id="node21" class="node"><title>11_1</title>
<polygon fill="none" stroke="black" points="380.038,-811.295 326.038,-811.295 326.038,-775.295 380.038,-775.295 380.038,-811.295"/>
<text text-anchor="middle" x="353.038" y="-789.195" font-family="Times Roman,serif" font-size="14.00">11_1</text>
</g>
<!-- 14_0 -->
<g id="node24" class="node"><title>14_0</title>
<polygon fill="none" stroke="black" points="422.955,-908.365 368.955,-908.365 368.955,-872.365 422.955,-872.365 422.955,-908.365"/>
<text text-anchor="middle" x="395.955" y="-886.265" font-family="Times Roman,serif" font-size="14.00">14_0</text>
</g>
<!-- 11_1&#45;&#45;14_0 -->
<g id="edge80" class="edge"><title>11_1&#45;&#45;14_0</title>
<path fill="none" stroke="grey" stroke-width="5" stroke-dasharray="1,5" d="M361.111,-811.553C368.784,-828.907 380.258,-854.861 387.919,-872.188"/>
</g>
<!-- 15_0 -->
<g id="node41" class="node"><title>15_0</title>
<polygon fill="none" stroke="black" points="295.747,-875.11 241.747,-875.11 241.747,-839.11 295.747,-839.11 295.747,-875.11"/>
<text text-anchor="middle" x="268.747" y="-853.01" font-family="Times Roman,serif" font-size="14.00">15_0</text>
</g>
<!-- 11_1&#45;&#45;15_0 -->
<g id="edge82" class="edge"><title>11_1&#45;&#45;15_0</title>
<path fill="none" stroke="grey" stroke-width="5" stroke-dasharray="1,5" d="M329.109,-811.411C317.72,-820.033 304.133,-830.32 292.736,-838.948"/>
</g>
<!-- node_11 -->
<g id="node46" class="node"><title>node_11</title>
<ellipse fill="none" stroke="black" cx="422.097" cy="-642.706" rx="52.8111" ry="18"/>
<text text-anchor="middle" x="422.097" y="-638.606" font-family="Times Roman,serif" font-size="14.00">node_11</text>
</g>
<!-- 11_1&#45;&#45;node_11 -->
<g id="edge84" class="edge"><title>11_1&#45;&#45;node_11</title>
<path fill="none" stroke="black" stroke-width="2" d="M361.369,-775.13C374.642,-746.187 400.445,-689.92 413.737,-660.935"/>
</g>
<!-- node_4 -->
<g id="node31" class="node"><title>node_4</title>
<ellipse fill="none" stroke="black" cx="741.984" cy="-821.562" rx="46.0565" ry="18"/>
<text text-anchor="middle" x="741.984" y="-817.462" font-family="Times Roman,serif" font-size="14.00">node_4</text>
</g>
<!-- 4_0&#45;&#45;node_4 -->
<g id="edge86" class="edge"><title>4_0&#45;&#45;node_4</title>
<path fill="none" stroke="black" stroke-width="2" d="M721.981,-712.567C726.42,-736.752 734.21,-779.2 738.645,-803.368"/>
</g>
<!-- 11_0&#45;&#45;node_11 -->
<g id="edge88" class="edge"><title>11_0&#45;&#45;node_11</title>
<path fill="none" stroke="black" stroke-width="2" d="M486.401,-547.509C472.02,-568.8 448.382,-603.794 434.123,-624.903"/>
</g>
<!-- node_14 -->
<g id="node43" class="node"><title>node_14</title>
<ellipse fill="none" stroke="black" cx="507.113" cy="-980.587" rx="52.8111" ry="18"/>
<text text-anchor="middle" x="507.113" y="-976.487" font-family="Times Roman,serif" font-size="14.00">node_14</text>
</g>
<!-- 14_0&#45;&#45;node_14 -->
<g id="edge90" class="edge"><title>14_0&#45;&#45;node_14</title>
<path fill="none" stroke="black" stroke-width="2" d="M418.182,-908.406C438.076,-924.553 467.017,-948.043 486.426,-963.796"/>
</g>
<!-- 14_1 -->
<g id="node25" class="node"><title>14_1</title>
<polygon fill="none" stroke="black" points="665.641,-1000 611.641,-1000 611.641,-964.005 665.641,-964.005 665.641,-1000"/>
<text text-anchor="middle" x="638.641" y="-977.905" font-family="Times Roman,serif" font-size="14.00">14_1</text>
</g>
<!-- 14_1&#45;&#45;4_1 -->
<g id="edge92" class="edge"><title>14_1&#45;&#45;4_1</title>
<path fill="none" stroke="grey" stroke-width="5" stroke-dasharray="1,5" d="M665.862,-971.277C680.701,-965.429 699.017,-958.212 713.876,-952.356"/>
</g>
<!-- 14_1&#45;&#45;node_14 -->
<g id="edge94" class="edge"><title>14_1&#45;&#45;node_14</title>
<path fill="none" stroke="black" stroke-width="2" d="M611.388,-981.711C596.565,-981.551 577.711,-981.348 560.123,-981.158"/>
</g>
<!-- node_4&#45;&#45;4_1 -->
<g id="edge96" class="edge"><title>node_4&#45;&#45;4_1</title>
<path fill="none" stroke="black" stroke-width="2" d="M741.869,-839.79C741.725,-862.479 741.481,-900.987 741.338,-923.572"/>
</g>
<!-- node_19 -->
<g id="node38" class="node"><title>node_19</title>
<ellipse fill="none" stroke="black" cx="397.627" cy="-437.159" rx="52.8111" ry="18"/>
<text text-anchor="middle" x="397.627" y="-433.059" font-family="Times Roman,serif" font-size="14.00">node_19</text>
</g>
<!-- 19_0&#45;&#45;node_19 -->
<g id="edge98" class="edge"><title>19_0&#45;&#45;node_19</title>
<path fill="none" stroke="black" stroke-width="2" d="M478.806,-390.163C462.28,-399.73 441.214,-411.926 424.683,-421.496"/>
</g>
<!-- node_15 -->
<g id="node42" class="node"><title>node_15</title>
<ellipse fill="none" stroke="black" cx="164.672" cy="-948.227" rx="52.8111" ry="18"/>
<text text-anchor="middle" x="164.672" y="-944.127" font-family="Times Roman,serif" font-size="14.00">node_15</text>
</g>
<!-- 15_0&#45;&#45;node_15 -->
<g id="edge100" class="edge"><title>15_0&#45;&#45;node_15</title>
<path fill="none" stroke="black" stroke-width="2" d="M248.185,-875.112C229.584,-891.397 202.388,-915.207 184.136,-931.187"/>
</g>
</g>
</svg>
