<?xml version="1.0" encoding="UTF-8" standalone="no"?>
<!DOCTYPE svg PUBLIC "-//W3C//DTD SVG 1.1//EN"
 "http://www.w3.org/Graphics/SVG/1.1/DTD/svg11.dtd">
<!-- Generated by graphviz version 2.26.3 (20100126.1600)
 -->
<!-- Title: G Pages: 1 -->
<svg width="1371pt" height="904pt"
 viewBox="0.00 0.00 1371.00 904.00" xmlns="http://www.w3.org/2000/svg" xmlns:xlink="http://www.w3.org/1999/xlink">
<g id="graph1" class="graph" transform="scale(1 1) rotate(0) translate(4 900)">
<title>G</title>
<polygon fill="white" stroke="white" points="-4,5 -4,-900 1368,-900 1368,5 -4,5"/>
<!-- 12_0 -->
<g id="node1" class="node"><title>12_0</title>
<polygon fill="none" stroke="black" points="1056.63,-185.618 1002.63,-185.618 1002.63,-149.618 1056.63,-149.618 1056.63,-185.618"/>
<text text-anchor="middle" x="1029.63" y="-163.518" font-family="Times Roman,serif" font-size="14.00">12_0</text>
</g>
<!-- 10_0 -->
<g id="node3" class="node"><title>10_0</title>
<polygon fill="none" stroke="black" points="1021.75,-344.857 967.747,-344.857 967.747,-308.857 1021.75,-308.857 1021.75,-344.857"/>
<text text-anchor="middle" x="994.747" y="-322.757" font-family="Times Roman,serif" font-size="14.00">10_0</text>
</g>
<!-- 12_0&#45;&#45;10_0 -->
<g id="edge4" class="edge"><title>12_0&#45;&#45;10_0</title>
<path fill="none" stroke="grey" stroke-width="5" stroke-dasharray="1,5" d="M1025.63,-185.885C1018.9,-216.601 1005.4,-278.23 998.702,-308.803"/>
</g>
<!-- node_12 -->
<g id="node45" class="node"><title>node_12</title>
<ellipse fill="none" stroke="black" cx="1097.61" cy="-18.6889" rx="52.8111" ry="18"/>
<text text-anchor="middle" x="1097.61" y="-14.5889" font-family="Times Roman,serif" font-size="14.00">node_12</text>
</g>
<!-- 12_0&#45;&#45;node_12 -->
<g id="edge2" class="edge"><title>12_0&#45;&#45;node_12</title>
<path fill="none" stroke="black" stroke-width="2" d="M1037.97,-149.356C1051.08,-120.617 1076.39,-65.1765 1089.42,-36.6347"/>
</g>
<!-- 6_0 -->
<g id="node2" class="node"><title>6_0</title>
<polygon fill="none" stroke="black" points="1179.35,-301.932 1125.35,-301.932 1125.35,-265.932 1179.35,-265.932 1179.35,-301.932"/>
<text text-anchor="middle" x="1152.35" y="-279.832" font-family="Times Roman,serif" font-size="14.00">6_0</text>
</g>
<!-- 0_1 -->
<g id="node10" class="node"><title>0_1</title>
<polygon fill="none" stroke="black" points="1067.14,-427.749 1013.14,-427.749 1013.14,-391.749 1067.14,-391.749 1067.14,-427.749"/>
<text text-anchor="middle" x="1040.14" y="-405.649" font-family="Times Roman,serif" font-size="14.00">0_1</text>
</g>
<!-- 6_0&#45;&#45;0_1 -->
<g id="edge8" class="edge"><title>6_0&#45;&#45;0_1</title>
<path fill="none" stroke="grey" stroke-width="5" stroke-dasharray="1,5" d="M1136.28,-301.958C1115.07,-325.74 1077.93,-367.379 1056.56,-391.347"/>
</g>
<!-- node_6 -->
<g id="node29" class="node"><title>node_6</title>
<ellipse fill="none" stroke="black" cx="1280.45" cy="-193.098" rx="46.0565" ry="18"/>
<text text-anchor="middle" x="1280.45" y="-188.998" font-family="Times Roman,serif" font-size="14.00">node_6</text>
</g>
<!-- 6_0&#45;&#45;node_6 -->
<g id="edge6" class="edge"><title>6_0&#45;&#45;node_6</title>
<path fill="none" stroke="black" stroke-width="2" d="M1177.97,-265.768C1201.33,-249.201 1235.52,-224.956 1257.88,-209.102"/>
</g>
<!-- 7_0 -->
<g id="node8" class="node"><title>7_0</title>
<polygon fill="none" stroke="black" points="1185.22,-355.46 1131.22,-355.46 1131.22,-319.46 1185.22,-319.46 1185.22,-355.46"/>
<text text-anchor="middle" x="1158.22" y="-333.36" font-family="Times Roman,serif" font-size="14.00">7_0</text>
</g>
<!-- 10_0&#45;&#45;7_0 -->
<g id="edge14" class="edge"><title>10_0&#45;&#45;7_0</title>
<path fill="none" stroke="grey" stroke-width="5" stroke-dasharray="1,5" d="M1022.11,-328.632C1052.38,-330.595 1100.85,-333.739 1131.04,-335.698"/>
</g>
<!-- 3_0 -->
<g id="node12" class="node"><title>3_0</title>
<polygon fill="none" stroke="black" points="980.774,-539.327 926.774,-539.327 926.774,-503.327 980.774,-503.327 980.774,-539.327"/>
<text text-anchor="middle" x="953.774" y="-517.227" font-family="Times Roman,serif" font-size="14.00">3_0</text>
</g>
<!-- 10_0&#45;&#45;3_0 -->
<g id="edge10" class="edge"><title>10_0&#45;&#45;3_0</title>
<path fill="none" stroke="grey" stroke-width="5" stroke-dasharray="1,5" d="M990.892,-345.152C983.063,-382.311 965.384,-466.223 957.588,-503.222"/>
</g>
<!-- 19_0 -->
<g id="node36" class="node"><title>19_0</title>
<polygon fill="none" stroke="black" points="867.844,-260.225 813.844,-260.225 813.844,-224.225 867.844,-224.225 867.844,-260.225"/>
<text text-anchor="middle" x="840.844" y="-238.125" font-family="Times Roman,serif" font-size="14.00">19_0</text>
</g>
<!-- 10_0&#45;&#45;19_0 -->
<g id="edge16" class="edge"><title>10_0&#45;&#45;19_0</title>
<path fill="none" stroke="grey" stroke-width="5" stroke-dasharray="1,5" d="M967.586,-311.921C939.541,-296.499 896.032,-272.573 867.991,-257.153"/>
</g>
<!-- node_10 -->
<g id="node47" class="node"><title>node_10</title>
<ellipse fill="none" stroke="black" cx="1123.97" cy="-217.434" rx="52.8111" ry="18"/>
<text text-anchor="middle" x="1123.97" y="-213.334" font-family="Times Roman,serif" font-size="14.00">node_10</text>
</g>
<!-- 10_0&#45;&#45;node_10 -->
<g id="edge12" class="edge"><title>10_0&#45;&#45;node_10</title>
<path fill="none" stroke="black" stroke-width="2" d="M1016.09,-308.788C1040.46,-288.15 1080.04,-254.636 1103.88,-234.449"/>
</g>
<!-- 13_1 -->
<g id="node4" class="node"><title>13_1</title>
<polygon fill="none" stroke="black" points="941.398,-644.963 887.398,-644.963 887.398,-608.963 941.398,-608.963 941.398,-644.963"/>
<text text-anchor="middle" x="914.398" y="-622.863" font-family="Times Roman,serif" font-size="14.00">13_1</text>
</g>
<!-- 1_0 -->
<g id="node7" class="node"><title>1_0</title>
<polygon fill="none" stroke="black" points="889.958,-499.419 835.958,-499.419 835.958,-463.419 889.958,-463.419 889.958,-499.419"/>
<text text-anchor="middle" x="862.958" y="-477.319" font-family="Times Roman,serif" font-size="14.00">1_0</text>
</g>
<!-- 13_1&#45;&#45;1_0 -->
<g id="edge20" class="edge"><title>13_1&#45;&#45;1_0</title>
<path fill="none" stroke="grey" stroke-width="5" stroke-dasharray="1,5" d="M907.988,-608.824C898.13,-580.934 879.356,-527.814 869.45,-499.786"/>
</g>
<!-- node_13 -->
<g id="node44" class="node"><title>node_13</title>
<ellipse fill="none" stroke="black" cx="957.263" cy="-802.393" rx="52.8111" ry="18"/>
<text text-anchor="middle" x="957.263" y="-798.293" font-family="Times Roman,serif" font-size="14.00">node_13</text>
</g>
<!-- 13_1&#45;&#45;node_13 -->
<g id="edge18" class="edge"><title>13_1&#45;&#45;node_13</title>
<path fill="none" stroke="black" stroke-width="2" d="M918.824,-645.076C927.059,-678.78 944.644,-750.749 952.861,-784.378"/>
</g>
<!-- 13_0 -->
<g id="node5" class="node"><title>13_0</title>
<polygon fill="none" stroke="black" points="860.207,-782.049 806.207,-782.049 806.207,-746.049 860.207,-746.049 860.207,-782.049"/>
<text text-anchor="middle" x="833.207" y="-759.949" font-family="Times Roman,serif" font-size="14.00">13_0</text>
</g>
<!-- 5_0 -->
<g id="node20" class="node"><title>5_0</title>
<polygon fill="none" stroke="black" points="774.707,-743.25 720.707,-743.25 720.707,-707.25 774.707,-707.25 774.707,-743.25"/>
<text text-anchor="middle" x="747.707" y="-721.15" font-family="Times Roman,serif" font-size="14.00">5_0</text>
</g>
<!-- 13_0&#45;&#45;5_0 -->
<g id="edge22" class="edge"><title>13_0&#45;&#45;5_0</title>
<path fill="none" stroke="grey" stroke-width="5" stroke-dasharray="1,5" d="M806.154,-751.773C796.174,-747.244 784.868,-742.113 774.877,-737.579"/>
</g>
<!-- 0_0 -->
<g id="node21" class="node"><title>0_0</title>
<polygon fill="none" stroke="black" points="859.753,-649.952 805.753,-649.952 805.753,-613.952 859.753,-613.952 859.753,-649.952"/>
<text text-anchor="middle" x="832.753" y="-627.852" font-family="Times Roman,serif" font-size="14.00">0_0</text>
</g>
<!-- 13_0&#45;&#45;0_0 -->
<g id="edge26" class="edge"><title>13_0&#45;&#45;0_0</title>
<path fill="none" stroke="grey" stroke-width="5" stroke-dasharray="1,5" d="M833.145,-745.958C833.058,-720.803 832.903,-675.512 832.816,-650.248"/>
</g>
<!-- 13_0&#45;&#45;node_13 -->
<g id="edge24" class="edge"><title>13_0&#45;&#45;node_13</title>
<path fill="none" stroke="black" stroke-width="2" d="M860.432,-772.464C877.264,-777.666 899.152,-784.432 917.859,-790.214"/>
</g>
<!-- 8_0 -->
<g id="node6" class="node"><title>8_0</title>
<polygon fill="none" stroke="black" points="1001.38,-689.739 947.382,-689.739 947.382,-653.739 1001.38,-653.739 1001.38,-689.739"/>
<text text-anchor="middle" x="974.382" y="-667.639" font-family="Times Roman,serif" font-size="14.00">8_0</text>
</g>
<!-- 8_0&#45;&#45;3_0 -->
<g id="edge28" class="edge"><title>8_0&#45;&#45;3_0</title>
<path fill="none" stroke="grey" stroke-width="5" stroke-dasharray="1,5" d="M971.897,-653.596C967.935,-624.686 960.235,-568.484 956.268,-539.534"/>
</g>
<!-- 8_0&#45;&#45;0_0 -->
<g id="edge30" class="edge"><title>8_0&#45;&#45;0_0</title>
<path fill="none" stroke="grey" stroke-width="5" stroke-dasharray="1,5" d="M947.075,-664.067C921.995,-657.022 885.029,-646.637 859.977,-639.599"/>
</g>
<!-- node_8 -->
<g id="node27" class="node"><title>node_8</title>
<ellipse fill="none" stroke="black" cx="1088.07" cy="-796.667" rx="46.0565" ry="18"/>
<text text-anchor="middle" x="1088.07" y="-792.567" font-family="Times Roman,serif" font-size="14.00">node_8</text>
</g>
<!-- 8_0&#45;&#45;node_8 -->
<g id="edge32" class="edge"><title>8_0&#45;&#45;node_8</title>
<path fill="none" stroke="black" stroke-width="2" d="M990.913,-689.904C1012.84,-713.996 1051.24,-756.201 1072.61,-779.682"/>
</g>
<!-- 1_0&#45;&#45;0_1 -->
<g id="edge40" class="edge"><title>1_0&#45;&#45;0_1</title>
<path fill="none" stroke="grey" stroke-width="5" stroke-dasharray="1,5" d="M890.255,-470.378C923.649,-456.87 979.832,-434.145 1013.11,-420.686"/>
</g>
<!-- 2_1 -->
<g id="node16" class="node"><title>2_1</title>
<polygon fill="none" stroke="black" points="765.771,-417.971 711.771,-417.971 711.771,-381.971 765.771,-381.971 765.771,-417.971"/>
<text text-anchor="middle" x="738.771" y="-395.871" font-family="Times Roman,serif" font-size="14.00">2_1</text>
</g>
<!-- 1_0&#45;&#45;2_1 -->
<g id="edge34" class="edge"><title>1_0&#45;&#45;2_1</title>
<path fill="none" stroke="grey" stroke-width="5" stroke-dasharray="1,5" d="M835.705,-463.545C814.999,-449.965 786.651,-431.373 765.961,-417.803"/>
</g>
<!-- 1_0&#45;&#45;0_0 -->
<g id="edge38" class="edge"><title>1_0&#45;&#45;0_0</title>
<path fill="none" stroke="grey" stroke-width="5" stroke-dasharray="1,5" d="M859.315,-499.577C853.509,-528.51 842.223,-584.756 836.409,-613.729"/>
</g>
<!-- node_1 -->
<g id="node34" class="node"><title>node_1</title>
<ellipse fill="none" stroke="black" cx="882.973" cy="-336.596" rx="46.0565" ry="18"/>
<text text-anchor="middle" x="882.973" y="-332.496" font-family="Times Roman,serif" font-size="14.00">node_1</text>
</g>
<!-- 1_0&#45;&#45;node_1 -->
<g id="edge36" class="edge"><title>1_0&#45;&#45;node_1</title>
<path fill="none" stroke="black" stroke-width="2" d="M865.453,-463.37C869.288,-435.618 876.593,-382.761 880.447,-354.873"/>
</g>
<!-- node_7 -->
<g id="node28" class="node"><title>node_7</title>
<ellipse fill="none" stroke="black" cx="1315.28" cy="-301.112" rx="46.0565" ry="18"/>
<text text-anchor="middle" x="1315.28" y="-297.012" font-family="Times Roman,serif" font-size="14.00">node_7</text>
</g>
<!-- 7_0&#45;&#45;node_7 -->
<g id="edge42" class="edge"><title>7_0&#45;&#45;node_7</title>
<path fill="none" stroke="black" stroke-width="2" d="M1185.22,-331.212C1210.04,-325.467 1247.16,-316.877 1275.4,-310.342"/>
</g>
<!-- 11_1 -->
<g id="node9" class="node"><title>11_1</title>
<polygon fill="none" stroke="black" points="393.878,-481.411 339.878,-481.411 339.878,-445.411 393.878,-445.411 393.878,-481.411"/>
<text text-anchor="middle" x="366.878" y="-459.311" font-family="Times Roman,serif" font-size="14.00">11_1</text>
</g>
<!-- 17_0 -->
<g id="node17" class="node"><title>17_0</title>
<polygon fill="none" stroke="black" points="534.302,-378.599 480.302,-378.599 480.302,-342.599 534.302,-342.599 534.302,-378.599"/>
<text text-anchor="middle" x="507.302" y="-356.499" font-family="Times Roman,serif" font-size="14.00">17_0</text>
</g>
<!-- 11_1&#45;&#45;17_0 -->
<g id="edge48" class="edge"><title>11_1&#45;&#45;17_0</title>
<path fill="none" stroke="grey" stroke-width="5" stroke-dasharray="1,5" d="M391.66,-445.267C417.171,-426.589 456.703,-397.645 482.296,-378.907"/>
</g>
<!-- 14_0 -->
<g id="node30" class="node"><title>14_0</title>
<polygon fill="none" stroke="black" points="357.905,-435.059 303.905,-435.059 303.905,-399.059 357.905,-399.059 357.905,-435.059"/>
<text text-anchor="middle" x="330.905" y="-412.959" font-family="Times Roman,serif" font-size="14.00">14_0</text>
</g>
<!-- 11_1&#45;&#45;14_0 -->
<g id="edge44" class="edge"><title>11_1&#45;&#45;14_0</title>
<path fill="none" stroke="grey" stroke-width="5" stroke-dasharray="1,5" d="M352.867,-445.357C350.263,-442.002 347.542,-438.495 344.937,-435.139"/>
</g>
<!-- 15_0 -->
<g id="node41" class="node"><title>15_0</title>
<polygon fill="none" stroke="black" points="247.19,-479.987 193.19,-479.987 193.19,-443.987 247.19,-443.987 247.19,-479.987"/>
<text text-anchor="middle" x="220.19" y="-457.887" font-family="Times Roman,serif" font-size="14.00">15_0</text>
</g>
<!-- 11_1&#45;&#45;15_0 -->
<g id="edge46" class="edge"><title>11_1&#45;&#45;15_0</title>
<path fill="none" stroke="grey" stroke-width="5" stroke-dasharray="1,5" d="M339.631,-463.146C313.284,-462.89 273.589,-462.505 247.291,-462.25"/>
</g>
<!-- node_11 -->
<g id="node46" class="node"><title>node_11</title>
<ellipse fill="none" stroke="black" cx="480.44" cy="-608.472" rx="52.8111" ry="18"/>
<text text-anchor="middle" x="480.44" y="-604.372" font-family="Times Roman,serif" font-size="14.00">node_11</text>
</g>
<!-- 11_1&#45;&#45;node_11 -->
<g id="edge50" class="edge"><title>11_1&#45;&#45;node_11</title>
<path fill="none" stroke="black" stroke-width="2" d="M381.031,-481.49C403.031,-509.591 445.148,-563.391 466.818,-591.072"/>
</g>
<!-- 16_1 -->
<g id="node14" class="node"><title>16_1</title>
<polygon fill="none" stroke="black" points="1201.94,-479.97 1147.94,-479.97 1147.94,-443.97 1201.94,-443.97 1201.94,-479.97"/>
<text text-anchor="middle" x="1174.94" y="-457.87" font-family="Times Roman,serif" font-size="14.00">16_1</text>
</g>
<!-- 0_1&#45;&#45;16_1 -->
<g id="edge54" class="edge"><title>0_1&#45;&#45;16_1</title>
<path fill="none" stroke="grey" stroke-width="5" stroke-dasharray="1,5" d="M1067.42,-420.317C1090.81,-429.377 1124.33,-442.363 1147.7,-451.418"/>
</g>
<!-- node_0 -->
<g id="node35" class="node"><title>node_0</title>
<ellipse fill="none" stroke="black" cx="957.876" cy="-475.463" rx="46.0565" ry="18"/>
<text text-anchor="middle" x="957.876" y="-471.363" font-family="Times Roman,serif" font-size="14.00">node_0</text>
</g>
<!-- 0_1&#45;&#45;node_0 -->
<g id="edge52" class="edge"><title>0_1&#45;&#45;node_0</title>
<path fill="none" stroke="black" stroke-width="2" d="M1017.23,-428.054C1004.96,-437.852 989.987,-449.814 978.148,-459.271"/>
</g>
<!-- 3_1 -->
<g id="node11" class="node"><title>3_1</title>
<polygon fill="none" stroke="black" points="959.345,-738.408 905.345,-738.408 905.345,-702.408 959.345,-702.408 959.345,-738.408"/>
<text text-anchor="middle" x="932.345" y="-716.308" font-family="Times Roman,serif" font-size="14.00">3_1</text>
</g>
<!-- 3_1&#45;&#45;0_0 -->
<g id="edge58" class="edge"><title>3_1&#45;&#45;0_0</title>
<path fill="none" stroke="grey" stroke-width="5" stroke-dasharray="1,5" d="M911.709,-702.08C894.503,-686.797 870.124,-665.145 853.021,-649.954"/>
</g>
<!-- node_3 -->
<g id="node32" class="node"><title>node_3</title>
<ellipse fill="none" stroke="black" cx="1059.03" cy="-643.274" rx="46.0565" ry="18"/>
<text text-anchor="middle" x="1059.03" y="-639.174" font-family="Times Roman,serif" font-size="14.00">node_3</text>
</g>
<!-- 3_1&#45;&#45;node_3 -->
<g id="edge56" class="edge"><title>3_1&#45;&#45;node_3</title>
<path fill="none" stroke="black" stroke-width="2" d="M959.522,-703.861C981.624,-690.404 1012.56,-671.568 1034.05,-658.484"/>
</g>
<!-- 3_0&#45;&#45;0_0 -->
<g id="edge60" class="edge"><title>3_0&#45;&#45;0_0</title>
<path fill="none" stroke="grey" stroke-width="5" stroke-dasharray="1,5" d="M934.06,-539.347C911.556,-559.918 874.959,-593.371 852.458,-613.939"/>
</g>
<!-- 3_0&#45;&#45;node_3 -->
<g id="edge64" class="edge"><title>3_0&#45;&#45;node_3</title>
<path fill="none" stroke="black" stroke-width="2" d="M969.532,-539.583C989.719,-562.972 1024.45,-603.211 1044.19,-626.077"/>
</g>
<!-- 4_1 -->
<g id="node37" class="node"><title>4_1</title>
<polygon fill="none" stroke="black" points="848.094,-593.832 794.094,-593.832 794.094,-557.832 848.094,-557.832 848.094,-593.832"/>
<text text-anchor="middle" x="821.094" y="-571.732" font-family="Times Roman,serif" font-size="14.00">4_1</text>
</g>
<!-- 3_0&#45;&#45;4_1 -->
<g id="edge62" class="edge"><title>3_0&#45;&#45;4_1</title>
<path fill="none" stroke="grey" stroke-width="5" stroke-dasharray="1,5" d="M926.604,-532.488C903.708,-541.894 871.113,-555.284 848.228,-564.686"/>
</g>
<!-- 16_0 -->
<g id="node13" class="node"><title>16_0</title>
<polygon fill="none" stroke="black" points="1014.89,-615.229 960.894,-615.229 960.894,-579.229 1014.89,-579.229 1014.89,-615.229"/>
<text text-anchor="middle" x="987.894" y="-593.129" font-family="Times Roman,serif" font-size="14.00">16_0</text>
</g>
<!-- 16_0&#45;&#45;4_1 -->
<g id="edge68" class="edge"><title>16_0&#45;&#45;4_1</title>
<path fill="none" stroke="grey" stroke-width="5" stroke-dasharray="1,5" d="M960.723,-593.744C929.706,-589.765 879.265,-583.295 848.253,-579.316"/>
</g>
<!-- node_16 -->
<g id="node48" class="node"><title>node_16</title>
<ellipse fill="none" stroke="black" cx="1150.59" cy="-598.119" rx="52.8111" ry="18"/>
<text text-anchor="middle" x="1150.59" y="-594.019" font-family="Times Roman,serif" font-size="14.00">node_16</text>
</g>
<!-- 16_0&#45;&#45;node_16 -->
<g id="edge66" class="edge"><title>16_0&#45;&#45;node_16</title>
<path fill="none" stroke="black" stroke-width="2" d="M1015.13,-597.378C1037.56,-597.501 1070.04,-597.679 1097.58,-597.829"/>
</g>
<!-- 16_1&#45;&#45;node_16 -->
<g id="edge70" class="edge"><title>16_1&#45;&#45;node_16</title>
<path fill="none" stroke="black" stroke-width="2" d="M1171.7,-480.049C1167.05,-506.09 1158.5,-553.883 1153.83,-579.965"/>
</g>
<!-- 2_0 -->
<g id="node15" class="node"><title>2_0</title>
<polygon fill="none" stroke="black" points="609.351,-511.831 555.351,-511.831 555.351,-475.831 609.351,-475.831 609.351,-511.831"/>
<text text-anchor="middle" x="582.351" y="-489.731" font-family="Times Roman,serif" font-size="14.00">2_0</text>
</g>
<!-- 2_0&#45;&#45;17_0 -->
<g id="edge74" class="edge"><title>2_0&#45;&#45;17_0</title>
<path fill="none" stroke="grey" stroke-width="5" stroke-dasharray="1,5" d="M572.073,-475.585C557.702,-450.071 531.761,-404.019 517.456,-378.624"/>
</g>
<!-- 4_0 -->
<g id="node22" class="node"><title>4_0</title>
<polygon fill="none" stroke="black" points="683.028,-650.697 629.028,-650.697 629.028,-614.697 683.028,-614.697 683.028,-650.697"/>
<text text-anchor="middle" x="656.028" y="-628.597" font-family="Times Roman,serif" font-size="14.00">4_0</text>
</g>
<!-- 2_0&#45;&#45;4_0 -->
<g id="edge72" class="edge"><title>2_0&#45;&#45;4_0</title>
<path fill="none" stroke="grey" stroke-width="5" stroke-dasharray="1,5" d="M591.983,-511.985C606.103,-538.599 632.272,-587.922 646.394,-614.538"/>
</g>
<!-- node_2 -->
<g id="node33" class="node"><title>node_2</title>
<ellipse fill="none" stroke="black" cx="599.262" cy="-358.584" rx="46.0565" ry="18"/>
<text text-anchor="middle" x="599.262" y="-354.484" font-family="Times Roman,serif" font-size="14.00">node_2</text>
</g>
<!-- 2_0&#45;&#45;node_2 -->
<g id="edge76" class="edge"><title>2_0&#45;&#45;node_2</title>
<path fill="none" stroke="black" stroke-width="2" d="M584.632,-475.591C587.86,-449.778 593.727,-402.858 596.964,-376.967"/>
</g>
<!-- 18_0 -->
<g id="node18" class="node"><title>18_0</title>
<polygon fill="none" stroke="black" points="686.869,-296.445 632.869,-296.445 632.869,-260.445 686.869,-260.445 686.869,-296.445"/>
<text text-anchor="middle" x="659.869" y="-274.345" font-family="Times Roman,serif" font-size="14.00">18_0</text>
</g>
<!-- 2_1&#45;&#45;18_0 -->
<g id="edge82" class="edge"><title>2_1&#45;&#45;18_0</title>
<path fill="none" stroke="grey" stroke-width="5" stroke-dasharray="1,5" d="M726.959,-381.777C712.084,-358.867 686.675,-319.732 671.762,-296.763"/>
</g>
<!-- 14_1 -->
<g id="node31" class="node"><title>14_1</title>
<polygon fill="none" stroke="black" points="705.044,-522.843 651.044,-522.843 651.044,-486.843 705.044,-486.843 705.044,-522.843"/>
<text text-anchor="middle" x="678.044" y="-500.743" font-family="Times Roman,serif" font-size="14.00">14_1</text>
</g>
<!-- 2_1&#45;&#45;14_1 -->
<g id="edge78" class="edge"><title>2_1&#45;&#45;14_1</title>
<path fill="none" stroke="grey" stroke-width="5" stroke-dasharray="1,5" d="M728.194,-418.238C717.047,-437.487 699.601,-467.616 688.501,-486.785"/>
</g>
<!-- 2_1&#45;&#45;node_2 -->
<g id="edge80" class="edge"><title>2_1&#45;&#45;node_2</title>
<path fill="none" stroke="black" stroke-width="2" d="M711.542,-391.893C689.973,-385.494 659.633,-376.494 635.928,-369.461"/>
</g>
<!-- 17_0&#45;&#45;18_0 -->
<g id="edge86" class="edge"><title>17_0&#45;&#45;18_0</title>
<path fill="none" stroke="grey" stroke-width="5" stroke-dasharray="1,5" d="M534.578,-345.911C562.348,-330.958 605.145,-307.913 632.829,-293.005"/>
</g>
<!-- node_17 -->
<g id="node40" class="node"><title>node_17</title>
<ellipse fill="none" stroke="black" cx="378.767" cy="-254.161" rx="52.8111" ry="18"/>
<text text-anchor="middle" x="378.767" y="-250.061" font-family="Times Roman,serif" font-size="14.00">node_17</text>
</g>
<!-- 17_0&#45;&#45;node_17 -->
<g id="edge84" class="edge"><title>17_0&#45;&#45;node_17</title>
<path fill="none" stroke="black" stroke-width="2" d="M485.498,-342.543C461.289,-322.496 422.529,-290.399 398.981,-270.899"/>
</g>
<!-- 18_0&#45;&#45;19_0 -->
<g id="edge90" class="edge"><title>18_0&#45;&#45;19_0</title>
<path fill="none" stroke="grey" stroke-width="5" stroke-dasharray="1,5" d="M686.963,-273.022C721.08,-266.194 779.36,-254.53 813.565,-247.684"/>
</g>
<!-- node_18 -->
<g id="node39" class="node"><title>node_18</title>
<ellipse fill="none" stroke="black" cx="594.471" cy="-129.973" rx="52.8111" ry="18"/>
<text text-anchor="middle" x="594.471" y="-125.873" font-family="Times Roman,serif" font-size="14.00">node_18</text>
</g>
<!-- 18_0&#45;&#45;node_18 -->
<g id="edge88" class="edge"><title>18_0&#45;&#45;node_18</title>
<path fill="none" stroke="black" stroke-width="2" d="M651.85,-260.239C639.23,-231.589 614.885,-176.318 602.351,-147.864"/>
</g>
<!-- 9_0 -->
<g id="node19" class="node"><title>9_0</title>
<polygon fill="none" stroke="black" points="566.513,-778.867 512.513,-778.867 512.513,-742.867 566.513,-742.867 566.513,-778.867"/>
<text text-anchor="middle" x="539.513" y="-756.767" font-family="Times Roman,serif" font-size="14.00">9_0</text>
</g>
<!-- 9_0&#45;&#45;4_0 -->
<g id="edge92" class="edge"><title>9_0&#45;&#45;4_0</title>
<path fill="none" stroke="grey" stroke-width="5" stroke-dasharray="1,5" d="M555.96,-742.776C578.041,-718.486 617.058,-675.565 639.288,-651.112"/>
</g>
<!-- node_9 -->
<g id="node26" class="node"><title>node_9</title>
<ellipse fill="none" stroke="black" cx="437.081" cy="-872.34" rx="46.0565" ry="18"/>
<text text-anchor="middle" x="437.081" y="-868.24" font-family="Times Roman,serif" font-size="14.00">node_9</text>
</g>
<!-- 9_0&#45;&#45;node_9 -->
<g id="edge94" class="edge"><title>9_0&#45;&#45;node_9</title>
<path fill="none" stroke="black" stroke-width="2" d="M522.599,-779.275C503.165,-800.424 471.537,-834.843 452.676,-855.368"/>
</g>
<!-- 5_0&#45;&#45;4_0 -->
<g id="edge96" class="edge"><title>5_0&#45;&#45;4_0</title>
<path fill="none" stroke="grey" stroke-width="5" stroke-dasharray="1,5" d="M729.594,-706.964C713.521,-690.739 690.164,-667.159 674.103,-650.944"/>
</g>
<!-- node_5 -->
<g id="node24" class="node"><title>node_5</title>
<ellipse fill="none" stroke="black" cx="710.92" cy="-876.774" rx="46.0565" ry="18"/>
<text text-anchor="middle" x="710.92" y="-872.674" font-family="Times Roman,serif" font-size="14.00">node_5</text>
</g>
<!-- 5_0&#45;&#45;node_5 -->
<g id="edge100" class="edge"><title>5_0&#45;&#45;node_5</title>
<path fill="none" stroke="black" stroke-width="2" d="M743.269,-743.527C736.199,-772.651 722.454,-829.268 715.373,-858.432"/>
</g>
<!-- 5_0&#45;&#45;4_1 -->
<g id="edge98" class="edge"><title>5_0&#45;&#45;4_1</title>
<path fill="none" stroke="grey" stroke-width="5" stroke-dasharray="1,5" d="M756.559,-707.227C770.664,-678.508 798.085,-622.678 812.21,-593.92"/>
</g>
<!-- 0_0&#45;&#45;4_0 -->
<g id="edge104" class="edge"><title>0_0&#45;&#45;4_0</title>
<path fill="none" stroke="grey" stroke-width="5" stroke-dasharray="1,5" d="M805.527,-632.066C772.317,-632.206 716.509,-632.442 683.285,-632.582"/>
</g>
<!-- 11_0 -->
<g id="node23" class="node"><title>11_0</title>
<polygon fill="none" stroke="black" points="683.245,-700.684 629.245,-700.684 629.245,-664.684 683.245,-664.684 683.245,-700.684"/>
<text text-anchor="middle" x="656.245" y="-678.584" font-family="Times Roman,serif" font-size="14.00">11_0</text>
</g>
<!-- 0_0&#45;&#45;11_0 -->
<g id="edge106" class="edge"><title>0_0&#45;&#45;11_0</title>
<path fill="none" stroke="grey" stroke-width="5" stroke-dasharray="1,5" d="M805.56,-639.767C772.391,-649.301 716.651,-665.322 683.468,-674.859"/>
</g>
<!-- 0_0&#45;&#45;node_0 -->
<g id="edge102" class="edge"><title>0_0&#45;&#45;node_0</title>
<path fill="none" stroke="black" stroke-width="2" d="M847.351,-613.694C871.719,-583.218 920.349,-522.398 944.134,-492.65"/>
</g>
<!-- node_4 -->
<g id="node25" class="node"><title>node_4</title>
<ellipse fill="none" stroke="black" cx="742.033" cy="-679.21" rx="46.0565" ry="18"/>
<text text-anchor="middle" x="742.033" y="-675.11" font-family="Times Roman,serif" font-size="14.00">node_4</text>
</g>
<!-- 4_0&#45;&#45;node_4 -->
<g id="edge108" class="edge"><title>4_0&#45;&#45;node_4</title>
<path fill="none" stroke="black" stroke-width="2" d="M683.241,-647.414C693.378,-652.896 704.876,-659.114 714.998,-664.588"/>
</g>
<!-- 11_0&#45;&#45;node_11 -->
<g id="edge110" class="edge"><title>11_0&#45;&#45;node_11</title>
<path fill="none" stroke="black" stroke-width="2" d="M629.16,-671.251C598.146,-658.159 547.32,-636.704 513.868,-622.583"/>
</g>
<!-- node_4&#45;&#45;4_1 -->
<g id="edge112" class="edge"><title>node_4&#45;&#45;4_1</title>
<path fill="none" stroke="black" stroke-width="2" d="M755.445,-661.673C769.807,-642.894 792.495,-613.228 807.083,-594.152"/>
</g>
<!-- node_14 -->
<g id="node43" class="node"><title>node_14</title>
<ellipse fill="none" stroke="black" cx="482.382" cy="-464.73" rx="52.8111" ry="18"/>
<text text-anchor="middle" x="482.382" y="-460.63" font-family="Times Roman,serif" font-size="14.00">node_14</text>
</g>
<!-- 14_0&#45;&#45;node_14 -->
<g id="edge114" class="edge"><title>14_0&#45;&#45;node_14</title>
<path fill="none" stroke="black" stroke-width="2" d="M357.986,-425.581C381.729,-433.053 416.533,-444.007 443.294,-452.429"/>
</g>
<!-- 14_1&#45;&#45;4_1 -->
<g id="edge116" class="edge"><title>14_1&#45;&#45;4_1</title>
<path fill="none" stroke="grey" stroke-width="5" stroke-dasharray="1,5" d="M705.287,-518.362C730.741,-530.994 768.531,-549.748 793.952,-562.363"/>
</g>
<!-- 14_1&#45;&#45;node_14 -->
<g id="edge118" class="edge"><title>14_1&#45;&#45;node_14</title>
<path fill="none" stroke="black" stroke-width="2" d="M650.838,-499.265C619.021,-492.743 565.865,-481.845 527.77,-474.035"/>
</g>
<!-- node_19 -->
<g id="node38" class="node"><title>node_19</title>
<ellipse fill="none" stroke="black" cx="826.13" cy="-77.8704" rx="52.8111" ry="18"/>
<text text-anchor="middle" x="826.13" y="-73.7704" font-family="Times Roman,serif" font-size="14.00">node_19</text>
</g>
<!-- 19_0&#45;&#45;node_19 -->
<g id="edge120" class="edge"><title>19_0&#45;&#45;node_19</title>
<path fill="none" stroke="black" stroke-width="2" d="M839.213,-224.008C836.385,-192.416 830.602,-127.818 827.769,-96.1688"/>
</g>
<!-- node_15 -->
<g id="node42" class="node"><title>node_15</title>
<ellipse fill="none" stroke="black" cx="53.6709" cy="-457.459" rx="52.8111" ry="18"/>
<text text-anchor="middle" x="53.6709" y="-453.359" font-family="Times Roman,serif" font-size="14.00">node_15</text>
</g>
<!-- 15_0&#45;&#45;node_15 -->
<g id="edge122" class="edge"><title>15_0&#45;&#45;node_15</title>
<path fill="none" stroke="black" stroke-width="2" d="M193.065,-461.249C169.749,-460.615 135.439,-459.682 106.694,-458.901"/>
</g>
</g>
</svg>
