<?xml version="1.0" encoding="UTF-8" standalone="no"?>
<!DOCTYPE svg PUBLIC "-//W3C//DTD SVG 1.1//EN"
 "http://www.w3.org/Graphics/SVG/1.1/DTD/svg11.dtd">
<!-- Generated by graphviz version 2.26.3 (20100126.1600)
 -->
<!-- Title: G Pages: 1 -->
<svg width="611pt" height="547pt"
 viewBox="0.00 0.00 611.00 547.00" xmlns="http://www.w3.org/2000/svg" xmlns:xlink="http://www.w3.org/1999/xlink">
<g id="graph1" class="graph" transform="scale(1 1) rotate(0) translate(4 543)">
<title>G</title>
<polygon fill="white" stroke="white" points="-4,5 -4,-543 608,-543 608,5 -4,5"/>
<!-- 3_1 -->
<g id="node1" class="node"><title>3_1</title>
<polygon fill="none" stroke="black" points="234.556,-256.106 180.556,-256.106 180.556,-220.106 234.556,-220.106 234.556,-256.106"/>
<text text-anchor="middle" x="207.556" y="-234.006" font-family="Times Roman,serif" font-size="14.00">3_1</text>
</g>
<!-- node_3 -->
<g id="node9" class="node"><title>node_3</title>
<ellipse fill="none" stroke="black" cx="134.008" cy="-107.805" rx="46.0565" ry="18"/>
<text text-anchor="middle" x="134.008" y="-103.705" font-family="Times Roman,serif" font-size="14.00">node_3</text>
</g>
<!-- 3_1&#45;&#45;node_3 -->
<g id="edge4" class="edge"><title>3_1&#45;&#45;node_3</title>
<path fill="none" stroke="black" stroke-width="2" d="M197.329,-219.988C183.278,-195.094 158.153,-150.582 144.148,-125.769"/>
</g>
<!-- 1_1 -->
<g id="node16" class="node"><title>1_1</title>
<polygon fill="none" stroke="black" points="352.652,-277.205 298.652,-277.205 298.652,-241.205 352.652,-241.205 352.652,-277.205"/>
<text text-anchor="middle" x="325.652" y="-255.105" font-family="Times Roman,serif" font-size="14.00">1_1</text>
</g>
<!-- 3_1&#45;&#45;1_1 -->
<g id="edge6" class="edge"><title>3_1&#45;&#45;1_1</title>
<path fill="none" stroke="grey" stroke-width="5" stroke-dasharray="1,5" d="M234.649,-242.946C253.717,-246.353 279.145,-250.896 298.275,-254.314"/>
</g>
<!-- 4_0 -->
<g id="node18" class="node"><title>4_0</title>
<polygon fill="none" stroke="black" points="210.796,-385.435 156.796,-385.435 156.796,-349.435 210.796,-349.435 210.796,-385.435"/>
<text text-anchor="middle" x="183.796" y="-363.335" font-family="Times Roman,serif" font-size="14.00">4_0</text>
</g>
<!-- 3_1&#45;&#45;4_0 -->
<g id="edge2" class="edge"><title>3_1&#45;&#45;4_0</title>
<path fill="none" stroke="grey" stroke-width="5" stroke-dasharray="1,5" d="M204.202,-256.361C199.674,-281.009 191.652,-324.672 187.132,-349.272"/>
</g>
<!-- 3_0 -->
<g id="node2" class="node"><title>3_0</title>
<polygon fill="none" stroke="black" points="297.155,-81.3209 243.155,-81.3209 243.155,-45.3209 297.155,-45.3209 297.155,-81.3209"/>
<text text-anchor="middle" x="270.155" y="-59.2209" font-family="Times Roman,serif" font-size="14.00">3_0</text>
</g>
<!-- 6_1 -->
<g id="node4" class="node"><title>6_1</title>
<polygon fill="none" stroke="black" points="393.051,-129.277 339.051,-129.277 339.051,-93.277 393.051,-93.277 393.051,-129.277"/>
<text text-anchor="middle" x="366.051" y="-107.177" font-family="Times Roman,serif" font-size="14.00">6_1</text>
</g>
<!-- 3_0&#45;&#45;6_1 -->
<g id="edge12" class="edge"><title>3_0&#45;&#45;6_1</title>
<path fill="none" stroke="grey" stroke-width="5" stroke-dasharray="1,5" d="M297.379,-76.9349C310.336,-83.4147 325.794,-91.1448 338.76,-97.6289"/>
</g>
<!-- 2_0 -->
<g id="node5" class="node"><title>2_0</title>
<polygon fill="none" stroke="black" points="292.072,-198.846 238.072,-198.846 238.072,-162.846 292.072,-162.846 292.072,-198.846"/>
<text text-anchor="middle" x="265.072" y="-176.746" font-family="Times Roman,serif" font-size="14.00">2_0</text>
</g>
<!-- 3_0&#45;&#45;2_0 -->
<g id="edge8" class="edge"><title>3_0&#45;&#45;2_0</title>
<path fill="none" stroke="grey" stroke-width="5" stroke-dasharray="1,5" d="M269.372,-81.4267C268.42,-103.448 266.821,-140.409 265.864,-162.526"/>
</g>
<!-- 3_0&#45;&#45;node_3 -->
<g id="edge10" class="edge"><title>3_0&#45;&#45;node_3</title>
<path fill="none" stroke="black" stroke-width="2" d="M242.931,-72.216C221.824,-79.1124 192.402,-88.7255 169.457,-96.2224"/>
</g>
<!-- 6_0 -->
<g id="node3" class="node"><title>6_0</title>
<polygon fill="none" stroke="black" points="467.421,-169.054 413.421,-169.054 413.421,-133.054 467.421,-133.054 467.421,-169.054"/>
<text text-anchor="middle" x="440.421" y="-146.954" font-family="Times Roman,serif" font-size="14.00">6_0</text>
</g>
<!-- node_6 -->
<g id="node6" class="node"><title>node_6</title>
<ellipse fill="none" stroke="black" cx="481.23" cy="-18.8246" rx="46.0565" ry="18"/>
<text text-anchor="middle" x="481.23" y="-14.7246" font-family="Times Roman,serif" font-size="14.00">node_6</text>
</g>
<!-- 6_0&#45;&#45;node_6 -->
<g id="edge14" class="edge"><title>6_0&#45;&#45;node_6</title>
<path fill="none" stroke="black" stroke-width="2" d="M446.01,-132.946C453.825,-107.624 467.93,-61.9185 475.709,-36.7147"/>
</g>
<!-- 6_0&#45;&#45;1_1 -->
<g id="edge18" class="edge"><title>6_0&#45;&#45;1_1</title>
<path fill="none" stroke="grey" stroke-width="5" stroke-dasharray="1,5" d="M421.211,-169.156C400.025,-189.12 366.135,-221.056 344.924,-241.044"/>
</g>
<!-- 7_0 -->
<g id="node20" class="node"><title>7_0</title>
<polygon fill="none" stroke="black" points="496.666,-214.33 442.666,-214.33 442.666,-178.33 496.666,-178.33 496.666,-214.33"/>
<text text-anchor="middle" x="469.666" y="-192.23" font-family="Times Roman,serif" font-size="14.00">7_0</text>
</g>
<!-- 6_0&#45;&#45;7_0 -->
<g id="edge16" class="edge"><title>6_0&#45;&#45;7_0</title>
<path fill="none" stroke="grey" stroke-width="5" stroke-dasharray="1,5" d="M452.147,-169.209C454.054,-172.161 456.03,-175.219 457.937,-178.171"/>
</g>
<!-- 6_1&#45;&#45;2_0 -->
<g id="edge20" class="edge"><title>6_1&#45;&#45;2_0</title>
<path fill="none" stroke="grey" stroke-width="5" stroke-dasharray="1,5" d="M339.784,-129.374C324.824,-139.681 306.146,-152.549 291.208,-162.84"/>
</g>
<!-- 6_1&#45;&#45;node_6 -->
<g id="edge26" class="edge"><title>6_1&#45;&#45;node_6</title>
<path fill="none" stroke="black" stroke-width="2" d="M388.532,-93.2318C409.482,-76.4159 440.455,-51.5546 460.738,-35.2733"/>
</g>
<!-- 7_1 -->
<g id="node19" class="node"><title>7_1</title>
<polygon fill="none" stroke="black" points="428.46,-255.723 374.46,-255.723 374.46,-219.723 428.46,-219.723 428.46,-255.723"/>
<text text-anchor="middle" x="401.46" y="-233.623" font-family="Times Roman,serif" font-size="14.00">7_1</text>
</g>
<!-- 6_1&#45;&#45;7_1 -->
<g id="edge22" class="edge"><title>6_1&#45;&#45;7_1</title>
<path fill="none" stroke="grey" stroke-width="5" stroke-dasharray="1,5" d="M371.124,-129.394C377.856,-153.431 389.67,-195.62 396.396,-219.64"/>
</g>
<!-- 6_1&#45;&#45;7_0 -->
<g id="edge24" class="edge"><title>6_1&#45;&#45;7_0</title>
<path fill="none" stroke="grey" stroke-width="5" stroke-dasharray="1,5" d="M388.025,-129.315C405.609,-143.748 430.148,-163.891 447.724,-178.318"/>
</g>
<!-- node_2 -->
<g id="node10" class="node"><title>node_2</title>
<ellipse fill="none" stroke="black" cx="176.033" cy="-44.2605" rx="46.0565" ry="18"/>
<text text-anchor="middle" x="176.033" y="-40.1605" font-family="Times Roman,serif" font-size="14.00">node_2</text>
</g>
<!-- 2_0&#45;&#45;node_2 -->
<g id="edge28" class="edge"><title>2_0&#45;&#45;node_2</title>
<path fill="none" stroke="black" stroke-width="2" d="M253.248,-162.709C236.124,-136.44 204.615,-88.1053 187.623,-62.039"/>
</g>
<!-- 5_1 -->
<g id="node14" class="node"><title>5_1</title>
<polygon fill="none" stroke="black" points="161.023,-289.617 107.023,-289.617 107.023,-253.617 161.023,-253.617 161.023,-289.617"/>
<text text-anchor="middle" x="134.023" y="-267.517" font-family="Times Roman,serif" font-size="14.00">5_1</text>
</g>
<!-- 2_0&#45;&#45;5_1 -->
<g id="edge30" class="edge"><title>2_0&#45;&#45;5_1</title>
<path fill="none" stroke="grey" stroke-width="5" stroke-dasharray="1,5" d="M238.867,-198.997C216.011,-214.828 183.026,-237.676 160.183,-253.498"/>
</g>
<!-- 2_0&#45;&#45;1_1 -->
<g id="edge32" class="edge"><title>2_0&#45;&#45;1_1</title>
<path fill="none" stroke="grey" stroke-width="5" stroke-dasharray="1,5" d="M279.123,-199.02C288.909,-211.679 301.907,-228.492 311.678,-241.129"/>
</g>
<!-- 1_0 -->
<g id="node17" class="node"><title>1_0</title>
<polygon fill="none" stroke="black" points="394.318,-205.765 340.318,-205.765 340.318,-169.765 394.318,-169.765 394.318,-205.765"/>
<text text-anchor="middle" x="367.318" y="-183.665" font-family="Times Roman,serif" font-size="14.00">1_0</text>
</g>
<!-- 2_0&#45;&#45;1_0 -->
<g id="edge34" class="edge"><title>2_0&#45;&#45;1_0</title>
<path fill="none" stroke="grey" stroke-width="5" stroke-dasharray="1,5" d="M292.204,-182.682C306.994,-183.683 325.249,-184.918 340.06,-185.92"/>
</g>
<!-- 2_0&#45;&#45;7_1 -->
<g id="edge36" class="edge"><title>2_0&#45;&#45;7_1</title>
<path fill="none" stroke="grey" stroke-width="5" stroke-dasharray="1,5" d="M292.344,-192.22C316.132,-202.14 350.461,-216.456 374.235,-226.37"/>
</g>
<!-- 0_0 -->
<g id="node21" class="node"><title>0_0</title>
<polygon fill="none" stroke="black" points="236.334,-304.314 182.334,-304.314 182.334,-268.314 236.334,-268.314 236.334,-304.314"/>
<text text-anchor="middle" x="209.334" y="-282.214" font-family="Times Roman,serif" font-size="14.00">0_0</text>
</g>
<!-- 2_0&#45;&#45;0_0 -->
<g id="edge38" class="edge"><title>2_0&#45;&#45;0_0</title>
<path fill="none" stroke="grey" stroke-width="5" stroke-dasharray="1,5" d="M255.363,-199.217C245.133,-218.575 229.12,-248.875 218.932,-268.153"/>
</g>
<!-- node_5 -->
<g id="node7" class="node"><title>node_5</title>
<ellipse fill="none" stroke="black" cx="93.7613" cy="-409.888" rx="46.0565" ry="18"/>
<text text-anchor="middle" x="93.7613" y="-405.788" font-family="Times Roman,serif" font-size="14.00">node_5</text>
</g>
<!-- node_5&#45;&#45;5_1 -->
<g id="edge40" class="edge"><title>node_5&#45;&#45;5_1</title>
<path fill="none" stroke="black" stroke-width="2" d="M99.0249,-391.811C106.741,-365.312 121.042,-316.2 128.758,-289.698"/>
</g>
<!-- 5_0 -->
<g id="node15" class="node"><title>5_0</title>
<polygon fill="none" stroke="black" points="281.963,-391.453 227.963,-391.453 227.963,-355.453 281.963,-355.453 281.963,-391.453"/>
<text text-anchor="middle" x="254.963" y="-369.353" font-family="Times Roman,serif" font-size="14.00">5_0</text>
</g>
<!-- node_5&#45;&#45;5_0 -->
<g id="edge42" class="edge"><title>node_5&#45;&#45;5_0</title>
<path fill="none" stroke="black" stroke-width="2" d="M133.609,-400.881C162.885,-394.264 201.895,-385.447 227.688,-379.617"/>
</g>
<!-- node_4 -->
<g id="node8" class="node"><title>node_4</title>
<ellipse fill="none" stroke="black" cx="134.534" cy="-520.385" rx="46.0565" ry="18"/>
<text text-anchor="middle" x="134.534" y="-516.285" font-family="Times Roman,serif" font-size="14.00">node_4</text>
</g>
<!-- node_4&#45;&#45;4_0 -->
<g id="edge44" class="edge"><title>node_4&#45;&#45;4_0</title>
<path fill="none" stroke="black" stroke-width="2" d="M140.378,-502.239C149.859,-472.803 168.483,-414.979 177.959,-385.557"/>
</g>
<!-- node_1 -->
<g id="node11" class="node"><title>node_1</title>
<ellipse fill="none" stroke="black" cx="448.533" cy="-319.961" rx="46.0565" ry="18"/>
<text text-anchor="middle" x="448.533" y="-315.861" font-family="Times Roman,serif" font-size="14.00">node_1</text>
</g>
<!-- node_1&#45;&#45;1_1 -->
<g id="edge46" class="edge"><title>node_1&#45;&#45;1_1</title>
<path fill="none" stroke="black" stroke-width="2" d="M419.723,-305.716C399.577,-295.755 372.837,-282.534 353.016,-272.734"/>
</g>
<!-- node_1&#45;&#45;1_0 -->
<g id="edge48" class="edge"><title>node_1&#45;&#45;1_0</title>
<path fill="none" stroke="black" stroke-width="2" d="M437.748,-302.406C422.301,-277.262 394.022,-231.232 378.408,-205.816"/>
</g>
<!-- node_0 -->
<g id="node12" class="node"><title>node_0</title>
<ellipse fill="none" stroke="black" cx="47.3526" cy="-310.523" rx="46.0565" ry="18"/>
<text text-anchor="middle" x="47.3526" y="-306.423" font-family="Times Roman,serif" font-size="14.00">node_0</text>
</g>
<!-- node_0&#45;&#45;0_0 -->
<g id="edge50" class="edge"><title>node_0&#45;&#45;0_0</title>
<path fill="none" stroke="black" stroke-width="2" d="M90.3355,-304.099C119.391,-299.756 156.886,-294.152 181.949,-290.406"/>
</g>
<!-- node_7 -->
<g id="node13" class="node"><title>node_7</title>
<ellipse fill="none" stroke="black" cx="555.324" cy="-264.211" rx="46.0565" ry="18"/>
<text text-anchor="middle" x="555.324" y="-260.111" font-family="Times Roman,serif" font-size="14.00">node_7</text>
</g>
<!-- node_7&#45;&#45;7_1 -->
<g id="edge52" class="edge"><title>node_7&#45;&#45;7_1</title>
<path fill="none" stroke="black" stroke-width="2" d="M512.873,-256.903C486.01,-252.278 452.074,-246.437 428.756,-242.422"/>
</g>
<!-- node_7&#45;&#45;7_0 -->
<g id="edge54" class="edge"><title>node_7&#45;&#45;7_0</title>
<path fill="none" stroke="black" stroke-width="2" d="M534.589,-247.779C521.913,-237.734 505.683,-224.872 492.621,-214.521"/>
</g>
<!-- 5_1&#45;&#45;4_0 -->
<g id="edge56" class="edge"><title>5_1&#45;&#45;4_0</title>
<path fill="none" stroke="grey" stroke-width="5" stroke-dasharray="1,5" d="M143.385,-289.64C152.227,-306.662 165.423,-332.065 174.306,-349.167"/>
</g>
<!-- 5_0&#45;&#45;1_1 -->
<g id="edge58" class="edge"><title>5_0&#45;&#45;1_1</title>
<path fill="none" stroke="grey" stroke-width="5" stroke-dasharray="1,5" d="M266.164,-355.35C279.4,-333.957 301.29,-298.579 314.503,-277.223"/>
</g>
<!-- 1_1&#45;&#45;7_0 -->
<g id="edge60" class="edge"><title>1_1&#45;&#45;7_0</title>
<path fill="none" stroke="grey" stroke-width="5" stroke-dasharray="1,5" d="M352.74,-247.378C378.324,-236.209 416.505,-219.539 442.21,-208.317"/>
</g>
<!-- 1_1&#45;&#45;0_0 -->
<g id="edge62" class="edge"><title>1_1&#45;&#45;0_0</title>
<path fill="none" stroke="grey" stroke-width="5" stroke-dasharray="1,5" d="M298.381,-265.561C279.713,-269.911 255.065,-275.656 236.435,-279.998"/>
</g>
<!-- 1_0&#45;&#45;7_0 -->
<g id="edge64" class="edge"><title>1_0&#45;&#45;7_0</title>
<path fill="none" stroke="grey" stroke-width="5" stroke-dasharray="1,5" d="M394.477,-190.038C409.282,-191.277 427.555,-192.806 442.38,-194.046"/>
</g>
<!-- 4_0&#45;&#45;0_0 -->
<g id="edge66" class="edge"><title>4_0&#45;&#45;0_0</title>
<path fill="none" stroke="grey" stroke-width="5" stroke-dasharray="1,5" d="M189.463,-349.431C193.666,-336.082 199.374,-317.952 203.594,-304.547"/>
</g>
</g>
</svg>
