<?xml version="1.0" encoding="UTF-8" standalone="no"?>
<!DOCTYPE svg PUBLIC "-//W3C//DTD SVG 1.1//EN"
 "http://www.w3.org/Graphics/SVG/1.1/DTD/svg11.dtd">
<!-- Generated by graphviz version 2.26.3 (20100126.1600)
 -->
<!-- Title: G Pages: 1 -->
<svg width="768pt" height="1173pt"
 viewBox="0.00 0.00 768.00 1173.00" xmlns="http://www.w3.org/2000/svg" xmlns:xlink="http://www.w3.org/1999/xlink">
<g id="graph1" class="graph" transform="scale(1 1) rotate(0) translate(4 1169)">
<title>G</title>
<polygon fill="white" stroke="white" points="-4,5 -4,-1169 765,-1169 765,5 -4,5"/>
<!-- 12_0 -->
<g id="node1" class="node"><title>12_0</title>
<polygon fill="none" stroke="black" points="293.615,-224.71 239.615,-224.71 239.615,-188.71 293.615,-188.71 293.615,-224.71"/>
<text text-anchor="middle" x="266.615" y="-202.61" font-family="Times Roman,serif" font-size="14.00">12_0</text>
</g>
<!-- 6_0 -->
<g id="node3" class="node"><title>6_0</title>
<polygon fill="none" stroke="black" points="413.98,-316.533 359.98,-316.533 359.98,-280.533 413.98,-280.533 413.98,-316.533"/>
<text text-anchor="middle" x="386.98" y="-294.433" font-family="Times Roman,serif" font-size="14.00">6_0</text>
</g>
<!-- 12_0&#45;&#45;6_0 -->
<g id="edge4" class="edge"><title>12_0&#45;&#45;6_0</title>
<path fill="none" stroke="grey" stroke-width="5" stroke-dasharray="1,5" d="M290.395,-224.851C311.497,-240.949 342.163,-264.343 363.249,-280.43"/>
</g>
<!-- 5_0 -->
<g id="node19" class="node"><title>5_0</title>
<polygon fill="none" stroke="black" points="352.498,-155.416 298.498,-155.416 298.498,-119.416 352.498,-119.416 352.498,-155.416"/>
<text text-anchor="middle" x="325.498" y="-133.316" font-family="Times Roman,serif" font-size="14.00">5_0</text>
</g>
<!-- 12_0&#45;&#45;5_0 -->
<g id="edge2" class="edge"><title>12_0&#45;&#45;5_0</title>
<path fill="none" stroke="grey" stroke-width="5" stroke-dasharray="1,5" d="M282.086,-188.504C290.673,-178.399 301.323,-165.865 309.926,-155.741"/>
</g>
<!-- node_12 -->
<g id="node33" class="node"><title>node_12</title>
<ellipse fill="none" stroke="black" cx="137.179" cy="-106.655" rx="52.8111" ry="18"/>
<text text-anchor="middle" x="137.179" y="-102.555" font-family="Times Roman,serif" font-size="14.00">node_12</text>
</g>
<!-- 12_0&#45;&#45;node_12 -->
<g id="edge6" class="edge"><title>12_0&#45;&#45;node_12</title>
<path fill="none" stroke="black" stroke-width="2" d="M243.175,-188.591C219.134,-170.007 182.051,-141.341 158.724,-123.31"/>
</g>
<!-- 12_1 -->
<g id="node2" class="node"><title>12_1</title>
<polygon fill="none" stroke="black" points="55.0322,-36.5585 1.03221,-36.5585 1.03221,-0.558546 55.0322,-0.558546 55.0322,-36.5585"/>
<text text-anchor="middle" x="28.0322" y="-14.4585" font-family="Times Roman,serif" font-size="14.00">12_1</text>
</g>
<!-- 12_1&#45;&#45;node_12 -->
<g id="edge8" class="edge"><title>12_1&#45;&#45;node_12</title>
<path fill="none" stroke="black" stroke-width="2" d="M50.3831,-36.5989C69.7172,-52.2042 97.4577,-74.5946 116.337,-89.8331"/>
</g>
<!-- 2_1 -->
<g id="node15" class="node"><title>2_1</title>
<polygon fill="none" stroke="black" points="499.908,-404.808 445.908,-404.808 445.908,-368.808 499.908,-368.808 499.908,-404.808"/>
<text text-anchor="middle" x="472.908" y="-382.708" font-family="Times Roman,serif" font-size="14.00">2_1</text>
</g>
<!-- 6_0&#45;&#45;2_1 -->
<g id="edge10" class="edge"><title>6_0&#45;&#45;2_1</title>
<path fill="none" stroke="grey" stroke-width="5" stroke-dasharray="1,5" d="M404.784,-316.824C419.532,-331.974 440.385,-353.397 455.126,-368.541"/>
</g>
<!-- 9_0 -->
<g id="node17" class="node"><title>9_0</title>
<polygon fill="none" stroke="black" points="531.176,-250.332 477.176,-250.332 477.176,-214.332 531.176,-214.332 531.176,-250.332"/>
<text text-anchor="middle" x="504.176" y="-228.232" font-family="Times Roman,serif" font-size="14.00">9_0</text>
</g>
<!-- 6_0&#45;&#45;9_0 -->
<g id="edge14" class="edge"><title>6_0&#45;&#45;9_0</title>
<path fill="none" stroke="grey" stroke-width="5" stroke-dasharray="1,5" d="M414.162,-283.179C433.095,-272.484 458.241,-258.28 477.142,-247.603"/>
</g>
<!-- node_6 -->
<g id="node25" class="node"><title>node_6</title>
<ellipse fill="none" stroke="black" cx="353.007" cy="-448.678" rx="46.0565" ry="18"/>
<text text-anchor="middle" x="353.007" y="-444.578" font-family="Times Roman,serif" font-size="14.00">node_6</text>
</g>
<!-- 6_0&#45;&#45;node_6 -->
<g id="edge12" class="edge"><title>6_0&#45;&#45;node_6</title>
<path fill="none" stroke="black" stroke-width="2" d="M382.882,-316.644C376.352,-345.503 363.658,-401.604 357.119,-430.503"/>
</g>
<!-- 6_1 -->
<g id="node4" class="node"><title>6_1</title>
<polygon fill="none" stroke="black" points="446.902,-618.617 392.902,-618.617 392.902,-582.617 446.902,-582.617 446.902,-618.617"/>
<text text-anchor="middle" x="419.902" y="-596.517" font-family="Times Roman,serif" font-size="14.00">6_1</text>
</g>
<!-- 13_0 -->
<g id="node5" class="node"><title>13_0</title>
<polygon fill="none" stroke="black" points="458.524,-769.795 404.524,-769.795 404.524,-733.795 458.524,-733.795 458.524,-769.795"/>
<text text-anchor="middle" x="431.524" y="-747.695" font-family="Times Roman,serif" font-size="14.00">13_0</text>
</g>
<!-- 6_1&#45;&#45;13_0 -->
<g id="edge16" class="edge"><title>6_1&#45;&#45;13_0</title>
<path fill="none" stroke="grey" stroke-width="5" stroke-dasharray="1,5" d="M421.304,-618.853C423.538,-647.91 427.88,-704.397 430.117,-733.495"/>
</g>
<!-- 11_0 -->
<g id="node12" class="node"><title>11_0</title>
<polygon fill="none" stroke="black" points="338.428,-616.665 284.428,-616.665 284.428,-580.665 338.428,-580.665 338.428,-616.665"/>
<text text-anchor="middle" x="311.428" y="-594.565" font-family="Times Roman,serif" font-size="14.00">11_0</text>
</g>
<!-- 6_1&#45;&#45;11_0 -->
<g id="edge22" class="edge"><title>6_1&#45;&#45;11_0</title>
<path fill="none" stroke="grey" stroke-width="5" stroke-dasharray="1,5" d="M392.81,-600.13C376.243,-599.831 355.124,-599.452 338.552,-599.153"/>
</g>
<!-- 4_1 -->
<g id="node21" class="node"><title>4_1</title>
<polygon fill="none" stroke="black" points="535.008,-503.47 481.008,-503.47 481.008,-467.47 535.008,-467.47 535.008,-503.47"/>
<text text-anchor="middle" x="508.008" y="-481.37" font-family="Times Roman,serif" font-size="14.00">4_1</text>
</g>
<!-- 6_1&#45;&#45;4_1 -->
<g id="edge20" class="edge"><title>6_1&#45;&#45;4_1</title>
<path fill="none" stroke="grey" stroke-width="5" stroke-dasharray="1,5" d="M433.863,-582.372C450.361,-560.811 477.644,-525.154 494.113,-503.63"/>
</g>
<!-- 6_1&#45;&#45;node_6 -->
<g id="edge18" class="edge"><title>6_1&#45;&#45;node_6</title>
<path fill="none" stroke="black" stroke-width="2" d="M411.966,-582.591C399.091,-553.349 373.801,-495.907 360.933,-466.681"/>
</g>
<!-- 7_1 -->
<g id="node9" class="node"><title>7_1</title>
<polygon fill="none" stroke="black" points="460.085,-900.165 406.085,-900.165 406.085,-864.165 460.085,-864.165 460.085,-900.165"/>
<text text-anchor="middle" x="433.085" y="-878.065" font-family="Times Roman,serif" font-size="14.00">7_1</text>
</g>
<!-- 13_0&#45;&#45;7_1 -->
<g id="edge26" class="edge"><title>13_0&#45;&#45;7_1</title>
<path fill="none" stroke="grey" stroke-width="5" stroke-dasharray="1,5" d="M431.741,-769.922C432.038,-794.69 432.566,-838.866 432.864,-863.772"/>
</g>
<!-- node_13 -->
<g id="node32" class="node"><title>node_13</title>
<ellipse fill="none" stroke="black" cx="524.201" cy="-867.02" rx="52.8111" ry="18"/>
<text text-anchor="middle" x="524.201" y="-862.92" font-family="Times Roman,serif" font-size="14.00">node_13</text>
</g>
<!-- 13_0&#45;&#45;node_13 -->
<g id="edge24" class="edge"><title>13_0&#45;&#45;node_13</title>
<path fill="none" stroke="black" stroke-width="2" d="M446.005,-769.799C463.518,-791.573 492.797,-827.975 510.126,-849.52"/>
</g>
<!-- 8_1 -->
<g id="node6" class="node"><title>8_1</title>
<polygon fill="none" stroke="black" points="479.189,-548.858 425.189,-548.858 425.189,-512.858 479.189,-512.858 479.189,-548.858"/>
<text text-anchor="middle" x="452.189" y="-526.758" font-family="Times Roman,serif" font-size="14.00">8_1</text>
</g>
<!-- 7_0 -->
<g id="node10" class="node"><title>7_0</title>
<polygon fill="none" stroke="black" points="541.424,-637.265 487.424,-637.265 487.424,-601.265 541.424,-601.265 541.424,-637.265"/>
<text text-anchor="middle" x="514.424" y="-615.165" font-family="Times Roman,serif" font-size="14.00">7_0</text>
</g>
<!-- 8_1&#45;&#45;7_0 -->
<g id="edge30" class="edge"><title>8_1&#45;&#45;7_0</title>
<path fill="none" stroke="grey" stroke-width="5" stroke-dasharray="1,5" d="M465.084,-549.176C475.765,-564.349 490.869,-585.804 501.545,-600.971"/>
</g>
<!-- 5_1 -->
<g id="node18" class="node"><title>5_1</title>
<polygon fill="none" stroke="black" points="437.812,-406.126 383.812,-406.126 383.812,-370.126 437.812,-370.126 437.812,-406.126"/>
<text text-anchor="middle" x="410.812" y="-384.026" font-family="Times Roman,serif" font-size="14.00">5_1</text>
</g>
<!-- 8_1&#45;&#45;5_1 -->
<g id="edge28" class="edge"><title>8_1&#45;&#45;5_1</title>
<path fill="none" stroke="grey" stroke-width="5" stroke-dasharray="1,5" d="M446.949,-512.781C439.033,-485.476 424.108,-433.99 416.141,-406.507"/>
</g>
<!-- node_8 -->
<g id="node23" class="node"><title>node_8</title>
<ellipse fill="none" stroke="black" cx="593.515" cy="-532.046" rx="46.0565" ry="18"/>
<text text-anchor="middle" x="593.515" y="-527.946" font-family="Times Roman,serif" font-size="14.00">node_8</text>
</g>
<!-- 8_1&#45;&#45;node_8 -->
<g id="edge32" class="edge"><title>8_1&#45;&#45;node_8</title>
<path fill="none" stroke="black" stroke-width="2" d="M479.438,-531.087C498.689,-531.249 524.957,-531.47 547.435,-531.659"/>
</g>
<!-- 1_1 -->
<g id="node7" class="node"><title>1_1</title>
<polygon fill="none" stroke="black" points="532.881,-303.256 478.881,-303.256 478.881,-267.256 532.881,-267.256 532.881,-303.256"/>
<text text-anchor="middle" x="505.881" y="-281.156" font-family="Times Roman,serif" font-size="14.00">1_1</text>
</g>
<!-- 1_1&#45;&#45;5_1 -->
<g id="edge36" class="edge"><title>1_1&#45;&#45;5_1</title>
<path fill="none" stroke="grey" stroke-width="5" stroke-dasharray="1,5" d="M488.885,-303.647C471.581,-322.371 444.913,-351.227 427.662,-369.894"/>
</g>
<!-- 4_0 -->
<g id="node20" class="node"><title>4_0</title>
<polygon fill="none" stroke="black" points="644.264,-336.964 590.264,-336.964 590.264,-300.964 644.264,-300.964 644.264,-336.964"/>
<text text-anchor="middle" x="617.264" y="-314.864" font-family="Times Roman,serif" font-size="14.00">4_0</text>
</g>
<!-- 1_1&#45;&#45;4_0 -->
<g id="edge34" class="edge"><title>1_1&#45;&#45;4_0</title>
<path fill="none" stroke="grey" stroke-width="5" stroke-dasharray="1,5" d="M533.129,-293.502C550.389,-298.725 572.632,-305.457 589.912,-310.686"/>
</g>
<!-- node_1 -->
<g id="node30" class="node"><title>node_1</title>
<ellipse fill="none" stroke="black" cx="530.849" cy="-135.207" rx="46.0565" ry="18"/>
<text text-anchor="middle" x="530.849" y="-131.107" font-family="Times Roman,serif" font-size="14.00">node_1</text>
</g>
<!-- 1_1&#45;&#45;node_1 -->
<g id="edge38" class="edge"><title>1_1&#45;&#45;node_1</title>
<path fill="none" stroke="black" stroke-width="2" d="M508.893,-267.156C513.692,-238.316 523.021,-182.251 527.826,-153.371"/>
</g>
<!-- 1_0 -->
<g id="node8" class="node"><title>1_0</title>
<polygon fill="none" stroke="black" points="511.347,-39.2635 457.347,-39.2635 457.347,-3.26346 511.347,-3.26346 511.347,-39.2635"/>
<text text-anchor="middle" x="484.347" y="-17.1635" font-family="Times Roman,serif" font-size="14.00">1_0</text>
</g>
<!-- 2_0 -->
<g id="node14" class="node"><title>2_0</title>
<polygon fill="none" stroke="black" points="466.051,-141.163 412.051,-141.163 412.051,-105.163 466.051,-105.163 466.051,-141.163"/>
<text text-anchor="middle" x="439.051" y="-119.063" font-family="Times Roman,serif" font-size="14.00">2_0</text>
</g>
<!-- 1_0&#45;&#45;2_0 -->
<g id="edge40" class="edge"><title>1_0&#45;&#45;2_0</title>
<path fill="none" stroke="grey" stroke-width="5" stroke-dasharray="1,5" d="M476.249,-39.4811C468.004,-58.0288 455.298,-86.6127 447.079,-105.103"/>
</g>
<!-- 1_0&#45;&#45;node_1 -->
<g id="edge42" class="edge"><title>1_0&#45;&#45;node_1</title>
<path fill="none" stroke="black" stroke-width="2" d="M491.715,-39.3182C500.422,-60.654 514.822,-95.9383 523.515,-117.237"/>
</g>
<!-- 0_0 -->
<g id="node11" class="node"><title>0_0</title>
<polygon fill="none" stroke="black" points="451.52,-1028.08 397.52,-1028.08 397.52,-992.079 451.52,-992.079 451.52,-1028.08"/>
<text text-anchor="middle" x="424.52" y="-1005.98" font-family="Times Roman,serif" font-size="14.00">0_0</text>
</g>
<!-- 7_1&#45;&#45;0_0 -->
<g id="edge46" class="edge"><title>7_1&#45;&#45;0_0</title>
<path fill="none" stroke="grey" stroke-width="5" stroke-dasharray="1,5" d="M431.876,-900.221C430.252,-924.462 427.384,-967.297 425.75,-991.701"/>
</g>
<!-- node_7 -->
<g id="node24" class="node"><title>node_7</title>
<ellipse fill="none" stroke="black" cx="518.032" cy="-770.487" rx="46.0565" ry="18"/>
<text text-anchor="middle" x="518.032" y="-766.387" font-family="Times Roman,serif" font-size="14.00">node_7</text>
</g>
<!-- 7_1&#45;&#45;node_7 -->
<g id="edge44" class="edge"><title>7_1&#45;&#45;node_7</title>
<path fill="none" stroke="black" stroke-width="2" d="M447.112,-863.724C463.134,-842.66 489.151,-808.456 504.823,-787.853"/>
</g>
<!-- 7_0&#45;&#45;4_1 -->
<g id="edge50" class="edge"><title>7_0&#45;&#45;4_1</title>
<path fill="none" stroke="grey" stroke-width="5" stroke-dasharray="1,5" d="M513.559,-601.221C512.334,-575.685 510.108,-529.268 508.88,-503.655"/>
</g>
<!-- 7_0&#45;&#45;node_7 -->
<g id="edge48" class="edge"><title>7_0&#45;&#45;node_7</title>
<path fill="none" stroke="black" stroke-width="2" d="M514.859,-637.506C515.553,-666.572 516.901,-723.076 517.595,-752.182"/>
</g>
<!-- node_0 -->
<g id="node31" class="node"><title>node_0</title>
<ellipse fill="none" stroke="black" cx="415.842" cy="-1145.81" rx="46.0565" ry="18"/>
<text text-anchor="middle" x="415.842" y="-1141.71" font-family="Times Roman,serif" font-size="14.00">node_0</text>
</g>
<!-- 0_0&#45;&#45;node_0 -->
<g id="edge52" class="edge"><title>0_0&#45;&#45;node_0</title>
<path fill="none" stroke="black" stroke-width="2" d="M423.367,-1028.1C421.707,-1054.06 418.661,-1101.71 416.999,-1127.71"/>
</g>
<!-- 3_0 -->
<g id="node13" class="node"><title>3_0</title>
<polygon fill="none" stroke="black" points="415.195,-515.168 361.195,-515.168 361.195,-479.168 415.195,-479.168 415.195,-515.168"/>
<text text-anchor="middle" x="388.195" y="-493.068" font-family="Times Roman,serif" font-size="14.00">3_0</text>
</g>
<!-- 11_0&#45;&#45;3_0 -->
<g id="edge54" class="edge"><title>11_0&#45;&#45;3_0</title>
<path fill="none" stroke="grey" stroke-width="5" stroke-dasharray="1,5" d="M325.153,-580.52C339.039,-562.159 360.394,-533.925 374.33,-515.499"/>
</g>
<!-- node_11 -->
<g id="node34" class="node"><title>node_11</title>
<ellipse fill="none" stroke="black" cx="191.502" cy="-685.628" rx="52.8111" ry="18"/>
<text text-anchor="middle" x="191.502" y="-681.528" font-family="Times Roman,serif" font-size="14.00">node_11</text>
</g>
<!-- 11_0&#45;&#45;node_11 -->
<g id="edge56" class="edge"><title>11_0&#45;&#45;node_11</title>
<path fill="none" stroke="black" stroke-width="2" d="M286.579,-616.684C265.311,-632.106 234.943,-654.128 214.291,-669.103"/>
</g>
<!-- 3_0&#45;&#45;2_1 -->
<g id="edge58" class="edge"><title>3_0&#45;&#45;2_1</title>
<path fill="none" stroke="grey" stroke-width="5" stroke-dasharray="1,5" d="M402.183,-478.945C417.879,-458.497 443.194,-425.518 458.898,-405.059"/>
</g>
<!-- 3_0&#45;&#45;5_1 -->
<g id="edge60" class="edge"><title>3_0&#45;&#45;5_1</title>
<path fill="none" stroke="grey" stroke-width="5" stroke-dasharray="1,5" d="M391.93,-479.162C396.12,-458.958 402.879,-426.373 407.072,-406.159"/>
</g>
<!-- 3_0&#45;&#45;4_1 -->
<g id="edge62" class="edge"><title>3_0&#45;&#45;4_1</title>
<path fill="none" stroke="grey" stroke-width="5" stroke-dasharray="1,5" d="M415.382,-494.514C434.99,-492.599 461.345,-490.026 480.928,-488.114"/>
</g>
<!-- node_3 -->
<g id="node28" class="node"><title>node_3</title>
<ellipse fill="none" stroke="black" cx="251.942" cy="-527.38" rx="46.0565" ry="18"/>
<text text-anchor="middle" x="251.942" y="-523.28" font-family="Times Roman,serif" font-size="14.00">node_3</text>
</g>
<!-- 3_0&#45;&#45;node_3 -->
<g id="edge64" class="edge"><title>3_0&#45;&#45;node_3</title>
<path fill="none" stroke="black" stroke-width="2" d="M360.949,-503.209C341.224,-507.583 314.242,-513.566 292.058,-518.485"/>
</g>
<!-- 2_0&#45;&#45;9_0 -->
<g id="edge70" class="edge"><title>2_0&#45;&#45;9_0</title>
<path fill="none" stroke="grey" stroke-width="5" stroke-dasharray="1,5" d="M449.805,-141.19C461.872,-161.417 481.333,-194.04 493.406,-214.278"/>
</g>
<!-- 2_0&#45;&#45;5_0 -->
<g id="edge68" class="edge"><title>2_0&#45;&#45;5_0</title>
<path fill="none" stroke="grey" stroke-width="5" stroke-dasharray="1,5" d="M411.853,-126.577C394.006,-128.817 370.75,-131.736 352.868,-133.981"/>
</g>
<!-- node_2 -->
<g id="node29" class="node"><title>node_2</title>
<ellipse fill="none" stroke="black" cx="420.464" cy="-248.951" rx="46.0565" ry="18"/>
<text text-anchor="middle" x="420.464" y="-244.851" font-family="Times Roman,serif" font-size="14.00">node_2</text>
</g>
<!-- 2_0&#45;&#45;node_2 -->
<g id="edge66" class="edge"><title>2_0&#45;&#45;node_2</title>
<path fill="none" stroke="black" stroke-width="2" d="M436.388,-141.185C432.855,-165.098 426.653,-207.066 423.123,-230.962"/>
</g>
<!-- 2_1&#45;&#45;4_1 -->
<g id="edge72" class="edge"><title>2_1&#45;&#45;4_1</title>
<path fill="none" stroke="grey" stroke-width="5" stroke-dasharray="1,5" d="M479.346,-404.904C485.639,-422.595 495.172,-449.389 501.492,-467.154"/>
</g>
<!-- 2_1&#45;&#45;node_2 -->
<g id="edge74" class="edge"><title>2_1&#45;&#45;node_2</title>
<path fill="none" stroke="black" stroke-width="2" d="M466.052,-368.786C456.001,-342.366 437.374,-293.4 427.322,-266.978"/>
</g>
<!-- 8_0 -->
<g id="node37" class="node"><title>8_0</title>
<polygon fill="none" stroke="black" points="642.687,-419.659 588.687,-419.659 588.687,-383.659 642.687,-383.659 642.687,-419.659"/>
<text text-anchor="middle" x="615.687" y="-397.559" font-family="Times Roman,serif" font-size="14.00">8_0</text>
</g>
<!-- 2_1&#45;&#45;8_0 -->
<g id="edge76" class="edge"><title>2_1&#45;&#45;8_0</title>
<path fill="none" stroke="grey" stroke-width="5" stroke-dasharray="1,5" d="M500.099,-389.637C525.505,-392.279 563.224,-396.202 588.597,-398.841"/>
</g>
<!-- 9_1 -->
<g id="node16" class="node"><title>9_1</title>
<polygon fill="none" stroke="black" points="725.263,-322.406 671.263,-322.406 671.263,-286.406 725.263,-286.406 725.263,-322.406"/>
<text text-anchor="middle" x="698.263" y="-300.306" font-family="Times Roman,serif" font-size="14.00">9_1</text>
</g>
<!-- node_9 -->
<g id="node22" class="node"><title>node_9</title>
<ellipse fill="none" stroke="black" cx="638.748" cy="-190.323" rx="46.0565" ry="18"/>
<text text-anchor="middle" x="638.748" y="-186.223" font-family="Times Roman,serif" font-size="14.00">node_9</text>
</g>
<!-- 9_1&#45;&#45;node_9 -->
<g id="edge78" class="edge"><title>9_1&#45;&#45;node_9</title>
<path fill="none" stroke="black" stroke-width="2" d="M688.833,-286.329C677.689,-264.968 659.259,-229.64 648.134,-208.315"/>
</g>
<!-- 9_1&#45;&#45;8_0 -->
<g id="edge80" class="edge"><title>9_1&#45;&#45;8_0</title>
<path fill="none" stroke="grey" stroke-width="5" stroke-dasharray="1,5" d="M682.731,-322.699C667.968,-340.086 645.89,-366.088 631.15,-383.448"/>
</g>
<!-- 9_0&#45;&#45;node_9 -->
<g id="edge82" class="edge"><title>9_0&#45;&#45;node_9</title>
<path fill="none" stroke="black" stroke-width="2" d="M531.408,-223.831C551.914,-217.429 580.224,-208.592 602.621,-201.6"/>
</g>
<!-- 10_0 -->
<g id="node36" class="node"><title>10_0</title>
<polygon fill="none" stroke="black" points="578.125,-373.085 524.125,-373.085 524.125,-337.085 578.125,-337.085 578.125,-373.085"/>
<text text-anchor="middle" x="551.125" y="-350.985" font-family="Times Roman,serif" font-size="14.00">10_0</text>
</g>
<!-- 9_0&#45;&#45;10_0 -->
<g id="edge84" class="edge"><title>9_0&#45;&#45;10_0</title>
<path fill="none" stroke="grey" stroke-width="5" stroke-dasharray="1,5" d="M511.103,-250.444C519.98,-273.653 535.279,-313.654 544.169,-336.898"/>
</g>
<!-- node_5 -->
<g id="node26" class="node"><title>node_5</title>
<ellipse fill="none" stroke="black" cx="300.056" cy="-272.927" rx="46.0565" ry="18"/>
<text text-anchor="middle" x="300.056" y="-268.827" font-family="Times Roman,serif" font-size="14.00">node_5</text>
</g>
<!-- 5_1&#45;&#45;node_5 -->
<g id="edge86" class="edge"><title>5_1&#45;&#45;node_5</title>
<path fill="none" stroke="black" stroke-width="2" d="M393.263,-369.872C372.158,-347.921 337.012,-311.365 316.441,-289.969"/>
</g>
<!-- 5_0&#45;&#45;node_5 -->
<g id="edge88" class="edge"><title>5_0&#45;&#45;node_5</title>
<path fill="none" stroke="black" stroke-width="2" d="M322.067,-155.692C317.184,-181.7 308.286,-229.093 303.433,-254.941"/>
</g>
<!-- node_4 -->
<g id="node27" class="node"><title>node_4</title>
<ellipse fill="none" stroke="black" cx="643.142" cy="-451.67" rx="46.0565" ry="18"/>
<text text-anchor="middle" x="643.142" y="-447.57" font-family="Times Roman,serif" font-size="14.00">node_4</text>
</g>
<!-- 4_0&#45;&#45;node_4 -->
<g id="edge90" class="edge"><title>4_0&#45;&#45;node_4</title>
<path fill="none" stroke="black" stroke-width="2" d="M620.808,-337.138C625.763,-362.551 634.708,-408.421 639.641,-433.715"/>
</g>
<!-- 4_0&#45;&#45;8_0 -->
<g id="edge92" class="edge"><title>4_0&#45;&#45;8_0</title>
<path fill="none" stroke="grey" stroke-width="5" stroke-dasharray="1,5" d="M616.914,-337.317C616.651,-351.116 616.292,-369.925 616.031,-383.642"/>
</g>
<!-- 4_1&#45;&#45;node_4 -->
<g id="edge94" class="edge"><title>4_1&#45;&#45;node_4</title>
<path fill="none" stroke="black" stroke-width="2" d="M535.03,-478.711C554.824,-473.76 581.987,-466.966 604.133,-461.427"/>
</g>
<!-- 4_1&#45;&#45;10_0 -->
<g id="edge96" class="edge"><title>4_1&#45;&#45;10_0</title>
<path fill="none" stroke="grey" stroke-width="5" stroke-dasharray="1,5" d="M514.003,-467.34C522.195,-442.57 536.805,-398.39 545.042,-373.481"/>
</g>
<!-- node_8&#45;&#45;8_0 -->
<g id="edge98" class="edge"><title>node_8&#45;&#45;8_0</title>
<path fill="none" stroke="black" stroke-width="2" d="M596.598,-513.916C600.81,-489.145 608.323,-444.964 612.559,-420.055"/>
</g>
<!-- node_10 -->
<g id="node35" class="node"><title>node_10</title>
<ellipse fill="none" stroke="black" cx="706.023" cy="-364.558" rx="52.8111" ry="18"/>
<text text-anchor="middle" x="706.023" y="-360.458" font-family="Times Roman,serif" font-size="14.00">node_10</text>
</g>
<!-- node_10&#45;&#45;10_0 -->
<g id="edge100" class="edge"><title>node_10&#45;&#45;10_0</title>
<path fill="none" stroke="black" stroke-width="2" d="M653.582,-361.351C628.305,-359.805 599.046,-358.016 578.284,-356.746"/>
</g>
</g>
</svg>
