<?xml version="1.0" encoding="UTF-8" standalone="no"?>
<!DOCTYPE svg PUBLIC "-//W3C//DTD SVG 1.1//EN"
 "http://www.w3.org/Graphics/SVG/1.1/DTD/svg11.dtd">
<!-- Generated by graphviz version 2.26.3 (20100126.1600)
 -->
<!-- Title: G Pages: 1 -->
<svg width="1163pt" height="1429pt"
 viewBox="0.00 0.00 1163.00 1429.00" xmlns="http://www.w3.org/2000/svg" xmlns:xlink="http://www.w3.org/1999/xlink">
<g id="graph1" class="graph" transform="scale(1 1) rotate(0) translate(4 1425)">
<title>G</title>
<polygon fill="white" stroke="white" points="-4,5 -4,-1425 1160,-1425 1160,5 -4,5"/>
<!-- 12_0 -->
<g id="node1" class="node"><title>12_0</title>
<polygon fill="none" stroke="black" points="245.088,-920.505 191.088,-920.505 191.088,-884.505 245.088,-884.505 245.088,-920.505"/>
<text text-anchor="middle" x="218.088" y="-898.405" font-family="Times Roman,serif" font-size="14.00">12_0</text>
</g>
<!-- node_12 -->
<g id="node44" class="node"><title>node_12</title>
<ellipse fill="none" stroke="black" cx="322.168" cy="-827.27" rx="52.8111" ry="18"/>
<text text-anchor="middle" x="322.168" y="-823.17" font-family="Times Roman,serif" font-size="14.00">node_12</text>
</g>
<!-- 12_0&#45;&#45;node_12 -->
<g id="edge2" class="edge"><title>12_0&#45;&#45;node_12</title>
<path fill="none" stroke="black" stroke-width="2" d="M243.018,-884.484C260.218,-872.051 282.899,-855.656 299.571,-843.604"/>
</g>
<!-- 12_1 -->
<g id="node2" class="node"><title>12_1</title>
<polygon fill="none" stroke="black" points="468.826,-746.934 414.826,-746.934 414.826,-710.934 468.826,-710.934 468.826,-746.934"/>
<text text-anchor="middle" x="441.826" y="-724.834" font-family="Times Roman,serif" font-size="14.00">12_1</text>
</g>
<!-- 13_1 -->
<g id="node5" class="node"><title>13_1</title>
<polygon fill="none" stroke="black" points="516.626,-843.249 462.626,-843.249 462.626,-807.249 516.626,-807.249 516.626,-843.249"/>
<text text-anchor="middle" x="489.626" y="-821.149" font-family="Times Roman,serif" font-size="14.00">13_1</text>
</g>
<!-- 12_1&#45;&#45;13_1 -->
<g id="edge6" class="edge"><title>12_1&#45;&#45;13_1</title>
<path fill="none" stroke="grey" stroke-width="5" stroke-dasharray="1,5" d="M450.816,-747.05C459.362,-764.27 472.143,-790.021 480.675,-807.214"/>
</g>
<!-- 16_0 -->
<g id="node15" class="node"><title>16_0</title>
<polygon fill="none" stroke="black" points="491.726,-616.828 437.726,-616.828 437.726,-580.828 491.726,-580.828 491.726,-616.828"/>
<text text-anchor="middle" x="464.726" y="-594.728" font-family="Times Roman,serif" font-size="14.00">16_0</text>
</g>
<!-- 12_1&#45;&#45;16_0 -->
<g id="edge8" class="edge"><title>12_1&#45;&#45;16_0</title>
<path fill="none" stroke="grey" stroke-width="5" stroke-dasharray="1,5" d="M445.01,-710.843C449.361,-686.126 457.12,-642.04 461.495,-617.185"/>
</g>
<!-- 2_0 -->
<g id="node16" class="node"><title>2_0</title>
<polygon fill="none" stroke="black" points="323.659,-739.758 269.659,-739.758 269.659,-703.758 323.659,-703.758 323.659,-739.758"/>
<text text-anchor="middle" x="296.659" y="-717.658" font-family="Times Roman,serif" font-size="14.00">2_0</text>
</g>
<!-- 12_1&#45;&#45;2_0 -->
<g id="edge4" class="edge"><title>12_1&#45;&#45;2_0</title>
<path fill="none" stroke="grey" stroke-width="5" stroke-dasharray="1,5" d="M414.521,-727.584C388.567,-726.301 349.754,-724.383 323.841,-723.102"/>
</g>
<!-- 9_0 -->
<g id="node21" class="node"><title>9_0</title>
<polygon fill="none" stroke="black" points="606.523,-788.494 552.523,-788.494 552.523,-752.494 606.523,-752.494 606.523,-788.494"/>
<text text-anchor="middle" x="579.523" y="-766.394" font-family="Times Roman,serif" font-size="14.00">9_0</text>
</g>
<!-- 12_1&#45;&#45;9_0 -->
<g id="edge12" class="edge"><title>12_1&#45;&#45;9_0</title>
<path fill="none" stroke="grey" stroke-width="5" stroke-dasharray="1,5" d="M469.03,-737.145C493.17,-744.431 528.252,-755.019 552.375,-762.3"/>
</g>
<!-- 12_1&#45;&#45;node_12 -->
<g id="edge10" class="edge"><title>12_1&#45;&#45;node_12</title>
<path fill="none" stroke="black" stroke-width="2" d="M419.879,-746.97C397.884,-765.046 364.285,-792.657 342.776,-810.334"/>
</g>
<!-- 6_0 -->
<g id="node3" class="node"><title>6_0</title>
<polygon fill="none" stroke="black" points="202.548,-415.145 148.548,-415.145 148.548,-379.145 202.548,-379.145 202.548,-415.145"/>
<text text-anchor="middle" x="175.548" y="-393.045" font-family="Times Roman,serif" font-size="14.00">6_0</text>
</g>
<!-- 7_0 -->
<g id="node10" class="node"><title>7_0</title>
<polygon fill="none" stroke="black" points="299.335,-469.694 245.335,-469.694 245.335,-433.694 299.335,-433.694 299.335,-469.694"/>
<text text-anchor="middle" x="272.335" y="-447.594" font-family="Times Roman,serif" font-size="14.00">7_0</text>
</g>
<!-- 6_0&#45;&#45;7_0 -->
<g id="edge16" class="edge"><title>6_0&#45;&#45;7_0</title>
<path fill="none" stroke="grey" stroke-width="5" stroke-dasharray="1,5" d="M202.766,-412.485C216.073,-419.985 232.041,-428.984 245.321,-436.469"/>
</g>
<!-- 0_0 -->
<g id="node11" class="node"><title>0_0</title>
<polygon fill="none" stroke="black" points="159.327,-283.638 105.327,-283.638 105.327,-247.638 159.327,-247.638 159.327,-283.638"/>
<text text-anchor="middle" x="132.327" y="-261.538" font-family="Times Roman,serif" font-size="14.00">0_0</text>
</g>
<!-- 6_0&#45;&#45;0_0 -->
<g id="edge18" class="edge"><title>6_0&#45;&#45;0_0</title>
<path fill="none" stroke="grey" stroke-width="5" stroke-dasharray="1,5" d="M169.629,-379.135C161.398,-354.092 146.58,-309.004 138.314,-283.853"/>
</g>
<!-- node_6 -->
<g id="node29" class="node"><title>node_6</title>
<ellipse fill="none" stroke="black" cx="142.754" cy="-522.883" rx="46.0565" ry="18"/>
<text text-anchor="middle" x="142.754" y="-518.783" font-family="Times Roman,serif" font-size="14.00">node_6</text>
</g>
<!-- 6_0&#45;&#45;node_6 -->
<g id="edge14" class="edge"><title>6_0&#45;&#45;node_6</title>
<path fill="none" stroke="black" stroke-width="2" d="M170.849,-415.16C164.615,-439.063 153.673,-481.015 147.444,-504.901"/>
</g>
<!-- 6_1 -->
<g id="node4" class="node"><title>6_1</title>
<polygon fill="none" stroke="black" points="189.489,-706.02 135.489,-706.02 135.489,-670.02 189.489,-670.02 189.489,-706.02"/>
<text text-anchor="middle" x="162.489" y="-683.92" font-family="Times Roman,serif" font-size="14.00">6_1</text>
</g>
<!-- 6_1&#45;&#45;2_0 -->
<g id="edge20" class="edge"><title>6_1&#45;&#45;2_0</title>
<path fill="none" stroke="grey" stroke-width="5" stroke-dasharray="1,5" d="M189.64,-694.848C212.918,-700.701 246.282,-709.091 269.548,-714.941"/>
</g>
<!-- 17_1 -->
<g id="node18" class="node"><title>17_1</title>
<polygon fill="none" stroke="black" points="141.443,-817.331 87.443,-817.331 87.443,-781.331 141.443,-781.331 141.443,-817.331"/>
<text text-anchor="middle" x="114.443" y="-795.231" font-family="Times Roman,serif" font-size="14.00">17_1</text>
</g>
<!-- 6_1&#45;&#45;17_1 -->
<g id="edge24" class="edge"><title>6_1&#45;&#45;17_1</title>
<path fill="none" stroke="grey" stroke-width="5" stroke-dasharray="1,5" d="M154.555,-706.401C145.6,-727.149 131.123,-760.687 122.229,-781.293"/>
</g>
<!-- 6_1&#45;&#45;node_6 -->
<g id="edge22" class="edge"><title>6_1&#45;&#45;node_6</title>
<path fill="none" stroke="black" stroke-width="2" d="M160.301,-669.717C156.498,-637.89 148.71,-572.724 144.921,-541.016"/>
</g>
<!-- node_13 -->
<g id="node43" class="node"><title>node_13</title>
<ellipse fill="none" stroke="black" cx="559.19" cy="-948.409" rx="52.8111" ry="18"/>
<text text-anchor="middle" x="559.19" y="-944.309" font-family="Times Roman,serif" font-size="14.00">node_13</text>
</g>
<!-- 13_1&#45;&#45;node_13 -->
<g id="edge26" class="edge"><title>13_1&#45;&#45;node_13</title>
<path fill="none" stroke="black" stroke-width="2" d="M499.89,-843.422C513.118,-866.841 535.972,-907.303 549.11,-930.563"/>
</g>
<!-- 13_0 -->
<g id="node6" class="node"><title>13_0</title>
<polygon fill="none" stroke="black" points="694.261,-918.703 640.261,-918.703 640.261,-882.703 694.261,-882.703 694.261,-918.703"/>
<text text-anchor="middle" x="667.261" y="-896.603" font-family="Times Roman,serif" font-size="14.00">13_0</text>
</g>
<!-- 3_0 -->
<g id="node14" class="node"><title>3_0</title>
<polygon fill="none" stroke="black" points="744.471,-865.134 690.471,-865.134 690.471,-829.134 744.471,-829.134 744.471,-865.134"/>
<text text-anchor="middle" x="717.471" y="-843.034" font-family="Times Roman,serif" font-size="14.00">3_0</text>
</g>
<!-- 13_0&#45;&#45;3_0 -->
<g id="edge28" class="edge"><title>13_0&#45;&#45;3_0</title>
<path fill="none" stroke="grey" stroke-width="5" stroke-dasharray="1,5" d="M684.26,-882.567C689.495,-876.982 695.256,-870.835 700.49,-865.251"/>
</g>
<!-- 13_0&#45;&#45;node_13 -->
<g id="edge30" class="edge"><title>13_0&#45;&#45;node_13</title>
<path fill="none" stroke="black" stroke-width="2" d="M639.99,-912.741C625.358,-919.2 607.224,-927.206 591.844,-933.995"/>
</g>
<!-- 10_1 -->
<g id="node7" class="node"><title>10_1</title>
<polygon fill="none" stroke="black" points="1154.07,-799.948 1100.07,-799.948 1100.07,-763.948 1154.07,-763.948 1154.07,-799.948"/>
<text text-anchor="middle" x="1127.07" y="-777.848" font-family="Times Roman,serif" font-size="14.00">10_1</text>
</g>
<!-- node_10 -->
<g id="node46" class="node"><title>node_10</title>
<ellipse fill="none" stroke="black" cx="1000.71" cy="-803.77" rx="52.8111" ry="18"/>
<text text-anchor="middle" x="1000.71" y="-799.67" font-family="Times Roman,serif" font-size="14.00">node_10</text>
</g>
<!-- 10_1&#45;&#45;node_10 -->
<g id="edge32" class="edge"><title>10_1&#45;&#45;node_10</title>
<path fill="none" stroke="black" stroke-width="2" d="M1099.96,-786.63C1084.88,-789.235 1065.67,-792.552 1048.18,-795.573"/>
</g>
<!-- 8_0 -->
<g id="node8" class="node"><title>8_0</title>
<polygon fill="none" stroke="black" points="592.948,-1298.56 538.948,-1298.56 538.948,-1262.56 592.948,-1262.56 592.948,-1298.56"/>
<text text-anchor="middle" x="565.948" y="-1276.46" font-family="Times Roman,serif" font-size="14.00">8_0</text>
</g>
<!-- 5_0 -->
<g id="node23" class="node"><title>5_0</title>
<polygon fill="none" stroke="black" points="580.128,-1167.34 526.128,-1167.34 526.128,-1131.34 580.128,-1131.34 580.128,-1167.34"/>
<text text-anchor="middle" x="553.128" y="-1145.24" font-family="Times Roman,serif" font-size="14.00">5_0</text>
</g>
<!-- 8_0&#45;&#45;5_0 -->
<g id="edge34" class="edge"><title>8_0&#45;&#45;5_0</title>
<path fill="none" stroke="grey" stroke-width="5" stroke-dasharray="1,5" d="M564.165,-1262.31C561.716,-1237.24 557.337,-1192.42 554.895,-1167.43"/>
</g>
<!-- node_8 -->
<g id="node27" class="node"><title>node_8</title>
<ellipse fill="none" stroke="black" cx="596.066" cy="-1401.51" rx="46.0565" ry="18"/>
<text text-anchor="middle" x="596.066" y="-1397.41" font-family="Times Roman,serif" font-size="14.00">node_8</text>
</g>
<!-- 8_0&#45;&#45;node_8 -->
<g id="edge36" class="edge"><title>8_0&#45;&#45;node_8</title>
<path fill="none" stroke="black" stroke-width="2" d="M570.457,-1298.66C576.134,-1321.47 585.833,-1360.42 591.526,-1383.27"/>
</g>
<!-- 1_0 -->
<g id="node9" class="node"><title>1_0</title>
<polygon fill="none" stroke="black" points="696.979,-963.983 642.979,-963.983 642.979,-927.983 696.979,-927.983 696.979,-963.983"/>
<text text-anchor="middle" x="669.979" y="-941.883" font-family="Times Roman,serif" font-size="14.00">1_0</text>
</g>
<!-- 1_0&#45;&#45;3_0 -->
<g id="edge38" class="edge"><title>1_0&#45;&#45;3_0</title>
<path fill="none" stroke="grey" stroke-width="5" stroke-dasharray="1,5" d="M678.69,-927.852C687.259,-910.017 700.265,-882.945 708.815,-865.149"/>
</g>
<!-- node_1 -->
<g id="node34" class="node"><title>node_1</title>
<ellipse fill="none" stroke="black" cx="583.417" cy="-1041.58" rx="46.0565" ry="18"/>
<text text-anchor="middle" x="583.417" y="-1037.48" font-family="Times Roman,serif" font-size="14.00">node_1</text>
</g>
<!-- 1_0&#45;&#45;node_1 -->
<g id="edge40" class="edge"><title>1_0&#45;&#45;node_1</title>
<path fill="none" stroke="black" stroke-width="2" d="M653.289,-964.416C637.568,-981.779 614.204,-1007.58 598.892,-1024.49"/>
</g>
<!-- 11_0 -->
<g id="node12" class="node"><title>11_0</title>
<polygon fill="none" stroke="black" points="255.62,-578.56 201.62,-578.56 201.62,-542.56 255.62,-542.56 255.62,-578.56"/>
<text text-anchor="middle" x="228.62" y="-556.46" font-family="Times Roman,serif" font-size="14.00">11_0</text>
</g>
<!-- 7_0&#45;&#45;11_0 -->
<g id="edge46" class="edge"><title>7_0&#45;&#45;11_0</title>
<path fill="none" stroke="grey" stroke-width="5" stroke-dasharray="1,5" d="M264.919,-470.161C256.832,-490.302 243.97,-522.333 235.926,-542.365"/>
</g>
<!-- node_7 -->
<g id="node28" class="node"><title>node_7</title>
<ellipse fill="none" stroke="black" cx="286.668" cy="-327.228" rx="46.0565" ry="18"/>
<text text-anchor="middle" x="286.668" y="-323.128" font-family="Times Roman,serif" font-size="14.00">node_7</text>
</g>
<!-- 7_0&#45;&#45;node_7 -->
<g id="edge42" class="edge"><title>7_0&#45;&#45;node_7</title>
<path fill="none" stroke="black" stroke-width="2" d="M274.419,-433.595C277.137,-409.997 281.863,-368.957 284.582,-345.348"/>
</g>
<!-- 15_0 -->
<g id="node40" class="node"><title>15_0</title>
<polygon fill="none" stroke="black" points="409.035,-539.757 355.035,-539.757 355.035,-503.757 409.035,-503.757 409.035,-539.757"/>
<text text-anchor="middle" x="382.035" y="-517.657" font-family="Times Roman,serif" font-size="14.00">15_0</text>
</g>
<!-- 7_0&#45;&#45;15_0 -->
<g id="edge44" class="edge"><title>7_0&#45;&#45;15_0</title>
<path fill="none" stroke="grey" stroke-width="5" stroke-dasharray="1,5" d="M299.452,-469.013C316.329,-479.792 337.96,-493.607 354.85,-504.394"/>
</g>
<!-- 4_0 -->
<g id="node24" class="node"><title>4_0</title>
<polygon fill="none" stroke="black" points="156.366,-170.88 102.366,-170.88 102.366,-134.88 156.366,-134.88 156.366,-170.88"/>
<text text-anchor="middle" x="129.366" y="-148.78" font-family="Times Roman,serif" font-size="14.00">4_0</text>
</g>
<!-- 0_0&#45;&#45;4_0 -->
<g id="edge48" class="edge"><title>0_0&#45;&#45;4_0</title>
<path fill="none" stroke="grey" stroke-width="5" stroke-dasharray="1,5" d="M131.852,-247.522C131.299,-226.48 130.393,-191.974 129.841,-170.952"/>
</g>
<!-- node_0 -->
<g id="node35" class="node"><title>node_0</title>
<ellipse fill="none" stroke="black" cx="47.0998" cy="-176.902" rx="46.0565" ry="18"/>
<text text-anchor="middle" x="47.0998" y="-172.802" font-family="Times Roman,serif" font-size="14.00">node_0</text>
</g>
<!-- 0_0&#45;&#45;node_0 -->
<g id="edge50" class="edge"><title>0_0&#45;&#45;node_0</title>
<path fill="none" stroke="black" stroke-width="2" d="M114.668,-247.252C99.5534,-231.515 77.9716,-209.045 63.2949,-193.764"/>
</g>
<!-- 2_1 -->
<g id="node17" class="node"><title>2_1</title>
<polygon fill="none" stroke="black" points="310.824,-680.48 256.824,-680.48 256.824,-644.48 310.824,-644.48 310.824,-680.48"/>
<text text-anchor="middle" x="283.824" y="-658.38" font-family="Times Roman,serif" font-size="14.00">2_1</text>
</g>
<!-- 11_0&#45;&#45;2_1 -->
<g id="edge52" class="edge"><title>11_0&#45;&#45;2_1</title>
<path fill="none" stroke="grey" stroke-width="5" stroke-dasharray="1,5" d="M238.489,-578.782C248.537,-597.333 264.023,-625.923 274.04,-644.417"/>
</g>
<!-- node_11 -->
<g id="node45" class="node"><title>node_11</title>
<ellipse fill="none" stroke="black" cx="75.6631" cy="-572.391" rx="52.8111" ry="18"/>
<text text-anchor="middle" x="75.6631" y="-568.291" font-family="Times Roman,serif" font-size="14.00">node_11</text>
</g>
<!-- 11_0&#45;&#45;node_11 -->
<g id="edge54" class="edge"><title>11_0&#45;&#45;node_11</title>
<path fill="none" stroke="black" stroke-width="2" d="M201.274,-562.675C180.823,-564.257 152.243,-566.468 127.511,-568.381"/>
</g>
<!-- 3_1 -->
<g id="node13" class="node"><title>3_1</title>
<polygon fill="none" stroke="black" points="700.285,-1122.4 646.285,-1122.4 646.285,-1086.4 700.285,-1086.4 700.285,-1122.4"/>
<text text-anchor="middle" x="673.285" y="-1100.3" font-family="Times Roman,serif" font-size="14.00">3_1</text>
</g>
<!-- 3_1&#45;&#45;5_0 -->
<g id="edge56" class="edge"><title>3_1&#45;&#45;5_0</title>
<path fill="none" stroke="grey" stroke-width="5" stroke-dasharray="1,5" d="M646.019,-1114.6C626.355,-1121.95 599.925,-1131.84 580.286,-1139.19"/>
</g>
<!-- node_3 -->
<g id="node32" class="node"><title>node_3</title>
<ellipse fill="none" stroke="black" cx="760.772" cy="-992.049" rx="46.0565" ry="18"/>
<text text-anchor="middle" x="760.772" y="-987.949" font-family="Times Roman,serif" font-size="14.00">node_3</text>
</g>
<!-- 3_1&#45;&#45;node_3 -->
<g id="edge58" class="edge"><title>3_1&#45;&#45;node_3</title>
<path fill="none" stroke="black" stroke-width="2" d="M687.341,-1086.35C703.861,-1065.13 731.075,-1030.19 747.326,-1009.32"/>
</g>
<!-- 3_0&#45;&#45;9_0 -->
<g id="edge60" class="edge"><title>3_0&#45;&#45;9_0</title>
<path fill="none" stroke="grey" stroke-width="5" stroke-dasharray="1,5" d="M690.217,-831.992C666.033,-818.556 630.887,-799.031 606.72,-785.604"/>
</g>
<!-- 3_0&#45;&#45;node_3 -->
<g id="edge62" class="edge"><title>3_0&#45;&#45;node_3</title>
<path fill="none" stroke="black" stroke-width="2" d="M722.868,-865.194C731.165,-892.964 746.969,-945.855 755.308,-973.761"/>
</g>
<!-- 10_0 -->
<g id="node47" class="node"><title>10_0</title>
<polygon fill="none" stroke="black" points="871.011,-844.85 817.011,-844.85 817.011,-808.85 871.011,-808.85 871.011,-844.85"/>
<text text-anchor="middle" x="844.011" y="-822.75" font-family="Times Roman,serif" font-size="14.00">10_0</text>
</g>
<!-- 3_0&#45;&#45;10_0 -->
<g id="edge64" class="edge"><title>3_0&#45;&#45;10_0</title>
<path fill="none" stroke="grey" stroke-width="5" stroke-dasharray="1,5" d="M744.617,-842.782C765.967,-839.36 795.571,-834.615 816.91,-831.194"/>
</g>
<!-- 18_0 -->
<g id="node20" class="node"><title>18_0</title>
<polygon fill="none" stroke="black" points="598.802,-541.96 544.802,-541.96 544.802,-505.96 598.802,-505.96 598.802,-541.96"/>
<text text-anchor="middle" x="571.802" y="-519.86" font-family="Times Roman,serif" font-size="14.00">18_0</text>
</g>
<!-- 16_0&#45;&#45;18_0 -->
<g id="edge68" class="edge"><title>16_0&#45;&#45;18_0</title>
<path fill="none" stroke="grey" stroke-width="5" stroke-dasharray="1,5" d="M490.646,-580.705C507.357,-569.02 529.012,-553.879 545.749,-542.176"/>
</g>
<!-- 16_0&#45;&#45;15_0 -->
<g id="edge66" class="edge"><title>16_0&#45;&#45;15_0</title>
<path fill="none" stroke="grey" stroke-width="5" stroke-dasharray="1,5" d="M445.13,-580.564C431.948,-568.278 414.643,-552.149 401.491,-539.891"/>
</g>
<!-- node_16 -->
<g id="node48" class="node"><title>node_16</title>
<ellipse fill="none" stroke="black" cx="525.716" cy="-470.334" rx="52.8111" ry="18"/>
<text text-anchor="middle" x="525.716" y="-466.234" font-family="Times Roman,serif" font-size="14.00">node_16</text>
</g>
<!-- 16_0&#45;&#45;node_16 -->
<g id="edge70" class="edge"><title>16_0&#45;&#45;node_16</title>
<path fill="none" stroke="black" stroke-width="2" d="M473.335,-580.691C484.959,-556.202 505.55,-512.821 517.151,-488.38"/>
</g>
<!-- node_2 -->
<g id="node33" class="node"><title>node_2</title>
<ellipse fill="none" stroke="black" cx="201.572" cy="-629.012" rx="46.0565" ry="18"/>
<text text-anchor="middle" x="201.572" y="-624.912" font-family="Times Roman,serif" font-size="14.00">node_2</text>
</g>
<!-- 2_0&#45;&#45;node_2 -->
<g id="edge72" class="edge"><title>2_0&#45;&#45;node_2</title>
<path fill="none" stroke="black" stroke-width="2" d="M277.873,-703.434C260.662,-686.647 235.396,-662.004 218.721,-645.739"/>
</g>
<!-- 15_1 -->
<g id="node22" class="node"><title>15_1</title>
<polygon fill="none" stroke="black" points="377.259,-799.837 323.259,-799.837 323.259,-763.837 377.259,-763.837 377.259,-799.837"/>
<text text-anchor="middle" x="350.259" y="-777.737" font-family="Times Roman,serif" font-size="14.00">15_1</text>
</g>
<!-- 2_1&#45;&#45;15_1 -->
<g id="edge74" class="edge"><title>2_1&#45;&#45;15_1</title>
<path fill="none" stroke="grey" stroke-width="5" stroke-dasharray="1,5" d="M293.914,-680.608C306.401,-703.042 327.543,-741.027 340.074,-763.539"/>
</g>
<!-- 2_1&#45;&#45;node_2 -->
<g id="edge76" class="edge"><title>2_1&#45;&#45;node_2</title>
<path fill="none" stroke="black" stroke-width="2" d="M256.435,-651.336C249.145,-648.369 241.204,-645.138 233.685,-642.079"/>
</g>
<!-- node_17 -->
<g id="node39" class="node"><title>node_17</title>
<ellipse fill="none" stroke="black" cx="123.299" cy="-954.729" rx="52.8111" ry="18"/>
<text text-anchor="middle" x="123.299" y="-950.629" font-family="Times Roman,serif" font-size="14.00">node_17</text>
</g>
<!-- 17_1&#45;&#45;node_17 -->
<g id="edge78" class="edge"><title>17_1&#45;&#45;node_17</title>
<path fill="none" stroke="black" stroke-width="2" d="M115.476,-817.462C117.183,-847.405 120.57,-906.847 122.272,-936.715"/>
</g>
<!-- 17_0 -->
<g id="node19" class="node"><title>17_0</title>
<polygon fill="none" stroke="black" points="251.39,-1087.43 197.39,-1087.43 197.39,-1051.43 251.39,-1051.43 251.39,-1087.43"/>
<text text-anchor="middle" x="224.39" y="-1065.33" font-family="Times Roman,serif" font-size="14.00">17_0</text>
</g>
<!-- 19_0 -->
<g id="node36" class="node"><title>19_0</title>
<polygon fill="none" stroke="black" points="359.764,-1126.35 305.764,-1126.35 305.764,-1090.35 359.764,-1090.35 359.764,-1126.35"/>
<text text-anchor="middle" x="332.764" y="-1104.25" font-family="Times Roman,serif" font-size="14.00">19_0</text>
</g>
<!-- 17_0&#45;&#45;19_0 -->
<g id="edge82" class="edge"><title>17_0&#45;&#45;19_0</title>
<path fill="none" stroke="grey" stroke-width="5" stroke-dasharray="1,5" d="M251.457,-1079.15C268.009,-1085.1 289.108,-1092.67 305.665,-1098.62"/>
</g>
<!-- 17_0&#45;&#45;node_17 -->
<g id="edge80" class="edge"><title>17_0&#45;&#45;node_17</title>
<path fill="none" stroke="black" stroke-width="2" d="M208.371,-1051.26C189.22,-1029.53 157.4,-993.422 138.58,-972.068"/>
</g>
<!-- node_18 -->
<g id="node38" class="node"><title>node_18</title>
<ellipse fill="none" stroke="black" cx="678.427" cy="-448.145" rx="52.8111" ry="18"/>
<text text-anchor="middle" x="678.427" y="-444.045" font-family="Times Roman,serif" font-size="14.00">node_18</text>
</g>
<!-- 18_0&#45;&#45;node_18 -->
<g id="edge84" class="edge"><title>18_0&#45;&#45;node_18</title>
<path fill="none" stroke="black" stroke-width="2" d="M597.341,-505.8C614.961,-493.272 638.197,-476.75 655.277,-464.605"/>
</g>
<!-- node_9 -->
<g id="node26" class="node"><title>node_9</title>
<ellipse fill="none" stroke="black" cx="697.88" cy="-707.594" rx="46.0565" ry="18"/>
<text text-anchor="middle" x="697.88" y="-703.494" font-family="Times Roman,serif" font-size="14.00">node_9</text>
</g>
<!-- 9_0&#45;&#45;node_9 -->
<g id="edge86" class="edge"><title>9_0&#45;&#45;node_9</title>
<path fill="none" stroke="black" stroke-width="2" d="M606.676,-756.063C625.786,-745.908 651.271,-732.364 670.443,-722.175"/>
</g>
<!-- 14_0 -->
<g id="node25" class="node"><title>14_0</title>
<polygon fill="none" stroke="black" points="421.771,-928.668 367.771,-928.668 367.771,-892.668 421.771,-892.668 421.771,-928.668"/>
<text text-anchor="middle" x="394.771" y="-906.568" font-family="Times Roman,serif" font-size="14.00">14_0</text>
</g>
<!-- 15_1&#45;&#45;14_0 -->
<g id="edge90" class="edge"><title>15_1&#45;&#45;14_0</title>
<path fill="none" stroke="grey" stroke-width="5" stroke-dasharray="1,5" d="M356.542,-800.022C365.025,-824.576 380.053,-868.07 388.52,-892.576"/>
</g>
<!-- node_15 -->
<g id="node41" class="node"><title>node_15</title>
<ellipse fill="none" stroke="black" cx="378.612" cy="-643.374" rx="52.8111" ry="18"/>
<text text-anchor="middle" x="378.612" y="-639.274" font-family="Times Roman,serif" font-size="14.00">node_15</text>
</g>
<!-- 15_1&#45;&#45;node_15 -->
<g id="edge88" class="edge"><title>15_1&#45;&#45;node_15</title>
<path fill="none" stroke="black" stroke-width="2" d="M353.966,-763.736C359.399,-737.199 369.47,-688.019 374.904,-661.48"/>
</g>
<!-- node_5 -->
<g id="node30" class="node"><title>node_5</title>
<ellipse fill="none" stroke="black" cx="650.976" cy="-1245.42" rx="46.0565" ry="18"/>
<text text-anchor="middle" x="650.976" y="-1241.32" font-family="Times Roman,serif" font-size="14.00">node_5</text>
</g>
<!-- 5_0&#45;&#45;node_5 -->
<g id="edge92" class="edge"><title>5_0&#45;&#45;node_5</title>
<path fill="none" stroke="black" stroke-width="2" d="M571.533,-1167.42C589.358,-1184.92 616.184,-1211.26 633.64,-1228.4"/>
</g>
<!-- 1_1 -->
<g id="node49" class="node"><title>1_1</title>
<polygon fill="none" stroke="black" points="485.215,-1074.95 431.215,-1074.95 431.215,-1038.95 485.215,-1038.95 485.215,-1074.95"/>
<text text-anchor="middle" x="458.215" y="-1052.85" font-family="Times Roman,serif" font-size="14.00">1_1</text>
</g>
<!-- 5_0&#45;&#45;1_1 -->
<g id="edge94" class="edge"><title>5_0&#45;&#45;1_1</title>
<path fill="none" stroke="grey" stroke-width="5" stroke-dasharray="1,5" d="M534.376,-1131.09C517.737,-1114.89 493.555,-1091.35 476.927,-1075.16"/>
</g>
<!-- node_4 -->
<g id="node31" class="node"><title>node_4</title>
<ellipse fill="none" stroke="black" cx="123.064" cy="-19.2034" rx="46.0565" ry="18"/>
<text text-anchor="middle" x="123.064" y="-15.1034" font-family="Times Roman,serif" font-size="14.00">node_4</text>
</g>
<!-- 4_0&#45;&#45;node_4 -->
<g id="edge96" class="edge"><title>4_0&#45;&#45;node_4</title>
<path fill="none" stroke="black" stroke-width="2" d="M128.516,-134.852C127.313,-109.339 125.127,-62.9628 123.921,-37.3729"/>
</g>
<!-- node_14 -->
<g id="node42" class="node"><title>node_14</title>
<ellipse fill="none" stroke="black" cx="504.626" cy="-892.3" rx="52.8111" ry="18"/>
<text text-anchor="middle" x="504.626" y="-888.2" font-family="Times Roman,serif" font-size="14.00">node_14</text>
</g>
<!-- 14_0&#45;&#45;node_14 -->
<g id="edge98" class="edge"><title>14_0&#45;&#45;node_14</title>
<path fill="none" stroke="black" stroke-width="2" d="M421.926,-906.128C432.473,-904.364 444.874,-902.29 456.819,-900.293"/>
</g>
<!-- 14_0&#45;&#45;1_1 -->
<g id="edge100" class="edge"><title>14_0&#45;&#45;1_1</title>
<path fill="none" stroke="grey" stroke-width="5" stroke-dasharray="1,5" d="M402.678,-928.899C414.902,-957.083 438.244,-1010.9 450.407,-1038.95"/>
</g>
<!-- node_1&#45;&#45;1_1 -->
<g id="edge102" class="edge"><title>node_1&#45;&#45;1_1</title>
<path fill="none" stroke="black" stroke-width="2" d="M539.275,-1047C521.252,-1049.21 500.987,-1051.7 485.227,-1053.63"/>
</g>
<!-- node_19 -->
<g id="node37" class="node"><title>node_19</title>
<ellipse fill="none" stroke="black" cx="278.402" cy="-1230.81" rx="52.8111" ry="18"/>
<text text-anchor="middle" x="278.402" y="-1226.71" font-family="Times Roman,serif" font-size="14.00">node_19</text>
</g>
<!-- 19_0&#45;&#45;node_19 -->
<g id="edge106" class="edge"><title>19_0&#45;&#45;node_19</title>
<path fill="none" stroke="black" stroke-width="2" d="M324.742,-1126.42C314.465,-1149.57 296.75,-1189.48 286.456,-1212.67"/>
</g>
<!-- 19_0&#45;&#45;1_1 -->
<g id="edge104" class="edge"><title>19_0&#45;&#45;1_1</title>
<path fill="none" stroke="grey" stroke-width="5" stroke-dasharray="1,5" d="M359.985,-1097.2C381.027,-1088.58 410.018,-1076.7 431.047,-1068.08"/>
</g>
<!-- 15_0&#45;&#45;node_15 -->
<g id="edge108" class="edge"><title>15_0&#45;&#45;node_15</title>
<path fill="none" stroke="black" stroke-width="2" d="M381.522,-539.964C380.877,-562.892 379.775,-602.056 379.128,-625.042"/>
</g>
<!-- node_10&#45;&#45;10_0 -->
<g id="edge110" class="edge"><title>node_10&#45;&#45;10_0</title>
<path fill="none" stroke="black" stroke-width="2" d="M951.987,-810.946C925.394,-814.863 893.46,-819.566 871.249,-822.838"/>
</g>
</g>
</svg>
