<?xml version="1.0" encoding="UTF-8" standalone="no"?>
<!DOCTYPE svg PUBLIC "-//W3C//DTD SVG 1.1//EN"
 "http://www.w3.org/Graphics/SVG/1.1/DTD/svg11.dtd">
<!-- Generated by graphviz version 2.26.3 (20100126.1600)
 -->
<!-- Title: G Pages: 1 -->
<svg width="1896pt" height="2310pt"
 viewBox="0.00 0.00 1896.00 2310.00" xmlns="http://www.w3.org/2000/svg" xmlns:xlink="http://www.w3.org/1999/xlink">
<g id="graph1" class="graph" transform="scale(1 1) rotate(0) translate(4 2306)">
<title>G</title>
<polygon fill="white" stroke="white" points="-4,5 -4,-2306 1893,-2306 1893,5 -4,5"/>
<!-- ece55574a4d5 -->
<g id="node1" class="node"><title>ece55574a4d5</title>
<ellipse fill="none" stroke="black" cx="1332.04" cy="-2166.32" rx="82.1898" ry="18"/>
<text text-anchor="middle" x="1332.04" y="-2162.22" font-family="Times Roman,serif" font-size="14.00">ece55574a4d5</text>
</g>
<!-- ece555ffd61e -->
<g id="node17" class="node"><title>ece555ffd61e</title>
<polygon fill="none" stroke="black" points="1229.46,-2051.57 1119.46,-2051.57 1119.46,-2015.57 1229.46,-2015.57 1229.46,-2051.57"/>
<text text-anchor="middle" x="1174.46" y="-2029.47" font-family="Times Roman,serif" font-size="14.00">ece555ffd61e</text>
</g>
<!-- ece55574a4d5&#45;&#45;ece555ffd61e -->
<g id="edge2" class="edge"><title>ece55574a4d5&#45;&#45;ece555ffd61e</title>
<path fill="none" stroke="black" stroke-width="2" d="M1311.12,-2148.69C1281.15,-2123.44 1226.28,-2077.22 1195.98,-2051.69"/>
</g>
<!-- ece555ffd6cc -->
<g id="node27" class="node"><title>ece555ffd6cc</title>
<polygon fill="none" stroke="black" points="1547.42,-2300.98 1441.42,-2300.98 1441.42,-2264.98 1547.42,-2264.98 1547.42,-2300.98"/>
<text text-anchor="middle" x="1494.42" y="-2278.88" font-family="Times Roman,serif" font-size="14.00">ece555ffd6cc</text>
</g>
<!-- ece55574a4d5&#45;&#45;ece555ffd6cc -->
<g id="edge4" class="edge"><title>ece55574a4d5&#45;&#45;ece555ffd6cc</title>
<path fill="none" stroke="black" stroke-width="2" d="M1356.35,-2183.78C1386.7,-2205.59 1438.35,-2242.7 1469.14,-2264.82"/>
</g>
<!-- ece555ffd650 -->
<g id="node2" class="node"><title>ece555ffd650</title>
<polygon fill="none" stroke="black" points="1887,-156.488 1775,-156.488 1775,-120.488 1887,-120.488 1887,-156.488"/>
<text text-anchor="middle" x="1831" y="-134.388" font-family="Times Roman,serif" font-size="14.00">ece555ffd650</text>
</g>
<!-- ece555748695 -->
<g id="node32" class="node"><title>ece555748695</title>
<ellipse fill="none" stroke="black" cx="1638.11" cy="-162.731" rx="84.0808" ry="18"/>
<text text-anchor="middle" x="1638.11" y="-158.631" font-family="Times Roman,serif" font-size="14.00">ece555748695</text>
</g>
<!-- ece555ffd650&#45;&#45;ece555748695 -->
<g id="edge6" class="edge"><title>ece555ffd650&#45;&#45;ece555748695</title>
<path fill="none" stroke="black" stroke-width="2" d="M1774.95,-145.533C1754.93,-148.049 1732.07,-150.922 1710.85,-153.589"/>
</g>
<!-- 00a0571c363f -->
<g id="node3" class="node"><title>00a0571c363f</title>
<polygon fill="none" stroke="black" points="698.314,-503.828 582.314,-503.828 582.314,-467.828 698.314,-467.828 698.314,-503.828"/>
<text text-anchor="middle" x="640.314" y="-481.728" font-family="Times Roman,serif" font-size="14.00">00a0571c363f</text>
</g>
<!-- 00a0571d6865 -->
<g id="node12" class="node"><title>00a0571d6865</title>
<ellipse fill="none" stroke="black" cx="428.428" cy="-460.67" rx="84.9707" ry="18"/>
<text text-anchor="middle" x="428.428" y="-456.57" font-family="Times Roman,serif" font-size="14.00">00a0571d6865</text>
</g>
<!-- 00a0571c363f&#45;&#45;00a0571d6865 -->
<g id="edge10" class="edge"><title>00a0571c363f&#45;&#45;00a0571d6865</title>
<path fill="none" stroke="black" stroke-width="2" d="M582.135,-478.92C557.632,-476.011 528.819,-472.59 502.801,-469.501"/>
</g>
<!-- ece555ffd5d6 -->
<g id="node26" class="node"><title>ece555ffd5d6</title>
<polygon fill="none" stroke="black" points="911.127,-522.326 801.127,-522.326 801.127,-486.326 911.127,-486.326 911.127,-522.326"/>
<text text-anchor="middle" x="856.127" y="-500.226" font-family="Times Roman,serif" font-size="14.00">ece555ffd5d6</text>
</g>
<!-- 00a0571c363f&#45;&#45;ece555ffd5d6 -->
<g id="edge8" class="edge"><title>00a0571c363f&#45;&#45;ece555ffd5d6</title>
<path fill="none" stroke="grey" stroke-width="5" stroke-dasharray="1,5" d="M698.432,-490.81C730.267,-493.538 769.508,-496.902 800.881,-499.591"/>
</g>
<!-- ece555ffd5da -->
<g id="node4" class="node"><title>ece555ffd5da</title>
<polygon fill="none" stroke="black" points="885.252,-1034.43 775.252,-1034.43 775.252,-998.434 885.252,-998.434 885.252,-1034.43"/>
<text text-anchor="middle" x="830.252" y="-1012.33" font-family="Times Roman,serif" font-size="14.00">ece555ffd5da</text>
</g>
<!-- 00a0571c3641 -->
<g id="node7" class="node"><title>00a0571c3641</title>
<polygon fill="none" stroke="black" points="1053.11,-1126.61 931.109,-1126.61 931.109,-1090.61 1053.11,-1090.61 1053.11,-1126.61"/>
<text text-anchor="middle" x="992.109" y="-1104.51" font-family="Times Roman,serif" font-size="14.00">00a0571c3641</text>
</g>
<!-- ece555ffd5da&#45;&#45;00a0571c3641 -->
<g id="edge14" class="edge"><title>ece555ffd5da&#45;&#45;00a0571c3641</title>
<path fill="none" stroke="grey" stroke-width="5" stroke-dasharray="1,5" d="M862.23,-1034.64C890.698,-1050.86 932.11,-1074.44 960.474,-1090.59"/>
</g>
<!-- ece55571dcd0 -->
<g id="node19" class="node"><title>ece55571dcd0</title>
<ellipse fill="none" stroke="black" cx="762.002" cy="-839.718" rx="80.8024" ry="18"/>
<text text-anchor="middle" x="762.002" y="-835.618" font-family="Times Roman,serif" font-size="14.00">ece55571dcd0</text>
</g>
<!-- ece555ffd5da&#45;&#45;ece55571dcd0 -->
<g id="edge16" class="edge"><title>ece555ffd5da&#45;&#45;ece55571dcd0</title>
<path fill="none" stroke="black" stroke-width="2" d="M823.205,-998.188C810.093,-964.237 782.094,-891.74 769.01,-857.864"/>
</g>
<!-- 00a0571de372 -->
<g id="node31" class="node"><title>00a0571de372</title>
<polygon fill="none" stroke="black" points="747.74,-1133.88 625.74,-1133.88 625.74,-1097.88 747.74,-1097.88 747.74,-1133.88"/>
<text text-anchor="middle" x="686.74" y="-1111.78" font-family="Times Roman,serif" font-size="14.00">00a0571de372</text>
</g>
<!-- ece555ffd5da&#45;&#45;00a0571de372 -->
<g id="edge12" class="edge"><title>ece555ffd5da&#45;&#45;00a0571de372</title>
<path fill="none" stroke="grey" stroke-width="5" stroke-dasharray="1,5" d="M804.263,-1034.44C778.415,-1052.35 738.97,-1079.69 713.02,-1097.67"/>
</g>
<!-- ece555ffd5bf -->
<g id="node5" class="node"><title>ece555ffd5bf</title>
<polygon fill="none" stroke="black" points="1014.56,-699.885 908.56,-699.885 908.56,-663.885 1014.56,-663.885 1014.56,-699.885"/>
<text text-anchor="middle" x="961.56" y="-677.785" font-family="Times Roman,serif" font-size="14.00">ece555ffd5bf</text>
</g>
<!-- ece55571dca0 -->
<g id="node9" class="node"><title>ece55571dca0</title>
<ellipse fill="none" stroke="black" cx="1042.29" cy="-889.208" rx="80.8024" ry="18"/>
<text text-anchor="middle" x="1042.29" y="-885.108" font-family="Times Roman,serif" font-size="14.00">ece55571dca0</text>
</g>
<!-- ece555ffd5bf&#45;&#45;ece55571dca0 -->
<g id="edge20" class="edge"><title>ece555ffd5bf&#45;&#45;ece55571dca0</title>
<path fill="none" stroke="black" stroke-width="2" d="M968.583,-699.921C983.851,-739.131 1019.92,-831.761 1035.23,-871.066"/>
</g>
<!-- ece555ffd5bf&#45;&#45;ece555ffd5d6 -->
<g id="edge18" class="edge"><title>ece555ffd5bf&#45;&#45;ece555ffd5d6</title>
<path fill="none" stroke="grey" stroke-width="5" stroke-dasharray="1,5" d="M950.87,-663.883C930.662,-629.851 887.075,-556.445 866.845,-522.376"/>
</g>
<!-- 00a0571c3501 -->
<g id="node6" class="node"><title>00a0571c3501</title>
<polygon fill="none" stroke="black" points="1429.98,-1315.72 1307.98,-1315.72 1307.98,-1279.72 1429.98,-1279.72 1429.98,-1315.72"/>
<text text-anchor="middle" x="1368.98" y="-1293.62" font-family="Times Roman,serif" font-size="14.00">00a0571c3501</text>
</g>
<!-- 00a0571d6864 -->
<g id="node11" class="node"><title>00a0571d6864</title>
<ellipse fill="none" stroke="black" cx="1185.13" cy="-1208.95" rx="84.9707" ry="18"/>
<text text-anchor="middle" x="1185.13" y="-1204.85" font-family="Times Roman,serif" font-size="14.00">00a0571d6864</text>
</g>
<!-- 00a0571c3501&#45;&#45;00a0571d6864 -->
<g id="edge22" class="edge"><title>00a0571c3501&#45;&#45;00a0571d6864</title>
<path fill="none" stroke="black" stroke-width="2" d="M1331.33,-1279.54C1298.45,-1263.67 1251.13,-1240.82 1219.32,-1225.45"/>
</g>
<!-- 00a0571c3641&#45;&#45;00a0571d6864 -->
<g id="edge24" class="edge"><title>00a0571c3641&#45;&#45;00a0571d6864</title>
<path fill="none" stroke="black" stroke-width="2" d="M1027.06,-1126.78C1062.91,-1145.41 1118.21,-1174.16 1153,-1192.24"/>
</g>
<!-- 00a0571c373e -->
<g id="node8" class="node"><title>00a0571c373e</title>
<polygon fill="none" stroke="black" points="822.352,-459.761 702.352,-459.761 702.352,-423.761 822.352,-423.761 822.352,-459.761"/>
<text text-anchor="middle" x="762.352" y="-437.661" font-family="Times Roman,serif" font-size="14.00">00a0571c373e</text>
</g>
<!-- ece555ffd5c1 -->
<g id="node10" class="node"><title>ece555ffd5c1</title>
<polygon fill="none" stroke="black" points="765.23,-649.125 655.23,-649.125 655.23,-613.125 765.23,-613.125 765.23,-649.125"/>
<text text-anchor="middle" x="710.23" y="-627.025" font-family="Times Roman,serif" font-size="14.00">ece555ffd5c1</text>
</g>
<!-- 00a0571c373e&#45;&#45;ece555ffd5c1 -->
<g id="edge26" class="edge"><title>00a0571c373e&#45;&#45;ece555ffd5c1</title>
<path fill="none" stroke="grey" stroke-width="5" stroke-dasharray="1,5" d="M757.354,-459.918C747.391,-496.113 725.163,-576.873 715.213,-613.023"/>
</g>
<!-- 00a0571d6867 -->
<g id="node13" class="node"><title>00a0571d6867</title>
<ellipse fill="none" stroke="black" cx="794.375" cy="-219.191" rx="84.9707" ry="18"/>
<text text-anchor="middle" x="794.375" y="-215.091" font-family="Times Roman,serif" font-size="14.00">00a0571d6867</text>
</g>
<!-- 00a0571c373e&#45;&#45;00a0571d6867 -->
<g id="edge28" class="edge"><title>00a0571c373e&#45;&#45;00a0571d6867</title>
<path fill="none" stroke="black" stroke-width="2" d="M764.972,-423.547C770.992,-381.707 785.752,-279.125 791.763,-237.344"/>
</g>
<!-- ece555ffd5af -->
<g id="node28" class="node"><title>ece555ffd5af</title>
<polygon fill="none" stroke="black" points="1105.03,-953.005 999.028,-953.005 999.028,-917.005 1105.03,-917.005 1105.03,-953.005"/>
<text text-anchor="middle" x="1052.03" y="-930.905" font-family="Times Roman,serif" font-size="14.00">ece555ffd5af</text>
</g>
<!-- ece55571dca0&#45;&#45;ece555ffd5af -->
<g id="edge30" class="edge"><title>ece55571dca0&#45;&#45;ece555ffd5af</title>
<path fill="none" stroke="black" stroke-width="2" d="M1046.14,-907.308C1046.8,-910.409 1047.48,-913.632 1048.14,-916.736"/>
</g>
<!-- ece555ffd5c1&#45;&#45;ece55571dcd0 -->
<g id="edge32" class="edge"><title>ece555ffd5c1&#45;&#45;ece55571dcd0</title>
<path fill="none" stroke="black" stroke-width="2" d="M714.734,-649.271C724.525,-688.721 747.656,-781.918 757.472,-821.465"/>
</g>
<!-- 00a0571c3511 -->
<g id="node21" class="node"><title>00a0571c3511</title>
<polygon fill="none" stroke="black" points="594.772,-635.184 472.772,-635.184 472.772,-599.184 594.772,-599.184 594.772,-635.184"/>
<text text-anchor="middle" x="533.772" y="-613.084" font-family="Times Roman,serif" font-size="14.00">00a0571c3511</text>
</g>
<!-- ece555ffd5c1&#45;&#45;00a0571c3511 -->
<g id="edge34" class="edge"><title>ece555ffd5c1&#45;&#45;00a0571c3511</title>
<path fill="none" stroke="grey" stroke-width="5" stroke-dasharray="1,5" d="M654.882,-626.752C635.88,-625.251 614.504,-623.562 595.059,-622.026"/>
</g>
<!-- 00a0571d6865&#45;&#45;00a0571c3511 -->
<g id="edge36" class="edge"><title>00a0571d6865&#45;&#45;00a0571c3511</title>
<path fill="none" stroke="black" stroke-width="2" d="M440.512,-478.625C460.725,-508.655 501.17,-568.746 521.504,-598.957"/>
</g>
<!-- 00a0571c3732 -->
<g id="node33" class="node"><title>00a0571c3732</title>
<polygon fill="none" stroke="black" points="910.588,-36.9992 788.588,-36.9992 788.588,-0.999179 910.588,-0.999179 910.588,-36.9992"/>
<text text-anchor="middle" x="849.588" y="-14.8992" font-family="Times Roman,serif" font-size="14.00">00a0571c3732</text>
</g>
<!-- 00a0571d6867&#45;&#45;00a0571c3732 -->
<g id="edge38" class="edge"><title>00a0571d6867&#45;&#45;00a0571c3732</title>
<path fill="none" stroke="black" stroke-width="2" d="M799.373,-201.072C809.858,-163.054 834.053,-75.3291 844.563,-37.2212"/>
</g>
<!-- 00a0571c2c44 -->
<g id="node14" class="node"><title>00a0571c2c44</title>
<polygon fill="none" stroke="black" points="119.23,-1626.3 1.22971,-1626.3 1.22971,-1590.3 119.23,-1590.3 119.23,-1626.3"/>
<text text-anchor="middle" x="60.2297" y="-1604.2" font-family="Times Roman,serif" font-size="14.00">00a0571c2c44</text>
</g>
<!-- 00a0571da012 -->
<g id="node15" class="node"><title>00a0571da012</title>
<ellipse fill="none" stroke="black" cx="245.744" cy="-1527.89" rx="84.7756" ry="18"/>
<text text-anchor="middle" x="245.744" y="-1523.79" font-family="Times Roman,serif" font-size="14.00">00a0571da012</text>
</g>
<!-- 00a0571c2c44&#45;&#45;00a0571da012 -->
<g id="edge40" class="edge"><title>00a0571c2c44&#45;&#45;00a0571da012</title>
<path fill="none" stroke="black" stroke-width="2" d="M101.863,-1590.25C133.804,-1576.41 177.508,-1557.47 208.342,-1544.1"/>
</g>
<!-- 00a0571c2c0d -->
<g id="node18" class="node"><title>00a0571c2c0d</title>
<polygon fill="none" stroke="black" points="514.711,-1455.55 396.711,-1455.55 396.711,-1419.55 514.711,-1419.55 514.711,-1455.55"/>
<text text-anchor="middle" x="455.711" y="-1433.45" font-family="Times Roman,serif" font-size="14.00">00a0571c2c0d</text>
</g>
<!-- 00a0571da012&#45;&#45;00a0571c2c0d -->
<g id="edge42" class="edge"><title>00a0571da012&#45;&#45;00a0571c2c0d</title>
<path fill="none" stroke="black" stroke-width="2" d="M283.282,-1511.74C319.966,-1495.96 375.705,-1471.97 413.814,-1455.57"/>
</g>
<!-- ece55571dd00 -->
<g id="node16" class="node"><title>ece55571dd00</title>
<ellipse fill="none" stroke="black" cx="1048.26" cy="-378.692" rx="82.1898" ry="18"/>
<text text-anchor="middle" x="1048.26" y="-374.592" font-family="Times Roman,serif" font-size="14.00">ece55571dd00</text>
</g>
<!-- ece55571dd00&#45;&#45;ece555ffd5d6 -->
<g id="edge46" class="edge"><title>ece55571dd00&#45;&#45;ece555ffd5d6</title>
<path fill="none" stroke="black" stroke-width="2" d="M1021.95,-395.898C985.669,-419.62 920.593,-462.173 883.674,-486.314"/>
</g>
<!-- ece555ffd5b9 -->
<g id="node30" class="node"><title>ece555ffd5b9</title>
<polygon fill="none" stroke="black" points="1312.29,-293.177 1202.29,-293.177 1202.29,-257.177 1312.29,-257.177 1312.29,-293.177"/>
<text text-anchor="middle" x="1257.29" y="-271.077" font-family="Times Roman,serif" font-size="14.00">ece555ffd5b9</text>
</g>
<!-- ece55571dd00&#45;&#45;ece555ffd5b9 -->
<g id="edge44" class="edge"><title>ece55571dd00&#45;&#45;ece555ffd5b9</title>
<path fill="none" stroke="black" stroke-width="2" d="M1081.85,-362.061C1119.81,-343.258 1181.43,-312.745 1220.62,-293.335"/>
</g>
<!-- ece555ffd642 -->
<g id="node20" class="node"><title>ece555ffd642</title>
<polygon fill="none" stroke="black" points="1085.14,-1910.43 973.14,-1910.43 973.14,-1874.43 1085.14,-1874.43 1085.14,-1910.43"/>
<text text-anchor="middle" x="1029.14" y="-1888.33" font-family="Times Roman,serif" font-size="14.00">ece555ffd642</text>
</g>
<!-- ece555ffd61e&#45;&#45;ece555ffd642 -->
<g id="edge48" class="edge"><title>ece555ffd61e&#45;&#45;ece555ffd642</title>
<path fill="none" stroke="grey" stroke-width="5" stroke-dasharray="1,5" d="M1155.76,-2015.4C1127.86,-1988.3 1075.63,-1937.58 1047.77,-1910.53"/>
</g>
<!-- 00a0571de370 -->
<g id="node29" class="node"><title>00a0571de370</title>
<polygon fill="none" stroke="black" points="702.443,-1373.82 580.443,-1373.82 580.443,-1337.82 702.443,-1337.82 702.443,-1373.82"/>
<text text-anchor="middle" x="641.443" y="-1351.72" font-family="Times Roman,serif" font-size="14.00">00a0571de370</text>
</g>
<!-- 00a0571c2c0d&#45;&#45;00a0571de370 -->
<g id="edge50" class="edge"><title>00a0571c2c0d&#45;&#45;00a0571de370</title>
<path fill="none" stroke="grey" stroke-width="5" stroke-dasharray="1,5" d="M496.931,-1419.41C527.71,-1405.87 569.587,-1387.44 600.338,-1373.91"/>
</g>
<!-- ece55574a4a5 -->
<g id="node23" class="node"><title>ece55574a4a5</title>
<ellipse fill="none" stroke="black" cx="885.223" cy="-1728.01" rx="82.1898" ry="18"/>
<text text-anchor="middle" x="885.223" y="-1723.91" font-family="Times Roman,serif" font-size="14.00">ece55574a4a5</text>
</g>
<!-- ece555ffd642&#45;&#45;ece55574a4a5 -->
<g id="edge52" class="edge"><title>ece555ffd642&#45;&#45;ece55574a4a5</title>
<path fill="none" stroke="black" stroke-width="2" d="M1013.19,-1874.21C985.379,-1842.44 928.36,-1777.29 900.808,-1745.81"/>
</g>
<!-- ece555ffd63a -->
<g id="node22" class="node"><title>ece555ffd63a</title>
<polygon fill="none" stroke="black" points="1482.79,-230.501 1372.79,-230.501 1372.79,-194.501 1482.79,-194.501 1482.79,-230.501"/>
<text text-anchor="middle" x="1427.79" y="-208.401" font-family="Times Roman,serif" font-size="14.00">ece555ffd63a</text>
</g>
<!-- ece555ffd63a&#45;&#45;ece555ffd5b9 -->
<g id="edge54" class="edge"><title>ece555ffd63a&#45;&#45;ece555ffd5b9</title>
<path fill="none" stroke="grey" stroke-width="5" stroke-dasharray="1,5" d="M1378.48,-230.63C1355.86,-238.945 1329.1,-248.779 1306.5,-257.089"/>
</g>
<!-- ece555ffd63a&#45;&#45;ece555748695 -->
<g id="edge56" class="edge"><title>ece555ffd63a&#45;&#45;ece555748695</title>
<path fill="none" stroke="black" stroke-width="2" d="M1483.05,-199.425C1513.36,-192.253 1550.86,-183.378 1581.39,-176.153"/>
</g>
<!-- ece555ffd667 -->
<g id="node25" class="node"><title>ece555ffd667</title>
<polygon fill="none" stroke="black" points="799.442,-1550.04 687.442,-1550.04 687.442,-1514.04 799.442,-1514.04 799.442,-1550.04"/>
<text text-anchor="middle" x="743.442" y="-1527.94" font-family="Times Roman,serif" font-size="14.00">ece555ffd667</text>
</g>
<!-- ece55574a4a5&#45;&#45;ece555ffd667 -->
<g id="edge58" class="edge"><title>ece55574a4a5&#45;&#45;ece555ffd667</title>
<path fill="none" stroke="black" stroke-width="2" d="M872.139,-1709.92C845.129,-1672.59 783.477,-1587.37 756.494,-1550.08"/>
</g>
<!-- 00a0571da270 -->
<g id="node24" class="node"><title>00a0571da270</title>
<ellipse fill="none" stroke="black" cx="653.867" cy="-1302.12" rx="84.7756" ry="18"/>
<text text-anchor="middle" x="653.867" y="-1298.02" font-family="Times Roman,serif" font-size="14.00">00a0571da270</text>
</g>
<!-- 00a0571da270&#45;&#45;00a0571de370 -->
<g id="edge60" class="edge"><title>00a0571da270&#45;&#45;00a0571de370</title>
<path fill="none" stroke="black" stroke-width="2" d="M649.661,-1320.3C648.366,-1325.9 646.94,-1332.06 645.645,-1337.66"/>
</g>
<!-- 00a0571da270&#45;&#45;00a0571de372 -->
<g id="edge62" class="edge"><title>00a0571da270&#45;&#45;00a0571de372</title>
<path fill="none" stroke="black" stroke-width="2" d="M657.079,-1283.92C663.363,-1248.32 677.22,-1169.81 683.515,-1134.15"/>
</g>
<!-- ece555ffd667&#45;&#45;00a0571de370 -->
<g id="edge64" class="edge"><title>ece555ffd667&#45;&#45;00a0571de370</title>
<path fill="none" stroke="grey" stroke-width="5" stroke-dasharray="1,5" d="M732.91,-1513.84C713.314,-1479.99 671.47,-1407.7 651.917,-1373.92"/>
</g>
</g>
</svg>
