<?xml version="1.0" encoding="UTF-8" standalone="no"?>
<!DOCTYPE svg PUBLIC "-//W3C//DTD SVG 1.1//EN"
 "http://www.w3.org/Graphics/SVG/1.1/DTD/svg11.dtd">
<!-- Generated by graphviz version 2.26.3 (20100126.1600)
 -->
<!-- Title: G Pages: 1 -->
<svg width="664pt" height="1005pt"
 viewBox="0.00 0.00 664.00 1005.00" xmlns="http://www.w3.org/2000/svg" xmlns:xlink="http://www.w3.org/1999/xlink">
<g id="graph1" class="graph" transform="scale(1 1) rotate(0) translate(4 1001)">
<title>G</title>
<polygon fill="white" stroke="white" points="-4,5 -4,-1001 661,-1001 661,5 -4,5"/>
<!-- 3_1 -->
<g id="node1" class="node"><title>3_1</title>
<polygon fill="none" stroke="black" points="258.707,-587.422 204.707,-587.422 204.707,-551.422 258.707,-551.422 258.707,-587.422"/>
<text text-anchor="middle" x="231.707" y="-565.322" font-family="Times Roman,serif" font-size="14.00">3_1</text>
</g>
<!-- node_3 -->
<g id="node9" class="node"><title>node_3</title>
<ellipse fill="none" stroke="black" cx="272.803" cy="-430.2" rx="46.0565" ry="18"/>
<text text-anchor="middle" x="272.803" y="-426.1" font-family="Times Roman,serif" font-size="14.00">node_3</text>
</g>
<!-- 3_1&#45;&#45;node_3 -->
<g id="edge4" class="edge"><title>3_1&#45;&#45;node_3</title>
<path fill="none" stroke="black" stroke-width="2" d="M237.08,-551.221C244.956,-524.539 259.552,-475.089 267.429,-448.405"/>
</g>
<!-- 4_0 -->
<g id="node18" class="node"><title>4_0</title>
<polygon fill="none" stroke="black" points="323.048,-694.434 269.048,-694.434 269.048,-658.434 323.048,-658.434 323.048,-694.434"/>
<text text-anchor="middle" x="296.048" y="-672.334" font-family="Times Roman,serif" font-size="14.00">4_0</text>
</g>
<!-- 3_1&#45;&#45;4_0 -->
<g id="edge2" class="edge"><title>3_1&#45;&#45;4_0</title>
<path fill="none" stroke="grey" stroke-width="5" stroke-dasharray="1,5" d="M242.622,-587.575C254.453,-607.253 273.227,-638.479 285.08,-658.191"/>
</g>
<!-- 3_0 -->
<g id="node2" class="node"><title>3_0</title>
<polygon fill="none" stroke="black" points="437.23,-498.89 383.23,-498.89 383.23,-462.89 437.23,-462.89 437.23,-498.89"/>
<text text-anchor="middle" x="410.23" y="-476.79" font-family="Times Roman,serif" font-size="14.00">3_0</text>
</g>
<!-- 6_1 -->
<g id="node4" class="node"><title>6_1</title>
<polygon fill="none" stroke="black" points="547.216,-504.601 493.216,-504.601 493.216,-468.601 547.216,-468.601 547.216,-504.601"/>
<text text-anchor="middle" x="520.216" y="-482.501" font-family="Times Roman,serif" font-size="14.00">6_1</text>
</g>
<!-- 3_0&#45;&#45;6_1 -->
<g id="edge10" class="edge"><title>3_0&#45;&#45;6_1</title>
<path fill="none" stroke="grey" stroke-width="5" stroke-dasharray="1,5" d="M437.418,-482.302C454.339,-483.181 476.026,-484.307 492.96,-485.186"/>
</g>
<!-- 2_0 -->
<g id="node5" class="node"><title>2_0</title>
<polygon fill="none" stroke="black" points="495.977,-604.952 441.977,-604.952 441.977,-568.952 495.977,-568.952 495.977,-604.952"/>
<text text-anchor="middle" x="468.977" y="-582.852" font-family="Times Roman,serif" font-size="14.00">2_0</text>
</g>
<!-- 3_0&#45;&#45;2_0 -->
<g id="edge6" class="edge"><title>3_0&#45;&#45;2_0</title>
<path fill="none" stroke="grey" stroke-width="5" stroke-dasharray="1,5" d="M420.463,-499.365C431.246,-518.832 448.123,-549.303 458.862,-568.689"/>
</g>
<!-- 3_0&#45;&#45;node_3 -->
<g id="edge8" class="edge"><title>3_0&#45;&#45;node_3</title>
<path fill="none" stroke="black" stroke-width="2" d="M383.079,-470.876C361.098,-462.768 330.028,-451.308 306.467,-442.617"/>
</g>
<!-- 6_0 -->
<g id="node3" class="node"><title>6_0</title>
<polygon fill="none" stroke="black" points="494.824,-387.644 440.824,-387.644 440.824,-351.644 494.824,-351.644 494.824,-387.644"/>
<text text-anchor="middle" x="467.824" y="-365.544" font-family="Times Roman,serif" font-size="14.00">6_0</text>
</g>
<!-- node_6 -->
<g id="node6" class="node"><title>node_6</title>
<ellipse fill="none" stroke="black" cx="603.044" cy="-385.749" rx="46.0565" ry="18"/>
<text text-anchor="middle" x="603.044" y="-381.649" font-family="Times Roman,serif" font-size="14.00">node_6</text>
</g>
<!-- 6_0&#45;&#45;node_6 -->
<g id="edge12" class="edge"><title>6_0&#45;&#45;node_6</title>
<path fill="none" stroke="black" stroke-width="2" d="M494.863,-372.864C513.206,-375.049 537.871,-377.987 559.018,-380.505"/>
</g>
<!-- 1_1 -->
<g id="node16" class="node"><title>1_1</title>
<polygon fill="none" stroke="black" points="445.577,-290.918 391.577,-290.918 391.577,-254.918 445.577,-254.918 445.577,-290.918"/>
<text text-anchor="middle" x="418.577" y="-268.818" font-family="Times Roman,serif" font-size="14.00">1_1</text>
</g>
<!-- 6_0&#45;&#45;1_1 -->
<g id="edge16" class="edge"><title>6_0&#45;&#45;1_1</title>
<path fill="none" stroke="grey" stroke-width="5" stroke-dasharray="1,5" d="M458.561,-351.45C449.757,-334.157 436.59,-308.296 427.799,-291.03"/>
</g>
<!-- 7_0 -->
<g id="node20" class="node"><title>7_0</title>
<polygon fill="none" stroke="black" points="364.708,-391.152 310.708,-391.152 310.708,-355.152 364.708,-355.152 364.708,-391.152"/>
<text text-anchor="middle" x="337.708" y="-369.052" font-family="Times Roman,serif" font-size="14.00">7_0</text>
</g>
<!-- 6_0&#45;&#45;7_0 -->
<g id="edge14" class="edge"><title>6_0&#45;&#45;7_0</title>
<path fill="none" stroke="grey" stroke-width="5" stroke-dasharray="1,5" d="M440.548,-370.379C418.341,-370.978 387.146,-371.819 364.949,-372.418"/>
</g>
<!-- 6_1&#45;&#45;2_0 -->
<g id="edge18" class="edge"><title>6_1&#45;&#45;2_0</title>
<path fill="none" stroke="grey" stroke-width="5" stroke-dasharray="1,5" d="M510.818,-505.007C501.573,-523.114 487.54,-550.597 478.316,-568.663"/>
</g>
<!-- 6_1&#45;&#45;node_6 -->
<g id="edge20" class="edge"><title>6_1&#45;&#45;node_6</title>
<path fill="none" stroke="black" stroke-width="2" d="M535.024,-468.571C550.286,-449.987 573.909,-421.224 588.917,-402.95"/>
</g>
<!-- node_2 -->
<g id="node10" class="node"><title>node_2</title>
<ellipse fill="none" stroke="black" cx="608.857" cy="-624.553" rx="46.0565" ry="18"/>
<text text-anchor="middle" x="608.857" y="-620.453" font-family="Times Roman,serif" font-size="14.00">node_2</text>
</g>
<!-- 2_0&#45;&#45;node_2 -->
<g id="edge26" class="edge"><title>2_0&#45;&#45;node_2</title>
<path fill="none" stroke="black" stroke-width="2" d="M496.28,-594.291C517.508,-599.997 547.211,-607.982 570.776,-614.316"/>
</g>
<!-- 5_1 -->
<g id="node14" class="node"><title>5_1</title>
<polygon fill="none" stroke="black" points="442.867,-720.275 388.867,-720.275 388.867,-684.275 442.867,-684.275 442.867,-720.275"/>
<text text-anchor="middle" x="415.867" y="-698.175" font-family="Times Roman,serif" font-size="14.00">5_1</text>
</g>
<!-- 2_0&#45;&#45;5_1 -->
<g id="edge22" class="edge"><title>2_0&#45;&#45;5_1</title>
<path fill="none" stroke="grey" stroke-width="5" stroke-dasharray="1,5" d="M460.679,-604.971C450.759,-626.51 434.253,-662.351 424.282,-684.002"/>
</g>
<!-- 0_0 -->
<g id="node21" class="node"><title>0_0</title>
<polygon fill="none" stroke="black" points="392.621,-615.239 338.621,-615.239 338.621,-579.239 392.621,-579.239 392.621,-615.239"/>
<text text-anchor="middle" x="365.621" y="-593.139" font-family="Times Roman,serif" font-size="14.00">0_0</text>
</g>
<!-- 2_0&#45;&#45;0_0 -->
<g id="edge24" class="edge"><title>2_0&#45;&#45;0_0</title>
<path fill="none" stroke="grey" stroke-width="5" stroke-dasharray="1,5" d="M441.822,-589.655C426.75,-591.155 408.055,-593.016 392.954,-594.519"/>
</g>
<!-- node_5 -->
<g id="node7" class="node"><title>node_5</title>
<ellipse fill="none" stroke="black" cx="431.445" cy="-850.839" rx="46.0565" ry="18"/>
<text text-anchor="middle" x="431.445" y="-846.739" font-family="Times Roman,serif" font-size="14.00">node_5</text>
</g>
<!-- node_5&#45;&#45;5_1 -->
<g id="edge28" class="edge"><title>node_5&#45;&#45;5_1</title>
<path fill="none" stroke="black" stroke-width="2" d="M429.535,-832.623C426.545,-804.109 420.792,-749.246 417.793,-720.641"/>
</g>
<!-- 5_0 -->
<g id="node15" class="node"><title>5_0</title>
<polygon fill="none" stroke="black" points="446.166,-996.335 392.166,-996.335 392.166,-960.335 446.166,-960.335 446.166,-996.335"/>
<text text-anchor="middle" x="419.166" y="-974.235" font-family="Times Roman,serif" font-size="14.00">5_0</text>
</g>
<!-- node_5&#45;&#45;5_0 -->
<g id="edge30" class="edge"><title>node_5&#45;&#45;5_0</title>
<path fill="none" stroke="black" stroke-width="2" d="M429.712,-868.836C427.385,-892.998 423.273,-935.692 420.93,-960.017"/>
</g>
<!-- node_4 -->
<g id="node8" class="node"><title>node_4</title>
<ellipse fill="none" stroke="black" cx="223.909" cy="-787.037" rx="46.0565" ry="18"/>
<text text-anchor="middle" x="223.909" y="-782.937" font-family="Times Roman,serif" font-size="14.00">node_4</text>
</g>
<!-- node_4&#45;&#45;4_0 -->
<g id="edge32" class="edge"><title>node_4&#45;&#45;4_0</title>
<path fill="none" stroke="black" stroke-width="2" d="M235.499,-769.267C248.881,-748.749 270.775,-715.181 284.246,-694.527"/>
</g>
<!-- node_1 -->
<g id="node11" class="node"><title>node_1</title>
<ellipse fill="none" stroke="black" cx="460.131" cy="-140.513" rx="46.0565" ry="18"/>
<text text-anchor="middle" x="460.131" y="-136.413" font-family="Times Roman,serif" font-size="14.00">node_1</text>
</g>
<!-- node_1&#45;&#45;1_1 -->
<g id="edge34" class="edge"><title>node_1&#45;&#45;1_1</title>
<path fill="none" stroke="black" stroke-width="2" d="M454.441,-158.646C446.527,-183.859 432.28,-229.256 424.333,-254.579"/>
</g>
<!-- 1_0 -->
<g id="node17" class="node"><title>1_0</title>
<polygon fill="none" stroke="black" points="522.04,-36.6602 468.04,-36.6602 468.04,-0.66022 522.04,-0.66022 522.04,-36.6602"/>
<text text-anchor="middle" x="495.04" y="-14.5602" font-family="Times Roman,serif" font-size="14.00">1_0</text>
</g>
<!-- node_1&#45;&#45;1_0 -->
<g id="edge36" class="edge"><title>node_1&#45;&#45;1_0</title>
<path fill="none" stroke="black" stroke-width="2" d="M465.282,-122.533C471.882,-99.4949 483.258,-59.7876 489.868,-36.7138"/>
</g>
<!-- node_0 -->
<g id="node12" class="node"><title>node_0</title>
<ellipse fill="none" stroke="black" cx="262.167" cy="-518.301" rx="46.0565" ry="18"/>
<text text-anchor="middle" x="262.167" y="-514.201" font-family="Times Roman,serif" font-size="14.00">node_0</text>
</g>
<!-- node_0&#45;&#45;0_0 -->
<g id="edge38" class="edge"><title>node_0&#45;&#45;0_0</title>
<path fill="none" stroke="black" stroke-width="2" d="M283.352,-534.466C300.377,-547.456 324.28,-565.694 341.935,-579.166"/>
</g>
<!-- node_7 -->
<g id="node13" class="node"><title>node_7</title>
<ellipse fill="none" stroke="black" cx="167.512" cy="-404.458" rx="46.0565" ry="18"/>
<text text-anchor="middle" x="167.512" y="-400.358" font-family="Times Roman,serif" font-size="14.00">node_7</text>
</g>
<!-- 7_1 -->
<g id="node19" class="node"><title>7_1</title>
<polygon fill="none" stroke="black" points="55.125,-437.357 1.12503,-437.357 1.12503,-401.357 55.125,-401.357 55.125,-437.357"/>
<text text-anchor="middle" x="28.125" y="-415.257" font-family="Times Roman,serif" font-size="14.00">7_1</text>
</g>
<!-- node_7&#45;&#45;7_1 -->
<g id="edge40" class="edge"><title>node_7&#45;&#45;7_1</title>
<path fill="none" stroke="black" stroke-width="2" d="M123.026,-409.213C100.717,-411.598 74.4265,-414.408 55.181,-416.465"/>
</g>
<!-- node_7&#45;&#45;7_0 -->
<g id="edge42" class="edge"><title>node_7&#45;&#45;7_0</title>
<path fill="none" stroke="black" stroke-width="2" d="M209.146,-396.8C240.736,-390.989 283.249,-383.169 310.571,-378.144"/>
</g>
<!-- 5_1&#45;&#45;4_0 -->
<g id="edge44" class="edge"><title>5_1&#45;&#45;4_0</title>
<path fill="none" stroke="grey" stroke-width="5" stroke-dasharray="1,5" d="M388.678,-696.411C369.069,-692.182 342.713,-686.498 323.129,-682.274"/>
</g>
<!-- 1_1&#45;&#45;7_0 -->
<g id="edge46" class="edge"><title>1_1&#45;&#45;7_0</title>
<path fill="none" stroke="grey" stroke-width="5" stroke-dasharray="1,5" d="M403.745,-291.302C389.153,-309.388 367.005,-336.839 352.447,-354.884"/>
</g>
<!-- 4_0&#45;&#45;0_0 -->
<g id="edge48" class="edge"><title>4_0&#45;&#45;0_0</title>
<path fill="none" stroke="grey" stroke-width="5" stroke-dasharray="1,5" d="M312.184,-658.066C323.424,-645.272 338.352,-628.28 349.572,-615.508"/>
</g>
</g>
</svg>
