<?xml version="1.0" encoding="UTF-8" standalone="no"?>
<!DOCTYPE svg PUBLIC "-//W3C//DTD SVG 1.1//EN"
 "http://www.w3.org/Graphics/SVG/1.1/DTD/svg11.dtd">
<!-- Generated by graphviz version 2.26.3 (20100126.1600)
 -->
<!-- Title: G Pages: 1 -->
<svg width="1451pt" height="1035pt"
 viewBox="0.00 0.00 1451.00 1035.00" xmlns="http://www.w3.org/2000/svg" xmlns:xlink="http://www.w3.org/1999/xlink">
<g id="graph1" class="graph" transform="scale(1 1) rotate(0) translate(4 1031)">
<title>G</title>
<polygon fill="white" stroke="white" points="-4,5 -4,-1031 1448,-1031 1448,5 -4,5"/>
<!-- 12_0 -->
<g id="node1" class="node"><title>12_0</title>
<polygon fill="none" stroke="black" points="1299.45,-305.778 1245.45,-305.778 1245.45,-269.778 1299.45,-269.778 1299.45,-305.778"/>
<text text-anchor="middle" x="1272.45" y="-283.678" font-family="Times Roman,serif" font-size="14.00">12_0</text>
</g>
<!-- 10_0 -->
<g id="node6" class="node"><title>10_0</title>
<polygon fill="none" stroke="black" points="1204.61,-326.475 1150.61,-326.475 1150.61,-290.475 1204.61,-290.475 1204.61,-326.475"/>
<text text-anchor="middle" x="1177.61" y="-304.375" font-family="Times Roman,serif" font-size="14.00">10_0</text>
</g>
<!-- 12_0&#45;&#45;10_0 -->
<g id="edge4" class="edge"><title>12_0&#45;&#45;10_0</title>
<path fill="none" stroke="red" stroke-width="5" stroke-dasharray="1,5" d="M1245.28,-293.709C1232.58,-296.48 1217.49,-299.771 1204.79,-302.543"/>
</g>
<!-- node_12 -->
<g id="node45" class="node"><title>node_12</title>
<ellipse fill="none" stroke="black" cx="1389.34" cy="-277.462" rx="52.8111" ry="18"/>
<text text-anchor="middle" x="1389.34" y="-273.362" font-family="Times Roman,serif" font-size="14.00">node_12</text>
</g>
<!-- 12_0&#45;&#45;node_12 -->
<g id="edge2" class="edge"><title>12_0&#45;&#45;node_12</title>
<path fill="none" stroke="black" stroke-width="2" d="M1299.57,-285.385C1311.03,-284.373 1324.78,-283.16 1338.03,-281.99"/>
</g>
<!-- 6_0 -->
<g id="node2" class="node"><title>6_0</title>
<polygon fill="none" stroke="black" points="689.138,-143.264 635.138,-143.264 635.138,-107.264 689.138,-107.264 689.138,-143.264"/>
<text text-anchor="middle" x="662.138" y="-121.164" font-family="Times Roman,serif" font-size="14.00">6_0</text>
</g>
<!-- 0_1 -->
<g id="node10" class="node"><title>0_1</title>
<polygon fill="none" stroke="black" points="663.229,-232.708 609.229,-232.708 609.229,-196.708 663.229,-196.708 663.229,-232.708"/>
<text text-anchor="middle" x="636.229" y="-210.608" font-family="Times Roman,serif" font-size="14.00">0_1</text>
</g>
<!-- 6_0&#45;&#45;0_1 -->
<g id="edge8" class="edge"><title>6_0&#45;&#45;0_1</title>
<path fill="none" stroke="blue" stroke-width="5" stroke-dasharray="1,5" d="M656.895,-143.365C652.4,-158.883 645.957,-181.124 641.464,-196.635"/>
</g>
<!-- node_6 -->
<g id="node29" class="node"><title>node_6</title>
<ellipse fill="none" stroke="black" cx="685.484" cy="-19.2073" rx="46.0565" ry="18"/>
<text text-anchor="middle" x="685.484" y="-15.1073" font-family="Times Roman,serif" font-size="14.00">node_6</text>
</g>
<!-- 6_0&#45;&#45;node_6 -->
<g id="edge6" class="edge"><title>6_0&#45;&#45;node_6</title>
<path fill="none" stroke="black" stroke-width="2" d="M666.204,-106.791C670.489,-87.3246 677.197,-56.8552 681.464,-37.4693"/>
</g>
<!-- 8_0 -->
<g id="node3" class="node"><title>8_0</title>
<polygon fill="none" stroke="black" points="1133.18,-467.865 1079.18,-467.865 1079.18,-431.865 1133.18,-431.865 1133.18,-467.865"/>
<text text-anchor="middle" x="1106.18" y="-445.765" font-family="Times Roman,serif" font-size="14.00">8_0</text>
</g>
<!-- 3_0 -->
<g id="node12" class="node"><title>3_0</title>
<polygon fill="none" stroke="black" points="1109.6,-379.029 1055.6,-379.029 1055.6,-343.029 1109.6,-343.029 1109.6,-379.029"/>
<text text-anchor="middle" x="1082.6" y="-356.929" font-family="Times Roman,serif" font-size="14.00">3_0</text>
</g>
<!-- 8_0&#45;&#45;3_0 -->
<g id="edge10" class="edge"><title>8_0&#45;&#45;3_0</title>
<path fill="none" stroke="red" stroke-width="5" stroke-dasharray="1,5" d="M1101.29,-431.458C1097.22,-416.11 1091.45,-394.365 1087.4,-379.109"/>
</g>
<!-- node_8 -->
<g id="node27" class="node"><title>node_8</title>
<ellipse fill="none" stroke="black" cx="1128.48" cy="-502.74" rx="46.0565" ry="18"/>
<text text-anchor="middle" x="1128.48" y="-498.64" font-family="Times Roman,serif" font-size="14.00">node_8</text>
</g>
<!-- 8_0&#45;&#45;node_8 -->
<g id="edge12" class="edge"><title>8_0&#45;&#45;node_8</title>
<path fill="none" stroke="black" stroke-width="2" d="M1113.85,-468.062C1116.12,-473.439 1118.6,-479.321 1120.87,-484.689"/>
</g>
<!-- 13_1 -->
<g id="node4" class="node"><title>13_1</title>
<polygon fill="none" stroke="black" points="979.854,-560.953 925.854,-560.953 925.854,-524.953 979.854,-524.953 979.854,-560.953"/>
<text text-anchor="middle" x="952.854" y="-538.853" font-family="Times Roman,serif" font-size="14.00">13_1</text>
</g>
<!-- node_13 -->
<g id="node44" class="node"><title>node_13</title>
<ellipse fill="none" stroke="black" cx="893.233" cy="-476.872" rx="52.8111" ry="18"/>
<text text-anchor="middle" x="893.233" y="-472.772" font-family="Times Roman,serif" font-size="14.00">node_13</text>
</g>
<!-- 13_1&#45;&#45;node_13 -->
<g id="edge14" class="edge"><title>13_1&#45;&#45;node_13</title>
<path fill="none" stroke="black" stroke-width="2" d="M936.562,-524.896C928.012,-515.419 917.579,-503.855 909.093,-494.45"/>
</g>
<!-- 13_0 -->
<g id="node5" class="node"><title>13_0</title>
<polygon fill="none" stroke="black" points="885.049,-605.386 831.049,-605.386 831.049,-569.386 885.049,-569.386 885.049,-605.386"/>
<text text-anchor="middle" x="858.049" y="-583.286" font-family="Times Roman,serif" font-size="14.00">13_0</text>
</g>
<!-- 5_0 -->
<g id="node20" class="node"><title>5_0</title>
<polygon fill="none" stroke="black" points="818.337,-668.077 764.337,-668.077 764.337,-632.077 818.337,-632.077 818.337,-668.077"/>
<text text-anchor="middle" x="791.337" y="-645.977" font-family="Times Roman,serif" font-size="14.00">5_0</text>
</g>
<!-- 13_0&#45;&#45;5_0 -->
<g id="edge16" class="edge"><title>13_0&#45;&#45;5_0</title>
<path fill="none" stroke="red" stroke-width="5" stroke-dasharray="1,5" d="M838.753,-605.518C829.979,-613.763 819.617,-623.501 810.821,-631.767"/>
</g>
<!-- 13_0&#45;&#45;node_13 -->
<g id="edge18" class="edge"><title>13_0&#45;&#45;node_13</title>
<path fill="none" stroke="black" stroke-width="2" d="M863.859,-569.136C870.417,-548.537 881.018,-515.24 887.532,-494.781"/>
</g>
<!-- 7_0 -->
<g id="node8" class="node"><title>7_0</title>
<polygon fill="none" stroke="black" points="1248.35,-239.417 1194.35,-239.417 1194.35,-203.417 1248.35,-203.417 1248.35,-239.417"/>
<text text-anchor="middle" x="1221.35" y="-217.317" font-family="Times Roman,serif" font-size="14.00">7_0</text>
</g>
<!-- 10_0&#45;&#45;7_0 -->
<g id="edge22" class="edge"><title>10_0&#45;&#45;7_0</title>
<path fill="none" stroke="red" stroke-width="5" stroke-dasharray="1,5" d="M1186.67,-290.436C1194.18,-275.495 1204.79,-254.367 1212.3,-239.432"/>
</g>
<!-- 10_0&#45;&#45;3_0 -->
<g id="edge20" class="edge"><title>10_0&#45;&#45;3_0</title>
<path fill="none" stroke="red" stroke-width="5" stroke-dasharray="1,5" d="M1150.38,-323.535C1137.66,-330.572 1122.55,-338.93 1109.83,-345.967"/>
</g>
<!-- node_10 -->
<g id="node47" class="node"><title>node_10</title>
<ellipse fill="none" stroke="black" cx="1288.01" cy="-353.874" rx="52.8111" ry="18"/>
<text text-anchor="middle" x="1288.01" y="-349.774" font-family="Times Roman,serif" font-size="14.00">node_10</text>
</g>
<!-- 10_0&#45;&#45;node_10 -->
<g id="edge24" class="edge"><title>10_0&#45;&#45;node_10</title>
<path fill="none" stroke="black" stroke-width="2" d="M1204.62,-319.581C1219.55,-325.723 1238.26,-333.414 1254.16,-339.956"/>
</g>
<!-- 1_0 -->
<g id="node7" class="node"><title>1_0</title>
<polygon fill="none" stroke="black" points="566.319,-207.077 512.319,-207.077 512.319,-171.077 566.319,-171.077 566.319,-207.077"/>
<text text-anchor="middle" x="539.319" y="-184.977" font-family="Times Roman,serif" font-size="14.00">1_0</text>
</g>
<!-- 1_0&#45;&#45;0_1 -->
<g id="edge30" class="edge"><title>1_0&#45;&#45;0_1</title>
<path fill="none" stroke="blue" stroke-width="5" stroke-dasharray="1,5" d="M566.572,-196.285C579.896,-199.809 595.884,-204.038 609.181,-207.554"/>
</g>
<!-- 2_1 -->
<g id="node16" class="node"><title>2_1</title>
<polygon fill="none" stroke="black" points="468.683,-214.378 414.683,-214.378 414.683,-178.378 468.683,-178.378 468.683,-214.378"/>
<text text-anchor="middle" x="441.683" y="-192.278" font-family="Times Roman,serif" font-size="14.00">2_1</text>
</g>
<!-- 1_0&#45;&#45;2_1 -->
<g id="edge26" class="edge"><title>1_0&#45;&#45;2_1</title>
<path fill="none" stroke="blue" stroke-width="5" stroke-dasharray="1,5" d="M512.122,-191.111C498.58,-192.124 482.256,-193.344 468.734,-194.355"/>
</g>
<!-- node_1 -->
<g id="node34" class="node"><title>node_1</title>
<ellipse fill="none" stroke="black" cx="516.304" cy="-260.686" rx="46.0565" ry="18"/>
<text text-anchor="middle" x="516.304" y="-256.586" font-family="Times Roman,serif" font-size="14.00">node_1</text>
</g>
<!-- 1_0&#45;&#45;node_1 -->
<g id="edge28" class="edge"><title>1_0&#45;&#45;node_1</title>
<path fill="none" stroke="black" stroke-width="2" d="M533.512,-207.147C530.049,-217.92 525.666,-231.558 522.19,-242.373"/>
</g>
<!-- node_7 -->
<g id="node28" class="node"><title>node_7</title>
<ellipse fill="none" stroke="black" cx="1279.12" cy="-127.731" rx="46.0565" ry="18"/>
<text text-anchor="middle" x="1279.12" y="-123.631" font-family="Times Roman,serif" font-size="14.00">node_7</text>
</g>
<!-- 7_0&#45;&#45;node_7 -->
<g id="edge32" class="edge"><title>7_0&#45;&#45;node_7</title>
<path fill="none" stroke="black" stroke-width="2" d="M1232.49,-203.353C1242.78,-186.657 1257.99,-161.998 1268.21,-145.422"/>
</g>
<!-- 0_0 -->
<g id="node9" class="node"><title>0_0</title>
<polygon fill="none" stroke="black" points="744.033,-403.937 690.033,-403.937 690.033,-367.937 744.033,-367.937 744.033,-403.937"/>
<text text-anchor="middle" x="717.033" y="-381.837" font-family="Times Roman,serif" font-size="14.00">0_0</text>
</g>
<!-- 3_1 -->
<g id="node11" class="node"><title>3_1</title>
<polygon fill="none" stroke="black" points="851.909,-379.352 797.909,-379.352 797.909,-343.352 851.909,-343.352 851.909,-379.352"/>
<text text-anchor="middle" x="824.909" y="-357.252" font-family="Times Roman,serif" font-size="14.00">3_1</text>
</g>
<!-- 0_0&#45;&#45;3_1 -->
<g id="edge34" class="edge"><title>0_0&#45;&#45;3_1</title>
<path fill="none" stroke="green" stroke-width="5" stroke-dasharray="1,5" d="M744.254,-379.733C760.608,-376.006 781.344,-371.28 797.696,-367.553"/>
</g>
<!-- 11_0 -->
<g id="node23" class="node"><title>11_0</title>
<polygon fill="none" stroke="black" points="655.183,-470.2 601.183,-470.2 601.183,-434.2 655.183,-434.2 655.183,-470.2"/>
<text text-anchor="middle" x="628.183" y="-448.1" font-family="Times Roman,serif" font-size="14.00">11_0</text>
</g>
<!-- 0_0&#45;&#45;11_0 -->
<g id="edge36" class="edge"><title>0_0&#45;&#45;11_0</title>
<path fill="none" stroke="green" stroke-width="5" stroke-dasharray="1,5" d="M692.754,-404.043C680.217,-413.393 664.965,-424.768 652.432,-434.115"/>
</g>
<!-- node_0 -->
<g id="node35" class="node"><title>node_0</title>
<ellipse fill="none" stroke="black" cx="676.921" cy="-287.187" rx="46.0565" ry="18"/>
<text text-anchor="middle" x="676.921" y="-283.087" font-family="Times Roman,serif" font-size="14.00">node_0</text>
</g>
<!-- 0_0&#45;&#45;node_0 -->
<g id="edge38" class="edge"><title>0_0&#45;&#45;node_0</title>
<path fill="none" stroke="black" stroke-width="2" d="M709.676,-367.825C702.438,-350.007 691.453,-322.962 684.231,-305.185"/>
</g>
<!-- 0_1&#45;&#45;node_0 -->
<g id="edge40" class="edge"><title>0_1&#45;&#45;node_0</title>
<path fill="none" stroke="black" stroke-width="2" d="M646.498,-232.998C652.713,-244.069 660.608,-258.13 666.797,-269.155"/>
</g>
<!-- node_3 -->
<g id="node32" class="node"><title>node_3</title>
<ellipse fill="none" stroke="black" cx="953.568" cy="-350.433" rx="46.0565" ry="18"/>
<text text-anchor="middle" x="953.568" y="-346.333" font-family="Times Roman,serif" font-size="14.00">node_3</text>
</g>
<!-- 3_1&#45;&#45;node_3 -->
<g id="edge42" class="edge"><title>3_1&#45;&#45;node_3</title>
<path fill="none" stroke="black" stroke-width="2" d="M852.194,-359.036C868.57,-357.646 889.803,-355.844 908.603,-354.249"/>
</g>
<!-- 3_0&#45;&#45;node_3 -->
<g id="edge44" class="edge"><title>3_0&#45;&#45;node_3</title>
<path fill="none" stroke="black" stroke-width="2" d="M1055.55,-358.808C1039.07,-357.455 1017.6,-355.691 998.613,-354.132"/>
</g>
<!-- 16_0 -->
<g id="node13" class="node"><title>16_0</title>
<polygon fill="none" stroke="black" points="933.511,-887.034 879.511,-887.034 879.511,-851.034 933.511,-851.034 933.511,-887.034"/>
<text text-anchor="middle" x="906.511" y="-864.934" font-family="Times Roman,serif" font-size="14.00">16_0</text>
</g>
<!-- 4_1 -->
<g id="node37" class="node"><title>4_1</title>
<polygon fill="none" stroke="black" points="858.999,-816.353 804.999,-816.353 804.999,-780.353 858.999,-780.353 858.999,-816.353"/>
<text text-anchor="middle" x="831.999" y="-794.253" font-family="Times Roman,serif" font-size="14.00">4_1</text>
</g>
<!-- 16_0&#45;&#45;4_1 -->
<g id="edge48" class="edge"><title>16_0&#45;&#45;4_1</title>
<path fill="none" stroke="green" stroke-width="5" stroke-dasharray="1,5" d="M887.322,-850.832C876.197,-840.279 862.236,-827.036 851.122,-816.493"/>
</g>
<!-- node_16 -->
<g id="node48" class="node"><title>node_16</title>
<ellipse fill="none" stroke="black" cx="997.564" cy="-947.861" rx="52.8111" ry="18"/>
<text text-anchor="middle" x="997.564" y="-943.761" font-family="Times Roman,serif" font-size="14.00">node_16</text>
</g>
<!-- 16_0&#45;&#45;node_16 -->
<g id="edge46" class="edge"><title>16_0&#45;&#45;node_16</title>
<path fill="none" stroke="black" stroke-width="2" d="M927.629,-887.316C942.864,-900.506 963.277,-918.178 978.114,-931.023"/>
</g>
<!-- 16_1 -->
<g id="node14" class="node"><title>16_1</title>
<polygon fill="none" stroke="black" points="1122.36,-1026.2 1068.36,-1026.2 1068.36,-990.199 1122.36,-990.199 1122.36,-1026.2"/>
<text text-anchor="middle" x="1095.36" y="-1004.1" font-family="Times Roman,serif" font-size="14.00">16_1</text>
</g>
<!-- 16_1&#45;&#45;node_16 -->
<g id="edge50" class="edge"><title>16_1&#45;&#45;node_16</title>
<path fill="none" stroke="black" stroke-width="2" d="M1068.12,-991.392C1054.1,-982.744 1037.11,-972.261 1023.31,-963.749"/>
</g>
<!-- 2_0 -->
<g id="node15" class="node"><title>2_0</title>
<polygon fill="none" stroke="black" points="257.485,-326.822 203.485,-326.822 203.485,-290.822 257.485,-290.822 257.485,-326.822"/>
<text text-anchor="middle" x="230.485" y="-304.722" font-family="Times Roman,serif" font-size="14.00">2_0</text>
</g>
<!-- 17_0 -->
<g id="node17" class="node"><title>17_0</title>
<polygon fill="none" stroke="black" points="200.388,-410.795 146.388,-410.795 146.388,-374.795 200.388,-374.795 200.388,-410.795"/>
<text text-anchor="middle" x="173.388" y="-388.695" font-family="Times Roman,serif" font-size="14.00">17_0</text>
</g>
<!-- 2_0&#45;&#45;17_0 -->
<g id="edge54" class="edge"><title>2_0&#45;&#45;17_0</title>
<path fill="none" stroke="green" stroke-width="5" stroke-dasharray="1,5" d="M218.096,-327.043C208.519,-341.128 195.324,-360.534 185.753,-374.61"/>
</g>
<!-- node_2 -->
<g id="node33" class="node"><title>node_2</title>
<ellipse fill="none" stroke="black" cx="323.918" cy="-235.235" rx="46.0565" ry="18"/>
<text text-anchor="middle" x="323.918" y="-231.135" font-family="Times Roman,serif" font-size="14.00">node_2</text>
</g>
<!-- 2_0&#45;&#45;node_2 -->
<g id="edge52" class="edge"><title>2_0&#45;&#45;node_2</title>
<path fill="none" stroke="black" stroke-width="2" d="M253.581,-290.632C268.82,-278.63 288.61,-263.043 303.314,-251.462"/>
</g>
<!-- 2_1&#45;&#45;node_2 -->
<g id="edge56" class="edge"><title>2_1&#45;&#45;node_2</title>
<path fill="none" stroke="black" stroke-width="2" d="M414.665,-205.293C398.232,-210.715 377.06,-217.7 359.3,-223.56"/>
</g>
<!-- 18_0 -->
<g id="node18" class="node"><title>18_0</title>
<polygon fill="none" stroke="black" points="196.408,-513.78 142.408,-513.78 142.408,-477.78 196.408,-477.78 196.408,-513.78"/>
<text text-anchor="middle" x="169.408" y="-491.68" font-family="Times Roman,serif" font-size="14.00">18_0</text>
</g>
<!-- 17_0&#45;&#45;18_0 -->
<g id="edge60" class="edge"><title>17_0&#45;&#45;18_0</title>
<path fill="none" stroke="green" stroke-width="5" stroke-dasharray="1,5" d="M172.676,-411.207C171.952,-429.952 170.836,-458.84 170.113,-477.528"/>
</g>
<!-- node_17 -->
<g id="node40" class="node"><title>node_17</title>
<ellipse fill="none" stroke="black" cx="73.826" cy="-331.39" rx="52.8111" ry="18"/>
<text text-anchor="middle" x="73.826" y="-327.29" font-family="Times Roman,serif" font-size="14.00">node_17</text>
</g>
<!-- 17_0&#45;&#45;node_17 -->
<g id="edge58" class="edge"><title>17_0&#45;&#45;node_17</title>
<path fill="none" stroke="black" stroke-width="2" d="M146.182,-376.016C131.673,-367.067 113.918,-356.117 99.6274,-347.303"/>
</g>
<!-- 19_0 -->
<g id="node36" class="node"><title>19_0</title>
<polygon fill="none" stroke="black" points="243.818,-607.001 189.818,-607.001 189.818,-571.001 243.818,-571.001 243.818,-607.001"/>
<text text-anchor="middle" x="216.818" y="-584.901" font-family="Times Roman,serif" font-size="14.00">19_0</text>
</g>
<!-- 18_0&#45;&#45;19_0 -->
<g id="edge62" class="edge"><title>18_0&#45;&#45;19_0</title>
<path fill="none" stroke="green" stroke-width="5" stroke-dasharray="1,5" d="M178.775,-514.198C187.14,-530.647 199.322,-554.599 207.632,-570.939"/>
</g>
<!-- node_18 -->
<g id="node39" class="node"><title>node_18</title>
<ellipse fill="none" stroke="black" cx="53.704" cy="-513.948" rx="52.8111" ry="18"/>
<text text-anchor="middle" x="53.704" y="-509.848" font-family="Times Roman,serif" font-size="14.00">node_18</text>
</g>
<!-- 18_0&#45;&#45;node_18 -->
<g id="edge64" class="edge"><title>18_0&#45;&#45;node_18</title>
<path fill="none" stroke="black" stroke-width="2" d="M142.281,-500.04C130.258,-501.927 115.741,-504.207 101.969,-506.369"/>
</g>
<!-- 9_0 -->
<g id="node19" class="node"><title>9_0</title>
<polygon fill="none" stroke="black" points="713.995,-790.697 659.995,-790.697 659.995,-754.697 713.995,-754.697 713.995,-790.697"/>
<text text-anchor="middle" x="686.995" y="-768.597" font-family="Times Roman,serif" font-size="14.00">9_0</text>
</g>
<!-- 4_0 -->
<g id="node22" class="node"><title>4_0</title>
<polygon fill="none" stroke="black" points="799.617,-744.066 745.617,-744.066 745.617,-708.066 799.617,-708.066 799.617,-744.066"/>
<text text-anchor="middle" x="772.617" y="-721.966" font-family="Times Roman,serif" font-size="14.00">4_0</text>
</g>
<!-- 9_0&#45;&#45;4_0 -->
<g id="edge66" class="edge"><title>9_0&#45;&#45;4_0</title>
<path fill="none" stroke="red" stroke-width="5" stroke-dasharray="1,5" d="M714.086,-757.943C724.081,-752.499 735.403,-746.333 745.408,-740.884"/>
</g>
<!-- node_9 -->
<g id="node26" class="node"><title>node_9</title>
<ellipse fill="none" stroke="black" cx="591.402" cy="-781.932" rx="46.0565" ry="18"/>
<text text-anchor="middle" x="591.402" y="-777.832" font-family="Times Roman,serif" font-size="14.00">node_9</text>
</g>
<!-- 9_0&#45;&#45;node_9 -->
<g id="edge68" class="edge"><title>9_0&#45;&#45;node_9</title>
<path fill="none" stroke="black" stroke-width="2" d="M659.858,-775.319C652.461,-776.034 644.247,-776.827 636.151,-777.609"/>
</g>
<!-- 5_0&#45;&#45;4_0 -->
<g id="edge70" class="edge"><title>5_0&#45;&#45;4_0</title>
<path fill="none" stroke="red" stroke-width="5" stroke-dasharray="1,5" d="M786.901,-668.085C783.938,-680.11 780.056,-695.87 777.086,-707.923"/>
</g>
<!-- node_5 -->
<g id="node30" class="node"><title>node_5</title>
<ellipse fill="none" stroke="black" cx="698.599" cy="-596.74" rx="46.0565" ry="18"/>
<text text-anchor="middle" x="698.599" y="-592.64" font-family="Times Roman,serif" font-size="14.00">node_5</text>
</g>
<!-- 5_0&#45;&#45;node_5 -->
<g id="edge72" class="edge"><title>5_0&#45;&#45;node_5</title>
<path fill="none" stroke="black" stroke-width="2" d="M764.014,-634.362C751.619,-627.233 737.026,-618.84 724.771,-611.793"/>
</g>
<!-- 11_1 -->
<g id="node21" class="node"><title>11_1</title>
<polygon fill="none" stroke="black" points="473.339,-666.168 419.339,-666.168 419.339,-630.168 473.339,-630.168 473.339,-666.168"/>
<text text-anchor="middle" x="446.339" y="-644.068" font-family="Times Roman,serif" font-size="14.00">11_1</text>
</g>
<!-- 14_0 -->
<g id="node24" class="node"><title>14_0</title>
<polygon fill="none" stroke="black" points="510.197,-750.059 456.197,-750.059 456.197,-714.059 510.197,-714.059 510.197,-750.059"/>
<text text-anchor="middle" x="483.197" y="-727.959" font-family="Times Roman,serif" font-size="14.00">14_0</text>
</g>
<!-- 11_1&#45;&#45;14_0 -->
<g id="edge74" class="edge"><title>11_1&#45;&#45;14_0</title>
<path fill="none" stroke="blue" stroke-width="5" stroke-dasharray="1,5" d="M454.337,-666.371C460.519,-680.442 469.037,-699.829 475.215,-713.891"/>
</g>
<!-- 15_0 -->
<g id="node41" class="node"><title>15_0</title>
<polygon fill="none" stroke="black" points="363.908,-655.168 309.908,-655.168 309.908,-619.168 363.908,-619.168 363.908,-655.168"/>
<text text-anchor="middle" x="336.908" y="-633.068" font-family="Times Roman,serif" font-size="14.00">15_0</text>
</g>
<!-- 11_1&#45;&#45;15_0 -->
<g id="edge76" class="edge"><title>11_1&#45;&#45;15_0</title>
<path fill="none" stroke="blue" stroke-width="5" stroke-dasharray="1,5" d="M419.289,-645.449C402.453,-643.756 380.875,-641.587 364.027,-639.894"/>
</g>
<!-- node_11 -->
<g id="node46" class="node"><title>node_11</title>
<ellipse fill="none" stroke="black" cx="528.91" cy="-546.061" rx="52.8111" ry="18"/>
<text text-anchor="middle" x="528.91" y="-541.961" font-family="Times Roman,serif" font-size="14.00">node_11</text>
</g>
<!-- 11_1&#45;&#45;node_11 -->
<g id="edge78" class="edge"><title>11_1&#45;&#45;node_11</title>
<path fill="none" stroke="black" stroke-width="2" d="M461.101,-629.913C476.317,-611.098 499.866,-581.977 514.827,-563.476"/>
</g>
<!-- node_4 -->
<g id="node31" class="node"><title>node_4</title>
<ellipse fill="none" stroke="black" cx="861.301" cy="-741.583" rx="46.0565" ry="18"/>
<text text-anchor="middle" x="861.301" y="-737.483" font-family="Times Roman,serif" font-size="14.00">node_4</text>
</g>
<!-- 4_0&#45;&#45;node_4 -->
<g id="edge80" class="edge"><title>4_0&#45;&#45;node_4</title>
<path fill="none" stroke="black" stroke-width="2" d="M799.707,-730.806C805.819,-731.875 812.45,-733.035 819.02,-734.185"/>
</g>
<!-- 11_0&#45;&#45;node_11 -->
<g id="edge82" class="edge"><title>11_0&#45;&#45;node_11</title>
<path fill="none" stroke="black" stroke-width="2" d="M609.042,-470.297C591.125,-487.238 564.553,-512.361 546.989,-528.968"/>
</g>
<!-- node_14 -->
<g id="node43" class="node"><title>node_14</title>
<ellipse fill="none" stroke="black" cx="595.719" cy="-829.448" rx="52.8111" ry="18"/>
<text text-anchor="middle" x="595.719" y="-825.348" font-family="Times Roman,serif" font-size="14.00">node_14</text>
</g>
<!-- 14_0&#45;&#45;node_14 -->
<g id="edge84" class="edge"><title>14_0&#45;&#45;node_14</title>
<path fill="none" stroke="black" stroke-width="2" d="M504.098,-750.149C524.69,-767.971 555.91,-794.993 576.061,-812.433"/>
</g>
<!-- 14_1 -->
<g id="node25" class="node"><title>14_1</title>
<polygon fill="none" stroke="black" points="755.869,-846.702 701.869,-846.702 701.869,-810.702 755.869,-810.702 755.869,-846.702"/>
<text text-anchor="middle" x="728.869" y="-824.602" font-family="Times Roman,serif" font-size="14.00">14_1</text>
</g>
<!-- 14_1&#45;&#45;4_1 -->
<g id="edge86" class="edge"><title>14_1&#45;&#45;4_1</title>
<path fill="none" stroke="green" stroke-width="5" stroke-dasharray="1,5" d="M755.965,-820.728C771.004,-816.303 789.658,-810.813 804.726,-806.379"/>
</g>
<!-- 14_1&#45;&#45;node_14 -->
<g id="edge88" class="edge"><title>14_1&#45;&#45;node_14</title>
<path fill="none" stroke="black" stroke-width="2" d="M701.603,-828.855C686.386,-828.94 666.901,-829.049 648.804,-829.15"/>
</g>
<!-- node_4&#45;&#45;4_1 -->
<g id="edge90" class="edge"><title>node_4&#45;&#45;4_1</title>
<path fill="none" stroke="black" stroke-width="2" d="M852.19,-759.234C848.763,-765.874 844.861,-773.433 841.407,-780.125"/>
</g>
<!-- node_19 -->
<g id="node38" class="node"><title>node_19</title>
<ellipse fill="none" stroke="black" cx="281.11" cy="-698.582" rx="52.8111" ry="18"/>
<text text-anchor="middle" x="281.11" y="-694.482" font-family="Times Roman,serif" font-size="14.00">node_19</text>
</g>
<!-- 19_0&#45;&#45;node_19 -->
<g id="edge92" class="edge"><title>19_0&#45;&#45;node_19</title>
<path fill="none" stroke="black" stroke-width="2" d="M227.435,-607.096C239.418,-627.521 258.789,-660.538 270.691,-680.824"/>
</g>
<!-- node_15 -->
<g id="node42" class="node"><title>node_15</title>
<ellipse fill="none" stroke="black" cx="215.622" cy="-653.447" rx="52.8111" ry="18"/>
<text text-anchor="middle" x="215.622" y="-649.347" font-family="Times Roman,serif" font-size="14.00">node_15</text>
</g>
<!-- 15_0&#45;&#45;node_15 -->
<g id="edge94" class="edge"><title>15_0&#45;&#45;node_15</title>
<path fill="none" stroke="black" stroke-width="2" d="M309.689,-640.821C296.559,-642.584 280.388,-644.754 265.18,-646.795"/>
</g>
</g>
</svg>
