<?xml version="1.0" encoding="UTF-8" standalone="no"?>
<!DOCTYPE svg PUBLIC "-//W3C//DTD SVG 1.1//EN"
 "http://www.w3.org/Graphics/SVG/1.1/DTD/svg11.dtd">
<!-- Generated by graphviz version 2.26.3 (20100126.1600)
 -->
<!-- Title: G Pages: 1 -->
<svg width="2422pt" height="1979pt"
 viewBox="0.00 0.00 2422.00 1979.00" xmlns="http://www.w3.org/2000/svg" xmlns:xlink="http://www.w3.org/1999/xlink">
<g id="graph1" class="graph" transform="scale(1 1) rotate(0) translate(4 1975)">
<title>G</title>
<polygon fill="white" stroke="white" points="-4,5 -4,-1975 2419,-1975 2419,5 -4,5"/>
<!-- ece55574a4d5 -->
<g id="node1" class="node"><title>ece55574a4d5</title>
<ellipse fill="none" stroke="black" cx="1600.42" cy="-1645.99" rx="82.1898" ry="18"/>
<text text-anchor="middle" x="1600.42" y="-1641.89" font-family="Times Roman,serif" font-size="14.00">ece55574a4d5</text>
</g>
<!-- ece555ffd61e -->
<g id="node17" class="node"><title>ece555ffd61e</title>
<polygon fill="none" stroke="black" points="1607.39,-1607.41 1497.39,-1607.41 1497.39,-1571.41 1607.39,-1571.41 1607.39,-1607.41"/>
<text text-anchor="middle" x="1552.39" y="-1585.31" font-family="Times Roman,serif" font-size="14.00">ece555ffd61e</text>
</g>
<!-- ece55574a4d5&#45;&#45;ece555ffd61e -->
<g id="edge2" class="edge"><title>ece55574a4d5&#45;&#45;ece555ffd61e</title>
<path fill="none" stroke="black" stroke-width="2" d="M1585.22,-1628.09C1579.73,-1621.62 1573.52,-1614.3 1567.98,-1607.78"/>
</g>
<!-- ece555ffd6cc -->
<g id="node27" class="node"><title>ece555ffd6cc</title>
<polygon fill="none" stroke="black" points="1824.84,-1768.24 1718.84,-1768.24 1718.84,-1732.24 1824.84,-1732.24 1824.84,-1768.24"/>
<text text-anchor="middle" x="1771.84" y="-1746.14" font-family="Times Roman,serif" font-size="14.00">ece555ffd6cc</text>
</g>
<!-- ece55574a4d5&#45;&#45;ece555ffd6cc -->
<g id="edge4" class="edge"><title>ece55574a4d5&#45;&#45;ece555ffd6cc</title>
<path fill="none" stroke="black" stroke-width="2" d="M1628.35,-1662.97C1659.65,-1682.01 1710.21,-1712.76 1742.2,-1732.22"/>
</g>
<!-- ece555ffd650 -->
<g id="node2" class="node"><title>ece555ffd650</title>
<polygon fill="none" stroke="black" points="2248.28,-1530.04 2136.28,-1530.04 2136.28,-1494.04 2248.28,-1494.04 2248.28,-1530.04"/>
<text text-anchor="middle" x="2192.28" y="-1507.94" font-family="Times Roman,serif" font-size="14.00">ece555ffd650</text>
</g>
<!-- ece555ffd642 -->
<g id="node20" class="node"><title>ece555ffd642</title>
<polygon fill="none" stroke="black" points="2412.68,-1628.63 2300.68,-1628.63 2300.68,-1592.63 2412.68,-1592.63 2412.68,-1628.63"/>
<text text-anchor="middle" x="2356.68" y="-1606.53" font-family="Times Roman,serif" font-size="14.00">ece555ffd642</text>
</g>
<!-- ece555ffd650&#45;&#45;ece555ffd642 -->
<g id="edge8" class="edge"><title>ece555ffd650&#45;&#45;ece555ffd642</title>
<path fill="none" stroke="orange" stroke-width="5" stroke-dasharray="1,5" d="M2222.44,-1530.12C2252.01,-1547.85 2296.84,-1574.74 2326.44,-1592.49"/>
</g>
<!-- 00a0571de370 -->
<g id="node29" class="node"><title>00a0571de370</title>
<polygon fill="none" stroke="black" points="2254.44,-1306.33 2132.44,-1306.33 2132.44,-1270.33 2254.44,-1270.33 2254.44,-1306.33"/>
<text text-anchor="middle" x="2193.44" y="-1284.23" font-family="Times Roman,serif" font-size="14.00">00a0571de370</text>
</g>
<!-- ece555ffd650&#45;&#45;00a0571de370 -->
<g id="edge6" class="edge"><title>ece555ffd650&#45;&#45;00a0571de370</title>
<path fill="none" stroke="orange" stroke-width="5" stroke-dasharray="1,5" d="M2192.38,-1493.73C2192.59,-1451.68 2193.13,-1348.57 2193.34,-1306.58"/>
</g>
<!-- ece555748695 -->
<g id="node32" class="node"><title>ece555748695</title>
<ellipse fill="none" stroke="black" cx="2044.74" cy="-1737.66" rx="84.0808" ry="18"/>
<text text-anchor="middle" x="2044.74" y="-1733.56" font-family="Times Roman,serif" font-size="14.00">ece555748695</text>
</g>
<!-- ece555ffd650&#45;&#45;ece555748695 -->
<g id="edge10" class="edge"><title>ece555ffd650&#45;&#45;ece555748695</title>
<path fill="none" stroke="black" stroke-width="2" d="M2180.46,-1530.12C2152.76,-1572.47 2083.97,-1677.68 2056.42,-1719.81"/>
</g>
<!-- 00a0571c363f -->
<g id="node3" class="node"><title>00a0571c363f</title>
<polygon fill="none" stroke="black" points="1949.53,-595.621 1833.53,-595.621 1833.53,-559.621 1949.53,-559.621 1949.53,-595.621"/>
<text text-anchor="middle" x="1891.53" y="-573.521" font-family="Times Roman,serif" font-size="14.00">00a0571c363f</text>
</g>
<!-- 00a0571d6865 -->
<g id="node12" class="node"><title>00a0571d6865</title>
<ellipse fill="none" stroke="black" cx="1617.71" cy="-530.155" rx="84.9707" ry="18"/>
<text text-anchor="middle" x="1617.71" y="-526.055" font-family="Times Roman,serif" font-size="14.00">00a0571d6865</text>
</g>
<!-- 00a0571c363f&#45;&#45;00a0571d6865 -->
<g id="edge16" class="edge"><title>00a0571c363f&#45;&#45;00a0571d6865</title>
<path fill="none" stroke="black" stroke-width="2" d="M1833.46,-567.554C1789.66,-559.962 1729.53,-549.538 1683.87,-541.624"/>
</g>
<!-- ece555ffd5d6 -->
<g id="node26" class="node"><title>ece555ffd5d6</title>
<polygon fill="none" stroke="black" points="2058.98,-421.893 1948.98,-421.893 1948.98,-385.893 2058.98,-385.893 2058.98,-421.893"/>
<text text-anchor="middle" x="2003.98" y="-399.793" font-family="Times Roman,serif" font-size="14.00">ece555ffd5d6</text>
</g>
<!-- 00a0571c363f&#45;&#45;ece555ffd5d6 -->
<g id="edge12" class="edge"><title>00a0571c363f&#45;&#45;ece555ffd5d6</title>
<path fill="none" stroke="blue" stroke-width="5" stroke-dasharray="1,5" d="M1903.35,-559.357C1925,-525.904 1970.78,-455.182 1992.31,-421.912"/>
</g>
<!-- 00a0571de372 -->
<g id="node31" class="node"><title>00a0571de372</title>
<polygon fill="none" stroke="black" points="2090.88,-802.858 1968.88,-802.858 1968.88,-766.858 2090.88,-766.858 2090.88,-802.858"/>
<text text-anchor="middle" x="2029.88" y="-780.758" font-family="Times Roman,serif" font-size="14.00">00a0571de372</text>
</g>
<!-- 00a0571c363f&#45;&#45;00a0571de372 -->
<g id="edge14" class="edge"><title>00a0571c363f&#45;&#45;00a0571de372</title>
<path fill="none" stroke="blue" stroke-width="5" stroke-dasharray="1,5" d="M1903.57,-595.649C1929.73,-634.842 1991.54,-727.434 2017.77,-766.724"/>
</g>
<!-- ece555ffd5da -->
<g id="node4" class="node"><title>ece555ffd5da</title>
<polygon fill="none" stroke="black" points="612.498,-1334.24 502.498,-1334.24 502.498,-1298.24 612.498,-1298.24 612.498,-1334.24"/>
<text text-anchor="middle" x="557.498" y="-1312.14" font-family="Times Roman,serif" font-size="14.00">ece555ffd5da</text>
</g>
<!-- ece55571dcd0 -->
<g id="node19" class="node"><title>ece55571dcd0</title>
<ellipse fill="none" stroke="black" cx="454.801" cy="-1128.17" rx="80.8024" ry="18"/>
<text text-anchor="middle" x="454.801" y="-1124.07" font-family="Times Roman,serif" font-size="14.00">ece55571dcd0</text>
</g>
<!-- ece555ffd5da&#45;&#45;ece55571dcd0 -->
<g id="edge18" class="edge"><title>ece555ffd5da&#45;&#45;ece55571dcd0</title>
<path fill="none" stroke="black" stroke-width="2" d="M547.651,-1298.21C528.021,-1262.26 484.223,-1182.05 464.618,-1146.15"/>
</g>
<!-- 00a0571c3732 -->
<g id="node33" class="node"><title>00a0571c3732</title>
<polygon fill="none" stroke="black" points="802.755,-1414.43 680.755,-1414.43 680.755,-1378.43 802.755,-1378.43 802.755,-1414.43"/>
<text text-anchor="middle" x="741.755" y="-1392.33" font-family="Times Roman,serif" font-size="14.00">00a0571c3732</text>
</g>
<!-- ece555ffd5da&#45;&#45;00a0571c3732 -->
<g id="edge20" class="edge"><title>ece555ffd5da&#45;&#45;00a0571c3732</title>
<path fill="none" stroke="green" stroke-width="5" stroke-dasharray="1,5" d="M599.309,-1334.44C629.464,-1347.56 669.993,-1365.2 700.11,-1378.31"/>
</g>
<!-- ece555ffd5bf -->
<g id="node5" class="node"><title>ece555ffd5bf</title>
<polygon fill="none" stroke="black" points="324.067,-863.221 218.067,-863.221 218.067,-827.221 324.067,-827.221 324.067,-863.221"/>
<text text-anchor="middle" x="271.067" y="-841.121" font-family="Times Roman,serif" font-size="14.00">ece555ffd5bf</text>
</g>
<!-- ece55571dca0 -->
<g id="node9" class="node"><title>ece55571dca0</title>
<ellipse fill="none" stroke="black" cx="97.5943" cy="-731.597" rx="80.8024" ry="18"/>
<text text-anchor="middle" x="97.5943" y="-727.497" font-family="Times Roman,serif" font-size="14.00">ece55571dca0</text>
</g>
<!-- ece555ffd5bf&#45;&#45;ece55571dca0 -->
<g id="edge24" class="edge"><title>ece555ffd5bf&#45;&#45;ece55571dca0</title>
<path fill="none" stroke="black" stroke-width="2" d="M243.579,-827.217C210.715,-805.691 156.112,-769.926 123.817,-748.773"/>
</g>
<!-- ece555ffd5c1 -->
<g id="node10" class="node"><title>ece555ffd5c1</title>
<polygon fill="none" stroke="black" points="523.148,-914.161 413.148,-914.161 413.148,-878.161 523.148,-878.161 523.148,-914.161"/>
<text text-anchor="middle" x="468.148" y="-892.061" font-family="Times Roman,serif" font-size="14.00">ece555ffd5c1</text>
</g>
<!-- ece555ffd5bf&#45;&#45;ece555ffd5c1 -->
<g id="edge22" class="edge"><title>ece555ffd5bf&#45;&#45;ece555ffd5c1</title>
<path fill="none" stroke="brown" stroke-width="5" stroke-dasharray="1,5" d="M324.14,-858.939C351.616,-866.04 385.133,-874.704 412.915,-881.885"/>
</g>
<!-- 00a0571c3501 -->
<g id="node6" class="node"><title>00a0571c3501</title>
<polygon fill="none" stroke="black" points="705.604,-797.546 583.604,-797.546 583.604,-761.546 705.604,-761.546 705.604,-797.546"/>
<text text-anchor="middle" x="644.604" y="-775.446" font-family="Times Roman,serif" font-size="14.00">00a0571c3501</text>
</g>
<!-- 00a0571c3501&#45;&#45;ece555ffd5c1 -->
<g id="edge26" class="edge"><title>00a0571c3501&#45;&#45;ece555ffd5c1</title>
<path fill="none" stroke="brown" stroke-width="5" stroke-dasharray="1,5" d="M617.032,-797.767C583.882,-819.675 528.589,-856.217 495.525,-878.068"/>
</g>
<!-- 00a0571d6864 -->
<g id="node11" class="node"><title>00a0571d6864</title>
<ellipse fill="none" stroke="black" cx="882.008" cy="-651.523" rx="84.9707" ry="18"/>
<text text-anchor="middle" x="882.008" y="-647.423" font-family="Times Roman,serif" font-size="14.00">00a0571d6864</text>
</g>
<!-- 00a0571c3501&#45;&#45;00a0571d6864 -->
<g id="edge28" class="edge"><title>00a0571c3501&#45;&#45;00a0571d6864</title>
<path fill="none" stroke="black" stroke-width="2" d="M678.114,-761.475C724.127,-736.662 806.237,-692.383 850.934,-668.28"/>
</g>
<!-- 00a0571c3641 -->
<g id="node7" class="node"><title>00a0571c3641</title>
<polygon fill="none" stroke="black" points="1178.89,-583.264 1056.89,-583.264 1056.89,-547.264 1178.89,-547.264 1178.89,-583.264"/>
<text text-anchor="middle" x="1117.89" y="-561.164" font-family="Times Roman,serif" font-size="14.00">00a0571c3641</text>
</g>
<!-- 00a0571c3641&#45;&#45;00a0571d6864 -->
<g id="edge30" class="edge"><title>00a0571c3641&#45;&#45;00a0571d6864</title>
<path fill="none" stroke="black" stroke-width="2" d="M1068.44,-583.347C1025.88,-598.908 965.126,-621.127 924.67,-635.922"/>
</g>
<!-- 00a0571c3511 -->
<g id="node21" class="node"><title>00a0571c3511</title>
<polygon fill="none" stroke="black" points="1422.29,-542.292 1300.29,-542.292 1300.29,-506.292 1422.29,-506.292 1422.29,-542.292"/>
<text text-anchor="middle" x="1361.29" y="-520.192" font-family="Times Roman,serif" font-size="14.00">00a0571c3511</text>
</g>
<!-- 00a0571c3641&#45;&#45;00a0571c3511 -->
<g id="edge32" class="edge"><title>00a0571c3641&#45;&#45;00a0571c3511</title>
<path fill="none" stroke="red" stroke-width="5" stroke-dasharray="1,5" d="M1178.99,-554.978C1216.03,-548.744 1263.11,-540.817 1300.15,-534.582"/>
</g>
<!-- 00a0571c373e -->
<g id="node8" class="node"><title>00a0571c373e</title>
<polygon fill="none" stroke="black" points="1204.6,-1242.94 1084.6,-1242.94 1084.6,-1206.94 1204.6,-1206.94 1204.6,-1242.94"/>
<text text-anchor="middle" x="1144.6" y="-1220.84" font-family="Times Roman,serif" font-size="14.00">00a0571c373e</text>
</g>
<!-- 00a0571d6867 -->
<g id="node13" class="node"><title>00a0571d6867</title>
<ellipse fill="none" stroke="black" cx="950.464" cy="-1313.01" rx="84.9707" ry="18"/>
<text text-anchor="middle" x="950.464" y="-1308.91" font-family="Times Roman,serif" font-size="14.00">00a0571d6867</text>
</g>
<!-- 00a0571c373e&#45;&#45;00a0571d6867 -->
<g id="edge34" class="edge"><title>00a0571c373e&#45;&#45;00a0571d6867</title>
<path fill="none" stroke="black" stroke-width="2" d="M1104.85,-1242.97C1070.13,-1258.72 1020.16,-1281.39 986.565,-1296.63"/>
</g>
<!-- ece555ffd5af -->
<g id="node28" class="node"><title>ece555ffd5af</title>
<polygon fill="none" stroke="black" points="107.498,-558.446 1.49759,-558.446 1.49759,-522.446 107.498,-522.446 107.498,-558.446"/>
<text text-anchor="middle" x="54.4976" y="-536.346" font-family="Times Roman,serif" font-size="14.00">ece555ffd5af</text>
</g>
<!-- ece55571dca0&#45;&#45;ece555ffd5af -->
<g id="edge36" class="edge"><title>ece55571dca0&#45;&#45;ece555ffd5af</title>
<path fill="none" stroke="black" stroke-width="2" d="M93.5398,-713.614C85.326,-677.182 66.8037,-595.029 58.5726,-558.52"/>
</g>
<!-- ece555ffd5c1&#45;&#45;ece55571dcd0 -->
<g id="edge38" class="edge"><title>ece555ffd5c1&#45;&#45;ece55571dcd0</title>
<path fill="none" stroke="black" stroke-width="2" d="M467.1,-914.366C464.605,-957.737 458.333,-1066.76 455.843,-1110.05"/>
</g>
<!-- 00a0571d6865&#45;&#45;00a0571c3511 -->
<g id="edge40" class="edge"><title>00a0571d6865&#45;&#45;00a0571c3511</title>
<path fill="none" stroke="black" stroke-width="2" d="M1533.04,-528.219C1496.86,-527.392 1455.43,-526.444 1422.33,-525.688"/>
</g>
<!-- 00a0571d6867&#45;&#45;00a0571c3732 -->
<g id="edge42" class="edge"><title>00a0571d6867&#45;&#45;00a0571c3732</title>
<path fill="none" stroke="black" stroke-width="2" d="M910.223,-1329.09C874.924,-1343.2 823.645,-1363.7 786.946,-1378.37"/>
</g>
<!-- 00a0571c2c44 -->
<g id="node14" class="node"><title>00a0571c2c44</title>
<polygon fill="none" stroke="black" points="1012.31,-1615.51 894.311,-1615.51 894.311,-1579.51 1012.31,-1579.51 1012.31,-1615.51"/>
<text text-anchor="middle" x="953.311" y="-1593.41" font-family="Times Roman,serif" font-size="14.00">00a0571c2c44</text>
</g>
<!-- 00a0571da012 -->
<g id="node15" class="node"><title>00a0571da012</title>
<ellipse fill="none" stroke="black" cx="960.735" cy="-1551.05" rx="84.7756" ry="18"/>
<text text-anchor="middle" x="960.735" y="-1546.95" font-family="Times Roman,serif" font-size="14.00">00a0571da012</text>
</g>
<!-- 00a0571c2c44&#45;&#45;00a0571da012 -->
<g id="edge44" class="edge"><title>00a0571c2c44&#45;&#45;00a0571da012</title>
<path fill="none" stroke="black" stroke-width="2" d="M956.202,-1579.42C956.74,-1576.05 957.301,-1572.54 957.839,-1569.18"/>
</g>
<!-- 00a0571c2c0d -->
<g id="node18" class="node"><title>00a0571c2c0d</title>
<polygon fill="none" stroke="black" points="834.727,-1481.39 716.727,-1481.39 716.727,-1445.39 834.727,-1445.39 834.727,-1481.39"/>
<text text-anchor="middle" x="775.727" y="-1459.29" font-family="Times Roman,serif" font-size="14.00">00a0571c2c0d</text>
</g>
<!-- 00a0571da012&#45;&#45;00a0571c2c0d -->
<g id="edge46" class="edge"><title>00a0571da012&#45;&#45;00a0571c2c0d</title>
<path fill="none" stroke="black" stroke-width="2" d="M925.937,-1534.57C894.011,-1519.44 846.818,-1497.08 813.877,-1481.47"/>
</g>
<!-- ece55571dd00 -->
<g id="node16" class="node"><title>ece55571dd00</title>
<ellipse fill="none" stroke="black" cx="2136.11" cy="-195.466" rx="82.1898" ry="18"/>
<text text-anchor="middle" x="2136.11" y="-191.366" font-family="Times Roman,serif" font-size="14.00">ece55571dd00</text>
</g>
<!-- ece55571dd00&#45;&#45;ece555ffd5d6 -->
<g id="edge50" class="edge"><title>ece55571dd00&#45;&#45;ece555ffd5d6</title>
<path fill="none" stroke="black" stroke-width="2" d="M2124.61,-213.598C2099.62,-253.016 2040.59,-346.14 2015.54,-385.655"/>
</g>
<!-- ece555ffd5b9 -->
<g id="node30" class="node"><title>ece555ffd5b9</title>
<polygon fill="none" stroke="black" points="2301.44,-36.8861 2191.44,-36.8861 2191.44,-0.886111 2301.44,-0.886111 2301.44,-36.8861"/>
<text text-anchor="middle" x="2246.44" y="-14.7861" font-family="Times Roman,serif" font-size="14.00">ece555ffd5b9</text>
</g>
<!-- ece55571dd00&#45;&#45;ece555ffd5b9 -->
<g id="edge48" class="edge"><title>ece55571dd00&#45;&#45;ece555ffd5b9</title>
<path fill="none" stroke="black" stroke-width="2" d="M2147.29,-177.563C2168.39,-143.806 2213.82,-71.0952 2235.06,-37.1007"/>
</g>
<!-- 00a0571c2c0d&#45;&#45;00a0571c3732 -->
<g id="edge52" class="edge"><title>00a0571c2c0d&#45;&#45;00a0571c3732</title>
<path fill="none" stroke="green" stroke-width="5" stroke-dasharray="1,5" d="M766.444,-1445.09C761.651,-1435.65 755.819,-1424.15 751.027,-1414.71"/>
</g>
<!-- ece55574a4a5 -->
<g id="node23" class="node"><title>ece55574a4a5</title>
<ellipse fill="none" stroke="black" cx="2222.3" cy="-1740.14" rx="82.1898" ry="18"/>
<text text-anchor="middle" x="2222.3" y="-1736.04" font-family="Times Roman,serif" font-size="14.00">ece55574a4a5</text>
</g>
<!-- ece555ffd642&#45;&#45;ece55574a4a5 -->
<g id="edge54" class="edge"><title>ece555ffd642&#45;&#45;ece55574a4a5</title>
<path fill="none" stroke="black" stroke-width="2" d="M2337.99,-1628.64C2312.32,-1653.38 2266.41,-1697.62 2240.82,-1722.29"/>
</g>
<!-- ece555ffd63a -->
<g id="node22" class="node"><title>ece555ffd63a</title>
<polygon fill="none" stroke="black" points="2185.32,-1970.12 2075.32,-1970.12 2075.32,-1934.12 2185.32,-1934.12 2185.32,-1970.12"/>
<text text-anchor="middle" x="2130.32" y="-1948.02" font-family="Times Roman,serif" font-size="14.00">ece555ffd63a</text>
</g>
<!-- ece555ffd63a&#45;&#45;ece555748695 -->
<g id="edge56" class="edge"><title>ece555ffd63a&#45;&#45;ece555748695</title>
<path fill="none" stroke="black" stroke-width="2" d="M2123.02,-1933.83C2106.81,-1893.21 2067.98,-1795.89 2051.9,-1755.6"/>
</g>
<!-- ece555ffd667 -->
<g id="node25" class="node"><title>ece555ffd667</title>
<polygon fill="none" stroke="black" points="2006.45,-1711.53 1894.45,-1711.53 1894.45,-1675.53 2006.45,-1675.53 2006.45,-1711.53"/>
<text text-anchor="middle" x="1950.45" y="-1689.43" font-family="Times Roman,serif" font-size="14.00">ece555ffd667</text>
</g>
<!-- ece55574a4a5&#45;&#45;ece555ffd667 -->
<g id="edge58" class="edge"><title>ece55574a4a5&#45;&#45;ece555ffd667</title>
<path fill="none" stroke="black" stroke-width="2" d="M2157.53,-1729.04C2111.67,-1721.18 2050.77,-1710.73 2006.9,-1703.21"/>
</g>
<!-- 00a0571da270 -->
<g id="node24" class="node"><title>00a0571da270</title>
<ellipse fill="none" stroke="black" cx="2135.55" cy="-1016.12" rx="84.7756" ry="18"/>
<text text-anchor="middle" x="2135.55" y="-1012.02" font-family="Times Roman,serif" font-size="14.00">00a0571da270</text>
</g>
<!-- 00a0571da270&#45;&#45;00a0571de370 -->
<g id="edge60" class="edge"><title>00a0571da270&#45;&#45;00a0571de370</title>
<path fill="none" stroke="black" stroke-width="2" d="M2139.44,-1034.4C2149.98,-1083.99 2179.04,-1220.63 2189.57,-1270.13"/>
</g>
<!-- 00a0571da270&#45;&#45;00a0571de372 -->
<g id="edge62" class="edge"><title>00a0571da270&#45;&#45;00a0571de372</title>
<path fill="none" stroke="black" stroke-width="2" d="M2127.26,-997.974C2107.5,-954.743 2057.85,-846.067 2038.13,-802.921"/>
</g>
<!-- ece555ffd667&#45;&#45;ece555ffd6cc -->
<g id="edge64" class="edge"><title>ece555ffd667&#45;&#45;ece555ffd6cc</title>
<path fill="none" stroke="red" stroke-width="5" stroke-dasharray="1,5" d="M1894.43,-1711.32C1872.23,-1718.37 1846.83,-1726.43 1824.92,-1733.39"/>
</g>
</g>
</svg>
