<?xml version="1.0" encoding="UTF-8" standalone="no"?>
<!DOCTYPE svg PUBLIC "-//W3C//DTD SVG 1.1//EN"
 "http://www.w3.org/Graphics/SVG/1.1/DTD/svg11.dtd">
<!-- Generated by graphviz version 2.26.3 (20100126.1600)
 -->
<!-- Title: G Pages: 1 -->
<svg width="1624pt" height="476pt"
 viewBox="0.00 0.00 1624.00 476.00" xmlns="http://www.w3.org/2000/svg" xmlns:xlink="http://www.w3.org/1999/xlink">
<g id="graph1" class="graph" transform="scale(1 1) rotate(0) translate(4 472)">
<title>G</title>
<polygon fill="white" stroke="white" points="-4,5 -4,-472 1621,-472 1621,5 -4,5"/>
<!-- 00a0571c2f85 -->
<g id="node1" class="node"><title>00a0571c2f85</title>
<polygon fill="none" stroke="black" points="116,-396 1.9356e-14,-396 -1.77636e-15,-360 116,-360 116,-396"/>
<text text-anchor="middle" x="58" y="-373.9" font-family="Times Roman,serif" font-size="14.00">00a0571c2f85</text>
</g>
<!-- 00a0571da017 -->
<g id="node18" class="node"><title>00a0571da017</title>
<ellipse fill="none" stroke="black" cx="130" cy="-162" rx="84.7756" ry="18"/>
<text text-anchor="middle" x="130" y="-157.9" font-family="Times Roman,serif" font-size="14.00">00a0571da017</text>
</g>
<!-- 00a0571c2f85&#45;&#45;00a0571da017 -->
<g id="edge6" class="edge"><title>00a0571c2f85&#45;&#45;00a0571da017</title>
<path fill="none" stroke="black" stroke-width="2" d="M56.4446,-359.946C54.543,-328.879 54.0162,-264.02 77,-216 83.8054,-201.781 95.8762,-189.028 106.781,-179.489"/>
</g>
<!-- ece555ffd5af -->
<g id="node20" class="node"><title>ece555ffd5af</title>
<polygon fill="none" stroke="black" points="516,-324 410,-324 410,-288 516,-288 516,-324"/>
<text text-anchor="middle" x="463" y="-301.9" font-family="Times Roman,serif" font-size="14.00">ece555ffd5af</text>
</g>
<!-- 00a0571c2f85&#45;&#45;ece555ffd5af -->
<g id="edge2" class="edge"><title>00a0571c2f85&#45;&#45;ece555ffd5af</title>
<path fill="none" stroke="grey" stroke-width="4.47739" stroke-dasharray="1,5" d="M116.139,-368.768C179.983,-358.482 285.473,-341.045 376,-324 386.914,-321.945 398.57,-319.622 409.688,-317.345"/>
</g>
<!-- ece555ffd667 -->
<g id="node28" class="node"><title>ece555ffd667</title>
<polygon fill="none" stroke="black" points="455,-36 343,-36 343,-1.06581e-14 455,-0 455,-36"/>
<text text-anchor="middle" x="399" y="-13.9" font-family="Times Roman,serif" font-size="14.00">ece555ffd667</text>
</g>
<!-- 00a0571c2f85&#45;&#45;ece555ffd667 -->
<g id="edge4" class="edge"><title>00a0571c2f85&#45;&#45;ece555ffd667</title>
<path fill="none" stroke="grey" stroke-width="2.61702" stroke-dasharray="1,5" d="M49.305,-359.832C37.2698,-332.972 17,-280.788 17,-234 17,-234 17,-234 17,-162 17,-93.2512 236.375,-46.0035 342.635,-27.1504"/>
</g>
<!-- ece55574a4d5 -->
<g id="node2" class="node"><title>ece55574a4d5</title>
<ellipse fill="none" stroke="black" cx="641" cy="-234" rx="82.1898" ry="18"/>
<text text-anchor="middle" x="641" y="-229.9" font-family="Times Roman,serif" font-size="14.00">ece55574a4d5</text>
</g>
<!-- ece555ffd6cc -->
<g id="node30" class="node"><title>ece555ffd6cc</title>
<polygon fill="none" stroke="black" points="479,-180 373,-180 373,-144 479,-144 479,-180"/>
<text text-anchor="middle" x="426" y="-157.9" font-family="Times Roman,serif" font-size="14.00">ece555ffd6cc</text>
</g>
<!-- ece55574a4d5&#45;&#45;ece555ffd6cc -->
<g id="edge10" class="edge"><title>ece55574a4d5&#45;&#45;ece555ffd6cc</title>
<path fill="none" stroke="black" stroke-width="2" d="M595.929,-218.906C561.944,-207.525 515.22,-191.878 479.366,-179.871"/>
</g>
<!-- ece555ffd61e -->
<g id="node31" class="node"><title>ece555ffd61e</title>
<polygon fill="none" stroke="black" points="1053,-180 943,-180 943,-144 1053,-144 1053,-180"/>
<text text-anchor="middle" x="998" y="-157.9" font-family="Times Roman,serif" font-size="14.00">ece555ffd61e</text>
</g>
<!-- ece55574a4d5&#45;&#45;ece555ffd61e -->
<g id="edge8" class="edge"><title>ece55574a4d5&#45;&#45;ece555ffd61e</title>
<path fill="none" stroke="black" stroke-width="2" d="M707.689,-223.505C767.312,-213.696 856.913,-197.904 934,-180 936.923,-179.321 939.913,-178.594 942.925,-177.837"/>
</g>
<!-- ece555ffd650 -->
<g id="node3" class="node"><title>ece555ffd650</title>
<polygon fill="none" stroke="black" points="1058,-252 946,-252 946,-216 1058,-216 1058,-252"/>
<text text-anchor="middle" x="1002" y="-229.9" font-family="Times Roman,serif" font-size="14.00">ece555ffd650</text>
</g>
<!-- ece555ffd650&#45;&#45;ece555ffd61e -->
<g id="edge12" class="edge"><title>ece555ffd650&#45;&#45;ece555ffd61e</title>
<path fill="none" stroke="grey" stroke-width="2.28358" stroke-dasharray="1,5" d="M1000.99,-215.831C1000.39,-205 999.627,-191.288 999.023,-180.413"/>
</g>
<!-- ece555748695 -->
<g id="node35" class="node"><title>ece555748695</title>
<ellipse fill="none" stroke="black" cx="1042" cy="-90" rx="84.0808" ry="18"/>
<text text-anchor="middle" x="1042" y="-85.9" font-family="Times Roman,serif" font-size="14.00">ece555748695</text>
</g>
<!-- ece555ffd650&#45;&#45;ece555748695 -->
<g id="edge14" class="edge"><title>ece555ffd650&#45;&#45;ece555748695</title>
<path fill="none" stroke="black" stroke-width="2" d="M1031.22,-215.817C1043.11,-206.683 1055.56,-194.466 1062,-180 1072.55,-156.313 1061.74,-126.564 1052.38,-107.911"/>
</g>
<!-- 00a0571c363f -->
<g id="node4" class="node"><title>00a0571c363f</title>
<polygon fill="none" stroke="black" points="367,-324 251,-324 251,-288 367,-288 367,-324"/>
<text text-anchor="middle" x="309" y="-301.9" font-family="Times Roman,serif" font-size="14.00">00a0571c363f</text>
</g>
<!-- 00a0571d6865 -->
<g id="node13" class="node"><title>00a0571d6865</title>
<ellipse fill="none" stroke="black" cx="309" cy="-234" rx="84.9707" ry="18"/>
<text text-anchor="middle" x="309" y="-229.9" font-family="Times Roman,serif" font-size="14.00">00a0571d6865</text>
</g>
<!-- 00a0571c363f&#45;&#45;00a0571d6865 -->
<g id="edge20" class="edge"><title>00a0571c363f&#45;&#45;00a0571d6865</title>
<path fill="none" stroke="black" stroke-width="2" d="M309,-287.831C309,-277 309,-263.288 309,-252.413"/>
</g>
<!-- 00a0571c2b52 -->
<g id="node15" class="node"><title>00a0571c2b52</title>
<polygon fill="none" stroke="black" points="206,-252 86,-252 86,-216 206,-216 206,-252"/>
<text text-anchor="middle" x="146" y="-229.9" font-family="Times Roman,serif" font-size="14.00">00a0571c2b52</text>
</g>
<!-- 00a0571c363f&#45;&#45;00a0571c2b52 -->
<g id="edge16" class="edge"><title>00a0571c363f&#45;&#45;00a0571c2b52</title>
<path fill="none" stroke="grey" stroke-width="3.91525" stroke-dasharray="1,5" d="M267.868,-287.831C243.064,-276.875 211.587,-262.971 186.836,-252.038"/>
</g>
<!-- 00a0571c363f&#45;&#45;ece555ffd6cc -->
<g id="edge18" class="edge"><title>00a0571c363f&#45;&#45;ece555ffd6cc</title>
<path fill="none" stroke="grey" stroke-width="4.05495" stroke-dasharray="1,5" d="M356.539,-287.978C373.424,-279.419 391.158,-267.585 403,-252 419.099,-230.813 424,-199.549 425.45,-180"/>
</g>
<!-- ece555ffd5da -->
<g id="node5" class="node"><title>ece555ffd5da</title>
<polygon fill="none" stroke="black" points="788,-396 678,-396 678,-360 788,-360 788,-396"/>
<text text-anchor="middle" x="733" y="-373.9" font-family="Times Roman,serif" font-size="14.00">ece555ffd5da</text>
</g>
<!-- 00a0571c2c0d -->
<g id="node21" class="node"><title>00a0571c2c0d</title>
<polygon fill="none" stroke="black" points="928,-252 810,-252 810,-216 928,-216 928,-252"/>
<text text-anchor="middle" x="869" y="-229.9" font-family="Times Roman,serif" font-size="14.00">00a0571c2c0d</text>
</g>
<!-- ece555ffd5da&#45;&#45;00a0571c2c0d -->
<g id="edge22" class="edge"><title>ece555ffd5da&#45;&#45;00a0571c2c0d</title>
<path fill="none" stroke="grey" stroke-width="4.28796" stroke-dasharray="1,5" d="M737.612,-359.894C743.377,-340.252 754.883,-308.908 774,-288 787.826,-272.879 806.894,-260.906 824.321,-252.115"/>
</g>
<!-- ece55571dcd0 -->
<g id="node22" class="node"><title>ece55571dcd0</title>
<ellipse fill="none" stroke="black" cx="623" cy="-306" rx="80.8024" ry="18"/>
<text text-anchor="middle" x="623" y="-301.9" font-family="Times Roman,serif" font-size="14.00">ece55571dcd0</text>
</g>
<!-- ece555ffd5da&#45;&#45;ece55571dcd0 -->
<g id="edge24" class="edge"><title>ece555ffd5da&#45;&#45;ece55571dcd0</title>
<path fill="none" stroke="black" stroke-width="2" d="M705.242,-359.831C688.058,-348.583 666.127,-334.229 649.234,-323.171"/>
</g>
<!-- ece555ffd5bf -->
<g id="node6" class="node"><title>ece555ffd5bf</title>
<polygon fill="none" stroke="black" points="475,-468 369,-468 369,-432 475,-432 475,-468"/>
<text text-anchor="middle" x="422" y="-445.9" font-family="Times Roman,serif" font-size="14.00">ece555ffd5bf</text>
</g>
<!-- ece55571dca0 -->
<g id="node10" class="node"><title>ece55571dca0</title>
<ellipse fill="none" stroke="black" cx="368" cy="-378" rx="80.8024" ry="18"/>
<text text-anchor="middle" x="368" y="-373.9" font-family="Times Roman,serif" font-size="14.00">ece55571dca0</text>
</g>
<!-- ece555ffd5bf&#45;&#45;ece55571dca0 -->
<g id="edge28" class="edge"><title>ece555ffd5bf&#45;&#45;ece55571dca0</title>
<path fill="none" stroke="black" stroke-width="2" d="M408.374,-431.831C400.125,-420.833 389.649,-406.865 381.435,-395.913"/>
</g>
<!-- ece555ffd5bf&#45;&#45;ece555ffd5af -->
<g id="edge26" class="edge"><title>ece555ffd5bf&#45;&#45;ece555ffd5af</title>
<path fill="none" stroke="grey" stroke-width="3.91525" stroke-dasharray="1,5" d="M437.692,-431.822C445.273,-421.916 453.653,-409.041 458,-396 465.967,-372.098 465.891,-342.663 464.737,-324.108"/>
</g>
<!-- 00a0571c3501 -->
<g id="node7" class="node"><title>00a0571c3501</title>
<polygon fill="none" stroke="black" points="1412,-324 1290,-324 1290,-288 1412,-288 1412,-324"/>
<text text-anchor="middle" x="1351" y="-301.9" font-family="Times Roman,serif" font-size="14.00">00a0571c3501</text>
</g>
<!-- 00a0571d6864 -->
<g id="node12" class="node"><title>00a0571d6864</title>
<ellipse fill="none" stroke="black" cx="1531" cy="-234" rx="84.9707" ry="18"/>
<text text-anchor="middle" x="1531" y="-229.9" font-family="Times Roman,serif" font-size="14.00">00a0571d6864</text>
</g>
<!-- 00a0571c3501&#45;&#45;00a0571d6864 -->
<g id="edge32" class="edge"><title>00a0571c3501&#45;&#45;00a0571d6864</title>
<path fill="none" stroke="black" stroke-width="2" d="M1396.42,-287.831C1425.58,-276.167 1463.1,-261.161 1491.11,-249.957"/>
</g>
<!-- 00a0571c3501&#45;&#45;00a0571c2c0d -->
<g id="edge30" class="edge"><title>00a0571c3501&#45;&#45;00a0571c2c0d</title>
<path fill="none" stroke="grey" stroke-width="4.2381" stroke-dasharray="1,5" d="M1289.79,-298.46C1183.03,-285.242 970.827,-258.654 937,-252 934.124,-251.434 931.19,-250.816 928.233,-250.161"/>
</g>
<!-- 00a0571c3641 -->
<g id="node8" class="node"><title>00a0571c3641</title>
<polygon fill="none" stroke="black" points="1591,-324 1469,-324 1469,-288 1591,-288 1591,-324"/>
<text text-anchor="middle" x="1530" y="-301.9" font-family="Times Roman,serif" font-size="14.00">00a0571c3641</text>
</g>
<!-- 00a0571c3641&#45;&#45;00a0571d6864 -->
<g id="edge36" class="edge"><title>00a0571c3641&#45;&#45;00a0571d6864</title>
<path fill="none" stroke="black" stroke-width="2" d="M1530.25,-287.831C1530.4,-277 1530.59,-263.288 1530.74,-252.413"/>
</g>
<!-- 00a0571c3641&#45;&#45;00a0571c2c0d -->
<g id="edge34" class="edge"><title>00a0571c3641&#45;&#45;00a0571c2c0d</title>
<path fill="none" stroke="grey" stroke-width="4.38462" stroke-dasharray="1,5" d="M1468.74,-294.897C1453.21,-292.353 1436.52,-289.855 1421,-288 1206.82,-262.402 1149.72,-287.751 937,-252 934.11,-251.514 931.164,-250.961 928.198,-250.358"/>
</g>
<!-- 00a0571c373e -->
<g id="node9" class="node"><title>00a0571c373e</title>
<polygon fill="none" stroke="black" points="1194,-324 1074,-324 1074,-288 1194,-288 1194,-324"/>
<text text-anchor="middle" x="1134" y="-301.9" font-family="Times Roman,serif" font-size="14.00">00a0571c373e</text>
</g>
<!-- 00a0571d6867 -->
<g id="node14" class="node"><title>00a0571d6867</title>
<ellipse fill="none" stroke="black" cx="1161" cy="-234" rx="84.9707" ry="18"/>
<text text-anchor="middle" x="1161" y="-229.9" font-family="Times Roman,serif" font-size="14.00">00a0571d6867</text>
</g>
<!-- 00a0571c373e&#45;&#45;00a0571d6867 -->
<g id="edge40" class="edge"><title>00a0571c373e&#45;&#45;00a0571d6867</title>
<path fill="none" stroke="black" stroke-width="2" d="M1140.81,-287.831C1144.87,-277 1150.02,-263.288 1154.1,-252.413"/>
</g>
<!-- 00a0571c373e&#45;&#45;00a0571c2c0d -->
<g id="edge38" class="edge"><title>00a0571c373e&#45;&#45;00a0571c2c0d</title>
<path fill="none" stroke="grey" stroke-width="4.1087" stroke-dasharray="1,5" d="M1073.87,-289.662C1030.35,-277.837 971.798,-261.93 928.438,-250.149"/>
</g>
<!-- ece55571dca0&#45;&#45;ece555ffd5af -->
<g id="edge42" class="edge"><title>ece55571dca0&#45;&#45;ece555ffd5af</title>
<path fill="none" stroke="black" stroke-width="2" d="M390.997,-360.571C405.604,-349.5 424.468,-335.203 439.223,-324.021"/>
</g>
<!-- ece555ffd5c1 -->
<g id="node11" class="node"><title>ece555ffd5c1</title>
<polygon fill="none" stroke="black" points="629,-396 519,-396 519,-360 629,-360 629,-396"/>
<text text-anchor="middle" x="574" y="-373.9" font-family="Times Roman,serif" font-size="14.00">ece555ffd5c1</text>
</g>
<!-- ece555ffd5c1&#45;&#45;ece555ffd5af -->
<g id="edge44" class="edge"><title>ece555ffd5c1&#45;&#45;ece555ffd5af</title>
<path fill="none" stroke="grey" stroke-width="4.40816" stroke-dasharray="1,5" d="M545.99,-359.831C529.163,-348.917 507.826,-335.076 491.001,-324.163"/>
</g>
<!-- ece555ffd5c1&#45;&#45;ece55571dcd0 -->
<g id="edge46" class="edge"><title>ece555ffd5c1&#45;&#45;ece55571dcd0</title>
<path fill="none" stroke="black" stroke-width="2" d="M586.365,-359.831C593.85,-348.833 603.356,-334.865 610.809,-323.913"/>
</g>
<!-- 00a0571c3511 -->
<g id="node24" class="node"><title>00a0571c3511</title>
<polygon fill="none" stroke="black" points="355,-180 233,-180 233,-144 355,-144 355,-180"/>
<text text-anchor="middle" x="294" y="-157.9" font-family="Times Roman,serif" font-size="14.00">00a0571c3511</text>
</g>
<!-- 00a0571d6865&#45;&#45;00a0571c3511 -->
<g id="edge48" class="edge"><title>00a0571d6865&#45;&#45;00a0571c3511</title>
<path fill="none" stroke="black" stroke-width="2" d="M305.215,-215.831C302.958,-205 300.102,-191.288 297.836,-180.413"/>
</g>
<!-- 00a0571c3732 -->
<g id="node36" class="node"><title>00a0571c3732</title>
<polygon fill="none" stroke="black" points="1231,-180 1109,-180 1109,-144 1231,-144 1231,-180"/>
<text text-anchor="middle" x="1170" y="-157.9" font-family="Times Roman,serif" font-size="14.00">00a0571c3732</text>
</g>
<!-- 00a0571d6867&#45;&#45;00a0571c3732 -->
<g id="edge50" class="edge"><title>00a0571d6867&#45;&#45;00a0571c3732</title>
<path fill="none" stroke="black" stroke-width="2" d="M1163.27,-215.831C1164.62,-205 1166.34,-191.288 1167.7,-180.413"/>
</g>
<!-- 00a0571c2b52&#45;&#45;00a0571da017 -->
<g id="edge52" class="edge"><title>00a0571c2b52&#45;&#45;00a0571da017</title>
<path fill="none" stroke="black" stroke-width="2" d="M141.963,-215.831C139.556,-205 136.508,-191.288 134.092,-180.413"/>
</g>
<!-- 00a0571c2c44 -->
<g id="node16" class="node"><title>00a0571c2c44</title>
<polygon fill="none" stroke="black" points="939,-396 821,-396 821,-360 939,-360 939,-396"/>
<text text-anchor="middle" x="880" y="-373.9" font-family="Times Roman,serif" font-size="14.00">00a0571c2c44</text>
</g>
<!-- 00a0571da012 -->
<g id="node17" class="node"><title>00a0571da012</title>
<ellipse fill="none" stroke="black" cx="868" cy="-306" rx="84.7756" ry="18"/>
<text text-anchor="middle" x="868" y="-301.9" font-family="Times Roman,serif" font-size="14.00">00a0571da012</text>
</g>
<!-- 00a0571c2c44&#45;&#45;00a0571da012 -->
<g id="edge54" class="edge"><title>00a0571c2c44&#45;&#45;00a0571da012</title>
<path fill="none" stroke="black" stroke-width="2" d="M876.972,-359.831C875.167,-349 872.881,-335.288 871.069,-324.413"/>
</g>
<!-- 00a0571c2c44&#45;&#45;00a0571c2c0d -->
<g id="edge56" class="edge"><title>00a0571c2c44&#45;&#45;00a0571c2c0d</title>
<path fill="none" stroke="grey" stroke-width="4.47739" stroke-dasharray="1,5" d="M923.935,-359.753C938.771,-351.217 953.672,-339.456 962,-324 969.59,-309.915 969.983,-301.866 962,-288 952.871,-272.143 937.103,-260.513 921.116,-252.198"/>
</g>
<!-- 00a0571da012&#45;&#45;00a0571c2c0d -->
<g id="edge58" class="edge"><title>00a0571da012&#45;&#45;00a0571c2c0d</title>
<path fill="none" stroke="black" stroke-width="2" d="M868.252,-287.831C868.403,-277 868.593,-263.288 868.744,-252.413"/>
</g>
<!-- ece55571dd00 -->
<g id="node19" class="node"><title>ece55571dd00</title>
<ellipse fill="none" stroke="black" cx="1346" cy="-234" rx="82.1898" ry="18"/>
<text text-anchor="middle" x="1346" y="-229.9" font-family="Times Roman,serif" font-size="14.00">ece55571dd00</text>
</g>
<!-- ece555ffd5d6 -->
<g id="node29" class="node"><title>ece555ffd5d6</title>
<polygon fill="none" stroke="black" points="1359,-180 1249,-180 1249,-144 1359,-144 1359,-180"/>
<text text-anchor="middle" x="1304" y="-157.9" font-family="Times Roman,serif" font-size="14.00">ece555ffd5d6</text>
</g>
<!-- ece55571dd00&#45;&#45;ece555ffd5d6 -->
<g id="edge62" class="edge"><title>ece55571dd00&#45;&#45;ece555ffd5d6</title>
<path fill="none" stroke="black" stroke-width="2" d="M1335.4,-215.831C1329.08,-205 1321.08,-191.288 1314.74,-180.413"/>
</g>
<!-- ece555ffd5b9 -->
<g id="node33" class="node"><title>ece555ffd5b9</title>
<polygon fill="none" stroke="black" points="1367,-108 1257,-108 1257,-72 1367,-72 1367,-108"/>
<text text-anchor="middle" x="1312" y="-85.9" font-family="Times Roman,serif" font-size="14.00">ece555ffd5b9</text>
</g>
<!-- ece55571dd00&#45;&#45;ece555ffd5b9 -->
<g id="edge60" class="edge"><title>ece55571dd00&#45;&#45;ece555ffd5b9</title>
<path fill="none" stroke="black" stroke-width="2" d="M1357.02,-215.864C1366.81,-197.287 1378.13,-167.835 1368,-144 1361.93,-129.705 1350.01,-117.356 1338.72,-108.09"/>
</g>
<!-- ece555ffd5af&#45;&#45;00a0571c2c0d -->
<g id="edge64" class="edge"><title>ece555ffd5af&#45;&#45;00a0571c2c0d</title>
<path fill="none" stroke="grey" stroke-width="4.40816" stroke-dasharray="1,5" d="M516.006,-291.822C521.725,-290.456 527.472,-289.152 533,-288 629.301,-267.925 742.466,-251.121 809.823,-241.824"/>
</g>
<!-- ece555ffd5af&#45;&#45;ece555ffd6cc -->
<g id="edge66" class="edge"><title>ece555ffd5af&#45;&#45;ece555ffd6cc</title>
<path fill="none" stroke="grey" stroke-width="4.2381" stroke-dasharray="1,5" d="M458.314,-287.762C451.197,-260.063 437.742,-207.7 430.648,-180.09"/>
</g>
<!-- ece555ffd642 -->
<g id="node23" class="node"><title>ece555ffd642</title>
<polygon fill="none" stroke="black" points="797,-180 685,-180 685,-144 797,-144 797,-180"/>
<text text-anchor="middle" x="741" y="-157.9" font-family="Times Roman,serif" font-size="14.00">ece555ffd642</text>
</g>
<!-- 00a0571c2c0d&#45;&#45;ece555ffd642 -->
<g id="edge76" class="edge"><title>00a0571c2c0d&#45;&#45;ece555ffd642</title>
<path fill="none" stroke="grey" stroke-width="4.28796" stroke-dasharray="1,5" d="M836.7,-215.831C817.296,-204.917 792.691,-191.076 773.289,-180.163"/>
</g>
<!-- 00a0571c2c0d&#45;&#45;00a0571c3511 -->
<g id="edge80" class="edge"><title>00a0571c2c0d&#45;&#45;00a0571c3511</title>
<path fill="none" stroke="grey" stroke-width="4.13514" stroke-dasharray="1,5" d="M809.711,-225.774C785.619,-222.546 757.502,-218.922 732,-216 568.732,-197.294 525.838,-208.548 364,-180 361.158,-179.499 358.261,-178.942 355.343,-178.344"/>
</g>
<!-- ece555ffd63a -->
<g id="node25" class="node"><title>ece555ffd63a</title>
<polygon fill="none" stroke="black" points="925,-180 815,-180 815,-144 925,-144 925,-180"/>
<text text-anchor="middle" x="870" y="-157.9" font-family="Times Roman,serif" font-size="14.00">ece555ffd63a</text>
</g>
<!-- 00a0571c2c0d&#45;&#45;ece555ffd63a -->
<g id="edge74" class="edge"><title>00a0571c2c0d&#45;&#45;ece555ffd63a</title>
<path fill="none" stroke="grey" stroke-width="4.36082" stroke-dasharray="1,5" d="M869.252,-215.831C869.403,-205 869.593,-191.288 869.744,-180.413"/>
</g>
<!-- 00a0571c2c0d&#45;&#45;ece555ffd5d6 -->
<g id="edge70" class="edge"><title>00a0571c2c0d&#45;&#45;ece555ffd5d6</title>
<path fill="none" stroke="grey" stroke-width="4.13514" stroke-dasharray="1,5" d="M928.226,-217.798C931.184,-217.154 934.121,-216.549 937,-216 1070.21,-190.586 1106.99,-206.439 1240,-180 1242.94,-179.415 1245.95,-178.763 1248.97,-178.064"/>
</g>
<!-- 00a0571c2c0d&#45;&#45;ece555ffd6cc -->
<g id="edge72" class="edge"><title>00a0571c2c0d&#45;&#45;ece555ffd6cc</title>
<path fill="none" stroke="grey" stroke-width="4.45455" stroke-dasharray="1,5" d="M809.924,-226.097C710.802,-212.766 518.78,-186.614 488,-180 485.151,-179.388 482.241,-178.714 479.312,-177.998"/>
</g>
<!-- 00a0571c2c0d&#45;&#45;ece555ffd61e -->
<g id="edge68" class="edge"><title>00a0571c2c0d&#45;&#45;ece555ffd61e</title>
<path fill="none" stroke="grey" stroke-width="3.82759" stroke-dasharray="1,5" d="M901.552,-215.831C921.108,-204.917 945.905,-191.076 965.458,-180.163"/>
</g>
<!-- 00a0571c2c0d&#45;&#45;00a0571c3732 -->
<g id="edge78" class="edge"><title>00a0571c2c0d&#45;&#45;00a0571c3732</title>
<path fill="none" stroke="grey" stroke-width="4.1087" stroke-dasharray="1,5" d="M928.31,-218.184C931.246,-217.438 934.155,-216.706 937,-216 995.034,-201.598 1061.5,-186.312 1108.55,-175.694"/>
</g>
<!-- ece55574a4a5 -->
<g id="node26" class="node"><title>ece55574a4a5</title>
<ellipse fill="none" stroke="black" cx="781" cy="-90" rx="82.1898" ry="18"/>
<text text-anchor="middle" x="781" y="-85.9" font-family="Times Roman,serif" font-size="14.00">ece55574a4a5</text>
</g>
<!-- ece555ffd642&#45;&#45;ece55574a4a5 -->
<g id="edge88" class="edge"><title>ece555ffd642&#45;&#45;ece55574a4a5</title>
<path fill="none" stroke="black" stroke-width="2" d="M751.094,-143.831C757.204,-132.833 764.964,-118.865 771.048,-107.913"/>
</g>
<!-- 00a0571de370 -->
<g id="node32" class="node"><title>00a0571de370</title>
<polygon fill="none" stroke="black" points="681,-108 559,-108 559,-72 681,-72 681,-108"/>
<text text-anchor="middle" x="620" y="-85.9" font-family="Times Roman,serif" font-size="14.00">00a0571de370</text>
</g>
<!-- ece555ffd642&#45;&#45;00a0571de370 -->
<g id="edge82" class="edge"><title>ece555ffd642&#45;&#45;00a0571de370</title>
<path fill="none" stroke="grey" stroke-width="4.2381" stroke-dasharray="1,5" d="M710.467,-143.831C692.124,-132.917 668.865,-119.076 650.524,-108.163"/>
</g>
<!-- ece555ffd642&#45;&#45;ece555ffd5b9 -->
<g id="edge84" class="edge"><title>ece555ffd642&#45;&#45;ece555ffd5b9</title>
<path fill="none" stroke="grey" stroke-width="2.52518" stroke-dasharray="1,5" d="M797.237,-145.82C800.19,-145.16 803.124,-144.548 806,-144 827.913,-139.826 1130.29,-108.618 1256.88,-95.6373"/>
</g>
<!-- 00a0571de372 -->
<g id="node34" class="node"><title>00a0571de372</title>
<polygon fill="none" stroke="black" points="541,-108 419,-108 419,-72 541,-72 541,-108"/>
<text text-anchor="middle" x="480" y="-85.9" font-family="Times Roman,serif" font-size="14.00">00a0571de372</text>
</g>
<!-- ece555ffd642&#45;&#45;00a0571de372 -->
<g id="edge86" class="edge"><title>ece555ffd642&#45;&#45;00a0571de372</title>
<path fill="none" stroke="grey" stroke-width="4.33679" stroke-dasharray="1,5" d="M684.981,-146.482C681.944,-145.642 678.935,-144.811 676,-144 630.921,-131.549 580,-117.52 541.361,-106.883"/>
</g>
<!-- ece555ffd63a&#45;&#45;ece555748695 -->
<g id="edge90" class="edge"><title>ece555ffd63a&#45;&#45;ece555748695</title>
<path fill="none" stroke="black" stroke-width="2" d="M913.403,-143.831C941.169,-132.208 976.86,-117.268 1003.59,-106.077"/>
</g>
<!-- ece55574a4a5&#45;&#45;ece555ffd667 -->
<g id="edge92" class="edge"><title>ece55574a4a5&#45;&#45;ece555ffd667</title>
<path fill="none" stroke="black" stroke-width="2" d="M719.832,-77.798C709.865,-75.8394 699.648,-73.8494 690,-72 608.373,-56.354 513.724,-38.9217 455.095,-28.2066"/>
</g>
<!-- 00a0571da270 -->
<g id="node27" class="node"><title>00a0571da270</title>
<ellipse fill="none" stroke="black" cx="582" cy="-162" rx="84.7756" ry="18"/>
<text text-anchor="middle" x="582" y="-157.9" font-family="Times Roman,serif" font-size="14.00">00a0571da270</text>
</g>
<!-- 00a0571da270&#45;&#45;00a0571de370 -->
<g id="edge94" class="edge"><title>00a0571da270&#45;&#45;00a0571de370</title>
<path fill="none" stroke="black" stroke-width="2" d="M591.589,-143.831C597.306,-133 604.543,-119.288 610.282,-108.413"/>
</g>
<!-- 00a0571da270&#45;&#45;00a0571de372 -->
<g id="edge96" class="edge"><title>00a0571da270&#45;&#45;00a0571de372</title>
<path fill="none" stroke="black" stroke-width="2" d="M557.568,-144.754C541.891,-133.688 521.567,-119.341 505.656,-108.11"/>
</g>
</g>
</svg>
