<?xml version="1.0" encoding="UTF-8" standalone="no"?>
<!DOCTYPE svg PUBLIC "-//W3C//DTD SVG 1.1//EN"
 "http://www.w3.org/Graphics/SVG/1.1/DTD/svg11.dtd">
<!-- Generated by graphviz version 2.26.3 (20100126.1600)
 -->
<!-- Title: G Pages: 1 -->
<svg width="1109pt" height="404pt"
 viewBox="0.00 0.00 1109.28 404.00" xmlns="http://www.w3.org/2000/svg" xmlns:xlink="http://www.w3.org/1999/xlink">
<g id="graph1" class="graph" transform="scale(1 1) rotate(0) translate(4 400)">
<title>G</title>
<polygon fill="white" stroke="white" points="-4,5 -4,-400 1106.28,-400 1106.28,5 -4,5"/>
<!-- 0 -->
<g id="node1" class="node"><title>0</title>
<ellipse fill="none" stroke="black" cx="810.254" cy="-306" rx="27" ry="18"/>
<text text-anchor="middle" x="810.254" y="-301.9" font-family="Times Roman,serif" font-size="14.00">0</text>
</g>
<!-- 18 -->
<g id="node3" class="node"><title>18</title>
<ellipse fill="none" stroke="black" cx="806.254" cy="-234" rx="27" ry="18"/>
<text text-anchor="middle" x="806.254" y="-229.9" font-family="Times Roman,serif" font-size="14.00">18</text>
</g>
<!-- 0&#45;&#45;18 -->
<g id="edge2" class="edge"><title>0&#45;&#45;18</title>
<path fill="none" stroke="orange" stroke-width="0.692308" d="M809.245,-287.831C808.643,-277 807.881,-263.288 807.277,-252.413"/>
</g>
<!-- 15 -->
<g id="node5" class="node"><title>15</title>
<ellipse fill="none" stroke="black" cx="878.254" cy="-234" rx="27" ry="18"/>
<text text-anchor="middle" x="878.254" y="-229.9" font-family="Times Roman,serif" font-size="14.00">15</text>
</g>
<!-- 0&#45;&#45;15 -->
<g id="edge4" class="edge"><title>0&#45;&#45;15</title>
<path fill="none" stroke="green" stroke-width="2.25" d="M824.675,-290.731C836.215,-278.512 852.32,-261.46 863.854,-249.247"/>
</g>
<!-- 22 -->
<g id="node7" class="node"><title>22</title>
<ellipse fill="none" stroke="black" cx="988.254" cy="-234" rx="27" ry="18"/>
<text text-anchor="middle" x="988.254" y="-229.9" font-family="Times Roman,serif" font-size="14.00">22</text>
</g>
<!-- 0&#45;&#45;22 -->
<g id="edge6" class="edge"><title>0&#45;&#45;22</title>
<path fill="none" stroke="green" stroke-width="0.692308" d="M833.525,-296.587C867.638,-282.789 930.861,-257.215 964.978,-243.415"/>
</g>
<!-- 23 -->
<g id="node9" class="node"><title>23</title>
<ellipse fill="none" stroke="black" cx="514.254" cy="-234" rx="27" ry="18"/>
<text text-anchor="middle" x="514.254" y="-229.9" font-family="Times Roman,serif" font-size="14.00">23</text>
</g>
<!-- 0&#45;&#45;23 -->
<g id="edge8" class="edge"><title>0&#45;&#45;23</title>
<path fill="none" stroke="orange" stroke-width="2.25" d="M783.443,-302.763C735.597,-296.478 632.784,-280.658 550.254,-252 545.237,-250.258 540.027,-247.964 535.179,-245.599"/>
</g>
<!-- 25 -->
<g id="node23" class="node"><title>25</title>
<ellipse fill="none" stroke="black" cx="885.254" cy="-90" rx="27" ry="18"/>
<text text-anchor="middle" x="885.254" y="-85.9" font-family="Times Roman,serif" font-size="14.00">25</text>
</g>
<!-- 22&#45;&#45;25 -->
<g id="edge82" class="edge"><title>22&#45;&#45;25</title>
<path fill="none" stroke="orange" stroke-width="0.818182" d="M976.439,-217.481C956.57,-189.704 916.707,-133.973 896.932,-106.326"/>
</g>
<!-- 24 -->
<g id="node21" class="node"><title>24</title>
<ellipse fill="none" stroke="black" cx="605.254" cy="-162" rx="27" ry="18"/>
<text text-anchor="middle" x="605.254" y="-157.9" font-family="Times Roman,serif" font-size="14.00">24</text>
</g>
<!-- 23&#45;&#45;24 -->
<g id="edge84" class="edge"><title>23&#45;&#45;24</title>
<path fill="none" stroke="orange" stroke-width="9" d="M531.8,-220.118C547.914,-207.368 571.665,-188.576 587.762,-175.84"/>
</g>
<!-- 28 -->
<g id="node65" class="node"><title>28</title>
<ellipse fill="none" stroke="black" cx="514.254" cy="-162" rx="27" ry="18"/>
<text text-anchor="middle" x="514.254" y="-157.9" font-family="Times Roman,serif" font-size="14.00">28</text>
</g>
<!-- 23&#45;&#45;28 -->
<g id="edge86" class="edge"><title>23&#45;&#45;28</title>
<path fill="none" stroke="blue" stroke-width="0.9" d="M514.254,-215.831C514.254,-205 514.254,-191.288 514.254,-180.413"/>
</g>
<!-- 1 -->
<g id="node10" class="node"><title>1</title>
<ellipse fill="none" stroke="black" cx="244.254" cy="-306" rx="27" ry="18"/>
<text text-anchor="middle" x="244.254" y="-301.9" font-family="Times Roman,serif" font-size="14.00">1</text>
</g>
<!-- 1&#45;&#45;23 -->
<g id="edge12" class="edge"><title>1&#45;&#45;23</title>
<path fill="none" stroke="blue" stroke-width="9" d="M269.655,-299.226C321.246,-285.469 437.749,-254.401 489.117,-240.703"/>
</g>
<!-- 9 -->
<g id="node12" class="node"><title>9</title>
<ellipse fill="none" stroke="black" cx="184.254" cy="-234" rx="27" ry="18"/>
<text text-anchor="middle" x="184.254" y="-229.9" font-family="Times Roman,serif" font-size="14.00">9</text>
</g>
<!-- 1&#45;&#45;9 -->
<g id="edge10" class="edge"><title>1&#45;&#45;9</title>
<path fill="none" stroke="red" stroke-width="0.75" d="M230.938,-290.021C220.995,-278.089 207.467,-261.855 197.533,-249.934"/>
</g>
<!-- 17 -->
<g id="node37" class="node"><title>17</title>
<ellipse fill="none" stroke="black" cx="40.2543" cy="-162" rx="27" ry="18"/>
<text text-anchor="middle" x="40.2543" y="-157.9" font-family="Times Roman,serif" font-size="14.00">17</text>
</g>
<!-- 9&#45;&#45;17 -->
<g id="edge54" class="edge"><title>9&#45;&#45;17</title>
<path fill="none" stroke="blue" stroke-width="9" d="M162.384,-223.065C135.161,-209.453 88.9573,-186.352 61.8587,-172.802"/>
</g>
<!-- 2 -->
<g id="node14" class="node"><title>2</title>
<ellipse fill="none" stroke="black" cx="641.254" cy="-306" rx="27" ry="18"/>
<text text-anchor="middle" x="641.254" y="-301.9" font-family="Times Roman,serif" font-size="14.00">2</text>
</g>
<!-- 2&#45;&#45;18 -->
<g id="edge18" class="edge"><title>2&#45;&#45;18</title>
<path fill="none" stroke="red" stroke-width="0.5625" d="M664.763,-296.712C690.778,-286.306 733.842,-268.702 770.254,-252 774.954,-249.844 779.945,-247.431 784.666,-245.089"/>
</g>
<!-- 11 -->
<g id="node16" class="node"><title>11</title>
<ellipse fill="none" stroke="black" cx="266.254" cy="-162" rx="27" ry="18"/>
<text text-anchor="middle" x="266.254" y="-157.9" font-family="Times Roman,serif" font-size="14.00">11</text>
</g>
<!-- 2&#45;&#45;11 -->
<g id="edge14" class="edge"><title>2&#45;&#45;11</title>
<path fill="none" stroke="green" stroke-width="1.8" d="M615.209,-301.064C581.732,-293.919 522.64,-278.554 478.254,-252 458.29,-240.056 460.331,-227.754 440.254,-216 392.213,-187.875 327.987,-172.898 292.536,-166.285"/>
</g>
<!-- 13 -->
<g id="node18" class="node"><title>13</title>
<ellipse fill="none" stroke="black" cx="734.254" cy="-234" rx="27" ry="18"/>
<text text-anchor="middle" x="734.254" y="-229.9" font-family="Times Roman,serif" font-size="14.00">13</text>
</g>
<!-- 2&#45;&#45;13 -->
<g id="edge16" class="edge"><title>2&#45;&#45;13</title>
<path fill="none" stroke="red" stroke-width="0.9" d="M659.186,-292.118C675.654,-279.368 699.927,-260.576 716.378,-247.84"/>
</g>
<!-- 2&#45;&#45;24 -->
<g id="edge20" class="edge"><title>2&#45;&#45;24</title>
<path fill="none" stroke="green" d="M637.977,-287.95C634.538,-269.692 628.737,-240.715 622.254,-216 619.062,-203.831 614.812,-190.331 611.36,-179.873"/>
</g>
<!-- 2&#45;&#45;25 -->
<g id="edge22" class="edge"><title>2&#45;&#45;25</title>
<path fill="none" stroke="red" stroke-width="2.25" d="M649.649,-288.754C659.521,-269.589 677.253,-238.395 698.254,-216 748.597,-162.315 825.849,-119.527 863.337,-100.584"/>
</g>
<!-- 27 -->
<g id="node25" class="node"><title>27</title>
<ellipse fill="none" stroke="black" cx="586.254" cy="-234" rx="27" ry="18"/>
<text text-anchor="middle" x="586.254" y="-229.9" font-family="Times Roman,serif" font-size="14.00">27</text>
</g>
<!-- 2&#45;&#45;27 -->
<g id="edge24" class="edge"><title>2&#45;&#45;27</title>
<path fill="none" stroke="green" stroke-width="0.642857" d="M628.774,-289.662C619.773,-277.879 607.675,-262.042 598.685,-250.273"/>
</g>
<!-- 29 -->
<g id="node27" class="node"><title>29</title>
<ellipse fill="none" stroke="black" cx="404.254" cy="-234" rx="27" ry="18"/>
<text text-anchor="middle" x="404.254" y="-229.9" font-family="Times Roman,serif" font-size="14.00">29</text>
</g>
<!-- 2&#45;&#45;29 -->
<g id="edge26" class="edge"><title>2&#45;&#45;29</title>
<path fill="none" stroke="red" stroke-width="2.25" d="M615.517,-300.17C577.7,-291.322 505.123,-273.263 445.254,-252 439.101,-249.815 432.571,-247.125 426.575,-244.498"/>
</g>
<!-- 21 -->
<g id="node40" class="node"><title>21</title>
<ellipse fill="none" stroke="black" cx="833.254" cy="-162" rx="27" ry="18"/>
<text text-anchor="middle" x="833.254" y="-157.9" font-family="Times Roman,serif" font-size="14.00">21</text>
</g>
<!-- 13&#45;&#45;21 -->
<g id="edge64" class="edge"><title>13&#45;&#45;21</title>
<path fill="none" stroke="orange" stroke-width="9" d="M752.875,-220.457C770.575,-207.585 797.045,-188.334 814.717,-175.482"/>
</g>
<!-- 26 -->
<g id="node69" class="node"><title>26</title>
<ellipse fill="none" stroke="black" cx="973.254" cy="-18" rx="27" ry="18"/>
<text text-anchor="middle" x="973.254" y="-13.9" font-family="Times Roman,serif" font-size="14.00">26</text>
</g>
<!-- 25&#45;&#45;26 -->
<g id="edge88" class="edge"><title>25&#45;&#45;26</title>
<path fill="none" stroke="red" d="M902.64,-75.7751C918.068,-63.1525 940.488,-44.809 955.904,-32.1953"/>
</g>
<!-- 27&#45;&#45;28 -->
<g id="edge90" class="edge"><title>27&#45;&#45;28</title>
<path fill="none" stroke="orange" d="M570.985,-218.731C558.766,-206.512 541.714,-189.46 529.502,-177.247"/>
</g>
<!-- 3 -->
<g id="node28" class="node"><title>3</title>
<ellipse fill="none" stroke="black" cx="142.254" cy="-306" rx="27" ry="18"/>
<text text-anchor="middle" x="142.254" y="-301.9" font-family="Times Roman,serif" font-size="14.00">3</text>
</g>
<!-- 3&#45;&#45;11 -->
<g id="edge28" class="edge"><title>3&#45;&#45;11</title>
<path fill="none" stroke="red" stroke-width="1.28571" d="M163.963,-294.877C180.958,-285.321 204.31,-270.22 220.254,-252 239.321,-230.211 252.919,-199.122 260.177,-179.772"/>
</g>
<!-- 4 -->
<g id="node31" class="node"><title>4</title>
<ellipse fill="none" stroke="black" cx="40.2543" cy="-234" rx="27" ry="18"/>
<text text-anchor="middle" x="40.2543" y="-229.9" font-family="Times Roman,serif" font-size="14.00">4</text>
</g>
<!-- 3&#45;&#45;4 -->
<g id="edge30" class="edge"><title>3&#45;&#45;4</title>
<path fill="none" stroke="black" stroke-width="1.5" stroke-dasharray="1,5" d="M123.546,-292.794C105.142,-279.803 77.207,-260.084 58.844,-247.122"/>
</g>
<!-- 5 -->
<g id="node33" class="node"><title>5</title>
<ellipse fill="none" stroke="black" cx="294.254" cy="-234" rx="27" ry="18"/>
<text text-anchor="middle" x="294.254" y="-229.9" font-family="Times Roman,serif" font-size="14.00">5</text>
</g>
<!-- 3&#45;&#45;5 -->
<g id="edge32" class="edge"><title>3&#45;&#45;5</title>
<path fill="none" stroke="black" stroke-width="2.25" stroke-dasharray="1,5" d="M164.356,-295.531C193.175,-281.88 243.294,-258.139 272.125,-244.482"/>
</g>
<!-- 7 -->
<g id="node35" class="node"><title>7</title>
<ellipse fill="none" stroke="black" cx="112.254" cy="-234" rx="27" ry="18"/>
<text text-anchor="middle" x="112.254" y="-229.9" font-family="Times Roman,serif" font-size="14.00">7</text>
</g>
<!-- 3&#45;&#45;7 -->
<g id="edge34" class="edge"><title>3&#45;&#45;7</title>
<path fill="none" stroke="black" stroke-width="9" stroke-dasharray="1,5" d="M134.992,-288.571C130.31,-277.334 124.243,-262.773 119.554,-251.518"/>
</g>
<!-- 4&#45;&#45;17 -->
<g id="edge36" class="edge"><title>4&#45;&#45;17</title>
<path fill="none" stroke="black" stroke-width="0.692308" stroke-dasharray="1,5" d="M40.2543,-215.831C40.2543,-205 40.2543,-191.288 40.2543,-180.413"/>
</g>
<!-- 5&#45;&#45;11 -->
<g id="edge38" class="edge"><title>5&#45;&#45;11</title>
<path fill="none" stroke="red" stroke-width="1.5" d="M287.476,-216.571C283.106,-205.334 277.444,-190.773 273.067,-179.518"/>
</g>
<!-- 5&#45;&#45;21 -->
<g id="edge40" class="edge"><title>5&#45;&#45;21</title>
<path fill="none" stroke="green" stroke-width="4.5" d="M319.435,-227.06C333.673,-223.342 351.855,-218.935 368.254,-216 453.755,-200.697 720.655,-173.302 806.425,-164.677"/>
</g>
<!-- 7&#45;&#45;11 -->
<g id="edge48" class="edge"><title>7&#45;&#45;11</title>
<path fill="none" stroke="green" stroke-width="1.28571" d="M133.897,-223.028C138.614,-220.678 143.59,-218.232 148.254,-216 181.175,-200.243 219.684,-182.804 243.525,-172.122"/>
</g>
<!-- 21&#45;&#45;25 -->
<g id="edge80" class="edge"><title>21&#45;&#45;25</title>
<path fill="none" stroke="orange" stroke-width="1.125" d="M845.054,-145.662C853.564,-133.879 865.002,-118.042 873.501,-106.273"/>
</g>
<!-- 6 -->
<g id="node41" class="node"><title>6</title>
<ellipse fill="none" stroke="black" cx="1060.25" cy="-306" rx="27" ry="18"/>
<text text-anchor="middle" x="1060.25" y="-301.9" font-family="Times Roman,serif" font-size="14.00">6</text>
</g>
<!-- 6&#45;&#45;22 -->
<g id="edge46" class="edge"><title>6&#45;&#45;22</title>
<path fill="none" stroke="green" stroke-width="4.5" d="M1044.98,-290.731C1032.77,-278.512 1015.71,-261.46 1003.5,-249.247"/>
</g>
<!-- 16 -->
<g id="node43" class="node"><title>16</title>
<ellipse fill="none" stroke="black" cx="1060.25" cy="-234" rx="27" ry="18"/>
<text text-anchor="middle" x="1060.25" y="-229.9" font-family="Times Roman,serif" font-size="14.00">16</text>
</g>
<!-- 6&#45;&#45;16 -->
<g id="edge42" class="edge"><title>6&#45;&#45;16</title>
<path fill="none" stroke="blue" d="M1060.25,-287.831C1060.25,-277 1060.25,-263.288 1060.25,-252.413"/>
</g>
<!-- 20 -->
<g id="node45" class="node"><title>20</title>
<ellipse fill="none" stroke="black" cx="1062.25" cy="-90" rx="27" ry="18"/>
<text text-anchor="middle" x="1062.25" y="-85.9" font-family="Times Roman,serif" font-size="14.00">20</text>
</g>
<!-- 6&#45;&#45;20 -->
<g id="edge44" class="edge"><title>6&#45;&#45;20</title>
<path fill="none" stroke="green" d="M1074.38,-290.284C1082.51,-280.147 1091.94,-266.235 1096.25,-252 1111.91,-200.291 1086.24,-137.162 1071.49,-107.273"/>
</g>
<!-- 20&#45;&#45;26 -->
<g id="edge78" class="edge"><title>20&#45;&#45;26</title>
<path fill="none" stroke="blue" stroke-width="0.75" d="M1044.67,-75.7751C1028.97,-63.0706 1006.1,-44.5705 990.498,-31.9503"/>
</g>
<!-- 8 -->
<g id="node48" class="node"><title>8</title>
<ellipse fill="none" stroke="black" cx="692.254" cy="-378" rx="27" ry="18"/>
<text text-anchor="middle" x="692.254" y="-373.9" font-family="Times Roman,serif" font-size="14.00">8</text>
</g>
<!-- 8&#45;&#45;15 -->
<g id="edge52" class="edge"><title>8&#45;&#45;15</title>
<path fill="none" stroke="blue" stroke-width="0.818182" d="M719.074,-375.596C753.066,-371.158 811.42,-358.683 846.254,-324 865.88,-304.46 873.518,-272.114 876.457,-251.985"/>
</g>
<!-- 12 -->
<g id="node50" class="node"><title>12</title>
<ellipse fill="none" stroke="black" cx="514.254" cy="-306" rx="27" ry="18"/>
<text text-anchor="middle" x="514.254" y="-301.9" font-family="Times Roman,serif" font-size="14.00">12</text>
</g>
<!-- 8&#45;&#45;12 -->
<g id="edge50" class="edge"><title>8&#45;&#45;12</title>
<path fill="none" stroke="red" stroke-width="2.25" d="M668.984,-368.587C634.87,-354.789 571.647,-329.215 537.53,-315.415"/>
</g>
<!-- 12&#45;&#45;23 -->
<g id="edge62" class="edge"><title>12&#45;&#45;23</title>
<path fill="none" stroke="blue" stroke-width="1.125" d="M514.254,-287.831C514.254,-277 514.254,-263.288 514.254,-252.413"/>
</g>
<!-- 12&#45;&#45;29 -->
<g id="edge60" class="edge"><title>12&#45;&#45;29</title>
<path fill="none" stroke="blue" d="M494.842,-293.294C474.858,-280.213 443.89,-259.944 423.843,-246.822"/>
</g>
<!-- 10 -->
<g id="node53" class="node"><title>10</title>
<ellipse fill="none" stroke="black" cx="168.254" cy="-378" rx="27" ry="18"/>
<text text-anchor="middle" x="168.254" y="-373.9" font-family="Times Roman,serif" font-size="14.00">10</text>
</g>
<!-- 10&#45;&#45;17 -->
<g id="edge56" class="edge"><title>10&#45;&#45;17</title>
<path fill="none" stroke="red" stroke-width="0.9" d="M145.1,-368.464C107.366,-351.487 33.8531,-312.066 4.25425,-252 -8.24248,-226.64 11.1667,-195.805 25.9871,-177.603"/>
</g>
<!-- 19 -->
<g id="node56" class="node"><title>19</title>
<ellipse fill="none" stroke="black" cx="377.254" cy="-306" rx="27" ry="18"/>
<text text-anchor="middle" x="377.254" y="-301.9" font-family="Times Roman,serif" font-size="14.00">19</text>
</g>
<!-- 10&#45;&#45;19 -->
<g id="edge58" class="edge"><title>10&#45;&#45;19</title>
<path fill="none" stroke="orange" stroke-width="0.9" d="M192.638,-369.6C232.91,-355.726 312.856,-328.185 353.026,-314.347"/>
</g>
<!-- 19&#45;&#45;23 -->
<g id="edge76" class="edge"><title>19&#45;&#45;23</title>
<path fill="none" stroke="blue" stroke-width="2.25" d="M398.661,-294.75C424.398,-281.224 467.328,-258.662 492.998,-245.171"/>
</g>
<!-- 19&#45;&#45;29 -->
<g id="edge74" class="edge"><title>19&#45;&#45;29</title>
<path fill="none" stroke="blue" d="M383.928,-288.202C388.114,-277.042 393.486,-262.714 397.657,-251.593"/>
</g>
<!-- 19&#45;&#45;28 -->
<g id="edge72" class="edge"><title>19&#45;&#45;28</title>
<path fill="none" stroke="orange" stroke-width="0.75" d="M369.314,-288.733C361.665,-269.263 353.269,-237.52 368.254,-216 382.347,-195.762 450.545,-176.936 488.545,-167.793"/>
</g>
<!-- 14 -->
<g id="node60" class="node"><title>14</title>
<ellipse fill="none" stroke="black" cx="933.254" cy="-306" rx="27" ry="18"/>
<text text-anchor="middle" x="933.254" y="-301.9" font-family="Times Roman,serif" font-size="14.00">14</text>
</g>
<!-- 14&#45;&#45;23 -->
<g id="edge70" class="edge"><title>14&#45;&#45;23</title>
<path fill="none" stroke="orange" d="M907.472,-300.08C890.214,-296.262 866.955,-291.394 846.254,-288 715.476,-266.556 677.157,-290.193 550.254,-252 545.169,-250.47 539.93,-248.261 535.077,-245.913"/>
</g>
<!-- 14&#45;&#45;21 -->
<g id="edge68" class="edge"><title>14&#45;&#45;21</title>
<path fill="none" stroke="green" stroke-width="2.25" d="M933.348,-287.885C932.609,-268.521 928.943,-237.683 914.254,-216 900.13,-195.151 875.008,-180.279 856.475,-171.488"/>
</g>
<!-- 14&#45;&#45;16 -->
<g id="edge66" class="edge"><title>14&#45;&#45;16</title>
<path fill="none" stroke="green" stroke-width="0.692308" d="M953.942,-294.272C977.558,-280.883 1015.96,-259.11 1039.58,-245.723"/>
</g>
</g>
</svg>
