<?xml version="1.0" encoding="UTF-8" standalone="no"?>
<!DOCTYPE svg PUBLIC "-//W3C//DTD SVG 1.1//EN"
 "http://www.w3.org/Graphics/SVG/1.1/DTD/svg11.dtd">
<!-- Generated by graphviz version 2.26.3 (20100126.1600)
 -->
<!-- Title: G Pages: 1 -->
<svg width="1353pt" height="404pt"
 viewBox="0.00 0.00 1353.40 404.00" xmlns="http://www.w3.org/2000/svg" xmlns:xlink="http://www.w3.org/1999/xlink">
<g id="graph1" class="graph" transform="scale(1 1) rotate(0) translate(4 400)">
<title>G</title>
<polygon fill="white" stroke="white" points="-4,5 -4,-400 1350.4,-400 1350.4,5 -4,5"/>
<!-- 0 -->
<g id="node1" class="node"><title>0</title>
<ellipse fill="none" stroke="black" cx="544.403" cy="-378" rx="27" ry="18"/>
<text text-anchor="middle" x="544.403" y="-373.9" font-family="Times Roman,serif" font-size="14.00">0</text>
</g>
<!-- 5 -->
<g id="node3" class="node"><title>5</title>
<ellipse fill="none" stroke="black" cx="206.403" cy="-306" rx="27" ry="18"/>
<text text-anchor="middle" x="206.403" y="-301.9" font-family="Times Roman,serif" font-size="14.00">5</text>
</g>
<!-- 0&#45;&#45;5 -->
<g id="edge2" class="edge"><title>0&#45;&#45;5</title>
<path fill="none" stroke="black" stroke-width="0.529412" stroke-dasharray="1,5" d="M517.688,-375.264C465.058,-369.413 344.629,-353.732 247.403,-324 241.009,-322.045 234.285,-319.372 228.172,-316.684"/>
</g>
<!-- 10 -->
<g id="node5" class="node"><title>10</title>
<ellipse fill="none" stroke="black" cx="1136.4" cy="-306" rx="27" ry="18"/>
<text text-anchor="middle" x="1136.4" y="-301.9" font-family="Times Roman,serif" font-size="14.00">10</text>
</g>
<!-- 0&#45;&#45;10 -->
<g id="edge4" class="edge"><title>0&#45;&#45;10</title>
<path fill="none" stroke="black" stroke-width="0.529412" stroke-dasharray="1,5" d="M571.532,-376.288C648.218,-371.203 872.98,-354.605 1057.4,-324 1075.44,-321.006 1095.53,-316.411 1110.94,-312.613"/>
</g>
<!-- 15 -->
<g id="node7" class="node"><title>15</title>
<ellipse fill="none" stroke="black" cx="1318.4" cy="-90" rx="27" ry="18"/>
<text text-anchor="middle" x="1318.4" y="-85.9" font-family="Times Roman,serif" font-size="14.00">15</text>
</g>
<!-- 0&#45;&#45;15 -->
<g id="edge6" class="edge"><title>0&#45;&#45;15</title>
<path fill="none" stroke="black" stroke-width="2.25" stroke-dasharray="1,5" d="M571.566,-377.087C685.401,-373.071 1120.55,-355.748 1172.4,-324 1194.05,-310.749 1279.97,-158.97 1308.86,-107.187"/>
</g>
<!-- 18 -->
<g id="node9" class="node"><title>18</title>
<ellipse fill="none" stroke="black" cx="654.403" cy="-234" rx="27" ry="18"/>
<text text-anchor="middle" x="654.403" y="-229.9" font-family="Times Roman,serif" font-size="14.00">18</text>
</g>
<!-- 0&#45;&#45;18 -->
<g id="edge8" class="edge"><title>0&#45;&#45;18</title>
<path fill="none" stroke="black" stroke-width="0.692308" stroke-dasharray="1,5" d="M568.793,-369.906C589.726,-361.675 619.034,-346.849 635.403,-324 650.655,-302.71 654.163,-271.762 654.714,-252.267"/>
</g>
<!-- 20 -->
<g id="node11" class="node"><title>20</title>
<ellipse fill="none" stroke="black" cx="138.403" cy="-162" rx="27" ry="18"/>
<text text-anchor="middle" x="138.403" y="-157.9" font-family="Times Roman,serif" font-size="14.00">20</text>
</g>
<!-- 0&#45;&#45;20 -->
<g id="edge10" class="edge"><title>0&#45;&#45;20</title>
<path fill="none" stroke="black" stroke-width="0.5" stroke-dasharray="1,5" d="M517.397,-376.562C437.79,-371.99 205.379,-356.158 137.403,-324 132.109,-321.495 62.7342,-257.372 60.4026,-252 54.0326,-237.323 52.9769,-230.172 60.4026,-216 71.792,-194.262 96.3467,-179.536 114.883,-171.023"/>
</g>
<!-- 22 -->
<g id="node13" class="node"><title>22</title>
<ellipse fill="none" stroke="black" cx="582.403" cy="-234" rx="27" ry="18"/>
<text text-anchor="middle" x="582.403" y="-229.9" font-family="Times Roman,serif" font-size="14.00">22</text>
</g>
<!-- 0&#45;&#45;22 -->
<g id="edge12" class="edge"><title>0&#45;&#45;22</title>
<path fill="none" stroke="black" stroke-width="0.692308" stroke-dasharray="1,5" d="M547.506,-359.903C550.81,-341.609 556.509,-312.603 563.403,-288 566.835,-275.751 571.585,-262.251 575.477,-251.813"/>
</g>
<!-- 23 -->
<g id="node15" class="node"><title>23</title>
<ellipse fill="none" stroke="black" cx="713.403" cy="-162" rx="27" ry="18"/>
<text text-anchor="middle" x="713.403" y="-157.9" font-family="Times Roman,serif" font-size="14.00">23</text>
</g>
<!-- 0&#45;&#45;23 -->
<g id="edge14" class="edge"><title>0&#45;&#45;23</title>
<path fill="none" stroke="black" stroke-width="2.25" stroke-dasharray="1,5" d="M571.686,-376.443C631.635,-372.393 771.79,-359.278 800.403,-324 830.639,-286.72 823.737,-257.947 800.403,-216 796.708,-209.359 759.131,-187.496 734.585,-173.71"/>
</g>
<!-- 24 -->
<g id="node17" class="node"><title>24</title>
<ellipse fill="none" stroke="black" cx="326.403" cy="-90" rx="27" ry="18"/>
<text text-anchor="middle" x="326.403" y="-85.9" font-family="Times Roman,serif" font-size="14.00">24</text>
</g>
<!-- 0&#45;&#45;24 -->
<g id="edge16" class="edge"><title>0&#45;&#45;24</title>
<path fill="none" stroke="black" stroke-width="0.5625" stroke-dasharray="1,5" d="M517.363,-376.113C435.283,-370.115 193.191,-350.315 170.403,-324 159.785,-311.74 161.892,-239.999 175.403,-216 189.013,-191.823 204.72,-197.31 226.403,-180 257.616,-155.081 291.748,-123.296 310.973,-104.936"/>
</g>
<!-- 25 -->
<g id="node19" class="node"><title>25</title>
<ellipse fill="none" stroke="black" cx="254.403" cy="-90" rx="27" ry="18"/>
<text text-anchor="middle" x="254.403" y="-85.9" font-family="Times Roman,serif" font-size="14.00">25</text>
</g>
<!-- 0&#45;&#45;25 -->
<g id="edge18" class="edge"><title>0&#45;&#45;25</title>
<path fill="none" stroke="black" stroke-width="0.692308" stroke-dasharray="1,5" d="M517.333,-376.201C412.632,-369.113 39.1828,-342.606 22.4026,-324 -36.23,-258.989 32.5994,-196.837 102.403,-144 140.697,-115.013 195.9,-100.629 228.17,-94.2918"/>
</g>
<!-- 27 -->
<g id="node24" class="node"><title>27</title>
<ellipse fill="none" stroke="black" cx="679.403" cy="-90" rx="27" ry="18"/>
<text text-anchor="middle" x="679.403" y="-85.9" font-family="Times Roman,serif" font-size="14.00">27</text>
</g>
<!-- 5&#45;&#45;27 -->
<g id="edge64" class="edge"><title>5&#45;&#45;27</title>
<path fill="none" stroke="black" stroke-width="0.642857" stroke-dasharray="1,5" d="M220.649,-290.692C238.865,-271.669 271.948,-238.92 304.403,-216 360.268,-176.547 376.264,-167.744 440.403,-144 515.003,-116.383 608.143,-100.299 652.933,-93.6353"/>
</g>
<!-- 11 -->
<g id="node28" class="node"><title>11</title>
<ellipse fill="none" stroke="black" cx="96.4026" cy="-234" rx="27" ry="18"/>
<text text-anchor="middle" x="96.4026" y="-229.9" font-family="Times Roman,serif" font-size="14.00">11</text>
</g>
<!-- 5&#45;&#45;11 -->
<g id="edge60" class="edge"><title>5&#45;&#45;11</title>
<path fill="none" stroke="black" stroke-width="1.5" stroke-dasharray="1,5" d="M186.99,-293.294C167.007,-280.213 136.039,-259.944 115.991,-246.822"/>
</g>
<!-- 21 -->
<g id="node56" class="node"><title>21</title>
<ellipse fill="none" stroke="black" cx="476.403" cy="-162" rx="27" ry="18"/>
<text text-anchor="middle" x="476.403" y="-157.9" font-family="Times Roman,serif" font-size="14.00">21</text>
</g>
<!-- 5&#45;&#45;21 -->
<g id="edge62" class="edge"><title>5&#45;&#45;21</title>
<path fill="none" stroke="black" stroke-width="4.5" stroke-dasharray="1,5" d="M227.589,-294.701C278.061,-267.782 404.942,-200.113 455.315,-173.247"/>
</g>
<!-- 17 -->
<g id="node48" class="node"><title>17</title>
<ellipse fill="none" stroke="black" cx="1115.4" cy="-90" rx="27" ry="18"/>
<text text-anchor="middle" x="1115.4" y="-85.9" font-family="Times Roman,serif" font-size="14.00">17</text>
</g>
<!-- 10&#45;&#45;17 -->
<g id="edge90" class="edge"><title>10&#45;&#45;17</title>
<path fill="none" stroke="black" stroke-width="0.9" stroke-dasharray="1,5" d="M1138.08,-287.842C1140.45,-257.691 1143.53,-195.514 1134.4,-144 1132.18,-131.474 1127.43,-117.974 1123.24,-107.605"/>
</g>
<!-- 19 -->
<g id="node62" class="node"><title>19</title>
<ellipse fill="none" stroke="black" cx="1060.4" cy="-234" rx="27" ry="18"/>
<text text-anchor="middle" x="1060.4" y="-229.9" font-family="Times Roman,serif" font-size="14.00">19</text>
</g>
<!-- 10&#45;&#45;19 -->
<g id="edge92" class="edge"><title>10&#45;&#45;19</title>
<path fill="none" stroke="black" stroke-width="0.9" stroke-dasharray="1,5" d="M1120.66,-291.082C1107.61,-278.725 1089.17,-261.251 1076.13,-248.899"/>
</g>
<!-- 18&#45;&#45;23 -->
<g id="edge112" class="edge"><title>18&#45;&#45;23</title>
<path fill="none" stroke="black" stroke-width="0.473684" stroke-dasharray="1,5" d="M667.497,-218.021C677.274,-206.089 690.577,-189.855 700.345,-177.934"/>
</g>
<!-- 20&#45;&#45;24 -->
<g id="edge122" class="edge"><title>20&#45;&#45;24</title>
<path fill="none" stroke="black" stroke-width="0.473684" stroke-dasharray="1,5" d="M162.974,-154.298C193.324,-144.551 246.342,-126.759 290.403,-108 295.16,-105.974 300.175,-103.616 304.902,-101.286"/>
</g>
<!-- 20&#45;&#45;25 -->
<g id="edge124" class="edge"><title>20&#45;&#45;25</title>
<path fill="none" stroke="black" stroke-width="0.529412" stroke-dasharray="1,5" d="M158.344,-149.623C179.591,-136.435 213.038,-115.675 234.333,-102.457"/>
</g>
<!-- 26 -->
<g id="node50" class="node"><title>26</title>
<ellipse fill="none" stroke="black" cx="326.403" cy="-18" rx="27" ry="18"/>
<text text-anchor="middle" x="326.403" y="-13.9" font-family="Times Roman,serif" font-size="14.00">26</text>
</g>
<!-- 20&#45;&#45;26 -->
<g id="edge126" class="edge"><title>20&#45;&#45;26</title>
<path fill="none" stroke="black" stroke-width="0.75" stroke-dasharray="1,5" d="M149.871,-145.673C164.172,-126.213 190.194,-93.6182 218.403,-72 244.692,-51.8525 279.67,-36.0048 302.597,-26.824"/>
</g>
<!-- 22&#45;&#45;23 -->
<g id="edge134" class="edge"><title>22&#45;&#45;23</title>
<path fill="none" stroke="black" stroke-width="0.473684" stroke-dasharray="1,5" d="M603.45,-222.432C627.896,-208.996 667.984,-186.963 692.407,-173.539"/>
</g>
<!-- 22&#45;&#45;25 -->
<g id="edge136" class="edge"><title>22&#45;&#45;25</title>
<path fill="none" stroke="black" stroke-width="0.818182" stroke-dasharray="1,5" d="M558.288,-225.531C529.839,-215.378 481.241,-197.53 440.403,-180 372.449,-150.832 356.809,-140.537 290.403,-108 285.759,-105.725 280.792,-103.261 276.077,-100.908"/>
</g>
<!-- 29 -->
<g id="node37" class="node"><title>29</title>
<ellipse fill="none" stroke="black" cx="891.403" cy="-90" rx="27" ry="18"/>
<text text-anchor="middle" x="891.403" y="-85.9" font-family="Times Roman,serif" font-size="14.00">29</text>
</g>
<!-- 22&#45;&#45;29 -->
<g id="edge140" class="edge"><title>22&#45;&#45;29</title>
<path fill="none" stroke="black" stroke-width="0.529412" stroke-dasharray="1,5" d="M595.025,-217.725C611.686,-197.382 642.962,-162.939 677.403,-144 739.014,-110.119 822.252,-97.0646 864.458,-92.3878"/>
</g>
<!-- 22&#45;&#45;26 -->
<g id="edge138" class="edge"><title>22&#45;&#45;26</title>
<path fill="none" stroke="black" stroke-width="0.5625" stroke-dasharray="1,5" d="M571.653,-217.123C558.969,-198.011 536.532,-166.595 512.403,-144 458.88,-93.8795 383.657,-49.4209 347.472,-29.3385"/>
</g>
<!-- 23&#45;&#45;24 -->
<g id="edge142" class="edge"><title>23&#45;&#45;24</title>
<path fill="none" stroke="black" stroke-width="9" stroke-dasharray="1,5" d="M687.107,-157.108C616.42,-143.957 422.912,-107.955 352.48,-94.8516"/>
</g>
<!-- 23&#45;&#45;27 -->
<g id="edge144" class="edge"><title>23&#45;&#45;27</title>
<path fill="none" stroke="black" stroke-width="0.473684" stroke-dasharray="1,5" d="M705.172,-144.571C699.826,-133.251 692.888,-118.557 687.557,-107.269"/>
</g>
<!-- 28 -->
<g id="node52" class="node"><title>28</title>
<ellipse fill="none" stroke="black" cx="876.403" cy="-18" rx="27" ry="18"/>
<text text-anchor="middle" x="876.403" y="-13.9" font-family="Times Roman,serif" font-size="14.00">28</text>
</g>
<!-- 23&#45;&#45;28 -->
<g id="edge146" class="edge"><title>23&#45;&#45;28</title>
<path fill="none" stroke="black" stroke-width="0.9" stroke-dasharray="1,5" d="M729.929,-147.4C761.17,-119.8 828.557,-60.2681 859.833,-32.6386"/>
</g>
<!-- 24&#45;&#45;26 -->
<g id="edge148" class="edge"><title>24&#45;&#45;26</title>
<path fill="none" stroke="black" stroke-width="0.473684" stroke-dasharray="1,5" d="M326.403,-71.8314C326.403,-61 326.403,-47.2876 326.403,-36.4133"/>
</g>
<!-- 24&#45;&#45;28 -->
<g id="edge150" class="edge"><title>24&#45;&#45;28</title>
<path fill="none" stroke="black" stroke-width="0.75" stroke-dasharray="1,5" d="M352.93,-86.5273C445.95,-74.3501 756.714,-33.6684 849.82,-21.4799"/>
</g>
<!-- 25&#45;&#45;26 -->
<g id="edge152" class="edge"><title>25&#45;&#45;26</title>
<path fill="none" stroke="black" stroke-dasharray="1,5" d="M269.672,-74.7307C281.891,-62.512 298.942,-45.4602 311.155,-33.2473"/>
</g>
<!-- 1 -->
<g id="node20" class="node"><title>1</title>
<ellipse fill="none" stroke="black" cx="874.403" cy="-234" rx="27" ry="18"/>
<text text-anchor="middle" x="874.403" y="-229.9" font-family="Times Roman,serif" font-size="14.00">1</text>
</g>
<!-- 1&#45;&#45;23 -->
<g id="edge24" class="edge"><title>1&#45;&#45;23</title>
<path fill="none" stroke="black" stroke-width="9" stroke-dasharray="1,5" d="M851.677,-223.837C820.992,-210.115 766.638,-185.807 736.013,-172.111"/>
</g>
<!-- 9 -->
<g id="node22" class="node"><title>9</title>
<ellipse fill="none" stroke="black" cx="1098.4" cy="-162" rx="27" ry="18"/>
<text text-anchor="middle" x="1098.4" y="-157.9" font-family="Times Roman,serif" font-size="14.00">9</text>
</g>
<!-- 1&#45;&#45;9 -->
<g id="edge20" class="edge"><title>1&#45;&#45;9</title>
<path fill="none" stroke="black" stroke-width="0.75" stroke-dasharray="1,5" d="M898.801,-226.158C941.889,-212.308 1030.97,-183.676 1074.03,-169.833"/>
</g>
<!-- 1&#45;&#45;27 -->
<g id="edge22" class="edge"><title>1&#45;&#45;27</title>
<path fill="none" stroke="black" stroke-width="0.473684" stroke-dasharray="1,5" d="M856.122,-220.731C841.125,-209.828 819.353,-193.962 800.403,-180 763.727,-152.979 721.008,-121.112 697.405,-103.47"/>
</g>
<!-- 9&#45;&#45;17 -->
<g id="edge88" class="edge"><title>9&#45;&#45;17</title>
<path fill="none" stroke="black" stroke-width="9" stroke-dasharray="1,5" d="M1102.6,-144.202C1105.22,-133.125 1108.57,-118.928 1111.19,-107.843"/>
</g>
<!-- 9&#45;&#45;28 -->
<g id="edge86" class="edge"><title>9&#45;&#45;28</title>
<path fill="none" stroke="black" stroke-width="0.642857" stroke-dasharray="1,5" d="M1078.7,-149.221C1036.57,-121.894 938.148,-58.0513 896.059,-30.7504"/>
</g>
<!-- 27&#45;&#45;28 -->
<g id="edge154" class="edge"><title>27&#45;&#45;28</title>
<path fill="none" stroke="black" stroke-dasharray="1,5" d="M703.165,-81.3151C741.03,-67.4764 814.638,-40.5738 852.555,-26.7157"/>
</g>
<!-- 2 -->
<g id="node26" class="node"><title>2</title>
<ellipse fill="none" stroke="black" cx="445.403" cy="-306" rx="27" ry="18"/>
<text text-anchor="middle" x="445.403" y="-301.9" font-family="Times Roman,serif" font-size="14.00">2</text>
</g>
<!-- 2&#45;&#45;18 -->
<g id="edge30" class="edge"><title>2&#45;&#45;18</title>
<path fill="none" stroke="black" stroke-width="0.5625" stroke-dasharray="1,5" d="M470.77,-299.462C504.887,-290.36 567.186,-272.641 618.403,-252 623.199,-250.067 628.23,-247.748 632.96,-245.427"/>
</g>
<!-- 2&#45;&#45;20 -->
<g id="edge32" class="edge"><title>2&#45;&#45;20</title>
<path fill="none" stroke="black" stroke-width="0.642857" stroke-dasharray="1,5" d="M422.734,-295.75C398.942,-284.963 360.473,-267.44 327.403,-252 266.81,-223.711 195.682,-189.593 160.465,-172.64"/>
</g>
<!-- 2&#45;&#45;24 -->
<g id="edge34" class="edge"><title>2&#45;&#45;24</title>
<path fill="none" stroke="black" stroke-dasharray="1,5" d="M436.065,-289.051C413.874,-248.772 358.174,-147.668 335.862,-107.169"/>
</g>
<!-- 2&#45;&#45;25 -->
<g id="edge36" class="edge"><title>2&#45;&#45;25</title>
<path fill="none" stroke="black" stroke-width="2.25" stroke-dasharray="1,5" d="M429.929,-291.2C418.941,-280.53 403.969,-265.661 391.403,-252 343.773,-200.222 290.954,-135.528 267.202,-106.014"/>
</g>
<!-- 2&#45;&#45;27 -->
<g id="edge38" class="edge"><title>2&#45;&#45;27</title>
<path fill="none" stroke="black" stroke-width="0.642857" stroke-dasharray="1,5" d="M462.446,-291.786C475.236,-281.024 493.1,-265.791 508.403,-252 509.39,-251.11 621.66,-144.721 663.726,-104.856"/>
</g>
<!-- 2&#45;&#45;11 -->
<g id="edge26" class="edge"><title>2&#45;&#45;11</title>
<path fill="none" stroke="black" stroke-width="1.8" stroke-dasharray="1,5" d="M419.456,-300.647C354.845,-287.318 187.311,-252.755 122.52,-239.388"/>
</g>
<!-- 13 -->
<g id="node30" class="node"><title>13</title>
<ellipse fill="none" stroke="black" cx="472.403" cy="-234" rx="27" ry="18"/>
<text text-anchor="middle" x="472.403" y="-229.9" font-family="Times Roman,serif" font-size="14.00">13</text>
</g>
<!-- 2&#45;&#45;13 -->
<g id="edge28" class="edge"><title>2&#45;&#45;13</title>
<path fill="none" stroke="black" stroke-width="0.9" stroke-dasharray="1,5" d="M452.077,-288.202C456.262,-277.042 461.635,-262.714 465.805,-251.593"/>
</g>
<!-- 2&#45;&#45;29 -->
<g id="edge40" class="edge"><title>2&#45;&#45;29</title>
<path fill="none" stroke="black" stroke-width="2.25" stroke-dasharray="1,5" d="M471.597,-301.635C495.476,-297.744 531.748,-292.054 563.403,-288 640.299,-278.152 858.49,-309.577 910.403,-252 947.095,-211.304 917.464,-139.575 900.808,-106.976"/>
</g>
<!-- 11&#45;&#45;24 -->
<g id="edge94" class="edge"><title>11&#45;&#45;24</title>
<path fill="none" stroke="black" stroke-width="0.818182" stroke-dasharray="1,5" d="M116.411,-221.473C160.019,-194.171 263.188,-129.578 306.604,-102.396"/>
</g>
<!-- 13&#45;&#45;21 -->
<g id="edge102" class="edge"><title>13&#45;&#45;21</title>
<path fill="none" stroke="black" stroke-width="9" stroke-dasharray="1,5" d="M473.412,-215.831C474.014,-205 474.775,-191.288 475.38,-180.413"/>
</g>
<!-- 3 -->
<g id="node38" class="node"><title>3</title>
<ellipse fill="none" stroke="black" cx="206.403" cy="-378" rx="27" ry="18"/>
<text text-anchor="middle" x="206.403" y="-373.9" font-family="Times Roman,serif" font-size="14.00">3</text>
</g>
<!-- 3&#45;&#45;5 -->
<g id="edge48" class="edge"><title>3&#45;&#45;5</title>
<path fill="none" stroke="black" stroke-width="2.25" stroke-dasharray="1,5" d="M206.403,-359.831C206.403,-349 206.403,-335.288 206.403,-324.413"/>
</g>
<!-- 3&#45;&#45;11 -->
<g id="edge44" class="edge"><title>3&#45;&#45;11</title>
<path fill="none" stroke="black" stroke-width="1.28571" stroke-dasharray="1,5" d="M179.798,-374.131C133.531,-366.8 41.3577,-349.318 22.4026,-324 12.8133,-311.192 15.1536,-302.264 22.4026,-288 32.9948,-267.158 55.8223,-252.446 73.3411,-243.697"/>
</g>
<!-- 12 -->
<g id="node40" class="node"><title>12</title>
<ellipse fill="none" stroke="black" cx="764.403" cy="-306" rx="27" ry="18"/>
<text text-anchor="middle" x="764.403" y="-301.9" font-family="Times Roman,serif" font-size="14.00">12</text>
</g>
<!-- 3&#45;&#45;12 -->
<g id="edge42" class="edge"><title>3&#45;&#45;12</title>
<path fill="none" stroke="black" stroke-width="0.75" stroke-dasharray="1,5" d="M233.026,-374.775C300.419,-366.584 483.225,-344.194 635.403,-324 670.82,-319.3 711.658,-313.545 737.734,-309.828"/>
</g>
<!-- 4 -->
<g id="node43" class="node"><title>4</title>
<ellipse fill="none" stroke="black" cx="1208.4" cy="-162" rx="27" ry="18"/>
<text text-anchor="middle" x="1208.4" y="-157.9" font-family="Times Roman,serif" font-size="14.00">4</text>
</g>
<!-- 3&#45;&#45;4 -->
<g id="edge46" class="edge"><title>3&#45;&#45;4</title>
<path fill="none" stroke="black" stroke-width="1.5" stroke-dasharray="1,5" d="M233.522,-376.964C317.975,-373.432 583.589,-360.021 800.403,-324 933.963,-301.81 974.95,-311.835 1096.4,-252 1135.56,-232.708 1173.52,-197.735 1193.62,-177.535"/>
</g>
<!-- 7 -->
<g id="node46" class="node"><title>7</title>
<ellipse fill="none" stroke="black" cx="58.4026" cy="-306" rx="27" ry="18"/>
<text text-anchor="middle" x="58.4026" y="-301.9" font-family="Times Roman,serif" font-size="14.00">7</text>
</g>
<!-- 3&#45;&#45;7 -->
<g id="edge50" class="edge"><title>3&#45;&#45;7</title>
<path fill="none" stroke="black" stroke-width="9" stroke-dasharray="1,5" d="M184.565,-367.376C156.583,-353.763 108.355,-330.301 80.3301,-316.667"/>
</g>
<!-- 12&#45;&#45;23 -->
<g id="edge100" class="edge"><title>12&#45;&#45;23</title>
<path fill="none" stroke="black" stroke-width="1.125" stroke-dasharray="1,5" d="M751.096,-290C743.272,-279.755 733.872,-265.831 728.403,-252 719.024,-228.284 715.509,-198.801 714.192,-180.185"/>
</g>
<!-- 12&#45;&#45;29 -->
<g id="edge96" class="edge"><title>12&#45;&#45;29</title>
<path fill="none" stroke="black" stroke-dasharray="1,5" d="M791.117,-303.387C843.803,-297.624 958.032,-281.899 981.403,-252 1020.54,-201.936 945.72,-132.699 909.484,-103.669"/>
</g>
<!-- 14 -->
<g id="node79" class="node"><title>14</title>
<ellipse fill="none" stroke="black" cx="764.403" cy="-234" rx="27" ry="18"/>
<text text-anchor="middle" x="764.403" y="-229.9" font-family="Times Roman,serif" font-size="14.00">14</text>
</g>
<!-- 12&#45;&#45;14 -->
<g id="edge98" class="edge"><title>12&#45;&#45;14</title>
<path fill="none" stroke="black" stroke-width="0.692308" stroke-dasharray="1,5" d="M764.403,-287.831C764.403,-277 764.403,-263.288 764.403,-252.413"/>
</g>
<!-- 4&#45;&#45;15 -->
<g id="edge58" class="edge"><title>4&#45;&#45;15</title>
<path fill="none" stroke="black" stroke-width="0.529412" stroke-dasharray="1,5" d="M1227.82,-149.294C1247.8,-136.213 1278.77,-115.944 1298.81,-102.822"/>
</g>
<!-- 4&#45;&#45;17 -->
<g id="edge52" class="edge"><title>4&#45;&#45;17</title>
<path fill="none" stroke="black" stroke-width="0.692308" stroke-dasharray="1,5" d="M1190.47,-148.118C1174,-135.368 1149.73,-116.576 1133.28,-103.84"/>
</g>
<!-- 4&#45;&#45;26 -->
<g id="edge54" class="edge"><title>4&#45;&#45;26</title>
<path fill="none" stroke="black" stroke-width="0.5" stroke-dasharray="1,5" d="M1199.9,-144.765C1187.83,-121.085 1165.64,-80.4508 1151.4,-72 1116.3,-51.1615 492.054,-24.7143 353.496,-19.084"/>
</g>
<!-- 4&#45;&#45;28 -->
<g id="edge56" class="edge"><title>4&#45;&#45;28</title>
<path fill="none" stroke="black" stroke-width="0.5" stroke-dasharray="1,5" d="M1208.94,-143.914C1208.51,-123.38 1204.43,-90.3562 1184.4,-72 1143.48,-34.4939 971.395,-22.4508 903.814,-19.1232"/>
</g>
<!-- 7&#45;&#45;11 -->
<g id="edge74" class="edge"><title>7&#45;&#45;11</title>
<path fill="none" stroke="black" stroke-width="1.28571" stroke-dasharray="1,5" d="M67.408,-288.937C73.3778,-277.626 81.1877,-262.828 87.1978,-251.441"/>
</g>
<!-- 21&#45;&#45;25 -->
<g id="edge128" class="edge"><title>21&#45;&#45;25</title>
<path fill="none" stroke="black" stroke-width="1.125" stroke-dasharray="1,5" d="M450.645,-156.092C414.289,-147.401 346.137,-129.817 290.403,-108 285.457,-106.064 280.275,-103.691 275.433,-101.312"/>
</g>
<!-- 21&#45;&#45;27 -->
<g id="edge130" class="edge"><title>21&#45;&#45;27</title>
<path fill="none" stroke="black" stroke-width="0.529412" stroke-dasharray="1,5" d="M498.804,-151.721C504.8,-149.092 511.309,-146.347 517.403,-144 565.4,-125.509 622.749,-107.279 654.727,-97.4488"/>
</g>
<!-- 21&#45;&#45;29 -->
<g id="edge132" class="edge"><title>21&#45;&#45;29</title>
<path fill="none" stroke="black" stroke-width="0.692308" stroke-dasharray="1,5" d="M502.678,-157.441C577.422,-144.474 790.64,-107.482 865.242,-94.5386"/>
</g>
<!-- 6 -->
<g id="node58" class="node"><title>6</title>
<ellipse fill="none" stroke="black" cx="599.403" cy="-306" rx="27" ry="18"/>
<text text-anchor="middle" x="599.403" y="-301.9" font-family="Times Roman,serif" font-size="14.00">6</text>
</g>
<!-- 6&#45;&#45;20 -->
<g id="edge70" class="edge"><title>6&#45;&#45;20</title>
<path fill="none" stroke="black" stroke-dasharray="1,5" d="M574.943,-298.36C495.18,-273.445 243.163,-194.723 163.083,-169.709"/>
</g>
<!-- 6&#45;&#45;22 -->
<g id="edge72" class="edge"><title>6&#45;&#45;22</title>
<path fill="none" stroke="black" stroke-width="4.5" stroke-dasharray="1,5" d="M595.2,-288.202C592.585,-277.125 589.233,-262.928 586.615,-251.843"/>
</g>
<!-- 16 -->
<g id="node60" class="node"><title>16</title>
<ellipse fill="none" stroke="black" cx="836.403" cy="-162" rx="27" ry="18"/>
<text text-anchor="middle" x="836.403" y="-157.9" font-family="Times Roman,serif" font-size="14.00">16</text>
</g>
<!-- 6&#45;&#45;16 -->
<g id="edge66" class="edge"><title>6&#45;&#45;16</title>
<path fill="none" stroke="black" stroke-dasharray="1,5" d="M626.07,-302.316C699.731,-292.015 901.186,-262.955 910.403,-252 920.703,-239.757 917.652,-230.264 910.403,-216 899.81,-195.158 876.983,-180.446 859.464,-171.697"/>
</g>
<!-- 6&#45;&#45;19 -->
<g id="edge68" class="edge"><title>6&#45;&#45;19</title>
<path fill="none" stroke="black" stroke-width="0.473684" stroke-dasharray="1,5" d="M625.865,-302.289C710.963,-290.353 972.582,-253.625 981.403,-252 999.387,-248.686 1019.48,-244.096 1034.9,-240.381"/>
</g>
<!-- 16&#45;&#45;29 -->
<g id="edge110" class="edge"><title>16&#45;&#45;29</title>
<path fill="none" stroke="black" stroke-width="0.529412" stroke-dasharray="1,5" d="M848.883,-145.662C857.884,-133.879 869.982,-118.042 878.972,-106.273"/>
</g>
<!-- 19&#45;&#45;23 -->
<g id="edge114" class="edge"><title>19&#45;&#45;23</title>
<path fill="none" stroke="black" stroke-width="2.25" stroke-dasharray="1,5" d="M1034.6,-228.647C970.364,-215.318 803.79,-180.755 739.37,-167.388"/>
</g>
<!-- 19&#45;&#45;25 -->
<g id="edge116" class="edge"><title>19&#45;&#45;25</title>
<path fill="none" stroke="black" stroke-width="0.692308" stroke-dasharray="1,5" d="M1040.8,-221.453C1007.65,-200.978 937.722,-160.966 872.403,-144 621.565,-78.8462 540.672,-175.304 290.403,-108 285.139,-106.585 279.741,-104.361 274.779,-101.952"/>
</g>
<!-- 19&#45;&#45;29 -->
<g id="edge120" class="edge"><title>19&#45;&#45;29</title>
<path fill="none" stroke="black" stroke-dasharray="1,5" d="M1048.58,-217.682C1034.17,-198.523 1008.38,-166.512 981.403,-144 960.137,-126.255 932.396,-110.545 913.366,-100.709"/>
</g>
<!-- 19&#45;&#45;28 -->
<g id="edge118" class="edge"><title>19&#45;&#45;28</title>
<path fill="none" stroke="black" stroke-width="0.75" stroke-dasharray="1,5" d="M1087.01,-230.131C1133.27,-222.8 1225.45,-205.318 1244.4,-180 1270.23,-145.505 1208.83,-73.0382 1207.4,-72 1158.85,-36.6781 973.68,-23.2203 903.545,-19.3236"/>
</g>
<!-- 8 -->
<g id="node66" class="node"><title>8</title>
<ellipse fill="none" stroke="black" cx="1081.4" cy="-378" rx="27" ry="18"/>
<text text-anchor="middle" x="1081.4" y="-373.9" font-family="Times Roman,serif" font-size="14.00">8</text>
</g>
<!-- 8&#45;&#45;15 -->
<g id="edge84" class="edge"><title>8&#45;&#45;15</title>
<path fill="none" stroke="black" stroke-width="0.818182" stroke-dasharray="1,5" d="M1105,-369.154C1127.72,-359.957 1162.38,-344.098 1188.4,-324 1255.94,-271.834 1283.91,-259.309 1315.4,-180 1324.75,-156.462 1323.47,-126.673 1321.27,-107.971"/>
</g>
<!-- 8&#45;&#45;24 -->
<g id="edge76" class="edge"><title>8&#45;&#45;24</title>
<path fill="none" stroke="black" stroke-width="0.692308" stroke-dasharray="1,5" d="M1054.2,-377.491C934.956,-375.036 461.973,-362.9 409.403,-324 338.543,-271.567 327.928,-153.582 326.525,-108.234"/>
</g>
<!-- 8&#45;&#45;29 -->
<g id="edge82" class="edge"><title>8&#45;&#45;29</title>
<path fill="none" stroke="black" stroke-width="0.5625" stroke-dasharray="1,5" d="M1106.56,-370.822C1128.32,-363.132 1158.4,-348.585 1172.4,-324 1180.32,-310.096 1178.72,-302.698 1172.4,-288 1162.95,-266.029 1032.61,-156.79 1012.4,-144 980.912,-124.072 940.822,-107.741 915.627,-98.4349"/>
</g>
<!-- 8&#45;&#45;12 -->
<g id="edge80" class="edge"><title>8&#45;&#45;12</title>
<path fill="none" stroke="black" stroke-width="2.25" stroke-dasharray="1,5" d="M1055.73,-372.169C996.329,-358.677 849.949,-325.43 790.315,-311.885"/>
</g>
<!-- 8&#45;&#45;19 -->
<g id="edge78" class="edge"><title>8&#45;&#45;19</title>
<path fill="none" stroke="black" stroke-width="0.75" stroke-dasharray="1,5" d="M1078.79,-360.053C1074.76,-332.459 1067.1,-279.903 1063.05,-252.173"/>
</g>
<!-- 14&#45;&#45;23 -->
<g id="edge108" class="edge"><title>14&#45;&#45;23</title>
<path fill="none" stroke="black" stroke-dasharray="1,5" d="M752.83,-217.662C744.601,-206.045 733.581,-190.487 725.283,-178.773"/>
</g>
<!-- 14&#45;&#45;21 -->
<g id="edge106" class="edge"><title>14&#45;&#45;21</title>
<path fill="none" stroke="black" stroke-width="2.25" stroke-dasharray="1,5" d="M739.097,-227.674C684.605,-214.05 556.678,-182.069 501.96,-168.389"/>
</g>
<!-- 14&#45;&#45;16 -->
<g id="edge104" class="edge"><title>14&#45;&#45;16</title>
<path fill="none" stroke="black" stroke-width="0.692308" stroke-dasharray="1,5" d="M779.672,-218.731C791.891,-206.512 808.942,-189.46 821.155,-177.247"/>
</g>
</g>
</svg>
