<?xml version="1.0" encoding="UTF-8" standalone="no"?>
<!DOCTYPE svg PUBLIC "-//W3C//DTD SVG 1.1//EN"
 "http://www.w3.org/Graphics/SVG/1.1/DTD/svg11.dtd">
<!-- Generated by graphviz version 2.26.3 (20100126.1600)
 -->
<!-- Title: G Pages: 1 -->
<svg width="442pt" height="370pt"
 viewBox="0.00 0.00 442.00 370.00" xmlns="http://www.w3.org/2000/svg" xmlns:xlink="http://www.w3.org/1999/xlink">
<g id="graph1" class="graph" transform="scale(1 1) rotate(0) translate(4 366)">
<title>G</title>
<polygon fill="white" stroke="white" points="-4,5 -4,-366 439,-366 439,5 -4,5"/>
<!-- BAT&#45;B -->
<g id="node1" class="node"><title>BAT&#45;B</title>
<ellipse fill="none" stroke="black" cx="336" cy="-344" rx="39.1069" ry="18"/>
<text text-anchor="middle" x="336" y="-339.9" font-family="Times Roman,serif" font-size="14.00">BAT&#45;B</text>
</g>
<!-- BAT&#45;AWDS1 -->
<g id="node3" class="node"><title>BAT&#45;AWDS1</title>
<ellipse fill="none" stroke="black" cx="147" cy="-270" rx="70.1831" ry="18"/>
<text text-anchor="middle" x="147" y="-265.9" font-family="Times Roman,serif" font-size="14.00">BAT&#45;AWDS1</text>
</g>
<!-- BAT&#45;B&#45;&#45;BAT&#45;AWDS1 -->
<g id="edge36" class="edge"><title>BAT&#45;B&#45;&#45;BAT&#45;AWDS1</title>
<path fill="none" stroke="green" stroke-width="2" d="M306.052,-332.274C273.473,-319.519 221.286,-299.085 185.64,-285.129"/>
</g>
<!-- BAT&#45;A -->
<g id="node2" class="node"><title>BAT&#45;A</title>
<ellipse fill="none" stroke="black" cx="388" cy="-18" rx="39.8056" ry="18"/>
<text text-anchor="middle" x="388" y="-13.9" font-family="Times Roman,serif" font-size="14.00">BAT&#45;A</text>
</g>
<!-- BAT&#45;A&#45;&#45;BAT&#45;B -->
<g id="edge34" class="edge"><title>BAT&#45;A&#45;&#45;BAT&#45;B</title>
<path fill="none" stroke="green" stroke-width="2" d="M403.831,-34.8736C417.137,-50.8708 434,-76.2284 434,-102 434,-270 434,-270 434,-270 434,-303.365 397.375,-323.592 368.905,-334.274"/>
</g>
<!-- BAT&#45;AWDS2 -->
<g id="node5" class="node"><title>BAT&#45;AWDS2</title>
<ellipse fill="none" stroke="black" cx="183" cy="-186" rx="70.1831" ry="18"/>
<text text-anchor="middle" x="183" y="-181.9" font-family="Times Roman,serif" font-size="14.00">BAT&#45;AWDS2</text>
</g>
<!-- BAT&#45;AWDS1&#45;&#45;BAT&#45;AWDS2 -->
<g id="edge30" class="edge"><title>BAT&#45;AWDS1&#45;&#45;BAT&#45;AWDS2</title>
<path fill="none" stroke="#7f7f7f" stroke-width="3.25" stroke-dasharray="1,5" d="M142.625,-251.997C141.245,-242.687 140.979,-231.347 145,-222 148.088,-214.821 153.39,-208.402 159.069,-203.043"/>
<text text-anchor="middle" x="151.5" y="-225" font-family="Times Roman,serif" font-size="10.00">11</text>
</g>
<!-- BAT&#45;C -->
<g id="node6" class="node"><title>BAT&#45;C</title>
<ellipse fill="none" stroke="black" cx="71" cy="-18" rx="39.8056" ry="18"/>
<text text-anchor="middle" x="71" y="-13.9" font-family="Times Roman,serif" font-size="14.00">BAT&#45;C</text>
</g>
<!-- BAT&#45;AWDS1&#45;&#45;BAT&#45;C -->
<g id="edge18" class="edge"><title>BAT&#45;AWDS1&#45;&#45;BAT&#45;C</title>
<path fill="none" stroke="#7f7f7f" stroke-width="3.5" stroke-dasharray="1,5" d="M132.644,-252.321C123.066,-239.616 110.989,-221.678 104,-204 80.8477,-145.443 73.8613,-70.0963 71.8152,-36.083"/>
<text text-anchor="middle" x="93.5" y="-141" font-family="Times Roman,serif" font-size="10.00">11</text>
</g>
<!-- BatAp&#45;2&#45;Remote -->
<g id="node4" class="node"><title>BatAp&#45;2&#45;Remote</title>
<ellipse fill="none" stroke="black" cx="239" cy="-18" rx="91.0296" ry="18"/>
<text text-anchor="middle" x="239" y="-13.9" font-family="Times Roman,serif" font-size="14.00">BatAp&#45;2&#45;Remote</text>
</g>
<!-- BAT&#45;AWDS3 -->
<g id="node8" class="node"><title>BAT&#45;AWDS3</title>
<ellipse fill="none" stroke="black" cx="336" cy="-102" rx="70.1831" ry="18"/>
<text text-anchor="middle" x="336" y="-97.9" font-family="Times Roman,serif" font-size="14.00">BAT&#45;AWDS3</text>
</g>
<!-- BatAp&#45;2&#45;Remote&#45;&#45;BAT&#45;AWDS3 -->
<g id="edge24" class="edge"><title>BatAp&#45;2&#45;Remote&#45;&#45;BAT&#45;AWDS3</title>
<path fill="none" stroke="#7f7f7f" stroke-width="1.7" stroke-dasharray="1,5" d="M276.126,-34.5988C285.827,-39.9556 295.84,-46.4844 304,-54 313.282,-62.5491 321.179,-74.3106 326.806,-84.0513"/>
<text text-anchor="middle" x="317.5" y="-57" font-family="Times Roman,serif" font-size="10.00">6</text>
</g>
<!-- BAT&#45;AWDS2&#45;&#45;BAT&#45;B -->
<g id="edge10" class="edge"><title>BAT&#45;AWDS2&#45;&#45;BAT&#45;B</title>
<path fill="none" stroke="#7f7f7f" stroke-width="0.6" stroke-dasharray="1,5" d="M138.997,-200.155C90.8605,-217.928 24.3621,-250.654 55,-288 85.17,-324.776 227.092,-337.858 296.954,-342.123"/>
<text text-anchor="middle" x="61.5" y="-267" font-family="Times Roman,serif" font-size="10.00">11</text>
</g>
<!-- BAT&#45;AWDS2&#45;&#45;BAT&#45;AWDS1 -->
<g id="edge22" class="edge"><title>BAT&#45;AWDS2&#45;&#45;BAT&#45;AWDS1</title>
<path fill="none" stroke="#7f7f7f" stroke-width="4.2" stroke-dasharray="1,5" d="M175.327,-203.903C169.283,-218.006 160.891,-237.587 154.811,-251.773"/>
<text text-anchor="middle" x="173.5" y="-225" font-family="Times Roman,serif" font-size="10.00">11</text>
</g>
<!-- BAT&#45;AWDS2&#45;&#45;BAT&#45;AWDS1 -->
<g id="edge32" class="edge"><title>BAT&#45;AWDS2&#45;&#45;BAT&#45;AWDS1</title>
<path fill="none" stroke="#7f7f7f" stroke-width="1.4" stroke-dasharray="1,5" d="M186.787,-203.986C187.914,-213.292 187.956,-224.632 184,-234 181.002,-241.101 175.842,-247.493 170.312,-252.852"/>
<text text-anchor="middle" x="192.5" y="-225" font-family="Times Roman,serif" font-size="10.00">11</text>
</g>
<!-- BAT&#45;AWDS2&#45;&#45;BAT&#45;AWDS1 -->
<g id="edge40" class="edge"><title>BAT&#45;AWDS2&#45;&#45;BAT&#45;AWDS1</title>
<path fill="none" stroke="green" stroke-width="2" d="M198.041,-203.74C203.983,-212.978 208.278,-224.333 203,-234 198.403,-242.42 190.9,-249.164 182.859,-254.435"/>
</g>
<!-- BAT&#45;AWDS2&#45;&#45;BatAp&#45;2&#45;Remote -->
<g id="edge8" class="edge"><title>BAT&#45;AWDS2&#45;&#45;BatAp&#45;2&#45;Remote</title>
<path fill="none" stroke="#7f7f7f" stroke-width="0.7" stroke-dasharray="1,5" d="M190.227,-167.91C195.407,-154.713 202.425,-136.352 208,-120 217.914,-90.9201 228.005,-56.6651 233.876,-36.1738"/>
<text text-anchor="middle" x="225.5" y="-99" font-family="Times Roman,serif" font-size="10.00">11</text>
</g>
<!-- BAT&#45;AWDS2&#45;&#45;BAT&#45;AWDS2 -->
<g id="edge26" class="edge"><title>BAT&#45;AWDS2&#45;&#45;BAT&#45;AWDS2</title>
<path fill="none" stroke="#7f7f7f" stroke-width="1.85" stroke-dasharray="1,5" d="M246.679,-193.663C260.751,-192.943 271,-190.389 271,-186 271,-181.611 260.751,-179.057 246.679,-178.337"/>
<text text-anchor="middle" x="277.5" y="-183" font-family="Times Roman,serif" font-size="10.00">11</text>
</g>
<!-- BatAp&#45;1 -->
<g id="node7" class="node"><title>BatAp&#45;1</title>
<ellipse fill="none" stroke="black" cx="149" cy="-102" rx="50.2242" ry="18"/>
<text text-anchor="middle" x="149" y="-97.9" font-family="Times Roman,serif" font-size="14.00">BatAp&#45;1</text>
</g>
<!-- BAT&#45;AWDS2&#45;&#45;BatAp&#45;1 -->
<g id="edge4" class="edge"><title>BAT&#45;AWDS2&#45;&#45;BatAp&#45;1</title>
<path fill="none" stroke="#7f7f7f" stroke-width="0.6" stroke-dasharray="1,5" d="M161.547,-168.547C156.465,-163.187 151.731,-156.87 149,-150 145.305,-140.707 145.075,-129.58 145.872,-120.379"/>
<text text-anchor="middle" x="155.5" y="-141" font-family="Times Roman,serif" font-size="10.00">11</text>
</g>
<!-- BAT&#45;AWDS2&#45;&#45;BatAp&#45;1 -->
<g id="edge6" class="edge"><title>BAT&#45;AWDS2&#45;&#45;BatAp&#45;1</title>
<path fill="none" stroke="#7f7f7f" stroke-width="0.6" stroke-dasharray="1,5" d="M175.623,-167.773C169.881,-153.587 161.955,-134.006 156.246,-119.903"/>
<text text-anchor="middle" x="174.5" y="-141" font-family="Times Roman,serif" font-size="10.00">11</text>
</g>
<!-- BAT&#45;AWDS2&#45;&#45;BAT&#45;AWDS3 -->
<g id="edge28" class="edge"><title>BAT&#45;AWDS2&#45;&#45;BAT&#45;AWDS3</title>
<path fill="none" stroke="#7f7f7f" stroke-width="3.1" stroke-dasharray="1,5" d="M212.915,-169.722C224.227,-163.556 237.213,-156.466 249,-150 268.056,-139.546 289.43,-127.755 306.223,-118.475"/>
<text text-anchor="middle" x="276.5" y="-141" font-family="Times Roman,serif" font-size="10.00">11</text>
</g>
<!-- BAT&#45;C&#45;&#45;BAT&#45;B -->
<g id="edge38" class="edge"><title>BAT&#45;C&#45;&#45;BAT&#45;B</title>
<path fill="none" stroke="green" stroke-width="2" d="M47.358,-32.5206C26.7041,-47.2196 0,-72.0211 0,-102 0,-270 0,-270 0,-270 0,-308.962 41.7072,-296.719 79,-308 154.035,-330.699 245.797,-339.173 296.883,-342.272"/>
</g>
<!-- BAT&#45;AWDS3&#45;&#45;BAT&#45;B -->
<g id="edge14" class="edge"><title>BAT&#45;AWDS3&#45;&#45;BAT&#45;B</title>
<path fill="none" stroke="#7f7f7f" stroke-width="1.3" stroke-dasharray="1,5" d="M336,-120.07C336,-164.903 336,-280.853 336,-325.811"/>
<text text-anchor="middle" x="339.5" y="-225" font-family="Times Roman,serif" font-size="10.00">6</text>
</g>
<!-- BAT&#45;AWDS3&#45;&#45;BAT&#45;A -->
<g id="edge16" class="edge"><title>BAT&#45;AWDS3&#45;&#45;BAT&#45;A</title>
<path fill="none" stroke="#7f7f7f" stroke-width="1.25" stroke-dasharray="1,5" d="M344.585,-83.8318C349.125,-74.6851 354.993,-63.5418 361,-54 364.996,-47.6529 369.791,-41.0037 374.225,-35.1714"/>
<text text-anchor="middle" x="364.5" y="-57" font-family="Times Roman,serif" font-size="10.00">6</text>
</g>
<!-- BAT&#45;AWDS3&#45;&#45;BAT&#45;A -->
<g id="edge20" class="edge"><title>BAT&#45;AWDS3&#45;&#45;BAT&#45;A</title>
<path fill="none" stroke="#7f7f7f" stroke-width="1.7" stroke-dasharray="1,5" d="M352.249,-84.4032C357.013,-78.763 362.01,-72.3326 366,-66 371.962,-56.538 377.238,-45.1931 381.128,-35.9089"/>
<text text-anchor="middle" x="375.5" y="-57" font-family="Times Roman,serif" font-size="10.00">6</text>
</g>
<!-- BAT&#45;AWDS3&#45;&#45;BatAp&#45;2&#45;Remote -->
<g id="edge2" class="edge"><title>BAT&#45;AWDS3&#45;&#45;BatAp&#45;2&#45;Remote</title>
<path fill="none" stroke="#7f7f7f" stroke-width="1.75" stroke-dasharray="1,5" d="M315.902,-84.5951C299.365,-70.2748 276.027,-50.0644 259.406,-35.6716"/>
<text text-anchor="middle" x="296.5" y="-57" font-family="Times Roman,serif" font-size="10.00">6</text>
</g>
<!-- BAT&#45;AWDS3&#45;&#45;BAT&#45;AWDS2 -->
<g id="edge42" class="edge"><title>BAT&#45;AWDS3&#45;&#45;BAT&#45;AWDS2</title>
<path fill="none" stroke="green" stroke-width="2" d="M321.221,-119.984C312.212,-129.979 299.962,-141.979 287,-150 270.672,-160.105 251.135,-167.824 233.426,-173.473"/>
</g>
<!-- BAT&#45;AWDS3&#45;&#45;BAT&#45;C -->
<g id="edge12" class="edge"><title>BAT&#45;AWDS3&#45;&#45;BAT&#45;C</title>
<path fill="none" stroke="#7f7f7f" stroke-width="1.55" stroke-dasharray="1,5" d="M291.645,-87.9403C238.602,-71.1266 151.067,-43.3798 103.768,-28.3869"/>
<text text-anchor="middle" x="222.5" y="-57" font-family="Times Roman,serif" font-size="10.00">6</text>
</g>
</g>
</svg>
