<?xml version="1.0" encoding="UTF-8" standalone="no"?>
<!DOCTYPE svg PUBLIC "-//W3C//DTD SVG 1.1//EN"
 "http://www.w3.org/Graphics/SVG/1.1/DTD/svg11.dtd">
<!-- Generated by graphviz version 2.26.3 (20100126.1600)
 -->
<!-- Title: G Pages: 1 -->
<svg width="344pt" height="188pt"
 viewBox="0.00 0.00 344.00 188.00" xmlns="http://www.w3.org/2000/svg" xmlns:xlink="http://www.w3.org/1999/xlink">
<g id="graph1" class="graph" transform="scale(1 1) rotate(0) translate(4 184)">
<title>G</title>
<polygon fill="white" stroke="white" points="-4,5 -4,-184 341,-184 341,5 -4,5"/>
<!-- BAT&#45;A -->
<g id="node1" class="node"><title>BAT&#45;A</title>
<ellipse fill="none" stroke="black" cx="40" cy="-162" rx="39.8056" ry="18"/>
<text text-anchor="middle" x="40" y="-157.9" font-family="Times Roman,serif" font-size="14.00">BAT&#45;A</text>
</g>
<!-- BAT&#45;B -->
<g id="node3" class="node"><title>BAT&#45;B</title>
<ellipse fill="none" stroke="black" cx="138" cy="-90" rx="39.1069" ry="18"/>
<text text-anchor="middle" x="138" y="-85.9" font-family="Times Roman,serif" font-size="14.00">BAT&#45;B</text>
</g>
<!-- BAT&#45;A&#45;&#45;BAT&#45;B -->
<g id="edge2" class="edge"><title>BAT&#45;A&#45;&#45;BAT&#45;B</title>
<path fill="none" stroke="green" d="M61.2645,-146.377C77.815,-134.218 100.66,-117.433 117.114,-105.345"/>
</g>
<!-- BAT&#45;AWDS1 -->
<g id="node5" class="node"><title>BAT&#45;AWDS1</title>
<ellipse fill="none" stroke="black" cx="201" cy="-18" rx="70.1831" ry="18"/>
<text text-anchor="middle" x="201" y="-13.9" font-family="Times Roman,serif" font-size="14.00">BAT&#45;AWDS1</text>
</g>
<!-- BAT&#45;B&#45;&#45;BAT&#45;AWDS1 -->
<g id="edge4" class="edge"><title>BAT&#45;B&#45;&#45;BAT&#45;AWDS1</title>
<path fill="none" stroke="green" d="M152.612,-73.3008C162.499,-62.0013 175.537,-47.1002 185.588,-35.6132"/>
</g>
<!-- BAT&#45;C -->
<g id="node6" class="node"><title>BAT&#45;C</title>
<ellipse fill="none" stroke="black" cx="138" cy="-162" rx="39.8056" ry="18"/>
<text text-anchor="middle" x="138" y="-157.9" font-family="Times Roman,serif" font-size="14.00">BAT&#45;C</text>
</g>
<!-- BAT&#45;C&#45;&#45;BAT&#45;B -->
<g id="edge6" class="edge"><title>BAT&#45;C&#45;&#45;BAT&#45;B</title>
<path fill="none" stroke="green" d="M138,-143.831C138,-133 138,-119.288 138,-108.413"/>
</g>
<!-- BAT&#45;AWDS2 -->
<g id="node8" class="node"><title>BAT&#45;AWDS2</title>
<ellipse fill="none" stroke="black" cx="265" cy="-90" rx="70.1831" ry="18"/>
<text text-anchor="middle" x="265" y="-85.9" font-family="Times Roman,serif" font-size="14.00">BAT&#45;AWDS2</text>
</g>
<!-- BAT&#45;AWDS2&#45;&#45;BAT&#45;AWDS1 -->
<g id="edge8" class="edge"><title>BAT&#45;AWDS2&#45;&#45;BAT&#45;AWDS1</title>
<path fill="none" stroke="green" d="M249.18,-72.2022C239.259,-61.0419 226.524,-46.7143 216.638,-35.593"/>
</g>
<!-- BAT&#45;AWDS3 -->
<g id="node10" class="node"><title>BAT&#45;AWDS3</title>
<ellipse fill="none" stroke="black" cx="266" cy="-162" rx="70.1831" ry="18"/>
<text text-anchor="middle" x="266" y="-157.9" font-family="Times Roman,serif" font-size="14.00">BAT&#45;AWDS3</text>
</g>
<!-- BAT&#45;AWDS3&#45;&#45;BAT&#45;AWDS2 -->
<g id="edge10" class="edge"><title>BAT&#45;AWDS3&#45;&#45;BAT&#45;AWDS2</title>
<path fill="none" stroke="green" d="M265.748,-143.831C265.597,-133 265.407,-119.288 265.256,-108.413"/>
</g>
</g>
</svg>
