<?xml version="1.0" encoding="utf-8" standalone="no"?>
<!DOCTYPE svg PUBLIC "-//W3C//DTD SVG 1.1//EN"
  "http://www.w3.org/Graphics/SVG/1.1/DTD/svg11.dtd">
<!-- Created with matplotlib (http://matplotlib.sourceforge.net/) -->
<svg height="403pt" version="1.1" viewBox="0 0 648 403" width="648pt" xmlns="http://www.w3.org/2000/svg" xmlns:xlink="http://www.w3.org/1999/xlink">
 <defs>
  <style type="text/css">
*{stroke-linecap:square;stroke-linejoin:round;}
  </style>
 </defs>
 <g id="figure_1">
  <g id="patch_1">
   <path d="
M0 403.307
L648.664 403.307
L648.664 0
L0 0
z
" style="fill:#ffffff;"/>
  </g>
  <g id="axes_1">
   <g id="patch_2">
    <path d="
M43.1081 368.742
L489.508 368.742
L489.508 23.1417
L43.1081 23.1417
z
" style="fill:#ffffff;"/>
   </g>
   <g id="line2d_1">
    <path clip-path="url(#p560831bd01)" d="
M43.1081 124.642
L48.3161 143.023
L53.5241 149.074
L58.7321 152.949
L63.9401 149.861
L69.1481 146.956
L74.3561 144.597
L79.5641 145.702
L84.7721 120.71
L89.9801 87.1518
L95.1881 98.2732
L100.396 82.1089
L105.604 63.5874
L110.812 51.7127
L116.02 46.8294
L121.228 56.1317
L126.436 56.1732
L131.644 50.3577
L136.852 71.9088
L142.06 75.2981
L147.268 93.1472
L152.476 79.8466
L157.684 77.4029
L162.892 83.3849
L168.1 79.5462
L173.308 68.2705
L178.516 53.5223
L183.724 48.5264
L188.932 56.9454
L194.14 51.8601
L199.348 49.697
L204.556 75.1081
L209.764 71.9735
L214.972 49.4735
L220.18 53.3872
L225.388 55.5417
L230.596 59.3626
L235.804 38.8658
L241.012 65.2539
L246.22 61.5685
L251.428 56.5126
L256.636 68.6956
L261.844 65.0601
L267.052 48.2545
L272.26 35.7873
L277.468 60.0933
L282.676 35.5697
L287.884 30.8717
L293.092 30.9668
L298.3 33.4802
L303.508 57.8517
L308.716 58.4808
L313.924 64.8867
L319.132 51.2639
L324.34 53.8974
L329.548 42.2879
L334.756 58.5089
L339.964 57.0016
L345.172 56.0127
L350.38 51.0257
L355.588 56.3199
L360.796 44.8684
L366.004 61.0507
L371.212 52.4628
L376.42 55.3987
L381.628 50.6453
L386.836 33.7481
L392.044 49.1415
L397.252 41.8811
L402.46 53.0237
L407.668 55.3797
L412.876 61.8189
L418.084 56.1814
L423.292 69.2439
L428.5 49.7093
L433.708 42.1091
L438.916 45.9538
L444.124 39.1068
L449.332 38.7291
L454.54 46.9376
L459.748 64.0786
L464.956 77.2526
L470.164 75.4317
L475.372 78.2008
L480.58 102.293
L485.788 109.133
L490.996 100.395
L496.204 113.608" style="fill:none;stroke:#0000ff;"/>
   </g>
   <g id="line2d_2">
    <path clip-path="url(#p560831bd01)" d="
M43.1081 220.703
L48.3161 218.877
L53.5241 218.081
L58.7321 223.2
L63.9401 237.504
L69.1481 226.009
L74.3561 220.836
L79.5641 220.824
L84.7721 214.142
L89.9801 210.465
L95.1881 222.928
L100.396 224.013
L105.604 234.133
L110.812 224.67
L116.02 227.929
L121.228 222.527
L126.436 221.168
L131.644 210.086
L136.852 213.026
L142.06 217.376
L147.268 241.544
L152.476 235.115
L157.684 225.437
L162.892 229.072
L168.1 227.726
L173.308 225.064
L178.516 226.197
L183.724 222.102
L188.932 215.444
L194.14 224.785
L199.348 214.087
L204.556 219.089
L209.764 207.708
L214.972 203.134
L220.18 198.464
L225.388 215.904
L230.596 221.273
L235.804 224.258
L241.012 233.089
L246.22 210.583
L251.428 215.255
L256.636 221.806
L261.844 224.306
L267.052 238.274
L272.26 240.181
L277.468 226.384
L282.676 212.901
L287.884 228.988
L293.092 234.359
L298.3 232.223
L303.508 225.705
L308.716 217.338
L313.924 229.019
L319.132 233.102
L324.34 227.602
L329.548 242.396
L334.756 236.904
L339.964 239.444
L345.172 247.129
L350.38 248.113
L355.588 242.354
L360.796 238.279
L366.004 232.981
L371.212 226.635
L376.42 220.621
L381.628 222.537
L386.836 221.432
L392.044 233.636
L397.252 241.552
L402.46 229.347
L407.668 221.533
L412.876 230.935
L418.084 234.244
L423.292 239.336
L428.5 229.07
L433.708 223.791
L438.916 226.095
L444.124 232.662
L449.332 238.674
L454.54 237.456
L459.748 236.275
L464.956 239.471
L470.164 239.166
L475.372 237.456
L480.58 240.635
L485.788 219.478
L490.996 233.187
L496.204 236.016" style="fill:none;stroke:#008000;"/>
   </g>
   <g id="line2d_3">
    <path clip-path="url(#p560831bd01)" d="
M43.1081 326.266
L48.3161 321.396
L53.5241 317.03
L58.7321 317.623
L63.9401 319.977
L69.1481 309.05
L74.3561 309.682
L79.5641 313.689
L84.7721 315.358
L89.9801 314.042
L95.1881 322.413
L100.396 320.071
L105.604 318.841
L110.812 320.132
L116.02 322.208
L121.228 325.352
L126.436 326.714
L131.644 321.486
L136.852 327.642
L142.06 327.372
L147.268 326.111
L152.476 321.94
L157.684 317.395
L162.892 323.228
L168.1 323.207
L173.308 323.392
L178.516 325.589
L183.724 325.123
L188.932 324.943
L194.14 325.769
L199.348 327.243
L204.556 325.539
L209.764 322.371
L214.972 324.657
L220.18 329.76
L225.388 326.929
L230.596 323.681
L235.804 316.15
L241.012 323.726
L246.22 319.428
L251.428 321.221
L256.636 312.405
L261.844 313.17
L267.052 313.676
L272.26 314
L277.468 317.468
L282.676 316.986
L287.884 318.297
L293.092 318.198
L298.3 324.248
L303.508 327.354
L308.716 323.035
L313.924 318.016
L319.132 319.408
L324.34 322.171
L329.548 335.078
L334.756 321.291
L339.964 307.812
L345.172 322.272
L350.38 325.095
L355.588 326.108
L360.796 326.058
L366.004 323.729
L371.212 322.351
L376.42 321.279
L381.628 323.79
L386.836 323.667
L392.044 323.869
L397.252 321.89
L402.46 325.628
L407.668 324.519
L412.876 327.528
L418.084 320.681
L423.292 312.058
L428.5 324.158
L433.708 319.185
L438.916 323.035
L444.124 315.673
L449.332 319.662
L454.54 320.082
L459.748 318.757
L464.956 321.443
L470.164 320.471
L475.372 327.765
L480.58 331.759
L485.788 330.542
L490.996 322.794
L496.204 319.588" style="fill:none;stroke:#ff0000;"/>
   </g>
   <g id="line2d_4">
    <path clip-path="url(#p560831bd01)" d="
M43.1081 250.564
L48.3161 239.075
L53.5241 245.03
L58.7321 248.649
L63.9401 242.359
L69.1481 250.181
L74.3561 234.453
L79.5641 218.819
L84.7721 225.165
L89.9801 220.577
L95.1881 195.846
L100.396 193.618
L105.604 173.944
L110.812 159.043
L116.02 149.7
L121.228 158.337
L126.436 147.075
L131.644 148.393
L136.852 154.04
L142.06 139.105
L147.268 156.247
L152.476 194.063
L157.684 192.827
L162.892 197.686
L168.1 203.989
L173.308 187.03
L178.516 197.795
L183.724 212.813
L188.932 206.448
L194.14 206.367
L199.348 193.845
L204.556 232.165
L209.764 236.038
L214.972 235.682
L220.18 186.125
L225.388 196.348
L230.596 210.487
L235.804 209.518
L241.012 244.035
L246.22 268.852
L251.428 279.652
L256.636 296.233
L261.844 282.363
L267.052 248.901
L272.26 227.753
L277.468 227.434
L282.676 243.57
L287.884 231.867
L293.092 229.511
L298.3 225.401
L303.508 243.33
L308.716 223.353
L313.924 211.897
L319.132 234.648
L324.34 227.716
L329.548 198.752
L334.756 169.14
L339.964 165.987
L345.172 148.414
L350.38 143.94
L355.588 136.511
L360.796 149.46
L366.004 127.863
L371.212 125.32
L376.42 120.674
L381.628 109.399
L386.836 105.592
L392.044 112.718
L397.252 114.568
L402.46 114.615
L407.668 107.035
L412.876 98.0644
L418.084 123.082
L423.292 135.071
L428.5 143.981
L433.708 131.684
L438.916 133.856
L444.124 136.145
L449.332 148.41
L454.54 148.119
L459.748 154.514
L464.956 156.299
L470.164 151.428
L475.372 142.496
L480.58 151.216
L485.788 140.135
L490.996 118.764
L496.204 118.162" style="fill:none;stroke:#00bfbf;"/>
   </g>
   <g id="line2d_5">
    <path clip-path="url(#p560831bd01)" d="
M43.1081 281.329
L48.3161 289.388
L53.5241 282.001
L58.7321 267.833
L63.9401 255.496
L69.1481 257.194
L74.3561 251.467
L79.5641 245.959
L84.7721 246.568
L89.9801 233.256
L95.1881 239.957
L100.396 240.752
L105.604 229.953
L110.812 213.21
L116.02 263.591
L121.228 258.851
L126.436 259.374
L131.644 259.978
L136.852 255.413
L142.06 251.536
L147.268 253.309
L152.476 252.019
L157.684 251.097
L162.892 241.753
L168.1 247.925
L173.308 235.677
L178.516 259.383
L183.724 264.243
L188.932 261.112
L194.14 241.31
L199.348 232.898
L204.556 238.609
L209.764 230.965
L214.972 237.367
L220.18 247.803
L225.388 265.864
L230.596 271.212
L235.804 295.361
L241.012 303.341
L246.22 304.323
L251.428 298.615
L256.636 308.654
L261.844 301.148
L267.052 286.679
L272.26 287.907
L277.468 298.222
L282.676 284.276
L287.884 274.65
L293.092 260.729
L298.3 250.743
L303.508 255.016
L308.716 246.407
L313.924 245.395
L319.132 252.944
L324.34 245.979
L329.548 243.697
L334.756 236.109
L339.964 253.45
L345.172 250.095
L350.38 261.083
L355.588 251.663
L360.796 252.622
L366.004 252.614
L371.212 269.636
L376.42 256.241
L381.628 237.044
L386.836 243.072
L392.044 242.216
L397.252 240.71
L402.46 240.498
L407.668 248.21
L412.876 266.019
L418.084 262.163
L423.292 261.993
L428.5 259.272
L433.708 268.733
L438.916 269.092
L444.124 266.577
L449.332 272.695
L454.54 268.106
L459.748 268.526
L464.956 253.425
L470.164 262.704
L475.372 253.182
L480.58 272.377
L485.788 274.638
L490.996 297.275
L496.204 290.679" style="fill:none;stroke:#bf00bf;"/>
   </g>
   <g id="matplotlib.axis_1">
    <g id="xtick_1">
     <g id="line2d_6">
      <path clip-path="url(#p560831bd01)" d="
M43.1081 368.742
L43.1081 23.1417" style="fill:none;stroke:#000000;stroke-dasharray:1.000000,3.000000;stroke-dashoffset:0.0;stroke-linecap:butt;stroke-width:0.5;"/>
     </g>
     <g id="line2d_7">
      <defs>
       <path d="
M0 0
L0 -4" id="m0012dd4eef" style="stroke:#000000;stroke-linecap:butt;stroke-width:0.5;"/>
      </defs>
      <g>
       <use style="stroke:#000000;stroke-linecap:butt;stroke-width:0.5;" x="43.108125" xlink:href="#m0012dd4eef" y="368.74175"/>
      </g>
     </g>
     <g id="line2d_8">
      <defs>
       <path d="
M0 0
L0 4" id="m476344969c" style="stroke:#000000;stroke-linecap:butt;stroke-width:0.5;"/>
      </defs>
      <g>
       <use style="stroke:#000000;stroke-linecap:butt;stroke-width:0.5;" x="43.108125" xlink:href="#m476344969c" y="23.14175"/>
      </g>
     </g>
     <g id="text_1">
      <!-- 0 -->
      <defs>
       <path d="
M31.7812 66.4062
Q24.1719 66.4062 20.3281 58.9062
Q16.5 51.4219 16.5 36.375
Q16.5 21.3906 20.3281 13.8906
Q24.1719 6.39062 31.7812 6.39062
Q39.4531 6.39062 43.2812 13.8906
Q47.125 21.3906 47.125 36.375
Q47.125 51.4219 43.2812 58.9062
Q39.4531 66.4062 31.7812 66.4062
M31.7812 74.2188
Q44.0469 74.2188 50.5156 64.5156
Q56.9844 54.8281 56.9844 36.375
Q56.9844 17.9688 50.5156 8.26562
Q44.0469 -1.42188 31.7812 -1.42188
Q19.5312 -1.42188 13.0625 8.26562
Q6.59375 17.9688 6.59375 36.375
Q6.59375 54.8281 13.0625 64.5156
Q19.5312 74.2188 31.7812 74.2188" id="DejaVuSans-30"/>
      </defs>
      <g transform="translate(40.0846875 381.648)scale(0.12 -0.12)">
       <use xlink:href="#DejaVuSans-30"/>
      </g>
     </g>
    </g>
    <g id="xtick_2">
     <g id="line2d_9">
      <path clip-path="url(#p560831bd01)" d="
M117.508 368.742
L117.508 23.1417" style="fill:none;stroke:#000000;stroke-dasharray:1.000000,3.000000;stroke-dashoffset:0.0;stroke-linecap:butt;stroke-width:0.5;"/>
     </g>
     <g id="line2d_10">
      <g>
       <use style="stroke:#000000;stroke-linecap:butt;stroke-width:0.5;" x="117.508125" xlink:href="#m0012dd4eef" y="368.74175"/>
      </g>
     </g>
     <g id="line2d_11">
      <g>
       <use style="stroke:#000000;stroke-linecap:butt;stroke-width:0.5;" x="117.508125" xlink:href="#m476344969c" y="23.14175"/>
      </g>
     </g>
     <g id="text_2">
      <!-- 100 -->
      <defs>
       <path d="
M12.4062 8.29688
L28.5156 8.29688
L28.5156 63.9219
L10.9844 60.4062
L10.9844 69.3906
L28.4219 72.9062
L38.2812 72.9062
L38.2812 8.29688
L54.3906 8.29688
L54.3906 0
L12.4062 0
z
" id="DejaVuSans-31"/>
      </defs>
      <g transform="translate(107.113125 381.648)scale(0.12 -0.12)">
       <use xlink:href="#DejaVuSans-31"/>
       <use x="63.623046875" xlink:href="#DejaVuSans-30"/>
       <use x="127.24609375" xlink:href="#DejaVuSans-30"/>
      </g>
     </g>
    </g>
    <g id="xtick_3">
     <g id="line2d_12">
      <path clip-path="url(#p560831bd01)" d="
M191.908 368.742
L191.908 23.1417" style="fill:none;stroke:#000000;stroke-dasharray:1.000000,3.000000;stroke-dashoffset:0.0;stroke-linecap:butt;stroke-width:0.5;"/>
     </g>
     <g id="line2d_13">
      <g>
       <use style="stroke:#000000;stroke-linecap:butt;stroke-width:0.5;" x="191.908125" xlink:href="#m0012dd4eef" y="368.74175"/>
      </g>
     </g>
     <g id="line2d_14">
      <g>
       <use style="stroke:#000000;stroke-linecap:butt;stroke-width:0.5;" x="191.908125" xlink:href="#m476344969c" y="23.14175"/>
      </g>
     </g>
     <g id="text_3">
      <!-- 200 -->
      <defs>
       <path d="
M19.1875 8.29688
L53.6094 8.29688
L53.6094 0
L7.32812 0
L7.32812 8.29688
Q12.9375 14.1094 22.625 23.8906
Q32.3281 33.6875 34.8125 36.5312
Q39.5469 41.8438 41.4219 45.5312
Q43.3125 49.2188 43.3125 52.7812
Q43.3125 58.5938 39.2344 62.25
Q35.1562 65.9219 28.6094 65.9219
Q23.9688 65.9219 18.8125 64.3125
Q13.6719 62.7031 7.8125 59.4219
L7.8125 69.3906
Q13.7656 71.7812 18.9375 73
Q24.125 74.2188 28.4219 74.2188
Q39.75 74.2188 46.4844 68.5469
Q53.2188 62.8906 53.2188 53.4219
Q53.2188 48.9219 51.5312 44.8906
Q49.8594 40.875 45.4062 35.4062
Q44.1875 33.9844 37.6406 27.2188
Q31.1094 20.4531 19.1875 8.29688" id="DejaVuSans-32"/>
      </defs>
      <g transform="translate(181.29375 381.648)scale(0.12 -0.12)">
       <use xlink:href="#DejaVuSans-32"/>
       <use x="63.623046875" xlink:href="#DejaVuSans-30"/>
       <use x="127.24609375" xlink:href="#DejaVuSans-30"/>
      </g>
     </g>
    </g>
    <g id="xtick_4">
     <g id="line2d_15">
      <path clip-path="url(#p560831bd01)" d="
M266.308 368.742
L266.308 23.1417" style="fill:none;stroke:#000000;stroke-dasharray:1.000000,3.000000;stroke-dashoffset:0.0;stroke-linecap:butt;stroke-width:0.5;"/>
     </g>
     <g id="line2d_16">
      <g>
       <use style="stroke:#000000;stroke-linecap:butt;stroke-width:0.5;" x="266.308125" xlink:href="#m0012dd4eef" y="368.74175"/>
      </g>
     </g>
     <g id="line2d_17">
      <g>
       <use style="stroke:#000000;stroke-linecap:butt;stroke-width:0.5;" x="266.308125" xlink:href="#m476344969c" y="23.14175"/>
      </g>
     </g>
     <g id="text_4">
      <!-- 300 -->
      <defs>
       <path d="
M40.5781 39.3125
Q47.6562 37.7969 51.625 33
Q55.6094 28.2188 55.6094 21.1875
Q55.6094 10.4062 48.1875 4.48438
Q40.7656 -1.42188 27.0938 -1.42188
Q22.5156 -1.42188 17.6562 -0.515625
Q12.7969 0.390625 7.625 2.20312
L7.625 11.7188
Q11.7188 9.32812 16.5938 8.10938
Q21.4844 6.89062 26.8125 6.89062
Q36.0781 6.89062 40.9375 10.5469
Q45.7969 14.2031 45.7969 21.1875
Q45.7969 27.6406 41.2812 31.2656
Q36.7656 34.9062 28.7188 34.9062
L20.2188 34.9062
L20.2188 43.0156
L29.1094 43.0156
Q36.375 43.0156 40.2344 45.9219
Q44.0938 48.8281 44.0938 54.2969
Q44.0938 59.9062 40.1094 62.9062
Q36.1406 65.9219 28.7188 65.9219
Q24.6562 65.9219 20.0156 65.0312
Q15.375 64.1562 9.8125 62.3125
L9.8125 71.0938
Q15.4375 72.6562 20.3438 73.4375
Q25.25 74.2188 29.5938 74.2188
Q40.8281 74.2188 47.3594 69.1094
Q53.9062 64.0156 53.9062 55.3281
Q53.9062 49.2656 50.4375 45.0938
Q46.9688 40.9219 40.5781 39.3125" id="DejaVuSans-33"/>
      </defs>
      <g transform="translate(255.7115625 381.648)scale(0.12 -0.12)">
       <use xlink:href="#DejaVuSans-33"/>
       <use x="63.623046875" xlink:href="#DejaVuSans-30"/>
       <use x="127.24609375" xlink:href="#DejaVuSans-30"/>
      </g>
     </g>
    </g>
    <g id="xtick_5">
     <g id="line2d_18">
      <path clip-path="url(#p560831bd01)" d="
M340.708 368.742
L340.708 23.1417" style="fill:none;stroke:#000000;stroke-dasharray:1.000000,3.000000;stroke-dashoffset:0.0;stroke-linecap:butt;stroke-width:0.5;"/>
     </g>
     <g id="line2d_19">
      <g>
       <use style="stroke:#000000;stroke-linecap:butt;stroke-width:0.5;" x="340.708125" xlink:href="#m0012dd4eef" y="368.74175"/>
      </g>
     </g>
     <g id="line2d_20">
      <g>
       <use style="stroke:#000000;stroke-linecap:butt;stroke-width:0.5;" x="340.708125" xlink:href="#m476344969c" y="23.14175"/>
      </g>
     </g>
     <g id="text_5">
      <!-- 400 -->
      <defs>
       <path d="
M37.7969 64.3125
L12.8906 25.3906
L37.7969 25.3906
z

M35.2031 72.9062
L47.6094 72.9062
L47.6094 25.3906
L58.0156 25.3906
L58.0156 17.1875
L47.6094 17.1875
L47.6094 0
L37.7969 0
L37.7969 17.1875
L4.89062 17.1875
L4.89062 26.7031
z
" id="DejaVuSans-34"/>
      </defs>
      <g transform="translate(329.9475 381.648)scale(0.12 -0.12)">
       <use xlink:href="#DejaVuSans-34"/>
       <use x="63.623046875" xlink:href="#DejaVuSans-30"/>
       <use x="127.24609375" xlink:href="#DejaVuSans-30"/>
      </g>
     </g>
    </g>
    <g id="xtick_6">
     <g id="line2d_21">
      <path clip-path="url(#p560831bd01)" d="
M415.108 368.742
L415.108 23.1417" style="fill:none;stroke:#000000;stroke-dasharray:1.000000,3.000000;stroke-dashoffset:0.0;stroke-linecap:butt;stroke-width:0.5;"/>
     </g>
     <g id="line2d_22">
      <g>
       <use style="stroke:#000000;stroke-linecap:butt;stroke-width:0.5;" x="415.108125" xlink:href="#m0012dd4eef" y="368.74175"/>
      </g>
     </g>
     <g id="line2d_23">
      <g>
       <use style="stroke:#000000;stroke-linecap:butt;stroke-width:0.5;" x="415.108125" xlink:href="#m476344969c" y="23.14175"/>
      </g>
     </g>
     <g id="text_6">
      <!-- 500 -->
      <defs>
       <path d="
M10.7969 72.9062
L49.5156 72.9062
L49.5156 64.5938
L19.8281 64.5938
L19.8281 46.7344
Q21.9688 47.4688 24.1094 47.8281
Q26.2656 48.1875 28.4219 48.1875
Q40.625 48.1875 47.75 41.5
Q54.8906 34.8125 54.8906 23.3906
Q54.8906 11.625 47.5625 5.09375
Q40.2344 -1.42188 26.9062 -1.42188
Q22.3125 -1.42188 17.5469 -0.640625
Q12.7969 0.140625 7.71875 1.70312
L7.71875 11.625
Q12.1094 9.23438 16.7969 8.0625
Q21.4844 6.89062 26.7031 6.89062
Q35.1562 6.89062 40.0781 11.3281
Q45.0156 15.7656 45.0156 23.3906
Q45.0156 31 40.0781 35.4375
Q35.1562 39.8906 26.7031 39.8906
Q22.75 39.8906 18.8125 39.0156
Q14.8906 38.1406 10.7969 36.2812
z
" id="DejaVuSans-35"/>
      </defs>
      <g transform="translate(404.5171875 381.648)scale(0.12 -0.12)">
       <use xlink:href="#DejaVuSans-35"/>
       <use x="63.623046875" xlink:href="#DejaVuSans-30"/>
       <use x="127.24609375" xlink:href="#DejaVuSans-30"/>
      </g>
     </g>
    </g>
    <g id="xtick_7">
     <g id="line2d_24">
      <path clip-path="url(#p560831bd01)" d="
M489.508 368.742
L489.508 23.1417" style="fill:none;stroke:#000000;stroke-dasharray:1.000000,3.000000;stroke-dashoffset:0.0;stroke-linecap:butt;stroke-width:0.5;"/>
     </g>
     <g id="line2d_25">
      <g>
       <use style="stroke:#000000;stroke-linecap:butt;stroke-width:0.5;" x="489.508125" xlink:href="#m0012dd4eef" y="368.74175"/>
      </g>
     </g>
     <g id="line2d_26">
      <g>
       <use style="stroke:#000000;stroke-linecap:butt;stroke-width:0.5;" x="489.508125" xlink:href="#m476344969c" y="23.14175"/>
      </g>
     </g>
     <g id="text_7">
      <!-- 600 -->
      <defs>
       <path d="
M33.0156 40.375
Q26.375 40.375 22.4844 35.8281
Q18.6094 31.2969 18.6094 23.3906
Q18.6094 15.5312 22.4844 10.9531
Q26.375 6.39062 33.0156 6.39062
Q39.6562 6.39062 43.5312 10.9531
Q47.4062 15.5312 47.4062 23.3906
Q47.4062 31.2969 43.5312 35.8281
Q39.6562 40.375 33.0156 40.375
M52.5938 71.2969
L52.5938 62.3125
Q48.875 64.0625 45.0938 64.9844
Q41.3125 65.9219 37.5938 65.9219
Q27.8281 65.9219 22.6719 59.3281
Q17.5312 52.7344 16.7969 39.4062
Q19.6719 43.6562 24.0156 45.9219
Q28.375 48.1875 33.5938 48.1875
Q44.5781 48.1875 50.9531 41.5156
Q57.3281 34.8594 57.3281 23.3906
Q57.3281 12.1562 50.6875 5.35938
Q44.0469 -1.42188 33.0156 -1.42188
Q20.3594 -1.42188 13.6719 8.26562
Q6.98438 17.9688 6.98438 36.375
Q6.98438 53.6562 15.1875 63.9375
Q23.3906 74.2188 37.2031 74.2188
Q40.9219 74.2188 44.7031 73.4844
Q48.4844 72.75 52.5938 71.2969" id="DejaVuSans-36"/>
      </defs>
      <g transform="translate(478.873125 381.648)scale(0.12 -0.12)">
       <use xlink:href="#DejaVuSans-36"/>
       <use x="63.623046875" xlink:href="#DejaVuSans-30"/>
       <use x="127.24609375" xlink:href="#DejaVuSans-30"/>
      </g>
     </g>
    </g>
    <g id="text_8">
     <!-- Time in s -->
     <defs>
      <path d="
M52 44.1875
Q55.375 50.25 60.0625 53.125
Q64.75 56 71.0938 56
Q79.6406 56 84.2812 50.0156
Q88.9219 44.0469 88.9219 33.0156
L88.9219 0
L79.8906 0
L79.8906 32.7188
Q79.8906 40.5781 77.0938 44.375
Q74.3125 48.1875 68.6094 48.1875
Q61.625 48.1875 57.5625 43.5469
Q53.5156 38.9219 53.5156 30.9062
L53.5156 0
L44.4844 0
L44.4844 32.7188
Q44.4844 40.625 41.7031 44.4062
Q38.9219 48.1875 33.1094 48.1875
Q26.2188 48.1875 22.1562 43.5312
Q18.1094 38.875 18.1094 30.9062
L18.1094 0
L9.07812 0
L9.07812 54.6875
L18.1094 54.6875
L18.1094 46.1875
Q21.1875 51.2188 25.4844 53.6094
Q29.7812 56 35.6875 56
Q41.6562 56 45.8281 52.9688
Q50 49.9531 52 44.1875" id="DejaVuSans-6d"/>
      <path d="
M54.8906 33.0156
L54.8906 0
L45.9062 0
L45.9062 32.7188
Q45.9062 40.4844 42.875 44.3281
Q39.8438 48.1875 33.7969 48.1875
Q26.5156 48.1875 22.3125 43.5469
Q18.1094 38.9219 18.1094 30.9062
L18.1094 0
L9.07812 0
L9.07812 54.6875
L18.1094 54.6875
L18.1094 46.1875
Q21.3438 51.125 25.7031 53.5625
Q30.0781 56 35.7969 56
Q45.2188 56 50.0469 50.1719
Q54.8906 44.3438 54.8906 33.0156" id="DejaVuSans-6e"/>
      <path id="DejaVuSans-20"/>
      <path d="
M9.42188 54.6875
L18.4062 54.6875
L18.4062 0
L9.42188 0
z

M9.42188 75.9844
L18.4062 75.9844
L18.4062 64.5938
L9.42188 64.5938
z
" id="DejaVuSans-69"/>
      <path d="
M56.2031 29.5938
L56.2031 25.2031
L14.8906 25.2031
Q15.4844 15.9219 20.4844 11.0625
Q25.4844 6.20312 34.4219 6.20312
Q39.5938 6.20312 44.4531 7.46875
Q49.3125 8.73438 54.1094 11.2812
L54.1094 2.78125
Q49.2656 0.734375 44.1875 -0.34375
Q39.1094 -1.42188 33.8906 -1.42188
Q20.7969 -1.42188 13.1562 6.1875
Q5.51562 13.8125 5.51562 26.8125
Q5.51562 40.2344 12.7656 48.1094
Q20.0156 56 32.3281 56
Q43.3594 56 49.7812 48.8906
Q56.2031 41.7969 56.2031 29.5938
M47.2188 32.2344
Q47.125 39.5938 43.0938 43.9844
Q39.0625 48.3906 32.4219 48.3906
Q24.9062 48.3906 20.3906 44.1406
Q15.875 39.8906 15.1875 32.1719
z
" id="DejaVuSans-65"/>
      <path d="
M44.2812 53.0781
L44.2812 44.5781
Q40.4844 46.5312 36.375 47.5
Q32.2812 48.4844 27.875 48.4844
Q21.1875 48.4844 17.8438 46.4375
Q14.5 44.3906 14.5 40.2812
Q14.5 37.1562 16.8906 35.375
Q19.2812 33.5938 26.5156 31.9844
L29.5938 31.2969
Q39.1562 29.25 43.1875 25.5156
Q47.2188 21.7812 47.2188 15.0938
Q47.2188 7.46875 41.1875 3.01562
Q35.1562 -1.42188 24.6094 -1.42188
Q20.2188 -1.42188 15.4531 -0.5625
Q10.6875 0.296875 5.42188 2
L5.42188 11.2812
Q10.4062 8.6875 15.2344 7.39062
Q20.0625 6.10938 24.8125 6.10938
Q31.1562 6.10938 34.5625 8.28125
Q37.9844 10.4531 37.9844 14.4062
Q37.9844 18.0625 35.5156 20.0156
Q33.0625 21.9688 24.7031 23.7812
L21.5781 24.5156
Q13.2344 26.2656 9.51562 29.9062
Q5.8125 33.5469 5.8125 39.8906
Q5.8125 47.6094 11.2812 51.7969
Q16.75 56 26.8125 56
Q31.7812 56 36.1719 55.2656
Q40.5781 54.5469 44.2812 53.0781" id="DejaVuSans-73"/>
      <path d="
M-0.296875 72.9062
L61.375 72.9062
L61.375 64.5938
L35.5 64.5938
L35.5 0
L25.5938 0
L25.5938 64.5938
L-0.296875 64.5938
z
" id="DejaVuSans-54"/>
     </defs>
     <g transform="translate(239.49375 395.93675)scale(0.12 -0.12)">
      <use xlink:href="#DejaVuSans-54"/>
      <use x="57.958984375" xlink:href="#DejaVuSans-69"/>
      <use x="85.7421875" xlink:href="#DejaVuSans-6d"/>
      <use x="183.154296875" xlink:href="#DejaVuSans-65"/>
      <use x="244.677734375" xlink:href="#DejaVuSans-20"/>
      <use x="276.46484375" xlink:href="#DejaVuSans-69"/>
      <use x="304.248046875" xlink:href="#DejaVuSans-6e"/>
      <use x="367.626953125" xlink:href="#DejaVuSans-20"/>
      <use x="399.4140625" xlink:href="#DejaVuSans-73"/>
     </g>
    </g>
   </g>
   <g id="matplotlib.axis_2">
    <g id="ytick_1">
     <g id="line2d_27">
      <path clip-path="url(#p560831bd01)" d="
M43.1081 368.742
L489.508 368.742" style="fill:none;stroke:#000000;stroke-dasharray:1.000000,3.000000;stroke-dashoffset:0.0;stroke-linecap:butt;stroke-width:0.5;"/>
     </g>
     <g id="line2d_28">
      <defs>
       <path d="
M0 0
L4 0" id="me8a85f7bf6" style="stroke:#000000;stroke-linecap:butt;stroke-width:0.5;"/>
      </defs>
      <g>
       <use style="stroke:#000000;stroke-linecap:butt;stroke-width:0.5;" x="43.108125" xlink:href="#me8a85f7bf6" y="368.74175"/>
      </g>
     </g>
     <g id="line2d_29">
      <defs>
       <path d="
M0 0
L-4 0" id="m1a32005dea" style="stroke:#000000;stroke-linecap:butt;stroke-width:0.5;"/>
      </defs>
      <g>
       <use style="stroke:#000000;stroke-linecap:butt;stroke-width:0.5;" x="489.508125" xlink:href="#m1a32005dea" y="368.74175"/>
      </g>
     </g>
     <g id="text_9">
      <!-- 0.1 -->
      <defs>
       <path d="
M10.6875 12.4062
L21 12.4062
L21 0
L10.6875 0
z
" id="DejaVuSans-2e"/>
      </defs>
      <g transform="translate(21.92375 373.1095625)scale(0.12 -0.12)">
       <use xlink:href="#DejaVuSans-30"/>
       <use x="63.623046875" xlink:href="#DejaVuSans-2e"/>
       <use x="95.41015625" xlink:href="#DejaVuSans-31"/>
      </g>
     </g>
    </g>
    <g id="ytick_2">
     <g id="line2d_30">
      <path clip-path="url(#p560831bd01)" d="
M43.1081 325.542
L489.508 325.542" style="fill:none;stroke:#000000;stroke-dasharray:1.000000,3.000000;stroke-dashoffset:0.0;stroke-linecap:butt;stroke-width:0.5;"/>
     </g>
     <g id="line2d_31">
      <g>
       <use style="stroke:#000000;stroke-linecap:butt;stroke-width:0.5;" x="43.108125" xlink:href="#me8a85f7bf6" y="325.54175"/>
      </g>
     </g>
     <g id="line2d_32">
      <g>
       <use style="stroke:#000000;stroke-linecap:butt;stroke-width:0.5;" x="489.508125" xlink:href="#m1a32005dea" y="325.54175"/>
      </g>
     </g>
     <g id="text_10">
      <!-- 0.2 -->
      <g transform="translate(22.0175 329.9095625)scale(0.12 -0.12)">
       <use xlink:href="#DejaVuSans-30"/>
       <use x="63.623046875" xlink:href="#DejaVuSans-2e"/>
       <use x="95.41015625" xlink:href="#DejaVuSans-32"/>
      </g>
     </g>
    </g>
    <g id="ytick_3">
     <g id="line2d_33">
      <path clip-path="url(#p560831bd01)" d="
M43.1081 282.342
L489.508 282.342" style="fill:none;stroke:#000000;stroke-dasharray:1.000000,3.000000;stroke-dashoffset:0.0;stroke-linecap:butt;stroke-width:0.5;"/>
     </g>
     <g id="line2d_34">
      <g>
       <use style="stroke:#000000;stroke-linecap:butt;stroke-width:0.5;" x="43.108125" xlink:href="#me8a85f7bf6" y="282.34175"/>
      </g>
     </g>
     <g id="line2d_35">
      <g>
       <use style="stroke:#000000;stroke-linecap:butt;stroke-width:0.5;" x="489.508125" xlink:href="#m1a32005dea" y="282.34175"/>
      </g>
     </g>
     <g id="text_11">
      <!-- 0.3 -->
      <g transform="translate(21.7775 286.7095625)scale(0.12 -0.12)">
       <use xlink:href="#DejaVuSans-30"/>
       <use x="63.623046875" xlink:href="#DejaVuSans-2e"/>
       <use x="95.41015625" xlink:href="#DejaVuSans-33"/>
      </g>
     </g>
    </g>
    <g id="ytick_4">
     <g id="line2d_36">
      <path clip-path="url(#p560831bd01)" d="
M43.1081 239.142
L489.508 239.142" style="fill:none;stroke:#000000;stroke-dasharray:1.000000,3.000000;stroke-dashoffset:0.0;stroke-linecap:butt;stroke-width:0.5;"/>
     </g>
     <g id="line2d_37">
      <g>
       <use style="stroke:#000000;stroke-linecap:butt;stroke-width:0.5;" x="43.108125" xlink:href="#me8a85f7bf6" y="239.14175"/>
      </g>
     </g>
     <g id="line2d_38">
      <g>
       <use style="stroke:#000000;stroke-linecap:butt;stroke-width:0.5;" x="489.508125" xlink:href="#m1a32005dea" y="239.14175"/>
      </g>
     </g>
     <g id="text_12">
      <!-- 0.4 -->
      <g transform="translate(21.48875 243.5095625)scale(0.12 -0.12)">
       <use xlink:href="#DejaVuSans-30"/>
       <use x="63.623046875" xlink:href="#DejaVuSans-2e"/>
       <use x="95.41015625" xlink:href="#DejaVuSans-34"/>
      </g>
     </g>
    </g>
    <g id="ytick_5">
     <g id="line2d_39">
      <path clip-path="url(#p560831bd01)" d="
M43.1081 195.942
L489.508 195.942" style="fill:none;stroke:#000000;stroke-dasharray:1.000000,3.000000;stroke-dashoffset:0.0;stroke-linecap:butt;stroke-width:0.5;"/>
     </g>
     <g id="line2d_40">
      <g>
       <use style="stroke:#000000;stroke-linecap:butt;stroke-width:0.5;" x="43.108125" xlink:href="#me8a85f7bf6" y="195.94175"/>
      </g>
     </g>
     <g id="line2d_41">
      <g>
       <use style="stroke:#000000;stroke-linecap:butt;stroke-width:0.5;" x="489.508125" xlink:href="#m1a32005dea" y="195.94175"/>
      </g>
     </g>
     <g id="text_13">
      <!-- 0.5 -->
      <g transform="translate(21.86375 200.3095625)scale(0.12 -0.12)">
       <use xlink:href="#DejaVuSans-30"/>
       <use x="63.623046875" xlink:href="#DejaVuSans-2e"/>
       <use x="95.41015625" xlink:href="#DejaVuSans-35"/>
      </g>
     </g>
    </g>
    <g id="ytick_6">
     <g id="line2d_42">
      <path clip-path="url(#p560831bd01)" d="
M43.1081 152.742
L489.508 152.742" style="fill:none;stroke:#000000;stroke-dasharray:1.000000,3.000000;stroke-dashoffset:0.0;stroke-linecap:butt;stroke-width:0.5;"/>
     </g>
     <g id="line2d_43">
      <g>
       <use style="stroke:#000000;stroke-linecap:butt;stroke-width:0.5;" x="43.108125" xlink:href="#me8a85f7bf6" y="152.74175"/>
      </g>
     </g>
     <g id="line2d_44">
      <g>
       <use style="stroke:#000000;stroke-linecap:butt;stroke-width:0.5;" x="489.508125" xlink:href="#m1a32005dea" y="152.74175"/>
      </g>
     </g>
     <g id="text_14">
      <!-- 0.6 -->
      <g transform="translate(21.57125 157.1095625)scale(0.12 -0.12)">
       <use xlink:href="#DejaVuSans-30"/>
       <use x="63.623046875" xlink:href="#DejaVuSans-2e"/>
       <use x="95.41015625" xlink:href="#DejaVuSans-36"/>
      </g>
     </g>
    </g>
    <g id="ytick_7">
     <g id="line2d_45">
      <path clip-path="url(#p560831bd01)" d="
M43.1081 109.542
L489.508 109.542" style="fill:none;stroke:#000000;stroke-dasharray:1.000000,3.000000;stroke-dashoffset:0.0;stroke-linecap:butt;stroke-width:0.5;"/>
     </g>
     <g id="line2d_46">
      <g>
       <use style="stroke:#000000;stroke-linecap:butt;stroke-width:0.5;" x="43.108125" xlink:href="#me8a85f7bf6" y="109.54175"/>
      </g>
     </g>
     <g id="line2d_47">
      <g>
       <use style="stroke:#000000;stroke-linecap:butt;stroke-width:0.5;" x="489.508125" xlink:href="#m1a32005dea" y="109.54175"/>
      </g>
     </g>
     <g id="text_15">
      <!-- 0.7 -->
      <defs>
       <path d="
M8.20312 72.9062
L55.0781 72.9062
L55.0781 68.7031
L28.6094 0
L18.3125 0
L43.2188 64.5938
L8.20312 64.5938
z
" id="DejaVuSans-37"/>
      </defs>
      <g transform="translate(21.84125 113.9095625)scale(0.12 -0.12)">
       <use xlink:href="#DejaVuSans-30"/>
       <use x="63.623046875" xlink:href="#DejaVuSans-2e"/>
       <use x="95.41015625" xlink:href="#DejaVuSans-37"/>
      </g>
     </g>
    </g>
    <g id="ytick_8">
     <g id="line2d_48">
      <path clip-path="url(#p560831bd01)" d="
M43.1081 66.3417
L489.508 66.3417" style="fill:none;stroke:#000000;stroke-dasharray:1.000000,3.000000;stroke-dashoffset:0.0;stroke-linecap:butt;stroke-width:0.5;"/>
     </g>
     <g id="line2d_49">
      <g>
       <use style="stroke:#000000;stroke-linecap:butt;stroke-width:0.5;" x="43.108125" xlink:href="#me8a85f7bf6" y="66.34175"/>
      </g>
     </g>
     <g id="line2d_50">
      <g>
       <use style="stroke:#000000;stroke-linecap:butt;stroke-width:0.5;" x="489.508125" xlink:href="#m1a32005dea" y="66.34175"/>
      </g>
     </g>
     <g id="text_16">
      <!-- 0.8 -->
      <defs>
       <path d="
M31.7812 34.625
Q24.75 34.625 20.7188 30.8594
Q16.7031 27.0938 16.7031 20.5156
Q16.7031 13.9219 20.7188 10.1562
Q24.75 6.39062 31.7812 6.39062
Q38.8125 6.39062 42.8594 10.1719
Q46.9219 13.9688 46.9219 20.5156
Q46.9219 27.0938 42.8906 30.8594
Q38.875 34.625 31.7812 34.625
M21.9219 38.8125
Q15.5781 40.375 12.0312 44.7188
Q8.5 49.0781 8.5 55.3281
Q8.5 64.0625 14.7188 69.1406
Q20.9531 74.2188 31.7812 74.2188
Q42.6719 74.2188 48.875 69.1406
Q55.0781 64.0625 55.0781 55.3281
Q55.0781 49.0781 51.5312 44.7188
Q48 40.375 41.7031 38.8125
Q48.8281 37.1562 52.7969 32.3125
Q56.7812 27.4844 56.7812 20.5156
Q56.7812 9.90625 50.3125 4.23438
Q43.8438 -1.42188 31.7812 -1.42188
Q19.7344 -1.42188 13.25 4.23438
Q6.78125 9.90625 6.78125 20.5156
Q6.78125 27.4844 10.7812 32.3125
Q14.7969 37.1562 21.9219 38.8125
M18.3125 54.3906
Q18.3125 48.7344 21.8438 45.5625
Q25.3906 42.3906 31.7812 42.3906
Q38.1406 42.3906 41.7188 45.5625
Q45.3125 48.7344 45.3125 54.3906
Q45.3125 60.0625 41.7188 63.2344
Q38.1406 66.4062 31.7812 66.4062
Q25.3906 66.4062 21.8438 63.2344
Q18.3125 60.0625 18.3125 54.3906" id="DejaVuSans-38"/>
      </defs>
      <g transform="translate(21.636875 70.7095625)scale(0.12 -0.12)">
       <use xlink:href="#DejaVuSans-30"/>
       <use x="63.623046875" xlink:href="#DejaVuSans-2e"/>
       <use x="95.41015625" xlink:href="#DejaVuSans-38"/>
      </g>
     </g>
    </g>
    <g id="ytick_9">
     <g id="line2d_51">
      <path clip-path="url(#p560831bd01)" d="
M43.1081 23.1417
L489.508 23.1417" style="fill:none;stroke:#000000;stroke-dasharray:1.000000,3.000000;stroke-dashoffset:0.0;stroke-linecap:butt;stroke-width:0.5;"/>
     </g>
     <g id="line2d_52">
      <g>
       <use style="stroke:#000000;stroke-linecap:butt;stroke-width:0.5;" x="43.108125" xlink:href="#me8a85f7bf6" y="23.14175"/>
      </g>
     </g>
     <g id="line2d_53">
      <g>
       <use style="stroke:#000000;stroke-linecap:butt;stroke-width:0.5;" x="489.508125" xlink:href="#m1a32005dea" y="23.14175"/>
      </g>
     </g>
     <g id="text_17">
      <!-- 0.9 -->
      <defs>
       <path d="
M10.9844 1.51562
L10.9844 10.5
Q14.7031 8.73438 18.5 7.8125
Q22.3125 6.89062 25.9844 6.89062
Q35.75 6.89062 40.8906 13.4531
Q46.0469 20.0156 46.7812 33.4062
Q43.9531 29.2031 39.5938 26.9531
Q35.25 24.7031 29.9844 24.7031
Q19.0469 24.7031 12.6719 31.3125
Q6.29688 37.9375 6.29688 49.4219
Q6.29688 60.6406 12.9375 67.4219
Q19.5781 74.2188 30.6094 74.2188
Q43.2656 74.2188 49.9219 64.5156
Q56.5938 54.8281 56.5938 36.375
Q56.5938 19.1406 48.4062 8.85938
Q40.2344 -1.42188 26.4219 -1.42188
Q22.7031 -1.42188 18.8906 -0.6875
Q15.0938 0.046875 10.9844 1.51562
M30.6094 32.4219
Q37.25 32.4219 41.125 36.9531
Q45.0156 41.5 45.0156 49.4219
Q45.0156 57.2812 41.125 61.8438
Q37.25 66.4062 30.6094 66.4062
Q23.9688 66.4062 20.0938 61.8438
Q16.2188 57.2812 16.2188 49.4219
Q16.2188 41.5 20.0938 36.9531
Q23.9688 32.4219 30.6094 32.4219" id="DejaVuSans-39"/>
      </defs>
      <g transform="translate(21.659375 27.5095625)scale(0.12 -0.12)">
       <use xlink:href="#DejaVuSans-30"/>
       <use x="63.623046875" xlink:href="#DejaVuSans-2e"/>
       <use x="95.41015625" xlink:href="#DejaVuSans-39"/>
      </g>
     </g>
    </g>
    <g id="text_18">
     <!-- % Multi Packet Errors of Sent Packets -->
     <defs>
      <path d="
M9.8125 72.9062
L24.5156 72.9062
L43.1094 23.2969
L61.8125 72.9062
L76.5156 72.9062
L76.5156 0
L66.8906 0
L66.8906 64.0156
L48.0938 14.0156
L38.1875 14.0156
L19.3906 64.0156
L19.3906 0
L9.8125 0
z
" id="DejaVuSans-4d"/>
      <path d="
M53.5156 70.5156
L53.5156 60.8906
Q47.9062 63.5781 42.9219 64.8906
Q37.9375 66.2188 33.2969 66.2188
Q25.25 66.2188 20.875 63.0938
Q16.5 59.9688 16.5 54.2031
Q16.5 49.3594 19.4062 46.8906
Q22.3125 44.4375 30.4219 42.9219
L36.375 41.7031
Q47.4062 39.5938 52.6562 34.2969
Q57.9062 29 57.9062 20.125
Q57.9062 9.51562 50.7969 4.04688
Q43.7031 -1.42188 29.9844 -1.42188
Q24.8125 -1.42188 18.9688 -0.25
Q13.1406 0.921875 6.89062 3.21875
L6.89062 13.375
Q12.8906 10.0156 18.6562 8.29688
Q24.4219 6.59375 29.9844 6.59375
Q38.4219 6.59375 43.0156 9.90625
Q47.6094 13.2344 47.6094 19.3906
Q47.6094 24.75 44.3125 27.7812
Q41.0156 30.8125 33.5 32.3281
L27.4844 33.5
Q16.4531 35.6875 11.5156 40.375
Q6.59375 45.0625 6.59375 53.4219
Q6.59375 63.0938 13.4062 68.6562
Q20.2188 74.2188 32.1719 74.2188
Q37.3125 74.2188 42.625 73.2812
Q47.9531 72.3594 53.5156 70.5156" id="DejaVuSans-53"/>
      <path d="
M30.6094 48.3906
Q23.3906 48.3906 19.1875 42.75
Q14.9844 37.1094 14.9844 27.2969
Q14.9844 17.4844 19.1562 11.8438
Q23.3438 6.20312 30.6094 6.20312
Q37.7969 6.20312 41.9844 11.8594
Q46.1875 17.5312 46.1875 27.2969
Q46.1875 37.0156 41.9844 42.7031
Q37.7969 48.3906 30.6094 48.3906
M30.6094 56
Q42.3281 56 49.0156 48.375
Q55.7188 40.7656 55.7188 27.2969
Q55.7188 13.875 49.0156 6.21875
Q42.3281 -1.42188 30.6094 -1.42188
Q18.8438 -1.42188 12.1719 6.21875
Q5.51562 13.875 5.51562 27.2969
Q5.51562 40.7656 12.1719 48.375
Q18.8438 56 30.6094 56" id="DejaVuSans-6f"/>
      <path d="
M41.1094 46.2969
Q39.5938 47.1719 37.8125 47.5781
Q36.0312 48 33.8906 48
Q26.2656 48 22.1875 43.0469
Q18.1094 38.0938 18.1094 28.8125
L18.1094 0
L9.07812 0
L9.07812 54.6875
L18.1094 54.6875
L18.1094 46.1875
Q20.9531 51.1719 25.4844 53.5781
Q30.0312 56 36.5312 56
Q37.4531 56 38.5781 55.875
Q39.7031 55.7656 41.0625 55.5156
z
" id="DejaVuSans-72"/>
      <path d="
M9.07812 75.9844
L18.1094 75.9844
L18.1094 31.1094
L44.9219 54.6875
L56.3906 54.6875
L27.3906 29.1094
L57.625 0
L45.9062 0
L18.1094 26.7031
L18.1094 0
L9.07812 0
z
" id="DejaVuSans-6b"/>
      <path d="
M9.42188 75.9844
L18.4062 75.9844
L18.4062 0
L9.42188 0
z
" id="DejaVuSans-6c"/>
      <path d="
M9.8125 72.9062
L55.9062 72.9062
L55.9062 64.5938
L19.6719 64.5938
L19.6719 43.0156
L54.3906 43.0156
L54.3906 34.7188
L19.6719 34.7188
L19.6719 8.29688
L56.7812 8.29688
L56.7812 0
L9.8125 0
z
" id="DejaVuSans-45"/>
      <path d="
M72.7031 32.0781
Q68.4531 32.0781 66.0312 28.4688
Q63.625 24.8594 63.625 18.4062
Q63.625 12.0625 66.0312 8.42188
Q68.4531 4.78125 72.7031 4.78125
Q76.8594 4.78125 79.2656 8.42188
Q81.6875 12.0625 81.6875 18.4062
Q81.6875 24.8125 79.2656 28.4375
Q76.8594 32.0781 72.7031 32.0781
M72.7031 38.2812
Q80.4219 38.2812 84.9531 32.9062
Q89.5 27.5469 89.5 18.4062
Q89.5 9.28125 84.9375 3.92188
Q80.375 -1.42188 72.7031 -1.42188
Q64.8906 -1.42188 60.3438 3.92188
Q55.8125 9.28125 55.8125 18.4062
Q55.8125 27.5938 60.375 32.9375
Q64.9375 38.2812 72.7031 38.2812
M22.3125 68.0156
Q18.1094 68.0156 15.6875 64.375
Q13.2812 60.75 13.2812 54.3906
Q13.2812 47.9531 15.6719 44.3281
Q18.0625 40.7188 22.3125 40.7188
Q26.5625 40.7188 28.9688 44.3281
Q31.3906 47.9531 31.3906 54.3906
Q31.3906 60.6875 28.9531 64.3438
Q26.5156 68.0156 22.3125 68.0156
M66.4062 74.2188
L74.2188 74.2188
L28.6094 -1.42188
L20.7969 -1.42188
z

M22.3125 74.2188
Q30.0312 74.2188 34.6094 68.875
Q39.2031 63.5312 39.2031 54.3906
Q39.2031 45.1719 34.6406 39.8438
Q30.0781 34.5156 22.3125 34.5156
Q14.5469 34.5156 10.0312 39.8594
Q5.51562 45.2188 5.51562 54.3906
Q5.51562 63.4844 10.0469 68.8438
Q14.5938 74.2188 22.3125 74.2188" id="DejaVuSans-25"/>
      <path d="
M8.5 21.5781
L8.5 54.6875
L17.4844 54.6875
L17.4844 21.9219
Q17.4844 14.1562 20.5 10.2656
Q23.5312 6.39062 29.5938 6.39062
Q36.8594 6.39062 41.0781 11.0312
Q45.3125 15.6719 45.3125 23.6875
L45.3125 54.6875
L54.2969 54.6875
L54.2969 0
L45.3125 0
L45.3125 8.40625
Q42.0469 3.42188 37.7188 1
Q33.4062 -1.42188 27.6875 -1.42188
Q18.2656 -1.42188 13.375 4.4375
Q8.5 10.2969 8.5 21.5781
M31.1094 56
z
" id="DejaVuSans-75"/>
      <path d="
M18.3125 70.2188
L18.3125 54.6875
L36.8125 54.6875
L36.8125 47.7031
L18.3125 47.7031
L18.3125 18.0156
Q18.3125 11.3281 20.1406 9.42188
Q21.9688 7.51562 27.5938 7.51562
L36.8125 7.51562
L36.8125 0
L27.5938 0
Q17.1875 0 13.2344 3.875
Q9.28125 7.76562 9.28125 18.0156
L9.28125 47.7031
L2.6875 47.7031
L2.6875 54.6875
L9.28125 54.6875
L9.28125 70.2188
z
" id="DejaVuSans-74"/>
      <path d="
M19.6719 64.7969
L19.6719 37.4062
L32.0781 37.4062
Q38.9688 37.4062 42.7188 40.9688
Q46.4844 44.5312 46.4844 51.125
Q46.4844 57.6719 42.7188 61.2344
Q38.9688 64.7969 32.0781 64.7969
z

M9.8125 72.9062
L32.0781 72.9062
Q44.3438 72.9062 50.6094 67.3594
Q56.8906 61.8125 56.8906 51.125
Q56.8906 40.3281 50.6094 34.8125
Q44.3438 29.2969 32.0781 29.2969
L19.6719 29.2969
L19.6719 0
L9.8125 0
z
" id="DejaVuSans-50"/>
      <path d="
M37.1094 75.9844
L37.1094 68.5
L28.5156 68.5
Q23.6875 68.5 21.7969 66.5469
Q19.9219 64.5938 19.9219 59.5156
L19.9219 54.6875
L34.7188 54.6875
L34.7188 47.7031
L19.9219 47.7031
L19.9219 0
L10.8906 0
L10.8906 47.7031
L2.29688 47.7031
L2.29688 54.6875
L10.8906 54.6875
L10.8906 58.5
Q10.8906 67.625 15.1406 71.7969
Q19.3906 75.9844 28.6094 75.9844
z
" id="DejaVuSans-66"/>
      <path d="
M48.7812 52.5938
L48.7812 44.1875
Q44.9688 46.2969 41.1406 47.3438
Q37.3125 48.3906 33.4062 48.3906
Q24.6562 48.3906 19.8125 42.8438
Q14.9844 37.3125 14.9844 27.2969
Q14.9844 17.2812 19.8125 11.7344
Q24.6562 6.20312 33.4062 6.20312
Q37.3125 6.20312 41.1406 7.25
Q44.9688 8.29688 48.7812 10.4062
L48.7812 2.09375
Q45.0156 0.34375 40.9844 -0.53125
Q36.9688 -1.42188 32.4219 -1.42188
Q20.0625 -1.42188 12.7812 6.34375
Q5.51562 14.1094 5.51562 27.2969
Q5.51562 40.6719 12.8594 48.3281
Q20.2188 56 33.0156 56
Q37.1562 56 41.1094 55.1406
Q45.0625 54.2969 48.7812 52.5938" id="DejaVuSans-63"/>
      <path d="
M34.2812 27.4844
Q23.3906 27.4844 19.1875 25
Q14.9844 22.5156 14.9844 16.5
Q14.9844 11.7188 18.1406 8.90625
Q21.2969 6.10938 26.7031 6.10938
Q34.1875 6.10938 38.7031 11.4062
Q43.2188 16.7031 43.2188 25.4844
L43.2188 27.4844
z

M52.2031 31.2031
L52.2031 0
L43.2188 0
L43.2188 8.29688
Q40.1406 3.32812 35.5469 0.953125
Q30.9531 -1.42188 24.3125 -1.42188
Q15.9219 -1.42188 10.9531 3.29688
Q6 8.01562 6 15.9219
Q6 25.1406 12.1719 29.8281
Q18.3594 34.5156 30.6094 34.5156
L43.2188 34.5156
L43.2188 35.4062
Q43.2188 41.6094 39.1406 45
Q35.0625 48.3906 27.6875 48.3906
Q23 48.3906 18.5469 47.2656
Q14.1094 46.1406 10.0156 43.8906
L10.0156 52.2031
Q14.9375 54.1094 19.5781 55.0469
Q24.2188 56 28.6094 56
Q40.4844 56 46.3438 49.8438
Q52.2031 43.7031 52.2031 31.2031" id="DejaVuSans-61"/>
     </defs>
     <g transform="translate(16.48875 306.848)rotate(-90.0)scale(0.12 -0.12)">
      <use xlink:href="#DejaVuSans-25"/>
      <use x="95.01953125" xlink:href="#DejaVuSans-20"/>
      <use x="126.806640625" xlink:href="#DejaVuSans-4d"/>
      <use x="213.0859375" xlink:href="#DejaVuSans-75"/>
      <use x="276.46484375" xlink:href="#DejaVuSans-6c"/>
      <use x="304.248046875" xlink:href="#DejaVuSans-74"/>
      <use x="343.45703125" xlink:href="#DejaVuSans-69"/>
      <use x="371.240234375" xlink:href="#DejaVuSans-20"/>
      <use x="403.02734375" xlink:href="#DejaVuSans-50"/>
      <use x="458.830078125" xlink:href="#DejaVuSans-61"/>
      <use x="520.109375" xlink:href="#DejaVuSans-63"/>
      <use x="575.08984375" xlink:href="#DejaVuSans-6b"/>
      <use x="629.375" xlink:href="#DejaVuSans-65"/>
      <use x="690.8984375" xlink:href="#DejaVuSans-74"/>
      <use x="730.107421875" xlink:href="#DejaVuSans-20"/>
      <use x="761.89453125" xlink:href="#DejaVuSans-45"/>
      <use x="825.078125" xlink:href="#DejaVuSans-72"/>
      <use x="864.44140625" xlink:href="#DejaVuSans-72"/>
      <use x="903.3046875" xlink:href="#DejaVuSans-6f"/>
      <use x="964.486328125" xlink:href="#DejaVuSans-72"/>
      <use x="1005.59960938" xlink:href="#DejaVuSans-73"/>
      <use x="1057.69921875" xlink:href="#DejaVuSans-20"/>
      <use x="1089.48632812" xlink:href="#DejaVuSans-6f"/>
      <use x="1150.66796875" xlink:href="#DejaVuSans-66"/>
      <use x="1185.87304688" xlink:href="#DejaVuSans-20"/>
      <use x="1217.66015625" xlink:href="#DejaVuSans-53"/>
      <use x="1281.13671875" xlink:href="#DejaVuSans-65"/>
      <use x="1342.66015625" xlink:href="#DejaVuSans-6e"/>
      <use x="1406.0390625" xlink:href="#DejaVuSans-74"/>
      <use x="1445.24804688" xlink:href="#DejaVuSans-20"/>
      <use x="1477.03515625" xlink:href="#DejaVuSans-50"/>
      <use x="1532.83789062" xlink:href="#DejaVuSans-61"/>
      <use x="1594.1171875" xlink:href="#DejaVuSans-63"/>
      <use x="1649.09765625" xlink:href="#DejaVuSans-6b"/>
      <use x="1703.3828125" xlink:href="#DejaVuSans-65"/>
      <use x="1764.90625" xlink:href="#DejaVuSans-74"/>
      <use x="1804.11523438" xlink:href="#DejaVuSans-73"/>
     </g>
    </g>
   </g>
   <g id="patch_3">
    <path d="
M43.1081 23.1417
L489.508 23.1417" style="fill:none;stroke:#000000;"/>
   </g>
   <g id="patch_4">
    <path d="
M489.508 368.742
L489.508 23.1417" style="fill:none;stroke:#000000;"/>
   </g>
   <g id="patch_5">
    <path d="
M43.1081 368.742
L489.508 368.742" style="fill:none;stroke:#000000;"/>
   </g>
   <g id="patch_6">
    <path d="
M43.1081 368.742
L43.1081 23.1417" style="fill:none;stroke:#000000;"/>
   </g>
   <g id="text_19">
    <!-- Multiple Transmit Error Rate / All Transmitted Packets Rate -->
    <defs>
     <path d="
M44.3906 34.1875
Q47.5625 33.1094 50.5625 29.5938
Q53.5625 26.0781 56.5938 19.9219
L66.6094 0
L56 0
L46.6875 18.7031
Q43.0625 26.0312 39.6719 28.4219
Q36.2812 30.8125 30.4219 30.8125
L19.6719 30.8125
L19.6719 0
L9.8125 0
L9.8125 72.9062
L32.0781 72.9062
Q44.5781 72.9062 50.7344 67.6719
Q56.8906 62.4531 56.8906 51.9062
Q56.8906 45.0156 53.6875 40.4688
Q50.4844 35.9375 44.3906 34.1875
M19.6719 64.7969
L19.6719 38.9219
L32.0781 38.9219
Q39.2031 38.9219 42.8438 42.2188
Q46.4844 45.5156 46.4844 51.9062
Q46.4844 58.2969 42.8438 61.5469
Q39.2031 64.7969 32.0781 64.7969
z
" id="DejaVuSans-52"/>
     <path d="
M45.4062 46.3906
L45.4062 75.9844
L54.3906 75.9844
L54.3906 0
L45.4062 0
L45.4062 8.20312
Q42.5781 3.32812 38.25 0.953125
Q33.9375 -1.42188 27.875 -1.42188
Q17.9688 -1.42188 11.7344 6.48438
Q5.51562 14.4062 5.51562 27.2969
Q5.51562 40.1875 11.7344 48.0938
Q17.9688 56 27.875 56
Q33.9375 56 38.25 53.625
Q42.5781 51.2656 45.4062 46.3906
M14.7969 27.2969
Q14.7969 17.3906 18.875 11.75
Q22.9531 6.10938 30.0781 6.10938
Q37.2031 6.10938 41.2969 11.75
Q45.4062 17.3906 45.4062 27.2969
Q45.4062 37.2031 41.2969 42.8438
Q37.2031 48.4844 30.0781 48.4844
Q22.9531 48.4844 18.875 42.8438
Q14.7969 37.2031 14.7969 27.2969" id="DejaVuSans-64"/>
     <path d="
M25.3906 72.9062
L33.6875 72.9062
L8.29688 -9.28125
L0 -9.28125
z
" id="DejaVuSans-2f"/>
     <path d="
M18.1094 8.20312
L18.1094 -20.7969
L9.07812 -20.7969
L9.07812 54.6875
L18.1094 54.6875
L18.1094 46.3906
Q20.9531 51.2656 25.2656 53.625
Q29.5938 56 35.5938 56
Q45.5625 56 51.7812 48.0938
Q58.0156 40.1875 58.0156 27.2969
Q58.0156 14.4062 51.7812 6.48438
Q45.5625 -1.42188 35.5938 -1.42188
Q29.5938 -1.42188 25.2656 0.953125
Q20.9531 3.32812 18.1094 8.20312
M48.6875 27.2969
Q48.6875 37.2031 44.6094 42.8438
Q40.5312 48.4844 33.4062 48.4844
Q26.2656 48.4844 22.1875 42.8438
Q18.1094 37.2031 18.1094 27.2969
Q18.1094 17.3906 22.1875 11.75
Q26.2656 6.10938 33.4062 6.10938
Q40.5312 6.10938 44.6094 11.75
Q48.6875 17.3906 48.6875 27.2969" id="DejaVuSans-70"/>
     <path d="
M34.1875 63.1875
L20.7969 26.9062
L47.6094 26.9062
z

M28.6094 72.9062
L39.7969 72.9062
L67.5781 0
L57.3281 0
L50.6875 18.7031
L17.8281 18.7031
L11.1875 0
L0.78125 0
z
" id="DejaVuSans-41"/>
    </defs>
    <g transform="translate(57.03675 18.14175)scale(0.144 -0.144)">
     <use xlink:href="#DejaVuSans-4d"/>
     <use x="86.279296875" xlink:href="#DejaVuSans-75"/>
     <use x="149.658203125" xlink:href="#DejaVuSans-6c"/>
     <use x="177.44140625" xlink:href="#DejaVuSans-74"/>
     <use x="216.650390625" xlink:href="#DejaVuSans-69"/>
     <use x="244.43359375" xlink:href="#DejaVuSans-70"/>
     <use x="307.91015625" xlink:href="#DejaVuSans-6c"/>
     <use x="335.693359375" xlink:href="#DejaVuSans-65"/>
     <use x="397.216796875" xlink:href="#DejaVuSans-20"/>
     <use x="429.00390625" xlink:href="#DejaVuSans-54"/>
     <use x="475.337890625" xlink:href="#DejaVuSans-72"/>
     <use x="516.451171875" xlink:href="#DejaVuSans-61"/>
     <use x="577.73046875" xlink:href="#DejaVuSans-6e"/>
     <use x="641.109375" xlink:href="#DejaVuSans-73"/>
     <use x="693.208984375" xlink:href="#DejaVuSans-6d"/>
     <use x="790.62109375" xlink:href="#DejaVuSans-69"/>
     <use x="818.404296875" xlink:href="#DejaVuSans-74"/>
     <use x="857.61328125" xlink:href="#DejaVuSans-20"/>
     <use x="889.400390625" xlink:href="#DejaVuSans-45"/>
     <use x="952.583984375" xlink:href="#DejaVuSans-72"/>
     <use x="991.947265625" xlink:href="#DejaVuSans-72"/>
     <use x="1030.81054688" xlink:href="#DejaVuSans-6f"/>
     <use x="1091.9921875" xlink:href="#DejaVuSans-72"/>
     <use x="1133.10546875" xlink:href="#DejaVuSans-20"/>
     <use x="1164.89257812" xlink:href="#DejaVuSans-52"/>
     <use x="1232.125" xlink:href="#DejaVuSans-61"/>
     <use x="1293.40429688" xlink:href="#DejaVuSans-74"/>
     <use x="1332.61328125" xlink:href="#DejaVuSans-65"/>
     <use x="1394.13671875" xlink:href="#DejaVuSans-20"/>
     <use x="1425.92382812" xlink:href="#DejaVuSans-2f"/>
     <use x="1459.61523438" xlink:href="#DejaVuSans-20"/>
     <use x="1491.40234375" xlink:href="#DejaVuSans-41"/>
     <use x="1559.81054688" xlink:href="#DejaVuSans-6c"/>
     <use x="1587.59375" xlink:href="#DejaVuSans-6c"/>
     <use x="1615.37695312" xlink:href="#DejaVuSans-20"/>
     <use x="1647.1640625" xlink:href="#DejaVuSans-54"/>
     <use x="1693.49804688" xlink:href="#DejaVuSans-72"/>
     <use x="1734.61132812" xlink:href="#DejaVuSans-61"/>
     <use x="1795.890625" xlink:href="#DejaVuSans-6e"/>
     <use x="1859.26953125" xlink:href="#DejaVuSans-73"/>
     <use x="1911.36914062" xlink:href="#DejaVuSans-6d"/>
     <use x="2008.78125" xlink:href="#DejaVuSans-69"/>
     <use x="2036.56445312" xlink:href="#DejaVuSans-74"/>
     <use x="2075.7734375" xlink:href="#DejaVuSans-74"/>
     <use x="2114.98242188" xlink:href="#DejaVuSans-65"/>
     <use x="2176.50585938" xlink:href="#DejaVuSans-64"/>
     <use x="2239.98242188" xlink:href="#DejaVuSans-20"/>
     <use x="2271.76953125" xlink:href="#DejaVuSans-50"/>
     <use x="2327.57226562" xlink:href="#DejaVuSans-61"/>
     <use x="2388.8515625" xlink:href="#DejaVuSans-63"/>
     <use x="2443.83203125" xlink:href="#DejaVuSans-6b"/>
     <use x="2498.1171875" xlink:href="#DejaVuSans-65"/>
     <use x="2559.640625" xlink:href="#DejaVuSans-74"/>
     <use x="2598.84960938" xlink:href="#DejaVuSans-73"/>
     <use x="2650.94921875" xlink:href="#DejaVuSans-20"/>
     <use x="2682.73632812" xlink:href="#DejaVuSans-52"/>
     <use x="2749.96875" xlink:href="#DejaVuSans-61"/>
     <use x="2811.24804688" xlink:href="#DejaVuSans-74"/>
     <use x="2850.45703125" xlink:href="#DejaVuSans-65"/>
    </g>
   </g>
   <g id="legend_1">
    <g id="patch_7">
     <path d="
M511.828 202.295
L641.464 202.295
L641.464 126.822
L511.828 126.822
L511.828 202.295
z
" style="fill:#ffffff;stroke:#000000;"/>
    </g>
    <g id="line2d_54">
     <path d="
M518.828 134.92
L532.828 134.92" style="fill:none;stroke:#0000ff;"/>
    </g>
    <g id="line2d_55"/>
    <g id="text_20">
     <!-- 1 -->
     <g transform="translate(543.828125 138.4201875)scale(0.1 -0.1)">
      <use xlink:href="#DejaVuSans-31"/>
     </g>
    </g>
    <g id="line2d_56">
     <path d="
M518.828 149.598
L532.828 149.598" style="fill:none;stroke:#008000;"/>
    </g>
    <g id="line2d_57"/>
    <g id="text_21">
     <!-- 1,6,11 -->
     <defs>
      <path d="
M11.7188 12.4062
L22.0156 12.4062
L22.0156 4
L14.0156 -11.625
L7.71875 -11.625
L11.7188 4
z
" id="DejaVuSans-2c"/>
     </defs>
     <g transform="translate(543.828125 153.0983125)scale(0.1 -0.1)">
      <use xlink:href="#DejaVuSans-31"/>
      <use x="63.623046875" xlink:href="#DejaVuSans-2c"/>
      <use x="95.41015625" xlink:href="#DejaVuSans-36"/>
      <use x="159.033203125" xlink:href="#DejaVuSans-2c"/>
      <use x="190.8203125" xlink:href="#DejaVuSans-31"/>
      <use x="254.443359375" xlink:href="#DejaVuSans-31"/>
     </g>
    </g>
    <g id="line2d_58">
     <path d="
M518.828 164.276
L532.828 164.276" style="fill:none;stroke:#ff0000;"/>
    </g>
    <g id="line2d_59"/>
    <g id="text_22">
     <!-- 1,6,11,36,40,44,48 -->
     <g transform="translate(543.828125 167.7764375)scale(0.1 -0.1)">
      <use xlink:href="#DejaVuSans-31"/>
      <use x="63.623046875" xlink:href="#DejaVuSans-2c"/>
      <use x="95.41015625" xlink:href="#DejaVuSans-36"/>
      <use x="159.033203125" xlink:href="#DejaVuSans-2c"/>
      <use x="190.8203125" xlink:href="#DejaVuSans-31"/>
      <use x="254.443359375" xlink:href="#DejaVuSans-31"/>
      <use x="318.06640625" xlink:href="#DejaVuSans-2c"/>
      <use x="349.853515625" xlink:href="#DejaVuSans-33"/>
      <use x="413.4765625" xlink:href="#DejaVuSans-36"/>
      <use x="477.099609375" xlink:href="#DejaVuSans-2c"/>
      <use x="508.88671875" xlink:href="#DejaVuSans-34"/>
      <use x="572.509765625" xlink:href="#DejaVuSans-30"/>
      <use x="636.1328125" xlink:href="#DejaVuSans-2c"/>
      <use x="667.919921875" xlink:href="#DejaVuSans-34"/>
      <use x="731.54296875" xlink:href="#DejaVuSans-34"/>
      <use x="795.166015625" xlink:href="#DejaVuSans-2c"/>
      <use x="826.953125" xlink:href="#DejaVuSans-34"/>
      <use x="890.576171875" xlink:href="#DejaVuSans-38"/>
     </g>
    </g>
    <g id="line2d_60">
     <path d="
M518.828 178.955
L532.828 178.955" style="fill:none;stroke:#00bfbf;"/>
    </g>
    <g id="line2d_61"/>
    <g id="text_23">
     <!-- 36 -->
     <g transform="translate(543.828125 182.4545625)scale(0.1 -0.1)">
      <use xlink:href="#DejaVuSans-33"/>
      <use x="63.623046875" xlink:href="#DejaVuSans-36"/>
     </g>
    </g>
    <g id="line2d_62">
     <path d="
M518.828 193.633
L532.828 193.633" style="fill:none;stroke:#bf00bf;"/>
    </g>
    <g id="line2d_63"/>
    <g id="text_24">
     <!-- 36,40,44 -->
     <g transform="translate(543.828125 197.1326875)scale(0.1 -0.1)">
      <use xlink:href="#DejaVuSans-33"/>
      <use x="63.623046875" xlink:href="#DejaVuSans-36"/>
      <use x="127.24609375" xlink:href="#DejaVuSans-2c"/>
      <use x="159.033203125" xlink:href="#DejaVuSans-34"/>
      <use x="222.65625" xlink:href="#DejaVuSans-30"/>
      <use x="286.279296875" xlink:href="#DejaVuSans-2c"/>
      <use x="318.06640625" xlink:href="#DejaVuSans-34"/>
      <use x="381.689453125" xlink:href="#DejaVuSans-34"/>
     </g>
    </g>
   </g>
  </g>
 </g>
 <defs>
  <clipPath id="p560831bd01">
   <rect height="345.6" width="446.4" x="43.108125" y="23.14175"/>
  </clipPath>
 </defs>
</svg>
