<?xml version="1.0" encoding="utf-8" standalone="no"?>
<!DOCTYPE svg PUBLIC "-//W3C//DTD SVG 1.1//EN"
  "http://www.w3.org/Graphics/SVG/1.1/DTD/svg11.dtd">
<!-- Created with matplotlib (http://matplotlib.sourceforge.net/) -->
<svg height="288pt" version="1.1" viewBox="0 0 602 288" width="602pt" xmlns="http://www.w3.org/2000/svg" xmlns:xlink="http://www.w3.org/1999/xlink">
 <defs>
  <style type="text/css">
*{stroke-linecap:square;stroke-linejoin:round;}
  </style>
 </defs>
 <g id="figure_1">
  <g id="patch_1">
   <path d="
M0 288.107
L602.554 288.107
L602.554 0
L0 0
z
" style="fill:#ffffff;"/>
  </g>
  <g id="axes_1">
   <g id="patch_2">
    <path d="
M55.5881 253.542
L446.188 253.542
L446.188 23.1418
L55.5881 23.1418
z
" style="fill:#ffffff;"/>
   </g>
   <g id="line2d_1">
    <path clip-path="url(#p8738e62512)" d="
M55.5881 225.331
L60.1451 223.846
L64.7021 225.382
L69.2591 225.279
L73.8161 226.355
L78.3731 225.689
L82.9301 228.249
L87.4871 225.996
L92.0441 230.143
L96.6011 236.287
L101.158 234.751
L105.715 236.697
L110.272 237.363
L114.829 237.67
L119.386 239.513
L123.943 238.284
L128.5 237.619
L133.057 238.745
L137.614 234.086
L142.171 233.011
L146.728 230.911
L151.285 231.321
L155.842 229.427
L160.399 229.222
L164.956 231.731
L169.513 234.598
L174.07 236.953
L178.627 239.615
L183.184 236.851
L187.741 235.11
L192.298 236.287
L196.855 232.294
L201.412 233.881
L205.969 235.724
L210.526 234.188
L215.083 234.291
L219.64 232.243
L224.197 238.387
L228.754 236.236
L233.311 236.953
L237.868 238.079
L242.425 236.902
L246.982 239.871
L251.539 237.721
L256.096 238.335
L260.653 236.134
L265.21 241.049
L269.767 240.691
L274.324 240.639
L278.881 241.1
L283.438 235.007
L287.995 235.212
L292.552 232.345
L297.109 233.779
L301.666 233.779
L306.223 235.161
L310.78 232.908
L315.337 233.625
L319.894 234.7
L324.451 234.495
L329.008 235.315
L333.565 236.339
L338.122 234.239
L342.679 234.751
L347.236 234.239
L351.793 234.649
L356.35 239.667
L360.907 236.953
L365.464 237.67
L370.021 237.772
L374.578 238.591
L379.135 237.721
L383.692 237.721
L388.249 235.417
L392.806 239.001
L397.363 240.691
L401.92 241.1
L406.477 240.844
L411.034 236.543
L415.591 233.983
L420.148 230.86
L424.705 226.047
L429.262 227.891
L433.819 227.635
L438.376 221.286
L442.933 222.003
L447.49 223.18
L452.047 222.105" style="fill:none;stroke:#0000ff;"/>
   </g>
   <g id="line2d_2">
    <path clip-path="url(#p8738e62512)" d="
M55.5881 155.75
L60.1451 158.207
L64.7021 163.276
L69.2591 157.849
L73.8161 148.735
L78.3731 155.852
L82.9301 158.719
L87.4871 159.539
L92.0441 160.255
L96.6011 165.324
L101.158 158.003
L105.715 158.771
L110.272 152.473
L114.829 157.388
L119.386 156.876
L123.943 159.231
L128.5 156.364
L133.057 157.542
L137.614 158.822
L142.171 160.051
L146.728 140.185
L151.285 149.964
L155.842 151.193
L160.399 155.494
L164.956 151.91
L169.513 155.187
L174.07 154.675
L178.627 156.211
L183.184 155.443
L187.741 154.265
L192.298 159.283
L196.855 159.385
L201.412 162.918
L205.969 163.379
L210.526 161.484
L215.083 159.231
L219.64 154.828
L224.197 155.187
L228.754 160.767
L233.311 161.638
L237.868 158.822
L242.425 153.651
L246.982 156.774
L251.539 150.937
L256.096 155.647
L260.653 155.75
L265.21 154.726
L269.767 145.51
L274.324 146.585
L278.881 146.175
L283.438 155.647
L287.995 160.563
L292.552 153.343
L297.109 150.527
L301.666 152.934
L306.223 143.667
L310.78 144.23
L315.337 146.227
L319.894 149.35
L324.451 145.459
L329.008 146.687
L333.565 152.319
L338.122 151.807
L342.679 153.497
L347.236 154.675
L351.793 152.831
L356.35 152.268
L360.907 146.841
L365.464 148.07
L370.021 154.828
L374.578 152.012
L379.135 153.241
L383.692 150.527
L388.249 152.473
L392.806 158.566
L397.363 155.699
L401.92 150.988
L406.477 148.531
L411.034 146.995
L415.591 152.729
L420.148 152.268
L424.705 152.831
L429.262 147.814
L433.819 148.94
L438.376 152.166
L442.933 155.494
L447.49 154.777
L452.047 150.886" style="fill:none;stroke:#008000;"/>
   </g>
   <g id="line2d_3">
    <path clip-path="url(#p8738e62512)" d="
M55.5881 32.1018
L60.1451 45.721
L64.7021 59.0842
L69.2591 60.0058
L73.8161 45.209
L78.3731 62.873
L82.9301 71.3722
L87.4871 58.521
L92.0441 55.9098
L96.6011 64.2042
L101.158 53.6058
L105.715 49.1514
L110.272 50.585
L114.829 50.9434
L119.386 47.6666
L123.943 41.4202
L128.5 30.4122
L133.057 32.5114
L137.614 36.8122
L142.171 28.1594
L146.728 31.4874
L151.285 45.0042
L155.842 42.0858
L160.399 45.8746
L164.956 45.0554
L169.513 42.9562
L174.07 45.5674
L178.627 42.0346
L183.184 43.3658
L187.741 28.4666
L192.298 40.7546
L196.855 39.6282
L201.412 39.8842
L205.969 33.177
L210.526 26.265
L215.083 33.177
L219.64 38.0922
L224.197 51.1482
L228.754 38.7578
L233.311 53.5546
L237.868 53.657
L242.425 50.9434
L246.982 42.137
L251.539 50.0218
L256.096 59.801
L260.653 43.7242
L265.21 42.5466
L269.767 44.7994
L274.324 41.2666
L278.881 46.6938
L283.438 34.8154
L287.995 40.5498
L292.552 35.0202
L297.109 37.8362
L301.666 40.3962
L306.223 39.833
L310.78 39.9866
L315.337 57.9066
L319.894 41.7786
L324.451 32.5626
L329.008 26.6746
L333.565 32.3578
L338.122 34.201
L342.679 37.7338
L347.236 33.0746
L351.793 36.0442
L356.35 44.5946
L360.907 41.6762
L365.464 47.7178
L370.021 37.0682
L374.578 32.7674
L379.135 44.697
L383.692 52.6842
L388.249 50.9434
L392.806 46.3866
L397.363 37.6314
L401.92 34.457
L406.477 39.1674
L411.034 46.4378
L415.591 32.3066
L420.148 37.4778
L424.705 43.8778
L429.262 35.9418
L433.819 32.5114
L438.376 28.8762
L442.933 29.6954
L447.49 35.1738
L452.047 47.4618" style="fill:none;stroke:#ff0000;"/>
   </g>
   <g id="line2d_4">
    <path clip-path="url(#p8738e62512)" d="
M55.5881 195.686
L60.1451 202.7
L64.7021 203.724
L69.2591 200.755
L73.8161 201.523
L78.3731 201.983
L82.9301 203.673
L87.4871 206.847
L92.0441 204.953
L96.6011 204.236
L101.158 209.203
L105.715 212.326
L110.272 216.319
L114.829 219.187
L119.386 218.316
L123.943 214.63
L128.5 217.907
L133.057 215.295
L137.614 218.623
L142.171 222.515
L146.728 220.313
L151.285 214.015
L155.842 211.967
L160.399 214.323
L164.956 210.841
L169.513 214.22
L174.07 213.043
L178.627 208.076
L183.184 208.025
L187.741 211.353
L192.298 209.868
L196.855 201.164
L201.412 201.779
L205.969 203.11
L210.526 214.015
L215.083 208.076
L219.64 204.697
L224.197 202.598
L228.754 192.307
L233.311 190.719
L237.868 186.47
L242.425 187.647
L246.982 193.228
L251.539 201.471
L256.096 204.441
L260.653 202.393
L265.21 197.017
L269.767 203.161
L274.324 202.7
L278.881 197.068
L283.438 196.147
L287.995 206.847
L292.552 200.089
L297.109 195.839
L301.666 202.547
L306.223 210.943
L310.78 215.193
L315.337 213.606
L319.894 216.575
L324.451 225.126
L329.008 225.126
L333.565 223.487
L338.122 226.969
L342.679 224.563
L347.236 226.559
L351.793 230.297
L356.35 229.171
L360.907 227.481
L365.464 226.355
L370.021 228.3
L374.578 228.403
L379.135 229.939
L383.692 224.307
L388.249 224.204
L392.806 224.409
L397.363 223.436
L401.92 224.255
L406.477 222.105
L411.034 221.337
L415.591 220.211
L420.148 218.06
L424.705 220.006
L429.262 223.334
L433.819 221.9
L438.376 221.235
L442.933 223.846
L447.49 226.918
L452.047 224.204" style="fill:none;stroke:#00bfbf;"/>
   </g>
   <g id="line2d_5">
    <path clip-path="url(#p8738e62512)" d="
M55.5881 108.083
L60.1451 117.452
L64.7021 123.135
L69.2591 126.771
L73.8161 131.532
L78.3731 136.447
L82.9301 136.447
L87.4871 146.534
L92.0441 145.1
L96.6011 150.63
L101.158 148.787
L105.715 141.67
L110.272 142.233
L114.829 161.945
L119.386 133.836
L123.943 139.417
L128.5 133.99
L133.057 142.591
L137.614 142.387
L142.171 153.036
L146.728 146.841
L151.285 148.838
L155.842 152.729
L160.399 155.699
L164.956 156.774
L169.513 151.398
L174.07 146.38
L178.627 135.27
L183.184 136.14
L187.741 143.308
L192.298 144.281
L196.855 146.739
L201.412 141.414
L205.969 139.827
L210.526 128.511
L215.083 128.307
L219.64 124.211
L224.197 121.548
L228.754 117.657
L233.311 113.51
L237.868 118.015
L242.425 118.476
L246.982 108.646
L251.539 106.649
L256.096 103.167
L260.653 100.454
L265.21 113.817
L269.767 129.587
L274.324 127.743
L278.881 136.806
L283.438 135.526
L287.995 143.411
L292.552 137.471
L297.109 131.225
L301.666 136.243
L306.223 138.598
L310.78 140.953
L315.337 148.275
L319.894 147.558
L324.451 134.041
L329.008 131.532
L333.565 131.327
L338.122 124.569
L342.679 134.041
L347.236 142.079
L351.793 141.414
L356.35 137.625
L360.907 141.209
L365.464 139.366
L370.021 139.263
L374.578 142.796
L379.135 136.703
L383.692 132.71
L388.249 130.918
L392.806 136.345
L397.363 137.779
L401.92 138.495
L406.477 138.291
L411.034 135.167
L415.591 131.891
L420.148 134.502
L424.705 137.164
L429.262 135.628
L433.819 140.646
L438.376 138.905
L442.933 134.143
L447.49 115.763
L452.047 116.531" style="fill:none;stroke:#bf00bf;"/>
   </g>
   <g id="matplotlib.axis_1">
    <g id="xtick_1">
     <g id="line2d_6">
      <path clip-path="url(#p8738e62512)" d="
M55.5881 253.542
L55.5881 23.1418" style="fill:none;stroke:#000000;stroke-dasharray:1.000000,3.000000;stroke-dashoffset:0.0;stroke-linecap:butt;stroke-width:0.5;"/>
     </g>
     <g id="line2d_7">
      <defs>
       <path d="
M0 0
L0 -4" id="m0012dd4eef" style="stroke:#000000;stroke-linecap:butt;stroke-width:0.5;"/>
      </defs>
      <g>
       <use style="stroke:#000000;stroke-linecap:butt;stroke-width:0.5;" x="55.588125" xlink:href="#m0012dd4eef" y="253.54175"/>
      </g>
     </g>
     <g id="line2d_8">
      <defs>
       <path d="
M0 0
L0 4" id="m476344969c" style="stroke:#000000;stroke-linecap:butt;stroke-width:0.5;"/>
      </defs>
      <g>
       <use style="stroke:#000000;stroke-linecap:butt;stroke-width:0.5;" x="55.588125" xlink:href="#m476344969c" y="23.14175"/>
      </g>
     </g>
     <g id="text_1">
      <!-- 0 -->
      <defs>
       <path d="
M31.7812 66.4062
Q24.1719 66.4062 20.3281 58.9062
Q16.5 51.4219 16.5 36.375
Q16.5 21.3906 20.3281 13.8906
Q24.1719 6.39062 31.7812 6.39062
Q39.4531 6.39062 43.2812 13.8906
Q47.125 21.3906 47.125 36.375
Q47.125 51.4219 43.2812 58.9062
Q39.4531 66.4062 31.7812 66.4062
M31.7812 74.2188
Q44.0469 74.2188 50.5156 64.5156
Q56.9844 54.8281 56.9844 36.375
Q56.9844 17.9688 50.5156 8.26562
Q44.0469 -1.42188 31.7812 -1.42188
Q19.5312 -1.42188 13.0625 8.26562
Q6.59375 17.9688 6.59375 36.375
Q6.59375 54.8281 13.0625 64.5156
Q19.5312 74.2188 31.7812 74.2188" id="DejaVuSans-30"/>
      </defs>
      <g transform="translate(52.5646875 266.448)scale(0.12 -0.12)">
       <use xlink:href="#DejaVuSans-30"/>
      </g>
     </g>
    </g>
    <g id="xtick_2">
     <g id="line2d_9">
      <path clip-path="url(#p8738e62512)" d="
M120.688 253.542
L120.688 23.1418" style="fill:none;stroke:#000000;stroke-dasharray:1.000000,3.000000;stroke-dashoffset:0.0;stroke-linecap:butt;stroke-width:0.5;"/>
     </g>
     <g id="line2d_10">
      <g>
       <use style="stroke:#000000;stroke-linecap:butt;stroke-width:0.5;" x="120.688125" xlink:href="#m0012dd4eef" y="253.54175"/>
      </g>
     </g>
     <g id="line2d_11">
      <g>
       <use style="stroke:#000000;stroke-linecap:butt;stroke-width:0.5;" x="120.688125" xlink:href="#m476344969c" y="23.14175"/>
      </g>
     </g>
     <g id="text_2">
      <!-- 100 -->
      <defs>
       <path d="
M12.4062 8.29688
L28.5156 8.29688
L28.5156 63.9219
L10.9844 60.4062
L10.9844 69.3906
L28.4219 72.9062
L38.2812 72.9062
L38.2812 8.29688
L54.3906 8.29688
L54.3906 0
L12.4062 0
z
" id="DejaVuSans-31"/>
      </defs>
      <g transform="translate(110.293125 266.448)scale(0.12 -0.12)">
       <use xlink:href="#DejaVuSans-31"/>
       <use x="63.623046875" xlink:href="#DejaVuSans-30"/>
       <use x="127.24609375" xlink:href="#DejaVuSans-30"/>
      </g>
     </g>
    </g>
    <g id="xtick_3">
     <g id="line2d_12">
      <path clip-path="url(#p8738e62512)" d="
M185.788 253.542
L185.788 23.1418" style="fill:none;stroke:#000000;stroke-dasharray:1.000000,3.000000;stroke-dashoffset:0.0;stroke-linecap:butt;stroke-width:0.5;"/>
     </g>
     <g id="line2d_13">
      <g>
       <use style="stroke:#000000;stroke-linecap:butt;stroke-width:0.5;" x="185.788125" xlink:href="#m0012dd4eef" y="253.54175"/>
      </g>
     </g>
     <g id="line2d_14">
      <g>
       <use style="stroke:#000000;stroke-linecap:butt;stroke-width:0.5;" x="185.788125" xlink:href="#m476344969c" y="23.14175"/>
      </g>
     </g>
     <g id="text_3">
      <!-- 200 -->
      <defs>
       <path d="
M19.1875 8.29688
L53.6094 8.29688
L53.6094 0
L7.32812 0
L7.32812 8.29688
Q12.9375 14.1094 22.625 23.8906
Q32.3281 33.6875 34.8125 36.5312
Q39.5469 41.8438 41.4219 45.5312
Q43.3125 49.2188 43.3125 52.7812
Q43.3125 58.5938 39.2344 62.25
Q35.1562 65.9219 28.6094 65.9219
Q23.9688 65.9219 18.8125 64.3125
Q13.6719 62.7031 7.8125 59.4219
L7.8125 69.3906
Q13.7656 71.7812 18.9375 73
Q24.125 74.2188 28.4219 74.2188
Q39.75 74.2188 46.4844 68.5469
Q53.2188 62.8906 53.2188 53.4219
Q53.2188 48.9219 51.5312 44.8906
Q49.8594 40.875 45.4062 35.4062
Q44.1875 33.9844 37.6406 27.2188
Q31.1094 20.4531 19.1875 8.29688" id="DejaVuSans-32"/>
      </defs>
      <g transform="translate(175.17375 266.448)scale(0.12 -0.12)">
       <use xlink:href="#DejaVuSans-32"/>
       <use x="63.623046875" xlink:href="#DejaVuSans-30"/>
       <use x="127.24609375" xlink:href="#DejaVuSans-30"/>
      </g>
     </g>
    </g>
    <g id="xtick_4">
     <g id="line2d_15">
      <path clip-path="url(#p8738e62512)" d="
M250.888 253.542
L250.888 23.1418" style="fill:none;stroke:#000000;stroke-dasharray:1.000000,3.000000;stroke-dashoffset:0.0;stroke-linecap:butt;stroke-width:0.5;"/>
     </g>
     <g id="line2d_16">
      <g>
       <use style="stroke:#000000;stroke-linecap:butt;stroke-width:0.5;" x="250.888125" xlink:href="#m0012dd4eef" y="253.54175"/>
      </g>
     </g>
     <g id="line2d_17">
      <g>
       <use style="stroke:#000000;stroke-linecap:butt;stroke-width:0.5;" x="250.888125" xlink:href="#m476344969c" y="23.14175"/>
      </g>
     </g>
     <g id="text_4">
      <!-- 300 -->
      <defs>
       <path d="
M40.5781 39.3125
Q47.6562 37.7969 51.625 33
Q55.6094 28.2188 55.6094 21.1875
Q55.6094 10.4062 48.1875 4.48438
Q40.7656 -1.42188 27.0938 -1.42188
Q22.5156 -1.42188 17.6562 -0.515625
Q12.7969 0.390625 7.625 2.20312
L7.625 11.7188
Q11.7188 9.32812 16.5938 8.10938
Q21.4844 6.89062 26.8125 6.89062
Q36.0781 6.89062 40.9375 10.5469
Q45.7969 14.2031 45.7969 21.1875
Q45.7969 27.6406 41.2812 31.2656
Q36.7656 34.9062 28.7188 34.9062
L20.2188 34.9062
L20.2188 43.0156
L29.1094 43.0156
Q36.375 43.0156 40.2344 45.9219
Q44.0938 48.8281 44.0938 54.2969
Q44.0938 59.9062 40.1094 62.9062
Q36.1406 65.9219 28.7188 65.9219
Q24.6562 65.9219 20.0156 65.0312
Q15.375 64.1562 9.8125 62.3125
L9.8125 71.0938
Q15.4375 72.6562 20.3438 73.4375
Q25.25 74.2188 29.5938 74.2188
Q40.8281 74.2188 47.3594 69.1094
Q53.9062 64.0156 53.9062 55.3281
Q53.9062 49.2656 50.4375 45.0938
Q46.9688 40.9219 40.5781 39.3125" id="DejaVuSans-33"/>
      </defs>
      <g transform="translate(240.2915625 266.448)scale(0.12 -0.12)">
       <use xlink:href="#DejaVuSans-33"/>
       <use x="63.623046875" xlink:href="#DejaVuSans-30"/>
       <use x="127.24609375" xlink:href="#DejaVuSans-30"/>
      </g>
     </g>
    </g>
    <g id="xtick_5">
     <g id="line2d_18">
      <path clip-path="url(#p8738e62512)" d="
M315.988 253.542
L315.988 23.1418" style="fill:none;stroke:#000000;stroke-dasharray:1.000000,3.000000;stroke-dashoffset:0.0;stroke-linecap:butt;stroke-width:0.5;"/>
     </g>
     <g id="line2d_19">
      <g>
       <use style="stroke:#000000;stroke-linecap:butt;stroke-width:0.5;" x="315.988125" xlink:href="#m0012dd4eef" y="253.54175"/>
      </g>
     </g>
     <g id="line2d_20">
      <g>
       <use style="stroke:#000000;stroke-linecap:butt;stroke-width:0.5;" x="315.988125" xlink:href="#m476344969c" y="23.14175"/>
      </g>
     </g>
     <g id="text_5">
      <!-- 400 -->
      <defs>
       <path d="
M37.7969 64.3125
L12.8906 25.3906
L37.7969 25.3906
z

M35.2031 72.9062
L47.6094 72.9062
L47.6094 25.3906
L58.0156 25.3906
L58.0156 17.1875
L47.6094 17.1875
L47.6094 0
L37.7969 0
L37.7969 17.1875
L4.89062 17.1875
L4.89062 26.7031
z
" id="DejaVuSans-34"/>
      </defs>
      <g transform="translate(305.2275 266.448)scale(0.12 -0.12)">
       <use xlink:href="#DejaVuSans-34"/>
       <use x="63.623046875" xlink:href="#DejaVuSans-30"/>
       <use x="127.24609375" xlink:href="#DejaVuSans-30"/>
      </g>
     </g>
    </g>
    <g id="xtick_6">
     <g id="line2d_21">
      <path clip-path="url(#p8738e62512)" d="
M381.088 253.542
L381.088 23.1418" style="fill:none;stroke:#000000;stroke-dasharray:1.000000,3.000000;stroke-dashoffset:0.0;stroke-linecap:butt;stroke-width:0.5;"/>
     </g>
     <g id="line2d_22">
      <g>
       <use style="stroke:#000000;stroke-linecap:butt;stroke-width:0.5;" x="381.088125" xlink:href="#m0012dd4eef" y="253.54175"/>
      </g>
     </g>
     <g id="line2d_23">
      <g>
       <use style="stroke:#000000;stroke-linecap:butt;stroke-width:0.5;" x="381.088125" xlink:href="#m476344969c" y="23.14175"/>
      </g>
     </g>
     <g id="text_6">
      <!-- 500 -->
      <defs>
       <path d="
M10.7969 72.9062
L49.5156 72.9062
L49.5156 64.5938
L19.8281 64.5938
L19.8281 46.7344
Q21.9688 47.4688 24.1094 47.8281
Q26.2656 48.1875 28.4219 48.1875
Q40.625 48.1875 47.75 41.5
Q54.8906 34.8125 54.8906 23.3906
Q54.8906 11.625 47.5625 5.09375
Q40.2344 -1.42188 26.9062 -1.42188
Q22.3125 -1.42188 17.5469 -0.640625
Q12.7969 0.140625 7.71875 1.70312
L7.71875 11.625
Q12.1094 9.23438 16.7969 8.0625
Q21.4844 6.89062 26.7031 6.89062
Q35.1562 6.89062 40.0781 11.3281
Q45.0156 15.7656 45.0156 23.3906
Q45.0156 31 40.0781 35.4375
Q35.1562 39.8906 26.7031 39.8906
Q22.75 39.8906 18.8125 39.0156
Q14.8906 38.1406 10.7969 36.2812
z
" id="DejaVuSans-35"/>
      </defs>
      <g transform="translate(370.4971875 266.448)scale(0.12 -0.12)">
       <use xlink:href="#DejaVuSans-35"/>
       <use x="63.623046875" xlink:href="#DejaVuSans-30"/>
       <use x="127.24609375" xlink:href="#DejaVuSans-30"/>
      </g>
     </g>
    </g>
    <g id="xtick_7">
     <g id="line2d_24">
      <path clip-path="url(#p8738e62512)" d="
M446.188 253.542
L446.188 23.1418" style="fill:none;stroke:#000000;stroke-dasharray:1.000000,3.000000;stroke-dashoffset:0.0;stroke-linecap:butt;stroke-width:0.5;"/>
     </g>
     <g id="line2d_25">
      <g>
       <use style="stroke:#000000;stroke-linecap:butt;stroke-width:0.5;" x="446.188125" xlink:href="#m0012dd4eef" y="253.54175"/>
      </g>
     </g>
     <g id="line2d_26">
      <g>
       <use style="stroke:#000000;stroke-linecap:butt;stroke-width:0.5;" x="446.188125" xlink:href="#m476344969c" y="23.14175"/>
      </g>
     </g>
     <g id="text_7">
      <!-- 600 -->
      <defs>
       <path d="
M33.0156 40.375
Q26.375 40.375 22.4844 35.8281
Q18.6094 31.2969 18.6094 23.3906
Q18.6094 15.5312 22.4844 10.9531
Q26.375 6.39062 33.0156 6.39062
Q39.6562 6.39062 43.5312 10.9531
Q47.4062 15.5312 47.4062 23.3906
Q47.4062 31.2969 43.5312 35.8281
Q39.6562 40.375 33.0156 40.375
M52.5938 71.2969
L52.5938 62.3125
Q48.875 64.0625 45.0938 64.9844
Q41.3125 65.9219 37.5938 65.9219
Q27.8281 65.9219 22.6719 59.3281
Q17.5312 52.7344 16.7969 39.4062
Q19.6719 43.6562 24.0156 45.9219
Q28.375 48.1875 33.5938 48.1875
Q44.5781 48.1875 50.9531 41.5156
Q57.3281 34.8594 57.3281 23.3906
Q57.3281 12.1562 50.6875 5.35938
Q44.0469 -1.42188 33.0156 -1.42188
Q20.3594 -1.42188 13.6719 8.26562
Q6.98438 17.9688 6.98438 36.375
Q6.98438 53.6562 15.1875 63.9375
Q23.3906 74.2188 37.2031 74.2188
Q40.9219 74.2188 44.7031 73.4844
Q48.4844 72.75 52.5938 71.2969" id="DejaVuSans-36"/>
      </defs>
      <g transform="translate(435.553125 266.448)scale(0.12 -0.12)">
       <use xlink:href="#DejaVuSans-36"/>
       <use x="63.623046875" xlink:href="#DejaVuSans-30"/>
       <use x="127.24609375" xlink:href="#DejaVuSans-30"/>
      </g>
     </g>
    </g>
    <g id="text_8">
     <!-- Time in s -->
     <defs>
      <path d="
M52 44.1875
Q55.375 50.25 60.0625 53.125
Q64.75 56 71.0938 56
Q79.6406 56 84.2812 50.0156
Q88.9219 44.0469 88.9219 33.0156
L88.9219 0
L79.8906 0
L79.8906 32.7188
Q79.8906 40.5781 77.0938 44.375
Q74.3125 48.1875 68.6094 48.1875
Q61.625 48.1875 57.5625 43.5469
Q53.5156 38.9219 53.5156 30.9062
L53.5156 0
L44.4844 0
L44.4844 32.7188
Q44.4844 40.625 41.7031 44.4062
Q38.9219 48.1875 33.1094 48.1875
Q26.2188 48.1875 22.1562 43.5312
Q18.1094 38.875 18.1094 30.9062
L18.1094 0
L9.07812 0
L9.07812 54.6875
L18.1094 54.6875
L18.1094 46.1875
Q21.1875 51.2188 25.4844 53.6094
Q29.7812 56 35.6875 56
Q41.6562 56 45.8281 52.9688
Q50 49.9531 52 44.1875" id="DejaVuSans-6d"/>
      <path d="
M54.8906 33.0156
L54.8906 0
L45.9062 0
L45.9062 32.7188
Q45.9062 40.4844 42.875 44.3281
Q39.8438 48.1875 33.7969 48.1875
Q26.5156 48.1875 22.3125 43.5469
Q18.1094 38.9219 18.1094 30.9062
L18.1094 0
L9.07812 0
L9.07812 54.6875
L18.1094 54.6875
L18.1094 46.1875
Q21.3438 51.125 25.7031 53.5625
Q30.0781 56 35.7969 56
Q45.2188 56 50.0469 50.1719
Q54.8906 44.3438 54.8906 33.0156" id="DejaVuSans-6e"/>
      <path id="DejaVuSans-20"/>
      <path d="
M9.42188 54.6875
L18.4062 54.6875
L18.4062 0
L9.42188 0
z

M9.42188 75.9844
L18.4062 75.9844
L18.4062 64.5938
L9.42188 64.5938
z
" id="DejaVuSans-69"/>
      <path d="
M56.2031 29.5938
L56.2031 25.2031
L14.8906 25.2031
Q15.4844 15.9219 20.4844 11.0625
Q25.4844 6.20312 34.4219 6.20312
Q39.5938 6.20312 44.4531 7.46875
Q49.3125 8.73438 54.1094 11.2812
L54.1094 2.78125
Q49.2656 0.734375 44.1875 -0.34375
Q39.1094 -1.42188 33.8906 -1.42188
Q20.7969 -1.42188 13.1562 6.1875
Q5.51562 13.8125 5.51562 26.8125
Q5.51562 40.2344 12.7656 48.1094
Q20.0156 56 32.3281 56
Q43.3594 56 49.7812 48.8906
Q56.2031 41.7969 56.2031 29.5938
M47.2188 32.2344
Q47.125 39.5938 43.0938 43.9844
Q39.0625 48.3906 32.4219 48.3906
Q24.9062 48.3906 20.3906 44.1406
Q15.875 39.8906 15.1875 32.1719
z
" id="DejaVuSans-65"/>
      <path d="
M44.2812 53.0781
L44.2812 44.5781
Q40.4844 46.5312 36.375 47.5
Q32.2812 48.4844 27.875 48.4844
Q21.1875 48.4844 17.8438 46.4375
Q14.5 44.3906 14.5 40.2812
Q14.5 37.1562 16.8906 35.375
Q19.2812 33.5938 26.5156 31.9844
L29.5938 31.2969
Q39.1562 29.25 43.1875 25.5156
Q47.2188 21.7812 47.2188 15.0938
Q47.2188 7.46875 41.1875 3.01562
Q35.1562 -1.42188 24.6094 -1.42188
Q20.2188 -1.42188 15.4531 -0.5625
Q10.6875 0.296875 5.42188 2
L5.42188 11.2812
Q10.4062 8.6875 15.2344 7.39062
Q20.0625 6.10938 24.8125 6.10938
Q31.1562 6.10938 34.5625 8.28125
Q37.9844 10.4531 37.9844 14.4062
Q37.9844 18.0625 35.5156 20.0156
Q33.0625 21.9688 24.7031 23.7812
L21.5781 24.5156
Q13.2344 26.2656 9.51562 29.9062
Q5.8125 33.5469 5.8125 39.8906
Q5.8125 47.6094 11.2812 51.7969
Q16.75 56 26.8125 56
Q31.7812 56 36.1719 55.2656
Q40.5781 54.5469 44.2812 53.0781" id="DejaVuSans-73"/>
      <path d="
M-0.296875 72.9062
L61.375 72.9062
L61.375 64.5938
L35.5 64.5938
L35.5 0
L25.5938 0
L25.5938 64.5938
L-0.296875 64.5938
z
" id="DejaVuSans-54"/>
     </defs>
     <g transform="translate(224.07375 280.73675)scale(0.12 -0.12)">
      <use xlink:href="#DejaVuSans-54"/>
      <use x="57.958984375" xlink:href="#DejaVuSans-69"/>
      <use x="85.7421875" xlink:href="#DejaVuSans-6d"/>
      <use x="183.154296875" xlink:href="#DejaVuSans-65"/>
      <use x="244.677734375" xlink:href="#DejaVuSans-20"/>
      <use x="276.46484375" xlink:href="#DejaVuSans-69"/>
      <use x="304.248046875" xlink:href="#DejaVuSans-6e"/>
      <use x="367.626953125" xlink:href="#DejaVuSans-20"/>
      <use x="399.4140625" xlink:href="#DejaVuSans-73"/>
     </g>
    </g>
   </g>
   <g id="matplotlib.axis_2">
    <g id="ytick_1">
     <g id="line2d_27">
      <path clip-path="url(#p8738e62512)" d="
M55.5881 253.542
L446.188 253.542" style="fill:none;stroke:#000000;stroke-dasharray:1.000000,3.000000;stroke-dashoffset:0.0;stroke-linecap:butt;stroke-width:0.5;"/>
     </g>
     <g id="line2d_28">
      <defs>
       <path d="
M0 0
L4 0" id="me8a85f7bf6" style="stroke:#000000;stroke-linecap:butt;stroke-width:0.5;"/>
      </defs>
      <g>
       <use style="stroke:#000000;stroke-linecap:butt;stroke-width:0.5;" x="55.588125" xlink:href="#me8a85f7bf6" y="253.54175"/>
      </g>
     </g>
     <g id="line2d_29">
      <defs>
       <path d="
M0 0
L-4 0" id="m1a32005dea" style="stroke:#000000;stroke-linecap:butt;stroke-width:0.5;"/>
      </defs>
      <g>
       <use style="stroke:#000000;stroke-linecap:butt;stroke-width:0.5;" x="446.188125" xlink:href="#m1a32005dea" y="253.54175"/>
      </g>
     </g>
     <g id="text_9">
      <!-- 0 -->
      <g transform="translate(45.54125 257.9095625)scale(0.12 -0.12)">
       <use xlink:href="#DejaVuSans-30"/>
      </g>
     </g>
    </g>
    <g id="ytick_2">
     <g id="line2d_30">
      <path clip-path="url(#p8738e62512)" d="
M55.5881 227.942
L446.188 227.942" style="fill:none;stroke:#000000;stroke-dasharray:1.000000,3.000000;stroke-dashoffset:0.0;stroke-linecap:butt;stroke-width:0.5;"/>
     </g>
     <g id="line2d_31">
      <g>
       <use style="stroke:#000000;stroke-linecap:butt;stroke-width:0.5;" x="55.588125" xlink:href="#me8a85f7bf6" y="227.94175"/>
      </g>
     </g>
     <g id="line2d_32">
      <g>
       <use style="stroke:#000000;stroke-linecap:butt;stroke-width:0.5;" x="446.188125" xlink:href="#m1a32005dea" y="227.94175"/>
      </g>
     </g>
     <g id="text_10">
      <!-- 500 -->
      <g transform="translate(30.40625 232.3095625)scale(0.12 -0.12)">
       <use xlink:href="#DejaVuSans-35"/>
       <use x="63.623046875" xlink:href="#DejaVuSans-30"/>
       <use x="127.24609375" xlink:href="#DejaVuSans-30"/>
      </g>
     </g>
    </g>
    <g id="ytick_3">
     <g id="line2d_33">
      <path clip-path="url(#p8738e62512)" d="
M55.5881 202.342
L446.188 202.342" style="fill:none;stroke:#000000;stroke-dasharray:1.000000,3.000000;stroke-dashoffset:0.0;stroke-linecap:butt;stroke-width:0.5;"/>
     </g>
     <g id="line2d_34">
      <g>
       <use style="stroke:#000000;stroke-linecap:butt;stroke-width:0.5;" x="55.588125" xlink:href="#me8a85f7bf6" y="202.34175"/>
      </g>
     </g>
     <g id="line2d_35">
      <g>
       <use style="stroke:#000000;stroke-linecap:butt;stroke-width:0.5;" x="446.188125" xlink:href="#m1a32005dea" y="202.34175"/>
      </g>
     </g>
     <g id="text_11">
      <!-- 1000 -->
      <g transform="translate(23.163125 206.7095625)scale(0.12 -0.12)">
       <use xlink:href="#DejaVuSans-31"/>
       <use x="63.623046875" xlink:href="#DejaVuSans-30"/>
       <use x="127.24609375" xlink:href="#DejaVuSans-30"/>
       <use x="190.869140625" xlink:href="#DejaVuSans-30"/>
      </g>
     </g>
    </g>
    <g id="ytick_4">
     <g id="line2d_36">
      <path clip-path="url(#p8738e62512)" d="
M55.5881 176.742
L446.188 176.742" style="fill:none;stroke:#000000;stroke-dasharray:1.000000,3.000000;stroke-dashoffset:0.0;stroke-linecap:butt;stroke-width:0.5;"/>
     </g>
     <g id="line2d_37">
      <g>
       <use style="stroke:#000000;stroke-linecap:butt;stroke-width:0.5;" x="55.588125" xlink:href="#me8a85f7bf6" y="176.74175"/>
      </g>
     </g>
     <g id="line2d_38">
      <g>
       <use style="stroke:#000000;stroke-linecap:butt;stroke-width:0.5;" x="446.188125" xlink:href="#m1a32005dea" y="176.74175"/>
      </g>
     </g>
     <g id="text_12">
      <!-- 1500 -->
      <g transform="translate(23.163125 181.1095625)scale(0.12 -0.12)">
       <use xlink:href="#DejaVuSans-31"/>
       <use x="63.623046875" xlink:href="#DejaVuSans-35"/>
       <use x="127.24609375" xlink:href="#DejaVuSans-30"/>
       <use x="190.869140625" xlink:href="#DejaVuSans-30"/>
      </g>
     </g>
    </g>
    <g id="ytick_5">
     <g id="line2d_39">
      <path clip-path="url(#p8738e62512)" d="
M55.5881 151.142
L446.188 151.142" style="fill:none;stroke:#000000;stroke-dasharray:1.000000,3.000000;stroke-dashoffset:0.0;stroke-linecap:butt;stroke-width:0.5;"/>
     </g>
     <g id="line2d_40">
      <g>
       <use style="stroke:#000000;stroke-linecap:butt;stroke-width:0.5;" x="55.588125" xlink:href="#me8a85f7bf6" y="151.14175"/>
      </g>
     </g>
     <g id="line2d_41">
      <g>
       <use style="stroke:#000000;stroke-linecap:butt;stroke-width:0.5;" x="446.188125" xlink:href="#m1a32005dea" y="151.14175"/>
      </g>
     </g>
     <g id="text_13">
      <!-- 2000 -->
      <g transform="translate(22.724375 155.5095625)scale(0.12 -0.12)">
       <use xlink:href="#DejaVuSans-32"/>
       <use x="63.623046875" xlink:href="#DejaVuSans-30"/>
       <use x="127.24609375" xlink:href="#DejaVuSans-30"/>
       <use x="190.869140625" xlink:href="#DejaVuSans-30"/>
      </g>
     </g>
    </g>
    <g id="ytick_6">
     <g id="line2d_42">
      <path clip-path="url(#p8738e62512)" d="
M55.5881 125.542
L446.188 125.542" style="fill:none;stroke:#000000;stroke-dasharray:1.000000,3.000000;stroke-dashoffset:0.0;stroke-linecap:butt;stroke-width:0.5;"/>
     </g>
     <g id="line2d_43">
      <g>
       <use style="stroke:#000000;stroke-linecap:butt;stroke-width:0.5;" x="55.588125" xlink:href="#me8a85f7bf6" y="125.54175"/>
      </g>
     </g>
     <g id="line2d_44">
      <g>
       <use style="stroke:#000000;stroke-linecap:butt;stroke-width:0.5;" x="446.188125" xlink:href="#m1a32005dea" y="125.54175"/>
      </g>
     </g>
     <g id="text_14">
      <!-- 2500 -->
      <g transform="translate(22.724375 129.9095625)scale(0.12 -0.12)">
       <use xlink:href="#DejaVuSans-32"/>
       <use x="63.623046875" xlink:href="#DejaVuSans-35"/>
       <use x="127.24609375" xlink:href="#DejaVuSans-30"/>
       <use x="190.869140625" xlink:href="#DejaVuSans-30"/>
      </g>
     </g>
    </g>
    <g id="ytick_7">
     <g id="line2d_45">
      <path clip-path="url(#p8738e62512)" d="
M55.5881 99.9418
L446.188 99.9418" style="fill:none;stroke:#000000;stroke-dasharray:1.000000,3.000000;stroke-dashoffset:0.0;stroke-linecap:butt;stroke-width:0.5;"/>
     </g>
     <g id="line2d_46">
      <g>
       <use style="stroke:#000000;stroke-linecap:butt;stroke-width:0.5;" x="55.588125" xlink:href="#me8a85f7bf6" y="99.94175"/>
      </g>
     </g>
     <g id="line2d_47">
      <g>
       <use style="stroke:#000000;stroke-linecap:butt;stroke-width:0.5;" x="446.188125" xlink:href="#m1a32005dea" y="99.94175"/>
      </g>
     </g>
     <g id="text_15">
      <!-- 3000 -->
      <g transform="translate(22.76 104.3095625)scale(0.12 -0.12)">
       <use xlink:href="#DejaVuSans-33"/>
       <use x="63.623046875" xlink:href="#DejaVuSans-30"/>
       <use x="127.24609375" xlink:href="#DejaVuSans-30"/>
       <use x="190.869140625" xlink:href="#DejaVuSans-30"/>
      </g>
     </g>
    </g>
    <g id="ytick_8">
     <g id="line2d_48">
      <path clip-path="url(#p8738e62512)" d="
M55.5881 74.3418
L446.188 74.3418" style="fill:none;stroke:#000000;stroke-dasharray:1.000000,3.000000;stroke-dashoffset:0.0;stroke-linecap:butt;stroke-width:0.5;"/>
     </g>
     <g id="line2d_49">
      <g>
       <use style="stroke:#000000;stroke-linecap:butt;stroke-width:0.5;" x="55.588125" xlink:href="#me8a85f7bf6" y="74.34175"/>
      </g>
     </g>
     <g id="line2d_50">
      <g>
       <use style="stroke:#000000;stroke-linecap:butt;stroke-width:0.5;" x="446.188125" xlink:href="#m1a32005dea" y="74.34175"/>
      </g>
     </g>
     <g id="text_16">
      <!-- 3500 -->
      <g transform="translate(22.76 78.7095625)scale(0.12 -0.12)">
       <use xlink:href="#DejaVuSans-33"/>
       <use x="63.623046875" xlink:href="#DejaVuSans-35"/>
       <use x="127.24609375" xlink:href="#DejaVuSans-30"/>
       <use x="190.869140625" xlink:href="#DejaVuSans-30"/>
      </g>
     </g>
    </g>
    <g id="ytick_9">
     <g id="line2d_51">
      <path clip-path="url(#p8738e62512)" d="
M55.5881 48.7418
L446.188 48.7418" style="fill:none;stroke:#000000;stroke-dasharray:1.000000,3.000000;stroke-dashoffset:0.0;stroke-linecap:butt;stroke-width:0.5;"/>
     </g>
     <g id="line2d_52">
      <g>
       <use style="stroke:#000000;stroke-linecap:butt;stroke-width:0.5;" x="55.588125" xlink:href="#me8a85f7bf6" y="48.74175"/>
      </g>
     </g>
     <g id="line2d_53">
      <g>
       <use style="stroke:#000000;stroke-linecap:butt;stroke-width:0.5;" x="446.188125" xlink:href="#m1a32005dea" y="48.74175"/>
      </g>
     </g>
     <g id="text_17">
      <!-- 4000 -->
      <g transform="translate(22.431875 53.1095625)scale(0.12 -0.12)">
       <use xlink:href="#DejaVuSans-34"/>
       <use x="63.623046875" xlink:href="#DejaVuSans-30"/>
       <use x="127.24609375" xlink:href="#DejaVuSans-30"/>
       <use x="190.869140625" xlink:href="#DejaVuSans-30"/>
      </g>
     </g>
    </g>
    <g id="ytick_10">
     <g id="line2d_54">
      <path clip-path="url(#p8738e62512)" d="
M55.5881 23.1418
L446.188 23.1418" style="fill:none;stroke:#000000;stroke-dasharray:1.000000,3.000000;stroke-dashoffset:0.0;stroke-linecap:butt;stroke-width:0.5;"/>
     </g>
     <g id="line2d_55">
      <g>
       <use style="stroke:#000000;stroke-linecap:butt;stroke-width:0.5;" x="55.588125" xlink:href="#me8a85f7bf6" y="23.14175"/>
      </g>
     </g>
     <g id="line2d_56">
      <g>
       <use style="stroke:#000000;stroke-linecap:butt;stroke-width:0.5;" x="446.188125" xlink:href="#m1a32005dea" y="23.14175"/>
      </g>
     </g>
     <g id="text_18">
      <!-- 4500 -->
      <g transform="translate(22.431875 27.5095625)scale(0.12 -0.12)">
       <use xlink:href="#DejaVuSans-34"/>
       <use x="63.623046875" xlink:href="#DejaVuSans-35"/>
       <use x="127.24609375" xlink:href="#DejaVuSans-30"/>
       <use x="190.869140625" xlink:href="#DejaVuSans-30"/>
      </g>
     </g>
    </g>
    <g id="text_19">
     <!-- Received Packets/s -->
     <defs>
      <path d="
M19.6719 64.7969
L19.6719 37.4062
L32.0781 37.4062
Q38.9688 37.4062 42.7188 40.9688
Q46.4844 44.5312 46.4844 51.125
Q46.4844 57.6719 42.7188 61.2344
Q38.9688 64.7969 32.0781 64.7969
z

M9.8125 72.9062
L32.0781 72.9062
Q44.3438 72.9062 50.6094 67.3594
Q56.8906 61.8125 56.8906 51.125
Q56.8906 40.3281 50.6094 34.8125
Q44.3438 29.2969 32.0781 29.2969
L19.6719 29.2969
L19.6719 0
L9.8125 0
z
" id="DejaVuSans-50"/>
      <path d="
M25.3906 72.9062
L33.6875 72.9062
L8.29688 -9.28125
L0 -9.28125
z
" id="DejaVuSans-2f"/>
      <path d="
M9.07812 75.9844
L18.1094 75.9844
L18.1094 31.1094
L44.9219 54.6875
L56.3906 54.6875
L27.3906 29.1094
L57.625 0
L45.9062 0
L18.1094 26.7031
L18.1094 0
L9.07812 0
z
" id="DejaVuSans-6b"/>
      <path d="
M18.3125 70.2188
L18.3125 54.6875
L36.8125 54.6875
L36.8125 47.7031
L18.3125 47.7031
L18.3125 18.0156
Q18.3125 11.3281 20.1406 9.42188
Q21.9688 7.51562 27.5938 7.51562
L36.8125 7.51562
L36.8125 0
L27.5938 0
Q17.1875 0 13.2344 3.875
Q9.28125 7.76562 9.28125 18.0156
L9.28125 47.7031
L2.6875 47.7031
L2.6875 54.6875
L9.28125 54.6875
L9.28125 70.2188
z
" id="DejaVuSans-74"/>
      <path d="
M44.3906 34.1875
Q47.5625 33.1094 50.5625 29.5938
Q53.5625 26.0781 56.5938 19.9219
L66.6094 0
L56 0
L46.6875 18.7031
Q43.0625 26.0312 39.6719 28.4219
Q36.2812 30.8125 30.4219 30.8125
L19.6719 30.8125
L19.6719 0
L9.8125 0
L9.8125 72.9062
L32.0781 72.9062
Q44.5781 72.9062 50.7344 67.6719
Q56.8906 62.4531 56.8906 51.9062
Q56.8906 45.0156 53.6875 40.4688
Q50.4844 35.9375 44.3906 34.1875
M19.6719 64.7969
L19.6719 38.9219
L32.0781 38.9219
Q39.2031 38.9219 42.8438 42.2188
Q46.4844 45.5156 46.4844 51.9062
Q46.4844 58.2969 42.8438 61.5469
Q39.2031 64.7969 32.0781 64.7969
z
" id="DejaVuSans-52"/>
      <path d="
M45.4062 46.3906
L45.4062 75.9844
L54.3906 75.9844
L54.3906 0
L45.4062 0
L45.4062 8.20312
Q42.5781 3.32812 38.25 0.953125
Q33.9375 -1.42188 27.875 -1.42188
Q17.9688 -1.42188 11.7344 6.48438
Q5.51562 14.4062 5.51562 27.2969
Q5.51562 40.1875 11.7344 48.0938
Q17.9688 56 27.875 56
Q33.9375 56 38.25 53.625
Q42.5781 51.2656 45.4062 46.3906
M14.7969 27.2969
Q14.7969 17.3906 18.875 11.75
Q22.9531 6.10938 30.0781 6.10938
Q37.2031 6.10938 41.2969 11.75
Q45.4062 17.3906 45.4062 27.2969
Q45.4062 37.2031 41.2969 42.8438
Q37.2031 48.4844 30.0781 48.4844
Q22.9531 48.4844 18.875 42.8438
Q14.7969 37.2031 14.7969 27.2969" id="DejaVuSans-64"/>
      <path d="
M2.98438 54.6875
L12.5 54.6875
L29.5938 8.79688
L46.6875 54.6875
L56.2031 54.6875
L35.6875 0
L23.4844 0
z
" id="DejaVuSans-76"/>
      <path d="
M48.7812 52.5938
L48.7812 44.1875
Q44.9688 46.2969 41.1406 47.3438
Q37.3125 48.3906 33.4062 48.3906
Q24.6562 48.3906 19.8125 42.8438
Q14.9844 37.3125 14.9844 27.2969
Q14.9844 17.2812 19.8125 11.7344
Q24.6562 6.20312 33.4062 6.20312
Q37.3125 6.20312 41.1406 7.25
Q44.9688 8.29688 48.7812 10.4062
L48.7812 2.09375
Q45.0156 0.34375 40.9844 -0.53125
Q36.9688 -1.42188 32.4219 -1.42188
Q20.0625 -1.42188 12.7812 6.34375
Q5.51562 14.1094 5.51562 27.2969
Q5.51562 40.6719 12.8594 48.3281
Q20.2188 56 33.0156 56
Q37.1562 56 41.1094 55.1406
Q45.0625 54.2969 48.7812 52.5938" id="DejaVuSans-63"/>
      <path d="
M34.2812 27.4844
Q23.3906 27.4844 19.1875 25
Q14.9844 22.5156 14.9844 16.5
Q14.9844 11.7188 18.1406 8.90625
Q21.2969 6.10938 26.7031 6.10938
Q34.1875 6.10938 38.7031 11.4062
Q43.2188 16.7031 43.2188 25.4844
L43.2188 27.4844
z

M52.2031 31.2031
L52.2031 0
L43.2188 0
L43.2188 8.29688
Q40.1406 3.32812 35.5469 0.953125
Q30.9531 -1.42188 24.3125 -1.42188
Q15.9219 -1.42188 10.9531 3.29688
Q6 8.01562 6 15.9219
Q6 25.1406 12.1719 29.8281
Q18.3594 34.5156 30.6094 34.5156
L43.2188 34.5156
L43.2188 35.4062
Q43.2188 41.6094 39.1406 45
Q35.0625 48.3906 27.6875 48.3906
Q23 48.3906 18.5469 47.2656
Q14.1094 46.1406 10.0156 43.8906
L10.0156 52.2031
Q14.9375 54.1094 19.5781 55.0469
Q24.2188 56 28.6094 56
Q40.4844 56 46.3438 49.8438
Q52.2031 43.7031 52.2031 31.2031" id="DejaVuSans-61"/>
     </defs>
     <g transform="translate(17.431875 194.0405)rotate(-90.0)scale(0.12 -0.12)">
      <use xlink:href="#DejaVuSans-52"/>
      <use x="64.982421875" xlink:href="#DejaVuSans-65"/>
      <use x="126.505859375" xlink:href="#DejaVuSans-63"/>
      <use x="181.486328125" xlink:href="#DejaVuSans-65"/>
      <use x="243.009765625" xlink:href="#DejaVuSans-69"/>
      <use x="270.79296875" xlink:href="#DejaVuSans-76"/>
      <use x="329.97265625" xlink:href="#DejaVuSans-65"/>
      <use x="391.49609375" xlink:href="#DejaVuSans-64"/>
      <use x="454.97265625" xlink:href="#DejaVuSans-20"/>
      <use x="486.759765625" xlink:href="#DejaVuSans-50"/>
      <use x="542.5625" xlink:href="#DejaVuSans-61"/>
      <use x="603.841796875" xlink:href="#DejaVuSans-63"/>
      <use x="658.822265625" xlink:href="#DejaVuSans-6b"/>
      <use x="713.107421875" xlink:href="#DejaVuSans-65"/>
      <use x="774.630859375" xlink:href="#DejaVuSans-74"/>
      <use x="813.83984375" xlink:href="#DejaVuSans-73"/>
      <use x="865.939453125" xlink:href="#DejaVuSans-2f"/>
      <use x="899.630859375" xlink:href="#DejaVuSans-73"/>
     </g>
    </g>
   </g>
   <g id="patch_3">
    <path d="
M55.5881 23.1418
L446.188 23.1418" style="fill:none;stroke:#000000;"/>
   </g>
   <g id="patch_4">
    <path d="
M446.188 253.542
L446.188 23.1418" style="fill:none;stroke:#000000;"/>
   </g>
   <g id="patch_5">
    <path d="
M55.5881 253.542
L446.188 253.542" style="fill:none;stroke:#000000;"/>
   </g>
   <g id="patch_6">
    <path d="
M55.5881 253.542
L55.5881 23.1418" style="fill:none;stroke:#000000;"/>
   </g>
   <g id="text_20">
    <!-- Packet Receive Rate -->
    <g transform="translate(178.449375 18.14175)scale(0.144 -0.144)">
     <use xlink:href="#DejaVuSans-50"/>
     <use x="55.802734375" xlink:href="#DejaVuSans-61"/>
     <use x="117.08203125" xlink:href="#DejaVuSans-63"/>
     <use x="172.0625" xlink:href="#DejaVuSans-6b"/>
     <use x="226.34765625" xlink:href="#DejaVuSans-65"/>
     <use x="287.87109375" xlink:href="#DejaVuSans-74"/>
     <use x="327.080078125" xlink:href="#DejaVuSans-20"/>
     <use x="358.8671875" xlink:href="#DejaVuSans-52"/>
     <use x="423.849609375" xlink:href="#DejaVuSans-65"/>
     <use x="485.373046875" xlink:href="#DejaVuSans-63"/>
     <use x="540.353515625" xlink:href="#DejaVuSans-65"/>
     <use x="601.876953125" xlink:href="#DejaVuSans-69"/>
     <use x="629.66015625" xlink:href="#DejaVuSans-76"/>
     <use x="688.83984375" xlink:href="#DejaVuSans-65"/>
     <use x="750.36328125" xlink:href="#DejaVuSans-20"/>
     <use x="782.150390625" xlink:href="#DejaVuSans-52"/>
     <use x="849.3828125" xlink:href="#DejaVuSans-61"/>
     <use x="910.662109375" xlink:href="#DejaVuSans-74"/>
     <use x="949.87109375" xlink:href="#DejaVuSans-65"/>
    </g>
   </g>
   <g id="legend_1">
    <g id="patch_7">
     <path d="
M465.718 167.735
L595.354 167.735
L595.354 92.2618
L465.718 92.2618
L465.718 167.735
z
" style="fill:#ffffff;stroke:#000000;"/>
    </g>
    <g id="line2d_57">
     <path d="
M472.718 100.36
L486.718 100.36" style="fill:none;stroke:#0000ff;"/>
    </g>
    <g id="line2d_58"/>
    <g id="text_21">
     <!-- 1 -->
     <g transform="translate(497.718125 103.8601875)scale(0.1 -0.1)">
      <use xlink:href="#DejaVuSans-31"/>
     </g>
    </g>
    <g id="line2d_59">
     <path d="
M472.718 115.038
L486.718 115.038" style="fill:none;stroke:#008000;"/>
    </g>
    <g id="line2d_60"/>
    <g id="text_22">
     <!-- 1,6,11 -->
     <defs>
      <path d="
M11.7188 12.4062
L22.0156 12.4062
L22.0156 4
L14.0156 -11.625
L7.71875 -11.625
L11.7188 4
z
" id="DejaVuSans-2c"/>
     </defs>
     <g transform="translate(497.718125 118.5383125)scale(0.1 -0.1)">
      <use xlink:href="#DejaVuSans-31"/>
      <use x="63.623046875" xlink:href="#DejaVuSans-2c"/>
      <use x="95.41015625" xlink:href="#DejaVuSans-36"/>
      <use x="159.033203125" xlink:href="#DejaVuSans-2c"/>
      <use x="190.8203125" xlink:href="#DejaVuSans-31"/>
      <use x="254.443359375" xlink:href="#DejaVuSans-31"/>
     </g>
    </g>
    <g id="line2d_61">
     <path d="
M472.718 129.716
L486.718 129.716" style="fill:none;stroke:#ff0000;"/>
    </g>
    <g id="line2d_62"/>
    <g id="text_23">
     <!-- 1,6,11,36,40,44,48 -->
     <defs>
      <path d="
M31.7812 34.625
Q24.75 34.625 20.7188 30.8594
Q16.7031 27.0938 16.7031 20.5156
Q16.7031 13.9219 20.7188 10.1562
Q24.75 6.39062 31.7812 6.39062
Q38.8125 6.39062 42.8594 10.1719
Q46.9219 13.9688 46.9219 20.5156
Q46.9219 27.0938 42.8906 30.8594
Q38.875 34.625 31.7812 34.625
M21.9219 38.8125
Q15.5781 40.375 12.0312 44.7188
Q8.5 49.0781 8.5 55.3281
Q8.5 64.0625 14.7188 69.1406
Q20.9531 74.2188 31.7812 74.2188
Q42.6719 74.2188 48.875 69.1406
Q55.0781 64.0625 55.0781 55.3281
Q55.0781 49.0781 51.5312 44.7188
Q48 40.375 41.7031 38.8125
Q48.8281 37.1562 52.7969 32.3125
Q56.7812 27.4844 56.7812 20.5156
Q56.7812 9.90625 50.3125 4.23438
Q43.8438 -1.42188 31.7812 -1.42188
Q19.7344 -1.42188 13.25 4.23438
Q6.78125 9.90625 6.78125 20.5156
Q6.78125 27.4844 10.7812 32.3125
Q14.7969 37.1562 21.9219 38.8125
M18.3125 54.3906
Q18.3125 48.7344 21.8438 45.5625
Q25.3906 42.3906 31.7812 42.3906
Q38.1406 42.3906 41.7188 45.5625
Q45.3125 48.7344 45.3125 54.3906
Q45.3125 60.0625 41.7188 63.2344
Q38.1406 66.4062 31.7812 66.4062
Q25.3906 66.4062 21.8438 63.2344
Q18.3125 60.0625 18.3125 54.3906" id="DejaVuSans-38"/>
     </defs>
     <g transform="translate(497.718125 133.2164375)scale(0.1 -0.1)">
      <use xlink:href="#DejaVuSans-31"/>
      <use x="63.623046875" xlink:href="#DejaVuSans-2c"/>
      <use x="95.41015625" xlink:href="#DejaVuSans-36"/>
      <use x="159.033203125" xlink:href="#DejaVuSans-2c"/>
      <use x="190.8203125" xlink:href="#DejaVuSans-31"/>
      <use x="254.443359375" xlink:href="#DejaVuSans-31"/>
      <use x="318.06640625" xlink:href="#DejaVuSans-2c"/>
      <use x="349.853515625" xlink:href="#DejaVuSans-33"/>
      <use x="413.4765625" xlink:href="#DejaVuSans-36"/>
      <use x="477.099609375" xlink:href="#DejaVuSans-2c"/>
      <use x="508.88671875" xlink:href="#DejaVuSans-34"/>
      <use x="572.509765625" xlink:href="#DejaVuSans-30"/>
      <use x="636.1328125" xlink:href="#DejaVuSans-2c"/>
      <use x="667.919921875" xlink:href="#DejaVuSans-34"/>
      <use x="731.54296875" xlink:href="#DejaVuSans-34"/>
      <use x="795.166015625" xlink:href="#DejaVuSans-2c"/>
      <use x="826.953125" xlink:href="#DejaVuSans-34"/>
      <use x="890.576171875" xlink:href="#DejaVuSans-38"/>
     </g>
    </g>
    <g id="line2d_63">
     <path d="
M472.718 144.395
L486.718 144.395" style="fill:none;stroke:#00bfbf;"/>
    </g>
    <g id="line2d_64"/>
    <g id="text_24">
     <!-- 36 -->
     <g transform="translate(497.718125 147.8945625)scale(0.1 -0.1)">
      <use xlink:href="#DejaVuSans-33"/>
      <use x="63.623046875" xlink:href="#DejaVuSans-36"/>
     </g>
    </g>
    <g id="line2d_65">
     <path d="
M472.718 159.073
L486.718 159.073" style="fill:none;stroke:#bf00bf;"/>
    </g>
    <g id="line2d_66"/>
    <g id="text_25">
     <!-- 36,40,44 -->
     <g transform="translate(497.718125 162.5726875)scale(0.1 -0.1)">
      <use xlink:href="#DejaVuSans-33"/>
      <use x="63.623046875" xlink:href="#DejaVuSans-36"/>
      <use x="127.24609375" xlink:href="#DejaVuSans-2c"/>
      <use x="159.033203125" xlink:href="#DejaVuSans-34"/>
      <use x="222.65625" xlink:href="#DejaVuSans-30"/>
      <use x="286.279296875" xlink:href="#DejaVuSans-2c"/>
      <use x="318.06640625" xlink:href="#DejaVuSans-34"/>
      <use x="381.689453125" xlink:href="#DejaVuSans-34"/>
     </g>
    </g>
   </g>
  </g>
 </g>
 <defs>
  <clipPath id="p8738e62512">
   <rect height="230.4" width="390.6" x="55.588125" y="23.14175"/>
  </clipPath>
 </defs>
</svg>
