<svg xmlns="http://www.w3.org/2000/svg" xmlns:xlink="http://www.w3.org/1999/xlink" width="405.882" height="144" viewBox="0 0 405.882 144"><g transform="translate(0 -7)"><defs><path id="a" d="M0 28.907h403.758v101.238H0z"/></defs><clipPath id="b"><use xlink:href="#a" overflow="visible" width="405.882" height="144"/></clipPath><path clip-path="url(#b)" clip-rule="evenodd" fill="#1d1d1b" fill-rule="evenodd" d="M3.973 29.42h10.285V65.3h33.104v8.293H3.972M89.62 38.013l9.5 17.918H79.77l9.85-17.917zM70.228 73.59l5.162-9.677h28.028l5.294 9.678h11.543l-25.34-44.17h-9.894L59.986 73.59h10.243zM133.055 73.59V29.42h7.03l31.154 26.032c1.04.87 1.994 1.693 2.817 2.43.782.783 1.52 1.56 2.216 2.387-.177-2.474-.264-4.253-.35-5.298-.043-.998-.087-1.816-.087-2.34v-23.21h9.202v44.17h-7.03l-32.5-27.296c-.78-.69-1.435-1.3-2.038-1.863-.565-.562-1.13-1.13-1.648-1.736.17 1.387.26 2.69.346 3.86.042 1.216.083 2.298.083 3.17V73.59h-9.195zM241.572 37.27h-27.73V65.3h27.73v-9.502l10.24 2.13v5.25c0 3.993-.74 6.77-2.255 8.2-1.522 1.473-4.43 2.215-8.642 2.215h-26.42c-4.25 0-7.158-.74-8.63-2.214-1.526-1.432-2.26-4.207-2.26-8.2V39.832c0-3.99.733-6.726 2.26-8.198 1.472-1.473 4.38-2.21 8.63-2.21h26.42c4.212 0 7.12.737 8.642 2.21 1.515 1.473 2.254 4.207 2.254 8.2v4.21l-10.238 1.648v-8.42zM280.488 37.27h33.886V65.3h-33.886V37.27zM270.25 63.178c0 3.992.736 6.768 2.258 8.2 1.475 1.472 4.383 2.214 8.637 2.214h32.54c4.294 0 7.202-.74 8.677-2.214 1.523-1.432 2.26-4.207 2.26-8.2V39.832c0-3.99-.736-6.726-2.26-8.198-1.475-1.473-4.383-2.21-8.676-2.21h-32.54c-4.255 0-7.163.737-8.638 2.21-1.52 1.473-2.258 4.207-2.258 8.2v23.345zM342.89 73.59V29.42h8.28L372 56.147l20.348-26.725h8.243v44.17h-9.504V46.344c0-.566.05-1.215.092-2.043.084-.78.174-1.69.3-2.688-.56 1.127-1.08 2.082-1.474 2.82-.434.734-.824 1.344-1.13 1.82l-16.617 22.043h-2.04l-16.658-22.13c-.61-.866-1.128-1.647-1.565-2.384-.432-.735-.823-1.433-1.086-2.126.09.912.128 1.734.176 2.475.042.778.086 1.476.086 2.212V73.59h-8.283zM10.395 123.962c-1.39 0-2.602-.13-3.6-.432-1-.262-1.91-.652-2.822-1.086v-3.254h.217c.825.824 1.822 1.432 2.907 1.867 1.085.43 2.124.65 3.123.65 1.43 0 2.517-.264 3.253-.87.737-.608 1.086-1.386 1.086-2.384 0-.783-.173-1.393-.566-1.91-.39-.48-.994-.826-1.817-1.088-.613-.17-1.175-.297-1.654-.428-.518-.088-1.127-.264-1.863-.438-.696-.175-1.303-.392-1.824-.698-.522-.258-1-.605-1.432-1.037-.39-.436-.696-.957-.912-1.52-.26-.608-.344-1.257-.344-2.038 0-1.56.607-2.904 1.863-3.947 1.217-1.088 2.778-1.648 4.687-1.648 1.13 0 2.17.13 3.126.342.954.22 1.866.525 2.688.916v3.125h-.17c-.61-.566-1.434-1.045-2.388-1.477-.952-.434-1.995-.61-3.08-.61-1.174 0-2.168.265-2.908.825-.736.564-1.127 1.305-1.127 2.215 0 .824.216 1.52.65 1.996.437.48 1.085.822 1.91 1.086.56.13 1.215.3 2.038.475.783.215 1.432.393 1.952.523 1.35.432 2.344 1.04 2.953 1.863.647.825.957 1.866.957 3.083 0 .78-.178 1.518-.48 2.254-.306.74-.742 1.39-1.304 1.912-.648.56-1.344.995-2.126 1.3-.782.3-1.777.432-2.992.432zM25.665 122.923l-5.335-13.93h2.69l3.994 10.846 3.99-10.847h2.603l-7.894 20.09H23.02M42.11 123.962c-.996 0-1.905-.13-2.776-.39-.822-.26-1.56-.52-2.125-.823v-2.778h.128c.218.176.477.39.738.564.305.215.695.436 1.172.65.39.172.867.348 1.346.52.52.132 1.04.216 1.563.216.39 0 .823-.04 1.256-.13.478-.13.78-.22.997-.39.306-.174.52-.39.655-.652.17-.215.21-.562.21-.998 0-.605-.128-1.04-.473-1.346-.307-.303-.87-.56-1.65-.777-.307-.09-.738-.177-1.26-.263-.473-.088-.95-.217-1.386-.346-1.13-.304-1.955-.827-2.43-1.476-.52-.693-.78-1.518-.78-2.473 0-1.345.518-2.427 1.516-3.255 1-.824 2.3-1.258 3.95-1.258.825 0 1.647.13 2.472.305.827.217 1.52.475 2.082.783v2.645h-.128c-.608-.52-1.344-.908-2.08-1.217-.783-.26-1.566-.43-2.344-.43-.827 0-1.52.17-2.08.518-.527.35-.828.87-.828 1.565 0 .607.173 1.082.478 1.387.35.303.866.566 1.603.738.35.088.78.176 1.216.307.435.08.914.168 1.43.297 1.087.262 1.91.738 2.43 1.348.566.65.828 1.52.828 2.604 0 .607-.132 1.215-.348 1.78-.263.563-.65 1.042-1.128 1.474-.52.434-1.128.736-1.78.998-.652.218-1.476.304-2.474.304zM57.558 123.962c-1.343 0-2.387-.344-3.167-1.125-.736-.785-1.128-1.998-1.128-3.646v-8.114h-1.65v-2.082h1.65v-4.207h2.517v4.207h4.51v2.082h-4.51v6.988c0 .736 0 1.3.042 1.736 0 .39.13.78.306 1.125.13.305.345.52.69.697.35.13.782.217 1.346.217.39 0 .78-.046 1.173-.177.39-.13.648-.22.822-.305h.13v2.215c-.475.13-.954.215-1.432.303-.476.086-.907.086-1.3.086zM66.233 114.68c.087-.608.177-1.175.396-1.65.17-.48.474-.91.822-1.302.388-.344.78-.652 1.258-.867.478-.173.997-.302 1.69-.302.653 0 1.215.13 1.65.303.478.216.826.476 1.126.868.262.305.437.74.61 1.215.126.48.215 1.086.215 1.738h-7.767zm6.38 9.196c.393-.088.825-.172 1.3-.303.35-.088.74-.217 1.173-.39.433-.177.78-.306 1.085-.435v-2.69h-.173c-.174.17-.434.35-.736.52-.303.22-.693.394-1.13.608-.43.172-.908.348-1.43.477-.52.13-1.04.176-1.606.176-1.518 0-2.69-.437-3.557-1.35-.867-.91-1.304-2.214-1.304-3.946H76.43v-1.305c0-1.17-.17-2.167-.432-2.99-.263-.78-.693-1.476-1.215-2.04-.52-.562-1.13-.957-1.823-1.217-.693-.303-1.52-.434-2.43-.434-1.995 0-3.642.737-4.9 2.126-1.262 1.434-1.87 3.342-1.87 5.727 0 2.43.654 4.295 1.954 5.6 1.255 1.3 3.08 1.95 5.422 1.95.613 0 1.087 0 1.478-.087zM98.04 123.66v-8.5c0-.657 0-1.306-.086-1.872-.042-.56-.128-1.04-.306-1.344-.172-.348-.43-.61-.736-.78-.35-.173-.78-.26-1.345-.26-.48 0-1.043.17-1.605.48-.562.3-1.17.775-1.823 1.344.04.17.04.346.04.56 0 .177.048.435.048.696v9.676h-2.52v-8.5c0-.656 0-1.305-.04-1.87-.088-.562-.177-1.04-.347-1.345-.173-.348-.436-.61-.74-.78-.344-.173-.782-.26-1.3-.26-.563 0-1.13.17-1.693.52-.565.347-1.173.735-1.69 1.255v10.98H81.38v-14.666h2.516v1.605c.65-.65 1.26-1.128 1.907-1.474.652-.35 1.344-.566 2.08-.566.87 0 1.654.217 2.303.61.694.39 1.215 1.04 1.562 1.95.74-.824 1.477-1.473 2.168-1.91.694-.434 1.48-.65 2.3-.65.655 0 1.217.13 1.737.305.52.217.953.52 1.344.953.392.432.695.998.91 1.695.22.646.306 1.475.306 2.47v9.677H98.04zM110.624 123.962c-1 0-1.912-.13-2.778-.39-.826-.26-1.562-.52-2.126-.823v-2.778h.13c.215.176.478.39.782.564.258.215.652.436 1.126.65.393.172.866.348 1.345.52.522.132 1.044.216 1.564.216.436 0 .826-.04 1.258-.13.48-.13.782-.22.997-.39.306-.174.523-.39.692-.652.13-.215.178-.562.178-.998 0-.605-.13-1.04-.476-1.346-.31-.303-.87-.56-1.652-.777-.302-.09-.738-.177-1.216-.263-.518-.088-.996-.217-1.426-.346-1.134-.304-1.957-.827-2.432-1.476-.525-.693-.783-1.518-.783-2.473 0-1.345.52-2.427 1.52-3.255.998-.824 2.298-1.258 3.992-1.258.778 0 1.602.13 2.425.305.827.217 1.522.475 2.084.783v2.645h-.128c-.61-.52-1.345-.908-2.087-1.217-.78-.26-1.56-.43-2.342-.43-.825 0-1.514.17-2.035.518-.566.35-.87.87-.87 1.565 0 .607.177 1.082.52 1.387.304.303.823.566 1.56.738.35.088.784.176 1.216.307.434.08.913.168 1.432.297 1.085.262 1.91.738 2.43 1.348.567.65.825 1.52.825 2.604 0 .607-.128 1.215-.346 1.78-.26.563-.654 1.042-1.127 1.474-.52.434-1.085.736-1.78.998-.65.218-1.476.304-2.473.304z"/><path clip-path="url(#b)" clip-rule="evenodd" d="M4.58 85.216c-1.953 0-3.512 1.566-3.512 3.518 0 1.91 1.56 3.47 3.512 3.47h395.447c1.91 0 3.47-1.56 3.47-3.47 0-1.95-1.56-3.518-3.47-3.518H4.58z" fill="#2581c4" fill-rule="evenodd"/></g></svg>