<?xml version="1.0" encoding="UTF-8" standalone="no"?>
<!DOCTYPE svg PUBLIC "-//W3C//DTD SVG 1.0//EN" "http://www.w3.org/TR/2001/PR-SVG-20010719/DTD/svg10.dtd">
<svg width="26cm" height="14cm" viewBox="313 204 511 261" xmlns="http://www.w3.org/2000/svg" xmlns:xlink="http://www.w3.org/1999/xlink">
  <g>
    <ellipse style="fill: #217521" cx="394.75" cy="332.75" rx="6.75" ry="6.75"/>
    <ellipse style="fill: none; fill-opacity:0; stroke-width: 4; stroke: #217521" cx="394.75" cy="332.75" rx="6.75" ry="6.75"/>
    <ellipse style="fill: none; fill-opacity:0; stroke-width: 4; stroke: #217521" cx="394.75" cy="332.75" rx="6.75" ry="6.75"/>
  </g>
  <g>
    <ellipse style="fill: #217521" cx="574.05" cy="415.85" rx="6.75" ry="6.75"/>
    <ellipse style="fill: none; fill-opacity:0; stroke-width: 2; stroke: #217521" cx="574.05" cy="415.85" rx="6.75" ry="6.75"/>
    <ellipse style="fill: none; fill-opacity:0; stroke-width: 2; stroke: #217521" cx="574.05" cy="415.85" rx="6.75" ry="6.75"/>
  </g>
  <g>
    <ellipse style="fill: #217521" cx="646.35" cy="324.95" rx="6.75" ry="6.75"/>
    <ellipse style="fill: none; fill-opacity:0; stroke-width: 2; stroke: #217521" cx="646.35" cy="324.95" rx="6.75" ry="6.75"/>
    <ellipse style="fill: none; fill-opacity:0; stroke-width: 2; stroke: #217521" cx="646.35" cy="324.95" rx="6.75" ry="6.75"/>
  </g>
  <line style="fill: none; fill-opacity:0; stroke-width: 4; stroke: #000000" x1="402.684" y1="336.427" x2="567.024" y2="412.594"/>
  <line style="fill: none; fill-opacity:0; stroke-width: 4; stroke: #000000" x1="641.531" y1="331.009" x2="578.869" y2="409.791"/>
  <g>
    <ellipse style="fill: #9cdaa4" cx="500.05" cy="309.85" rx="6.75" ry="6.75"/>
    <ellipse style="fill: none; fill-opacity:0; stroke-width: 2; stroke: #9cdaa4" cx="500.05" cy="309.85" rx="6.75" ry="6.75"/>
    <ellipse style="fill: none; fill-opacity:0; stroke-width: 2; stroke: #9cdaa4" cx="500.05" cy="309.85" rx="6.75" ry="6.75"/>
  </g>
  <g>
    <ellipse style="fill: #217521" cx="321.05" cy="401.85" rx="6.75" ry="6.75"/>
    <ellipse style="fill: none; fill-opacity:0; stroke-width: 2; stroke: #217521" cx="321.05" cy="401.85" rx="6.75" ry="6.75"/>
    <ellipse style="fill: none; fill-opacity:0; stroke-width: 2; stroke: #217521" cx="321.05" cy="401.85" rx="6.75" ry="6.75"/>
  </g>
  <g>
    <ellipse style="fill: #9cdaa4" cx="711.35" cy="247.95" rx="6.75" ry="6.75"/>
    <ellipse style="fill: none; fill-opacity:0; stroke-width: 2; stroke: #9cdaa4" cx="711.35" cy="247.95" rx="6.75" ry="6.75"/>
    <ellipse style="fill: none; fill-opacity:0; stroke-width: 2; stroke: #9cdaa4" cx="711.35" cy="247.95" rx="6.75" ry="6.75"/>
  </g>
  <g>
    <ellipse style="fill: #9cdaa4" cx="741.65" cy="379.05" rx="6.75" ry="6.75"/>
    <ellipse style="fill: none; fill-opacity:0; stroke-width: 2; stroke: #9cdaa4" cx="741.65" cy="379.05" rx="6.75" ry="6.75"/>
    <ellipse style="fill: none; fill-opacity:0; stroke-width: 2; stroke: #9cdaa4" cx="741.65" cy="379.05" rx="6.75" ry="6.75"/>
  </g>
  <g>
    <ellipse style="fill: #9cdaa4" cx="668.95" cy="457.15" rx="6.75" ry="6.75"/>
    <ellipse style="fill: none; fill-opacity:0; stroke-width: 2; stroke: #9cdaa4" cx="668.95" cy="457.15" rx="6.75" ry="6.75"/>
    <ellipse style="fill: none; fill-opacity:0; stroke-width: 2; stroke: #9cdaa4" cx="668.95" cy="457.15" rx="6.75" ry="6.75"/>
  </g>
  <line style="fill: none; fill-opacity:0; stroke-width: 2; stroke: #cbcbcb" x1="403.298" y1="330.891" x2="492.479" y2="311.496"/>
  <line style="fill: none; fill-opacity:0; stroke-width: 4; stroke: #000000" x1="388.371" y1="338.73" x2="326.709" y2="396.544"/>
  <line style="fill: none; fill-opacity:0; stroke-width: 2; stroke: #cbcbcb" x1="504.476" y1="316.19" x2="569.624" y2="409.51"/>
  <line style="fill: none; fill-opacity:0; stroke-width: 2; stroke: #cbcbcb" x1="581.151" y1="418.94" x2="661.849" y2="454.06"/>
  <line style="fill: none; fill-opacity:0; stroke-width: 2; stroke: #cbcbcb" x1="647.655" y1="332.583" x2="667.645" y2="449.517"/>
  <line style="fill: none; fill-opacity:0; stroke-width: 2; stroke: #cbcbcb" x1="653.074" y1="328.767" x2="734.926" y2="375.233"/>
  <line style="fill: none; fill-opacity:0; stroke-width: 2; stroke: #cbcbcb" x1="651.353" y1="319.024" x2="706.347" y2="253.876"/>
  <g>
    <ellipse style="fill: #9cdaa4" cx="568.05" cy="293.85" rx="6.75" ry="6.75"/>
    <ellipse style="fill: none; fill-opacity:0; stroke-width: 2; stroke: #9cdaa4" cx="568.05" cy="293.85" rx="6.75" ry="6.75"/>
    <ellipse style="fill: none; fill-opacity:0; stroke-width: 2; stroke: #9cdaa4" cx="568.05" cy="293.85" rx="6.75" ry="6.75"/>
  </g>
  <line style="fill: none; fill-opacity:0; stroke-width: 2; stroke: #cbcbcb" x1="573.672" y1="408.165" x2="568.428" y2="301.535"/>
  <line style="fill: none; fill-opacity:0; stroke-width: 2; stroke: #cbcbcb" x1="639.153" y1="322.091" x2="575.247" y2="296.709"/>
  <g>
    <ellipse style="fill: #9cdaa4" cx="430.05" cy="438.85" rx="6.75" ry="6.75"/>
    <ellipse style="fill: none; fill-opacity:0; stroke-width: 2; stroke: #9cdaa4" cx="430.05" cy="438.85" rx="6.75" ry="6.75"/>
    <ellipse style="fill: none; fill-opacity:0; stroke-width: 2; stroke: #9cdaa4" cx="430.05" cy="438.85" rx="6.75" ry="6.75"/>
  </g>
  <line style="fill: none; fill-opacity:0; stroke-width: 2; stroke: #cbcbcb" x1="437.679" y1="437.631" x2="566.421" y2="417.069"/>
  <line style="fill: none; fill-opacity:0; stroke-width: 2; stroke: #cbcbcb" x1="427.62" y1="431.545" x2="397.512" y2="341.052"/>
  <line style="fill: none; fill-opacity:0; stroke-width: 2; stroke: #cbcbcb" x1="422.758" y1="436.375" x2="328.342" y2="404.325"/>
  <g>
    <ellipse style="fill: #9cdaa4" cx="609.05" cy="211.85" rx="6.75" ry="6.75"/>
    <ellipse style="fill: none; fill-opacity:0; stroke-width: 2; stroke: #9cdaa4" cx="609.05" cy="211.85" rx="6.75" ry="6.75"/>
    <ellipse style="fill: none; fill-opacity:0; stroke-width: 2; stroke: #9cdaa4" cx="609.05" cy="211.85" rx="6.75" ry="6.75"/>
  </g>
  <g>
    <ellipse style="fill: #9cdaa4" cx="816.05" cy="325.85" rx="6.75" ry="6.75"/>
    <ellipse style="fill: none; fill-opacity:0; stroke-width: 2; stroke: #9cdaa4" cx="816.05" cy="325.85" rx="6.75" ry="6.75"/>
    <ellipse style="fill: none; fill-opacity:0; stroke-width: 2; stroke: #9cdaa4" cx="816.05" cy="325.85" rx="6.75" ry="6.75"/>
  </g>
  <text font-size="16.9331" style="fill: #656565;text-anchor:start;font-family:sans-serif;font-style:normal;font-weight:normal" x="697" y="349">
    <tspan x="697" y="349">1</tspan>
  </text>
  <text font-size="16.9331" style="fill: #656565;text-anchor:start;font-family:sans-serif;font-style:normal;font-weight:normal" x="527.3" y="339.85">
    <tspan x="527.3" y="339.85">2</tspan>
  </text>
  <text font-size="16.9331" style="fill: #656565;text-anchor:start;font-family:sans-serif;font-style:normal;font-weight:normal" x="372.6" y="413.95">
    <tspan x="372.6" y="413.95">3</tspan>
  </text>
  <text font-size="16.9331" style="fill: #656565;text-anchor:start;font-family:sans-serif;font-style:normal;font-weight:normal" x="671.9" y="278.05">
    <tspan x="671.9" y="278.05">4</tspan>
  </text>
  <text font-size="16.9331" style="fill: #656565;text-anchor:start;font-family:sans-serif;font-style:normal;font-weight:normal" x="602.2" y="303.15">
    <tspan x="602.2" y="303.15">5</tspan>
  </text>
  <text font-size="16.9331" style="fill: #656565;text-anchor:start;font-family:sans-serif;font-style:normal;font-weight:normal" x="663.5" y="397.25">
    <tspan x="663.5" y="397.25">6</tspan>
  </text>
  <text font-size="16.9331" style="fill: #656565;text-anchor:start;font-family:sans-serif;font-style:normal;font-weight:normal" x="614.8" y="457.35">
    <tspan x="614.8" y="457.35">7</tspan>
  </text>
  <text font-size="16.9331" style="fill: #656565;text-anchor:start;font-family:sans-serif;font-style:normal;font-weight:normal" x="576.1" y="361.45">
    <tspan x="576.1" y="361.45">8</tspan>
  </text>
  <text font-size="16.9331" style="fill: #656565;text-anchor:start;font-family:sans-serif;font-style:normal;font-weight:normal" x="431.4" y="317.55">
    <tspan x="431.4" y="317.55">9</tspan>
  </text>
  <text font-size="16.9331" style="fill: #656565;text-anchor:start;font-family:sans-serif;font-style:normal;font-weight:normal" x="487.7" y="447.65">
    <tspan x="487.7" y="447.65">10</tspan>
  </text>
  <text font-size="16.9331" style="fill: #656565;text-anchor:start;font-family:sans-serif;font-style:normal;font-weight:normal" x="418.6" y="393.6">
    <tspan x="418.6" y="393.6">11</tspan>
  </text>
</svg>
