<?xml version="1.0" encoding="UTF-8" standalone="no"?>
<!DOCTYPE svg PUBLIC "-//W3C//DTD SVG 1.1//EN"
 "http://www.w3.org/Graphics/SVG/1.1/DTD/svg11.dtd">
<!-- Generated by graphviz version 2.26.3 (20100126.1600)
 -->
<!-- Title: G Pages: 1 -->
<svg width="1323pt" height="1207pt"
 viewBox="0.00 0.00 1322.70 1207.40" xmlns="http://www.w3.org/2000/svg" xmlns:xlink="http://www.w3.org/1999/xlink">
<g id="graph1" class="graph" transform="scale(1 1) rotate(0) translate(4 1203.4)">
<title>G</title>
<polygon fill="white" stroke="white" points="-4,5 -4,-1203.4 1319.7,-1203.4 1319.7,5 -4,5"/>
<!-- 0 -->
<g id="node1" class="node"><title>0</title>
<ellipse fill="none" stroke="black" cx="1174.1" cy="-724.716" rx="27" ry="18"/>
<text text-anchor="middle" x="1174.1" y="-720.616" font-family="Times Roman,serif" font-size="14.00">0</text>
</g>
<!-- 5 -->
<g id="node3" class="node"><title>5</title>
<ellipse fill="none" stroke="black" cx="637.628" cy="-1180.4" rx="27" ry="18"/>
<text text-anchor="middle" x="637.628" y="-1176.3" font-family="Times Roman,serif" font-size="14.00">5</text>
</g>
<!-- 0&#45;&#45;5 -->
<g id="edge2" class="edge"><title>0&#45;&#45;5</title>
<path fill="none" stroke="black" stroke-width="2.25" stroke-dasharray="1,5" d="M1157.16,-739.106C1076.74,-807.411 734.149,-1098.41 654.307,-1166.23"/>
</g>
<!-- 6 -->
<g id="node5" class="node"><title>6</title>
<ellipse fill="none" stroke="black" cx="761.725" cy="-1160.05" rx="27" ry="18"/>
<text text-anchor="middle" x="761.725" y="-1155.95" font-family="Times Roman,serif" font-size="14.00">6</text>
</g>
<!-- 0&#45;&#45;6 -->
<g id="edge4" class="edge"><title>0&#45;&#45;6</title>
<path fill="none" stroke="black" stroke-width="0.642857" stroke-dasharray="1,5" d="M1159.66,-739.954C1095.94,-807.224 840.171,-1077.24 776.256,-1144.71"/>
</g>
<!-- 7 -->
<g id="node7" class="node"><title>7</title>
<ellipse fill="none" stroke="black" cx="1187.7" cy="-599.699" rx="27" ry="18"/>
<text text-anchor="middle" x="1187.7" y="-595.599" font-family="Times Roman,serif" font-size="14.00">7</text>
</g>
<!-- 0&#45;&#45;7 -->
<g id="edge6" class="edge"><title>0&#45;&#45;7</title>
<path fill="none" stroke="black" stroke-width="0.9" stroke-dasharray="1,5" d="M1176.08,-706.537C1178.65,-682.835 1183.14,-641.613 1185.72,-617.9"/>
</g>
<!-- 9 -->
<g id="node9" class="node"><title>9</title>
<ellipse fill="none" stroke="black" cx="982.632" cy="-1042.94" rx="27" ry="18"/>
<text text-anchor="middle" x="982.632" y="-1038.84" font-family="Times Roman,serif" font-size="14.00">9</text>
</g>
<!-- 0&#45;&#45;9 -->
<g id="edge8" class="edge"><title>0&#45;&#45;9</title>
<path fill="none" stroke="black" stroke-width="1.28571" stroke-dasharray="1,5" d="M1163.8,-741.825C1130.48,-797.207 1025.81,-971.179 992.745,-1026.13"/>
</g>
<!-- 12 -->
<g id="node11" class="node"><title>12</title>
<ellipse fill="none" stroke="black" cx="878.547" cy="-1113.51" rx="27" ry="18"/>
<text text-anchor="middle" x="878.547" y="-1109.41" font-family="Times Roman,serif" font-size="14.00">12</text>
</g>
<!-- 0&#45;&#45;12 -->
<g id="edge10" class="edge"><title>0&#45;&#45;12</title>
<path fill="none" stroke="black" stroke-width="4.5" stroke-dasharray="1,5" d="M1161.78,-740.927C1113.71,-804.161 939.085,-1033.87 890.923,-1097.23"/>
</g>
<!-- 14 -->
<g id="node13" class="node"><title>14</title>
<ellipse fill="none" stroke="black" cx="1133.95" cy="-355.512" rx="27" ry="18"/>
<text text-anchor="middle" x="1133.95" y="-351.412" font-family="Times Roman,serif" font-size="14.00">14</text>
</g>
<!-- 0&#45;&#45;14 -->
<g id="edge12" class="edge"><title>0&#45;&#45;14</title>
<path fill="none" stroke="black" stroke-width="1.5" stroke-dasharray="1,5" d="M1172.14,-706.658C1165.32,-643.971 1142.72,-436.169 1135.91,-373.535"/>
</g>
<!-- 23 -->
<g id="node15" class="node"><title>23</title>
<ellipse fill="none" stroke="black" cx="1174.1" cy="-474.683" rx="27" ry="18"/>
<text text-anchor="middle" x="1174.1" y="-470.583" font-family="Times Roman,serif" font-size="14.00">23</text>
</g>
<!-- 0&#45;&#45;23 -->
<g id="edge14" class="edge"><title>0&#45;&#45;23</title>
<path fill="none" stroke="black" stroke-width="0.75" stroke-dasharray="1,5" d="M1174.1,-706.33C1174.1,-659.979 1174.1,-538.774 1174.1,-492.758"/>
</g>
<!-- 24 -->
<g id="node17" class="node"><title>24</title>
<ellipse fill="none" stroke="black" cx="878.547" cy="-85.8909" rx="27" ry="18"/>
<text text-anchor="middle" x="878.547" y="-81.7909" font-family="Times Roman,serif" font-size="14.00">24</text>
</g>
<!-- 0&#45;&#45;24 -->
<g id="edge16" class="edge"><title>0&#45;&#45;24</title>
<path fill="none" stroke="black" stroke-dasharray="1,5" d="M1166.04,-707.297C1123.85,-616.111 928.768,-194.443 886.598,-103.294"/>
</g>
<!-- 25 -->
<g id="node19" class="node"><title>25</title>
<ellipse fill="none" stroke="black" cx="982.632" cy="-156.462" rx="27" ry="18"/>
<text text-anchor="middle" x="982.632" y="-152.362" font-family="Times Roman,serif" font-size="14.00">25</text>
</g>
<!-- 0&#45;&#45;25 -->
<g id="edge18" class="edge"><title>0&#45;&#45;25</title>
<path fill="none" stroke="black" stroke-width="0.9" stroke-dasharray="1,5" d="M1168.16,-707.086C1139.66,-622.505 1017.15,-258.913 988.597,-174.167"/>
</g>
<!-- 27 -->
<g id="node21" class="node"><title>27</title>
<ellipse fill="none" stroke="black" cx="1133.95" cy="-843.887" rx="27" ry="18"/>
<text text-anchor="middle" x="1133.95" y="-839.787" font-family="Times Roman,serif" font-size="14.00">27</text>
</g>
<!-- 0&#45;&#45;27 -->
<g id="edge20" class="edge"><title>0&#45;&#45;27</title>
<path fill="none" stroke="black" stroke-width="1.125" stroke-dasharray="1,5" d="M1168.17,-742.3C1160.58,-764.831 1147.5,-803.665 1139.89,-826.23"/>
</g>
<!-- 5&#45;&#45;6 -->
<g id="edge62" class="edge"><title>5&#45;&#45;6</title>
<path fill="none" stroke="black" stroke-width="0.5625" stroke-dasharray="1,5" d="M663.945,-1176.08C685.005,-1172.63 714.395,-1167.81 735.445,-1164.36"/>
</g>
<!-- 29 -->
<g id="node29" class="node"><title>29</title>
<ellipse fill="none" stroke="black" cx="279.784" cy="-1081.04" rx="27" ry="18"/>
<text text-anchor="middle" x="279.784" y="-1076.94" font-family="Times Roman,serif" font-size="14.00">29</text>
</g>
<!-- 5&#45;&#45;29 -->
<g id="edge70" class="edge"><title>5&#45;&#45;29</title>
<path fill="none" stroke="black" stroke-width="0.5" stroke-dasharray="1,5" d="M612.465,-1173.41C546.762,-1155.17 370.591,-1106.26 304.919,-1088.02"/>
</g>
<!-- 8 -->
<g id="node38" class="node"><title>8</title>
<ellipse fill="none" stroke="black" cx="512.058" cy="-25.8082" rx="27" ry="18"/>
<text text-anchor="middle" x="512.058" y="-21.7082" font-family="Times Roman,serif" font-size="14.00">8</text>
</g>
<!-- 5&#45;&#45;8 -->
<g id="edge64" class="edge"><title>5&#45;&#45;8</title>
<path fill="none" stroke="black" stroke-width="3" stroke-dasharray="1,5" d="M635.655,-1162.26C620.959,-1027.14 528.707,-178.89 514.026,-43.9041"/>
</g>
<!-- 18 -->
<g id="node48" class="node"><title>18</title>
<ellipse fill="none" stroke="black" cx="390.888" cy="-59.4508" rx="27" ry="18"/>
<text text-anchor="middle" x="390.888" y="-55.3508" font-family="Times Roman,serif" font-size="14.00">18</text>
</g>
<!-- 5&#45;&#45;18 -->
<g id="edge66" class="edge"><title>5&#45;&#45;18</title>
<path fill="none" stroke="black" stroke-width="1.8" stroke-dasharray="1,5" d="M633.652,-1162.34C604.488,-1029.84 423.92,-209.515 394.84,-77.4023"/>
</g>
<!-- 21 -->
<g id="node53" class="node"><title>21</title>
<ellipse fill="none" stroke="black" cx="512.058" cy="-1173.59" rx="27" ry="18"/>
<text text-anchor="middle" x="512.058" y="-1169.49" font-family="Times Roman,serif" font-size="14.00">21</text>
</g>
<!-- 5&#45;&#45;21 -->
<g id="edge68" class="edge"><title>5&#45;&#45;21</title>
<path fill="none" stroke="black" stroke-width="0.5" stroke-dasharray="1,5" d="M610.69,-1178.94C589.647,-1177.8 560.526,-1176.22 539.385,-1175.07"/>
</g>
<!-- 6&#45;&#45;9 -->
<g id="edge72" class="edge"><title>6&#45;&#45;9</title>
<path fill="none" stroke="black" stroke-width="9" stroke-dasharray="1,5" d="M782.906,-1148.82C825.023,-1126.5 918.861,-1076.75 961.19,-1054.3"/>
</g>
<!-- 6&#45;&#45;12 -->
<g id="edge74" class="edge"><title>6&#45;&#45;12</title>
<path fill="none" stroke="black" stroke-width="0.9" stroke-dasharray="1,5" d="M785.085,-1150.75C805.46,-1142.63 834.864,-1130.91 855.228,-1122.8"/>
</g>
<!-- 7&#45;&#45;14 -->
<g id="edge80" class="edge"><title>7&#45;&#45;14</title>
<path fill="none" stroke="black" stroke-width="0.6" stroke-dasharray="1,5" d="M1183.74,-581.744C1173.8,-536.586 1147.85,-418.68 1137.9,-373.494"/>
</g>
<!-- 7&#45;&#45;23 -->
<g id="edge88" class="edge"><title>7&#45;&#45;23</title>
<path fill="none" stroke="black" stroke-width="0.75" stroke-dasharray="1,5" d="M1185.72,-581.521C1183.14,-557.819 1178.66,-516.596 1176.08,-492.883"/>
</g>
<!-- 7&#45;&#45;25 -->
<g id="edge90" class="edge"><title>7&#45;&#45;25</title>
<path fill="none" stroke="black" stroke-width="1.5" stroke-dasharray="1,5" d="M1179.66,-582.324C1146.85,-511.42 1023.32,-244.4 990.615,-173.718"/>
</g>
<!-- 7&#45;&#45;27 -->
<g id="edge92" class="edge"><title>7&#45;&#45;27</title>
<path fill="none" stroke="black" stroke-dasharray="1,5" d="M1183.74,-617.655C1173.8,-662.813 1147.85,-780.719 1137.9,-825.905"/>
</g>
<!-- 7&#45;&#45;29 -->
<g id="edge94" class="edge"><title>7&#45;&#45;29</title>
<path fill="none" stroke="black" stroke-width="9" stroke-dasharray="1,5" d="M1166.15,-611.123C1042.49,-676.683 424.25,-1004.45 301.13,-1069.73"/>
</g>
<!-- 13 -->
<g id="node35" class="node"><title>13</title>
<ellipse fill="none" stroke="black" cx="1069.11" cy="-951.64" rx="27" ry="18"/>
<text text-anchor="middle" x="1069.11" y="-947.54" font-family="Times Roman,serif" font-size="14.00">13</text>
</g>
<!-- 7&#45;&#45;13 -->
<g id="edge78" class="edge"><title>7&#45;&#45;13</title>
<path fill="none" stroke="black" stroke-width="1.28571" stroke-dasharray="1,5" d="M1181.65,-617.636C1161.31,-678.008 1095.47,-873.421 1075.14,-933.739"/>
</g>
<!-- 17 -->
<g id="node46" class="node"><title>17</title>
<ellipse fill="none" stroke="black" cx="28" cy="-536.822" rx="27" ry="18"/>
<text text-anchor="middle" x="28" y="-532.722" font-family="Times Roman,serif" font-size="14.00">17</text>
</g>
<!-- 7&#45;&#45;17 -->
<g id="edge82" class="edge"><title>7&#45;&#45;17</title>
<path fill="none" stroke="black" stroke-width="0.75" stroke-dasharray="1,5" d="M1160.74,-598.238C1004.04,-589.742 212.05,-546.801 55.0664,-538.29"/>
</g>
<!-- 7&#45;&#45;21 -->
<g id="edge86" class="edge"><title>7&#45;&#45;21</title>
<path fill="none" stroke="black" stroke-width="9" stroke-dasharray="1,5" d="M1170.99,-613.885C1077.72,-693.112 622.108,-1080.11 528.781,-1159.39"/>
</g>
<!-- 11 -->
<g id="node63" class="node"><title>11</title>
<ellipse fill="none" stroke="black" cx="1286.7" cy="-599.699" rx="27" ry="18"/>
<text text-anchor="middle" x="1286.7" y="-595.599" font-family="Times Roman,serif" font-size="14.00">11</text>
</g>
<!-- 7&#45;&#45;11 -->
<g id="edge76" class="edge"><title>7&#45;&#45;11</title>
<path fill="none" stroke="black" stroke-width="0.9" stroke-dasharray="1,5" d="M1214.75,-599.699C1228.72,-599.699 1245.71,-599.699 1259.68,-599.699"/>
</g>
<!-- 19 -->
<g id="node68" class="node"><title>19</title>
<ellipse fill="none" stroke="black" cx="637.628" cy="-19" rx="27" ry="18"/>
<text text-anchor="middle" x="637.628" y="-14.9" font-family="Times Roman,serif" font-size="14.00">19</text>
</g>
<!-- 7&#45;&#45;19 -->
<g id="edge84" class="edge"><title>7&#45;&#45;19</title>
<path fill="none" stroke="black" stroke-width="1.5" stroke-dasharray="1,5" d="M1173.27,-584.465C1095.8,-502.686 729.882,-116.392 652.161,-34.3425"/>
</g>
<!-- 9&#45;&#45;12 -->
<g id="edge104" class="edge"><title>9&#45;&#45;12</title>
<path fill="none" stroke="black" stroke-width="1.8" stroke-dasharray="1,5" d="M963.541,-1055.88C944.761,-1068.61 916.255,-1087.94 897.517,-1100.65"/>
</g>
<!-- 9&#45;&#45;13 -->
<g id="edge106" class="edge"><title>9&#45;&#45;13</title>
<path fill="none" stroke="black" stroke-width="0.529412" stroke-dasharray="1,5" d="M997.302,-1027.45C1013.3,-1010.56 1038.75,-983.698 1054.66,-966.898"/>
</g>
<!-- 15 -->
<g id="node43" class="node"><title>15</title>
<ellipse fill="none" stroke="black" cx="183.939" cy="-199.766" rx="27" ry="18"/>
<text text-anchor="middle" x="183.939" y="-195.666" font-family="Times Roman,serif" font-size="14.00">15</text>
</g>
<!-- 9&#45;&#45;15 -->
<g id="edge108" class="edge"><title>9&#45;&#45;15</title>
<path fill="none" stroke="black" stroke-width="0.642857" stroke-dasharray="1,5" d="M968.087,-1027.58C869.246,-923.236 297.141,-319.272 198.44,-215.075"/>
</g>
<!-- 12&#45;&#45;24 -->
<g id="edge114" class="edge"><title>12&#45;&#45;24</title>
<path fill="none" stroke="black" stroke-width="0.473684" stroke-dasharray="1,5" d="M878.547,-1095.24C878.547,-969.213 878.547,-230.258 878.547,-104.18"/>
</g>
<!-- 14&#45;&#45;23 -->
<g id="edge126" class="edge"><title>14&#45;&#45;23</title>
<path fill="none" stroke="black" stroke-width="1.125" stroke-dasharray="1,5" d="M1139.87,-373.096C1147.46,-395.627 1160.55,-434.461 1168.15,-457.027"/>
</g>
<!-- 14&#45;&#45;18 -->
<g id="edge120" class="edge"><title>14&#45;&#45;18</title>
<path fill="none" stroke="black" stroke-width="1.125" stroke-dasharray="1,5" d="M1110.48,-346.162C999.223,-301.833 525.629,-113.136 414.36,-68.8026"/>
</g>
<!-- 28 -->
<g id="node78" class="node"><title>28</title>
<ellipse fill="none" stroke="black" cx="761.725" cy="-39.3447" rx="27" ry="18"/>
<text text-anchor="middle" x="761.725" y="-35.2447" font-family="Times Roman,serif" font-size="14.00">28</text>
</g>
<!-- 14&#45;&#45;28 -->
<g id="edge128" class="edge"><title>14&#45;&#45;28</title>
<path fill="none" stroke="black" stroke-width="1.8" stroke-dasharray="1,5" d="M1116.98,-341.105C1054.98,-288.435 840.956,-106.644 778.785,-53.8359"/>
</g>
<!-- 20 -->
<g id="node84" class="node"><title>20</title>
<ellipse fill="none" stroke="black" cx="107.836" cy="-299.878" rx="27" ry="18"/>
<text text-anchor="middle" x="107.836" y="-295.778" font-family="Times Roman,serif" font-size="14.00">20</text>
</g>
<!-- 14&#45;&#45;20 -->
<g id="edge122" class="edge"><title>14&#45;&#45;20</title>
<path fill="none" stroke="black" stroke-width="0.9" stroke-dasharray="1,5" d="M1107.03,-354.052C962.52,-346.217 279.929,-309.208 134.947,-301.348"/>
</g>
<!-- 22 -->
<g id="node92" class="node"><title>22</title>
<ellipse fill="none" stroke="black" cx="1069.11" cy="-247.759" rx="27" ry="18"/>
<text text-anchor="middle" x="1069.11" y="-243.659" font-family="Times Roman,serif" font-size="14.00">22</text>
</g>
<!-- 14&#45;&#45;22 -->
<g id="edge124" class="edge"><title>14&#45;&#45;22</title>
<path fill="none" stroke="black" stroke-width="0.9" stroke-dasharray="1,5" d="M1123.82,-338.675C1111.64,-318.432 1091.32,-284.667 1079.17,-264.477"/>
</g>
<!-- 24&#45;&#45;25 -->
<g id="edge160" class="edge"><title>24&#45;&#45;25</title>
<path fill="none" stroke="black" stroke-width="0.692308" stroke-dasharray="1,5" d="M897.638,-98.8348C916.418,-111.568 944.924,-130.896 963.662,-143.6"/>
</g>
<!-- 24&#45;&#45;28 -->
<g id="edge162" class="edge"><title>24&#45;&#45;28</title>
<path fill="none" stroke="black" stroke-width="3" stroke-dasharray="1,5" d="M855.187,-76.5835C834.812,-68.4653 805.407,-56.7494 785.044,-48.636"/>
</g>
<!-- 25&#45;&#45;29 -->
<g id="edge164" class="edge"><title>25&#45;&#45;29</title>
<path fill="none" stroke="black" stroke-width="0.529412" stroke-dasharray="1,5" d="M970.134,-172.903C883.849,-286.41 377.444,-952.573 292.018,-1064.95"/>
</g>
<!-- 1 -->
<g id="node22" class="node"><title>1</title>
<ellipse fill="none" stroke="black" cx="183.939" cy="-999.632" rx="27" ry="18"/>
<text text-anchor="middle" x="183.939" y="-995.532" font-family="Times Roman,serif" font-size="14.00">1</text>
</g>
<!-- 1&#45;&#45;9 -->
<g id="edge24" class="edge"><title>1&#45;&#45;9</title>
<path fill="none" stroke="black" stroke-width="0.642857" stroke-dasharray="1,5" d="M210.97,-1001.1C333.184,-1007.72 833.408,-1034.85 955.607,-1041.47"/>
</g>
<!-- 16 -->
<g id="node24" class="node"><title>16</title>
<ellipse fill="none" stroke="black" cx="28" cy="-662.576" rx="27" ry="18"/>
<text text-anchor="middle" x="28" y="-658.476" font-family="Times Roman,serif" font-size="14.00">16</text>
</g>
<!-- 1&#45;&#45;16 -->
<g id="edge22" class="edge"><title>1&#45;&#45;16</title>
<path fill="none" stroke="black" stroke-dasharray="1,5" d="M175.774,-981.985C148.828,-923.741 62.9122,-738.038 36.0836,-680.048"/>
</g>
<!-- 26 -->
<g id="node27" class="node"><title>26</title>
<ellipse fill="none" stroke="black" cx="107.836" cy="-899.521" rx="27" ry="18"/>
<text text-anchor="middle" x="107.836" y="-895.421" font-family="Times Roman,serif" font-size="14.00">26</text>
</g>
<!-- 1&#45;&#45;26 -->
<g id="edge26" class="edge"><title>1&#45;&#45;26</title>
<path fill="none" stroke="black" stroke-width="2.25" stroke-dasharray="1,5" d="M171.712,-983.548C157.594,-964.976 134.497,-934.592 120.286,-915.898"/>
</g>
<!-- 1&#45;&#45;29 -->
<g id="edge28" class="edge"><title>1&#45;&#45;29</title>
<path fill="none" stroke="black" stroke-width="0.642857" stroke-dasharray="1,5" d="M200.634,-1013.81C218.118,-1028.66 245.425,-1051.86 262.958,-1066.75"/>
</g>
<!-- 26&#45;&#45;29 -->
<g id="edge166" class="edge"><title>26&#45;&#45;29</title>
<path fill="none" stroke="black" stroke-width="3" stroke-dasharray="1,5" d="M122.496,-914.997C154.982,-949.292 232.709,-1031.35 265.16,-1065.61"/>
</g>
<!-- 2 -->
<g id="node30" class="node"><title>2</title>
<ellipse fill="none" stroke="black" cx="55.0333" cy="-785.39" rx="27" ry="18"/>
<text text-anchor="middle" x="55.0333" y="-781.29" font-family="Times Roman,serif" font-size="14.00">2</text>
</g>
<!-- 2&#45;&#45;27 -->
<g id="edge34" class="edge"><title>2&#45;&#45;27</title>
<path fill="none" stroke="black" stroke-dasharray="1,5" d="M81.9724,-786.85C231.369,-794.95 956.807,-834.283 1106.78,-842.414"/>
</g>
<!-- 2&#45;&#45;16 -->
<g id="edge30" class="edge"><title>2&#45;&#45;16</title>
<path fill="none" stroke="black" stroke-width="4.5" stroke-dasharray="1,5" d="M51.1024,-767.532C45.9771,-744.247 37.0633,-703.751 31.9356,-680.456"/>
</g>
<!-- 2&#45;&#45;26 -->
<g id="edge32" class="edge"><title>2&#45;&#45;26</title>
<path fill="none" stroke="black" stroke-dasharray="1,5" d="M63.0529,-802.724C72.9774,-824.175 89.7816,-860.497 99.7409,-882.024"/>
</g>
<!-- 2&#45;&#45;13 -->
<g id="edge36" class="edge"><title>2&#45;&#45;13</title>
<path fill="none" stroke="black" stroke-width="1.125" stroke-dasharray="1,5" d="M81.3774,-789.709C223.778,-813.054 900.341,-923.971 1042.76,-947.319"/>
</g>
<!-- 13&#45;&#45;27 -->
<g id="edge118" class="edge"><title>13&#45;&#45;27</title>
<path fill="none" stroke="black" stroke-dasharray="1,5" d="M1079.24,-934.803C1091.42,-914.56 1111.74,-880.795 1123.89,-860.605"/>
</g>
<!-- 13&#45;&#45;26 -->
<g id="edge116" class="edge"><title>13&#45;&#45;26</title>
<path fill="none" stroke="black" stroke-width="0.5" stroke-dasharray="1,5" d="M1042.15,-950.178C903.651,-942.669 273.449,-908.5 134.848,-900.985"/>
</g>
<!-- 3 -->
<g id="node36" class="node"><title>3</title>
<ellipse fill="none" stroke="black" cx="279.784" cy="-118.355" rx="27" ry="18"/>
<text text-anchor="middle" x="279.784" y="-114.255" font-family="Times Roman,serif" font-size="14.00">3</text>
</g>
<!-- 3&#45;&#45;12 -->
<g id="edge40" class="edge"><title>3&#45;&#45;12</title>
<path fill="none" stroke="black" stroke-width="0.5625" stroke-dasharray="1,5" d="M289.925,-135.21C361.999,-254.998 795.935,-976.205 868.314,-1096.5"/>
</g>
<!-- 3&#45;&#45;14 -->
<g id="edge44" class="edge"><title>3&#45;&#45;14</title>
<path fill="none" stroke="black" stroke-width="0.529412" stroke-dasharray="1,5" d="M304.884,-125.324C429.852,-160.021 983.872,-313.844 1108.84,-348.542"/>
</g>
<!-- 3&#45;&#45;16 -->
<g id="edge48" class="edge"><title>3&#45;&#45;16</title>
<path fill="none" stroke="black" stroke-width="0.6" stroke-dasharray="1,5" d="M271.691,-135.846C233.771,-217.808 73.9174,-563.327 36.062,-645.15"/>
</g>
<!-- 3&#45;&#45;13 -->
<g id="edge42" class="edge"><title>3&#45;&#45;13</title>
<path fill="none" stroke="black" stroke-width="4.5" stroke-dasharray="1,5" d="M294.5,-133.891C393.058,-237.938 956.259,-832.501 1054.5,-936.211"/>
</g>
<!-- 3&#45;&#45;8 -->
<g id="edge38" class="edge"><title>3&#45;&#45;8</title>
<path fill="none" stroke="black" stroke-width="2.25" stroke-dasharray="1,5" d="M303.334,-108.972C347.968,-91.1878 444.377,-52.7749 488.791,-35.0786"/>
</g>
<!-- 3&#45;&#45;15 -->
<g id="edge46" class="edge"><title>3&#45;&#45;15</title>
<path fill="none" stroke="black" stroke-width="0.9" stroke-dasharray="1,5" d="M263.089,-132.536C245.604,-147.387 218.297,-170.582 200.764,-185.475"/>
</g>
<!-- 3&#45;&#45;17 -->
<g id="edge50" class="edge"><title>3&#45;&#45;17</title>
<path fill="none" stroke="black" stroke-width="0.473684" stroke-dasharray="1,5" d="M269.601,-135.278C229.029,-202.71 79.1081,-451.88 38.3088,-519.689"/>
</g>
<!-- 3&#45;&#45;18 -->
<g id="edge52" class="edge"><title>3&#45;&#45;18</title>
<path fill="none" stroke="black" stroke-width="9" stroke-dasharray="1,5" d="M300.943,-107.137C320.587,-96.7224 349.69,-81.2929 369.429,-70.8278"/>
</g>
<!-- 8&#45;&#45;24 -->
<g id="edge100" class="edge"><title>8&#45;&#45;24</title>
<path fill="none" stroke="black" stroke-width="0.818182" stroke-dasharray="1,5" d="M538.415,-30.1292C605.871,-41.188 784.204,-70.4241 851.936,-81.5283"/>
</g>
<!-- 8&#45;&#45;21 -->
<g id="edge98" class="edge"><title>8&#45;&#45;21</title>
<path fill="none" stroke="black" stroke-width="0.529412" stroke-dasharray="1,5" d="M512.058,-43.8371C512.058,-178.024 512.058,-1019.62 512.058,-1155.17"/>
</g>
<!-- 8&#45;&#45;19 -->
<g id="edge96" class="edge"><title>8&#45;&#45;19</title>
<path fill="none" stroke="black" stroke-width="0.6" stroke-dasharray="1,5" d="M538.996,-24.3476C560.039,-23.2068 589.16,-21.6278 610.301,-20.4816"/>
</g>
<!-- 8&#45;&#45;28 -->
<g id="edge102" class="edge"><title>8&#45;&#45;28</title>
<path fill="none" stroke="black" stroke-width="0.473684" stroke-dasharray="1,5" d="M539.252,-27.2826C587.278,-29.8864 686.563,-35.2695 734.564,-37.8721"/>
</g>
<!-- 15&#45;&#45;29 -->
<g id="edge132" class="edge"><title>15&#45;&#45;29</title>
<path fill="none" stroke="black" stroke-width="1.5" stroke-dasharray="1,5" d="M185.897,-217.769C198.268,-331.521 265.467,-949.402 277.829,-1063.07"/>
</g>
<!-- 15&#45;&#45;20 -->
<g id="edge130" class="edge"><title>15&#45;&#45;20</title>
<path fill="none" stroke="black" stroke-width="1.5" stroke-dasharray="1,5" d="M171.712,-215.851C157.594,-234.422 134.497,-264.806 120.286,-283.5"/>
</g>
<!-- 17&#45;&#45;26 -->
<g id="edge138" class="edge"><title>17&#45;&#45;26</title>
<path fill="none" stroke="black" stroke-width="0.5625" stroke-dasharray="1,5" d="M31.9591,-554.809C45.5512,-616.559 90.2244,-819.511 103.853,-881.426"/>
</g>
<!-- 17&#45;&#45;18 -->
<g id="edge134" class="edge"><title>17&#45;&#45;18</title>
<path fill="none" stroke="black" stroke-width="2.25" stroke-dasharray="1,5" d="M40.2819,-520.666C95.7478,-447.702 322.582,-149.307 378.423,-75.8485"/>
</g>
<!-- 17&#45;&#45;20 -->
<g id="edge136" class="edge"><title>17&#45;&#45;20</title>
<path fill="none" stroke="black" stroke-width="0.75" stroke-dasharray="1,5" d="M34.0007,-519.013C48.8323,-474.994 87.0843,-361.466 101.875,-317.571"/>
</g>
<!-- 18&#45;&#45;23 -->
<g id="edge142" class="edge"><title>18&#45;&#45;23</title>
<path fill="none" stroke="black" stroke-width="0.818182" stroke-dasharray="1,5" d="M412.244,-70.7726C524.04,-130.043 1041.01,-404.125 1152.76,-463.371"/>
</g>
<!-- 18&#45;&#45;25 -->
<g id="edge144" class="edge"><title>18&#45;&#45;25</title>
<path fill="none" stroke="black" stroke-width="9" stroke-dasharray="1,5" d="M417.464,-63.8077C515.74,-79.9193 857.975,-136.026 956.13,-152.117"/>
</g>
<!-- 18&#45;&#45;26 -->
<g id="edge146" class="edge"><title>18&#45;&#45;26</title>
<path fill="none" stroke="black" stroke-width="0.5625" stroke-dasharray="1,5" d="M384.846,-77.3855C347.71,-187.6 150.795,-772.022 113.822,-881.754"/>
</g>
<!-- 18&#45;&#45;28 -->
<g id="edge148" class="edge"><title>18&#45;&#45;28</title>
<path fill="none" stroke="black" stroke-width="0.5625" stroke-dasharray="1,5" d="M417.857,-57.9887C486.275,-54.2791 666.027,-44.5332 734.607,-40.8149"/>
</g>
<!-- 18&#45;&#45;20 -->
<g id="edge140" class="edge"><title>18&#45;&#45;20</title>
<path fill="none" stroke="black" stroke-width="0.75" stroke-dasharray="1,5" d="M374.03,-73.7706C323.686,-116.533 174.834,-242.969 124.606,-285.633"/>
</g>
<!-- 4 -->
<g id="node49" class="node"><title>4</title>
<ellipse fill="none" stroke="black" cx="390.888" cy="-1139.95" rx="27" ry="18"/>
<text text-anchor="middle" x="390.888" y="-1135.85" font-family="Times Roman,serif" font-size="14.00">4</text>
</g>
<!-- 4&#45;&#45;24 -->
<g id="edge54" class="edge"><title>4&#45;&#45;24</title>
<path fill="none" stroke="black" stroke-width="0.6" stroke-dasharray="1,5" d="M398.946,-1122.53C457.15,-996.727 812.639,-228.349 870.57,-103.134"/>
</g>
<!-- 4&#45;&#45;26 -->
<g id="edge56" class="edge"><title>4&#45;&#45;26</title>
<path fill="none" stroke="black" stroke-width="0.642857" stroke-dasharray="1,5" d="M374.03,-1125.63C323.686,-1082.87 174.834,-956.43 124.606,-913.765"/>
</g>
<!-- 4&#45;&#45;29 -->
<g id="edge60" class="edge"><title>4&#45;&#45;29</title>
<path fill="none" stroke="black" stroke-width="0.5" stroke-dasharray="1,5" d="M369.729,-1128.73C350.085,-1118.32 320.982,-1102.89 301.243,-1092.42"/>
</g>
<!-- 4&#45;&#45;21 -->
<g id="edge58" class="edge"><title>4&#45;&#45;21</title>
<path fill="none" stroke="black" stroke-width="2.25" stroke-dasharray="1,5" d="M415.995,-1146.92C436.791,-1152.69 466.197,-1160.86 486.984,-1166.63"/>
</g>
<!-- 21&#45;&#45;29 -->
<g id="edge156" class="edge"><title>21&#45;&#45;29</title>
<path fill="none" stroke="black" stroke-dasharray="1,5" d="M488.508,-1164.21C443.874,-1146.42 347.465,-1108.01 303.051,-1090.31"/>
</g>
<!-- 19&#45;&#45;24 -->
<g id="edge150" class="edge"><title>19&#45;&#45;24</title>
<path fill="none" stroke="black" stroke-width="0.5625" stroke-dasharray="1,5" d="M662.955,-26.0321C709.346,-38.9126 807.421,-66.1429 853.559,-78.9531"/>
</g>
<!-- 19&#45;&#45;29 -->
<g id="edge154" class="edge"><title>19&#45;&#45;29</title>
<path fill="none" stroke="black" stroke-width="0.75" stroke-dasharray="1,5" d="M631.567,-36.9881C588.447,-164.964 328.603,-936.154 285.761,-1063.3"/>
</g>
<!-- 19&#45;&#45;28 -->
<g id="edge152" class="edge"><title>19&#45;&#45;28</title>
<path fill="none" stroke="black" stroke-width="1.125" stroke-dasharray="1,5" d="M663.945,-23.3146C685.005,-26.7671 714.395,-31.5854 735.445,-35.0363"/>
</g>
<!-- 10 -->
<g id="node82" class="node"><title>10</title>
<ellipse fill="none" stroke="black" cx="55.0333" cy="-414.009" rx="27" ry="18"/>
<text text-anchor="middle" x="55.0333" y="-409.909" font-family="Times Roman,serif" font-size="14.00">10</text>
</g>
<!-- 10&#45;&#45;29 -->
<g id="edge112" class="edge"><title>10&#45;&#45;29</title>
<path fill="none" stroke="black" stroke-width="0.642857" stroke-dasharray="1,5" d="M61.0449,-431.85C92.947,-526.533 242.167,-969.402 273.858,-1063.46"/>
</g>
<!-- 10&#45;&#45;20 -->
<g id="edge110" class="edge"><title>10&#45;&#45;20</title>
<path fill="none" stroke="black" stroke-width="1.125" stroke-dasharray="1,5" d="M63.0529,-396.675C72.9774,-375.223 89.7816,-338.902 99.7409,-317.375"/>
</g>
<!-- 22&#45;&#45;25 -->
<g id="edge158" class="edge"><title>22&#45;&#45;25</title>
<path fill="none" stroke="black" stroke-width="0.642857" stroke-dasharray="1,5" d="M1054.44,-232.272C1038.44,-215.382 1013,-188.52 997.086,-171.721"/>
</g>
</g>
</svg>
