<?xml version="1.0" encoding="UTF-8" standalone="no"?>
<!DOCTYPE svg PUBLIC "-//W3C//DTD SVG 1.1//EN"
 "http://www.w3.org/Graphics/SVG/1.1/DTD/svg11.dtd">
<!-- Generated by graphviz version 2.26.3 (20100126.1600)
 -->
<!-- Title: G Pages: 1 -->
<svg width="1323pt" height="1207pt"
 viewBox="0.00 0.00 1322.70 1207.40" xmlns="http://www.w3.org/2000/svg" xmlns:xlink="http://www.w3.org/1999/xlink">
<g id="graph1" class="graph" transform="scale(1 1) rotate(0) translate(4 1203.4)">
<title>G</title>
<polygon fill="white" stroke="white" points="-4,5 -4,-1203.4 1319.7,-1203.4 1319.7,5 -4,5"/>
<!-- 0 -->
<g id="node1" class="node"><title>0</title>
<ellipse fill="none" stroke="black" cx="183.939" cy="-199.766" rx="27" ry="18"/>
<text text-anchor="middle" x="183.939" y="-195.666" font-family="Times Roman,serif" font-size="14.00">0</text>
</g>
<!-- 5 -->
<g id="node3" class="node"><title>5</title>
<ellipse fill="none" stroke="black" cx="982.632" cy="-156.462" rx="27" ry="18"/>
<text text-anchor="middle" x="982.632" y="-152.362" font-family="Times Roman,serif" font-size="14.00">5</text>
</g>
<!-- 0&#45;&#45;5 -->
<g id="edge2" class="edge"><title>0&#45;&#45;5</title>
<path fill="none" stroke="orange" stroke-width="2.25" d="M210.97,-198.301C333.184,-191.674 833.408,-164.553 955.607,-157.928"/>
</g>
<!-- 9 -->
<g id="node5" class="node"><title>9</title>
<ellipse fill="none" stroke="black" cx="28" cy="-536.822" rx="27" ry="18"/>
<text text-anchor="middle" x="28" y="-532.722" font-family="Times Roman,serif" font-size="14.00">9</text>
</g>
<!-- 0&#45;&#45;9 -->
<g id="edge4" class="edge"><title>0&#45;&#45;9</title>
<path fill="none" stroke="green" stroke-width="1.28571" d="M175.774,-217.413C148.828,-275.658 62.9122,-461.361 36.0836,-519.35"/>
</g>
<!-- 12 -->
<g id="node7" class="node"><title>12</title>
<ellipse fill="none" stroke="black" cx="107.836" cy="-299.878" rx="27" ry="18"/>
<text text-anchor="middle" x="107.836" y="-295.778" font-family="Times Roman,serif" font-size="14.00">12</text>
</g>
<!-- 0&#45;&#45;12 -->
<g id="edge6" class="edge"><title>0&#45;&#45;12</title>
<path fill="none" stroke="green" stroke-width="4.5" d="M171.712,-215.851C157.594,-234.422 134.497,-264.806 120.286,-283.5"/>
</g>
<!-- 14 -->
<g id="node9" class="node"><title>14</title>
<ellipse fill="none" stroke="black" cx="761.725" cy="-1160.05" rx="27" ry="18"/>
<text text-anchor="middle" x="761.725" y="-1155.95" font-family="Times Roman,serif" font-size="14.00">14</text>
</g>
<!-- 0&#45;&#45;14 -->
<g id="edge8" class="edge"><title>0&#45;&#45;14</title>
<path fill="none" stroke="orange" stroke-width="1.5" d="M194.213,-216.841C265.145,-334.732 681.442,-1026.62 751.667,-1143.34"/>
</g>
<!-- 24 -->
<g id="node11" class="node"><title>24</title>
<ellipse fill="none" stroke="black" cx="1069.11" cy="-247.759" rx="27" ry="18"/>
<text text-anchor="middle" x="1069.11" y="-243.659" font-family="Times Roman,serif" font-size="14.00">24</text>
</g>
<!-- 0&#45;&#45;24 -->
<g id="edge10" class="edge"><title>0&#45;&#45;24</title>
<path fill="none" stroke="orange" d="M210.914,-201.229C341.877,-208.329 910.452,-239.157 1041.91,-246.284"/>
</g>
<!-- 27 -->
<g id="node13" class="node"><title>27</title>
<ellipse fill="none" stroke="black" cx="279.784" cy="-118.355" rx="27" ry="18"/>
<text text-anchor="middle" x="279.784" y="-114.255" font-family="Times Roman,serif" font-size="14.00">27</text>
</g>
<!-- 0&#45;&#45;27 -->
<g id="edge12" class="edge"><title>0&#45;&#45;27</title>
<path fill="none" stroke="green" stroke-width="1.125" d="M200.634,-185.585C218.118,-170.734 245.425,-147.539 262.958,-132.646"/>
</g>
<!-- 8 -->
<g id="node27" class="node"><title>8</title>
<ellipse fill="none" stroke="black" cx="878.547" cy="-85.8909" rx="27" ry="18"/>
<text text-anchor="middle" x="878.547" y="-81.7909" font-family="Times Roman,serif" font-size="14.00">8</text>
</g>
<!-- 5&#45;&#45;8 -->
<g id="edge38" class="edge"><title>5&#45;&#45;8</title>
<path fill="none" stroke="blue" stroke-width="3" d="M963.541,-143.518C944.761,-130.785 916.255,-111.458 897.517,-98.7527"/>
</g>
<!-- 18 -->
<g id="node29" class="node"><title>18</title>
<ellipse fill="none" stroke="black" cx="1133.95" cy="-843.887" rx="27" ry="18"/>
<text text-anchor="middle" x="1133.95" y="-839.787" font-family="Times Roman,serif" font-size="14.00">18</text>
</g>
<!-- 5&#45;&#45;18 -->
<g id="edge40" class="edge"><title>5&#45;&#45;18</title>
<path fill="none" stroke="blue" stroke-width="1.8" d="M986.601,-174.496C1007.93,-271.412 1108.79,-729.597 1130.02,-826.042"/>
</g>
<!-- 9&#45;&#45;12 -->
<g id="edge60" class="edge"><title>9&#45;&#45;12</title>
<path fill="none" stroke="red" stroke-width="1.8" d="M34.0007,-519.013C48.8323,-474.994 87.0843,-361.466 101.875,-317.571"/>
</g>
<!-- 14&#45;&#45;18 -->
<g id="edge66" class="edge"><title>14&#45;&#45;18</title>
<path fill="none" stroke="red" stroke-width="1.125" d="M778.686,-1145.65C840.694,-1092.98 1054.71,-911.186 1116.89,-858.378"/>
</g>
<!-- 20 -->
<g id="node58" class="node"><title>20</title>
<ellipse fill="none" stroke="black" cx="637.628" cy="-1180.4" rx="27" ry="18"/>
<text text-anchor="middle" x="637.628" y="-1176.3" font-family="Times Roman,serif" font-size="14.00">20</text>
</g>
<!-- 14&#45;&#45;20 -->
<g id="edge68" class="edge"><title>14&#45;&#45;20</title>
<path fill="none" stroke="orange" stroke-width="0.9" d="M735.407,-1164.37C714.347,-1167.82 684.957,-1172.64 663.908,-1176.09"/>
</g>
<!-- 22 -->
<g id="node63" class="node"><title>22</title>
<ellipse fill="none" stroke="black" cx="878.547" cy="-1113.51" rx="27" ry="18"/>
<text text-anchor="middle" x="878.547" y="-1109.41" font-family="Times Roman,serif" font-size="14.00">22</text>
</g>
<!-- 14&#45;&#45;22 -->
<g id="edge70" class="edge"><title>14&#45;&#45;22</title>
<path fill="none" stroke="red" stroke-width="0.9" d="M785.085,-1150.75C805.46,-1142.63 834.864,-1130.91 855.228,-1122.8"/>
</g>
<!-- 23 -->
<g id="node65" class="node"><title>23</title>
<ellipse fill="none" stroke="black" cx="1069.11" cy="-951.64" rx="27" ry="18"/>
<text text-anchor="middle" x="1069.11" y="-947.54" font-family="Times Roman,serif" font-size="14.00">23</text>
</g>
<!-- 14&#45;&#45;23 -->
<g id="edge72" class="edge"><title>14&#45;&#45;23</title>
<path fill="none" stroke="orange" stroke-width="1.125" d="M780.953,-1147.02C836.156,-1109.59 994.698,-1002.09 1049.89,-964.672"/>
</g>
<!-- 28 -->
<g id="node67" class="node"><title>28</title>
<ellipse fill="none" stroke="black" cx="1133.95" cy="-355.512" rx="27" ry="18"/>
<text text-anchor="middle" x="1133.95" y="-351.412" font-family="Times Roman,serif" font-size="14.00">28</text>
</g>
<!-- 14&#45;&#45;28 -->
<g id="edge74" class="edge"><title>14&#45;&#45;28</title>
<path fill="none" stroke="red" stroke-width="1.8" d="M769.845,-1142.5C819.069,-1036.11 1077.01,-478.574 1125.93,-372.833"/>
</g>
<!-- 24&#45;&#45;28 -->
<g id="edge92" class="edge"><title>24&#45;&#45;28</title>
<path fill="none" stroke="blue" stroke-width="3" d="M1079.24,-264.595C1091.42,-284.838 1111.74,-318.603 1123.89,-338.794"/>
</g>
<!-- 1 -->
<g id="node14" class="node"><title>1</title>
<ellipse fill="none" stroke="black" cx="28" cy="-662.576" rx="27" ry="18"/>
<text text-anchor="middle" x="28" y="-658.476" font-family="Times Roman,serif" font-size="14.00">1</text>
</g>
<!-- 1&#45;&#45;9 -->
<g id="edge16" class="edge"><title>1&#45;&#45;9</title>
<path fill="none" stroke="red" stroke-width="0.642857" d="M28,-644.559C28,-620.789 28,-579.172 28,-555.215"/>
</g>
<!-- 16 -->
<g id="node16" class="node"><title>16</title>
<ellipse fill="none" stroke="black" cx="390.888" cy="-59.4508" rx="27" ry="18"/>
<text text-anchor="middle" x="390.888" y="-55.3508" font-family="Times Roman,serif" font-size="14.00">16</text>
</g>
<!-- 1&#45;&#45;16 -->
<g id="edge14" class="edge"><title>1&#45;&#45;16</title>
<path fill="none" stroke="green" d="M38.0845,-645.816C90.1687,-559.251 328.304,-163.467 380.681,-76.4162"/>
</g>
<!-- 26 -->
<g id="node19" class="node"><title>26</title>
<ellipse fill="none" stroke="black" cx="183.939" cy="-999.632" rx="27" ry="18"/>
<text text-anchor="middle" x="183.939" y="-995.532" font-family="Times Roman,serif" font-size="14.00">26</text>
</g>
<!-- 1&#45;&#45;26 -->
<g id="edge18" class="edge"><title>1&#45;&#45;26</title>
<path fill="none" stroke="green" stroke-width="2.25" d="M36.1644,-680.223C63.1113,-738.468 149.027,-924.171 175.855,-982.16"/>
</g>
<!-- 29 -->
<g id="node54" class="node"><title>29</title>
<ellipse fill="none" stroke="black" cx="279.784" cy="-1081.04" rx="27" ry="18"/>
<text text-anchor="middle" x="279.784" y="-1076.94" font-family="Times Roman,serif" font-size="14.00">29</text>
</g>
<!-- 26&#45;&#45;29 -->
<g id="edge94" class="edge"><title>26&#45;&#45;29</title>
<path fill="none" stroke="black" stroke-width="3" stroke-dasharray="1,5" d="M200.634,-1013.81C218.118,-1028.66 245.425,-1051.86 262.958,-1066.75"/>
</g>
<!-- 2 -->
<g id="node20" class="node"><title>2</title>
<ellipse fill="none" stroke="black" cx="512.058" cy="-25.8082" rx="27" ry="18"/>
<text text-anchor="middle" x="512.058" y="-21.7082" font-family="Times Roman,serif" font-size="14.00">2</text>
</g>
<!-- 2&#45;&#45;27 -->
<g id="edge22" class="edge"><title>2&#45;&#45;27</title>
<path fill="none" stroke="blue" d="M488.508,-35.1913C443.874,-52.9753 347.465,-91.3882 303.051,-109.085"/>
</g>
<!-- 2&#45;&#45;16 -->
<g id="edge20" class="edge"><title>2&#45;&#45;16</title>
<path fill="none" stroke="orange" stroke-width="4.5" d="M486.952,-32.779C466.156,-38.5529 436.75,-46.7175 415.963,-52.489"/>
</g>
<!-- 13 -->
<g id="node24" class="node"><title>13</title>
<ellipse fill="none" stroke="black" cx="637.628" cy="-19" rx="27" ry="18"/>
<text text-anchor="middle" x="637.628" y="-14.9" font-family="Times Roman,serif" font-size="14.00">13</text>
</g>
<!-- 2&#45;&#45;13 -->
<g id="edge24" class="edge"><title>2&#45;&#45;13</title>
<path fill="none" stroke="blue" stroke-width="1.125" d="M538.996,-24.3476C560.039,-23.2068 589.16,-21.6278 610.301,-20.4816"/>
</g>
<!-- 3 -->
<g id="node25" class="node"><title>3</title>
<ellipse fill="none" stroke="black" cx="761.725" cy="-39.3447" rx="27" ry="18"/>
<text text-anchor="middle" x="761.725" y="-35.2447" font-family="Times Roman,serif" font-size="14.00">3</text>
</g>
<!-- 3&#45;&#45;13 -->
<g id="edge30" class="edge"><title>3&#45;&#45;13</title>
<path fill="none" stroke="green" stroke-width="4.5" d="M735.407,-35.0301C714.347,-31.5775 684.957,-26.7593 663.908,-23.3084"/>
</g>
<!-- 3&#45;&#45;8 -->
<g id="edge26" class="edge"><title>3&#45;&#45;8</title>
<path fill="none" stroke="green" stroke-width="2.25" d="M785.085,-48.6521C805.46,-56.7703 834.864,-68.4862 855.228,-76.5996"/>
</g>
<!-- 3&#45;&#45;18 -->
<g id="edge28" class="edge"><title>3&#45;&#45;18</title>
<path fill="none" stroke="blue" stroke-width="9" d="M769.845,-56.8969C819.069,-163.293 1077.01,-720.825 1125.93,-826.566"/>
</g>
<!-- 15 -->
<g id="node32" class="node"><title>15</title>
<ellipse fill="none" stroke="black" cx="512.058" cy="-1173.59" rx="27" ry="18"/>
<text text-anchor="middle" x="512.058" y="-1169.49" font-family="Times Roman,serif" font-size="14.00">15</text>
</g>
<!-- 3&#45;&#45;15 -->
<g id="edge32" class="edge"><title>3&#45;&#45;15</title>
<path fill="none" stroke="blue" stroke-width="0.9" d="M757.803,-57.161C728.615,-189.765 545.55,-1021.44 516.065,-1155.39"/>
</g>
<!-- 25 -->
<g id="node52" class="node"><title>25</title>
<ellipse fill="none" stroke="black" cx="982.632" cy="-1042.94" rx="27" ry="18"/>
<text text-anchor="middle" x="982.632" y="-1038.84" font-family="Times Roman,serif" font-size="14.00">25</text>
</g>
<!-- 18&#45;&#45;25 -->
<g id="edge84" class="edge"><title>18&#45;&#45;25</title>
<path fill="none" stroke="red" stroke-width="9" d="M1121.56,-860.176C1093.12,-897.594 1023.38,-989.335 994.973,-1026.7"/>
</g>
<!-- 18&#45;&#45;23 -->
<g id="edge82" class="edge"><title>18&#45;&#45;23</title>
<path fill="none" stroke="blue" stroke-width="0.818182" d="M1123.82,-860.723C1111.64,-880.966 1091.32,-914.731 1079.17,-934.921"/>
</g>
<!-- 15&#45;&#45;29 -->
<g id="edge78" class="edge"><title>15&#45;&#45;29</title>
<path fill="none" stroke="black" stroke-width="1.5" stroke-dasharray="1,5" d="M488.508,-1164.21C443.874,-1146.42 347.465,-1108.01 303.051,-1090.31"/>
</g>
<!-- 15&#45;&#45;20 -->
<g id="edge76" class="edge"><title>15&#45;&#45;20</title>
<path fill="none" stroke="orange" stroke-width="1.5" d="M538.996,-1175.05C560.039,-1176.19 589.16,-1177.77 610.301,-1178.92"/>
</g>
<!-- 4 -->
<g id="node33" class="node"><title>4</title>
<ellipse fill="none" stroke="black" cx="107.836" cy="-899.521" rx="27" ry="18"/>
<text text-anchor="middle" x="107.836" y="-895.421" font-family="Times Roman,serif" font-size="14.00">4</text>
</g>
<!-- 4&#45;&#45;26 -->
<g id="edge34" class="edge"><title>4&#45;&#45;26</title>
<path fill="none" stroke="blue" stroke-width="0.642857" d="M120.063,-915.605C134.181,-934.177 157.278,-964.561 171.489,-983.255"/>
</g>
<!-- 21 -->
<g id="node36" class="node"><title>21</title>
<ellipse fill="none" stroke="black" cx="55.0333" cy="-785.39" rx="27" ry="18"/>
<text text-anchor="middle" x="55.0333" y="-781.29" font-family="Times Roman,serif" font-size="14.00">21</text>
</g>
<!-- 4&#45;&#45;21 -->
<g id="edge36" class="edge"><title>4&#45;&#45;21</title>
<path fill="none" stroke="black" stroke-width="2.25" stroke-dasharray="1,5" d="M99.8164,-882.187C89.8918,-860.735 73.0876,-824.413 63.1284,-802.887"/>
</g>
<!-- 21&#45;&#45;29 -->
<g id="edge88" class="edge"><title>21&#45;&#45;29</title>
<path fill="none" stroke="black" stroke-dasharray="1,5" d="M67.437,-801.707C106.731,-853.397 228.177,-1013.16 267.418,-1064.78"/>
</g>
<!-- 6 -->
<g id="node39" class="node"><title>6</title>
<ellipse fill="none" stroke="black" cx="55.0333" cy="-414.009" rx="27" ry="18"/>
<text text-anchor="middle" x="55.0333" y="-409.909" font-family="Times Roman,serif" font-size="14.00">6</text>
</g>
<!-- 6&#45;&#45;9 -->
<g id="edge42" class="edge"><title>6&#45;&#45;9</title>
<path fill="none" stroke="green" stroke-width="9" d="M51.1024,-431.867C45.9771,-455.152 37.0633,-495.647 31.9356,-518.943"/>
</g>
<!-- 6&#45;&#45;12 -->
<g id="edge44" class="edge"><title>6&#45;&#45;12</title>
<path fill="none" stroke="red" stroke-width="0.9" d="M63.0529,-396.675C72.9774,-375.223 89.7816,-338.902 99.7409,-317.375"/>
</g>
<!-- 7 -->
<g id="node42" class="node"><title>7</title>
<ellipse fill="none" stroke="black" cx="1187.7" cy="-599.699" rx="27" ry="18"/>
<text text-anchor="middle" x="1187.7" y="-595.599" font-family="Times Roman,serif" font-size="14.00">7</text>
</g>
<!-- 7&#45;&#45;13 -->
<g id="edge48" class="edge"><title>7&#45;&#45;13</title>
<path fill="none" stroke="black" stroke-width="1.28571" stroke-dasharray="1,5" d="M1173.27,-584.465C1095.8,-502.686 729.882,-116.392 652.161,-34.3425"/>
</g>
<!-- 7&#45;&#45;21 -->
<g id="edge54" class="edge"><title>7&#45;&#45;21</title>
<path fill="none" stroke="black" stroke-width="9" stroke-dasharray="1,5" d="M1161.36,-604.016C1008.41,-629.092 235.632,-755.782 81.7189,-781.015"/>
</g>
<!-- 11 -->
<g id="node44" class="node"><title>11</title>
<ellipse fill="none" stroke="black" cx="1286.7" cy="-599.699" rx="27" ry="18"/>
<text text-anchor="middle" x="1286.7" y="-595.599" font-family="Times Roman,serif" font-size="14.00">11</text>
</g>
<!-- 7&#45;&#45;11 -->
<g id="edge46" class="edge"><title>7&#45;&#45;11</title>
<path fill="none" stroke="black" stroke-width="0.9" stroke-dasharray="1,5" d="M1214.75,-599.699C1228.72,-599.699 1245.71,-599.699 1259.68,-599.699"/>
</g>
<!-- 17 -->
<g id="node47" class="node"><title>17</title>
<ellipse fill="none" stroke="black" cx="1174.1" cy="-724.716" rx="27" ry="18"/>
<text text-anchor="middle" x="1174.1" y="-720.616" font-family="Times Roman,serif" font-size="14.00">17</text>
</g>
<!-- 7&#45;&#45;17 -->
<g id="edge50" class="edge"><title>7&#45;&#45;17</title>
<path fill="none" stroke="orange" stroke-width="0.75" d="M1185.72,-617.878C1183.14,-641.58 1178.66,-682.802 1176.08,-706.515"/>
</g>
<!-- 19 -->
<g id="node49" class="node"><title>19</title>
<ellipse fill="none" stroke="black" cx="1174.1" cy="-474.683" rx="27" ry="18"/>
<text text-anchor="middle" x="1174.1" y="-470.583" font-family="Times Roman,serif" font-size="14.00">19</text>
</g>
<!-- 7&#45;&#45;19 -->
<g id="edge52" class="edge"><title>7&#45;&#45;19</title>
<path fill="none" stroke="black" stroke-width="1.5" stroke-dasharray="1,5" d="M1185.72,-581.521C1183.14,-557.819 1178.66,-516.596 1176.08,-492.883"/>
</g>
<!-- 7&#45;&#45;25 -->
<g id="edge56" class="edge"><title>7&#45;&#45;25</title>
<path fill="none" stroke="red" stroke-width="1.5" d="M1179.66,-617.075C1146.85,-687.979 1023.32,-954.999 990.615,-1025.68"/>
</g>
<!-- 7&#45;&#45;29 -->
<g id="edge58" class="edge"><title>7&#45;&#45;29</title>
<path fill="none" stroke="black" stroke-width="9" stroke-dasharray="1,5" d="M1166.15,-611.123C1042.49,-676.683 424.25,-1004.45 301.13,-1069.73"/>
</g>
<!-- 17&#45;&#45;18 -->
<g id="edge80" class="edge"><title>17&#45;&#45;18</title>
<path fill="none" stroke="red" stroke-width="2.25" d="M1168.17,-742.3C1160.58,-764.831 1147.5,-803.665 1139.89,-826.23"/>
</g>
<!-- 19&#45;&#45;28 -->
<g id="edge86" class="edge"><title>19&#45;&#45;28</title>
<path fill="none" stroke="blue" stroke-width="1.125" d="M1168.17,-457.099C1160.58,-434.567 1147.5,-395.734 1139.89,-373.168"/>
</g>
<!-- 10 -->
<g id="node56" class="node"><title>10</title>
<ellipse fill="none" stroke="black" cx="390.888" cy="-1139.95" rx="27" ry="18"/>
<text text-anchor="middle" x="390.888" y="-1135.85" font-family="Times Roman,serif" font-size="14.00">10</text>
</g>
<!-- 10&#45;&#45;29 -->
<g id="edge64" class="edge"><title>10&#45;&#45;29</title>
<path fill="none" stroke="black" stroke-width="0.642857" stroke-dasharray="1,5" d="M369.729,-1128.73C350.085,-1118.32 320.982,-1102.89 301.243,-1092.42"/>
</g>
<!-- 10&#45;&#45;20 -->
<g id="edge62" class="edge"><title>10&#45;&#45;20</title>
<path fill="none" stroke="blue" stroke-width="1.125" d="M417.294,-1144.28C464.66,-1152.04 563.541,-1168.25 611.039,-1176.04"/>
</g>
<!-- 22&#45;&#45;25 -->
<g id="edge90" class="edge"><title>22&#45;&#45;25</title>
<path fill="none" stroke="orange" stroke-width="0.642857" d="M897.638,-1100.56C916.418,-1087.83 944.924,-1068.5 963.662,-1055.8"/>
</g>
</g>
</svg>
