<?xml version="1.0" encoding="utf-8" standalone="no"?>
<!DOCTYPE svg PUBLIC "-//W3C//DTD SVG 1.1//EN"
  "http://www.w3.org/Graphics/SVG/1.1/DTD/svg11.dtd">
<!-- Created with matplotlib (http://matplotlib.sourceforge.net/) -->
<svg height="403pt" version="1.1" viewBox="0 0 640 403" width="640pt" xmlns="http://www.w3.org/2000/svg" xmlns:xlink="http://www.w3.org/1999/xlink">
 <defs>
  <style type="text/css">
*{stroke-linecap:square;stroke-linejoin:round;}
  </style>
 </defs>
 <g id="figure_1">
  <g id="patch_1">
   <path d="
M0 403.307
L640.184 403.307
L640.184 0
L0 0
z
" style="fill:#ffffff;"/>
  </g>
  <g id="axes_1">
   <g id="patch_2">
    <path d="
M50.4075 368.742
L496.808 368.742
L496.808 23.1417
L50.4075 23.1417
z
" style="fill:#ffffff;"/>
   </g>
   <g id="line2d_1">
    <path clip-path="url(#p708ed26dbf)" d="
M50.4075 159.25
L55.6155 155.178
L60.8235 177.348
L66.0315 177.035
L71.2395 167.29
L76.4475 172.062
L81.6555 189.966
L86.8635 159.793
L92.0715 166.267
L97.2795 191.697
L102.487 178.979
L107.695 169.828
L112.904 165.871
L118.111 173.658
L123.32 160.592
L128.528 161.348
L133.736 170.629
L138.944 186.532
L144.151 191.892
L149.359 167
L154.567 187.569
L159.775 173.638
L164.983 168.935
L170.192 178.72
L175.399 184.364
L180.607 190.986
L185.815 189.955
L191.023 167.871
L196.232 188.891
L201.44 195.508
L206.648 195.186
L211.856 184.578
L217.064 205.361
L222.272 180.204
L227.48 191.784
L232.688 200.498
L237.895 205.058
L243.103 166.989
L248.311 184.279
L253.519 185.5
L258.727 198.278
L263.935 199.055
L269.144 199.083
L274.351 193.305
L279.559 185.683
L284.767 194.629
L289.976 171.249
L295.183 196.002
L300.392 192.87
L305.6 204.035
L310.808 188.814
L316.015 178.057
L321.223 199.691
L326.432 208.712
L331.639 201.914
L336.847 191.19
L342.056 161.821
L347.264 174.584
L352.471 191.47
L357.679 193.89
L362.888 194.971
L368.096 211.004
L373.303 178.187
L378.511 155.862
L383.72 114.008
L388.928 124.496
L394.135 168.152
L399.343 188.419
L404.552 179.116
L409.76 185.829
L414.967 182.1
L420.175 188.236
L425.384 166.04
L430.591 188.633
L435.799 180.853
L441.008 178.758
L446.216 171.51
L451.423 186.516
L456.631 179.794
L461.84 144.911
L467.048 184.817
L472.255 184.14
L477.463 175.692
L482.672 167.208
L487.88 175.526
L493.087 151.025
L498.295 171.81
L503.504 176.408" style="fill:none;stroke:#0000ff;"/>
   </g>
   <g id="line2d_2">
    <path clip-path="url(#p708ed26dbf)" d="
M50.4075 299.933
L55.6155 291.231
L60.8235 293.558
L66.0315 286.326
L71.2395 298.533
L76.4475 285.119
L81.6555 295.643
L86.8635 294.634
L92.0715 292.909
L97.2795 298.135
L102.487 296.392
L107.695 278.277
L112.904 280.302
L118.111 283.22
L123.32 288.981
L128.528 302.869
L133.736 288.933
L138.944 286.138
L144.151 282.442
L149.359 292.401
L154.567 276.515
L159.775 277.565
L164.983 284.231
L170.192 287.629
L175.399 282.582
L180.607 278.951
L185.815 277.338
L191.023 277.287
L196.232 277.074
L201.44 276.989
L206.648 232.924
L211.856 279.369
L217.064 306.277
L222.272 298.461
L227.48 290.155
L232.688 291.291
L237.895 305.235
L243.103 294.792
L248.311 295.029
L253.519 291.15
L258.727 297.365
L263.935 295.596
L269.144 297.341
L274.351 315.732
L279.559 308.947
L284.767 295.836
L289.976 295.49
L295.183 297.414
L300.392 294.32
L305.6 297.106
L310.808 293.553
L316.015 287.199
L321.223 298.427
L326.432 309.867
L331.639 307.617
L336.847 309.228
L342.056 297.484
L347.264 295.589
L352.471 304.559
L357.679 290.271
L362.888 284.262
L368.096 288.397
L373.303 295.984
L378.511 303.204
L383.72 303.171
L388.928 296.837
L394.135 294.783
L399.343 291.15
L404.552 301.73
L409.76 301.407
L414.967 298.639
L420.175 293.917
L425.384 291.805
L430.591 298.3
L435.799 308.784
L441.008 307.074
L446.216 282.347
L451.423 270.978
L456.631 273.738
L461.84 269.405
L467.048 279.727
L472.255 290.231
L477.463 291.257
L482.672 295.085
L487.88 295.792
L493.087 291.807
L498.295 287.391
L503.504 296.287" style="fill:none;stroke:#008000;"/>
   </g>
   <g id="line2d_3">
    <path clip-path="url(#p708ed26dbf)" d="
M50.4075 326.209
L55.6155 319.735
L60.8235 325.981
L66.0315 332.543
L71.2395 337.328
L76.4475 336.838
L81.6555 336.506
L86.8635 339.602
L92.0715 335.623
L97.2795 330.181
L102.487 332.226
L107.695 342.424
L112.904 346.332
L118.111 346.289
L123.32 339.975
L128.528 328.332
L133.736 333.187
L138.944 338.31
L144.151 330.157
L149.359 331.876
L154.567 336.002
L159.775 340.923
L164.983 335.589
L170.192 339.46
L175.399 335.741
L180.607 334.892
L185.815 328.729
L191.023 326.799
L196.232 337.074
L201.44 339.443
L206.648 332.266
L211.856 336.919
L217.064 336.047
L222.272 342.885
L227.48 339.806
L232.688 344.992
L237.895 345.703
L243.103 335.114
L248.311 330.793
L253.519 327.048
L258.727 329.367
L263.935 332.002
L269.144 334.526
L274.351 327.596
L279.559 340.513
L284.767 341.881
L289.976 346.339
L295.183 349.742
L300.392 344.944
L305.6 342.564
L310.808 344.05
L316.015 341.393
L321.223 332.83
L326.432 323.876
L331.639 341.569
L336.847 342.579
L342.056 337.274
L347.264 343.305
L352.471 343.097
L357.679 341.946
L362.888 341.415
L368.096 346.776
L373.303 344.241
L378.511 340.197
L383.72 339.031
L388.928 338.731
L394.135 338.604
L399.343 342.313
L404.552 340.384
L409.76 339.232
L414.967 339.995
L420.175 343.788
L425.384 346.231
L430.591 344.838
L435.799 343.451
L441.008 339.877
L446.216 344.234
L451.423 340.888
L456.631 336.918
L461.84 340.314
L467.048 335.028
L472.255 340.281
L477.463 338.193
L482.672 335.131
L487.88 338.459
L493.087 330.985
L498.295 337.052
L503.504 345.183" style="fill:none;stroke:#ff0000;"/>
   </g>
   <g id="line2d_4">
    <path clip-path="url(#p708ed26dbf)" d="
M50.4075 122.954
L55.6155 128.709
L60.8235 111.528
L66.0315 109.974
L71.2395 95.8147
L76.4475 93.4907
L81.6555 90.365
L86.8635 106.241
L92.0715 88.6502
L97.2795 73.6791
L102.487 53.7964
L107.695 73.3171
L112.904 62.1219
L118.111 71.1945
L123.32 97.1998
L128.528 86.2275
L133.736 75.6626
L138.944 59.9844
L144.151 84.2305
L149.359 65.7649
L154.567 82.9768
L159.775 47.5266
L164.983 46.6192
L170.192 72.2115
L175.399 71.0109
L180.607 67.236
L185.815 37.1003
L191.023 51.2795
L196.232 61.3342
L201.44 76.8514
L206.648 76.4704
L211.856 89.1224
L217.064 84.1806
L222.272 58.0905
L227.48 49.2112
L232.688 58.1512
L237.895 81.6027
L243.103 81.5941
L248.311 51.6603
L253.519 65.7681
L258.727 77.8561
L263.935 71.1036
L269.144 73.6941
L274.351 73.9321
L279.559 69.1854
L284.767 76.4324
L289.976 69.316
L295.183 75.2945
L300.392 78.4216
L305.6 59.2336
L310.808 49.0995
L316.015 54.8056
L321.223 69.1722
L326.432 67.4632
L331.639 106.328
L336.847 96.5183
L342.056 72.2868
L347.264 56.2108
L352.471 59.2109
L357.679 84.7365
L362.888 67.8419
L368.096 92.8315
L373.303 61.7498
L378.511 49.5091
L383.72 55.1543
L388.928 66.6979
L394.135 72.2393
L399.343 40.989
L404.552 47.281
L409.76 42.1482
L414.967 62.3409
L420.175 64.5968
L425.384 47.6316
L430.591 55.1462
L435.799 41.6383
L441.008 49.0681
L446.216 65.6003
L451.423 72.9194
L456.631 54.2125
L461.84 32.5071
L467.048 70.5924
L472.255 59.6881
L477.463 87.424
L482.672 48.8499
L487.88 55.5983
L493.087 73.0141
L498.295 61.4462
L503.504 58.9098" style="fill:none;stroke:#00bfbf;"/>
   </g>
   <g id="line2d_5">
    <path clip-path="url(#p708ed26dbf)" d="
M50.4075 290.852
L55.6155 278.296
L60.8235 281.32
L66.0315 277.251
L71.2395 276.116
L76.4475 280.856
L81.6555 286.394
L86.8635 285.566
L92.0715 262.115
L97.2795 274.334
L102.487 282.148
L107.695 283.299
L112.904 273.665
L118.111 281.171
L123.32 268.228
L128.528 270.532
L133.736 271.429
L138.944 259.538
L144.151 267.487
L149.359 269.67
L154.567 265.875
L159.775 276.78
L164.983 263.643
L170.192 275.883
L175.399 269.078
L180.607 274.379
L185.815 261.48
L191.023 268.182
L196.232 262.739
L201.44 261.633
L206.648 263.695
L211.856 270.372
L217.064 271.033
L222.272 259.498
L227.48 260.593
L232.688 265.755
L237.895 257.103
L243.103 263.986
L248.311 255.764
L253.519 260.707
L258.727 256.717
L263.935 280.07
L269.144 277.422
L274.351 278.761
L279.559 276.904
L284.767 276.702
L289.976 268.198
L295.183 267.87
L300.392 271.406
L305.6 266.582
L310.808 270.16
L316.015 271.652
L321.223 269.943
L326.432 265.435
L331.639 271.292
L336.847 269.478
L342.056 278.999
L347.264 268.776
L352.471 264.959
L357.679 279.963
L362.888 265.805
L368.096 284.163
L373.303 274.121
L378.511 280.023
L383.72 279.401
L388.928 277.461
L394.135 278.367
L399.343 273.594
L404.552 272.244
L409.76 270.459
L414.967 265.393
L420.175 269.811
L425.384 274.957
L430.591 266.166
L435.799 253.471
L441.008 259.928
L446.216 273.392
L451.423 270.656
L456.631 271.282
L461.84 280.502
L467.048 268.334
L472.255 266.987
L477.463 272.823
L482.672 271.34
L487.88 276.353
L493.087 265.248
L498.295 246.047
L503.504 266.709" style="fill:none;stroke:#bf00bf;"/>
   </g>
   <g id="matplotlib.axis_1">
    <g id="xtick_1">
     <g id="line2d_6">
      <path clip-path="url(#p708ed26dbf)" d="
M50.4075 368.742
L50.4075 23.1417" style="fill:none;stroke:#000000;stroke-dasharray:1.000000,3.000000;stroke-dashoffset:0.0;stroke-linecap:butt;stroke-width:0.5;"/>
     </g>
     <g id="line2d_7">
      <defs>
       <path d="
M0 0
L0 -4" id="m0012dd4eef" style="stroke:#000000;stroke-linecap:butt;stroke-width:0.5;"/>
      </defs>
      <g>
       <use style="stroke:#000000;stroke-linecap:butt;stroke-width:0.5;" x="50.4075" xlink:href="#m0012dd4eef" y="368.74175"/>
      </g>
     </g>
     <g id="line2d_8">
      <defs>
       <path d="
M0 0
L0 4" id="m476344969c" style="stroke:#000000;stroke-linecap:butt;stroke-width:0.5;"/>
      </defs>
      <g>
       <use style="stroke:#000000;stroke-linecap:butt;stroke-width:0.5;" x="50.4075" xlink:href="#m476344969c" y="23.14175"/>
      </g>
     </g>
     <g id="text_1">
      <!-- 0 -->
      <defs>
       <path d="
M31.7812 66.4062
Q24.1719 66.4062 20.3281 58.9062
Q16.5 51.4219 16.5 36.375
Q16.5 21.3906 20.3281 13.8906
Q24.1719 6.39062 31.7812 6.39062
Q39.4531 6.39062 43.2812 13.8906
Q47.125 21.3906 47.125 36.375
Q47.125 51.4219 43.2812 58.9062
Q39.4531 66.4062 31.7812 66.4062
M31.7812 74.2188
Q44.0469 74.2188 50.5156 64.5156
Q56.9844 54.8281 56.9844 36.375
Q56.9844 17.9688 50.5156 8.26562
Q44.0469 -1.42188 31.7812 -1.42188
Q19.5312 -1.42188 13.0625 8.26562
Q6.59375 17.9688 6.59375 36.375
Q6.59375 54.8281 13.0625 64.5156
Q19.5312 74.2188 31.7812 74.2188" id="DejaVuSans-30"/>
      </defs>
      <g transform="translate(47.3840625 381.648)scale(0.12 -0.12)">
       <use xlink:href="#DejaVuSans-30"/>
      </g>
     </g>
    </g>
    <g id="xtick_2">
     <g id="line2d_9">
      <path clip-path="url(#p708ed26dbf)" d="
M124.808 368.742
L124.808 23.1417" style="fill:none;stroke:#000000;stroke-dasharray:1.000000,3.000000;stroke-dashoffset:0.0;stroke-linecap:butt;stroke-width:0.5;"/>
     </g>
     <g id="line2d_10">
      <g>
       <use style="stroke:#000000;stroke-linecap:butt;stroke-width:0.5;" x="124.8075" xlink:href="#m0012dd4eef" y="368.74175"/>
      </g>
     </g>
     <g id="line2d_11">
      <g>
       <use style="stroke:#000000;stroke-linecap:butt;stroke-width:0.5;" x="124.8075" xlink:href="#m476344969c" y="23.14175"/>
      </g>
     </g>
     <g id="text_2">
      <!-- 100 -->
      <defs>
       <path d="
M12.4062 8.29688
L28.5156 8.29688
L28.5156 63.9219
L10.9844 60.4062
L10.9844 69.3906
L28.4219 72.9062
L38.2812 72.9062
L38.2812 8.29688
L54.3906 8.29688
L54.3906 0
L12.4062 0
z
" id="DejaVuSans-31"/>
      </defs>
      <g transform="translate(114.4125 381.648)scale(0.12 -0.12)">
       <use xlink:href="#DejaVuSans-31"/>
       <use x="63.623046875" xlink:href="#DejaVuSans-30"/>
       <use x="127.24609375" xlink:href="#DejaVuSans-30"/>
      </g>
     </g>
    </g>
    <g id="xtick_3">
     <g id="line2d_12">
      <path clip-path="url(#p708ed26dbf)" d="
M199.208 368.742
L199.208 23.1417" style="fill:none;stroke:#000000;stroke-dasharray:1.000000,3.000000;stroke-dashoffset:0.0;stroke-linecap:butt;stroke-width:0.5;"/>
     </g>
     <g id="line2d_13">
      <g>
       <use style="stroke:#000000;stroke-linecap:butt;stroke-width:0.5;" x="199.2075" xlink:href="#m0012dd4eef" y="368.74175"/>
      </g>
     </g>
     <g id="line2d_14">
      <g>
       <use style="stroke:#000000;stroke-linecap:butt;stroke-width:0.5;" x="199.2075" xlink:href="#m476344969c" y="23.14175"/>
      </g>
     </g>
     <g id="text_3">
      <!-- 200 -->
      <defs>
       <path d="
M19.1875 8.29688
L53.6094 8.29688
L53.6094 0
L7.32812 0
L7.32812 8.29688
Q12.9375 14.1094 22.625 23.8906
Q32.3281 33.6875 34.8125 36.5312
Q39.5469 41.8438 41.4219 45.5312
Q43.3125 49.2188 43.3125 52.7812
Q43.3125 58.5938 39.2344 62.25
Q35.1562 65.9219 28.6094 65.9219
Q23.9688 65.9219 18.8125 64.3125
Q13.6719 62.7031 7.8125 59.4219
L7.8125 69.3906
Q13.7656 71.7812 18.9375 73
Q24.125 74.2188 28.4219 74.2188
Q39.75 74.2188 46.4844 68.5469
Q53.2188 62.8906 53.2188 53.4219
Q53.2188 48.9219 51.5312 44.8906
Q49.8594 40.875 45.4062 35.4062
Q44.1875 33.9844 37.6406 27.2188
Q31.1094 20.4531 19.1875 8.29688" id="DejaVuSans-32"/>
      </defs>
      <g transform="translate(188.593125 381.648)scale(0.12 -0.12)">
       <use xlink:href="#DejaVuSans-32"/>
       <use x="63.623046875" xlink:href="#DejaVuSans-30"/>
       <use x="127.24609375" xlink:href="#DejaVuSans-30"/>
      </g>
     </g>
    </g>
    <g id="xtick_4">
     <g id="line2d_15">
      <path clip-path="url(#p708ed26dbf)" d="
M273.607 368.742
L273.607 23.1417" style="fill:none;stroke:#000000;stroke-dasharray:1.000000,3.000000;stroke-dashoffset:0.0;stroke-linecap:butt;stroke-width:0.5;"/>
     </g>
     <g id="line2d_16">
      <g>
       <use style="stroke:#000000;stroke-linecap:butt;stroke-width:0.5;" x="273.6075" xlink:href="#m0012dd4eef" y="368.74175"/>
      </g>
     </g>
     <g id="line2d_17">
      <g>
       <use style="stroke:#000000;stroke-linecap:butt;stroke-width:0.5;" x="273.6075" xlink:href="#m476344969c" y="23.14175"/>
      </g>
     </g>
     <g id="text_4">
      <!-- 300 -->
      <defs>
       <path d="
M40.5781 39.3125
Q47.6562 37.7969 51.625 33
Q55.6094 28.2188 55.6094 21.1875
Q55.6094 10.4062 48.1875 4.48438
Q40.7656 -1.42188 27.0938 -1.42188
Q22.5156 -1.42188 17.6562 -0.515625
Q12.7969 0.390625 7.625 2.20312
L7.625 11.7188
Q11.7188 9.32812 16.5938 8.10938
Q21.4844 6.89062 26.8125 6.89062
Q36.0781 6.89062 40.9375 10.5469
Q45.7969 14.2031 45.7969 21.1875
Q45.7969 27.6406 41.2812 31.2656
Q36.7656 34.9062 28.7188 34.9062
L20.2188 34.9062
L20.2188 43.0156
L29.1094 43.0156
Q36.375 43.0156 40.2344 45.9219
Q44.0938 48.8281 44.0938 54.2969
Q44.0938 59.9062 40.1094 62.9062
Q36.1406 65.9219 28.7188 65.9219
Q24.6562 65.9219 20.0156 65.0312
Q15.375 64.1562 9.8125 62.3125
L9.8125 71.0938
Q15.4375 72.6562 20.3438 73.4375
Q25.25 74.2188 29.5938 74.2188
Q40.8281 74.2188 47.3594 69.1094
Q53.9062 64.0156 53.9062 55.3281
Q53.9062 49.2656 50.4375 45.0938
Q46.9688 40.9219 40.5781 39.3125" id="DejaVuSans-33"/>
      </defs>
      <g transform="translate(263.0109375 381.648)scale(0.12 -0.12)">
       <use xlink:href="#DejaVuSans-33"/>
       <use x="63.623046875" xlink:href="#DejaVuSans-30"/>
       <use x="127.24609375" xlink:href="#DejaVuSans-30"/>
      </g>
     </g>
    </g>
    <g id="xtick_5">
     <g id="line2d_18">
      <path clip-path="url(#p708ed26dbf)" d="
M348.008 368.742
L348.008 23.1417" style="fill:none;stroke:#000000;stroke-dasharray:1.000000,3.000000;stroke-dashoffset:0.0;stroke-linecap:butt;stroke-width:0.5;"/>
     </g>
     <g id="line2d_19">
      <g>
       <use style="stroke:#000000;stroke-linecap:butt;stroke-width:0.5;" x="348.0075" xlink:href="#m0012dd4eef" y="368.74175"/>
      </g>
     </g>
     <g id="line2d_20">
      <g>
       <use style="stroke:#000000;stroke-linecap:butt;stroke-width:0.5;" x="348.0075" xlink:href="#m476344969c" y="23.14175"/>
      </g>
     </g>
     <g id="text_5">
      <!-- 400 -->
      <defs>
       <path d="
M37.7969 64.3125
L12.8906 25.3906
L37.7969 25.3906
z

M35.2031 72.9062
L47.6094 72.9062
L47.6094 25.3906
L58.0156 25.3906
L58.0156 17.1875
L47.6094 17.1875
L47.6094 0
L37.7969 0
L37.7969 17.1875
L4.89062 17.1875
L4.89062 26.7031
z
" id="DejaVuSans-34"/>
      </defs>
      <g transform="translate(337.246875 381.648)scale(0.12 -0.12)">
       <use xlink:href="#DejaVuSans-34"/>
       <use x="63.623046875" xlink:href="#DejaVuSans-30"/>
       <use x="127.24609375" xlink:href="#DejaVuSans-30"/>
      </g>
     </g>
    </g>
    <g id="xtick_6">
     <g id="line2d_21">
      <path clip-path="url(#p708ed26dbf)" d="
M422.408 368.742
L422.408 23.1417" style="fill:none;stroke:#000000;stroke-dasharray:1.000000,3.000000;stroke-dashoffset:0.0;stroke-linecap:butt;stroke-width:0.5;"/>
     </g>
     <g id="line2d_22">
      <g>
       <use style="stroke:#000000;stroke-linecap:butt;stroke-width:0.5;" x="422.4075" xlink:href="#m0012dd4eef" y="368.74175"/>
      </g>
     </g>
     <g id="line2d_23">
      <g>
       <use style="stroke:#000000;stroke-linecap:butt;stroke-width:0.5;" x="422.4075" xlink:href="#m476344969c" y="23.14175"/>
      </g>
     </g>
     <g id="text_6">
      <!-- 500 -->
      <defs>
       <path d="
M10.7969 72.9062
L49.5156 72.9062
L49.5156 64.5938
L19.8281 64.5938
L19.8281 46.7344
Q21.9688 47.4688 24.1094 47.8281
Q26.2656 48.1875 28.4219 48.1875
Q40.625 48.1875 47.75 41.5
Q54.8906 34.8125 54.8906 23.3906
Q54.8906 11.625 47.5625 5.09375
Q40.2344 -1.42188 26.9062 -1.42188
Q22.3125 -1.42188 17.5469 -0.640625
Q12.7969 0.140625 7.71875 1.70312
L7.71875 11.625
Q12.1094 9.23438 16.7969 8.0625
Q21.4844 6.89062 26.7031 6.89062
Q35.1562 6.89062 40.0781 11.3281
Q45.0156 15.7656 45.0156 23.3906
Q45.0156 31 40.0781 35.4375
Q35.1562 39.8906 26.7031 39.8906
Q22.75 39.8906 18.8125 39.0156
Q14.8906 38.1406 10.7969 36.2812
z
" id="DejaVuSans-35"/>
      </defs>
      <g transform="translate(411.8165625 381.648)scale(0.12 -0.12)">
       <use xlink:href="#DejaVuSans-35"/>
       <use x="63.623046875" xlink:href="#DejaVuSans-30"/>
       <use x="127.24609375" xlink:href="#DejaVuSans-30"/>
      </g>
     </g>
    </g>
    <g id="xtick_7">
     <g id="line2d_24">
      <path clip-path="url(#p708ed26dbf)" d="
M496.808 368.742
L496.808 23.1417" style="fill:none;stroke:#000000;stroke-dasharray:1.000000,3.000000;stroke-dashoffset:0.0;stroke-linecap:butt;stroke-width:0.5;"/>
     </g>
     <g id="line2d_25">
      <g>
       <use style="stroke:#000000;stroke-linecap:butt;stroke-width:0.5;" x="496.8075" xlink:href="#m0012dd4eef" y="368.74175"/>
      </g>
     </g>
     <g id="line2d_26">
      <g>
       <use style="stroke:#000000;stroke-linecap:butt;stroke-width:0.5;" x="496.8075" xlink:href="#m476344969c" y="23.14175"/>
      </g>
     </g>
     <g id="text_7">
      <!-- 600 -->
      <defs>
       <path d="
M33.0156 40.375
Q26.375 40.375 22.4844 35.8281
Q18.6094 31.2969 18.6094 23.3906
Q18.6094 15.5312 22.4844 10.9531
Q26.375 6.39062 33.0156 6.39062
Q39.6562 6.39062 43.5312 10.9531
Q47.4062 15.5312 47.4062 23.3906
Q47.4062 31.2969 43.5312 35.8281
Q39.6562 40.375 33.0156 40.375
M52.5938 71.2969
L52.5938 62.3125
Q48.875 64.0625 45.0938 64.9844
Q41.3125 65.9219 37.5938 65.9219
Q27.8281 65.9219 22.6719 59.3281
Q17.5312 52.7344 16.7969 39.4062
Q19.6719 43.6562 24.0156 45.9219
Q28.375 48.1875 33.5938 48.1875
Q44.5781 48.1875 50.9531 41.5156
Q57.3281 34.8594 57.3281 23.3906
Q57.3281 12.1562 50.6875 5.35938
Q44.0469 -1.42188 33.0156 -1.42188
Q20.3594 -1.42188 13.6719 8.26562
Q6.98438 17.9688 6.98438 36.375
Q6.98438 53.6562 15.1875 63.9375
Q23.3906 74.2188 37.2031 74.2188
Q40.9219 74.2188 44.7031 73.4844
Q48.4844 72.75 52.5938 71.2969" id="DejaVuSans-36"/>
      </defs>
      <g transform="translate(486.1725 381.648)scale(0.12 -0.12)">
       <use xlink:href="#DejaVuSans-36"/>
       <use x="63.623046875" xlink:href="#DejaVuSans-30"/>
       <use x="127.24609375" xlink:href="#DejaVuSans-30"/>
      </g>
     </g>
    </g>
    <g id="text_8">
     <!-- Time in s -->
     <defs>
      <path d="
M52 44.1875
Q55.375 50.25 60.0625 53.125
Q64.75 56 71.0938 56
Q79.6406 56 84.2812 50.0156
Q88.9219 44.0469 88.9219 33.0156
L88.9219 0
L79.8906 0
L79.8906 32.7188
Q79.8906 40.5781 77.0938 44.375
Q74.3125 48.1875 68.6094 48.1875
Q61.625 48.1875 57.5625 43.5469
Q53.5156 38.9219 53.5156 30.9062
L53.5156 0
L44.4844 0
L44.4844 32.7188
Q44.4844 40.625 41.7031 44.4062
Q38.9219 48.1875 33.1094 48.1875
Q26.2188 48.1875 22.1562 43.5312
Q18.1094 38.875 18.1094 30.9062
L18.1094 0
L9.07812 0
L9.07812 54.6875
L18.1094 54.6875
L18.1094 46.1875
Q21.1875 51.2188 25.4844 53.6094
Q29.7812 56 35.6875 56
Q41.6562 56 45.8281 52.9688
Q50 49.9531 52 44.1875" id="DejaVuSans-6d"/>
      <path d="
M54.8906 33.0156
L54.8906 0
L45.9062 0
L45.9062 32.7188
Q45.9062 40.4844 42.875 44.3281
Q39.8438 48.1875 33.7969 48.1875
Q26.5156 48.1875 22.3125 43.5469
Q18.1094 38.9219 18.1094 30.9062
L18.1094 0
L9.07812 0
L9.07812 54.6875
L18.1094 54.6875
L18.1094 46.1875
Q21.3438 51.125 25.7031 53.5625
Q30.0781 56 35.7969 56
Q45.2188 56 50.0469 50.1719
Q54.8906 44.3438 54.8906 33.0156" id="DejaVuSans-6e"/>
      <path id="DejaVuSans-20"/>
      <path d="
M9.42188 54.6875
L18.4062 54.6875
L18.4062 0
L9.42188 0
z

M9.42188 75.9844
L18.4062 75.9844
L18.4062 64.5938
L9.42188 64.5938
z
" id="DejaVuSans-69"/>
      <path d="
M56.2031 29.5938
L56.2031 25.2031
L14.8906 25.2031
Q15.4844 15.9219 20.4844 11.0625
Q25.4844 6.20312 34.4219 6.20312
Q39.5938 6.20312 44.4531 7.46875
Q49.3125 8.73438 54.1094 11.2812
L54.1094 2.78125
Q49.2656 0.734375 44.1875 -0.34375
Q39.1094 -1.42188 33.8906 -1.42188
Q20.7969 -1.42188 13.1562 6.1875
Q5.51562 13.8125 5.51562 26.8125
Q5.51562 40.2344 12.7656 48.1094
Q20.0156 56 32.3281 56
Q43.3594 56 49.7812 48.8906
Q56.2031 41.7969 56.2031 29.5938
M47.2188 32.2344
Q47.125 39.5938 43.0938 43.9844
Q39.0625 48.3906 32.4219 48.3906
Q24.9062 48.3906 20.3906 44.1406
Q15.875 39.8906 15.1875 32.1719
z
" id="DejaVuSans-65"/>
      <path d="
M44.2812 53.0781
L44.2812 44.5781
Q40.4844 46.5312 36.375 47.5
Q32.2812 48.4844 27.875 48.4844
Q21.1875 48.4844 17.8438 46.4375
Q14.5 44.3906 14.5 40.2812
Q14.5 37.1562 16.8906 35.375
Q19.2812 33.5938 26.5156 31.9844
L29.5938 31.2969
Q39.1562 29.25 43.1875 25.5156
Q47.2188 21.7812 47.2188 15.0938
Q47.2188 7.46875 41.1875 3.01562
Q35.1562 -1.42188 24.6094 -1.42188
Q20.2188 -1.42188 15.4531 -0.5625
Q10.6875 0.296875 5.42188 2
L5.42188 11.2812
Q10.4062 8.6875 15.2344 7.39062
Q20.0625 6.10938 24.8125 6.10938
Q31.1562 6.10938 34.5625 8.28125
Q37.9844 10.4531 37.9844 14.4062
Q37.9844 18.0625 35.5156 20.0156
Q33.0625 21.9688 24.7031 23.7812
L21.5781 24.5156
Q13.2344 26.2656 9.51562 29.9062
Q5.8125 33.5469 5.8125 39.8906
Q5.8125 47.6094 11.2812 51.7969
Q16.75 56 26.8125 56
Q31.7812 56 36.1719 55.2656
Q40.5781 54.5469 44.2812 53.0781" id="DejaVuSans-73"/>
      <path d="
M-0.296875 72.9062
L61.375 72.9062
L61.375 64.5938
L35.5 64.5938
L35.5 0
L25.5938 0
L25.5938 64.5938
L-0.296875 64.5938
z
" id="DejaVuSans-54"/>
     </defs>
     <g transform="translate(246.793125 395.93675)scale(0.12 -0.12)">
      <use xlink:href="#DejaVuSans-54"/>
      <use x="57.958984375" xlink:href="#DejaVuSans-69"/>
      <use x="85.7421875" xlink:href="#DejaVuSans-6d"/>
      <use x="183.154296875" xlink:href="#DejaVuSans-65"/>
      <use x="244.677734375" xlink:href="#DejaVuSans-20"/>
      <use x="276.46484375" xlink:href="#DejaVuSans-69"/>
      <use x="304.248046875" xlink:href="#DejaVuSans-6e"/>
      <use x="367.626953125" xlink:href="#DejaVuSans-20"/>
      <use x="399.4140625" xlink:href="#DejaVuSans-73"/>
     </g>
    </g>
   </g>
   <g id="matplotlib.axis_2">
    <g id="ytick_1">
     <g id="line2d_27">
      <path clip-path="url(#p708ed26dbf)" d="
M50.4075 368.742
L496.808 368.742" style="fill:none;stroke:#000000;stroke-dasharray:1.000000,3.000000;stroke-dashoffset:0.0;stroke-linecap:butt;stroke-width:0.5;"/>
     </g>
     <g id="line2d_28">
      <defs>
       <path d="
M0 0
L4 0" id="me8a85f7bf6" style="stroke:#000000;stroke-linecap:butt;stroke-width:0.5;"/>
      </defs>
      <g>
       <use style="stroke:#000000;stroke-linecap:butt;stroke-width:0.5;" x="50.4075" xlink:href="#me8a85f7bf6" y="368.74175"/>
      </g>
     </g>
     <g id="line2d_29">
      <defs>
       <path d="
M0 0
L-4 0" id="m1a32005dea" style="stroke:#000000;stroke-linecap:butt;stroke-width:0.5;"/>
      </defs>
      <g>
       <use style="stroke:#000000;stroke-linecap:butt;stroke-width:0.5;" x="496.8075" xlink:href="#m1a32005dea" y="368.74175"/>
      </g>
     </g>
     <g id="text_9">
      <!-- 0.10 -->
      <defs>
       <path d="
M10.6875 12.4062
L21 12.4062
L21 0
L10.6875 0
z
" id="DejaVuSans-2e"/>
      </defs>
      <g transform="translate(21.276875 373.1095625)scale(0.12 -0.12)">
       <use xlink:href="#DejaVuSans-30"/>
       <use x="63.623046875" xlink:href="#DejaVuSans-2e"/>
       <use x="95.41015625" xlink:href="#DejaVuSans-31"/>
       <use x="159.033203125" xlink:href="#DejaVuSans-30"/>
      </g>
     </g>
    </g>
    <g id="ytick_2">
     <g id="line2d_30">
      <path clip-path="url(#p708ed26dbf)" d="
M50.4075 311.142
L496.808 311.142" style="fill:none;stroke:#000000;stroke-dasharray:1.000000,3.000000;stroke-dashoffset:0.0;stroke-linecap:butt;stroke-width:0.5;"/>
     </g>
     <g id="line2d_31">
      <g>
       <use style="stroke:#000000;stroke-linecap:butt;stroke-width:0.5;" x="50.4075" xlink:href="#me8a85f7bf6" y="311.14175"/>
      </g>
     </g>
     <g id="line2d_32">
      <g>
       <use style="stroke:#000000;stroke-linecap:butt;stroke-width:0.5;" x="496.8075" xlink:href="#m1a32005dea" y="311.14175"/>
      </g>
     </g>
     <g id="text_10">
      <!-- 0.15 -->
      <g transform="translate(21.528125 315.5095625)scale(0.12 -0.12)">
       <use xlink:href="#DejaVuSans-30"/>
       <use x="63.623046875" xlink:href="#DejaVuSans-2e"/>
       <use x="95.41015625" xlink:href="#DejaVuSans-31"/>
       <use x="159.033203125" xlink:href="#DejaVuSans-35"/>
      </g>
     </g>
    </g>
    <g id="ytick_3">
     <g id="line2d_33">
      <path clip-path="url(#p708ed26dbf)" d="
M50.4075 253.542
L496.808 253.542" style="fill:none;stroke:#000000;stroke-dasharray:1.000000,3.000000;stroke-dashoffset:0.0;stroke-linecap:butt;stroke-width:0.5;"/>
     </g>
     <g id="line2d_34">
      <g>
       <use style="stroke:#000000;stroke-linecap:butt;stroke-width:0.5;" x="50.4075" xlink:href="#me8a85f7bf6" y="253.54175"/>
      </g>
     </g>
     <g id="line2d_35">
      <g>
       <use style="stroke:#000000;stroke-linecap:butt;stroke-width:0.5;" x="496.8075" xlink:href="#m1a32005dea" y="253.54175"/>
      </g>
     </g>
     <g id="text_11">
      <!-- 0.20 -->
      <g transform="translate(21.276875 257.9095625)scale(0.12 -0.12)">
       <use xlink:href="#DejaVuSans-30"/>
       <use x="63.623046875" xlink:href="#DejaVuSans-2e"/>
       <use x="95.41015625" xlink:href="#DejaVuSans-32"/>
       <use x="159.033203125" xlink:href="#DejaVuSans-30"/>
      </g>
     </g>
    </g>
    <g id="ytick_4">
     <g id="line2d_36">
      <path clip-path="url(#p708ed26dbf)" d="
M50.4075 195.942
L496.808 195.942" style="fill:none;stroke:#000000;stroke-dasharray:1.000000,3.000000;stroke-dashoffset:0.0;stroke-linecap:butt;stroke-width:0.5;"/>
     </g>
     <g id="line2d_37">
      <g>
       <use style="stroke:#000000;stroke-linecap:butt;stroke-width:0.5;" x="50.4075" xlink:href="#me8a85f7bf6" y="195.94175"/>
      </g>
     </g>
     <g id="line2d_38">
      <g>
       <use style="stroke:#000000;stroke-linecap:butt;stroke-width:0.5;" x="496.8075" xlink:href="#m1a32005dea" y="195.94175"/>
      </g>
     </g>
     <g id="text_12">
      <!-- 0.25 -->
      <g transform="translate(21.528125 200.3095625)scale(0.12 -0.12)">
       <use xlink:href="#DejaVuSans-30"/>
       <use x="63.623046875" xlink:href="#DejaVuSans-2e"/>
       <use x="95.41015625" xlink:href="#DejaVuSans-32"/>
       <use x="159.033203125" xlink:href="#DejaVuSans-35"/>
      </g>
     </g>
    </g>
    <g id="ytick_5">
     <g id="line2d_39">
      <path clip-path="url(#p708ed26dbf)" d="
M50.4075 138.342
L496.808 138.342" style="fill:none;stroke:#000000;stroke-dasharray:1.000000,3.000000;stroke-dashoffset:0.0;stroke-linecap:butt;stroke-width:0.5;"/>
     </g>
     <g id="line2d_40">
      <g>
       <use style="stroke:#000000;stroke-linecap:butt;stroke-width:0.5;" x="50.4075" xlink:href="#me8a85f7bf6" y="138.34175"/>
      </g>
     </g>
     <g id="line2d_41">
      <g>
       <use style="stroke:#000000;stroke-linecap:butt;stroke-width:0.5;" x="496.8075" xlink:href="#m1a32005dea" y="138.34175"/>
      </g>
     </g>
     <g id="text_13">
      <!-- 0.30 -->
      <g transform="translate(21.276875 142.7095625)scale(0.12 -0.12)">
       <use xlink:href="#DejaVuSans-30"/>
       <use x="63.623046875" xlink:href="#DejaVuSans-2e"/>
       <use x="95.41015625" xlink:href="#DejaVuSans-33"/>
       <use x="159.033203125" xlink:href="#DejaVuSans-30"/>
      </g>
     </g>
    </g>
    <g id="ytick_6">
     <g id="line2d_42">
      <path clip-path="url(#p708ed26dbf)" d="
M50.4075 80.7417
L496.808 80.7417" style="fill:none;stroke:#000000;stroke-dasharray:1.000000,3.000000;stroke-dashoffset:0.0;stroke-linecap:butt;stroke-width:0.5;"/>
     </g>
     <g id="line2d_43">
      <g>
       <use style="stroke:#000000;stroke-linecap:butt;stroke-width:0.5;" x="50.4075" xlink:href="#me8a85f7bf6" y="80.74175"/>
      </g>
     </g>
     <g id="line2d_44">
      <g>
       <use style="stroke:#000000;stroke-linecap:butt;stroke-width:0.5;" x="496.8075" xlink:href="#m1a32005dea" y="80.74175"/>
      </g>
     </g>
     <g id="text_14">
      <!-- 0.35 -->
      <g transform="translate(21.528125 85.1095625)scale(0.12 -0.12)">
       <use xlink:href="#DejaVuSans-30"/>
       <use x="63.623046875" xlink:href="#DejaVuSans-2e"/>
       <use x="95.41015625" xlink:href="#DejaVuSans-33"/>
       <use x="159.033203125" xlink:href="#DejaVuSans-35"/>
      </g>
     </g>
    </g>
    <g id="ytick_7">
     <g id="line2d_45">
      <path clip-path="url(#p708ed26dbf)" d="
M50.4075 23.1417
L496.808 23.1417" style="fill:none;stroke:#000000;stroke-dasharray:1.000000,3.000000;stroke-dashoffset:0.0;stroke-linecap:butt;stroke-width:0.5;"/>
     </g>
     <g id="line2d_46">
      <g>
       <use style="stroke:#000000;stroke-linecap:butt;stroke-width:0.5;" x="50.4075" xlink:href="#me8a85f7bf6" y="23.14175"/>
      </g>
     </g>
     <g id="line2d_47">
      <g>
       <use style="stroke:#000000;stroke-linecap:butt;stroke-width:0.5;" x="496.8075" xlink:href="#m1a32005dea" y="23.14175"/>
      </g>
     </g>
     <g id="text_15">
      <!-- 0.40 -->
      <g transform="translate(21.276875 27.5095625)scale(0.12 -0.12)">
       <use xlink:href="#DejaVuSans-30"/>
       <use x="63.623046875" xlink:href="#DejaVuSans-2e"/>
       <use x="95.41015625" xlink:href="#DejaVuSans-34"/>
       <use x="159.033203125" xlink:href="#DejaVuSans-30"/>
      </g>
     </g>
    </g>
    <g id="text_16">
     <!-- % -->
     <defs>
      <path d="
M72.7031 32.0781
Q68.4531 32.0781 66.0312 28.4688
Q63.625 24.8594 63.625 18.4062
Q63.625 12.0625 66.0312 8.42188
Q68.4531 4.78125 72.7031 4.78125
Q76.8594 4.78125 79.2656 8.42188
Q81.6875 12.0625 81.6875 18.4062
Q81.6875 24.8125 79.2656 28.4375
Q76.8594 32.0781 72.7031 32.0781
M72.7031 38.2812
Q80.4219 38.2812 84.9531 32.9062
Q89.5 27.5469 89.5 18.4062
Q89.5 9.28125 84.9375 3.92188
Q80.375 -1.42188 72.7031 -1.42188
Q64.8906 -1.42188 60.3438 3.92188
Q55.8125 9.28125 55.8125 18.4062
Q55.8125 27.5938 60.375 32.9375
Q64.9375 38.2812 72.7031 38.2812
M22.3125 68.0156
Q18.1094 68.0156 15.6875 64.375
Q13.2812 60.75 13.2812 54.3906
Q13.2812 47.9531 15.6719 44.3281
Q18.0625 40.7188 22.3125 40.7188
Q26.5625 40.7188 28.9688 44.3281
Q31.3906 47.9531 31.3906 54.3906
Q31.3906 60.6875 28.9531 64.3438
Q26.5156 68.0156 22.3125 68.0156
M66.4062 74.2188
L74.2188 74.2188
L28.6094 -1.42188
L20.7969 -1.42188
z

M22.3125 74.2188
Q30.0312 74.2188 34.6094 68.875
Q39.2031 63.5312 39.2031 54.3906
Q39.2031 45.1719 34.6406 39.8438
Q30.0781 34.5156 22.3125 34.5156
Q14.5469 34.5156 10.0312 39.8594
Q5.51562 45.2188 5.51562 54.3906
Q5.51562 63.4844 10.0469 68.8438
Q14.5938 74.2188 22.3125 74.2188" id="DejaVuSans-25"/>
     </defs>
     <g transform="translate(16.276875 200.8101875)rotate(-90.0)scale(0.12 -0.12)">
      <use xlink:href="#DejaVuSans-25"/>
     </g>
    </g>
   </g>
   <g id="patch_3">
    <path d="
M50.4075 23.1417
L496.808 23.1417" style="fill:none;stroke:#000000;"/>
   </g>
   <g id="patch_4">
    <path d="
M496.808 368.742
L496.808 23.1417" style="fill:none;stroke:#000000;"/>
   </g>
   <g id="patch_5">
    <path d="
M50.4075 368.742
L496.808 368.742" style="fill:none;stroke:#000000;"/>
   </g>
   <g id="patch_6">
    <path d="
M50.4075 368.742
L50.4075 23.1417" style="fill:none;stroke:#000000;"/>
   </g>
   <g id="text_17">
    <!-- Multiple Packet Transmission Retries/ All Transmitted Packets -->
    <defs>
     <path d="
M9.8125 72.9062
L24.5156 72.9062
L43.1094 23.2969
L61.8125 72.9062
L76.5156 72.9062
L76.5156 0
L66.8906 0
L66.8906 64.0156
L48.0938 14.0156
L38.1875 14.0156
L19.3906 64.0156
L19.3906 0
L9.8125 0
z
" id="DejaVuSans-4d"/>
     <path d="
M25.3906 72.9062
L33.6875 72.9062
L8.29688 -9.28125
L0 -9.28125
z
" id="DejaVuSans-2f"/>
     <path d="
M30.6094 48.3906
Q23.3906 48.3906 19.1875 42.75
Q14.9844 37.1094 14.9844 27.2969
Q14.9844 17.4844 19.1562 11.8438
Q23.3438 6.20312 30.6094 6.20312
Q37.7969 6.20312 41.9844 11.8594
Q46.1875 17.5312 46.1875 27.2969
Q46.1875 37.0156 41.9844 42.7031
Q37.7969 48.3906 30.6094 48.3906
M30.6094 56
Q42.3281 56 49.0156 48.375
Q55.7188 40.7656 55.7188 27.2969
Q55.7188 13.875 49.0156 6.21875
Q42.3281 -1.42188 30.6094 -1.42188
Q18.8438 -1.42188 12.1719 6.21875
Q5.51562 13.875 5.51562 27.2969
Q5.51562 40.7656 12.1719 48.375
Q18.8438 56 30.6094 56" id="DejaVuSans-6f"/>
     <path d="
M41.1094 46.2969
Q39.5938 47.1719 37.8125 47.5781
Q36.0312 48 33.8906 48
Q26.2656 48 22.1875 43.0469
Q18.1094 38.0938 18.1094 28.8125
L18.1094 0
L9.07812 0
L9.07812 54.6875
L18.1094 54.6875
L18.1094 46.1875
Q20.9531 51.1719 25.4844 53.5781
Q30.0312 56 36.5312 56
Q37.4531 56 38.5781 55.875
Q39.7031 55.7656 41.0625 55.5156
z
" id="DejaVuSans-72"/>
     <path d="
M9.07812 75.9844
L18.1094 75.9844
L18.1094 31.1094
L44.9219 54.6875
L56.3906 54.6875
L27.3906 29.1094
L57.625 0
L45.9062 0
L18.1094 26.7031
L18.1094 0
L9.07812 0
z
" id="DejaVuSans-6b"/>
     <path d="
M9.42188 75.9844
L18.4062 75.9844
L18.4062 0
L9.42188 0
z
" id="DejaVuSans-6c"/>
     <path d="
M48.7812 52.5938
L48.7812 44.1875
Q44.9688 46.2969 41.1406 47.3438
Q37.3125 48.3906 33.4062 48.3906
Q24.6562 48.3906 19.8125 42.8438
Q14.9844 37.3125 14.9844 27.2969
Q14.9844 17.2812 19.8125 11.7344
Q24.6562 6.20312 33.4062 6.20312
Q37.3125 6.20312 41.1406 7.25
Q44.9688 8.29688 48.7812 10.4062
L48.7812 2.09375
Q45.0156 0.34375 40.9844 -0.53125
Q36.9688 -1.42188 32.4219 -1.42188
Q20.0625 -1.42188 12.7812 6.34375
Q5.51562 14.1094 5.51562 27.2969
Q5.51562 40.6719 12.8594 48.3281
Q20.2188 56 33.0156 56
Q37.1562 56 41.1094 55.1406
Q45.0625 54.2969 48.7812 52.5938" id="DejaVuSans-63"/>
     <path d="
M34.1875 63.1875
L20.7969 26.9062
L47.6094 26.9062
z

M28.6094 72.9062
L39.7969 72.9062
L67.5781 0
L57.3281 0
L50.6875 18.7031
L17.8281 18.7031
L11.1875 0
L0.78125 0
z
" id="DejaVuSans-41"/>
     <path d="
M44.3906 34.1875
Q47.5625 33.1094 50.5625 29.5938
Q53.5625 26.0781 56.5938 19.9219
L66.6094 0
L56 0
L46.6875 18.7031
Q43.0625 26.0312 39.6719 28.4219
Q36.2812 30.8125 30.4219 30.8125
L19.6719 30.8125
L19.6719 0
L9.8125 0
L9.8125 72.9062
L32.0781 72.9062
Q44.5781 72.9062 50.7344 67.6719
Q56.8906 62.4531 56.8906 51.9062
Q56.8906 45.0156 53.6875 40.4688
Q50.4844 35.9375 44.3906 34.1875
M19.6719 64.7969
L19.6719 38.9219
L32.0781 38.9219
Q39.2031 38.9219 42.8438 42.2188
Q46.4844 45.5156 46.4844 51.9062
Q46.4844 58.2969 42.8438 61.5469
Q39.2031 64.7969 32.0781 64.7969
z
" id="DejaVuSans-52"/>
     <path d="
M8.5 21.5781
L8.5 54.6875
L17.4844 54.6875
L17.4844 21.9219
Q17.4844 14.1562 20.5 10.2656
Q23.5312 6.39062 29.5938 6.39062
Q36.8594 6.39062 41.0781 11.0312
Q45.3125 15.6719 45.3125 23.6875
L45.3125 54.6875
L54.2969 54.6875
L54.2969 0
L45.3125 0
L45.3125 8.40625
Q42.0469 3.42188 37.7188 1
Q33.4062 -1.42188 27.6875 -1.42188
Q18.2656 -1.42188 13.375 4.4375
Q8.5 10.2969 8.5 21.5781
M31.1094 56
z
" id="DejaVuSans-75"/>
     <path d="
M18.3125 70.2188
L18.3125 54.6875
L36.8125 54.6875
L36.8125 47.7031
L18.3125 47.7031
L18.3125 18.0156
Q18.3125 11.3281 20.1406 9.42188
Q21.9688 7.51562 27.5938 7.51562
L36.8125 7.51562
L36.8125 0
L27.5938 0
Q17.1875 0 13.2344 3.875
Q9.28125 7.76562 9.28125 18.0156
L9.28125 47.7031
L2.6875 47.7031
L2.6875 54.6875
L9.28125 54.6875
L9.28125 70.2188
z
" id="DejaVuSans-74"/>
     <path d="
M45.4062 46.3906
L45.4062 75.9844
L54.3906 75.9844
L54.3906 0
L45.4062 0
L45.4062 8.20312
Q42.5781 3.32812 38.25 0.953125
Q33.9375 -1.42188 27.875 -1.42188
Q17.9688 -1.42188 11.7344 6.48438
Q5.51562 14.4062 5.51562 27.2969
Q5.51562 40.1875 11.7344 48.0938
Q17.9688 56 27.875 56
Q33.9375 56 38.25 53.625
Q42.5781 51.2656 45.4062 46.3906
M14.7969 27.2969
Q14.7969 17.3906 18.875 11.75
Q22.9531 6.10938 30.0781 6.10938
Q37.2031 6.10938 41.2969 11.75
Q45.4062 17.3906 45.4062 27.2969
Q45.4062 37.2031 41.2969 42.8438
Q37.2031 48.4844 30.0781 48.4844
Q22.9531 48.4844 18.875 42.8438
Q14.7969 37.2031 14.7969 27.2969" id="DejaVuSans-64"/>
     <path d="
M19.6719 64.7969
L19.6719 37.4062
L32.0781 37.4062
Q38.9688 37.4062 42.7188 40.9688
Q46.4844 44.5312 46.4844 51.125
Q46.4844 57.6719 42.7188 61.2344
Q38.9688 64.7969 32.0781 64.7969
z

M9.8125 72.9062
L32.0781 72.9062
Q44.3438 72.9062 50.6094 67.3594
Q56.8906 61.8125 56.8906 51.125
Q56.8906 40.3281 50.6094 34.8125
Q44.3438 29.2969 32.0781 29.2969
L19.6719 29.2969
L19.6719 0
L9.8125 0
z
" id="DejaVuSans-50"/>
     <path d="
M18.1094 8.20312
L18.1094 -20.7969
L9.07812 -20.7969
L9.07812 54.6875
L18.1094 54.6875
L18.1094 46.3906
Q20.9531 51.2656 25.2656 53.625
Q29.5938 56 35.5938 56
Q45.5625 56 51.7812 48.0938
Q58.0156 40.1875 58.0156 27.2969
Q58.0156 14.4062 51.7812 6.48438
Q45.5625 -1.42188 35.5938 -1.42188
Q29.5938 -1.42188 25.2656 0.953125
Q20.9531 3.32812 18.1094 8.20312
M48.6875 27.2969
Q48.6875 37.2031 44.6094 42.8438
Q40.5312 48.4844 33.4062 48.4844
Q26.2656 48.4844 22.1875 42.8438
Q18.1094 37.2031 18.1094 27.2969
Q18.1094 17.3906 22.1875 11.75
Q26.2656 6.10938 33.4062 6.10938
Q40.5312 6.10938 44.6094 11.75
Q48.6875 17.3906 48.6875 27.2969" id="DejaVuSans-70"/>
     <path d="
M34.2812 27.4844
Q23.3906 27.4844 19.1875 25
Q14.9844 22.5156 14.9844 16.5
Q14.9844 11.7188 18.1406 8.90625
Q21.2969 6.10938 26.7031 6.10938
Q34.1875 6.10938 38.7031 11.4062
Q43.2188 16.7031 43.2188 25.4844
L43.2188 27.4844
z

M52.2031 31.2031
L52.2031 0
L43.2188 0
L43.2188 8.29688
Q40.1406 3.32812 35.5469 0.953125
Q30.9531 -1.42188 24.3125 -1.42188
Q15.9219 -1.42188 10.9531 3.29688
Q6 8.01562 6 15.9219
Q6 25.1406 12.1719 29.8281
Q18.3594 34.5156 30.6094 34.5156
L43.2188 34.5156
L43.2188 35.4062
Q43.2188 41.6094 39.1406 45
Q35.0625 48.3906 27.6875 48.3906
Q23 48.3906 18.5469 47.2656
Q14.1094 46.1406 10.0156 43.8906
L10.0156 52.2031
Q14.9375 54.1094 19.5781 55.0469
Q24.2188 56 28.6094 56
Q40.4844 56 46.3438 49.8438
Q52.2031 43.7031 52.2031 31.2031" id="DejaVuSans-61"/>
    </defs>
    <g transform="translate(55.1685 18.14175)scale(0.144 -0.144)">
     <use xlink:href="#DejaVuSans-4d"/>
     <use x="86.279296875" xlink:href="#DejaVuSans-75"/>
     <use x="149.658203125" xlink:href="#DejaVuSans-6c"/>
     <use x="177.44140625" xlink:href="#DejaVuSans-74"/>
     <use x="216.650390625" xlink:href="#DejaVuSans-69"/>
     <use x="244.43359375" xlink:href="#DejaVuSans-70"/>
     <use x="307.91015625" xlink:href="#DejaVuSans-6c"/>
     <use x="335.693359375" xlink:href="#DejaVuSans-65"/>
     <use x="397.216796875" xlink:href="#DejaVuSans-20"/>
     <use x="429.00390625" xlink:href="#DejaVuSans-50"/>
     <use x="484.806640625" xlink:href="#DejaVuSans-61"/>
     <use x="546.0859375" xlink:href="#DejaVuSans-63"/>
     <use x="601.06640625" xlink:href="#DejaVuSans-6b"/>
     <use x="655.3515625" xlink:href="#DejaVuSans-65"/>
     <use x="716.875" xlink:href="#DejaVuSans-74"/>
     <use x="756.083984375" xlink:href="#DejaVuSans-20"/>
     <use x="787.87109375" xlink:href="#DejaVuSans-54"/>
     <use x="834.205078125" xlink:href="#DejaVuSans-72"/>
     <use x="875.318359375" xlink:href="#DejaVuSans-61"/>
     <use x="936.59765625" xlink:href="#DejaVuSans-6e"/>
     <use x="999.9765625" xlink:href="#DejaVuSans-73"/>
     <use x="1052.07617188" xlink:href="#DejaVuSans-6d"/>
     <use x="1149.48828125" xlink:href="#DejaVuSans-69"/>
     <use x="1177.27148438" xlink:href="#DejaVuSans-73"/>
     <use x="1229.37109375" xlink:href="#DejaVuSans-73"/>
     <use x="1281.47070312" xlink:href="#DejaVuSans-69"/>
     <use x="1309.25390625" xlink:href="#DejaVuSans-6f"/>
     <use x="1370.43554688" xlink:href="#DejaVuSans-6e"/>
     <use x="1433.81445312" xlink:href="#DejaVuSans-20"/>
     <use x="1465.6015625" xlink:href="#DejaVuSans-52"/>
     <use x="1530.58398438" xlink:href="#DejaVuSans-65"/>
     <use x="1592.10742188" xlink:href="#DejaVuSans-74"/>
     <use x="1631.31640625" xlink:href="#DejaVuSans-72"/>
     <use x="1672.4296875" xlink:href="#DejaVuSans-69"/>
     <use x="1700.21289062" xlink:href="#DejaVuSans-65"/>
     <use x="1761.73632812" xlink:href="#DejaVuSans-73"/>
     <use x="1813.8359375" xlink:href="#DejaVuSans-2f"/>
     <use x="1847.52734375" xlink:href="#DejaVuSans-20"/>
     <use x="1879.31445312" xlink:href="#DejaVuSans-41"/>
     <use x="1947.72265625" xlink:href="#DejaVuSans-6c"/>
     <use x="1975.50585938" xlink:href="#DejaVuSans-6c"/>
     <use x="2003.2890625" xlink:href="#DejaVuSans-20"/>
     <use x="2035.07617188" xlink:href="#DejaVuSans-54"/>
     <use x="2081.41015625" xlink:href="#DejaVuSans-72"/>
     <use x="2122.5234375" xlink:href="#DejaVuSans-61"/>
     <use x="2183.80273438" xlink:href="#DejaVuSans-6e"/>
     <use x="2247.18164062" xlink:href="#DejaVuSans-73"/>
     <use x="2299.28125" xlink:href="#DejaVuSans-6d"/>
     <use x="2396.69335938" xlink:href="#DejaVuSans-69"/>
     <use x="2424.4765625" xlink:href="#DejaVuSans-74"/>
     <use x="2463.68554688" xlink:href="#DejaVuSans-74"/>
     <use x="2502.89453125" xlink:href="#DejaVuSans-65"/>
     <use x="2564.41796875" xlink:href="#DejaVuSans-64"/>
     <use x="2627.89453125" xlink:href="#DejaVuSans-20"/>
     <use x="2659.68164062" xlink:href="#DejaVuSans-50"/>
     <use x="2715.484375" xlink:href="#DejaVuSans-61"/>
     <use x="2776.76367188" xlink:href="#DejaVuSans-63"/>
     <use x="2831.74414062" xlink:href="#DejaVuSans-6b"/>
     <use x="2886.02929688" xlink:href="#DejaVuSans-65"/>
     <use x="2947.55273438" xlink:href="#DejaVuSans-74"/>
     <use x="2986.76171875" xlink:href="#DejaVuSans-73"/>
    </g>
   </g>
   <g id="legend_1">
    <g id="patch_7">
     <path d="
M519.127 202.295
L632.984 202.295
L632.984 126.822
L519.127 126.822
L519.127 202.295
z
" style="fill:#ffffff;stroke:#000000;"/>
    </g>
    <g id="line2d_48">
     <path d="
M526.127 134.92
L540.127 134.92" style="fill:none;stroke:#0000ff;"/>
    </g>
    <g id="line2d_49"/>
    <g id="text_18">
     <!-- 1 -->
     <g transform="translate(551.1275 138.4201875)scale(0.1 -0.1)">
      <use xlink:href="#DejaVuSans-31"/>
     </g>
    </g>
    <g id="line2d_50">
     <path d="
M526.127 149.598
L540.127 149.598" style="fill:none;stroke:#008000;"/>
    </g>
    <g id="line2d_51"/>
    <g id="text_19">
     <!-- 1,6,11 -->
     <defs>
      <path d="
M11.7188 12.4062
L22.0156 12.4062
L22.0156 4
L14.0156 -11.625
L7.71875 -11.625
L11.7188 4
z
" id="DejaVuSans-2c"/>
     </defs>
     <g transform="translate(551.1275 153.0983125)scale(0.1 -0.1)">
      <use xlink:href="#DejaVuSans-31"/>
      <use x="63.623046875" xlink:href="#DejaVuSans-2c"/>
      <use x="95.41015625" xlink:href="#DejaVuSans-36"/>
      <use x="159.033203125" xlink:href="#DejaVuSans-2c"/>
      <use x="190.8203125" xlink:href="#DejaVuSans-31"/>
      <use x="254.443359375" xlink:href="#DejaVuSans-31"/>
     </g>
    </g>
    <g id="line2d_52">
     <path d="
M526.127 164.276
L540.127 164.276" style="fill:none;stroke:#ff0000;"/>
    </g>
    <g id="line2d_53"/>
    <g id="text_20">
     <!-- 1,6,11,36,40,44 -->
     <g transform="translate(551.1275 167.7764375)scale(0.1 -0.1)">
      <use xlink:href="#DejaVuSans-31"/>
      <use x="63.623046875" xlink:href="#DejaVuSans-2c"/>
      <use x="95.41015625" xlink:href="#DejaVuSans-36"/>
      <use x="159.033203125" xlink:href="#DejaVuSans-2c"/>
      <use x="190.8203125" xlink:href="#DejaVuSans-31"/>
      <use x="254.443359375" xlink:href="#DejaVuSans-31"/>
      <use x="318.06640625" xlink:href="#DejaVuSans-2c"/>
      <use x="349.853515625" xlink:href="#DejaVuSans-33"/>
      <use x="413.4765625" xlink:href="#DejaVuSans-36"/>
      <use x="477.099609375" xlink:href="#DejaVuSans-2c"/>
      <use x="508.88671875" xlink:href="#DejaVuSans-34"/>
      <use x="572.509765625" xlink:href="#DejaVuSans-30"/>
      <use x="636.1328125" xlink:href="#DejaVuSans-2c"/>
      <use x="667.919921875" xlink:href="#DejaVuSans-34"/>
      <use x="731.54296875" xlink:href="#DejaVuSans-34"/>
     </g>
    </g>
    <g id="line2d_54">
     <path d="
M526.127 178.955
L540.127 178.955" style="fill:none;stroke:#00bfbf;"/>
    </g>
    <g id="line2d_55"/>
    <g id="text_21">
     <!-- 36 -->
     <g transform="translate(551.1275 182.4545625)scale(0.1 -0.1)">
      <use xlink:href="#DejaVuSans-33"/>
      <use x="63.623046875" xlink:href="#DejaVuSans-36"/>
     </g>
    </g>
    <g id="line2d_56">
     <path d="
M526.127 193.633
L540.127 193.633" style="fill:none;stroke:#bf00bf;"/>
    </g>
    <g id="line2d_57"/>
    <g id="text_22">
     <!-- 36,40,44 -->
     <g transform="translate(551.1275 197.1326875)scale(0.1 -0.1)">
      <use xlink:href="#DejaVuSans-33"/>
      <use x="63.623046875" xlink:href="#DejaVuSans-36"/>
      <use x="127.24609375" xlink:href="#DejaVuSans-2c"/>
      <use x="159.033203125" xlink:href="#DejaVuSans-34"/>
      <use x="222.65625" xlink:href="#DejaVuSans-30"/>
      <use x="286.279296875" xlink:href="#DejaVuSans-2c"/>
      <use x="318.06640625" xlink:href="#DejaVuSans-34"/>
      <use x="381.689453125" xlink:href="#DejaVuSans-34"/>
     </g>
    </g>
   </g>
  </g>
 </g>
 <defs>
  <clipPath id="p708ed26dbf">
   <rect height="345.6" width="446.4" x="50.4075" y="23.14175"/>
  </clipPath>
 </defs>
</svg>
