<?xml version="1.0" encoding="utf-8" standalone="no"?>
<!DOCTYPE svg PUBLIC "-//W3C//DTD SVG 1.1//EN"
  "http://www.w3.org/Graphics/SVG/1.1/DTD/svg11.dtd">
<!-- Created with matplotlib (http://matplotlib.sourceforge.net/) -->
<svg height="403pt" version="1.1" viewBox="0 0 640 403" width="640pt" xmlns="http://www.w3.org/2000/svg" xmlns:xlink="http://www.w3.org/1999/xlink">
 <defs>
  <style type="text/css">
*{stroke-linecap:square;stroke-linejoin:round;}
  </style>
 </defs>
 <g id="figure_1">
  <g id="patch_1">
   <path d="
M0 403.307
L640.308 403.307
L640.308 0
L0 0
z
" style="fill:#ffffff;"/>
  </g>
  <g id="axes_1">
   <g id="patch_2">
    <path d="
M50.5312 368.742
L496.931 368.742
L496.931 23.1417
L50.5312 23.1417
z
" style="fill:#ffffff;"/>
   </g>
   <g id="line2d_1">
    <path clip-path="url(#p625b603578)" d="
M50.5312 204.17
L55.7392 197.745
L60.9472 246.963
L66.1552 228.784
L71.3632 236.935
L76.5712 243.325
L81.7793 244.647
L86.9873 205.285
L92.1953 226.681
L97.4032 249.813
L102.611 230.321
L107.819 227.632
L113.027 208.478
L118.235 214.266
L123.443 217.857
L128.651 216.434
L133.859 212.743
L139.067 239.258
L144.275 273.785
L149.483 245.727
L154.691 248.998
L159.899 230.103
L165.107 233.129
L170.315 246.324
L175.523 252.6
L180.731 259.735
L185.939 255.542
L191.147 236.781
L196.355 235.72
L201.563 250.986
L206.771 256.825
L211.979 245.531
L217.187 251.8
L222.395 258.176
L227.603 249.428
L232.811 255.517
L238.019 245.961
L243.227 221.148
L248.435 240.275
L253.643 247.782
L258.851 240.781
L264.059 263.067
L269.267 255.874
L274.475 257.053
L279.683 244.229
L284.891 253.936
L290.099 242.002
L295.307 245.871
L300.515 227.094
L305.723 251.487
L310.931 272.408
L316.139 254.177
L321.347 272.388
L326.555 270.369
L331.763 261.808
L336.971 264.371
L342.179 263.795
L347.387 249.32
L352.595 250.13
L357.803 242.657
L363.011 250.88
L368.219 256.683
L373.427 259.012
L378.635 240.377
L383.843 215.688
L389.051 206.361
L394.259 249.212
L399.467 251.637
L404.675 260.19
L409.883 265.504
L415.091 265.642
L420.299 249.65
L425.507 239.66
L430.715 231.369
L435.923 238.873
L441.131 240.617
L446.339 248.112
L451.547 236.915
L456.755 250.491
L461.963 217.803
L467.171 229.398
L472.379 227.895
L477.587 248.248
L482.795 269.353
L488.003 259.68
L493.211 226.825
L498.419 228.442
L503.627 235.088" style="fill:none;stroke:#0000ff;"/>
   </g>
   <g id="line2d_2">
    <path clip-path="url(#p625b603578)" d="
M50.5312 331.477
L55.7392 318.523
L60.9472 321.699
L66.1552 313.623
L71.3632 326.649
L76.5712 299.455
L81.7793 327.627
L86.9873 324.257
L92.1953 317.719
L97.4032 316.855
L102.611 317.88
L107.819 301.607
L113.027 304.233
L118.235 304.326
L123.443 318.572
L128.651 320.851
L133.859 318.85
L139.067 322.282
L144.275 323.208
L149.483 313.058
L154.691 313.35
L159.899 307.264
L165.107 306.187
L170.315 308.394
L175.523 324.948
L180.731 315.63
L185.939 318.289
L191.147 314.337
L196.355 310.669
L201.563 289.468
L206.771 231.879
L211.979 308.435
L217.187 336.555
L222.395 338.648
L227.603 338.411
L232.811 334.023
L238.019 334.91
L243.227 334.576
L248.435 330.525
L253.643 325.458
L258.851 327.534
L264.059 317.031
L269.267 332.881
L274.475 333.773
L279.683 328.819
L284.891 332.221
L290.099 325.626
L295.307 328.531
L300.515 319.638
L305.723 318.921
L310.931 319.04
L316.139 312.608
L321.347 331.304
L326.555 329.312
L331.763 320.787
L336.971 337.802
L342.179 342.726
L347.387 331.571
L352.595 338.378
L357.803 334.281
L363.011 326.028
L368.219 327.17
L373.427 334.854
L378.635 340.246
L383.843 340.825
L389.051 335.672
L394.259 324.587
L399.467 325.958
L404.675 327.399
L409.883 330.556
L415.091 336.676
L420.299 324.78
L425.507 328.206
L430.715 330.105
L435.923 328.417
L441.131 333.347
L446.339 319.081
L451.547 304.788
L456.755 312.559
L461.963 315.856
L467.171 311.385
L472.379 318.205
L477.587 306.003
L482.795 313.317
L488.003 317.005
L493.211 331.86
L498.419 319.394
L503.627 324.621" style="fill:none;stroke:#008000;"/>
   </g>
   <g id="line2d_3">
    <path clip-path="url(#p625b603578)" d="
M50.5312 334.514
L55.7392 331.48
L60.9472 333.396
L66.1552 340.754
L71.3632 353.073
L76.5712 358.76
L81.7793 354.797
L86.9873 356.407
L92.1953 351.596
L97.4032 347.588
L102.611 347.168
L107.819 365.665
L113.027 367.281
L118.235 364.701
L123.443 363.48
L128.651 353.562
L133.859 355.538
L139.067 348.703
L144.275 346.313
L149.483 349.183
L154.691 355.054
L159.899 356.149
L165.107 359.095
L170.315 360.246
L175.523 356.34
L180.731 353.799
L185.939 346.713
L191.147 348.125
L196.355 357.022
L201.563 353.863
L206.771 356.263
L211.979 355.057
L217.187 357.472
L222.395 365.361
L227.603 365.451
L232.811 366.628
L238.019 365.925
L243.227 352.84
L248.435 351.585
L253.643 349.333
L258.851 349.078
L264.059 350.86
L269.267 356.704
L274.475 350.474
L279.683 359.557
L284.891 363.367
L290.099 366.854
L295.307 365.62
L300.515 364.921
L305.723 361.617
L310.931 358.482
L316.139 360.66
L321.347 348.566
L326.555 318.957
L331.763 358.295
L336.971 361.077
L342.179 359.9
L347.387 364.014
L352.595 365.574
L357.803 362.436
L363.011 361.438
L368.219 368.495
L373.427 364.489
L378.635 358.861
L383.843 362.903
L389.051 360.272
L394.259 359.083
L399.467 362.99
L404.675 361.742
L409.883 360.324
L415.091 359.773
L420.299 362.624
L425.507 368.49
L430.715 363.2
L435.923 360.193
L441.131 357.913
L446.339 358.806
L451.547 354.764
L456.755 354.659
L461.963 359.673
L467.171 355.425
L472.379 357.976
L477.587 357.782
L482.795 351.715
L488.003 352.144
L493.211 346.716
L498.419 357.662
L503.627 366.855" style="fill:none;stroke:#ff0000;"/>
   </g>
   <g id="line2d_4">
    <path clip-path="url(#p625b603578)" d="
M50.5312 172.984
L55.7392 201.113
L60.9472 180.156
L66.1552 169.56
L71.3632 157.838
L76.5712 156.757
L81.7793 141.082
L86.9873 154.454
L92.1953 154.804
L97.4032 107.309
L102.611 113.578
L107.819 113.497
L113.027 118.351
L118.235 134.621
L123.443 150.275
L128.651 128.202
L133.859 131.785
L139.067 103.435
L144.275 115.987
L149.483 114.151
L154.691 134.283
L159.899 93.9091
L165.107 83.6132
L170.315 97.9773
L175.523 112.81
L180.731 101.516
L185.939 67.7221
L191.147 79.4661
L196.355 94.3619
L201.563 118.554
L206.771 98.6347
L211.979 118.666
L217.187 137.521
L222.395 102.856
L227.603 109.049
L232.811 117.592
L238.019 137.406
L243.227 136.605
L248.435 131.784
L253.643 124.728
L258.851 128.976
L264.059 124.695
L269.267 110.568
L274.475 99.4908
L279.683 79.4247
L284.891 108.617
L290.099 112.516
L295.307 104.358
L300.515 124.007
L305.723 122.039
L310.931 111.21
L316.139 118
L321.347 136.908
L326.555 107.029
L331.763 155.148
L336.971 142.032
L342.179 100.569
L347.387 85.3275
L352.595 73.7916
L357.803 145.26
L363.011 113.543
L368.219 136.413
L373.427 123.524
L378.635 103.573
L383.843 83.1098
L389.051 103.426
L394.259 117.586
L399.467 116.54
L404.675 77.0308
L409.883 83.1838
L415.091 121.216
L420.299 95.4156
L425.507 63.9574
L430.715 77.8649
L435.923 73.7564
L441.131 94.263
L446.339 115.055
L451.547 97.2437
L456.755 104.347
L461.963 52.6881
L467.171 101.194
L472.379 45.587
L477.587 142.384
L482.795 86.7035
L488.003 103.975
L493.211 123.817
L498.419 109.608
L503.627 88.1916" style="fill:none;stroke:#00bfbf;"/>
   </g>
   <g id="line2d_5">
    <path clip-path="url(#p625b603578)" d="
M50.5312 303.808
L55.7392 300.643
L60.9472 300.282
L66.1552 294.475
L71.3632 282.075
L76.5712 284.848
L81.7793 305.98
L86.9873 298.766
L92.1953 277.727
L97.4032 281.191
L102.611 302.055
L107.819 312.224
L113.027 299.126
L118.235 303.143
L123.443 290.011
L128.651 291.733
L133.859 288.084
L139.067 281.467
L144.275 289.094
L149.483 293.896
L154.691 279.032
L159.899 308.418
L165.107 292.448
L170.315 294.765
L175.523 292.563
L180.731 291.296
L185.939 288.535
L191.147 299
L196.355 291.681
L201.563 284.993
L206.771 294.57
L211.979 298.381
L217.187 292.496
L222.395 290.689
L227.603 293.738
L232.811 296.662
L238.019 273.858
L243.227 278.868
L248.435 285.531
L253.643 281.366
L258.851 280.123
L264.059 295.288
L269.267 295.147
L274.475 295.914
L279.683 293.554
L284.891 287.302
L290.099 285.161
L295.307 276.433
L300.515 285.196
L305.723 286.004
L310.931 292.541
L316.139 294.003
L321.347 298.845
L326.555 289.174
L331.763 292.283
L336.971 294.819
L342.179 303.432
L347.387 297.356
L352.595 295.279
L357.803 303.5
L363.011 286.557
L368.219 313.969
L373.427 302.741
L378.635 307.67
L383.843 295.1
L389.051 284.873
L394.259 289
L399.467 282.731
L404.675 285.167
L409.883 292.651
L415.091 265.661
L420.299 283.667
L425.507 283.926
L430.715 273.173
L435.923 245.168
L441.131 283.183
L446.339 300.359
L451.547 309.17
L456.755 304.555
L461.963 298.305
L467.171 293.968
L472.379 294.154
L477.587 308.263
L482.795 301.681
L488.003 300.424
L493.211 297.503
L498.419 262.723
L503.627 285.881" style="fill:none;stroke:#bf00bf;"/>
   </g>
   <g id="matplotlib.axis_1">
    <g id="xtick_1">
     <g id="line2d_6">
      <path clip-path="url(#p625b603578)" d="
M50.5312 368.742
L50.5312 23.1417" style="fill:none;stroke:#000000;stroke-dasharray:1.000000,3.000000;stroke-dashoffset:0.0;stroke-linecap:butt;stroke-width:0.5;"/>
     </g>
     <g id="line2d_7">
      <defs>
       <path d="
M0 0
L0 -4" id="m0012dd4eef" style="stroke:#000000;stroke-linecap:butt;stroke-width:0.5;"/>
      </defs>
      <g>
       <use style="stroke:#000000;stroke-linecap:butt;stroke-width:0.5;" x="50.53125" xlink:href="#m0012dd4eef" y="368.74175"/>
      </g>
     </g>
     <g id="line2d_8">
      <defs>
       <path d="
M0 0
L0 4" id="m476344969c" style="stroke:#000000;stroke-linecap:butt;stroke-width:0.5;"/>
      </defs>
      <g>
       <use style="stroke:#000000;stroke-linecap:butt;stroke-width:0.5;" x="50.53125" xlink:href="#m476344969c" y="23.14175"/>
      </g>
     </g>
     <g id="text_1">
      <!-- 0 -->
      <defs>
       <path d="
M31.7812 66.4062
Q24.1719 66.4062 20.3281 58.9062
Q16.5 51.4219 16.5 36.375
Q16.5 21.3906 20.3281 13.8906
Q24.1719 6.39062 31.7812 6.39062
Q39.4531 6.39062 43.2812 13.8906
Q47.125 21.3906 47.125 36.375
Q47.125 51.4219 43.2812 58.9062
Q39.4531 66.4062 31.7812 66.4062
M31.7812 74.2188
Q44.0469 74.2188 50.5156 64.5156
Q56.9844 54.8281 56.9844 36.375
Q56.9844 17.9688 50.5156 8.26562
Q44.0469 -1.42188 31.7812 -1.42188
Q19.5312 -1.42188 13.0625 8.26562
Q6.59375 17.9688 6.59375 36.375
Q6.59375 54.8281 13.0625 64.5156
Q19.5312 74.2188 31.7812 74.2188" id="DejaVuSans-30"/>
      </defs>
      <g transform="translate(47.5078125 381.648)scale(0.12 -0.12)">
       <use xlink:href="#DejaVuSans-30"/>
      </g>
     </g>
    </g>
    <g id="xtick_2">
     <g id="line2d_9">
      <path clip-path="url(#p625b603578)" d="
M124.931 368.742
L124.931 23.1417" style="fill:none;stroke:#000000;stroke-dasharray:1.000000,3.000000;stroke-dashoffset:0.0;stroke-linecap:butt;stroke-width:0.5;"/>
     </g>
     <g id="line2d_10">
      <g>
       <use style="stroke:#000000;stroke-linecap:butt;stroke-width:0.5;" x="124.93125" xlink:href="#m0012dd4eef" y="368.74175"/>
      </g>
     </g>
     <g id="line2d_11">
      <g>
       <use style="stroke:#000000;stroke-linecap:butt;stroke-width:0.5;" x="124.93125" xlink:href="#m476344969c" y="23.14175"/>
      </g>
     </g>
     <g id="text_2">
      <!-- 100 -->
      <defs>
       <path d="
M12.4062 8.29688
L28.5156 8.29688
L28.5156 63.9219
L10.9844 60.4062
L10.9844 69.3906
L28.4219 72.9062
L38.2812 72.9062
L38.2812 8.29688
L54.3906 8.29688
L54.3906 0
L12.4062 0
z
" id="DejaVuSans-31"/>
      </defs>
      <g transform="translate(114.53625 381.648)scale(0.12 -0.12)">
       <use xlink:href="#DejaVuSans-31"/>
       <use x="63.623046875" xlink:href="#DejaVuSans-30"/>
       <use x="127.24609375" xlink:href="#DejaVuSans-30"/>
      </g>
     </g>
    </g>
    <g id="xtick_3">
     <g id="line2d_12">
      <path clip-path="url(#p625b603578)" d="
M199.331 368.742
L199.331 23.1417" style="fill:none;stroke:#000000;stroke-dasharray:1.000000,3.000000;stroke-dashoffset:0.0;stroke-linecap:butt;stroke-width:0.5;"/>
     </g>
     <g id="line2d_13">
      <g>
       <use style="stroke:#000000;stroke-linecap:butt;stroke-width:0.5;" x="199.33125" xlink:href="#m0012dd4eef" y="368.74175"/>
      </g>
     </g>
     <g id="line2d_14">
      <g>
       <use style="stroke:#000000;stroke-linecap:butt;stroke-width:0.5;" x="199.33125" xlink:href="#m476344969c" y="23.14175"/>
      </g>
     </g>
     <g id="text_3">
      <!-- 200 -->
      <defs>
       <path d="
M19.1875 8.29688
L53.6094 8.29688
L53.6094 0
L7.32812 0
L7.32812 8.29688
Q12.9375 14.1094 22.625 23.8906
Q32.3281 33.6875 34.8125 36.5312
Q39.5469 41.8438 41.4219 45.5312
Q43.3125 49.2188 43.3125 52.7812
Q43.3125 58.5938 39.2344 62.25
Q35.1562 65.9219 28.6094 65.9219
Q23.9688 65.9219 18.8125 64.3125
Q13.6719 62.7031 7.8125 59.4219
L7.8125 69.3906
Q13.7656 71.7812 18.9375 73
Q24.125 74.2188 28.4219 74.2188
Q39.75 74.2188 46.4844 68.5469
Q53.2188 62.8906 53.2188 53.4219
Q53.2188 48.9219 51.5312 44.8906
Q49.8594 40.875 45.4062 35.4062
Q44.1875 33.9844 37.6406 27.2188
Q31.1094 20.4531 19.1875 8.29688" id="DejaVuSans-32"/>
      </defs>
      <g transform="translate(188.716875 381.648)scale(0.12 -0.12)">
       <use xlink:href="#DejaVuSans-32"/>
       <use x="63.623046875" xlink:href="#DejaVuSans-30"/>
       <use x="127.24609375" xlink:href="#DejaVuSans-30"/>
      </g>
     </g>
    </g>
    <g id="xtick_4">
     <g id="line2d_15">
      <path clip-path="url(#p625b603578)" d="
M273.731 368.742
L273.731 23.1417" style="fill:none;stroke:#000000;stroke-dasharray:1.000000,3.000000;stroke-dashoffset:0.0;stroke-linecap:butt;stroke-width:0.5;"/>
     </g>
     <g id="line2d_16">
      <g>
       <use style="stroke:#000000;stroke-linecap:butt;stroke-width:0.5;" x="273.73125" xlink:href="#m0012dd4eef" y="368.74175"/>
      </g>
     </g>
     <g id="line2d_17">
      <g>
       <use style="stroke:#000000;stroke-linecap:butt;stroke-width:0.5;" x="273.73125" xlink:href="#m476344969c" y="23.14175"/>
      </g>
     </g>
     <g id="text_4">
      <!-- 300 -->
      <defs>
       <path d="
M40.5781 39.3125
Q47.6562 37.7969 51.625 33
Q55.6094 28.2188 55.6094 21.1875
Q55.6094 10.4062 48.1875 4.48438
Q40.7656 -1.42188 27.0938 -1.42188
Q22.5156 -1.42188 17.6562 -0.515625
Q12.7969 0.390625 7.625 2.20312
L7.625 11.7188
Q11.7188 9.32812 16.5938 8.10938
Q21.4844 6.89062 26.8125 6.89062
Q36.0781 6.89062 40.9375 10.5469
Q45.7969 14.2031 45.7969 21.1875
Q45.7969 27.6406 41.2812 31.2656
Q36.7656 34.9062 28.7188 34.9062
L20.2188 34.9062
L20.2188 43.0156
L29.1094 43.0156
Q36.375 43.0156 40.2344 45.9219
Q44.0938 48.8281 44.0938 54.2969
Q44.0938 59.9062 40.1094 62.9062
Q36.1406 65.9219 28.7188 65.9219
Q24.6562 65.9219 20.0156 65.0312
Q15.375 64.1562 9.8125 62.3125
L9.8125 71.0938
Q15.4375 72.6562 20.3438 73.4375
Q25.25 74.2188 29.5938 74.2188
Q40.8281 74.2188 47.3594 69.1094
Q53.9062 64.0156 53.9062 55.3281
Q53.9062 49.2656 50.4375 45.0938
Q46.9688 40.9219 40.5781 39.3125" id="DejaVuSans-33"/>
      </defs>
      <g transform="translate(263.1346875 381.648)scale(0.12 -0.12)">
       <use xlink:href="#DejaVuSans-33"/>
       <use x="63.623046875" xlink:href="#DejaVuSans-30"/>
       <use x="127.24609375" xlink:href="#DejaVuSans-30"/>
      </g>
     </g>
    </g>
    <g id="xtick_5">
     <g id="line2d_18">
      <path clip-path="url(#p625b603578)" d="
M348.131 368.742
L348.131 23.1417" style="fill:none;stroke:#000000;stroke-dasharray:1.000000,3.000000;stroke-dashoffset:0.0;stroke-linecap:butt;stroke-width:0.5;"/>
     </g>
     <g id="line2d_19">
      <g>
       <use style="stroke:#000000;stroke-linecap:butt;stroke-width:0.5;" x="348.13125" xlink:href="#m0012dd4eef" y="368.74175"/>
      </g>
     </g>
     <g id="line2d_20">
      <g>
       <use style="stroke:#000000;stroke-linecap:butt;stroke-width:0.5;" x="348.13125" xlink:href="#m476344969c" y="23.14175"/>
      </g>
     </g>
     <g id="text_5">
      <!-- 400 -->
      <defs>
       <path d="
M37.7969 64.3125
L12.8906 25.3906
L37.7969 25.3906
z

M35.2031 72.9062
L47.6094 72.9062
L47.6094 25.3906
L58.0156 25.3906
L58.0156 17.1875
L47.6094 17.1875
L47.6094 0
L37.7969 0
L37.7969 17.1875
L4.89062 17.1875
L4.89062 26.7031
z
" id="DejaVuSans-34"/>
      </defs>
      <g transform="translate(337.370625 381.648)scale(0.12 -0.12)">
       <use xlink:href="#DejaVuSans-34"/>
       <use x="63.623046875" xlink:href="#DejaVuSans-30"/>
       <use x="127.24609375" xlink:href="#DejaVuSans-30"/>
      </g>
     </g>
    </g>
    <g id="xtick_6">
     <g id="line2d_21">
      <path clip-path="url(#p625b603578)" d="
M422.531 368.742
L422.531 23.1417" style="fill:none;stroke:#000000;stroke-dasharray:1.000000,3.000000;stroke-dashoffset:0.0;stroke-linecap:butt;stroke-width:0.5;"/>
     </g>
     <g id="line2d_22">
      <g>
       <use style="stroke:#000000;stroke-linecap:butt;stroke-width:0.5;" x="422.53125" xlink:href="#m0012dd4eef" y="368.74175"/>
      </g>
     </g>
     <g id="line2d_23">
      <g>
       <use style="stroke:#000000;stroke-linecap:butt;stroke-width:0.5;" x="422.53125" xlink:href="#m476344969c" y="23.14175"/>
      </g>
     </g>
     <g id="text_6">
      <!-- 500 -->
      <defs>
       <path d="
M10.7969 72.9062
L49.5156 72.9062
L49.5156 64.5938
L19.8281 64.5938
L19.8281 46.7344
Q21.9688 47.4688 24.1094 47.8281
Q26.2656 48.1875 28.4219 48.1875
Q40.625 48.1875 47.75 41.5
Q54.8906 34.8125 54.8906 23.3906
Q54.8906 11.625 47.5625 5.09375
Q40.2344 -1.42188 26.9062 -1.42188
Q22.3125 -1.42188 17.5469 -0.640625
Q12.7969 0.140625 7.71875 1.70312
L7.71875 11.625
Q12.1094 9.23438 16.7969 8.0625
Q21.4844 6.89062 26.7031 6.89062
Q35.1562 6.89062 40.0781 11.3281
Q45.0156 15.7656 45.0156 23.3906
Q45.0156 31 40.0781 35.4375
Q35.1562 39.8906 26.7031 39.8906
Q22.75 39.8906 18.8125 39.0156
Q14.8906 38.1406 10.7969 36.2812
z
" id="DejaVuSans-35"/>
      </defs>
      <g transform="translate(411.9403125 381.648)scale(0.12 -0.12)">
       <use xlink:href="#DejaVuSans-35"/>
       <use x="63.623046875" xlink:href="#DejaVuSans-30"/>
       <use x="127.24609375" xlink:href="#DejaVuSans-30"/>
      </g>
     </g>
    </g>
    <g id="xtick_7">
     <g id="line2d_24">
      <path clip-path="url(#p625b603578)" d="
M496.931 368.742
L496.931 23.1417" style="fill:none;stroke:#000000;stroke-dasharray:1.000000,3.000000;stroke-dashoffset:0.0;stroke-linecap:butt;stroke-width:0.5;"/>
     </g>
     <g id="line2d_25">
      <g>
       <use style="stroke:#000000;stroke-linecap:butt;stroke-width:0.5;" x="496.93125" xlink:href="#m0012dd4eef" y="368.74175"/>
      </g>
     </g>
     <g id="line2d_26">
      <g>
       <use style="stroke:#000000;stroke-linecap:butt;stroke-width:0.5;" x="496.93125" xlink:href="#m476344969c" y="23.14175"/>
      </g>
     </g>
     <g id="text_7">
      <!-- 600 -->
      <defs>
       <path d="
M33.0156 40.375
Q26.375 40.375 22.4844 35.8281
Q18.6094 31.2969 18.6094 23.3906
Q18.6094 15.5312 22.4844 10.9531
Q26.375 6.39062 33.0156 6.39062
Q39.6562 6.39062 43.5312 10.9531
Q47.4062 15.5312 47.4062 23.3906
Q47.4062 31.2969 43.5312 35.8281
Q39.6562 40.375 33.0156 40.375
M52.5938 71.2969
L52.5938 62.3125
Q48.875 64.0625 45.0938 64.9844
Q41.3125 65.9219 37.5938 65.9219
Q27.8281 65.9219 22.6719 59.3281
Q17.5312 52.7344 16.7969 39.4062
Q19.6719 43.6562 24.0156 45.9219
Q28.375 48.1875 33.5938 48.1875
Q44.5781 48.1875 50.9531 41.5156
Q57.3281 34.8594 57.3281 23.3906
Q57.3281 12.1562 50.6875 5.35938
Q44.0469 -1.42188 33.0156 -1.42188
Q20.3594 -1.42188 13.6719 8.26562
Q6.98438 17.9688 6.98438 36.375
Q6.98438 53.6562 15.1875 63.9375
Q23.3906 74.2188 37.2031 74.2188
Q40.9219 74.2188 44.7031 73.4844
Q48.4844 72.75 52.5938 71.2969" id="DejaVuSans-36"/>
      </defs>
      <g transform="translate(486.29625 381.648)scale(0.12 -0.12)">
       <use xlink:href="#DejaVuSans-36"/>
       <use x="63.623046875" xlink:href="#DejaVuSans-30"/>
       <use x="127.24609375" xlink:href="#DejaVuSans-30"/>
      </g>
     </g>
    </g>
    <g id="text_8">
     <!-- Time in s -->
     <defs>
      <path d="
M52 44.1875
Q55.375 50.25 60.0625 53.125
Q64.75 56 71.0938 56
Q79.6406 56 84.2812 50.0156
Q88.9219 44.0469 88.9219 33.0156
L88.9219 0
L79.8906 0
L79.8906 32.7188
Q79.8906 40.5781 77.0938 44.375
Q74.3125 48.1875 68.6094 48.1875
Q61.625 48.1875 57.5625 43.5469
Q53.5156 38.9219 53.5156 30.9062
L53.5156 0
L44.4844 0
L44.4844 32.7188
Q44.4844 40.625 41.7031 44.4062
Q38.9219 48.1875 33.1094 48.1875
Q26.2188 48.1875 22.1562 43.5312
Q18.1094 38.875 18.1094 30.9062
L18.1094 0
L9.07812 0
L9.07812 54.6875
L18.1094 54.6875
L18.1094 46.1875
Q21.1875 51.2188 25.4844 53.6094
Q29.7812 56 35.6875 56
Q41.6562 56 45.8281 52.9688
Q50 49.9531 52 44.1875" id="DejaVuSans-6d"/>
      <path d="
M54.8906 33.0156
L54.8906 0
L45.9062 0
L45.9062 32.7188
Q45.9062 40.4844 42.875 44.3281
Q39.8438 48.1875 33.7969 48.1875
Q26.5156 48.1875 22.3125 43.5469
Q18.1094 38.9219 18.1094 30.9062
L18.1094 0
L9.07812 0
L9.07812 54.6875
L18.1094 54.6875
L18.1094 46.1875
Q21.3438 51.125 25.7031 53.5625
Q30.0781 56 35.7969 56
Q45.2188 56 50.0469 50.1719
Q54.8906 44.3438 54.8906 33.0156" id="DejaVuSans-6e"/>
      <path id="DejaVuSans-20"/>
      <path d="
M9.42188 54.6875
L18.4062 54.6875
L18.4062 0
L9.42188 0
z

M9.42188 75.9844
L18.4062 75.9844
L18.4062 64.5938
L9.42188 64.5938
z
" id="DejaVuSans-69"/>
      <path d="
M56.2031 29.5938
L56.2031 25.2031
L14.8906 25.2031
Q15.4844 15.9219 20.4844 11.0625
Q25.4844 6.20312 34.4219 6.20312
Q39.5938 6.20312 44.4531 7.46875
Q49.3125 8.73438 54.1094 11.2812
L54.1094 2.78125
Q49.2656 0.734375 44.1875 -0.34375
Q39.1094 -1.42188 33.8906 -1.42188
Q20.7969 -1.42188 13.1562 6.1875
Q5.51562 13.8125 5.51562 26.8125
Q5.51562 40.2344 12.7656 48.1094
Q20.0156 56 32.3281 56
Q43.3594 56 49.7812 48.8906
Q56.2031 41.7969 56.2031 29.5938
M47.2188 32.2344
Q47.125 39.5938 43.0938 43.9844
Q39.0625 48.3906 32.4219 48.3906
Q24.9062 48.3906 20.3906 44.1406
Q15.875 39.8906 15.1875 32.1719
z
" id="DejaVuSans-65"/>
      <path d="
M44.2812 53.0781
L44.2812 44.5781
Q40.4844 46.5312 36.375 47.5
Q32.2812 48.4844 27.875 48.4844
Q21.1875 48.4844 17.8438 46.4375
Q14.5 44.3906 14.5 40.2812
Q14.5 37.1562 16.8906 35.375
Q19.2812 33.5938 26.5156 31.9844
L29.5938 31.2969
Q39.1562 29.25 43.1875 25.5156
Q47.2188 21.7812 47.2188 15.0938
Q47.2188 7.46875 41.1875 3.01562
Q35.1562 -1.42188 24.6094 -1.42188
Q20.2188 -1.42188 15.4531 -0.5625
Q10.6875 0.296875 5.42188 2
L5.42188 11.2812
Q10.4062 8.6875 15.2344 7.39062
Q20.0625 6.10938 24.8125 6.10938
Q31.1562 6.10938 34.5625 8.28125
Q37.9844 10.4531 37.9844 14.4062
Q37.9844 18.0625 35.5156 20.0156
Q33.0625 21.9688 24.7031 23.7812
L21.5781 24.5156
Q13.2344 26.2656 9.51562 29.9062
Q5.8125 33.5469 5.8125 39.8906
Q5.8125 47.6094 11.2812 51.7969
Q16.75 56 26.8125 56
Q31.7812 56 36.1719 55.2656
Q40.5781 54.5469 44.2812 53.0781" id="DejaVuSans-73"/>
      <path d="
M-0.296875 72.9062
L61.375 72.9062
L61.375 64.5938
L35.5 64.5938
L35.5 0
L25.5938 0
L25.5938 64.5938
L-0.296875 64.5938
z
" id="DejaVuSans-54"/>
     </defs>
     <g transform="translate(246.916875 395.93675)scale(0.12 -0.12)">
      <use xlink:href="#DejaVuSans-54"/>
      <use x="57.958984375" xlink:href="#DejaVuSans-69"/>
      <use x="85.7421875" xlink:href="#DejaVuSans-6d"/>
      <use x="183.154296875" xlink:href="#DejaVuSans-65"/>
      <use x="244.677734375" xlink:href="#DejaVuSans-20"/>
      <use x="276.46484375" xlink:href="#DejaVuSans-69"/>
      <use x="304.248046875" xlink:href="#DejaVuSans-6e"/>
      <use x="367.626953125" xlink:href="#DejaVuSans-20"/>
      <use x="399.4140625" xlink:href="#DejaVuSans-73"/>
     </g>
    </g>
   </g>
   <g id="matplotlib.axis_2">
    <g id="ytick_1">
     <g id="line2d_27">
      <path clip-path="url(#p625b603578)" d="
M50.5312 368.742
L496.931 368.742" style="fill:none;stroke:#000000;stroke-dasharray:1.000000,3.000000;stroke-dashoffset:0.0;stroke-linecap:butt;stroke-width:0.5;"/>
     </g>
     <g id="line2d_28">
      <defs>
       <path d="
M0 0
L4 0" id="me8a85f7bf6" style="stroke:#000000;stroke-linecap:butt;stroke-width:0.5;"/>
      </defs>
      <g>
       <use style="stroke:#000000;stroke-linecap:butt;stroke-width:0.5;" x="50.53125" xlink:href="#me8a85f7bf6" y="368.74175"/>
      </g>
     </g>
     <g id="line2d_29">
      <defs>
       <path d="
M0 0
L-4 0" id="m1a32005dea" style="stroke:#000000;stroke-linecap:butt;stroke-width:0.5;"/>
      </defs>
      <g>
       <use style="stroke:#000000;stroke-linecap:butt;stroke-width:0.5;" x="496.93125" xlink:href="#m1a32005dea" y="368.74175"/>
      </g>
     </g>
     <g id="text_9">
      <!-- 0.04 -->
      <defs>
       <path d="
M10.6875 12.4062
L21 12.4062
L21 0
L10.6875 0
z
" id="DejaVuSans-2e"/>
      </defs>
      <g transform="translate(21.276875 373.1095625)scale(0.12 -0.12)">
       <use xlink:href="#DejaVuSans-30"/>
       <use x="63.623046875" xlink:href="#DejaVuSans-2e"/>
       <use x="95.41015625" xlink:href="#DejaVuSans-30"/>
       <use x="159.033203125" xlink:href="#DejaVuSans-34"/>
      </g>
     </g>
    </g>
    <g id="ytick_2">
     <g id="line2d_30">
      <path clip-path="url(#p625b603578)" d="
M50.5312 330.342
L496.931 330.342" style="fill:none;stroke:#000000;stroke-dasharray:1.000000,3.000000;stroke-dashoffset:0.0;stroke-linecap:butt;stroke-width:0.5;"/>
     </g>
     <g id="line2d_31">
      <g>
       <use style="stroke:#000000;stroke-linecap:butt;stroke-width:0.5;" x="50.53125" xlink:href="#me8a85f7bf6" y="330.34175"/>
      </g>
     </g>
     <g id="line2d_32">
      <g>
       <use style="stroke:#000000;stroke-linecap:butt;stroke-width:0.5;" x="496.93125" xlink:href="#m1a32005dea" y="330.34175"/>
      </g>
     </g>
     <g id="text_10">
      <!-- 0.06 -->
      <g transform="translate(21.359375 334.7095625)scale(0.12 -0.12)">
       <use xlink:href="#DejaVuSans-30"/>
       <use x="63.623046875" xlink:href="#DejaVuSans-2e"/>
       <use x="95.41015625" xlink:href="#DejaVuSans-30"/>
       <use x="159.033203125" xlink:href="#DejaVuSans-36"/>
      </g>
     </g>
    </g>
    <g id="ytick_3">
     <g id="line2d_33">
      <path clip-path="url(#p625b603578)" d="
M50.5312 291.942
L496.931 291.942" style="fill:none;stroke:#000000;stroke-dasharray:1.000000,3.000000;stroke-dashoffset:0.0;stroke-linecap:butt;stroke-width:0.5;"/>
     </g>
     <g id="line2d_34">
      <g>
       <use style="stroke:#000000;stroke-linecap:butt;stroke-width:0.5;" x="50.53125" xlink:href="#me8a85f7bf6" y="291.94175"/>
      </g>
     </g>
     <g id="line2d_35">
      <g>
       <use style="stroke:#000000;stroke-linecap:butt;stroke-width:0.5;" x="496.93125" xlink:href="#m1a32005dea" y="291.94175"/>
      </g>
     </g>
     <g id="text_11">
      <!-- 0.08 -->
      <defs>
       <path d="
M31.7812 34.625
Q24.75 34.625 20.7188 30.8594
Q16.7031 27.0938 16.7031 20.5156
Q16.7031 13.9219 20.7188 10.1562
Q24.75 6.39062 31.7812 6.39062
Q38.8125 6.39062 42.8594 10.1719
Q46.9219 13.9688 46.9219 20.5156
Q46.9219 27.0938 42.8906 30.8594
Q38.875 34.625 31.7812 34.625
M21.9219 38.8125
Q15.5781 40.375 12.0312 44.7188
Q8.5 49.0781 8.5 55.3281
Q8.5 64.0625 14.7188 69.1406
Q20.9531 74.2188 31.7812 74.2188
Q42.6719 74.2188 48.875 69.1406
Q55.0781 64.0625 55.0781 55.3281
Q55.0781 49.0781 51.5312 44.7188
Q48 40.375 41.7031 38.8125
Q48.8281 37.1562 52.7969 32.3125
Q56.7812 27.4844 56.7812 20.5156
Q56.7812 9.90625 50.3125 4.23438
Q43.8438 -1.42188 31.7812 -1.42188
Q19.7344 -1.42188 13.25 4.23438
Q6.78125 9.90625 6.78125 20.5156
Q6.78125 27.4844 10.7812 32.3125
Q14.7969 37.1562 21.9219 38.8125
M18.3125 54.3906
Q18.3125 48.7344 21.8438 45.5625
Q25.3906 42.3906 31.7812 42.3906
Q38.1406 42.3906 41.7188 45.5625
Q45.3125 48.7344 45.3125 54.3906
Q45.3125 60.0625 41.7188 63.2344
Q38.1406 66.4062 31.7812 66.4062
Q25.3906 66.4062 21.8438 63.2344
Q18.3125 60.0625 18.3125 54.3906" id="DejaVuSans-38"/>
      </defs>
      <g transform="translate(21.425 296.3095625)scale(0.12 -0.12)">
       <use xlink:href="#DejaVuSans-30"/>
       <use x="63.623046875" xlink:href="#DejaVuSans-2e"/>
       <use x="95.41015625" xlink:href="#DejaVuSans-30"/>
       <use x="159.033203125" xlink:href="#DejaVuSans-38"/>
      </g>
     </g>
    </g>
    <g id="ytick_4">
     <g id="line2d_36">
      <path clip-path="url(#p625b603578)" d="
M50.5312 253.542
L496.931 253.542" style="fill:none;stroke:#000000;stroke-dasharray:1.000000,3.000000;stroke-dashoffset:0.0;stroke-linecap:butt;stroke-width:0.5;"/>
     </g>
     <g id="line2d_37">
      <g>
       <use style="stroke:#000000;stroke-linecap:butt;stroke-width:0.5;" x="50.53125" xlink:href="#me8a85f7bf6" y="253.54175"/>
      </g>
     </g>
     <g id="line2d_38">
      <g>
       <use style="stroke:#000000;stroke-linecap:butt;stroke-width:0.5;" x="496.93125" xlink:href="#m1a32005dea" y="253.54175"/>
      </g>
     </g>
     <g id="text_12">
      <!-- 0.10 -->
      <g transform="translate(21.400625 257.9095625)scale(0.12 -0.12)">
       <use xlink:href="#DejaVuSans-30"/>
       <use x="63.623046875" xlink:href="#DejaVuSans-2e"/>
       <use x="95.41015625" xlink:href="#DejaVuSans-31"/>
       <use x="159.033203125" xlink:href="#DejaVuSans-30"/>
      </g>
     </g>
    </g>
    <g id="ytick_5">
     <g id="line2d_39">
      <path clip-path="url(#p625b603578)" d="
M50.5312 215.142
L496.931 215.142" style="fill:none;stroke:#000000;stroke-dasharray:1.000000,3.000000;stroke-dashoffset:0.0;stroke-linecap:butt;stroke-width:0.5;"/>
     </g>
     <g id="line2d_40">
      <g>
       <use style="stroke:#000000;stroke-linecap:butt;stroke-width:0.5;" x="50.53125" xlink:href="#me8a85f7bf6" y="215.14175"/>
      </g>
     </g>
     <g id="line2d_41">
      <g>
       <use style="stroke:#000000;stroke-linecap:butt;stroke-width:0.5;" x="496.93125" xlink:href="#m1a32005dea" y="215.14175"/>
      </g>
     </g>
     <g id="text_13">
      <!-- 0.12 -->
      <g transform="translate(21.805625 219.5095625)scale(0.12 -0.12)">
       <use xlink:href="#DejaVuSans-30"/>
       <use x="63.623046875" xlink:href="#DejaVuSans-2e"/>
       <use x="95.41015625" xlink:href="#DejaVuSans-31"/>
       <use x="159.033203125" xlink:href="#DejaVuSans-32"/>
      </g>
     </g>
    </g>
    <g id="ytick_6">
     <g id="line2d_42">
      <path clip-path="url(#p625b603578)" d="
M50.5312 176.742
L496.931 176.742" style="fill:none;stroke:#000000;stroke-dasharray:1.000000,3.000000;stroke-dashoffset:0.0;stroke-linecap:butt;stroke-width:0.5;"/>
     </g>
     <g id="line2d_43">
      <g>
       <use style="stroke:#000000;stroke-linecap:butt;stroke-width:0.5;" x="50.53125" xlink:href="#me8a85f7bf6" y="176.74175"/>
      </g>
     </g>
     <g id="line2d_44">
      <g>
       <use style="stroke:#000000;stroke-linecap:butt;stroke-width:0.5;" x="496.93125" xlink:href="#m1a32005dea" y="176.74175"/>
      </g>
     </g>
     <g id="text_14">
      <!-- 0.14 -->
      <g transform="translate(21.276875 181.1095625)scale(0.12 -0.12)">
       <use xlink:href="#DejaVuSans-30"/>
       <use x="63.623046875" xlink:href="#DejaVuSans-2e"/>
       <use x="95.41015625" xlink:href="#DejaVuSans-31"/>
       <use x="159.033203125" xlink:href="#DejaVuSans-34"/>
      </g>
     </g>
    </g>
    <g id="ytick_7">
     <g id="line2d_45">
      <path clip-path="url(#p625b603578)" d="
M50.5312 138.342
L496.931 138.342" style="fill:none;stroke:#000000;stroke-dasharray:1.000000,3.000000;stroke-dashoffset:0.0;stroke-linecap:butt;stroke-width:0.5;"/>
     </g>
     <g id="line2d_46">
      <g>
       <use style="stroke:#000000;stroke-linecap:butt;stroke-width:0.5;" x="50.53125" xlink:href="#me8a85f7bf6" y="138.34175"/>
      </g>
     </g>
     <g id="line2d_47">
      <g>
       <use style="stroke:#000000;stroke-linecap:butt;stroke-width:0.5;" x="496.93125" xlink:href="#m1a32005dea" y="138.34175"/>
      </g>
     </g>
     <g id="text_15">
      <!-- 0.16 -->
      <g transform="translate(21.359375 142.7095625)scale(0.12 -0.12)">
       <use xlink:href="#DejaVuSans-30"/>
       <use x="63.623046875" xlink:href="#DejaVuSans-2e"/>
       <use x="95.41015625" xlink:href="#DejaVuSans-31"/>
       <use x="159.033203125" xlink:href="#DejaVuSans-36"/>
      </g>
     </g>
    </g>
    <g id="ytick_8">
     <g id="line2d_48">
      <path clip-path="url(#p625b603578)" d="
M50.5312 99.9417
L496.931 99.9417" style="fill:none;stroke:#000000;stroke-dasharray:1.000000,3.000000;stroke-dashoffset:0.0;stroke-linecap:butt;stroke-width:0.5;"/>
     </g>
     <g id="line2d_49">
      <g>
       <use style="stroke:#000000;stroke-linecap:butt;stroke-width:0.5;" x="50.53125" xlink:href="#me8a85f7bf6" y="99.94175"/>
      </g>
     </g>
     <g id="line2d_50">
      <g>
       <use style="stroke:#000000;stroke-linecap:butt;stroke-width:0.5;" x="496.93125" xlink:href="#m1a32005dea" y="99.94175"/>
      </g>
     </g>
     <g id="text_16">
      <!-- 0.18 -->
      <g transform="translate(21.425 104.3095625)scale(0.12 -0.12)">
       <use xlink:href="#DejaVuSans-30"/>
       <use x="63.623046875" xlink:href="#DejaVuSans-2e"/>
       <use x="95.41015625" xlink:href="#DejaVuSans-31"/>
       <use x="159.033203125" xlink:href="#DejaVuSans-38"/>
      </g>
     </g>
    </g>
    <g id="ytick_9">
     <g id="line2d_51">
      <path clip-path="url(#p625b603578)" d="
M50.5312 61.5417
L496.931 61.5417" style="fill:none;stroke:#000000;stroke-dasharray:1.000000,3.000000;stroke-dashoffset:0.0;stroke-linecap:butt;stroke-width:0.5;"/>
     </g>
     <g id="line2d_52">
      <g>
       <use style="stroke:#000000;stroke-linecap:butt;stroke-width:0.5;" x="50.53125" xlink:href="#me8a85f7bf6" y="61.54175"/>
      </g>
     </g>
     <g id="line2d_53">
      <g>
       <use style="stroke:#000000;stroke-linecap:butt;stroke-width:0.5;" x="496.93125" xlink:href="#m1a32005dea" y="61.54175"/>
      </g>
     </g>
     <g id="text_17">
      <!-- 0.20 -->
      <g transform="translate(21.400625 65.9095625)scale(0.12 -0.12)">
       <use xlink:href="#DejaVuSans-30"/>
       <use x="63.623046875" xlink:href="#DejaVuSans-2e"/>
       <use x="95.41015625" xlink:href="#DejaVuSans-32"/>
       <use x="159.033203125" xlink:href="#DejaVuSans-30"/>
      </g>
     </g>
    </g>
    <g id="ytick_10">
     <g id="line2d_54">
      <path clip-path="url(#p625b603578)" d="
M50.5312 23.1417
L496.931 23.1417" style="fill:none;stroke:#000000;stroke-dasharray:1.000000,3.000000;stroke-dashoffset:0.0;stroke-linecap:butt;stroke-width:0.5;"/>
     </g>
     <g id="line2d_55">
      <g>
       <use style="stroke:#000000;stroke-linecap:butt;stroke-width:0.5;" x="50.53125" xlink:href="#me8a85f7bf6" y="23.14175"/>
      </g>
     </g>
     <g id="line2d_56">
      <g>
       <use style="stroke:#000000;stroke-linecap:butt;stroke-width:0.5;" x="496.93125" xlink:href="#m1a32005dea" y="23.14175"/>
      </g>
     </g>
     <g id="text_18">
      <!-- 0.22 -->
      <g transform="translate(21.805625 27.5095625)scale(0.12 -0.12)">
       <use xlink:href="#DejaVuSans-30"/>
       <use x="63.623046875" xlink:href="#DejaVuSans-2e"/>
       <use x="95.41015625" xlink:href="#DejaVuSans-32"/>
       <use x="159.033203125" xlink:href="#DejaVuSans-32"/>
      </g>
     </g>
    </g>
    <g id="text_19">
     <!-- % -->
     <defs>
      <path d="
M72.7031 32.0781
Q68.4531 32.0781 66.0312 28.4688
Q63.625 24.8594 63.625 18.4062
Q63.625 12.0625 66.0312 8.42188
Q68.4531 4.78125 72.7031 4.78125
Q76.8594 4.78125 79.2656 8.42188
Q81.6875 12.0625 81.6875 18.4062
Q81.6875 24.8125 79.2656 28.4375
Q76.8594 32.0781 72.7031 32.0781
M72.7031 38.2812
Q80.4219 38.2812 84.9531 32.9062
Q89.5 27.5469 89.5 18.4062
Q89.5 9.28125 84.9375 3.92188
Q80.375 -1.42188 72.7031 -1.42188
Q64.8906 -1.42188 60.3438 3.92188
Q55.8125 9.28125 55.8125 18.4062
Q55.8125 27.5938 60.375 32.9375
Q64.9375 38.2812 72.7031 38.2812
M22.3125 68.0156
Q18.1094 68.0156 15.6875 64.375
Q13.2812 60.75 13.2812 54.3906
Q13.2812 47.9531 15.6719 44.3281
Q18.0625 40.7188 22.3125 40.7188
Q26.5625 40.7188 28.9688 44.3281
Q31.3906 47.9531 31.3906 54.3906
Q31.3906 60.6875 28.9531 64.3438
Q26.5156 68.0156 22.3125 68.0156
M66.4062 74.2188
L74.2188 74.2188
L28.6094 -1.42188
L20.7969 -1.42188
z

M22.3125 74.2188
Q30.0312 74.2188 34.6094 68.875
Q39.2031 63.5312 39.2031 54.3906
Q39.2031 45.1719 34.6406 39.8438
Q30.0781 34.5156 22.3125 34.5156
Q14.5469 34.5156 10.0312 39.8594
Q5.51562 45.2188 5.51562 54.3906
Q5.51562 63.4844 10.0469 68.8438
Q14.5938 74.2188 22.3125 74.2188" id="DejaVuSans-25"/>
     </defs>
     <g transform="translate(16.276875 200.8101875)rotate(-90.0)scale(0.12 -0.12)">
      <use xlink:href="#DejaVuSans-25"/>
     </g>
    </g>
   </g>
   <g id="patch_3">
    <path d="
M50.5312 23.1417
L496.931 23.1417" style="fill:none;stroke:#000000;"/>
   </g>
   <g id="patch_4">
    <path d="
M496.931 368.742
L496.931 23.1417" style="fill:none;stroke:#000000;"/>
   </g>
   <g id="patch_5">
    <path d="
M50.5312 368.742
L496.931 368.742" style="fill:none;stroke:#000000;"/>
   </g>
   <g id="patch_6">
    <path d="
M50.5312 368.742
L50.5312 23.1417" style="fill:none;stroke:#000000;"/>
   </g>
   <g id="text_20">
    <!-- Packets with Errors / All Packets -->
    <defs>
     <path d="
M25.3906 72.9062
L33.6875 72.9062
L8.29688 -9.28125
L0 -9.28125
z
" id="DejaVuSans-2f"/>
     <path d="
M30.6094 48.3906
Q23.3906 48.3906 19.1875 42.75
Q14.9844 37.1094 14.9844 27.2969
Q14.9844 17.4844 19.1562 11.8438
Q23.3438 6.20312 30.6094 6.20312
Q37.7969 6.20312 41.9844 11.8594
Q46.1875 17.5312 46.1875 27.2969
Q46.1875 37.0156 41.9844 42.7031
Q37.7969 48.3906 30.6094 48.3906
M30.6094 56
Q42.3281 56 49.0156 48.375
Q55.7188 40.7656 55.7188 27.2969
Q55.7188 13.875 49.0156 6.21875
Q42.3281 -1.42188 30.6094 -1.42188
Q18.8438 -1.42188 12.1719 6.21875
Q5.51562 13.875 5.51562 27.2969
Q5.51562 40.7656 12.1719 48.375
Q18.8438 56 30.6094 56" id="DejaVuSans-6f"/>
     <path d="
M41.1094 46.2969
Q39.5938 47.1719 37.8125 47.5781
Q36.0312 48 33.8906 48
Q26.2656 48 22.1875 43.0469
Q18.1094 38.0938 18.1094 28.8125
L18.1094 0
L9.07812 0
L9.07812 54.6875
L18.1094 54.6875
L18.1094 46.1875
Q20.9531 51.1719 25.4844 53.5781
Q30.0312 56 36.5312 56
Q37.4531 56 38.5781 55.875
Q39.7031 55.7656 41.0625 55.5156
z
" id="DejaVuSans-72"/>
     <path d="
M9.07812 75.9844
L18.1094 75.9844
L18.1094 31.1094
L44.9219 54.6875
L56.3906 54.6875
L27.3906 29.1094
L57.625 0
L45.9062 0
L18.1094 26.7031
L18.1094 0
L9.07812 0
z
" id="DejaVuSans-6b"/>
     <path d="
M9.42188 75.9844
L18.4062 75.9844
L18.4062 0
L9.42188 0
z
" id="DejaVuSans-6c"/>
     <path d="
M9.8125 72.9062
L55.9062 72.9062
L55.9062 64.5938
L19.6719 64.5938
L19.6719 43.0156
L54.3906 43.0156
L54.3906 34.7188
L19.6719 34.7188
L19.6719 8.29688
L56.7812 8.29688
L56.7812 0
L9.8125 0
z
" id="DejaVuSans-45"/>
     <path d="
M34.1875 63.1875
L20.7969 26.9062
L47.6094 26.9062
z

M28.6094 72.9062
L39.7969 72.9062
L67.5781 0
L57.3281 0
L50.6875 18.7031
L17.8281 18.7031
L11.1875 0
L0.78125 0
z
" id="DejaVuSans-41"/>
     <path d="
M54.8906 33.0156
L54.8906 0
L45.9062 0
L45.9062 32.7188
Q45.9062 40.4844 42.875 44.3281
Q39.8438 48.1875 33.7969 48.1875
Q26.5156 48.1875 22.3125 43.5469
Q18.1094 38.9219 18.1094 30.9062
L18.1094 0
L9.07812 0
L9.07812 75.9844
L18.1094 75.9844
L18.1094 46.1875
Q21.3438 51.125 25.7031 53.5625
Q30.0781 56 35.7969 56
Q45.2188 56 50.0469 50.1719
Q54.8906 44.3438 54.8906 33.0156" id="DejaVuSans-68"/>
     <path d="
M18.3125 70.2188
L18.3125 54.6875
L36.8125 54.6875
L36.8125 47.7031
L18.3125 47.7031
L18.3125 18.0156
Q18.3125 11.3281 20.1406 9.42188
Q21.9688 7.51562 27.5938 7.51562
L36.8125 7.51562
L36.8125 0
L27.5938 0
Q17.1875 0 13.2344 3.875
Q9.28125 7.76562 9.28125 18.0156
L9.28125 47.7031
L2.6875 47.7031
L2.6875 54.6875
L9.28125 54.6875
L9.28125 70.2188
z
" id="DejaVuSans-74"/>
     <path d="
M4.20312 54.6875
L13.1875 54.6875
L24.4219 12.0156
L35.5938 54.6875
L46.1875 54.6875
L57.4219 12.0156
L68.6094 54.6875
L77.5938 54.6875
L63.2812 0
L52.6875 0
L40.9219 44.8281
L29.1094 0
L18.5 0
z
" id="DejaVuSans-77"/>
     <path d="
M19.6719 64.7969
L19.6719 37.4062
L32.0781 37.4062
Q38.9688 37.4062 42.7188 40.9688
Q46.4844 44.5312 46.4844 51.125
Q46.4844 57.6719 42.7188 61.2344
Q38.9688 64.7969 32.0781 64.7969
z

M9.8125 72.9062
L32.0781 72.9062
Q44.3438 72.9062 50.6094 67.3594
Q56.8906 61.8125 56.8906 51.125
Q56.8906 40.3281 50.6094 34.8125
Q44.3438 29.2969 32.0781 29.2969
L19.6719 29.2969
L19.6719 0
L9.8125 0
z
" id="DejaVuSans-50"/>
     <path d="
M48.7812 52.5938
L48.7812 44.1875
Q44.9688 46.2969 41.1406 47.3438
Q37.3125 48.3906 33.4062 48.3906
Q24.6562 48.3906 19.8125 42.8438
Q14.9844 37.3125 14.9844 27.2969
Q14.9844 17.2812 19.8125 11.7344
Q24.6562 6.20312 33.4062 6.20312
Q37.3125 6.20312 41.1406 7.25
Q44.9688 8.29688 48.7812 10.4062
L48.7812 2.09375
Q45.0156 0.34375 40.9844 -0.53125
Q36.9688 -1.42188 32.4219 -1.42188
Q20.0625 -1.42188 12.7812 6.34375
Q5.51562 14.1094 5.51562 27.2969
Q5.51562 40.6719 12.8594 48.3281
Q20.2188 56 33.0156 56
Q37.1562 56 41.1094 55.1406
Q45.0625 54.2969 48.7812 52.5938" id="DejaVuSans-63"/>
     <path d="
M34.2812 27.4844
Q23.3906 27.4844 19.1875 25
Q14.9844 22.5156 14.9844 16.5
Q14.9844 11.7188 18.1406 8.90625
Q21.2969 6.10938 26.7031 6.10938
Q34.1875 6.10938 38.7031 11.4062
Q43.2188 16.7031 43.2188 25.4844
L43.2188 27.4844
z

M52.2031 31.2031
L52.2031 0
L43.2188 0
L43.2188 8.29688
Q40.1406 3.32812 35.5469 0.953125
Q30.9531 -1.42188 24.3125 -1.42188
Q15.9219 -1.42188 10.9531 3.29688
Q6 8.01562 6 15.9219
Q6 25.1406 12.1719 29.8281
Q18.3594 34.5156 30.6094 34.5156
L43.2188 34.5156
L43.2188 35.4062
Q43.2188 41.6094 39.1406 45
Q35.0625 48.3906 27.6875 48.3906
Q23 48.3906 18.5469 47.2656
Q14.1094 46.1406 10.0156 43.8906
L10.0156 52.2031
Q14.9375 54.1094 19.5781 55.0469
Q24.2188 56 28.6094 56
Q40.4844 56 46.3438 49.8438
Q52.2031 43.7031 52.2031 31.2031" id="DejaVuSans-61"/>
    </defs>
    <g transform="translate(160.1175 18.14175)scale(0.144 -0.144)">
     <use xlink:href="#DejaVuSans-50"/>
     <use x="55.802734375" xlink:href="#DejaVuSans-61"/>
     <use x="117.08203125" xlink:href="#DejaVuSans-63"/>
     <use x="172.0625" xlink:href="#DejaVuSans-6b"/>
     <use x="226.34765625" xlink:href="#DejaVuSans-65"/>
     <use x="287.87109375" xlink:href="#DejaVuSans-74"/>
     <use x="327.080078125" xlink:href="#DejaVuSans-73"/>
     <use x="379.1796875" xlink:href="#DejaVuSans-20"/>
     <use x="410.966796875" xlink:href="#DejaVuSans-77"/>
     <use x="492.75390625" xlink:href="#DejaVuSans-69"/>
     <use x="520.537109375" xlink:href="#DejaVuSans-74"/>
     <use x="559.74609375" xlink:href="#DejaVuSans-68"/>
     <use x="623.125" xlink:href="#DejaVuSans-20"/>
     <use x="654.912109375" xlink:href="#DejaVuSans-45"/>
     <use x="718.095703125" xlink:href="#DejaVuSans-72"/>
     <use x="757.458984375" xlink:href="#DejaVuSans-72"/>
     <use x="796.322265625" xlink:href="#DejaVuSans-6f"/>
     <use x="857.50390625" xlink:href="#DejaVuSans-72"/>
     <use x="898.6171875" xlink:href="#DejaVuSans-73"/>
     <use x="950.716796875" xlink:href="#DejaVuSans-20"/>
     <use x="982.50390625" xlink:href="#DejaVuSans-2f"/>
     <use x="1016.1953125" xlink:href="#DejaVuSans-20"/>
     <use x="1047.98242188" xlink:href="#DejaVuSans-41"/>
     <use x="1116.390625" xlink:href="#DejaVuSans-6c"/>
     <use x="1144.17382812" xlink:href="#DejaVuSans-6c"/>
     <use x="1171.95703125" xlink:href="#DejaVuSans-20"/>
     <use x="1203.74414062" xlink:href="#DejaVuSans-50"/>
     <use x="1259.546875" xlink:href="#DejaVuSans-61"/>
     <use x="1320.82617188" xlink:href="#DejaVuSans-63"/>
     <use x="1375.80664062" xlink:href="#DejaVuSans-6b"/>
     <use x="1430.09179688" xlink:href="#DejaVuSans-65"/>
     <use x="1491.61523438" xlink:href="#DejaVuSans-74"/>
     <use x="1530.82421875" xlink:href="#DejaVuSans-73"/>
    </g>
   </g>
   <g id="legend_1">
    <g id="patch_7">
     <path d="
M519.251 202.295
L633.108 202.295
L633.108 126.822
L519.251 126.822
L519.251 202.295
z
" style="fill:#ffffff;stroke:#000000;"/>
    </g>
    <g id="line2d_57">
     <path d="
M526.251 134.92
L540.251 134.92" style="fill:none;stroke:#0000ff;"/>
    </g>
    <g id="line2d_58"/>
    <g id="text_21">
     <!-- 1 -->
     <g transform="translate(551.25125 138.4201875)scale(0.1 -0.1)">
      <use xlink:href="#DejaVuSans-31"/>
     </g>
    </g>
    <g id="line2d_59">
     <path d="
M526.251 149.598
L540.251 149.598" style="fill:none;stroke:#008000;"/>
    </g>
    <g id="line2d_60"/>
    <g id="text_22">
     <!-- 1,6,11 -->
     <defs>
      <path d="
M11.7188 12.4062
L22.0156 12.4062
L22.0156 4
L14.0156 -11.625
L7.71875 -11.625
L11.7188 4
z
" id="DejaVuSans-2c"/>
     </defs>
     <g transform="translate(551.25125 153.0983125)scale(0.1 -0.1)">
      <use xlink:href="#DejaVuSans-31"/>
      <use x="63.623046875" xlink:href="#DejaVuSans-2c"/>
      <use x="95.41015625" xlink:href="#DejaVuSans-36"/>
      <use x="159.033203125" xlink:href="#DejaVuSans-2c"/>
      <use x="190.8203125" xlink:href="#DejaVuSans-31"/>
      <use x="254.443359375" xlink:href="#DejaVuSans-31"/>
     </g>
    </g>
    <g id="line2d_61">
     <path d="
M526.251 164.276
L540.251 164.276" style="fill:none;stroke:#ff0000;"/>
    </g>
    <g id="line2d_62"/>
    <g id="text_23">
     <!-- 1,6,11,36,40,44 -->
     <g transform="translate(551.25125 167.7764375)scale(0.1 -0.1)">
      <use xlink:href="#DejaVuSans-31"/>
      <use x="63.623046875" xlink:href="#DejaVuSans-2c"/>
      <use x="95.41015625" xlink:href="#DejaVuSans-36"/>
      <use x="159.033203125" xlink:href="#DejaVuSans-2c"/>
      <use x="190.8203125" xlink:href="#DejaVuSans-31"/>
      <use x="254.443359375" xlink:href="#DejaVuSans-31"/>
      <use x="318.06640625" xlink:href="#DejaVuSans-2c"/>
      <use x="349.853515625" xlink:href="#DejaVuSans-33"/>
      <use x="413.4765625" xlink:href="#DejaVuSans-36"/>
      <use x="477.099609375" xlink:href="#DejaVuSans-2c"/>
      <use x="508.88671875" xlink:href="#DejaVuSans-34"/>
      <use x="572.509765625" xlink:href="#DejaVuSans-30"/>
      <use x="636.1328125" xlink:href="#DejaVuSans-2c"/>
      <use x="667.919921875" xlink:href="#DejaVuSans-34"/>
      <use x="731.54296875" xlink:href="#DejaVuSans-34"/>
     </g>
    </g>
    <g id="line2d_63">
     <path d="
M526.251 178.955
L540.251 178.955" style="fill:none;stroke:#00bfbf;"/>
    </g>
    <g id="line2d_64"/>
    <g id="text_24">
     <!-- 36 -->
     <g transform="translate(551.25125 182.4545625)scale(0.1 -0.1)">
      <use xlink:href="#DejaVuSans-33"/>
      <use x="63.623046875" xlink:href="#DejaVuSans-36"/>
     </g>
    </g>
    <g id="line2d_65">
     <path d="
M526.251 193.633
L540.251 193.633" style="fill:none;stroke:#bf00bf;"/>
    </g>
    <g id="line2d_66"/>
    <g id="text_25">
     <!-- 36,40,44 -->
     <g transform="translate(551.25125 197.1326875)scale(0.1 -0.1)">
      <use xlink:href="#DejaVuSans-33"/>
      <use x="63.623046875" xlink:href="#DejaVuSans-36"/>
      <use x="127.24609375" xlink:href="#DejaVuSans-2c"/>
      <use x="159.033203125" xlink:href="#DejaVuSans-34"/>
      <use x="222.65625" xlink:href="#DejaVuSans-30"/>
      <use x="286.279296875" xlink:href="#DejaVuSans-2c"/>
      <use x="318.06640625" xlink:href="#DejaVuSans-34"/>
      <use x="381.689453125" xlink:href="#DejaVuSans-34"/>
     </g>
    </g>
   </g>
  </g>
 </g>
 <defs>
  <clipPath id="p625b603578">
   <rect height="345.6" width="446.4" x="50.53125" y="23.14175"/>
  </clipPath>
 </defs>
</svg>
