<?xml version="1.0" encoding="utf-8" standalone="no"?>
<!DOCTYPE svg PUBLIC "-//W3C//DTD SVG 1.1//EN"
  "http://www.w3.org/Graphics/SVG/1.1/DTD/svg11.dtd">
<!-- Created with matplotlib (http://matplotlib.sourceforge.net/) -->
<svg height="288pt" version="1.1" viewBox="0 0 576 288" width="576pt" xmlns="http://www.w3.org/2000/svg" xmlns:xlink="http://www.w3.org/1999/xlink">
 <defs>
  <style type="text/css">
*{stroke-linecap:square;stroke-linejoin:round;}
  </style>
 </defs>
 <g id="figure_1">
  <g id="patch_1">
   <path d="
M0 288.107
L576.25 288.107
L576.25 0
L0 0
z
" style="fill:#ffffff;"/>
  </g>
  <g id="axes_1">
   <g id="patch_2">
    <path d="
M45.0637 253.542
L435.664 253.542
L435.664 23.1418
L45.0637 23.1418
z
" style="fill:#ffffff;"/>
   </g>
   <g id="line2d_1">
    <path clip-path="url(#p8b1a3e3f79)" d="
M45.0637 236.32
L49.6208 234.441
L54.1778 236.047
L58.7348 237.376
L63.2918 234.246
L67.8487 237.146
L72.4058 233.66
L76.9627 239.931
L81.5198 236.677
L86.0768 236.953
L90.6338 237.498
L95.1908 233.639
L99.7478 237.5
L104.305 239.468
L108.862 239.716
L113.419 242.374
L117.976 239.58
L122.533 239.523
L127.09 235.88
L131.647 236.081
L136.204 235.991
L140.761 235.639
L145.318 235.644
L149.875 237.596
L154.432 235.426
L158.989 233.84
L163.546 232.778
L168.103 235.083
L172.66 238.8
L177.217 236.907
L181.774 234.554
L186.331 234.569
L190.888 235.453
L195.445 232.373
L200.002 236.216
L204.559 236.245
L209.116 233.749
L213.673 234.403
L218.23 235.081
L222.787 232.766
L227.344 237.873
L231.901 234.174
L236.458 237.126
L241.015 236.531
L245.572 236.607
L250.129 235.564
L254.686 237.749
L259.243 238.781
L263.8 240.558
L268.357 242.969
L272.914 235.44
L277.471 235.204
L282.028 231.155
L286.585 233.363
L291.142 237.192
L295.699 240.934
L300.256 234.368
L304.813 234.248
L309.37 234.553
L313.927 236.003
L318.484 235.982
L323.041 236.585
L327.598 239.874
L332.155 240.652
L336.712 238.494
L341.269 236.508
L345.826 235.604
L350.383 238.104
L354.94 236.457
L359.497 234.441
L364.054 236.317
L368.611 240.089
L373.168 239.338
L377.725 238.851
L382.282 236.581
L386.839 233.639
L391.396 235.962
L395.953 239.317
L400.51 237.215
L405.067 237.121
L409.624 241.895
L414.181 242.503
L418.738 240.14
L423.295 235.21
L427.852 234.378
L432.409 235.549
L436.966 238.57
L441.523 235.45" style="fill:none;stroke:#0000ff;"/>
   </g>
   <g id="line2d_2">
    <path clip-path="url(#p8b1a3e3f79)" d="
M45.0637 125.41
L49.6208 137.23
L54.1778 143.622
L58.7348 146.581
L63.2918 133.461
L67.8487 138.446
L72.4058 138.338
L76.9627 145.101
L81.5198 147.178
L86.0768 139.778
L90.6338 149.846
L95.1908 152.915
L99.7478 151.919
L104.305 148.633
L108.862 151.252
L113.419 152.234
L117.976 154.102
L122.533 151.947
L127.09 149.625
L131.647 154.957
L136.204 146.01
L140.761 151.863
L145.318 151.596
L149.875 158.047
L154.432 148.626
L158.989 158.366
L163.546 154.792
L168.103 155.796
L172.66 146.13
L177.217 181.635
L181.774 179.215
L186.331 180.382
L190.888 176.002
L195.445 170.107
L200.002 181.96
L204.559 177.316
L209.116 170.788
L213.673 160.836
L218.23 149.394
L222.787 150.108
L227.344 139.314
L231.901 142.604
L236.458 140.251
L241.015 139.507
L245.572 144.094
L250.129 133.808
L254.686 145.547
L259.243 149.619
L263.8 150.604
L268.357 153.849
L272.914 153.557
L277.471 157.555
L282.028 157.048
L286.585 164.388
L291.142 176.517
L295.699 176.814
L300.256 176.295
L304.813 175.804
L309.37 174.56
L313.927 175.913
L318.484 177.823
L323.041 175.987
L327.598 172.573
L332.155 163.964
L336.712 158.788
L341.269 142.459
L345.826 145.734
L350.383 143.821
L354.94 142.638
L359.497 140.482
L364.054 131.126
L368.611 139.557
L373.168 139.298
L377.725 135.151
L382.282 144.161
L386.839 138.336
L391.396 145.551
L395.953 158.012
L400.51 153.505
L405.067 159.451
L409.624 159.037
L414.181 155.623
L418.738 158.037
L423.295 152.808
L427.852 154.87
L432.409 145.676
L436.966 150.713
L441.523 145.032" style="fill:none;stroke:#008000;"/>
   </g>
   <g id="line2d_3">
    <path clip-path="url(#p8b1a3e3f79)" d="
M45.0637 25.4422
L49.6208 32.7421
L54.1778 31.7715
L58.7348 29.483
L63.2918 34.1875
L67.8487 38.9524
L72.4058 40.6518
L76.9627 43.763
L81.5198 50.5298
L86.0768 33.4431
L90.6338 52.3998
L95.1908 46.5352
L99.7478 32.5436
L104.305 45.3415
L108.862 54.3692
L113.419 53.468
L117.976 42.5711
L122.533 52.4193
L127.09 57.3864
L131.647 57.1642
L136.204 55.8537
L140.761 57.0958
L145.318 55.6885
L149.875 53.6507
L154.432 54.7002
L158.989 52.3097
L163.546 58.7152
L168.103 56.0495
L172.66 51.0373
L177.217 55.3228
L181.774 49.5142
L186.331 42.1388
L190.888 47.8079
L195.445 47.3305
L200.002 46.9206
L204.559 43.2432
L209.116 47.2489
L213.673 53.847
L218.23 61.9371
L222.787 61.6478
L227.344 61.1111
L231.901 61.4347
L236.458 56.2499
L241.015 61.2128
L245.572 60.726
L250.129 64.1363
L254.686 56.2901
L259.243 52.1009
L263.8 50.6684
L268.357 49.9815
L272.914 47.4698
L277.471 48.6309
L282.028 49.769
L286.585 68.2386
L291.142 50.9941
L295.699 46.8881
L300.256 48.0745
L304.813 46.8816
L309.37 45.2573
L313.927 49.4744
L318.484 46.5902
L323.041 47.3367
L327.598 46.8038
L332.155 54.484
L336.712 54.1037
L341.269 50.4437
L345.826 54.1156
L350.383 54.7719
L354.94 48.7797
L359.497 52.6332
L364.054 51.1907
L368.611 53.8969
L373.168 47.476
L377.725 51.096
L382.282 56.3991
L386.839 54.7444
L391.396 54.568
L395.953 48
L400.51 50.6216
L405.067 50.1961
L409.624 48.841
L414.181 52.2923
L418.738 53.5769
L423.295 49.5252
L427.852 52.6694
L432.409 51.2328
L436.966 58.9092
L441.523 49.0105" style="fill:none;stroke:#ff0000;"/>
   </g>
   <g id="line2d_4">
    <path clip-path="url(#p8b1a3e3f79)" d="
M45.0637 239.972
L49.6208 238.82
L54.1778 241.256
L58.7348 241.748
L63.2918 241.518
L67.8487 242.031
L72.4058 243.479
L76.9627 239.488
L81.5198 239.697
L86.0768 242.326
L90.6338 243.466
L95.1908 243.174
L99.7478 239.398
L104.305 239.304
L108.862 240.705
L113.419 240.986
L117.976 240.409
L122.533 241.08
L127.09 243.644
L131.647 243.533
L136.204 240.719
L140.761 244.035
L145.318 246.902
L149.875 246.002
L154.432 243.885
L158.989 246.361
L163.546 242.97
L168.103 245.582
L172.66 244.546
L177.217 243.843
L181.774 244.854
L186.331 242.789
L190.888 242.629
L195.445 245.261
L200.002 244.102
L204.559 242.791
L209.116 241.266
L213.673 244.114
L218.23 242.875
L222.787 242.02
L227.344 243.307
L231.901 243.114
L236.458 244.32
L241.015 242.619
L245.572 244.345
L250.129 243.181
L254.686 241.281
L259.243 243.936
L263.8 244.515
L268.357 243.092
L272.914 242.8
L277.471 244.816
L282.028 241.237
L286.585 244.347
L291.142 241.91
L295.699 242.838
L300.256 245.668
L304.813 246.818
L309.37 247.489
L313.927 242.169
L318.484 242.422
L323.041 243.17
L327.598 243.362
L332.155 244.33
L336.712 248.249
L341.269 245.481
L345.826 244.621
L350.383 240.246
L354.94 244.376
L359.497 241.075
L364.054 241.805
L368.611 245.007
L373.168 247.115
L377.725 245.333
L382.282 244.48
L386.839 247.392
L391.396 243.26
L395.953 243.207
L400.51 244.657
L405.067 247.566
L409.624 244.967
L414.181 248.748
L418.738 242.597
L423.295 243.342
L427.852 243.683
L432.409 243.357
L436.966 240.382
L441.523 245.789" style="fill:none;stroke:#00bfbf;"/>
   </g>
   <g id="line2d_5">
    <path clip-path="url(#p8b1a3e3f79)" d="
M45.0637 118.441
L49.6208 121.301
L54.1778 128.926
L58.7348 125.952
L63.2918 128.532
L67.8487 138.435
L72.4058 118.973
L76.9627 126.479
L81.5198 131.794
L86.0768 136.346
L90.6338 129.926
L95.1908 132.696
L99.7478 129.184
L104.305 123.597
L108.862 125.3
L113.419 127.659
L117.976 133.62
L122.533 141.209
L127.09 142.9
L131.647 136.845
L136.204 145.72
L140.761 136.987
L145.318 135.323
L149.875 138.55
L154.432 132.332
L158.989 134.819
L163.546 139.129
L168.103 137.758
L172.66 140.763
L177.217 139.015
L181.774 132.768
L186.331 134.39
L190.888 137.16
L195.445 140.802
L200.002 138.662
L204.559 136.25
L209.116 139.707
L213.673 142.67
L218.23 138.81
L222.787 136.817
L227.344 128.872
L231.901 134.524
L236.458 130.497
L241.015 131.878
L245.572 132.987
L250.129 138.963
L254.686 138.694
L259.243 140.872
L263.8 140.436
L268.357 139.833
L272.914 136.939
L277.471 136.792
L282.028 135.149
L286.585 137.776
L291.142 139.893
L295.699 138.64
L300.256 132.371
L304.813 133.991
L309.37 137.579
L313.927 138.864
L318.484 135.946
L323.041 130.84
L327.598 132.046
L332.155 133.697
L336.712 133.146
L341.269 141.911
L345.826 135.22
L350.383 135.743
L354.94 136.873
L359.497 131.015
L364.054 141.885
L368.611 136.838
L373.168 135.832
L377.725 126.698
L382.282 144.644
L386.839 132.729
L391.396 126.281
L395.953 127.205
L400.51 128.218
L405.067 134.273
L409.624 132.83
L414.181 131.712
L418.738 127.187
L423.295 128.724
L427.852 129.111
L432.409 133.565
L436.966 137.871
L441.523 143.786" style="fill:none;stroke:#bf00bf;"/>
   </g>
   <g id="matplotlib.axis_1">
    <g id="xtick_1">
     <g id="line2d_6">
      <path clip-path="url(#p8b1a3e3f79)" d="
M45.0637 253.542
L45.0637 23.1418" style="fill:none;stroke:#000000;stroke-dasharray:1.000000,3.000000;stroke-dashoffset:0.0;stroke-linecap:butt;stroke-width:0.5;"/>
     </g>
     <g id="line2d_7">
      <defs>
       <path d="
M0 0
L0 -4" id="m0012dd4eef" style="stroke:#000000;stroke-linecap:butt;stroke-width:0.5;"/>
      </defs>
      <g>
       <use style="stroke:#000000;stroke-linecap:butt;stroke-width:0.5;" x="45.06375" xlink:href="#m0012dd4eef" y="253.54175"/>
      </g>
     </g>
     <g id="line2d_8">
      <defs>
       <path d="
M0 0
L0 4" id="m476344969c" style="stroke:#000000;stroke-linecap:butt;stroke-width:0.5;"/>
      </defs>
      <g>
       <use style="stroke:#000000;stroke-linecap:butt;stroke-width:0.5;" x="45.06375" xlink:href="#m476344969c" y="23.14175"/>
      </g>
     </g>
     <g id="text_1">
      <!-- 0 -->
      <defs>
       <path d="
M31.7812 66.4062
Q24.1719 66.4062 20.3281 58.9062
Q16.5 51.4219 16.5 36.375
Q16.5 21.3906 20.3281 13.8906
Q24.1719 6.39062 31.7812 6.39062
Q39.4531 6.39062 43.2812 13.8906
Q47.125 21.3906 47.125 36.375
Q47.125 51.4219 43.2812 58.9062
Q39.4531 66.4062 31.7812 66.4062
M31.7812 74.2188
Q44.0469 74.2188 50.5156 64.5156
Q56.9844 54.8281 56.9844 36.375
Q56.9844 17.9688 50.5156 8.26562
Q44.0469 -1.42188 31.7812 -1.42188
Q19.5312 -1.42188 13.0625 8.26562
Q6.59375 17.9688 6.59375 36.375
Q6.59375 54.8281 13.0625 64.5156
Q19.5312 74.2188 31.7812 74.2188" id="DejaVuSans-30"/>
      </defs>
      <g transform="translate(42.0403125 266.448)scale(0.12 -0.12)">
       <use xlink:href="#DejaVuSans-30"/>
      </g>
     </g>
    </g>
    <g id="xtick_2">
     <g id="line2d_9">
      <path clip-path="url(#p8b1a3e3f79)" d="
M110.164 253.542
L110.164 23.1418" style="fill:none;stroke:#000000;stroke-dasharray:1.000000,3.000000;stroke-dashoffset:0.0;stroke-linecap:butt;stroke-width:0.5;"/>
     </g>
     <g id="line2d_10">
      <g>
       <use style="stroke:#000000;stroke-linecap:butt;stroke-width:0.5;" x="110.16375" xlink:href="#m0012dd4eef" y="253.54175"/>
      </g>
     </g>
     <g id="line2d_11">
      <g>
       <use style="stroke:#000000;stroke-linecap:butt;stroke-width:0.5;" x="110.16375" xlink:href="#m476344969c" y="23.14175"/>
      </g>
     </g>
     <g id="text_2">
      <!-- 100 -->
      <defs>
       <path d="
M12.4062 8.29688
L28.5156 8.29688
L28.5156 63.9219
L10.9844 60.4062
L10.9844 69.3906
L28.4219 72.9062
L38.2812 72.9062
L38.2812 8.29688
L54.3906 8.29688
L54.3906 0
L12.4062 0
z
" id="DejaVuSans-31"/>
      </defs>
      <g transform="translate(99.76875 266.448)scale(0.12 -0.12)">
       <use xlink:href="#DejaVuSans-31"/>
       <use x="63.623046875" xlink:href="#DejaVuSans-30"/>
       <use x="127.24609375" xlink:href="#DejaVuSans-30"/>
      </g>
     </g>
    </g>
    <g id="xtick_3">
     <g id="line2d_12">
      <path clip-path="url(#p8b1a3e3f79)" d="
M175.264 253.542
L175.264 23.1418" style="fill:none;stroke:#000000;stroke-dasharray:1.000000,3.000000;stroke-dashoffset:0.0;stroke-linecap:butt;stroke-width:0.5;"/>
     </g>
     <g id="line2d_13">
      <g>
       <use style="stroke:#000000;stroke-linecap:butt;stroke-width:0.5;" x="175.26375" xlink:href="#m0012dd4eef" y="253.54175"/>
      </g>
     </g>
     <g id="line2d_14">
      <g>
       <use style="stroke:#000000;stroke-linecap:butt;stroke-width:0.5;" x="175.26375" xlink:href="#m476344969c" y="23.14175"/>
      </g>
     </g>
     <g id="text_3">
      <!-- 200 -->
      <defs>
       <path d="
M19.1875 8.29688
L53.6094 8.29688
L53.6094 0
L7.32812 0
L7.32812 8.29688
Q12.9375 14.1094 22.625 23.8906
Q32.3281 33.6875 34.8125 36.5312
Q39.5469 41.8438 41.4219 45.5312
Q43.3125 49.2188 43.3125 52.7812
Q43.3125 58.5938 39.2344 62.25
Q35.1562 65.9219 28.6094 65.9219
Q23.9688 65.9219 18.8125 64.3125
Q13.6719 62.7031 7.8125 59.4219
L7.8125 69.3906
Q13.7656 71.7812 18.9375 73
Q24.125 74.2188 28.4219 74.2188
Q39.75 74.2188 46.4844 68.5469
Q53.2188 62.8906 53.2188 53.4219
Q53.2188 48.9219 51.5312 44.8906
Q49.8594 40.875 45.4062 35.4062
Q44.1875 33.9844 37.6406 27.2188
Q31.1094 20.4531 19.1875 8.29688" id="DejaVuSans-32"/>
      </defs>
      <g transform="translate(164.649375 266.448)scale(0.12 -0.12)">
       <use xlink:href="#DejaVuSans-32"/>
       <use x="63.623046875" xlink:href="#DejaVuSans-30"/>
       <use x="127.24609375" xlink:href="#DejaVuSans-30"/>
      </g>
     </g>
    </g>
    <g id="xtick_4">
     <g id="line2d_15">
      <path clip-path="url(#p8b1a3e3f79)" d="
M240.364 253.542
L240.364 23.1418" style="fill:none;stroke:#000000;stroke-dasharray:1.000000,3.000000;stroke-dashoffset:0.0;stroke-linecap:butt;stroke-width:0.5;"/>
     </g>
     <g id="line2d_16">
      <g>
       <use style="stroke:#000000;stroke-linecap:butt;stroke-width:0.5;" x="240.36375" xlink:href="#m0012dd4eef" y="253.54175"/>
      </g>
     </g>
     <g id="line2d_17">
      <g>
       <use style="stroke:#000000;stroke-linecap:butt;stroke-width:0.5;" x="240.36375" xlink:href="#m476344969c" y="23.14175"/>
      </g>
     </g>
     <g id="text_4">
      <!-- 300 -->
      <defs>
       <path d="
M40.5781 39.3125
Q47.6562 37.7969 51.625 33
Q55.6094 28.2188 55.6094 21.1875
Q55.6094 10.4062 48.1875 4.48438
Q40.7656 -1.42188 27.0938 -1.42188
Q22.5156 -1.42188 17.6562 -0.515625
Q12.7969 0.390625 7.625 2.20312
L7.625 11.7188
Q11.7188 9.32812 16.5938 8.10938
Q21.4844 6.89062 26.8125 6.89062
Q36.0781 6.89062 40.9375 10.5469
Q45.7969 14.2031 45.7969 21.1875
Q45.7969 27.6406 41.2812 31.2656
Q36.7656 34.9062 28.7188 34.9062
L20.2188 34.9062
L20.2188 43.0156
L29.1094 43.0156
Q36.375 43.0156 40.2344 45.9219
Q44.0938 48.8281 44.0938 54.2969
Q44.0938 59.9062 40.1094 62.9062
Q36.1406 65.9219 28.7188 65.9219
Q24.6562 65.9219 20.0156 65.0312
Q15.375 64.1562 9.8125 62.3125
L9.8125 71.0938
Q15.4375 72.6562 20.3438 73.4375
Q25.25 74.2188 29.5938 74.2188
Q40.8281 74.2188 47.3594 69.1094
Q53.9062 64.0156 53.9062 55.3281
Q53.9062 49.2656 50.4375 45.0938
Q46.9688 40.9219 40.5781 39.3125" id="DejaVuSans-33"/>
      </defs>
      <g transform="translate(229.7671875 266.448)scale(0.12 -0.12)">
       <use xlink:href="#DejaVuSans-33"/>
       <use x="63.623046875" xlink:href="#DejaVuSans-30"/>
       <use x="127.24609375" xlink:href="#DejaVuSans-30"/>
      </g>
     </g>
    </g>
    <g id="xtick_5">
     <g id="line2d_18">
      <path clip-path="url(#p8b1a3e3f79)" d="
M305.464 253.542
L305.464 23.1418" style="fill:none;stroke:#000000;stroke-dasharray:1.000000,3.000000;stroke-dashoffset:0.0;stroke-linecap:butt;stroke-width:0.5;"/>
     </g>
     <g id="line2d_19">
      <g>
       <use style="stroke:#000000;stroke-linecap:butt;stroke-width:0.5;" x="305.46375" xlink:href="#m0012dd4eef" y="253.54175"/>
      </g>
     </g>
     <g id="line2d_20">
      <g>
       <use style="stroke:#000000;stroke-linecap:butt;stroke-width:0.5;" x="305.46375" xlink:href="#m476344969c" y="23.14175"/>
      </g>
     </g>
     <g id="text_5">
      <!-- 400 -->
      <defs>
       <path d="
M37.7969 64.3125
L12.8906 25.3906
L37.7969 25.3906
z

M35.2031 72.9062
L47.6094 72.9062
L47.6094 25.3906
L58.0156 25.3906
L58.0156 17.1875
L47.6094 17.1875
L47.6094 0
L37.7969 0
L37.7969 17.1875
L4.89062 17.1875
L4.89062 26.7031
z
" id="DejaVuSans-34"/>
      </defs>
      <g transform="translate(294.703125 266.448)scale(0.12 -0.12)">
       <use xlink:href="#DejaVuSans-34"/>
       <use x="63.623046875" xlink:href="#DejaVuSans-30"/>
       <use x="127.24609375" xlink:href="#DejaVuSans-30"/>
      </g>
     </g>
    </g>
    <g id="xtick_6">
     <g id="line2d_21">
      <path clip-path="url(#p8b1a3e3f79)" d="
M370.564 253.542
L370.564 23.1418" style="fill:none;stroke:#000000;stroke-dasharray:1.000000,3.000000;stroke-dashoffset:0.0;stroke-linecap:butt;stroke-width:0.5;"/>
     </g>
     <g id="line2d_22">
      <g>
       <use style="stroke:#000000;stroke-linecap:butt;stroke-width:0.5;" x="370.56375" xlink:href="#m0012dd4eef" y="253.54175"/>
      </g>
     </g>
     <g id="line2d_23">
      <g>
       <use style="stroke:#000000;stroke-linecap:butt;stroke-width:0.5;" x="370.56375" xlink:href="#m476344969c" y="23.14175"/>
      </g>
     </g>
     <g id="text_6">
      <!-- 500 -->
      <defs>
       <path d="
M10.7969 72.9062
L49.5156 72.9062
L49.5156 64.5938
L19.8281 64.5938
L19.8281 46.7344
Q21.9688 47.4688 24.1094 47.8281
Q26.2656 48.1875 28.4219 48.1875
Q40.625 48.1875 47.75 41.5
Q54.8906 34.8125 54.8906 23.3906
Q54.8906 11.625 47.5625 5.09375
Q40.2344 -1.42188 26.9062 -1.42188
Q22.3125 -1.42188 17.5469 -0.640625
Q12.7969 0.140625 7.71875 1.70312
L7.71875 11.625
Q12.1094 9.23438 16.7969 8.0625
Q21.4844 6.89062 26.7031 6.89062
Q35.1562 6.89062 40.0781 11.3281
Q45.0156 15.7656 45.0156 23.3906
Q45.0156 31 40.0781 35.4375
Q35.1562 39.8906 26.7031 39.8906
Q22.75 39.8906 18.8125 39.0156
Q14.8906 38.1406 10.7969 36.2812
z
" id="DejaVuSans-35"/>
      </defs>
      <g transform="translate(359.9728125 266.448)scale(0.12 -0.12)">
       <use xlink:href="#DejaVuSans-35"/>
       <use x="63.623046875" xlink:href="#DejaVuSans-30"/>
       <use x="127.24609375" xlink:href="#DejaVuSans-30"/>
      </g>
     </g>
    </g>
    <g id="xtick_7">
     <g id="line2d_24">
      <path clip-path="url(#p8b1a3e3f79)" d="
M435.664 253.542
L435.664 23.1418" style="fill:none;stroke:#000000;stroke-dasharray:1.000000,3.000000;stroke-dashoffset:0.0;stroke-linecap:butt;stroke-width:0.5;"/>
     </g>
     <g id="line2d_25">
      <g>
       <use style="stroke:#000000;stroke-linecap:butt;stroke-width:0.5;" x="435.66375" xlink:href="#m0012dd4eef" y="253.54175"/>
      </g>
     </g>
     <g id="line2d_26">
      <g>
       <use style="stroke:#000000;stroke-linecap:butt;stroke-width:0.5;" x="435.66375" xlink:href="#m476344969c" y="23.14175"/>
      </g>
     </g>
     <g id="text_7">
      <!-- 600 -->
      <defs>
       <path d="
M33.0156 40.375
Q26.375 40.375 22.4844 35.8281
Q18.6094 31.2969 18.6094 23.3906
Q18.6094 15.5312 22.4844 10.9531
Q26.375 6.39062 33.0156 6.39062
Q39.6562 6.39062 43.5312 10.9531
Q47.4062 15.5312 47.4062 23.3906
Q47.4062 31.2969 43.5312 35.8281
Q39.6562 40.375 33.0156 40.375
M52.5938 71.2969
L52.5938 62.3125
Q48.875 64.0625 45.0938 64.9844
Q41.3125 65.9219 37.5938 65.9219
Q27.8281 65.9219 22.6719 59.3281
Q17.5312 52.7344 16.7969 39.4062
Q19.6719 43.6562 24.0156 45.9219
Q28.375 48.1875 33.5938 48.1875
Q44.5781 48.1875 50.9531 41.5156
Q57.3281 34.8594 57.3281 23.3906
Q57.3281 12.1562 50.6875 5.35938
Q44.0469 -1.42188 33.0156 -1.42188
Q20.3594 -1.42188 13.6719 8.26562
Q6.98438 17.9688 6.98438 36.375
Q6.98438 53.6562 15.1875 63.9375
Q23.3906 74.2188 37.2031 74.2188
Q40.9219 74.2188 44.7031 73.4844
Q48.4844 72.75 52.5938 71.2969" id="DejaVuSans-36"/>
      </defs>
      <g transform="translate(425.02875 266.448)scale(0.12 -0.12)">
       <use xlink:href="#DejaVuSans-36"/>
       <use x="63.623046875" xlink:href="#DejaVuSans-30"/>
       <use x="127.24609375" xlink:href="#DejaVuSans-30"/>
      </g>
     </g>
    </g>
    <g id="text_8">
     <!-- Time in s -->
     <defs>
      <path d="
M52 44.1875
Q55.375 50.25 60.0625 53.125
Q64.75 56 71.0938 56
Q79.6406 56 84.2812 50.0156
Q88.9219 44.0469 88.9219 33.0156
L88.9219 0
L79.8906 0
L79.8906 32.7188
Q79.8906 40.5781 77.0938 44.375
Q74.3125 48.1875 68.6094 48.1875
Q61.625 48.1875 57.5625 43.5469
Q53.5156 38.9219 53.5156 30.9062
L53.5156 0
L44.4844 0
L44.4844 32.7188
Q44.4844 40.625 41.7031 44.4062
Q38.9219 48.1875 33.1094 48.1875
Q26.2188 48.1875 22.1562 43.5312
Q18.1094 38.875 18.1094 30.9062
L18.1094 0
L9.07812 0
L9.07812 54.6875
L18.1094 54.6875
L18.1094 46.1875
Q21.1875 51.2188 25.4844 53.6094
Q29.7812 56 35.6875 56
Q41.6562 56 45.8281 52.9688
Q50 49.9531 52 44.1875" id="DejaVuSans-6d"/>
      <path d="
M54.8906 33.0156
L54.8906 0
L45.9062 0
L45.9062 32.7188
Q45.9062 40.4844 42.875 44.3281
Q39.8438 48.1875 33.7969 48.1875
Q26.5156 48.1875 22.3125 43.5469
Q18.1094 38.9219 18.1094 30.9062
L18.1094 0
L9.07812 0
L9.07812 54.6875
L18.1094 54.6875
L18.1094 46.1875
Q21.3438 51.125 25.7031 53.5625
Q30.0781 56 35.7969 56
Q45.2188 56 50.0469 50.1719
Q54.8906 44.3438 54.8906 33.0156" id="DejaVuSans-6e"/>
      <path id="DejaVuSans-20"/>
      <path d="
M9.42188 54.6875
L18.4062 54.6875
L18.4062 0
L9.42188 0
z

M9.42188 75.9844
L18.4062 75.9844
L18.4062 64.5938
L9.42188 64.5938
z
" id="DejaVuSans-69"/>
      <path d="
M56.2031 29.5938
L56.2031 25.2031
L14.8906 25.2031
Q15.4844 15.9219 20.4844 11.0625
Q25.4844 6.20312 34.4219 6.20312
Q39.5938 6.20312 44.4531 7.46875
Q49.3125 8.73438 54.1094 11.2812
L54.1094 2.78125
Q49.2656 0.734375 44.1875 -0.34375
Q39.1094 -1.42188 33.8906 -1.42188
Q20.7969 -1.42188 13.1562 6.1875
Q5.51562 13.8125 5.51562 26.8125
Q5.51562 40.2344 12.7656 48.1094
Q20.0156 56 32.3281 56
Q43.3594 56 49.7812 48.8906
Q56.2031 41.7969 56.2031 29.5938
M47.2188 32.2344
Q47.125 39.5938 43.0938 43.9844
Q39.0625 48.3906 32.4219 48.3906
Q24.9062 48.3906 20.3906 44.1406
Q15.875 39.8906 15.1875 32.1719
z
" id="DejaVuSans-65"/>
      <path d="
M44.2812 53.0781
L44.2812 44.5781
Q40.4844 46.5312 36.375 47.5
Q32.2812 48.4844 27.875 48.4844
Q21.1875 48.4844 17.8438 46.4375
Q14.5 44.3906 14.5 40.2812
Q14.5 37.1562 16.8906 35.375
Q19.2812 33.5938 26.5156 31.9844
L29.5938 31.2969
Q39.1562 29.25 43.1875 25.5156
Q47.2188 21.7812 47.2188 15.0938
Q47.2188 7.46875 41.1875 3.01562
Q35.1562 -1.42188 24.6094 -1.42188
Q20.2188 -1.42188 15.4531 -0.5625
Q10.6875 0.296875 5.42188 2
L5.42188 11.2812
Q10.4062 8.6875 15.2344 7.39062
Q20.0625 6.10938 24.8125 6.10938
Q31.1562 6.10938 34.5625 8.28125
Q37.9844 10.4531 37.9844 14.4062
Q37.9844 18.0625 35.5156 20.0156
Q33.0625 21.9688 24.7031 23.7812
L21.5781 24.5156
Q13.2344 26.2656 9.51562 29.9062
Q5.8125 33.5469 5.8125 39.8906
Q5.8125 47.6094 11.2812 51.7969
Q16.75 56 26.8125 56
Q31.7812 56 36.1719 55.2656
Q40.5781 54.5469 44.2812 53.0781" id="DejaVuSans-73"/>
      <path d="
M-0.296875 72.9062
L61.375 72.9062
L61.375 64.5938
L35.5 64.5938
L35.5 0
L25.5938 0
L25.5938 64.5938
L-0.296875 64.5938
z
" id="DejaVuSans-54"/>
     </defs>
     <g transform="translate(213.549375 280.73675)scale(0.12 -0.12)">
      <use xlink:href="#DejaVuSans-54"/>
      <use x="57.958984375" xlink:href="#DejaVuSans-69"/>
      <use x="85.7421875" xlink:href="#DejaVuSans-6d"/>
      <use x="183.154296875" xlink:href="#DejaVuSans-65"/>
      <use x="244.677734375" xlink:href="#DejaVuSans-20"/>
      <use x="276.46484375" xlink:href="#DejaVuSans-69"/>
      <use x="304.248046875" xlink:href="#DejaVuSans-6e"/>
      <use x="367.626953125" xlink:href="#DejaVuSans-20"/>
      <use x="399.4140625" xlink:href="#DejaVuSans-73"/>
     </g>
    </g>
   </g>
   <g id="matplotlib.axis_2">
    <g id="ytick_1">
     <g id="line2d_27">
      <path clip-path="url(#p8b1a3e3f79)" d="
M45.0637 253.542
L435.664 253.542" style="fill:none;stroke:#000000;stroke-dasharray:1.000000,3.000000;stroke-dashoffset:0.0;stroke-linecap:butt;stroke-width:0.5;"/>
     </g>
     <g id="line2d_28">
      <defs>
       <path d="
M0 0
L4 0" id="me8a85f7bf6" style="stroke:#000000;stroke-linecap:butt;stroke-width:0.5;"/>
      </defs>
      <g>
       <use style="stroke:#000000;stroke-linecap:butt;stroke-width:0.5;" x="45.06375" xlink:href="#me8a85f7bf6" y="253.54175"/>
      </g>
     </g>
     <g id="line2d_29">
      <defs>
       <path d="
M0 0
L-4 0" id="m1a32005dea" style="stroke:#000000;stroke-linecap:butt;stroke-width:0.5;"/>
      </defs>
      <g>
       <use style="stroke:#000000;stroke-linecap:butt;stroke-width:0.5;" x="435.66375" xlink:href="#m1a32005dea" y="253.54175"/>
      </g>
     </g>
     <g id="text_9">
      <!-- 0.1 -->
      <defs>
       <path d="
M10.6875 12.4062
L21 12.4062
L21 0
L10.6875 0
z
" id="DejaVuSans-2e"/>
      </defs>
      <g transform="translate(23.879375 257.9095625)scale(0.12 -0.12)">
       <use xlink:href="#DejaVuSans-30"/>
       <use x="63.623046875" xlink:href="#DejaVuSans-2e"/>
       <use x="95.41015625" xlink:href="#DejaVuSans-31"/>
      </g>
     </g>
    </g>
    <g id="ytick_2">
     <g id="line2d_30">
      <path clip-path="url(#p8b1a3e3f79)" d="
M45.0637 227.942
L435.664 227.942" style="fill:none;stroke:#000000;stroke-dasharray:1.000000,3.000000;stroke-dashoffset:0.0;stroke-linecap:butt;stroke-width:0.5;"/>
     </g>
     <g id="line2d_31">
      <g>
       <use style="stroke:#000000;stroke-linecap:butt;stroke-width:0.5;" x="45.06375" xlink:href="#me8a85f7bf6" y="227.94175"/>
      </g>
     </g>
     <g id="line2d_32">
      <g>
       <use style="stroke:#000000;stroke-linecap:butt;stroke-width:0.5;" x="435.66375" xlink:href="#m1a32005dea" y="227.94175"/>
      </g>
     </g>
     <g id="text_10">
      <!-- 0.2 -->
      <g transform="translate(23.973125 232.3095625)scale(0.12 -0.12)">
       <use xlink:href="#DejaVuSans-30"/>
       <use x="63.623046875" xlink:href="#DejaVuSans-2e"/>
       <use x="95.41015625" xlink:href="#DejaVuSans-32"/>
      </g>
     </g>
    </g>
    <g id="ytick_3">
     <g id="line2d_33">
      <path clip-path="url(#p8b1a3e3f79)" d="
M45.0637 202.342
L435.664 202.342" style="fill:none;stroke:#000000;stroke-dasharray:1.000000,3.000000;stroke-dashoffset:0.0;stroke-linecap:butt;stroke-width:0.5;"/>
     </g>
     <g id="line2d_34">
      <g>
       <use style="stroke:#000000;stroke-linecap:butt;stroke-width:0.5;" x="45.06375" xlink:href="#me8a85f7bf6" y="202.34175"/>
      </g>
     </g>
     <g id="line2d_35">
      <g>
       <use style="stroke:#000000;stroke-linecap:butt;stroke-width:0.5;" x="435.66375" xlink:href="#m1a32005dea" y="202.34175"/>
      </g>
     </g>
     <g id="text_11">
      <!-- 0.3 -->
      <g transform="translate(23.733125 206.7095625)scale(0.12 -0.12)">
       <use xlink:href="#DejaVuSans-30"/>
       <use x="63.623046875" xlink:href="#DejaVuSans-2e"/>
       <use x="95.41015625" xlink:href="#DejaVuSans-33"/>
      </g>
     </g>
    </g>
    <g id="ytick_4">
     <g id="line2d_36">
      <path clip-path="url(#p8b1a3e3f79)" d="
M45.0637 176.742
L435.664 176.742" style="fill:none;stroke:#000000;stroke-dasharray:1.000000,3.000000;stroke-dashoffset:0.0;stroke-linecap:butt;stroke-width:0.5;"/>
     </g>
     <g id="line2d_37">
      <g>
       <use style="stroke:#000000;stroke-linecap:butt;stroke-width:0.5;" x="45.06375" xlink:href="#me8a85f7bf6" y="176.74175"/>
      </g>
     </g>
     <g id="line2d_38">
      <g>
       <use style="stroke:#000000;stroke-linecap:butt;stroke-width:0.5;" x="435.66375" xlink:href="#m1a32005dea" y="176.74175"/>
      </g>
     </g>
     <g id="text_12">
      <!-- 0.4 -->
      <g transform="translate(23.444375 181.1095625)scale(0.12 -0.12)">
       <use xlink:href="#DejaVuSans-30"/>
       <use x="63.623046875" xlink:href="#DejaVuSans-2e"/>
       <use x="95.41015625" xlink:href="#DejaVuSans-34"/>
      </g>
     </g>
    </g>
    <g id="ytick_5">
     <g id="line2d_39">
      <path clip-path="url(#p8b1a3e3f79)" d="
M45.0637 151.142
L435.664 151.142" style="fill:none;stroke:#000000;stroke-dasharray:1.000000,3.000000;stroke-dashoffset:0.0;stroke-linecap:butt;stroke-width:0.5;"/>
     </g>
     <g id="line2d_40">
      <g>
       <use style="stroke:#000000;stroke-linecap:butt;stroke-width:0.5;" x="45.06375" xlink:href="#me8a85f7bf6" y="151.14175"/>
      </g>
     </g>
     <g id="line2d_41">
      <g>
       <use style="stroke:#000000;stroke-linecap:butt;stroke-width:0.5;" x="435.66375" xlink:href="#m1a32005dea" y="151.14175"/>
      </g>
     </g>
     <g id="text_13">
      <!-- 0.5 -->
      <g transform="translate(23.819375 155.5095625)scale(0.12 -0.12)">
       <use xlink:href="#DejaVuSans-30"/>
       <use x="63.623046875" xlink:href="#DejaVuSans-2e"/>
       <use x="95.41015625" xlink:href="#DejaVuSans-35"/>
      </g>
     </g>
    </g>
    <g id="ytick_6">
     <g id="line2d_42">
      <path clip-path="url(#p8b1a3e3f79)" d="
M45.0637 125.542
L435.664 125.542" style="fill:none;stroke:#000000;stroke-dasharray:1.000000,3.000000;stroke-dashoffset:0.0;stroke-linecap:butt;stroke-width:0.5;"/>
     </g>
     <g id="line2d_43">
      <g>
       <use style="stroke:#000000;stroke-linecap:butt;stroke-width:0.5;" x="45.06375" xlink:href="#me8a85f7bf6" y="125.54175"/>
      </g>
     </g>
     <g id="line2d_44">
      <g>
       <use style="stroke:#000000;stroke-linecap:butt;stroke-width:0.5;" x="435.66375" xlink:href="#m1a32005dea" y="125.54175"/>
      </g>
     </g>
     <g id="text_14">
      <!-- 0.6 -->
      <g transform="translate(23.526875 129.9095625)scale(0.12 -0.12)">
       <use xlink:href="#DejaVuSans-30"/>
       <use x="63.623046875" xlink:href="#DejaVuSans-2e"/>
       <use x="95.41015625" xlink:href="#DejaVuSans-36"/>
      </g>
     </g>
    </g>
    <g id="ytick_7">
     <g id="line2d_45">
      <path clip-path="url(#p8b1a3e3f79)" d="
M45.0637 99.9418
L435.664 99.9418" style="fill:none;stroke:#000000;stroke-dasharray:1.000000,3.000000;stroke-dashoffset:0.0;stroke-linecap:butt;stroke-width:0.5;"/>
     </g>
     <g id="line2d_46">
      <g>
       <use style="stroke:#000000;stroke-linecap:butt;stroke-width:0.5;" x="45.06375" xlink:href="#me8a85f7bf6" y="99.94175"/>
      </g>
     </g>
     <g id="line2d_47">
      <g>
       <use style="stroke:#000000;stroke-linecap:butt;stroke-width:0.5;" x="435.66375" xlink:href="#m1a32005dea" y="99.94175"/>
      </g>
     </g>
     <g id="text_15">
      <!-- 0.7 -->
      <defs>
       <path d="
M8.20312 72.9062
L55.0781 72.9062
L55.0781 68.7031
L28.6094 0
L18.3125 0
L43.2188 64.5938
L8.20312 64.5938
z
" id="DejaVuSans-37"/>
      </defs>
      <g transform="translate(23.796875 104.3095625)scale(0.12 -0.12)">
       <use xlink:href="#DejaVuSans-30"/>
       <use x="63.623046875" xlink:href="#DejaVuSans-2e"/>
       <use x="95.41015625" xlink:href="#DejaVuSans-37"/>
      </g>
     </g>
    </g>
    <g id="ytick_8">
     <g id="line2d_48">
      <path clip-path="url(#p8b1a3e3f79)" d="
M45.0637 74.3418
L435.664 74.3418" style="fill:none;stroke:#000000;stroke-dasharray:1.000000,3.000000;stroke-dashoffset:0.0;stroke-linecap:butt;stroke-width:0.5;"/>
     </g>
     <g id="line2d_49">
      <g>
       <use style="stroke:#000000;stroke-linecap:butt;stroke-width:0.5;" x="45.06375" xlink:href="#me8a85f7bf6" y="74.34175"/>
      </g>
     </g>
     <g id="line2d_50">
      <g>
       <use style="stroke:#000000;stroke-linecap:butt;stroke-width:0.5;" x="435.66375" xlink:href="#m1a32005dea" y="74.34175"/>
      </g>
     </g>
     <g id="text_16">
      <!-- 0.8 -->
      <defs>
       <path d="
M31.7812 34.625
Q24.75 34.625 20.7188 30.8594
Q16.7031 27.0938 16.7031 20.5156
Q16.7031 13.9219 20.7188 10.1562
Q24.75 6.39062 31.7812 6.39062
Q38.8125 6.39062 42.8594 10.1719
Q46.9219 13.9688 46.9219 20.5156
Q46.9219 27.0938 42.8906 30.8594
Q38.875 34.625 31.7812 34.625
M21.9219 38.8125
Q15.5781 40.375 12.0312 44.7188
Q8.5 49.0781 8.5 55.3281
Q8.5 64.0625 14.7188 69.1406
Q20.9531 74.2188 31.7812 74.2188
Q42.6719 74.2188 48.875 69.1406
Q55.0781 64.0625 55.0781 55.3281
Q55.0781 49.0781 51.5312 44.7188
Q48 40.375 41.7031 38.8125
Q48.8281 37.1562 52.7969 32.3125
Q56.7812 27.4844 56.7812 20.5156
Q56.7812 9.90625 50.3125 4.23438
Q43.8438 -1.42188 31.7812 -1.42188
Q19.7344 -1.42188 13.25 4.23438
Q6.78125 9.90625 6.78125 20.5156
Q6.78125 27.4844 10.7812 32.3125
Q14.7969 37.1562 21.9219 38.8125
M18.3125 54.3906
Q18.3125 48.7344 21.8438 45.5625
Q25.3906 42.3906 31.7812 42.3906
Q38.1406 42.3906 41.7188 45.5625
Q45.3125 48.7344 45.3125 54.3906
Q45.3125 60.0625 41.7188 63.2344
Q38.1406 66.4062 31.7812 66.4062
Q25.3906 66.4062 21.8438 63.2344
Q18.3125 60.0625 18.3125 54.3906" id="DejaVuSans-38"/>
      </defs>
      <g transform="translate(23.5925 78.7095625)scale(0.12 -0.12)">
       <use xlink:href="#DejaVuSans-30"/>
       <use x="63.623046875" xlink:href="#DejaVuSans-2e"/>
       <use x="95.41015625" xlink:href="#DejaVuSans-38"/>
      </g>
     </g>
    </g>
    <g id="ytick_9">
     <g id="line2d_51">
      <path clip-path="url(#p8b1a3e3f79)" d="
M45.0637 48.7418
L435.664 48.7418" style="fill:none;stroke:#000000;stroke-dasharray:1.000000,3.000000;stroke-dashoffset:0.0;stroke-linecap:butt;stroke-width:0.5;"/>
     </g>
     <g id="line2d_52">
      <g>
       <use style="stroke:#000000;stroke-linecap:butt;stroke-width:0.5;" x="45.06375" xlink:href="#me8a85f7bf6" y="48.74175"/>
      </g>
     </g>
     <g id="line2d_53">
      <g>
       <use style="stroke:#000000;stroke-linecap:butt;stroke-width:0.5;" x="435.66375" xlink:href="#m1a32005dea" y="48.74175"/>
      </g>
     </g>
     <g id="text_17">
      <!-- 0.9 -->
      <defs>
       <path d="
M10.9844 1.51562
L10.9844 10.5
Q14.7031 8.73438 18.5 7.8125
Q22.3125 6.89062 25.9844 6.89062
Q35.75 6.89062 40.8906 13.4531
Q46.0469 20.0156 46.7812 33.4062
Q43.9531 29.2031 39.5938 26.9531
Q35.25 24.7031 29.9844 24.7031
Q19.0469 24.7031 12.6719 31.3125
Q6.29688 37.9375 6.29688 49.4219
Q6.29688 60.6406 12.9375 67.4219
Q19.5781 74.2188 30.6094 74.2188
Q43.2656 74.2188 49.9219 64.5156
Q56.5938 54.8281 56.5938 36.375
Q56.5938 19.1406 48.4062 8.85938
Q40.2344 -1.42188 26.4219 -1.42188
Q22.7031 -1.42188 18.8906 -0.6875
Q15.0938 0.046875 10.9844 1.51562
M30.6094 32.4219
Q37.25 32.4219 41.125 36.9531
Q45.0156 41.5 45.0156 49.4219
Q45.0156 57.2812 41.125 61.8438
Q37.25 66.4062 30.6094 66.4062
Q23.9688 66.4062 20.0938 61.8438
Q16.2188 57.2812 16.2188 49.4219
Q16.2188 41.5 20.0938 36.9531
Q23.9688 32.4219 30.6094 32.4219" id="DejaVuSans-39"/>
      </defs>
      <g transform="translate(23.615 53.1095625)scale(0.12 -0.12)">
       <use xlink:href="#DejaVuSans-30"/>
       <use x="63.623046875" xlink:href="#DejaVuSans-2e"/>
       <use x="95.41015625" xlink:href="#DejaVuSans-39"/>
      </g>
     </g>
    </g>
    <g id="ytick_10">
     <g id="line2d_54">
      <path clip-path="url(#p8b1a3e3f79)" d="
M45.0637 23.1418
L435.664 23.1418" style="fill:none;stroke:#000000;stroke-dasharray:1.000000,3.000000;stroke-dashoffset:0.0;stroke-linecap:butt;stroke-width:0.5;"/>
     </g>
     <g id="line2d_55">
      <g>
       <use style="stroke:#000000;stroke-linecap:butt;stroke-width:0.5;" x="45.06375" xlink:href="#me8a85f7bf6" y="23.14175"/>
      </g>
     </g>
     <g id="line2d_56">
      <g>
       <use style="stroke:#000000;stroke-linecap:butt;stroke-width:0.5;" x="435.66375" xlink:href="#m1a32005dea" y="23.14175"/>
      </g>
     </g>
     <g id="text_18">
      <!-- 1.0 -->
      <g transform="translate(24.095 27.5095625)scale(0.12 -0.12)">
       <use xlink:href="#DejaVuSans-31"/>
       <use x="63.623046875" xlink:href="#DejaVuSans-2e"/>
       <use x="95.41015625" xlink:href="#DejaVuSans-30"/>
      </g>
     </g>
    </g>
    <g id="text_19">
     <!-- Bytes/s -->
     <defs>
      <path d="
M18.3125 70.2188
L18.3125 54.6875
L36.8125 54.6875
L36.8125 47.7031
L18.3125 47.7031
L18.3125 18.0156
Q18.3125 11.3281 20.1406 9.42188
Q21.9688 7.51562 27.5938 7.51562
L36.8125 7.51562
L36.8125 0
L27.5938 0
Q17.1875 0 13.2344 3.875
Q9.28125 7.76562 9.28125 18.0156
L9.28125 47.7031
L2.6875 47.7031
L2.6875 54.6875
L9.28125 54.6875
L9.28125 70.2188
z
" id="DejaVuSans-74"/>
      <path d="
M32.1719 -5.07812
Q28.375 -14.8438 24.75 -17.8125
Q21.1406 -20.7969 15.0938 -20.7969
L7.90625 -20.7969
L7.90625 -13.2812
L13.1875 -13.2812
Q16.8906 -13.2812 18.9375 -11.5156
Q21 -9.76562 23.4844 -3.21875
L25.0938 0.875
L2.98438 54.6875
L12.5 54.6875
L29.5938 11.9219
L46.6875 54.6875
L56.2031 54.6875
z
" id="DejaVuSans-79"/>
      <path d="
M25.3906 72.9062
L33.6875 72.9062
L8.29688 -9.28125
L0 -9.28125
z
" id="DejaVuSans-2f"/>
      <path d="
M19.6719 34.8125
L19.6719 8.10938
L35.5 8.10938
Q43.4531 8.10938 47.2812 11.4062
Q51.125 14.7031 51.125 21.4844
Q51.125 28.3281 47.2812 31.5625
Q43.4531 34.8125 35.5 34.8125
z

M19.6719 64.7969
L19.6719 42.8281
L34.2812 42.8281
Q41.5 42.8281 45.0312 45.5312
Q48.5781 48.25 48.5781 53.8125
Q48.5781 59.3281 45.0312 62.0625
Q41.5 64.7969 34.2812 64.7969
z

M9.8125 72.9062
L35.0156 72.9062
Q46.2969 72.9062 52.3906 68.2188
Q58.5 63.5312 58.5 54.8906
Q58.5 48.1875 55.375 44.2344
Q52.25 40.2812 46.1875 39.3125
Q53.4688 37.75 57.5 32.7812
Q61.5312 27.8281 61.5312 20.4062
Q61.5312 10.6406 54.8906 5.3125
Q48.25 0 35.9844 0
L9.8125 0
z
" id="DejaVuSans-42"/>
     </defs>
     <g transform="translate(18.444375 156.94925)rotate(-90.0)scale(0.12 -0.12)">
      <use xlink:href="#DejaVuSans-42"/>
      <use x="68.603515625" xlink:href="#DejaVuSans-79"/>
      <use x="127.783203125" xlink:href="#DejaVuSans-74"/>
      <use x="166.9921875" xlink:href="#DejaVuSans-65"/>
      <use x="228.515625" xlink:href="#DejaVuSans-73"/>
      <use x="280.615234375" xlink:href="#DejaVuSans-2f"/>
      <use x="314.306640625" xlink:href="#DejaVuSans-73"/>
     </g>
    </g>
    <g id="text_20">
     <!-- 1e7 -->
     <g transform="translate(45.06375 20.14175)scale(0.12 -0.12)">
      <use xlink:href="#DejaVuSans-31"/>
      <use x="63.623046875" xlink:href="#DejaVuSans-65"/>
      <use x="125.146484375" xlink:href="#DejaVuSans-37"/>
     </g>
    </g>
   </g>
   <g id="patch_3">
    <path d="
M45.0637 23.1418
L435.664 23.1418" style="fill:none;stroke:#000000;"/>
   </g>
   <g id="patch_4">
    <path d="
M435.664 253.542
L435.664 23.1418" style="fill:none;stroke:#000000;"/>
   </g>
   <g id="patch_5">
    <path d="
M45.0637 253.542
L435.664 253.542" style="fill:none;stroke:#000000;"/>
   </g>
   <g id="patch_6">
    <path d="
M45.0637 253.542
L45.0637 23.1418" style="fill:none;stroke:#000000;"/>
   </g>
   <g id="text_21">
    <!-- Successfully Received Bytes -->
    <defs>
     <path d="
M2.98438 54.6875
L12.5 54.6875
L29.5938 8.79688
L46.6875 54.6875
L56.2031 54.6875
L35.6875 0
L23.4844 0
z
" id="DejaVuSans-76"/>
     <path d="
M9.42188 75.9844
L18.4062 75.9844
L18.4062 0
L9.42188 0
z
" id="DejaVuSans-6c"/>
     <path d="
M8.5 21.5781
L8.5 54.6875
L17.4844 54.6875
L17.4844 21.9219
Q17.4844 14.1562 20.5 10.2656
Q23.5312 6.39062 29.5938 6.39062
Q36.8594 6.39062 41.0781 11.0312
Q45.3125 15.6719 45.3125 23.6875
L45.3125 54.6875
L54.2969 54.6875
L54.2969 0
L45.3125 0
L45.3125 8.40625
Q42.0469 3.42188 37.7188 1
Q33.4062 -1.42188 27.6875 -1.42188
Q18.2656 -1.42188 13.375 4.4375
Q8.5 10.2969 8.5 21.5781
M31.1094 56
z
" id="DejaVuSans-75"/>
     <path d="
M53.5156 70.5156
L53.5156 60.8906
Q47.9062 63.5781 42.9219 64.8906
Q37.9375 66.2188 33.2969 66.2188
Q25.25 66.2188 20.875 63.0938
Q16.5 59.9688 16.5 54.2031
Q16.5 49.3594 19.4062 46.8906
Q22.3125 44.4375 30.4219 42.9219
L36.375 41.7031
Q47.4062 39.5938 52.6562 34.2969
Q57.9062 29 57.9062 20.125
Q57.9062 9.51562 50.7969 4.04688
Q43.7031 -1.42188 29.9844 -1.42188
Q24.8125 -1.42188 18.9688 -0.25
Q13.1406 0.921875 6.89062 3.21875
L6.89062 13.375
Q12.8906 10.0156 18.6562 8.29688
Q24.4219 6.59375 29.9844 6.59375
Q38.4219 6.59375 43.0156 9.90625
Q47.6094 13.2344 47.6094 19.3906
Q47.6094 24.75 44.3125 27.7812
Q41.0156 30.8125 33.5 32.3281
L27.4844 33.5
Q16.4531 35.6875 11.5156 40.375
Q6.59375 45.0625 6.59375 53.4219
Q6.59375 63.0938 13.4062 68.6562
Q20.2188 74.2188 32.1719 74.2188
Q37.3125 74.2188 42.625 73.2812
Q47.9531 72.3594 53.5156 70.5156" id="DejaVuSans-53"/>
     <path d="
M44.3906 34.1875
Q47.5625 33.1094 50.5625 29.5938
Q53.5625 26.0781 56.5938 19.9219
L66.6094 0
L56 0
L46.6875 18.7031
Q43.0625 26.0312 39.6719 28.4219
Q36.2812 30.8125 30.4219 30.8125
L19.6719 30.8125
L19.6719 0
L9.8125 0
L9.8125 72.9062
L32.0781 72.9062
Q44.5781 72.9062 50.7344 67.6719
Q56.8906 62.4531 56.8906 51.9062
Q56.8906 45.0156 53.6875 40.4688
Q50.4844 35.9375 44.3906 34.1875
M19.6719 64.7969
L19.6719 38.9219
L32.0781 38.9219
Q39.2031 38.9219 42.8438 42.2188
Q46.4844 45.5156 46.4844 51.9062
Q46.4844 58.2969 42.8438 61.5469
Q39.2031 64.7969 32.0781 64.7969
z
" id="DejaVuSans-52"/>
     <path d="
M45.4062 46.3906
L45.4062 75.9844
L54.3906 75.9844
L54.3906 0
L45.4062 0
L45.4062 8.20312
Q42.5781 3.32812 38.25 0.953125
Q33.9375 -1.42188 27.875 -1.42188
Q17.9688 -1.42188 11.7344 6.48438
Q5.51562 14.4062 5.51562 27.2969
Q5.51562 40.1875 11.7344 48.0938
Q17.9688 56 27.875 56
Q33.9375 56 38.25 53.625
Q42.5781 51.2656 45.4062 46.3906
M14.7969 27.2969
Q14.7969 17.3906 18.875 11.75
Q22.9531 6.10938 30.0781 6.10938
Q37.2031 6.10938 41.2969 11.75
Q45.4062 17.3906 45.4062 27.2969
Q45.4062 37.2031 41.2969 42.8438
Q37.2031 48.4844 30.0781 48.4844
Q22.9531 48.4844 18.875 42.8438
Q14.7969 37.2031 14.7969 27.2969" id="DejaVuSans-64"/>
     <path d="
M37.1094 75.9844
L37.1094 68.5
L28.5156 68.5
Q23.6875 68.5 21.7969 66.5469
Q19.9219 64.5938 19.9219 59.5156
L19.9219 54.6875
L34.7188 54.6875
L34.7188 47.7031
L19.9219 47.7031
L19.9219 0
L10.8906 0
L10.8906 47.7031
L2.29688 47.7031
L2.29688 54.6875
L10.8906 54.6875
L10.8906 58.5
Q10.8906 67.625 15.1406 71.7969
Q19.3906 75.9844 28.6094 75.9844
z
" id="DejaVuSans-66"/>
     <path d="
M48.7812 52.5938
L48.7812 44.1875
Q44.9688 46.2969 41.1406 47.3438
Q37.3125 48.3906 33.4062 48.3906
Q24.6562 48.3906 19.8125 42.8438
Q14.9844 37.3125 14.9844 27.2969
Q14.9844 17.2812 19.8125 11.7344
Q24.6562 6.20312 33.4062 6.20312
Q37.3125 6.20312 41.1406 7.25
Q44.9688 8.29688 48.7812 10.4062
L48.7812 2.09375
Q45.0156 0.34375 40.9844 -0.53125
Q36.9688 -1.42188 32.4219 -1.42188
Q20.0625 -1.42188 12.7812 6.34375
Q5.51562 14.1094 5.51562 27.2969
Q5.51562 40.6719 12.8594 48.3281
Q20.2188 56 33.0156 56
Q37.1562 56 41.1094 55.1406
Q45.0625 54.2969 48.7812 52.5938" id="DejaVuSans-63"/>
    </defs>
    <g transform="translate(138.829125 18.14175)scale(0.144 -0.144)">
     <use xlink:href="#DejaVuSans-53"/>
     <use x="63.4765625" xlink:href="#DejaVuSans-75"/>
     <use x="126.85546875" xlink:href="#DejaVuSans-63"/>
     <use x="181.8359375" xlink:href="#DejaVuSans-63"/>
     <use x="236.81640625" xlink:href="#DejaVuSans-65"/>
     <use x="298.33984375" xlink:href="#DejaVuSans-73"/>
     <use x="350.439453125" xlink:href="#DejaVuSans-73"/>
     <use x="402.5390625" xlink:href="#DejaVuSans-66"/>
     <use x="437.744140625" xlink:href="#DejaVuSans-75"/>
     <use x="501.123046875" xlink:href="#DejaVuSans-6c"/>
     <use x="528.90625" xlink:href="#DejaVuSans-6c"/>
     <use x="556.689453125" xlink:href="#DejaVuSans-79"/>
     <use x="615.869140625" xlink:href="#DejaVuSans-20"/>
     <use x="647.65625" xlink:href="#DejaVuSans-52"/>
     <use x="712.638671875" xlink:href="#DejaVuSans-65"/>
     <use x="774.162109375" xlink:href="#DejaVuSans-63"/>
     <use x="829.142578125" xlink:href="#DejaVuSans-65"/>
     <use x="890.666015625" xlink:href="#DejaVuSans-69"/>
     <use x="918.44921875" xlink:href="#DejaVuSans-76"/>
     <use x="977.62890625" xlink:href="#DejaVuSans-65"/>
     <use x="1039.15234375" xlink:href="#DejaVuSans-64"/>
     <use x="1102.62890625" xlink:href="#DejaVuSans-20"/>
     <use x="1134.41601562" xlink:href="#DejaVuSans-42"/>
     <use x="1203.01953125" xlink:href="#DejaVuSans-79"/>
     <use x="1262.19921875" xlink:href="#DejaVuSans-74"/>
     <use x="1301.40820312" xlink:href="#DejaVuSans-65"/>
     <use x="1362.93164062" xlink:href="#DejaVuSans-73"/>
    </g>
   </g>
   <g id="legend_1">
    <g id="patch_7">
     <path d="
M455.194 167.735
L569.05 167.735
L569.05 92.2618
L455.194 92.2618
L455.194 167.735
z
" style="fill:#ffffff;stroke:#000000;"/>
    </g>
    <g id="line2d_57">
     <path d="
M462.194 100.36
L476.194 100.36" style="fill:none;stroke:#0000ff;"/>
    </g>
    <g id="line2d_58"/>
    <g id="text_22">
     <!-- 1 -->
     <g transform="translate(487.19375 103.8601875)scale(0.1 -0.1)">
      <use xlink:href="#DejaVuSans-31"/>
     </g>
    </g>
    <g id="line2d_59">
     <path d="
M462.194 115.038
L476.194 115.038" style="fill:none;stroke:#008000;"/>
    </g>
    <g id="line2d_60"/>
    <g id="text_23">
     <!-- 1,6,11 -->
     <defs>
      <path d="
M11.7188 12.4062
L22.0156 12.4062
L22.0156 4
L14.0156 -11.625
L7.71875 -11.625
L11.7188 4
z
" id="DejaVuSans-2c"/>
     </defs>
     <g transform="translate(487.19375 118.5383125)scale(0.1 -0.1)">
      <use xlink:href="#DejaVuSans-31"/>
      <use x="63.623046875" xlink:href="#DejaVuSans-2c"/>
      <use x="95.41015625" xlink:href="#DejaVuSans-36"/>
      <use x="159.033203125" xlink:href="#DejaVuSans-2c"/>
      <use x="190.8203125" xlink:href="#DejaVuSans-31"/>
      <use x="254.443359375" xlink:href="#DejaVuSans-31"/>
     </g>
    </g>
    <g id="line2d_61">
     <path d="
M462.194 129.716
L476.194 129.716" style="fill:none;stroke:#ff0000;"/>
    </g>
    <g id="line2d_62"/>
    <g id="text_24">
     <!-- 1,6,11,36,40,44 -->
     <g transform="translate(487.19375 133.2164375)scale(0.1 -0.1)">
      <use xlink:href="#DejaVuSans-31"/>
      <use x="63.623046875" xlink:href="#DejaVuSans-2c"/>
      <use x="95.41015625" xlink:href="#DejaVuSans-36"/>
      <use x="159.033203125" xlink:href="#DejaVuSans-2c"/>
      <use x="190.8203125" xlink:href="#DejaVuSans-31"/>
      <use x="254.443359375" xlink:href="#DejaVuSans-31"/>
      <use x="318.06640625" xlink:href="#DejaVuSans-2c"/>
      <use x="349.853515625" xlink:href="#DejaVuSans-33"/>
      <use x="413.4765625" xlink:href="#DejaVuSans-36"/>
      <use x="477.099609375" xlink:href="#DejaVuSans-2c"/>
      <use x="508.88671875" xlink:href="#DejaVuSans-34"/>
      <use x="572.509765625" xlink:href="#DejaVuSans-30"/>
      <use x="636.1328125" xlink:href="#DejaVuSans-2c"/>
      <use x="667.919921875" xlink:href="#DejaVuSans-34"/>
      <use x="731.54296875" xlink:href="#DejaVuSans-34"/>
     </g>
    </g>
    <g id="line2d_63">
     <path d="
M462.194 144.395
L476.194 144.395" style="fill:none;stroke:#00bfbf;"/>
    </g>
    <g id="line2d_64"/>
    <g id="text_25">
     <!-- 36 -->
     <g transform="translate(487.19375 147.8945625)scale(0.1 -0.1)">
      <use xlink:href="#DejaVuSans-33"/>
      <use x="63.623046875" xlink:href="#DejaVuSans-36"/>
     </g>
    </g>
    <g id="line2d_65">
     <path d="
M462.194 159.073
L476.194 159.073" style="fill:none;stroke:#bf00bf;"/>
    </g>
    <g id="line2d_66"/>
    <g id="text_26">
     <!-- 36,40,44 -->
     <g transform="translate(487.19375 162.5726875)scale(0.1 -0.1)">
      <use xlink:href="#DejaVuSans-33"/>
      <use x="63.623046875" xlink:href="#DejaVuSans-36"/>
      <use x="127.24609375" xlink:href="#DejaVuSans-2c"/>
      <use x="159.033203125" xlink:href="#DejaVuSans-34"/>
      <use x="222.65625" xlink:href="#DejaVuSans-30"/>
      <use x="286.279296875" xlink:href="#DejaVuSans-2c"/>
      <use x="318.06640625" xlink:href="#DejaVuSans-34"/>
      <use x="381.689453125" xlink:href="#DejaVuSans-34"/>
     </g>
    </g>
   </g>
  </g>
 </g>
 <defs>
  <clipPath id="p8b1a3e3f79">
   <rect height="230.4" width="390.6" x="45.06375" y="23.14175"/>
  </clipPath>
 </defs>
</svg>
