<?xml version="1.0" encoding="utf-8" standalone="no"?>
<!DOCTYPE svg PUBLIC "-//W3C//DTD SVG 1.1//EN"
  "http://www.w3.org/Graphics/SVG/1.1/DTD/svg11.dtd">
<!-- Created with matplotlib (http://matplotlib.sourceforge.net/) -->
<svg height="403pt" version="1.1" viewBox="0 0 640 403" width="640pt" xmlns="http://www.w3.org/2000/svg" xmlns:xlink="http://www.w3.org/1999/xlink">
 <defs>
  <style type="text/css">
*{stroke-linecap:square;stroke-linejoin:round;}
  </style>
 </defs>
 <g id="figure_1">
  <g id="patch_1">
   <path d="
M0 403.307
L640.519 403.307
L640.519 0
L0 0
z
" style="fill:#ffffff;"/>
  </g>
  <g id="axes_1">
   <g id="patch_2">
    <path d="
M50.7431 368.742
L497.143 368.742
L497.143 23.1417
L50.7431 23.1417
z
" style="fill:#ffffff;"/>
   </g>
   <g id="line2d_1">
    <path clip-path="url(#p02c720a66c)" d="
M50.7431 130.301
L55.9511 93.1169
L61.1591 106.065
L66.3671 117.017
L71.5751 108.173
L76.7831 120.095
L81.9911 114.538
L87.1991 136.349
L92.4071 121.889
L97.6151 138.652
L102.823 131.136
L108.031 118.949
L113.239 124.625
L118.447 128.841
L123.655 129.16
L128.863 139.112
L134.071 136.699
L139.279 146.373
L144.487 133.953
L149.695 117.783
L154.903 164.943
L160.111 125.833
L165.319 136.719
L170.527 125.134
L175.735 150.815
L180.943 145.891
L186.151 110.027
L191.359 108.87
L196.567 136.511
L201.775 138.268
L206.983 129.267
L212.191 118.053
L217.399 165.056
L222.607 138.922
L227.815 152.418
L233.023 153.589
L238.231 168.161
L243.439 146.243
L248.647 109.997
L253.855 110.632
L259.063 127.948
L264.271 131.086
L269.479 143.01
L274.687 130.87
L279.895 144.439
L285.103 113.063
L290.311 121.945
L295.519 108.689
L300.727 131.184
L305.935 114.327
L311.143 98.9111
L316.351 150.975
L321.559 139.558
L326.767 133.103
L331.975 128.165
L337.183 116.025
L342.391 112.492
L347.599 130.208
L352.807 164.062
L358.015 123.402
L363.223 115.379
L368.431 121.979
L373.639 108.622
L378.847 125.027
L384.055 74.4946
L389.263 94.1965
L394.471 109.365
L399.679 126.144
L404.887 125.978
L410.095 97.6359
L415.303 122.217
L420.511 142.853
L425.719 133.869
L430.927 126.149
L436.135 104.161
L441.343 100.8
L446.551 135.536
L451.759 121.261
L456.967 124.26
L462.175 110.101
L467.383 128.464
L472.591 121.712
L477.799 117.216
L483.007 114.72
L488.215 93.6367
L493.423 127.676
L498.631 105.66
L503.839 126.707" style="fill:none;stroke:#0000ff;"/>
   </g>
   <g id="line2d_2">
    <path clip-path="url(#p02c720a66c)" d="
M50.7431 199.932
L55.9511 229.201
L61.1591 236.006
L66.3671 243.02
L71.5751 225.75
L76.7831 221.693
L81.9911 225.125
L87.1991 202.848
L92.4071 234.579
L97.6151 258.693
L102.823 246.665
L108.031 230.579
L113.239 222.689
L118.447 224.123
L123.655 248.473
L128.863 247.453
L134.071 228.42
L139.279 224.637
L144.487 211.044
L149.695 245.908
L154.903 228.441
L160.111 259.981
L165.319 240.806
L170.527 276.294
L175.735 237.886
L180.943 237.845
L186.151 240.514
L191.359 251.194
L196.567 225.956
L201.775 242.1
L206.983 205.24
L212.191 236.178
L217.399 268.21
L222.607 236.471
L227.815 253.302
L233.023 240.538
L238.231 279.228
L243.439 282.244
L248.647 280.895
L253.855 290.622
L259.063 279.788
L264.271 284.084
L269.479 273.089
L274.687 266.402
L279.895 297.444
L285.103 287.739
L290.311 234.986
L295.519 264.408
L300.727 243.369
L305.935 257.023
L311.143 219.866
L316.351 219.437
L321.559 245.613
L326.767 259.669
L331.975 256.972
L337.183 257.08
L342.391 262.778
L347.599 276.831
L352.807 263.507
L358.015 225.417
L363.223 238.081
L368.431 253.033
L373.639 249.914
L378.847 274.884
L384.055 298.797
L389.263 288.076
L394.471 312.565
L399.679 299.772
L404.887 295.222
L410.095 295.062
L415.303 256.089
L420.511 277.167
L425.719 276.064
L430.927 278.411
L436.135 280.901
L441.343 287.881
L446.551 254.763
L451.759 211.069
L456.967 229.385
L462.175 218.907
L467.383 241.767
L472.591 228.204
L477.799 241.402
L483.007 270.625
L488.215 256.67
L493.423 255.174
L498.631 227.7
L503.839 244.307" style="fill:none;stroke:#008000;"/>
   </g>
   <g id="line2d_3">
    <path clip-path="url(#p02c720a66c)" d="
M50.7431 294.888
L55.9511 300.599
L61.1591 307.55
L66.3671 304.291
L71.5751 327.412
L76.7831 307.229
L81.9911 336.215
L87.1991 325.415
L92.4071 306.201
L97.6151 296.128
L102.823 306.646
L108.031 290.133
L113.239 317.352
L118.447 305.491
L123.655 306.982
L128.863 294.74
L134.071 308.635
L139.279 296.858
L144.487 305.196
L149.695 297.022
L154.903 290.783
L160.111 314.942
L165.319 296.026
L170.527 294.699
L175.735 299.905
L180.943 316.579
L186.151 308.583
L191.359 291.346
L196.567 293.263
L201.775 283.068
L206.983 291.88
L212.191 298.866
L217.399 310.683
L222.607 298.587
L227.815 281.807
L233.023 305.969
L238.231 312.927
L243.439 303.413
L248.647 295.647
L253.855 288.996
L259.063 288.449
L264.271 300.441
L269.479 287.126
L274.687 281.359
L279.895 282.823
L285.103 305.515
L290.311 290.132
L295.519 294.708
L300.727 291.669
L305.935 304.441
L311.143 298.564
L316.351 316.659
L321.559 299.638
L326.767 306.726
L331.975 311.089
L337.183 307.072
L342.391 311.046
L347.599 309.24
L352.807 313.335
L358.015 309.283
L363.223 289.713
L368.431 307.478
L373.639 294.057
L378.847 296.347
L384.055 294.56
L389.263 304.234
L394.471 298.158
L399.679 316.013
L404.887 307.121
L410.095 308.889
L415.303 309.941
L420.511 311.495
L425.719 300.131
L430.927 309.208
L436.135 304.003
L441.343 297.26
L446.551 299.02
L451.759 316.426
L456.967 304.694
L462.175 291.122
L467.383 291.985
L472.591 305.223
L477.799 309.777
L483.007 301.312
L488.215 306.32
L493.423 302.107
L498.631 312.269
L503.839 305.828" style="fill:none;stroke:#ff0000;"/>
   </g>
   <g id="line2d_4">
    <path clip-path="url(#p02c720a66c)" d="
M50.7431 86.5884
L55.9511 107.046
L61.1591 99.3152
L66.3671 121.256
L71.5751 92.9296
L76.7831 63.9112
L81.9911 125.96
L87.1991 75.6548
L92.4071 91.9894
L97.6151 50.5506
L102.823 88.8162
L108.031 99.5792
L113.239 87.3561
L118.447 64.8555
L123.655 63.7268
L128.863 92.2159
L134.071 62.7188
L139.279 103.219
L144.487 65.0139
L149.695 89.5362
L154.903 66.9749
L160.111 65.048
L165.319 115.775
L170.527 116.591
L175.735 81.0168
L180.943 99.9704
L186.151 63.375
L191.359 109.434
L196.567 96.0124
L201.775 119.134
L206.983 85.3814
L212.191 105.789
L217.399 84.9672
L222.607 92.1686
L227.815 78.7301
L233.023 77.9705
L238.231 98.2633
L243.439 116.616
L248.647 84.1458
L253.855 94.6105
L259.063 105.325
L264.271 67.2446
L269.479 113.954
L274.687 68.8913
L279.895 58.7561
L285.103 108.307
L290.311 74.1263
L295.519 87.037
L300.727 108.032
L305.935 95.657
L311.143 77.5423
L316.351 85.9781
L321.559 96.3928
L326.767 73.991
L331.975 81.3077
L337.183 75.4191
L342.391 98.7174
L347.599 76.1089
L352.807 85.8796
L358.015 84.1483
L363.223 77.25
L368.431 79.1346
L373.639 79.1194
L378.847 104.831
L384.055 68.1114
L389.263 110.054
L394.471 89.1743
L399.679 74.3582
L404.887 103.686
L410.095 77.2488
L415.303 53.8711
L420.511 91.6704
L425.719 91.8528
L430.927 110.744
L436.135 82.3783
L441.343 111.85
L446.551 85.044
L451.759 88.639
L456.967 57.1022
L462.175 72.3341
L467.383 49.7304
L472.591 45.4769
L477.799 121.151
L483.007 64.4065
L488.215 92.3655
L493.423 100.272
L498.631 95.13
L503.839 92.6125" style="fill:none;stroke:#00bfbf;"/>
   </g>
   <g id="line2d_5">
    <path clip-path="url(#p02c720a66c)" d="
M50.7431 202.262
L55.9511 183.17
L61.1591 204.462
L66.3671 176.897
L71.5751 174.277
L76.7831 214.368
L81.9911 211.886
L87.1991 219.503
L92.4071 198.279
L97.6151 223.477
L102.823 184.063
L108.031 176.831
L113.239 166.135
L118.447 181.35
L123.655 182.579
L128.863 170.561
L134.071 180.579
L139.279 166.554
L144.487 168.129
L149.695 160.116
L154.903 178.369
L160.111 171.13
L165.319 153.623
L170.527 185.845
L175.735 167.28
L180.943 168.11
L186.151 158.87
L191.359 163.649
L196.567 156.68
L201.775 150.961
L206.983 174.068
L212.191 164.867
L217.399 179.442
L222.607 171.919
L227.815 168.96
L233.023 162.933
L238.231 181.127
L243.439 175.439
L248.647 164.663
L253.855 172.688
L259.063 188.14
L264.271 197.731
L269.479 174.9
L274.687 183.296
L279.895 193.029
L285.103 198.251
L290.311 171.438
L295.519 190.129
L300.727 189.337
L305.935 185.246
L311.143 196.194
L316.351 174.271
L321.559 163.53
L326.767 184.596
L331.975 183.876
L337.183 158.866
L342.391 175.717
L347.599 176.071
L352.807 172.864
L358.015 158.359
L363.223 143.278
L368.431 177.971
L373.639 189.115
L378.847 192.981
L384.055 170.081
L389.263 164.374
L394.471 160.789
L399.679 195.932
L404.887 201.6
L410.095 184.773
L415.303 170.652
L420.511 179.668
L425.719 199.147
L430.927 165.759
L436.135 183.918
L441.343 178.208
L446.551 186.648
L451.759 200.629
L456.967 191.213
L462.175 210.489
L467.383 182.536
L472.591 180.535
L477.799 172.594
L483.007 176.025
L488.215 184.211
L493.423 153.016
L498.631 174.565
L503.839 178.229" style="fill:none;stroke:#bf00bf;"/>
   </g>
   <g id="matplotlib.axis_1">
    <g id="xtick_1">
     <g id="line2d_6">
      <path clip-path="url(#p02c720a66c)" d="
M50.7431 368.742
L50.7431 23.1417" style="fill:none;stroke:#000000;stroke-dasharray:1.000000,3.000000;stroke-dashoffset:0.0;stroke-linecap:butt;stroke-width:0.5;"/>
     </g>
     <g id="line2d_7">
      <defs>
       <path d="
M0 0
L0 -4" id="m0012dd4eef" style="stroke:#000000;stroke-linecap:butt;stroke-width:0.5;"/>
      </defs>
      <g>
       <use style="stroke:#000000;stroke-linecap:butt;stroke-width:0.5;" x="50.743125" xlink:href="#m0012dd4eef" y="368.74175"/>
      </g>
     </g>
     <g id="line2d_8">
      <defs>
       <path d="
M0 0
L0 4" id="m476344969c" style="stroke:#000000;stroke-linecap:butt;stroke-width:0.5;"/>
      </defs>
      <g>
       <use style="stroke:#000000;stroke-linecap:butt;stroke-width:0.5;" x="50.743125" xlink:href="#m476344969c" y="23.14175"/>
      </g>
     </g>
     <g id="text_1">
      <!-- 0 -->
      <defs>
       <path d="
M31.7812 66.4062
Q24.1719 66.4062 20.3281 58.9062
Q16.5 51.4219 16.5 36.375
Q16.5 21.3906 20.3281 13.8906
Q24.1719 6.39062 31.7812 6.39062
Q39.4531 6.39062 43.2812 13.8906
Q47.125 21.3906 47.125 36.375
Q47.125 51.4219 43.2812 58.9062
Q39.4531 66.4062 31.7812 66.4062
M31.7812 74.2188
Q44.0469 74.2188 50.5156 64.5156
Q56.9844 54.8281 56.9844 36.375
Q56.9844 17.9688 50.5156 8.26562
Q44.0469 -1.42188 31.7812 -1.42188
Q19.5312 -1.42188 13.0625 8.26562
Q6.59375 17.9688 6.59375 36.375
Q6.59375 54.8281 13.0625 64.5156
Q19.5312 74.2188 31.7812 74.2188" id="DejaVuSans-30"/>
      </defs>
      <g transform="translate(47.7196875 381.648)scale(0.12 -0.12)">
       <use xlink:href="#DejaVuSans-30"/>
      </g>
     </g>
    </g>
    <g id="xtick_2">
     <g id="line2d_9">
      <path clip-path="url(#p02c720a66c)" d="
M125.143 368.742
L125.143 23.1417" style="fill:none;stroke:#000000;stroke-dasharray:1.000000,3.000000;stroke-dashoffset:0.0;stroke-linecap:butt;stroke-width:0.5;"/>
     </g>
     <g id="line2d_10">
      <g>
       <use style="stroke:#000000;stroke-linecap:butt;stroke-width:0.5;" x="125.143125" xlink:href="#m0012dd4eef" y="368.74175"/>
      </g>
     </g>
     <g id="line2d_11">
      <g>
       <use style="stroke:#000000;stroke-linecap:butt;stroke-width:0.5;" x="125.143125" xlink:href="#m476344969c" y="23.14175"/>
      </g>
     </g>
     <g id="text_2">
      <!-- 100 -->
      <defs>
       <path d="
M12.4062 8.29688
L28.5156 8.29688
L28.5156 63.9219
L10.9844 60.4062
L10.9844 69.3906
L28.4219 72.9062
L38.2812 72.9062
L38.2812 8.29688
L54.3906 8.29688
L54.3906 0
L12.4062 0
z
" id="DejaVuSans-31"/>
      </defs>
      <g transform="translate(114.748125 381.648)scale(0.12 -0.12)">
       <use xlink:href="#DejaVuSans-31"/>
       <use x="63.623046875" xlink:href="#DejaVuSans-30"/>
       <use x="127.24609375" xlink:href="#DejaVuSans-30"/>
      </g>
     </g>
    </g>
    <g id="xtick_3">
     <g id="line2d_12">
      <path clip-path="url(#p02c720a66c)" d="
M199.543 368.742
L199.543 23.1417" style="fill:none;stroke:#000000;stroke-dasharray:1.000000,3.000000;stroke-dashoffset:0.0;stroke-linecap:butt;stroke-width:0.5;"/>
     </g>
     <g id="line2d_13">
      <g>
       <use style="stroke:#000000;stroke-linecap:butt;stroke-width:0.5;" x="199.543125" xlink:href="#m0012dd4eef" y="368.74175"/>
      </g>
     </g>
     <g id="line2d_14">
      <g>
       <use style="stroke:#000000;stroke-linecap:butt;stroke-width:0.5;" x="199.543125" xlink:href="#m476344969c" y="23.14175"/>
      </g>
     </g>
     <g id="text_3">
      <!-- 200 -->
      <defs>
       <path d="
M19.1875 8.29688
L53.6094 8.29688
L53.6094 0
L7.32812 0
L7.32812 8.29688
Q12.9375 14.1094 22.625 23.8906
Q32.3281 33.6875 34.8125 36.5312
Q39.5469 41.8438 41.4219 45.5312
Q43.3125 49.2188 43.3125 52.7812
Q43.3125 58.5938 39.2344 62.25
Q35.1562 65.9219 28.6094 65.9219
Q23.9688 65.9219 18.8125 64.3125
Q13.6719 62.7031 7.8125 59.4219
L7.8125 69.3906
Q13.7656 71.7812 18.9375 73
Q24.125 74.2188 28.4219 74.2188
Q39.75 74.2188 46.4844 68.5469
Q53.2188 62.8906 53.2188 53.4219
Q53.2188 48.9219 51.5312 44.8906
Q49.8594 40.875 45.4062 35.4062
Q44.1875 33.9844 37.6406 27.2188
Q31.1094 20.4531 19.1875 8.29688" id="DejaVuSans-32"/>
      </defs>
      <g transform="translate(188.92875 381.648)scale(0.12 -0.12)">
       <use xlink:href="#DejaVuSans-32"/>
       <use x="63.623046875" xlink:href="#DejaVuSans-30"/>
       <use x="127.24609375" xlink:href="#DejaVuSans-30"/>
      </g>
     </g>
    </g>
    <g id="xtick_4">
     <g id="line2d_15">
      <path clip-path="url(#p02c720a66c)" d="
M273.943 368.742
L273.943 23.1417" style="fill:none;stroke:#000000;stroke-dasharray:1.000000,3.000000;stroke-dashoffset:0.0;stroke-linecap:butt;stroke-width:0.5;"/>
     </g>
     <g id="line2d_16">
      <g>
       <use style="stroke:#000000;stroke-linecap:butt;stroke-width:0.5;" x="273.943125" xlink:href="#m0012dd4eef" y="368.74175"/>
      </g>
     </g>
     <g id="line2d_17">
      <g>
       <use style="stroke:#000000;stroke-linecap:butt;stroke-width:0.5;" x="273.943125" xlink:href="#m476344969c" y="23.14175"/>
      </g>
     </g>
     <g id="text_4">
      <!-- 300 -->
      <defs>
       <path d="
M40.5781 39.3125
Q47.6562 37.7969 51.625 33
Q55.6094 28.2188 55.6094 21.1875
Q55.6094 10.4062 48.1875 4.48438
Q40.7656 -1.42188 27.0938 -1.42188
Q22.5156 -1.42188 17.6562 -0.515625
Q12.7969 0.390625 7.625 2.20312
L7.625 11.7188
Q11.7188 9.32812 16.5938 8.10938
Q21.4844 6.89062 26.8125 6.89062
Q36.0781 6.89062 40.9375 10.5469
Q45.7969 14.2031 45.7969 21.1875
Q45.7969 27.6406 41.2812 31.2656
Q36.7656 34.9062 28.7188 34.9062
L20.2188 34.9062
L20.2188 43.0156
L29.1094 43.0156
Q36.375 43.0156 40.2344 45.9219
Q44.0938 48.8281 44.0938 54.2969
Q44.0938 59.9062 40.1094 62.9062
Q36.1406 65.9219 28.7188 65.9219
Q24.6562 65.9219 20.0156 65.0312
Q15.375 64.1562 9.8125 62.3125
L9.8125 71.0938
Q15.4375 72.6562 20.3438 73.4375
Q25.25 74.2188 29.5938 74.2188
Q40.8281 74.2188 47.3594 69.1094
Q53.9062 64.0156 53.9062 55.3281
Q53.9062 49.2656 50.4375 45.0938
Q46.9688 40.9219 40.5781 39.3125" id="DejaVuSans-33"/>
      </defs>
      <g transform="translate(263.3465625 381.648)scale(0.12 -0.12)">
       <use xlink:href="#DejaVuSans-33"/>
       <use x="63.623046875" xlink:href="#DejaVuSans-30"/>
       <use x="127.24609375" xlink:href="#DejaVuSans-30"/>
      </g>
     </g>
    </g>
    <g id="xtick_5">
     <g id="line2d_18">
      <path clip-path="url(#p02c720a66c)" d="
M348.343 368.742
L348.343 23.1417" style="fill:none;stroke:#000000;stroke-dasharray:1.000000,3.000000;stroke-dashoffset:0.0;stroke-linecap:butt;stroke-width:0.5;"/>
     </g>
     <g id="line2d_19">
      <g>
       <use style="stroke:#000000;stroke-linecap:butt;stroke-width:0.5;" x="348.343125" xlink:href="#m0012dd4eef" y="368.74175"/>
      </g>
     </g>
     <g id="line2d_20">
      <g>
       <use style="stroke:#000000;stroke-linecap:butt;stroke-width:0.5;" x="348.343125" xlink:href="#m476344969c" y="23.14175"/>
      </g>
     </g>
     <g id="text_5">
      <!-- 400 -->
      <defs>
       <path d="
M37.7969 64.3125
L12.8906 25.3906
L37.7969 25.3906
z

M35.2031 72.9062
L47.6094 72.9062
L47.6094 25.3906
L58.0156 25.3906
L58.0156 17.1875
L47.6094 17.1875
L47.6094 0
L37.7969 0
L37.7969 17.1875
L4.89062 17.1875
L4.89062 26.7031
z
" id="DejaVuSans-34"/>
      </defs>
      <g transform="translate(337.5825 381.648)scale(0.12 -0.12)">
       <use xlink:href="#DejaVuSans-34"/>
       <use x="63.623046875" xlink:href="#DejaVuSans-30"/>
       <use x="127.24609375" xlink:href="#DejaVuSans-30"/>
      </g>
     </g>
    </g>
    <g id="xtick_6">
     <g id="line2d_21">
      <path clip-path="url(#p02c720a66c)" d="
M422.743 368.742
L422.743 23.1417" style="fill:none;stroke:#000000;stroke-dasharray:1.000000,3.000000;stroke-dashoffset:0.0;stroke-linecap:butt;stroke-width:0.5;"/>
     </g>
     <g id="line2d_22">
      <g>
       <use style="stroke:#000000;stroke-linecap:butt;stroke-width:0.5;" x="422.743125" xlink:href="#m0012dd4eef" y="368.74175"/>
      </g>
     </g>
     <g id="line2d_23">
      <g>
       <use style="stroke:#000000;stroke-linecap:butt;stroke-width:0.5;" x="422.743125" xlink:href="#m476344969c" y="23.14175"/>
      </g>
     </g>
     <g id="text_6">
      <!-- 500 -->
      <defs>
       <path d="
M10.7969 72.9062
L49.5156 72.9062
L49.5156 64.5938
L19.8281 64.5938
L19.8281 46.7344
Q21.9688 47.4688 24.1094 47.8281
Q26.2656 48.1875 28.4219 48.1875
Q40.625 48.1875 47.75 41.5
Q54.8906 34.8125 54.8906 23.3906
Q54.8906 11.625 47.5625 5.09375
Q40.2344 -1.42188 26.9062 -1.42188
Q22.3125 -1.42188 17.5469 -0.640625
Q12.7969 0.140625 7.71875 1.70312
L7.71875 11.625
Q12.1094 9.23438 16.7969 8.0625
Q21.4844 6.89062 26.7031 6.89062
Q35.1562 6.89062 40.0781 11.3281
Q45.0156 15.7656 45.0156 23.3906
Q45.0156 31 40.0781 35.4375
Q35.1562 39.8906 26.7031 39.8906
Q22.75 39.8906 18.8125 39.0156
Q14.8906 38.1406 10.7969 36.2812
z
" id="DejaVuSans-35"/>
      </defs>
      <g transform="translate(412.1521875 381.648)scale(0.12 -0.12)">
       <use xlink:href="#DejaVuSans-35"/>
       <use x="63.623046875" xlink:href="#DejaVuSans-30"/>
       <use x="127.24609375" xlink:href="#DejaVuSans-30"/>
      </g>
     </g>
    </g>
    <g id="xtick_7">
     <g id="line2d_24">
      <path clip-path="url(#p02c720a66c)" d="
M497.143 368.742
L497.143 23.1417" style="fill:none;stroke:#000000;stroke-dasharray:1.000000,3.000000;stroke-dashoffset:0.0;stroke-linecap:butt;stroke-width:0.5;"/>
     </g>
     <g id="line2d_25">
      <g>
       <use style="stroke:#000000;stroke-linecap:butt;stroke-width:0.5;" x="497.143125" xlink:href="#m0012dd4eef" y="368.74175"/>
      </g>
     </g>
     <g id="line2d_26">
      <g>
       <use style="stroke:#000000;stroke-linecap:butt;stroke-width:0.5;" x="497.143125" xlink:href="#m476344969c" y="23.14175"/>
      </g>
     </g>
     <g id="text_7">
      <!-- 600 -->
      <defs>
       <path d="
M33.0156 40.375
Q26.375 40.375 22.4844 35.8281
Q18.6094 31.2969 18.6094 23.3906
Q18.6094 15.5312 22.4844 10.9531
Q26.375 6.39062 33.0156 6.39062
Q39.6562 6.39062 43.5312 10.9531
Q47.4062 15.5312 47.4062 23.3906
Q47.4062 31.2969 43.5312 35.8281
Q39.6562 40.375 33.0156 40.375
M52.5938 71.2969
L52.5938 62.3125
Q48.875 64.0625 45.0938 64.9844
Q41.3125 65.9219 37.5938 65.9219
Q27.8281 65.9219 22.6719 59.3281
Q17.5312 52.7344 16.7969 39.4062
Q19.6719 43.6562 24.0156 45.9219
Q28.375 48.1875 33.5938 48.1875
Q44.5781 48.1875 50.9531 41.5156
Q57.3281 34.8594 57.3281 23.3906
Q57.3281 12.1562 50.6875 5.35938
Q44.0469 -1.42188 33.0156 -1.42188
Q20.3594 -1.42188 13.6719 8.26562
Q6.98438 17.9688 6.98438 36.375
Q6.98438 53.6562 15.1875 63.9375
Q23.3906 74.2188 37.2031 74.2188
Q40.9219 74.2188 44.7031 73.4844
Q48.4844 72.75 52.5938 71.2969" id="DejaVuSans-36"/>
      </defs>
      <g transform="translate(486.508125 381.648)scale(0.12 -0.12)">
       <use xlink:href="#DejaVuSans-36"/>
       <use x="63.623046875" xlink:href="#DejaVuSans-30"/>
       <use x="127.24609375" xlink:href="#DejaVuSans-30"/>
      </g>
     </g>
    </g>
    <g id="text_8">
     <!-- Time in s -->
     <defs>
      <path d="
M52 44.1875
Q55.375 50.25 60.0625 53.125
Q64.75 56 71.0938 56
Q79.6406 56 84.2812 50.0156
Q88.9219 44.0469 88.9219 33.0156
L88.9219 0
L79.8906 0
L79.8906 32.7188
Q79.8906 40.5781 77.0938 44.375
Q74.3125 48.1875 68.6094 48.1875
Q61.625 48.1875 57.5625 43.5469
Q53.5156 38.9219 53.5156 30.9062
L53.5156 0
L44.4844 0
L44.4844 32.7188
Q44.4844 40.625 41.7031 44.4062
Q38.9219 48.1875 33.1094 48.1875
Q26.2188 48.1875 22.1562 43.5312
Q18.1094 38.875 18.1094 30.9062
L18.1094 0
L9.07812 0
L9.07812 54.6875
L18.1094 54.6875
L18.1094 46.1875
Q21.1875 51.2188 25.4844 53.6094
Q29.7812 56 35.6875 56
Q41.6562 56 45.8281 52.9688
Q50 49.9531 52 44.1875" id="DejaVuSans-6d"/>
      <path d="
M54.8906 33.0156
L54.8906 0
L45.9062 0
L45.9062 32.7188
Q45.9062 40.4844 42.875 44.3281
Q39.8438 48.1875 33.7969 48.1875
Q26.5156 48.1875 22.3125 43.5469
Q18.1094 38.9219 18.1094 30.9062
L18.1094 0
L9.07812 0
L9.07812 54.6875
L18.1094 54.6875
L18.1094 46.1875
Q21.3438 51.125 25.7031 53.5625
Q30.0781 56 35.7969 56
Q45.2188 56 50.0469 50.1719
Q54.8906 44.3438 54.8906 33.0156" id="DejaVuSans-6e"/>
      <path id="DejaVuSans-20"/>
      <path d="
M9.42188 54.6875
L18.4062 54.6875
L18.4062 0
L9.42188 0
z

M9.42188 75.9844
L18.4062 75.9844
L18.4062 64.5938
L9.42188 64.5938
z
" id="DejaVuSans-69"/>
      <path d="
M56.2031 29.5938
L56.2031 25.2031
L14.8906 25.2031
Q15.4844 15.9219 20.4844 11.0625
Q25.4844 6.20312 34.4219 6.20312
Q39.5938 6.20312 44.4531 7.46875
Q49.3125 8.73438 54.1094 11.2812
L54.1094 2.78125
Q49.2656 0.734375 44.1875 -0.34375
Q39.1094 -1.42188 33.8906 -1.42188
Q20.7969 -1.42188 13.1562 6.1875
Q5.51562 13.8125 5.51562 26.8125
Q5.51562 40.2344 12.7656 48.1094
Q20.0156 56 32.3281 56
Q43.3594 56 49.7812 48.8906
Q56.2031 41.7969 56.2031 29.5938
M47.2188 32.2344
Q47.125 39.5938 43.0938 43.9844
Q39.0625 48.3906 32.4219 48.3906
Q24.9062 48.3906 20.3906 44.1406
Q15.875 39.8906 15.1875 32.1719
z
" id="DejaVuSans-65"/>
      <path d="
M44.2812 53.0781
L44.2812 44.5781
Q40.4844 46.5312 36.375 47.5
Q32.2812 48.4844 27.875 48.4844
Q21.1875 48.4844 17.8438 46.4375
Q14.5 44.3906 14.5 40.2812
Q14.5 37.1562 16.8906 35.375
Q19.2812 33.5938 26.5156 31.9844
L29.5938 31.2969
Q39.1562 29.25 43.1875 25.5156
Q47.2188 21.7812 47.2188 15.0938
Q47.2188 7.46875 41.1875 3.01562
Q35.1562 -1.42188 24.6094 -1.42188
Q20.2188 -1.42188 15.4531 -0.5625
Q10.6875 0.296875 5.42188 2
L5.42188 11.2812
Q10.4062 8.6875 15.2344 7.39062
Q20.0625 6.10938 24.8125 6.10938
Q31.1562 6.10938 34.5625 8.28125
Q37.9844 10.4531 37.9844 14.4062
Q37.9844 18.0625 35.5156 20.0156
Q33.0625 21.9688 24.7031 23.7812
L21.5781 24.5156
Q13.2344 26.2656 9.51562 29.9062
Q5.8125 33.5469 5.8125 39.8906
Q5.8125 47.6094 11.2812 51.7969
Q16.75 56 26.8125 56
Q31.7812 56 36.1719 55.2656
Q40.5781 54.5469 44.2812 53.0781" id="DejaVuSans-73"/>
      <path d="
M-0.296875 72.9062
L61.375 72.9062
L61.375 64.5938
L35.5 64.5938
L35.5 0
L25.5938 0
L25.5938 64.5938
L-0.296875 64.5938
z
" id="DejaVuSans-54"/>
     </defs>
     <g transform="translate(247.12875 395.93675)scale(0.12 -0.12)">
      <use xlink:href="#DejaVuSans-54"/>
      <use x="57.958984375" xlink:href="#DejaVuSans-69"/>
      <use x="85.7421875" xlink:href="#DejaVuSans-6d"/>
      <use x="183.154296875" xlink:href="#DejaVuSans-65"/>
      <use x="244.677734375" xlink:href="#DejaVuSans-20"/>
      <use x="276.46484375" xlink:href="#DejaVuSans-69"/>
      <use x="304.248046875" xlink:href="#DejaVuSans-6e"/>
      <use x="367.626953125" xlink:href="#DejaVuSans-20"/>
      <use x="399.4140625" xlink:href="#DejaVuSans-73"/>
     </g>
    </g>
   </g>
   <g id="matplotlib.axis_2">
    <g id="ytick_1">
     <g id="line2d_27">
      <path clip-path="url(#p02c720a66c)" d="
M50.7431 368.742
L497.143 368.742" style="fill:none;stroke:#000000;stroke-dasharray:1.000000,3.000000;stroke-dashoffset:0.0;stroke-linecap:butt;stroke-width:0.5;"/>
     </g>
     <g id="line2d_28">
      <defs>
       <path d="
M0 0
L4 0" id="me8a85f7bf6" style="stroke:#000000;stroke-linecap:butt;stroke-width:0.5;"/>
      </defs>
      <g>
       <use style="stroke:#000000;stroke-linecap:butt;stroke-width:0.5;" x="50.743125" xlink:href="#me8a85f7bf6" y="368.74175"/>
      </g>
     </g>
     <g id="line2d_29">
      <defs>
       <path d="
M0 0
L-4 0" id="m1a32005dea" style="stroke:#000000;stroke-linecap:butt;stroke-width:0.5;"/>
      </defs>
      <g>
       <use style="stroke:#000000;stroke-linecap:butt;stroke-width:0.5;" x="497.143125" xlink:href="#m1a32005dea" y="368.74175"/>
      </g>
     </g>
     <g id="text_9">
      <!-- 0.14 -->
      <defs>
       <path d="
M10.6875 12.4062
L21 12.4062
L21 0
L10.6875 0
z
" id="DejaVuSans-2e"/>
      </defs>
      <g transform="translate(21.48875 373.1095625)scale(0.12 -0.12)">
       <use xlink:href="#DejaVuSans-30"/>
       <use x="63.623046875" xlink:href="#DejaVuSans-2e"/>
       <use x="95.41015625" xlink:href="#DejaVuSans-31"/>
       <use x="159.033203125" xlink:href="#DejaVuSans-34"/>
      </g>
     </g>
    </g>
    <g id="ytick_2">
     <g id="line2d_30">
      <path clip-path="url(#p02c720a66c)" d="
M50.7431 299.622
L497.143 299.622" style="fill:none;stroke:#000000;stroke-dasharray:1.000000,3.000000;stroke-dashoffset:0.0;stroke-linecap:butt;stroke-width:0.5;"/>
     </g>
     <g id="line2d_31">
      <g>
       <use style="stroke:#000000;stroke-linecap:butt;stroke-width:0.5;" x="50.743125" xlink:href="#me8a85f7bf6" y="299.62175"/>
      </g>
     </g>
     <g id="line2d_32">
      <g>
       <use style="stroke:#000000;stroke-linecap:butt;stroke-width:0.5;" x="497.143125" xlink:href="#m1a32005dea" y="299.62175"/>
      </g>
     </g>
     <g id="text_10">
      <!-- 0.16 -->
      <g transform="translate(21.57125 303.9895625)scale(0.12 -0.12)">
       <use xlink:href="#DejaVuSans-30"/>
       <use x="63.623046875" xlink:href="#DejaVuSans-2e"/>
       <use x="95.41015625" xlink:href="#DejaVuSans-31"/>
       <use x="159.033203125" xlink:href="#DejaVuSans-36"/>
      </g>
     </g>
    </g>
    <g id="ytick_3">
     <g id="line2d_33">
      <path clip-path="url(#p02c720a66c)" d="
M50.7431 230.502
L497.143 230.502" style="fill:none;stroke:#000000;stroke-dasharray:1.000000,3.000000;stroke-dashoffset:0.0;stroke-linecap:butt;stroke-width:0.5;"/>
     </g>
     <g id="line2d_34">
      <g>
       <use style="stroke:#000000;stroke-linecap:butt;stroke-width:0.5;" x="50.743125" xlink:href="#me8a85f7bf6" y="230.50175"/>
      </g>
     </g>
     <g id="line2d_35">
      <g>
       <use style="stroke:#000000;stroke-linecap:butt;stroke-width:0.5;" x="497.143125" xlink:href="#m1a32005dea" y="230.50175"/>
      </g>
     </g>
     <g id="text_11">
      <!-- 0.18 -->
      <defs>
       <path d="
M31.7812 34.625
Q24.75 34.625 20.7188 30.8594
Q16.7031 27.0938 16.7031 20.5156
Q16.7031 13.9219 20.7188 10.1562
Q24.75 6.39062 31.7812 6.39062
Q38.8125 6.39062 42.8594 10.1719
Q46.9219 13.9688 46.9219 20.5156
Q46.9219 27.0938 42.8906 30.8594
Q38.875 34.625 31.7812 34.625
M21.9219 38.8125
Q15.5781 40.375 12.0312 44.7188
Q8.5 49.0781 8.5 55.3281
Q8.5 64.0625 14.7188 69.1406
Q20.9531 74.2188 31.7812 74.2188
Q42.6719 74.2188 48.875 69.1406
Q55.0781 64.0625 55.0781 55.3281
Q55.0781 49.0781 51.5312 44.7188
Q48 40.375 41.7031 38.8125
Q48.8281 37.1562 52.7969 32.3125
Q56.7812 27.4844 56.7812 20.5156
Q56.7812 9.90625 50.3125 4.23438
Q43.8438 -1.42188 31.7812 -1.42188
Q19.7344 -1.42188 13.25 4.23438
Q6.78125 9.90625 6.78125 20.5156
Q6.78125 27.4844 10.7812 32.3125
Q14.7969 37.1562 21.9219 38.8125
M18.3125 54.3906
Q18.3125 48.7344 21.8438 45.5625
Q25.3906 42.3906 31.7812 42.3906
Q38.1406 42.3906 41.7188 45.5625
Q45.3125 48.7344 45.3125 54.3906
Q45.3125 60.0625 41.7188 63.2344
Q38.1406 66.4062 31.7812 66.4062
Q25.3906 66.4062 21.8438 63.2344
Q18.3125 60.0625 18.3125 54.3906" id="DejaVuSans-38"/>
      </defs>
      <g transform="translate(21.636875 234.8695625)scale(0.12 -0.12)">
       <use xlink:href="#DejaVuSans-30"/>
       <use x="63.623046875" xlink:href="#DejaVuSans-2e"/>
       <use x="95.41015625" xlink:href="#DejaVuSans-31"/>
       <use x="159.033203125" xlink:href="#DejaVuSans-38"/>
      </g>
     </g>
    </g>
    <g id="ytick_4">
     <g id="line2d_36">
      <path clip-path="url(#p02c720a66c)" d="
M50.7431 161.382
L497.143 161.382" style="fill:none;stroke:#000000;stroke-dasharray:1.000000,3.000000;stroke-dashoffset:0.0;stroke-linecap:butt;stroke-width:0.5;"/>
     </g>
     <g id="line2d_37">
      <g>
       <use style="stroke:#000000;stroke-linecap:butt;stroke-width:0.5;" x="50.743125" xlink:href="#me8a85f7bf6" y="161.38175"/>
      </g>
     </g>
     <g id="line2d_38">
      <g>
       <use style="stroke:#000000;stroke-linecap:butt;stroke-width:0.5;" x="497.143125" xlink:href="#m1a32005dea" y="161.38175"/>
      </g>
     </g>
     <g id="text_12">
      <!-- 0.20 -->
      <g transform="translate(21.6125 165.7495625)scale(0.12 -0.12)">
       <use xlink:href="#DejaVuSans-30"/>
       <use x="63.623046875" xlink:href="#DejaVuSans-2e"/>
       <use x="95.41015625" xlink:href="#DejaVuSans-32"/>
       <use x="159.033203125" xlink:href="#DejaVuSans-30"/>
      </g>
     </g>
    </g>
    <g id="ytick_5">
     <g id="line2d_39">
      <path clip-path="url(#p02c720a66c)" d="
M50.7431 92.2617
L497.143 92.2617" style="fill:none;stroke:#000000;stroke-dasharray:1.000000,3.000000;stroke-dashoffset:0.0;stroke-linecap:butt;stroke-width:0.5;"/>
     </g>
     <g id="line2d_40">
      <g>
       <use style="stroke:#000000;stroke-linecap:butt;stroke-width:0.5;" x="50.743125" xlink:href="#me8a85f7bf6" y="92.26175"/>
      </g>
     </g>
     <g id="line2d_41">
      <g>
       <use style="stroke:#000000;stroke-linecap:butt;stroke-width:0.5;" x="497.143125" xlink:href="#m1a32005dea" y="92.26175"/>
      </g>
     </g>
     <g id="text_13">
      <!-- 0.22 -->
      <g transform="translate(22.0175 96.6295625)scale(0.12 -0.12)">
       <use xlink:href="#DejaVuSans-30"/>
       <use x="63.623046875" xlink:href="#DejaVuSans-2e"/>
       <use x="95.41015625" xlink:href="#DejaVuSans-32"/>
       <use x="159.033203125" xlink:href="#DejaVuSans-32"/>
      </g>
     </g>
    </g>
    <g id="ytick_6">
     <g id="line2d_42">
      <path clip-path="url(#p02c720a66c)" d="
M50.7431 23.1417
L497.143 23.1417" style="fill:none;stroke:#000000;stroke-dasharray:1.000000,3.000000;stroke-dashoffset:0.0;stroke-linecap:butt;stroke-width:0.5;"/>
     </g>
     <g id="line2d_43">
      <g>
       <use style="stroke:#000000;stroke-linecap:butt;stroke-width:0.5;" x="50.743125" xlink:href="#me8a85f7bf6" y="23.14175"/>
      </g>
     </g>
     <g id="line2d_44">
      <g>
       <use style="stroke:#000000;stroke-linecap:butt;stroke-width:0.5;" x="497.143125" xlink:href="#m1a32005dea" y="23.14175"/>
      </g>
     </g>
     <g id="text_14">
      <!-- 0.24 -->
      <g transform="translate(21.48875 27.5095625)scale(0.12 -0.12)">
       <use xlink:href="#DejaVuSans-30"/>
       <use x="63.623046875" xlink:href="#DejaVuSans-2e"/>
       <use x="95.41015625" xlink:href="#DejaVuSans-32"/>
       <use x="159.033203125" xlink:href="#DejaVuSans-34"/>
      </g>
     </g>
    </g>
    <g id="text_15">
     <!-- % Packet Errors of Sent Packets -->
     <defs>
      <path d="
M30.6094 48.3906
Q23.3906 48.3906 19.1875 42.75
Q14.9844 37.1094 14.9844 27.2969
Q14.9844 17.4844 19.1562 11.8438
Q23.3438 6.20312 30.6094 6.20312
Q37.7969 6.20312 41.9844 11.8594
Q46.1875 17.5312 46.1875 27.2969
Q46.1875 37.0156 41.9844 42.7031
Q37.7969 48.3906 30.6094 48.3906
M30.6094 56
Q42.3281 56 49.0156 48.375
Q55.7188 40.7656 55.7188 27.2969
Q55.7188 13.875 49.0156 6.21875
Q42.3281 -1.42188 30.6094 -1.42188
Q18.8438 -1.42188 12.1719 6.21875
Q5.51562 13.875 5.51562 27.2969
Q5.51562 40.7656 12.1719 48.375
Q18.8438 56 30.6094 56" id="DejaVuSans-6f"/>
      <path d="
M41.1094 46.2969
Q39.5938 47.1719 37.8125 47.5781
Q36.0312 48 33.8906 48
Q26.2656 48 22.1875 43.0469
Q18.1094 38.0938 18.1094 28.8125
L18.1094 0
L9.07812 0
L9.07812 54.6875
L18.1094 54.6875
L18.1094 46.1875
Q20.9531 51.1719 25.4844 53.5781
Q30.0312 56 36.5312 56
Q37.4531 56 38.5781 55.875
Q39.7031 55.7656 41.0625 55.5156
z
" id="DejaVuSans-72"/>
      <path d="
M9.07812 75.9844
L18.1094 75.9844
L18.1094 31.1094
L44.9219 54.6875
L56.3906 54.6875
L27.3906 29.1094
L57.625 0
L45.9062 0
L18.1094 26.7031
L18.1094 0
L9.07812 0
z
" id="DejaVuSans-6b"/>
      <path d="
M53.5156 70.5156
L53.5156 60.8906
Q47.9062 63.5781 42.9219 64.8906
Q37.9375 66.2188 33.2969 66.2188
Q25.25 66.2188 20.875 63.0938
Q16.5 59.9688 16.5 54.2031
Q16.5 49.3594 19.4062 46.8906
Q22.3125 44.4375 30.4219 42.9219
L36.375 41.7031
Q47.4062 39.5938 52.6562 34.2969
Q57.9062 29 57.9062 20.125
Q57.9062 9.51562 50.7969 4.04688
Q43.7031 -1.42188 29.9844 -1.42188
Q24.8125 -1.42188 18.9688 -0.25
Q13.1406 0.921875 6.89062 3.21875
L6.89062 13.375
Q12.8906 10.0156 18.6562 8.29688
Q24.4219 6.59375 29.9844 6.59375
Q38.4219 6.59375 43.0156 9.90625
Q47.6094 13.2344 47.6094 19.3906
Q47.6094 24.75 44.3125 27.7812
Q41.0156 30.8125 33.5 32.3281
L27.4844 33.5
Q16.4531 35.6875 11.5156 40.375
Q6.59375 45.0625 6.59375 53.4219
Q6.59375 63.0938 13.4062 68.6562
Q20.2188 74.2188 32.1719 74.2188
Q37.3125 74.2188 42.625 73.2812
Q47.9531 72.3594 53.5156 70.5156" id="DejaVuSans-53"/>
      <path d="
M9.8125 72.9062
L55.9062 72.9062
L55.9062 64.5938
L19.6719 64.5938
L19.6719 43.0156
L54.3906 43.0156
L54.3906 34.7188
L19.6719 34.7188
L19.6719 8.29688
L56.7812 8.29688
L56.7812 0
L9.8125 0
z
" id="DejaVuSans-45"/>
      <path d="
M72.7031 32.0781
Q68.4531 32.0781 66.0312 28.4688
Q63.625 24.8594 63.625 18.4062
Q63.625 12.0625 66.0312 8.42188
Q68.4531 4.78125 72.7031 4.78125
Q76.8594 4.78125 79.2656 8.42188
Q81.6875 12.0625 81.6875 18.4062
Q81.6875 24.8125 79.2656 28.4375
Q76.8594 32.0781 72.7031 32.0781
M72.7031 38.2812
Q80.4219 38.2812 84.9531 32.9062
Q89.5 27.5469 89.5 18.4062
Q89.5 9.28125 84.9375 3.92188
Q80.375 -1.42188 72.7031 -1.42188
Q64.8906 -1.42188 60.3438 3.92188
Q55.8125 9.28125 55.8125 18.4062
Q55.8125 27.5938 60.375 32.9375
Q64.9375 38.2812 72.7031 38.2812
M22.3125 68.0156
Q18.1094 68.0156 15.6875 64.375
Q13.2812 60.75 13.2812 54.3906
Q13.2812 47.9531 15.6719 44.3281
Q18.0625 40.7188 22.3125 40.7188
Q26.5625 40.7188 28.9688 44.3281
Q31.3906 47.9531 31.3906 54.3906
Q31.3906 60.6875 28.9531 64.3438
Q26.5156 68.0156 22.3125 68.0156
M66.4062 74.2188
L74.2188 74.2188
L28.6094 -1.42188
L20.7969 -1.42188
z

M22.3125 74.2188
Q30.0312 74.2188 34.6094 68.875
Q39.2031 63.5312 39.2031 54.3906
Q39.2031 45.1719 34.6406 39.8438
Q30.0781 34.5156 22.3125 34.5156
Q14.5469 34.5156 10.0312 39.8594
Q5.51562 45.2188 5.51562 54.3906
Q5.51562 63.4844 10.0469 68.8438
Q14.5938 74.2188 22.3125 74.2188" id="DejaVuSans-25"/>
      <path d="
M37.1094 75.9844
L37.1094 68.5
L28.5156 68.5
Q23.6875 68.5 21.7969 66.5469
Q19.9219 64.5938 19.9219 59.5156
L19.9219 54.6875
L34.7188 54.6875
L34.7188 47.7031
L19.9219 47.7031
L19.9219 0
L10.8906 0
L10.8906 47.7031
L2.29688 47.7031
L2.29688 54.6875
L10.8906 54.6875
L10.8906 58.5
Q10.8906 67.625 15.1406 71.7969
Q19.3906 75.9844 28.6094 75.9844
z
" id="DejaVuSans-66"/>
      <path d="
M18.3125 70.2188
L18.3125 54.6875
L36.8125 54.6875
L36.8125 47.7031
L18.3125 47.7031
L18.3125 18.0156
Q18.3125 11.3281 20.1406 9.42188
Q21.9688 7.51562 27.5938 7.51562
L36.8125 7.51562
L36.8125 0
L27.5938 0
Q17.1875 0 13.2344 3.875
Q9.28125 7.76562 9.28125 18.0156
L9.28125 47.7031
L2.6875 47.7031
L2.6875 54.6875
L9.28125 54.6875
L9.28125 70.2188
z
" id="DejaVuSans-74"/>
      <path d="
M19.6719 64.7969
L19.6719 37.4062
L32.0781 37.4062
Q38.9688 37.4062 42.7188 40.9688
Q46.4844 44.5312 46.4844 51.125
Q46.4844 57.6719 42.7188 61.2344
Q38.9688 64.7969 32.0781 64.7969
z

M9.8125 72.9062
L32.0781 72.9062
Q44.3438 72.9062 50.6094 67.3594
Q56.8906 61.8125 56.8906 51.125
Q56.8906 40.3281 50.6094 34.8125
Q44.3438 29.2969 32.0781 29.2969
L19.6719 29.2969
L19.6719 0
L9.8125 0
z
" id="DejaVuSans-50"/>
      <path d="
M48.7812 52.5938
L48.7812 44.1875
Q44.9688 46.2969 41.1406 47.3438
Q37.3125 48.3906 33.4062 48.3906
Q24.6562 48.3906 19.8125 42.8438
Q14.9844 37.3125 14.9844 27.2969
Q14.9844 17.2812 19.8125 11.7344
Q24.6562 6.20312 33.4062 6.20312
Q37.3125 6.20312 41.1406 7.25
Q44.9688 8.29688 48.7812 10.4062
L48.7812 2.09375
Q45.0156 0.34375 40.9844 -0.53125
Q36.9688 -1.42188 32.4219 -1.42188
Q20.0625 -1.42188 12.7812 6.34375
Q5.51562 14.1094 5.51562 27.2969
Q5.51562 40.6719 12.8594 48.3281
Q20.2188 56 33.0156 56
Q37.1562 56 41.1094 55.1406
Q45.0625 54.2969 48.7812 52.5938" id="DejaVuSans-63"/>
      <path d="
M34.2812 27.4844
Q23.3906 27.4844 19.1875 25
Q14.9844 22.5156 14.9844 16.5
Q14.9844 11.7188 18.1406 8.90625
Q21.2969 6.10938 26.7031 6.10938
Q34.1875 6.10938 38.7031 11.4062
Q43.2188 16.7031 43.2188 25.4844
L43.2188 27.4844
z

M52.2031 31.2031
L52.2031 0
L43.2188 0
L43.2188 8.29688
Q40.1406 3.32812 35.5469 0.953125
Q30.9531 -1.42188 24.3125 -1.42188
Q15.9219 -1.42188 10.9531 3.29688
Q6 8.01562 6 15.9219
Q6 25.1406 12.1719 29.8281
Q18.3594 34.5156 30.6094 34.5156
L43.2188 34.5156
L43.2188 35.4062
Q43.2188 41.6094 39.1406 45
Q35.0625 48.3906 27.6875 48.3906
Q23 48.3906 18.5469 47.2656
Q14.1094 46.1406 10.0156 43.8906
L10.0156 52.2031
Q14.9375 54.1094 19.5781 55.0469
Q24.2188 56 28.6094 56
Q40.4844 56 46.3438 49.8438
Q52.2031 43.7031 52.2031 31.2031" id="DejaVuSans-61"/>
     </defs>
     <g transform="translate(16.48875 290.2758125)rotate(-90.0)scale(0.12 -0.12)">
      <use xlink:href="#DejaVuSans-25"/>
      <use x="95.01953125" xlink:href="#DejaVuSans-20"/>
      <use x="126.806640625" xlink:href="#DejaVuSans-50"/>
      <use x="182.609375" xlink:href="#DejaVuSans-61"/>
      <use x="243.888671875" xlink:href="#DejaVuSans-63"/>
      <use x="298.869140625" xlink:href="#DejaVuSans-6b"/>
      <use x="353.154296875" xlink:href="#DejaVuSans-65"/>
      <use x="414.677734375" xlink:href="#DejaVuSans-74"/>
      <use x="453.88671875" xlink:href="#DejaVuSans-20"/>
      <use x="485.673828125" xlink:href="#DejaVuSans-45"/>
      <use x="548.857421875" xlink:href="#DejaVuSans-72"/>
      <use x="588.220703125" xlink:href="#DejaVuSans-72"/>
      <use x="627.083984375" xlink:href="#DejaVuSans-6f"/>
      <use x="688.265625" xlink:href="#DejaVuSans-72"/>
      <use x="729.37890625" xlink:href="#DejaVuSans-73"/>
      <use x="781.478515625" xlink:href="#DejaVuSans-20"/>
      <use x="813.265625" xlink:href="#DejaVuSans-6f"/>
      <use x="874.447265625" xlink:href="#DejaVuSans-66"/>
      <use x="909.65234375" xlink:href="#DejaVuSans-20"/>
      <use x="941.439453125" xlink:href="#DejaVuSans-53"/>
      <use x="1004.91601562" xlink:href="#DejaVuSans-65"/>
      <use x="1066.43945312" xlink:href="#DejaVuSans-6e"/>
      <use x="1129.81835938" xlink:href="#DejaVuSans-74"/>
      <use x="1169.02734375" xlink:href="#DejaVuSans-20"/>
      <use x="1200.81445312" xlink:href="#DejaVuSans-50"/>
      <use x="1256.6171875" xlink:href="#DejaVuSans-61"/>
      <use x="1317.89648438" xlink:href="#DejaVuSans-63"/>
      <use x="1372.87695312" xlink:href="#DejaVuSans-6b"/>
      <use x="1427.16210938" xlink:href="#DejaVuSans-65"/>
      <use x="1488.68554688" xlink:href="#DejaVuSans-74"/>
      <use x="1527.89453125" xlink:href="#DejaVuSans-73"/>
     </g>
    </g>
   </g>
   <g id="patch_3">
    <path d="
M50.7431 23.1417
L497.143 23.1417" style="fill:none;stroke:#000000;"/>
   </g>
   <g id="patch_4">
    <path d="
M497.143 368.742
L497.143 23.1417" style="fill:none;stroke:#000000;"/>
   </g>
   <g id="patch_5">
    <path d="
M50.7431 368.742
L497.143 368.742" style="fill:none;stroke:#000000;"/>
   </g>
   <g id="patch_6">
    <path d="
M50.7431 368.742
L50.7431 23.1417" style="fill:none;stroke:#000000;"/>
   </g>
   <g id="text_16">
    <!-- Transmit Error Rate / All Transmitted Packets Rate -->
    <defs>
     <path d="
M44.3906 34.1875
Q47.5625 33.1094 50.5625 29.5938
Q53.5625 26.0781 56.5938 19.9219
L66.6094 0
L56 0
L46.6875 18.7031
Q43.0625 26.0312 39.6719 28.4219
Q36.2812 30.8125 30.4219 30.8125
L19.6719 30.8125
L19.6719 0
L9.8125 0
L9.8125 72.9062
L32.0781 72.9062
Q44.5781 72.9062 50.7344 67.6719
Q56.8906 62.4531 56.8906 51.9062
Q56.8906 45.0156 53.6875 40.4688
Q50.4844 35.9375 44.3906 34.1875
M19.6719 64.7969
L19.6719 38.9219
L32.0781 38.9219
Q39.2031 38.9219 42.8438 42.2188
Q46.4844 45.5156 46.4844 51.9062
Q46.4844 58.2969 42.8438 61.5469
Q39.2031 64.7969 32.0781 64.7969
z
" id="DejaVuSans-52"/>
     <path d="
M45.4062 46.3906
L45.4062 75.9844
L54.3906 75.9844
L54.3906 0
L45.4062 0
L45.4062 8.20312
Q42.5781 3.32812 38.25 0.953125
Q33.9375 -1.42188 27.875 -1.42188
Q17.9688 -1.42188 11.7344 6.48438
Q5.51562 14.4062 5.51562 27.2969
Q5.51562 40.1875 11.7344 48.0938
Q17.9688 56 27.875 56
Q33.9375 56 38.25 53.625
Q42.5781 51.2656 45.4062 46.3906
M14.7969 27.2969
Q14.7969 17.3906 18.875 11.75
Q22.9531 6.10938 30.0781 6.10938
Q37.2031 6.10938 41.2969 11.75
Q45.4062 17.3906 45.4062 27.2969
Q45.4062 37.2031 41.2969 42.8438
Q37.2031 48.4844 30.0781 48.4844
Q22.9531 48.4844 18.875 42.8438
Q14.7969 37.2031 14.7969 27.2969" id="DejaVuSans-64"/>
     <path d="
M25.3906 72.9062
L33.6875 72.9062
L8.29688 -9.28125
L0 -9.28125
z
" id="DejaVuSans-2f"/>
     <path d="
M34.1875 63.1875
L20.7969 26.9062
L47.6094 26.9062
z

M28.6094 72.9062
L39.7969 72.9062
L67.5781 0
L57.3281 0
L50.6875 18.7031
L17.8281 18.7031
L11.1875 0
L0.78125 0
z
" id="DejaVuSans-41"/>
     <path d="
M9.42188 75.9844
L18.4062 75.9844
L18.4062 0
L9.42188 0
z
" id="DejaVuSans-6c"/>
    </defs>
    <g transform="translate(95.538375 18.14175)scale(0.144 -0.144)">
     <use xlink:href="#DejaVuSans-54"/>
     <use x="46.333984375" xlink:href="#DejaVuSans-72"/>
     <use x="87.447265625" xlink:href="#DejaVuSans-61"/>
     <use x="148.7265625" xlink:href="#DejaVuSans-6e"/>
     <use x="212.10546875" xlink:href="#DejaVuSans-73"/>
     <use x="264.205078125" xlink:href="#DejaVuSans-6d"/>
     <use x="361.6171875" xlink:href="#DejaVuSans-69"/>
     <use x="389.400390625" xlink:href="#DejaVuSans-74"/>
     <use x="428.609375" xlink:href="#DejaVuSans-20"/>
     <use x="460.396484375" xlink:href="#DejaVuSans-45"/>
     <use x="523.580078125" xlink:href="#DejaVuSans-72"/>
     <use x="562.943359375" xlink:href="#DejaVuSans-72"/>
     <use x="601.806640625" xlink:href="#DejaVuSans-6f"/>
     <use x="662.98828125" xlink:href="#DejaVuSans-72"/>
     <use x="704.1015625" xlink:href="#DejaVuSans-20"/>
     <use x="735.888671875" xlink:href="#DejaVuSans-52"/>
     <use x="803.12109375" xlink:href="#DejaVuSans-61"/>
     <use x="864.400390625" xlink:href="#DejaVuSans-74"/>
     <use x="903.609375" xlink:href="#DejaVuSans-65"/>
     <use x="965.1328125" xlink:href="#DejaVuSans-20"/>
     <use x="996.919921875" xlink:href="#DejaVuSans-2f"/>
     <use x="1030.61132812" xlink:href="#DejaVuSans-20"/>
     <use x="1062.3984375" xlink:href="#DejaVuSans-41"/>
     <use x="1130.80664062" xlink:href="#DejaVuSans-6c"/>
     <use x="1158.58984375" xlink:href="#DejaVuSans-6c"/>
     <use x="1186.37304688" xlink:href="#DejaVuSans-20"/>
     <use x="1218.16015625" xlink:href="#DejaVuSans-54"/>
     <use x="1264.49414062" xlink:href="#DejaVuSans-72"/>
     <use x="1305.60742188" xlink:href="#DejaVuSans-61"/>
     <use x="1366.88671875" xlink:href="#DejaVuSans-6e"/>
     <use x="1430.265625" xlink:href="#DejaVuSans-73"/>
     <use x="1482.36523438" xlink:href="#DejaVuSans-6d"/>
     <use x="1579.77734375" xlink:href="#DejaVuSans-69"/>
     <use x="1607.56054688" xlink:href="#DejaVuSans-74"/>
     <use x="1646.76953125" xlink:href="#DejaVuSans-74"/>
     <use x="1685.97851562" xlink:href="#DejaVuSans-65"/>
     <use x="1747.50195312" xlink:href="#DejaVuSans-64"/>
     <use x="1810.97851562" xlink:href="#DejaVuSans-20"/>
     <use x="1842.765625" xlink:href="#DejaVuSans-50"/>
     <use x="1898.56835938" xlink:href="#DejaVuSans-61"/>
     <use x="1959.84765625" xlink:href="#DejaVuSans-63"/>
     <use x="2014.828125" xlink:href="#DejaVuSans-6b"/>
     <use x="2069.11328125" xlink:href="#DejaVuSans-65"/>
     <use x="2130.63671875" xlink:href="#DejaVuSans-74"/>
     <use x="2169.84570312" xlink:href="#DejaVuSans-73"/>
     <use x="2221.9453125" xlink:href="#DejaVuSans-20"/>
     <use x="2253.73242188" xlink:href="#DejaVuSans-52"/>
     <use x="2320.96484375" xlink:href="#DejaVuSans-61"/>
     <use x="2382.24414062" xlink:href="#DejaVuSans-74"/>
     <use x="2421.453125" xlink:href="#DejaVuSans-65"/>
    </g>
   </g>
   <g id="legend_1">
    <g id="patch_7">
     <path d="
M519.463 202.295
L633.319 202.295
L633.319 126.822
L519.463 126.822
L519.463 202.295
z
" style="fill:#ffffff;stroke:#000000;"/>
    </g>
    <g id="line2d_45">
     <path d="
M526.463 134.92
L540.463 134.92" style="fill:none;stroke:#0000ff;"/>
    </g>
    <g id="line2d_46"/>
    <g id="text_17">
     <!-- 1 -->
     <g transform="translate(551.463125 138.4201875)scale(0.1 -0.1)">
      <use xlink:href="#DejaVuSans-31"/>
     </g>
    </g>
    <g id="line2d_47">
     <path d="
M526.463 149.598
L540.463 149.598" style="fill:none;stroke:#008000;"/>
    </g>
    <g id="line2d_48"/>
    <g id="text_18">
     <!-- 1,6,11 -->
     <defs>
      <path d="
M11.7188 12.4062
L22.0156 12.4062
L22.0156 4
L14.0156 -11.625
L7.71875 -11.625
L11.7188 4
z
" id="DejaVuSans-2c"/>
     </defs>
     <g transform="translate(551.463125 153.0983125)scale(0.1 -0.1)">
      <use xlink:href="#DejaVuSans-31"/>
      <use x="63.623046875" xlink:href="#DejaVuSans-2c"/>
      <use x="95.41015625" xlink:href="#DejaVuSans-36"/>
      <use x="159.033203125" xlink:href="#DejaVuSans-2c"/>
      <use x="190.8203125" xlink:href="#DejaVuSans-31"/>
      <use x="254.443359375" xlink:href="#DejaVuSans-31"/>
     </g>
    </g>
    <g id="line2d_49">
     <path d="
M526.463 164.276
L540.463 164.276" style="fill:none;stroke:#ff0000;"/>
    </g>
    <g id="line2d_50"/>
    <g id="text_19">
     <!-- 1,6,11,36,40,44 -->
     <g transform="translate(551.463125 167.7764375)scale(0.1 -0.1)">
      <use xlink:href="#DejaVuSans-31"/>
      <use x="63.623046875" xlink:href="#DejaVuSans-2c"/>
      <use x="95.41015625" xlink:href="#DejaVuSans-36"/>
      <use x="159.033203125" xlink:href="#DejaVuSans-2c"/>
      <use x="190.8203125" xlink:href="#DejaVuSans-31"/>
      <use x="254.443359375" xlink:href="#DejaVuSans-31"/>
      <use x="318.06640625" xlink:href="#DejaVuSans-2c"/>
      <use x="349.853515625" xlink:href="#DejaVuSans-33"/>
      <use x="413.4765625" xlink:href="#DejaVuSans-36"/>
      <use x="477.099609375" xlink:href="#DejaVuSans-2c"/>
      <use x="508.88671875" xlink:href="#DejaVuSans-34"/>
      <use x="572.509765625" xlink:href="#DejaVuSans-30"/>
      <use x="636.1328125" xlink:href="#DejaVuSans-2c"/>
      <use x="667.919921875" xlink:href="#DejaVuSans-34"/>
      <use x="731.54296875" xlink:href="#DejaVuSans-34"/>
     </g>
    </g>
    <g id="line2d_51">
     <path d="
M526.463 178.955
L540.463 178.955" style="fill:none;stroke:#00bfbf;"/>
    </g>
    <g id="line2d_52"/>
    <g id="text_20">
     <!-- 36 -->
     <g transform="translate(551.463125 182.4545625)scale(0.1 -0.1)">
      <use xlink:href="#DejaVuSans-33"/>
      <use x="63.623046875" xlink:href="#DejaVuSans-36"/>
     </g>
    </g>
    <g id="line2d_53">
     <path d="
M526.463 193.633
L540.463 193.633" style="fill:none;stroke:#bf00bf;"/>
    </g>
    <g id="line2d_54"/>
    <g id="text_21">
     <!-- 36,40,44 -->
     <g transform="translate(551.463125 197.1326875)scale(0.1 -0.1)">
      <use xlink:href="#DejaVuSans-33"/>
      <use x="63.623046875" xlink:href="#DejaVuSans-36"/>
      <use x="127.24609375" xlink:href="#DejaVuSans-2c"/>
      <use x="159.033203125" xlink:href="#DejaVuSans-34"/>
      <use x="222.65625" xlink:href="#DejaVuSans-30"/>
      <use x="286.279296875" xlink:href="#DejaVuSans-2c"/>
      <use x="318.06640625" xlink:href="#DejaVuSans-34"/>
      <use x="381.689453125" xlink:href="#DejaVuSans-34"/>
     </g>
    </g>
   </g>
  </g>
 </g>
 <defs>
  <clipPath id="p02c720a66c">
   <rect height="345.6" width="446.4" x="50.743125" y="23.14175"/>
  </clipPath>
 </defs>
</svg>
