<?xml version="1.0" encoding="UTF-8" standalone="no"?>
<!DOCTYPE svg PUBLIC "-//W3C//DTD SVG 1.1//EN"
 "http://www.w3.org/Graphics/SVG/1.1/DTD/svg11.dtd">
<!-- Generated by graphviz version 2.26.3 (20100126.1600)
 -->
<!-- Title: G Pages: 1 -->
<svg width="481pt" height="654pt"
 viewBox="0.00 0.00 481.00 654.00" xmlns="http://www.w3.org/2000/svg" xmlns:xlink="http://www.w3.org/1999/xlink">
<g id="graph1" class="graph" transform="scale(1 1) rotate(0) translate(4 650)">
<title>G</title>
<polygon fill="white" stroke="white" points="-4,5 -4,-650 478,-650 478,5 -4,5"/>
<!-- 0 -->
<g id="node1" class="node"><title>0</title>
<ellipse fill="none" stroke="black" cx="158.747" cy="-319.572" rx="27" ry="18"/>
<text text-anchor="middle" x="158.747" y="-315.472" font-family="Times Roman,serif" font-size="14.00">0</text>
</g>
<!-- 4 -->
<g id="node3" class="node"><title>4</title>
<ellipse fill="none" stroke="black" cx="173.722" cy="-262.341" rx="27" ry="18"/>
<text text-anchor="middle" x="173.722" y="-258.241" font-family="Times Roman,serif" font-size="14.00">4</text>
</g>
<!-- 0&#45;&#45;4 -->
<g id="edge2" class="edge"><title>0&#45;&#45;4</title>
<path fill="none" stroke="blue" stroke-width="1.28571" d="M163.403,-301.778C165.189,-294.953 167.227,-287.164 169.017,-280.322"/>
</g>
<!-- 9 -->
<g id="node5" class="node"><title>9</title>
<ellipse fill="none" stroke="black" cx="36.6698" cy="-230.096" rx="27" ry="18"/>
<text text-anchor="middle" x="36.6698" y="-225.996" font-family="Times Roman,serif" font-size="14.00">9</text>
</g>
<!-- 0&#45;&#45;9 -->
<g id="edge4" class="edge"><title>0&#45;&#45;9</title>
<path fill="none" stroke="orange" stroke-width="0.9" d="M140.471,-306.177C117.457,-289.308 78.1438,-260.494 55.0709,-243.583"/>
</g>
<!-- 12 -->
<g id="node7" class="node"><title>12</title>
<ellipse fill="none" stroke="black" cx="27.7747" cy="-362.289" rx="27" ry="18"/>
<text text-anchor="middle" x="27.7747" y="-358.189" font-family="Times Roman,serif" font-size="14.00">12</text>
</g>
<!-- 0&#45;&#45;12 -->
<g id="edge6" class="edge"><title>0&#45;&#45;12</title>
<path fill="none" stroke="blue" stroke-width="2.25" d="M134.419,-327.507C111.042,-335.131 75.8983,-346.593 52.4168,-354.252"/>
</g>
<!-- 19 -->
<g id="node9" class="node"><title>19</title>
<ellipse fill="none" stroke="black" cx="114.227" cy="-167.24" rx="27" ry="18"/>
<text text-anchor="middle" x="114.227" y="-163.14" font-family="Times Roman,serif" font-size="14.00">19</text>
</g>
<!-- 0&#45;&#45;19 -->
<g id="edge8" class="edge"><title>0&#45;&#45;19</title>
<path fill="none" stroke="orange" stroke-width="4.5" d="M153.553,-301.8C145.02,-272.604 128.127,-214.8 119.526,-185.372"/>
</g>
<!-- 21 -->
<g id="node11" class="node"><title>21</title>
<ellipse fill="none" stroke="black" cx="266.009" cy="-407.087" rx="27" ry="18"/>
<text text-anchor="middle" x="266.009" y="-402.987" font-family="Times Roman,serif" font-size="14.00">21</text>
</g>
<!-- 0&#45;&#45;21 -->
<g id="edge10" class="edge"><title>0&#45;&#45;21</title>
<path fill="none" stroke="orange" stroke-width="4.5" d="M175.98,-333.633C195.997,-349.964 228.82,-376.745 248.818,-393.061"/>
</g>
<!-- 23 -->
<g id="node13" class="node"><title>23</title>
<ellipse fill="none" stroke="black" cx="100.019" cy="-220.114" rx="27" ry="18"/>
<text text-anchor="middle" x="100.019" y="-216.014" font-family="Times Roman,serif" font-size="14.00">23</text>
</g>
<!-- 0&#45;&#45;23 -->
<g id="edge12" class="edge"><title>0&#45;&#45;23</title>
<path fill="none" stroke="blue" stroke-width="3" d="M148.785,-302.7C137.985,-284.411 120.849,-255.39 110.03,-237.069"/>
</g>
<!-- 29 -->
<g id="node15" class="node"><title>29</title>
<ellipse fill="none" stroke="black" cx="218.294" cy="-465.846" rx="27" ry="18"/>
<text text-anchor="middle" x="218.294" y="-461.746" font-family="Times Roman,serif" font-size="14.00">29</text>
</g>
<!-- 0&#45;&#45;29 -->
<g id="edge14" class="edge"><title>0&#45;&#45;29</title>
<path fill="none" stroke="orange" stroke-width="1.8" d="M165.93,-337.216C177.375,-365.331 199.625,-419.985 211.086,-448.139"/>
</g>
<!-- 18 -->
<g id="node30" class="node"><title>18</title>
<ellipse fill="none" stroke="black" cx="183.653" cy="-145.098" rx="27" ry="18"/>
<text text-anchor="middle" x="183.653" y="-140.998" font-family="Times Roman,serif" font-size="14.00">18</text>
</g>
<!-- 4&#45;&#45;18 -->
<g id="edge28" class="edge"><title>4&#45;&#45;18</title>
<path fill="none" stroke="red" stroke-width="1.125" d="M175.252,-244.279C177.113,-222.311 180.236,-185.438 182.105,-163.374"/>
</g>
<!-- 28 -->
<g id="node38" class="node"><title>28</title>
<ellipse fill="none" stroke="black" cx="294.736" cy="-281.899" rx="27" ry="18"/>
<text text-anchor="middle" x="294.736" y="-277.799" font-family="Times Roman,serif" font-size="14.00">28</text>
</g>
<!-- 21&#45;&#45;28 -->
<g id="edge80" class="edge"><title>21&#45;&#45;28</title>
<path fill="none" stroke="orange" stroke-width="9" d="M270.125,-389.151C275.586,-365.352 285.171,-323.584 290.628,-299.802"/>
</g>
<!-- 1 -->
<g id="node16" class="node"><title>1</title>
<ellipse fill="none" stroke="black" cx="296.109" cy="-19.1176" rx="27" ry="18"/>
<text text-anchor="middle" x="296.109" y="-15.0176" font-family="Times Roman,serif" font-size="14.00">1</text>
</g>
<!-- 13 -->
<g id="node18" class="node"><title>13</title>
<ellipse fill="none" stroke="black" cx="201.072" cy="-53.3985" rx="27" ry="18"/>
<text text-anchor="middle" x="201.072" y="-49.2985" font-family="Times Roman,serif" font-size="14.00">13</text>
</g>
<!-- 1&#45;&#45;13 -->
<g id="edge16" class="edge"><title>1&#45;&#45;13</title>
<path fill="none" stroke="black" stroke-width="4.5" stroke-dasharray="1,5" d="M272.127,-27.7682C257.72,-32.9649 239.451,-39.5546 225.046,-44.7508"/>
</g>
<!-- 6 -->
<g id="node20" class="node"><title>6</title>
<ellipse fill="none" stroke="black" cx="263.431" cy="-142.219" rx="27" ry="18"/>
<text text-anchor="middle" x="263.431" y="-138.119" font-family="Times Roman,serif" font-size="14.00">6</text>
</g>
<!-- 1&#45;&#45;6 -->
<g id="edge18" class="edge"><title>1&#45;&#45;6</title>
<path fill="none" stroke="black" stroke-width="1.8" stroke-dasharray="1,5" d="M291.357,-37.0177C285.162,-60.357 274.387,-100.948 268.188,-124.298"/>
</g>
<!-- 13&#45;&#45;19 -->
<g id="edge60" class="edge"><title>13&#45;&#45;19</title>
<path fill="none" stroke="red" stroke-width="1.28571" d="M188.629,-69.7093C172.12,-91.3506 143.144,-129.334 126.646,-150.96"/>
</g>
<!-- 6&#45;&#45;18 -->
<g id="edge34" class="edge"><title>6&#45;&#45;18</title>
<path fill="none" stroke="black" stroke-width="2.25" stroke-dasharray="1,5" d="M236.422,-143.194C228.104,-143.494 218.95,-143.825 210.634,-144.125"/>
</g>
<!-- 14 -->
<g id="node33" class="node"><title>14</title>
<ellipse fill="none" stroke="black" cx="362.494" cy="-185.344" rx="27" ry="18"/>
<text text-anchor="middle" x="362.494" y="-181.244" font-family="Times Roman,serif" font-size="14.00">14</text>
</g>
<!-- 6&#45;&#45;14 -->
<g id="edge32" class="edge"><title>6&#45;&#45;14</title>
<path fill="none" stroke="black" stroke-dasharray="1,5" d="M286.407,-152.221C302.411,-159.188 323.666,-168.441 339.643,-175.396"/>
</g>
<!-- 27 -->
<g id="node36" class="node"><title>27</title>
<ellipse fill="none" stroke="black" cx="134.476" cy="-71.4965" rx="27" ry="18"/>
<text text-anchor="middle" x="134.476" y="-67.3965" font-family="Times Roman,serif" font-size="14.00">27</text>
</g>
<!-- 6&#45;&#45;27 -->
<g id="edge36" class="edge"><title>6&#45;&#45;27</title>
<path fill="none" stroke="black" stroke-width="0.692308" stroke-dasharray="1,5" d="M242.425,-130.699C218.445,-117.548 179.449,-96.1612 155.473,-83.0119"/>
</g>
<!-- 6&#45;&#45;28 -->
<g id="edge38" class="edge"><title>6&#45;&#45;28</title>
<path fill="none" stroke="black" stroke-width="2.25" stroke-dasharray="1,5" d="M267.46,-160.194C273.471,-187.014 284.721,-237.213 290.723,-263.993"/>
</g>
<!-- 3 -->
<g id="node21" class="node"><title>3</title>
<ellipse fill="none" stroke="black" cx="95.1342" cy="-338.526" rx="27" ry="18"/>
<text text-anchor="middle" x="95.1342" y="-334.426" font-family="Times Roman,serif" font-size="14.00">3</text>
</g>
<!-- 3&#45;&#45;4 -->
<g id="edge24" class="edge"><title>3&#45;&#45;4</title>
<path fill="none" stroke="red" stroke-width="1.8" d="M110.661,-323.474C124.438,-310.118 144.46,-290.708 158.228,-277.362"/>
</g>
<!-- 20 -->
<g id="node23" class="node"><title>20</title>
<ellipse fill="none" stroke="black" cx="175.925" cy="-376.956" rx="27" ry="18"/>
<text text-anchor="middle" x="175.925" y="-372.856" font-family="Times Roman,serif" font-size="14.00">20</text>
</g>
<!-- 3&#45;&#45;20 -->
<g id="edge20" class="edge"><title>3&#45;&#45;20</title>
<path fill="none" stroke="black" stroke-width="4.5" stroke-dasharray="1,5" d="M117.211,-349.027C128.61,-354.45 142.479,-361.047 153.875,-366.467"/>
</g>
<!-- 10 -->
<g id="node25" class="node"><title>10</title>
<ellipse fill="none" stroke="black" cx="153.863" cy="-433.993" rx="27" ry="18"/>
<text text-anchor="middle" x="153.863" y="-429.893" font-family="Times Roman,serif" font-size="14.00">10</text>
</g>
<!-- 3&#45;&#45;10 -->
<g id="edge22" class="edge"><title>3&#45;&#45;10</title>
<path fill="none" stroke="black" stroke-width="1.28571" stroke-dasharray="1,5" d="M105.634,-355.593C116.323,-372.97 132.797,-399.75 143.454,-417.073"/>
</g>
<!-- 5 -->
<g id="node28" class="node"><title>5</title>
<ellipse fill="none" stroke="black" cx="178.117" cy="-217.584" rx="27" ry="18"/>
<text text-anchor="middle" x="178.117" y="-213.484" font-family="Times Roman,serif" font-size="14.00">5</text>
</g>
<!-- 3&#45;&#45;5 -->
<g id="edge26" class="edge"><title>3&#45;&#45;5</title>
<path fill="none" stroke="black" stroke-width="0.9" stroke-dasharray="1,5" d="M106.673,-321.709C122.527,-298.603 150.874,-257.288 166.677,-234.257"/>
</g>
<!-- 20&#45;&#45;28 -->
<g id="edge78" class="edge"><title>20&#45;&#45;28</title>
<path fill="none" stroke="black" stroke-width="1.5" stroke-dasharray="1,5" d="M193.456,-362.93C215.919,-344.958 254.635,-313.982 277.133,-295.983"/>
</g>
<!-- 10&#45;&#45;21 -->
<g id="edge52" class="edge"><title>10&#45;&#45;21</title>
<path fill="none" stroke="green" stroke-width="0.818182" d="M179.311,-427.888C197.535,-423.515 221.984,-417.649 240.274,-413.261"/>
</g>
<!-- 5&#45;&#45;6 -->
<g id="edge30" class="edge"><title>5&#45;&#45;6</title>
<path fill="none" stroke="black" stroke-width="1.125" stroke-dasharray="1,5" d="M194.567,-203.053C209.674,-189.707 231.941,-170.037 247.032,-156.706"/>
</g>
<!-- 18&#45;&#45;23 -->
<g id="edge76" class="edge"><title>18&#45;&#45;23</title>
<path fill="none" stroke="green" d="M167.527,-159.562C152.812,-172.761 131.168,-192.174 116.38,-205.439"/>
</g>
<!-- 14&#45;&#45;28 -->
<g id="edge62" class="edge"><title>14&#45;&#45;28</title>
<path fill="none" stroke="black" stroke-width="1.8" stroke-dasharray="1,5" d="M351,-201.723C338.54,-219.478 318.769,-247.653 306.287,-265.439"/>
</g>
<!-- 7 -->
<g id="node39" class="node"><title>7</title>
<ellipse fill="none" stroke="black" cx="30.1669" cy="-109.795" rx="27" ry="18"/>
<text text-anchor="middle" x="30.1669" y="-105.695" font-family="Times Roman,serif" font-size="14.00">7</text>
</g>
<!-- 7&#45;&#45;9 -->
<g id="edge42" class="edge"><title>7&#45;&#45;9</title>
<path fill="none" stroke="green" d="M31.1405,-127.805C32.3664,-150.484 34.4605,-189.225 35.6896,-211.962"/>
</g>
<!-- 7&#45;&#45;19 -->
<g id="edge40" class="edge"><title>7&#45;&#45;19</title>
<path fill="none" stroke="orange" stroke-width="9" d="M49.2414,-122.83C62.9983,-132.231 81.4882,-144.867 95.2277,-154.257"/>
</g>
<!-- 7&#45;&#45;27 -->
<g id="edge44" class="edge"><title>7&#45;&#45;27</title>
<path fill="none" stroke="black" stroke-width="0.818182" stroke-dasharray="1,5" d="M53.8363,-101.104C70.7868,-94.8807 93.5281,-86.531 110.539,-80.2852"/>
</g>
<!-- 8 -->
<g id="node43" class="node"><title>8</title>
<ellipse fill="none" stroke="black" cx="79.3089" cy="-283.837" rx="27" ry="18"/>
<text text-anchor="middle" x="79.3089" y="-279.737" font-family="Times Roman,serif" font-size="14.00">8</text>
</g>
<!-- 8&#45;&#45;12 -->
<g id="edge50" class="edge"><title>8&#45;&#45;12</title>
<path fill="none" stroke="green" stroke-width="0.9" d="M68.3798,-300.474C59.6343,-313.788 47.4294,-332.368 38.688,-345.675"/>
</g>
<!-- 8&#45;&#45;19 -->
<g id="edge48" class="edge"><title>8&#45;&#45;19</title>
<path fill="none" stroke="red" stroke-width="2.25" d="M84.6122,-266.128C91.1751,-244.213 102.288,-207.107 108.874,-185.116"/>
</g>
<!-- 8&#45;&#45;20 -->
<g id="edge46" class="edge"><title>8&#45;&#45;20</title>
<path fill="none" stroke="black" stroke-width="1.28571" stroke-dasharray="1,5" d="M94.8319,-298.798C112.861,-316.175 142.427,-344.671 160.44,-362.032"/>
</g>
<!-- 11 -->
<g id="node48" class="node"><title>11</title>
<ellipse fill="none" stroke="black" cx="268.103" cy="-535.509" rx="27" ry="18"/>
<text text-anchor="middle" x="268.103" y="-531.409" font-family="Times Roman,serif" font-size="14.00">11</text>
</g>
<!-- 11&#45;&#45;21 -->
<g id="edge56" class="edge"><title>11&#45;&#45;21</title>
<path fill="none" stroke="green" stroke-width="1.8" d="M267.807,-517.382C267.408,-492.906 266.701,-449.55 266.303,-425.122"/>
</g>
<!-- 25 -->
<g id="node50" class="node"><title>25</title>
<ellipse fill="none" stroke="black" cx="335.5" cy="-549.012" rx="27" ry="18"/>
<text text-anchor="middle" x="335.5" y="-544.912" font-family="Times Roman,serif" font-size="14.00">25</text>
</g>
<!-- 11&#45;&#45;25 -->
<g id="edge54" class="edge"><title>11&#45;&#45;25</title>
<path fill="none" stroke="black" stroke-width="9" stroke-dasharray="1,5" d="M293.967,-540.691C299.016,-541.703 304.313,-542.764 309.37,-543.777"/>
</g>
<!-- 22 -->
<g id="node53" class="node"><title>22</title>
<ellipse fill="none" stroke="black" cx="190.36" cy="-597.543" rx="27" ry="18"/>
<text text-anchor="middle" x="190.36" y="-593.443" font-family="Times Roman,serif" font-size="14.00">22</text>
</g>
<!-- 11&#45;&#45;22 -->
<g id="edge58" class="edge"><title>11&#45;&#45;22</title>
<path fill="none" stroke="black" stroke-width="4.5" stroke-dasharray="1,5" d="M250.462,-549.586C237.739,-559.738 220.638,-573.383 207.931,-583.523"/>
</g>
<!-- 25&#45;&#45;29 -->
<g id="edge88" class="edge"><title>25&#45;&#45;29</title>
<path fill="none" stroke="blue" stroke-width="1.125" d="M316.928,-535.834C295.111,-520.353 259.114,-494.81 237.167,-479.237"/>
</g>
<!-- 22&#45;&#45;29 -->
<g id="edge84" class="edge"><title>22&#45;&#45;29</title>
<path fill="none" stroke="black" stroke-width="4.5" stroke-dasharray="1,5" d="M194.186,-579.507C199.505,-554.428 209.083,-509.274 214.425,-484.086"/>
</g>
<!-- 26 -->
<g id="node64" class="node"><title>26</title>
<ellipse fill="none" stroke="black" cx="87.9672" cy="-627.359" rx="27" ry="18"/>
<text text-anchor="middle" x="87.9672" y="-623.259" font-family="Times Roman,serif" font-size="14.00">26</text>
</g>
<!-- 22&#45;&#45;26 -->
<g id="edge82" class="edge"><title>22&#45;&#45;26</title>
<path fill="none" stroke="black" stroke-width="1.5" stroke-dasharray="1,5" d="M165.574,-604.761C149.593,-609.414 128.886,-615.444 112.88,-620.104"/>
</g>
<!-- 15 -->
<g id="node56" class="node"><title>15</title>
<ellipse fill="none" stroke="black" cx="398.396" cy="-448.371" rx="27" ry="18"/>
<text text-anchor="middle" x="398.396" y="-444.271" font-family="Times Roman,serif" font-size="14.00">15</text>
</g>
<!-- 15&#45;&#45;21 -->
<g id="edge68" class="edge"><title>15&#45;&#45;21</title>
<path fill="none" stroke="green" stroke-width="0.75" d="M373.805,-440.702C350.027,-433.287 314.202,-422.116 290.468,-414.714"/>
</g>
<!-- 24 -->
<g id="node58" class="node"><title>24</title>
<ellipse fill="none" stroke="black" cx="411.399" cy="-335.129" rx="27" ry="18"/>
<text text-anchor="middle" x="411.399" y="-331.029" font-family="Times Roman,serif" font-size="14.00">24</text>
</g>
<!-- 15&#45;&#45;24 -->
<g id="edge64" class="edge"><title>15&#45;&#45;24</title>
<path fill="none" stroke="black" stroke-width="0.818182" stroke-dasharray="1,5" d="M400.485,-430.176C402.912,-409.044 406.891,-374.391 409.315,-353.278"/>
</g>
<!-- 17 -->
<g id="node60" class="node"><title>17</title>
<ellipse fill="none" stroke="black" cx="444.662" cy="-551.269" rx="27" ry="18"/>
<text text-anchor="middle" x="444.662" y="-547.169" font-family="Times Roman,serif" font-size="14.00">17</text>
</g>
<!-- 15&#45;&#45;17 -->
<g id="edge66" class="edge"><title>15&#45;&#45;17</title>
<path fill="none" stroke="black" stroke-dasharray="1,5" d="M406.245,-465.826C414.752,-484.747 428.253,-514.773 436.775,-533.728"/>
</g>
<!-- 24&#45;&#45;28 -->
<g id="edge86" class="edge"><title>24&#45;&#45;28</title>
<path fill="none" stroke="black" stroke-width="0.75" stroke-dasharray="1,5" d="M388.905,-324.866C368.247,-315.44 337.797,-301.547 317.161,-292.131"/>
</g>
<!-- 17&#45;&#45;25 -->
<g id="edge74" class="edge"><title>17&#45;&#45;25</title>
<path fill="none" stroke="black" stroke-width="1.125" stroke-dasharray="1,5" d="M417.398,-550.705C400.726,-550.36 379.473,-549.921 362.795,-549.576"/>
</g>
<!-- 16 -->
<g id="node62" class="node"><title>16</title>
<ellipse fill="none" stroke="black" cx="114.764" cy="-501.099" rx="27" ry="18"/>
<text text-anchor="middle" x="114.764" y="-496.999" font-family="Times Roman,serif" font-size="14.00">16</text>
</g>
<!-- 16&#45;&#45;20 -->
<g id="edge72" class="edge"><title>16&#45;&#45;20</title>
<path fill="none" stroke="black" stroke-width="1.8" stroke-dasharray="1,5" d="M123.268,-483.837C134.953,-460.119 155.846,-417.711 167.493,-394.071"/>
</g>
<!-- 16&#45;&#45;26 -->
<g id="edge70" class="edge"><title>16&#45;&#45;26</title>
<path fill="none" stroke="black" stroke-width="1.5" stroke-dasharray="1,5" d="M110.925,-519.189C105.831,-543.191 96.8899,-585.317 91.7994,-609.302"/>
</g>
</g>
</svg>
