<?xml version="1.0" encoding="UTF-8" standalone="no"?>
<!DOCTYPE svg PUBLIC "-//W3C//DTD SVG 1.1//EN"
 "http://www.w3.org/Graphics/SVG/1.1/DTD/svg11.dtd">
<!-- Generated by graphviz version 2.26.3 (20100126.1600)
 -->
<!-- Title: G Pages: 1 -->
<svg width="810pt" height="595pt"
 viewBox="0.00 0.00 810.00 595.00" xmlns="http://www.w3.org/2000/svg" xmlns:xlink="http://www.w3.org/1999/xlink">
<g id="graph1" class="graph" transform="scale(1 1) rotate(0) translate(4 591)">
<title>G</title>
<polygon fill="white" stroke="white" points="-4,5 -4,-591 807,-591 807,5 -4,5"/>
<!-- 0 -->
<g id="node1" class="node"><title>0</title>
<ellipse fill="none" stroke="black" cx="386.221" cy="-316.419" rx="27" ry="18"/>
<text text-anchor="middle" x="386.221" y="-312.319" font-family="Times Roman,serif" font-size="14.00">0</text>
</g>
<!-- 4 -->
<g id="node3" class="node"><title>4</title>
<ellipse fill="none" stroke="black" cx="258.219" cy="-257.227" rx="27" ry="18"/>
<text text-anchor="middle" x="258.219" y="-253.127" font-family="Times Roman,serif" font-size="14.00">4</text>
</g>
<!-- 0&#45;&#45;4 -->
<g id="edge2" class="edge"><title>0&#45;&#45;4</title>
<path fill="none" stroke="black" stroke-width="1.28571" stroke-dasharray="1,5" d="M363.925,-306.108C340.574,-295.31 304.105,-278.446 280.689,-267.618"/>
</g>
<!-- 9 -->
<g id="node5" class="node"><title>9</title>
<ellipse fill="none" stroke="black" cx="543.267" cy="-403.829" rx="27" ry="18"/>
<text text-anchor="middle" x="543.267" y="-399.729" font-family="Times Roman,serif" font-size="14.00">9</text>
</g>
<!-- 0&#45;&#45;9 -->
<g id="edge4" class="edge"><title>0&#45;&#45;9</title>
<path fill="none" stroke="black" stroke-width="0.9" stroke-dasharray="1,5" d="M407.076,-328.026C437.113,-344.744 492.241,-375.428 522.327,-392.174"/>
</g>
<!-- 12 -->
<g id="node7" class="node"><title>12</title>
<ellipse fill="none" stroke="black" cx="299.171" cy="-421.059" rx="27" ry="18"/>
<text text-anchor="middle" x="299.171" y="-416.959" font-family="Times Roman,serif" font-size="14.00">12</text>
</g>
<!-- 0&#45;&#45;12 -->
<g id="edge6" class="edge"><title>0&#45;&#45;12</title>
<path fill="none" stroke="black" stroke-width="2.25" stroke-dasharray="1,5" d="M373,-332.311C356.639,-351.979 328.936,-385.281 312.517,-405.017"/>
</g>
<!-- 16 -->
<g id="node9" class="node"><title>16</title>
<ellipse fill="none" stroke="black" cx="320.364" cy="-368.883" rx="27" ry="18"/>
<text text-anchor="middle" x="320.364" y="-364.783" font-family="Times Roman,serif" font-size="14.00">16</text>
</g>
<!-- 0&#45;&#45;16 -->
<g id="edge8" class="edge"><title>0&#45;&#45;16</title>
<path fill="none" stroke="black" stroke-width="1.125" stroke-dasharray="1,5" d="M368.573,-330.478C359.124,-338.005 347.518,-347.251 338.061,-354.785"/>
</g>
<!-- 19 -->
<g id="node11" class="node"><title>19</title>
<ellipse fill="none" stroke="black" cx="626.016" cy="-274.711" rx="27" ry="18"/>
<text text-anchor="middle" x="626.016" y="-270.611" font-family="Times Roman,serif" font-size="14.00">19</text>
</g>
<!-- 0&#45;&#45;19 -->
<g id="edge10" class="edge"><title>0&#45;&#45;19</title>
<path fill="none" stroke="black" stroke-width="4.5" stroke-dasharray="1,5" d="M412.799,-311.796C459.015,-303.758 553.641,-287.299 599.684,-279.291"/>
</g>
<!-- 20 -->
<g id="node13" class="node"><title>20</title>
<ellipse fill="none" stroke="black" cx="475.113" cy="-436.035" rx="27" ry="18"/>
<text text-anchor="middle" x="475.113" y="-431.935" font-family="Times Roman,serif" font-size="14.00">20</text>
</g>
<!-- 0&#45;&#45;20 -->
<g id="edge12" class="edge"><title>0&#45;&#45;20</title>
<path fill="none" stroke="black" stroke-width="0.75" stroke-dasharray="1,5" d="M398.209,-332.551C415.175,-355.38 446.014,-396.878 463.031,-419.777"/>
</g>
<!-- 21 -->
<g id="node15" class="node"><title>21</title>
<ellipse fill="none" stroke="black" cx="425.744" cy="-494.369" rx="27" ry="18"/>
<text text-anchor="middle" x="425.744" y="-490.269" font-family="Times Roman,serif" font-size="14.00">21</text>
</g>
<!-- 0&#45;&#45;21 -->
<g id="edge14" class="edge"><title>0&#45;&#45;21</title>
<path fill="none" stroke="black" stroke-width="4.5" stroke-dasharray="1,5" d="M390.228,-334.461C397.823,-368.656 414.228,-442.517 421.785,-476.544"/>
</g>
<!-- 23 -->
<g id="node17" class="node"><title>23</title>
<ellipse fill="none" stroke="black" cx="361.518" cy="-91.6725" rx="27" ry="18"/>
<text text-anchor="middle" x="361.518" y="-87.5725" font-family="Times Roman,serif" font-size="14.00">23</text>
</g>
<!-- 0&#45;&#45;23 -->
<g id="edge16" class="edge"><title>0&#45;&#45;23</title>
<path fill="none" stroke="black" stroke-width="3" stroke-dasharray="1,5" d="M384.241,-298.407C379.616,-256.325 368.142,-151.937 363.508,-109.77"/>
</g>
<!-- 25 -->
<g id="node19" class="node"><title>25</title>
<ellipse fill="none" stroke="black" cx="176.826" cy="-371.599" rx="27" ry="18"/>
<text text-anchor="middle" x="176.826" y="-367.499" font-family="Times Roman,serif" font-size="14.00">25</text>
</g>
<!-- 0&#45;&#45;25 -->
<g id="edge18" class="edge"><title>0&#45;&#45;25</title>
<path fill="none" stroke="black" stroke-width="0.818182" stroke-dasharray="1,5" d="M360.963,-323.075C320.717,-333.681 242.477,-354.299 202.174,-364.919"/>
</g>
<!-- 29 -->
<g id="node21" class="node"><title>29</title>
<ellipse fill="none" stroke="black" cx="208.244" cy="-431.599" rx="27" ry="18"/>
<text text-anchor="middle" x="208.244" y="-427.499" font-family="Times Roman,serif" font-size="14.00">29</text>
</g>
<!-- 0&#45;&#45;29 -->
<g id="edge20" class="edge"><title>0&#45;&#45;29</title>
<path fill="none" stroke="black" stroke-width="1.8" stroke-dasharray="1,5" d="M366.836,-328.964C332.69,-351.062 262.196,-396.683 227.876,-418.893"/>
</g>
<!-- 4&#45;&#45;16 -->
<g id="edge56" class="edge"><title>4&#45;&#45;16</title>
<path fill="none" stroke="black" stroke-width="0.9" stroke-dasharray="1,5" d="M267.657,-274.185C279.338,-295.172 299.115,-330.706 310.837,-351.765"/>
</g>
<!-- 4&#45;&#45;23 -->
<g id="edge60" class="edge"><title>4&#45;&#45;23</title>
<path fill="none" stroke="black" stroke-width="0.5625" stroke-dasharray="1,5" d="M268.692,-240.442C288.491,-208.711 331.197,-140.268 351.017,-108.502"/>
</g>
<!-- 15 -->
<g id="node46" class="node"><title>15</title>
<ellipse fill="none" stroke="black" cx="401.059" cy="-543.998" rx="27" ry="18"/>
<text text-anchor="middle" x="401.059" y="-539.898" font-family="Times Roman,serif" font-size="14.00">15</text>
</g>
<!-- 4&#45;&#45;15 -->
<g id="edge54" class="edge"><title>4&#45;&#45;15</title>
<path fill="none" stroke="black" stroke-width="0.6" stroke-dasharray="1,5" d="M266.939,-274.735C292.5,-326.052 367.038,-475.697 392.452,-526.72"/>
</g>
<!-- 18 -->
<g id="node49" class="node"><title>18</title>
<ellipse fill="none" stroke="black" cx="284.252" cy="-19.0194" rx="27" ry="18"/>
<text text-anchor="middle" x="284.252" y="-14.9194" font-family="Times Roman,serif" font-size="14.00">18</text>
</g>
<!-- 4&#45;&#45;18 -->
<g id="edge58" class="edge"><title>4&#45;&#45;18</title>
<path fill="none" stroke="black" stroke-width="1.125" stroke-dasharray="1,5" d="M260.218,-238.931C265.076,-194.482 277.453,-81.2275 282.281,-37.0519"/>
</g>
<!-- 26 -->
<g id="node52" class="node"><title>26</title>
<ellipse fill="none" stroke="black" cx="59.2004" cy="-344.113" rx="27" ry="18"/>
<text text-anchor="middle" x="59.2004" y="-340.013" font-family="Times Roman,serif" font-size="14.00">26</text>
</g>
<!-- 4&#45;&#45;26 -->
<g id="edge62" class="edge"><title>4&#45;&#45;26</title>
<path fill="none" stroke="black" stroke-width="0.5625" stroke-dasharray="1,5" d="M235.389,-267.194C197.101,-283.91 120.384,-317.402 82.0698,-334.129"/>
</g>
<!-- 9&#45;&#45;16 -->
<g id="edge114" class="edge"><title>9&#45;&#45;16</title>
<path fill="none" stroke="black" stroke-width="0.6" stroke-dasharray="1,5" d="M516.822,-399.683C473.922,-392.957 389.653,-379.746 346.775,-373.023"/>
</g>
<!-- 17 -->
<g id="node85" class="node"><title>17</title>
<ellipse fill="none" stroke="black" cx="329.804" cy="-544.37" rx="27" ry="18"/>
<text text-anchor="middle" x="329.804" y="-540.27" font-family="Times Roman,serif" font-size="14.00">17</text>
</g>
<!-- 9&#45;&#45;17 -->
<g id="edge116" class="edge"><title>9&#45;&#45;17</title>
<path fill="none" stroke="black" stroke-width="0.5" stroke-dasharray="1,5" d="M523.947,-416.549C483.409,-443.239 389.868,-504.824 349.234,-531.577"/>
</g>
<!-- 16&#45;&#45;20 -->
<g id="edge150" class="edge"><title>16&#45;&#45;20</title>
<path fill="none" stroke="black" stroke-width="1.8" stroke-dasharray="1,5" d="M343.198,-378.791C372.54,-391.524 423.173,-413.496 452.438,-426.195"/>
</g>
<!-- 16&#45;&#45;21 -->
<g id="edge152" class="edge"><title>16&#45;&#45;21</title>
<path fill="none" stroke="black" stroke-width="0.6" stroke-dasharray="1,5" d="M333.711,-384.776C353.981,-408.914 392.3,-454.544 412.506,-478.605"/>
</g>
<!-- 16&#45;&#45;25 -->
<g id="edge154" class="edge"><title>16&#45;&#45;25</title>
<path fill="none" stroke="black" stroke-dasharray="1,5" d="M293.366,-369.394C267.866,-369.876 229.811,-370.596 204.192,-371.081"/>
</g>
<!-- 16&#45;&#45;26 -->
<g id="edge156" class="edge"><title>16&#45;&#45;26</title>
<path fill="none" stroke="black" stroke-width="1.5" stroke-dasharray="1,5" d="M293.399,-366.325C243.223,-361.567 136.083,-351.405 86.0192,-346.657"/>
</g>
<!-- 16&#45;&#45;17 -->
<g id="edge148" class="edge"><title>16&#45;&#45;17</title>
<path fill="none" stroke="black" stroke-width="0.75" stroke-dasharray="1,5" d="M321.339,-387.002C323.152,-420.717 327.025,-492.709 328.834,-526.349"/>
</g>
<!-- 28 -->
<g id="node60" class="node"><title>28</title>
<ellipse fill="none" stroke="black" cx="577.934" cy="-319.631" rx="27" ry="18"/>
<text text-anchor="middle" x="577.934" y="-315.531" font-family="Times Roman,serif" font-size="14.00">28</text>
</g>
<!-- 19&#45;&#45;28 -->
<g id="edge162" class="edge"><title>19&#45;&#45;28</title>
<path fill="none" stroke="black" stroke-width="0.692308" stroke-dasharray="1,5" d="M610.272,-289.42C605.014,-294.332 599.152,-299.809 593.878,-304.736"/>
</g>
<!-- 20&#45;&#45;28 -->
<g id="edge164" class="edge"><title>20&#45;&#45;28</title>
<path fill="none" stroke="black" stroke-width="1.5" stroke-dasharray="1,5" d="M488.98,-420.336C508.604,-398.12 544.276,-357.736 563.959,-335.452"/>
</g>
<!-- 21&#45;&#45;28 -->
<g id="edge166" class="edge"><title>21&#45;&#45;28</title>
<path fill="none" stroke="black" stroke-width="9" stroke-dasharray="1,5" d="M439.518,-478.554C468.494,-445.286 535.449,-368.411 564.301,-335.284"/>
</g>
<!-- 25&#45;&#45;29 -->
<g id="edge176" class="edge"><title>25&#45;&#45;29</title>
<path fill="none" stroke="black" stroke-width="1.125" stroke-dasharray="1,5" d="M185.745,-388.632C189.954,-396.67 194.968,-406.245 199.193,-414.315"/>
</g>
<!-- 25&#45;&#45;26 -->
<g id="edge174" class="edge"><title>25&#45;&#45;26</title>
<path fill="none" stroke="black" stroke-width="0.529412" stroke-dasharray="1,5" d="M151.303,-365.635C131.709,-361.056 104.763,-354.76 85.0799,-350.161"/>
</g>
<!-- 1 -->
<g id="node22" class="node"><title>1</title>
<ellipse fill="none" stroke="black" cx="339.676" cy="-251.488" rx="27" ry="18"/>
<text text-anchor="middle" x="339.676" y="-247.388" font-family="Times Roman,serif" font-size="14.00">1</text>
</g>
<!-- 1&#45;&#45;12 -->
<g id="edge26" class="edge"><title>1&#45;&#45;12</title>
<path fill="none" stroke="black" stroke-width="0.5625" stroke-dasharray="1,5" d="M335.418,-269.315C327.639,-301.882 311.215,-370.638 303.433,-403.217"/>
</g>
<!-- 1&#45;&#45;16 -->
<g id="edge32" class="edge"><title>1&#45;&#45;16</title>
<path fill="none" stroke="black" stroke-width="0.6" stroke-dasharray="1,5" d="M336.701,-269.574C333.061,-291.699 326.938,-328.923 323.311,-350.969"/>
</g>
<!-- 1&#45;&#45;20 -->
<g id="edge34" class="edge"><title>1&#45;&#45;20</title>
<path fill="none" stroke="black" stroke-width="0.9" stroke-dasharray="1,5" d="M351.695,-267.866C377.397,-302.887 437.444,-384.706 463.121,-419.695"/>
</g>
<!-- 1&#45;&#45;25 -->
<g id="edge36" class="edge"><title>1&#45;&#45;25</title>
<path fill="none" stroke="black" stroke-width="0.5" stroke-dasharray="1,5" d="M321.312,-265.033C290.035,-288.101 226.774,-334.76 195.374,-357.919"/>
</g>
<!-- 1&#45;&#45;29 -->
<g id="edge38" class="edge"><title>1&#45;&#45;29</title>
<path fill="none" stroke="black" stroke-width="0.473684" stroke-dasharray="1,5" d="M327.781,-267.79C302.821,-301.994 245.226,-380.919 220.207,-415.205"/>
</g>
<!-- 3 -->
<g id="node24" class="node"><title>3</title>
<ellipse fill="none" stroke="black" cx="463.128" cy="-329.173" rx="27" ry="18"/>
<text text-anchor="middle" x="463.128" y="-325.073" font-family="Times Roman,serif" font-size="14.00">3</text>
</g>
<!-- 1&#45;&#45;3 -->
<g id="edge22" class="edge"><title>1&#45;&#45;3</title>
<path fill="none" stroke="black" stroke-width="0.9" stroke-dasharray="1,5" d="M359.511,-263.97C382.548,-278.467 420.326,-302.239 443.342,-316.722"/>
</g>
<!-- 6 -->
<g id="node26" class="node"><title>6</title>
<ellipse fill="none" stroke="black" cx="488.087" cy="-69.6958" rx="27" ry="18"/>
<text text-anchor="middle" x="488.087" y="-65.5958" font-family="Times Roman,serif" font-size="14.00">6</text>
</g>
<!-- 1&#45;&#45;6 -->
<g id="edge24" class="edge"><title>1&#45;&#45;6</title>
<path fill="none" stroke="black" stroke-width="1.8" stroke-dasharray="1,5" d="M352.587,-235.674C380.655,-201.292 446.963,-120.069 475.1,-85.6036"/>
</g>
<!-- 13 -->
<g id="node29" class="node"><title>13</title>
<ellipse fill="none" stroke="black" cx="544.321" cy="-117.225" rx="27" ry="18"/>
<text text-anchor="middle" x="544.321" y="-113.125" font-family="Times Roman,serif" font-size="14.00">13</text>
</g>
<!-- 1&#45;&#45;13 -->
<g id="edge28" class="edge"><title>1&#45;&#45;13</title>
<path fill="none" stroke="black" stroke-width="4.5" stroke-dasharray="1,5" d="M358.929,-238.857C397.932,-213.268 485.885,-155.563 524.97,-129.92"/>
</g>
<!-- 14 -->
<g id="node31" class="node"><title>14</title>
<ellipse fill="none" stroke="black" cx="396.51" cy="-150.528" rx="27" ry="18"/>
<text text-anchor="middle" x="396.51" y="-146.428" font-family="Times Roman,serif" font-size="14.00">14</text>
</g>
<!-- 1&#45;&#45;14 -->
<g id="edge30" class="edge"><title>1&#45;&#45;14</title>
<path fill="none" stroke="black" stroke-width="0.642857" stroke-dasharray="1,5" d="M349.317,-234.362C359.832,-215.684 376.553,-185.979 387.011,-167.402"/>
</g>
<!-- 3&#45;&#45;4 -->
<g id="edge40" class="edge"><title>3&#45;&#45;4</title>
<path fill="none" stroke="black" stroke-width="1.8" stroke-dasharray="1,5" d="M439.221,-320.779C399.843,-306.953 321.776,-279.543 282.29,-265.679"/>
</g>
<!-- 3&#45;&#45;12 -->
<g id="edge46" class="edge"><title>3&#45;&#45;12</title>
<path fill="none" stroke="black" stroke-width="0.75" stroke-dasharray="1,5" d="M442.362,-340.81C410.911,-358.437 351.531,-391.715 320.026,-409.372"/>
</g>
<!-- 3&#45;&#45;20 -->
<g id="edge50" class="edge"><title>3&#45;&#45;20</title>
<path fill="none" stroke="black" stroke-width="4.5" stroke-dasharray="1,5" d="M465.161,-347.301C467.365,-366.951 470.862,-398.133 473.07,-417.818"/>
</g>
<!-- 3&#45;&#45;21 -->
<g id="edge52" class="edge"><title>3&#45;&#45;21</title>
<path fill="none" stroke="black" stroke-width="0.5625" stroke-dasharray="1,5" d="M459.056,-347.166C451.865,-378.943 436.998,-444.637 429.811,-476.398"/>
</g>
<!-- 3&#45;&#45;13 -->
<g id="edge48" class="edge"><title>3&#45;&#45;13</title>
<path fill="none" stroke="black" stroke-dasharray="1,5" d="M469.91,-311.467C485.232,-271.471 522.365,-174.537 537.614,-134.731"/>
</g>
<!-- 5 -->
<g id="node38" class="node"><title>5</title>
<ellipse fill="none" stroke="black" cx="523.293" cy="-196.921" rx="27" ry="18"/>
<text text-anchor="middle" x="523.293" y="-192.821" font-family="Times Roman,serif" font-size="14.00">5</text>
</g>
<!-- 3&#45;&#45;5 -->
<g id="edge42" class="edge"><title>3&#45;&#45;5</title>
<path fill="none" stroke="black" stroke-width="0.9" stroke-dasharray="1,5" d="M470.993,-311.883C482.524,-286.537 503.894,-239.563 515.426,-214.214"/>
</g>
<!-- 10 -->
<g id="node40" class="node"><title>10</title>
<ellipse fill="none" stroke="black" cx="565.426" cy="-552.87" rx="27" ry="18"/>
<text text-anchor="middle" x="565.426" y="-548.77" font-family="Times Roman,serif" font-size="14.00">10</text>
</g>
<!-- 3&#45;&#45;10 -->
<g id="edge44" class="edge"><title>3&#45;&#45;10</title>
<path fill="none" stroke="black" stroke-width="1.28571" stroke-dasharray="1,5" d="M471.155,-346.726C490.278,-388.543 538.351,-493.664 557.436,-535.399"/>
</g>
<!-- 6&#45;&#45;13 -->
<g id="edge76" class="edge"><title>6&#45;&#45;13</title>
<path fill="none" stroke="black" stroke-width="0.6" stroke-dasharray="1,5" d="M504.959,-83.956C512.076,-89.9716 520.344,-96.96 527.46,-102.974"/>
</g>
<!-- 6&#45;&#45;14 -->
<g id="edge78" class="edge"><title>6&#45;&#45;14</title>
<path fill="none" stroke="black" stroke-dasharray="1,5" d="M471.715,-84.147C455.149,-98.7693 429.675,-121.255 413.049,-135.93"/>
</g>
<!-- 6&#45;&#45;18 -->
<g id="edge80" class="edge"><title>6&#45;&#45;18</title>
<path fill="none" stroke="black" stroke-width="2.25" stroke-dasharray="1,5" d="M462.683,-63.3801C423.516,-53.6426 348.821,-35.0723 309.655,-25.3349"/>
</g>
<!-- 6&#45;&#45;28 -->
<g id="edge84" class="edge"><title>6&#45;&#45;28</title>
<path fill="none" stroke="black" stroke-width="2.25" stroke-dasharray="1,5" d="M494.405,-87.2707C510.901,-133.161 555.135,-256.207 571.624,-302.075"/>
</g>
<!-- 27 -->
<g id="node65" class="node"><title>27</title>
<ellipse fill="none" stroke="black" cx="668.347" cy="-185.533" rx="27" ry="18"/>
<text text-anchor="middle" x="668.347" y="-181.433" font-family="Times Roman,serif" font-size="14.00">27</text>
</g>
<!-- 6&#45;&#45;27 -->
<g id="edge82" class="edge"><title>6&#45;&#45;27</title>
<path fill="none" stroke="black" stroke-width="0.692308" stroke-dasharray="1,5" d="M507.721,-82.313C542.395,-104.595 614.08,-150.66 648.737,-172.932"/>
</g>
<!-- 13&#45;&#45;19 -->
<g id="edge130" class="edge"><title>13&#45;&#45;19</title>
<path fill="none" stroke="black" stroke-width="1.28571" stroke-dasharray="1,5" d="M553.219,-134.378C568.934,-164.672 601.421,-227.3 617.128,-257.579"/>
</g>
<!-- 13&#45;&#45;23 -->
<g id="edge132" class="edge"><title>13&#45;&#45;23</title>
<path fill="none" stroke="black" stroke-width="0.75" stroke-dasharray="1,5" d="M517.74,-113.509C483.082,-108.665 422.805,-100.239 388.132,-95.3925"/>
</g>
<!-- 13&#45;&#45;27 -->
<g id="edge134" class="edge"><title>13&#45;&#45;27</title>
<path fill="none" stroke="black" stroke-width="0.529412" stroke-dasharray="1,5" d="M565.36,-128.812C588.167,-141.373 624.357,-161.305 647.204,-173.889"/>
</g>
<!-- 14&#45;&#45;16 -->
<g id="edge136" class="edge"><title>14&#45;&#45;16</title>
<path fill="none" stroke="black" stroke-width="0.5" stroke-dasharray="1,5" d="M390.279,-168.397C375.965,-209.444 340.869,-310.083 326.575,-351.073"/>
</g>
<!-- 14&#45;&#45;18 -->
<g id="edge138" class="edge"><title>14&#45;&#45;18</title>
<path fill="none" stroke="black" stroke-width="0.5" stroke-dasharray="1,5" d="M382.969,-134.665C361.393,-109.389 319.448,-60.2506 297.841,-34.9387"/>
</g>
<!-- 14&#45;&#45;28 -->
<g id="edge140" class="edge"><title>14&#45;&#45;28</title>
<path fill="none" stroke="black" stroke-width="1.8" stroke-dasharray="1,5" d="M412.293,-165.239C446.605,-197.22 527.663,-272.774 562.059,-304.833"/>
</g>
<!-- 5&#45;&#45;9 -->
<g id="edge68" class="edge"><title>5&#45;&#45;9</title>
<path fill="none" stroke="black" stroke-width="0.5" stroke-dasharray="1,5" d="M525.031,-214.92C528.808,-254.052 537.733,-346.497 541.52,-385.724"/>
</g>
<!-- 5&#45;&#45;23 -->
<g id="edge72" class="edge"><title>5&#45;&#45;23</title>
<path fill="none" stroke="black" stroke-width="0.6" stroke-dasharray="1,5" d="M503.779,-184.225C472.601,-163.941 411.912,-124.458 380.85,-104.249"/>
</g>
<!-- 5&#45;&#45;6 -->
<g id="edge64" class="edge"><title>5&#45;&#45;6</title>
<path fill="none" stroke="black" stroke-width="1.125" stroke-dasharray="1,5" d="M518.324,-178.962C511.614,-154.715 499.728,-111.763 493.031,-87.5628"/>
</g>
<!-- 5&#45;&#45;14 -->
<g id="edge70" class="edge"><title>5&#45;&#45;14</title>
<path fill="none" stroke="black" stroke-width="0.642857" stroke-dasharray="1,5" d="M499.446,-188.195C476.779,-179.9 442.882,-167.496 420.25,-159.215"/>
</g>
<!-- 8 -->
<g id="node55" class="node"><title>8</title>
<ellipse fill="none" stroke="black" cx="439.367" cy="-388.392" rx="27" ry="18"/>
<text text-anchor="middle" x="439.367" y="-384.292" font-family="Times Roman,serif" font-size="14.00">8</text>
</g>
<!-- 5&#45;&#45;8 -->
<g id="edge66" class="edge"><title>5&#45;&#45;8</title>
<path fill="none" stroke="black" stroke-width="0.529412" stroke-dasharray="1,5" d="M515.697,-214.25C499.759,-250.612 462.982,-334.516 447.006,-370.963"/>
</g>
<!-- 5&#45;&#45;28 -->
<g id="edge74" class="edge"><title>5&#45;&#45;28</title>
<path fill="none" stroke="black" stroke-width="0.642857" stroke-dasharray="1,5" d="M531.006,-214.242C541.361,-237.496 559.659,-278.589 570.084,-302"/>
</g>
<!-- 10&#45;&#45;21 -->
<g id="edge118" class="edge"><title>10&#45;&#45;21</title>
<path fill="none" stroke="black" stroke-width="0.818182" stroke-dasharray="1,5" d="M542.361,-543.21C516.48,-532.371 474.739,-514.889 448.844,-504.044"/>
</g>
<!-- 15&#45;&#45;21 -->
<g id="edge144" class="edge"><title>15&#45;&#45;21</title>
<path fill="none" stroke="black" stroke-width="0.75" stroke-dasharray="1,5" d="M409.692,-526.64C412.139,-521.721 414.801,-516.37 417.24,-511.466"/>
</g>
<!-- 15&#45;&#45;17 -->
<g id="edge142" class="edge"><title>15&#45;&#45;17</title>
<path fill="none" stroke="black" stroke-dasharray="1,5" d="M373.713,-544.141C368.219,-544.169 362.446,-544.2 356.958,-544.228"/>
</g>
<!-- 24 -->
<g id="node102" class="node"><title>24</title>
<ellipse fill="none" stroke="black" cx="645.597" cy="-567.61" rx="27" ry="18"/>
<text text-anchor="middle" x="645.597" y="-563.51" font-family="Times Roman,serif" font-size="14.00">24</text>
</g>
<!-- 15&#45;&#45;24 -->
<g id="edge146" class="edge"><title>15&#45;&#45;24</title>
<path fill="none" stroke="black" stroke-width="0.818182" stroke-dasharray="1,5" d="M428.163,-546.615C475.293,-551.166 571.791,-560.483 618.744,-565.017"/>
</g>
<!-- 18&#45;&#45;23 -->
<g id="edge160" class="edge"><title>18&#45;&#45;23</title>
<path fill="none" stroke="black" stroke-dasharray="1,5" d="M299.888,-33.7218C313.205,-46.2439 332.254,-64.1558 345.64,-76.7425"/>
</g>
<!-- 8&#45;&#45;12 -->
<g id="edge98" class="edge"><title>8&#45;&#45;12</title>
<path fill="none" stroke="black" stroke-width="0.9" stroke-dasharray="1,5" d="M413.653,-394.383C388.357,-400.278 349.962,-409.224 324.722,-415.106"/>
</g>
<!-- 8&#45;&#45;16 -->
<g id="edge102" class="edge"><title>8&#45;&#45;16</title>
<path fill="none" stroke="black" stroke-width="0.473684" stroke-dasharray="1,5" d="M412.956,-384.062C393.235,-380.829 366.404,-376.43 346.701,-373.2"/>
</g>
<!-- 8&#45;&#45;19 -->
<g id="edge104" class="edge"><title>8&#45;&#45;19</title>
<path fill="none" stroke="black" stroke-width="2.25" stroke-dasharray="1,5" d="M459.341,-376.226C495.172,-354.403 569.972,-308.846 605.903,-286.962"/>
</g>
<!-- 8&#45;&#45;20 -->
<g id="edge106" class="edge"><title>8&#45;&#45;20</title>
<path fill="none" stroke="black" stroke-width="1.28571" stroke-dasharray="1,5" d="M451.469,-404.522C455.196,-409.489 459.298,-414.956 463.024,-419.922"/>
</g>
<!-- 8&#45;&#45;29 -->
<g id="edge112" class="edge"><title>8&#45;&#45;29</title>
<path fill="none" stroke="black" stroke-width="0.5625" stroke-dasharray="1,5" d="M413.303,-393.264C368.914,-401.562 279.132,-418.347 234.567,-426.678"/>
</g>
<!-- 8&#45;&#45;10 -->
<g id="edge94" class="edge"><title>8&#45;&#45;10</title>
<path fill="none" stroke="black" stroke-width="0.75" stroke-dasharray="1,5" d="M451.683,-404.462C475.721,-435.826 528.647,-504.882 552.873,-536.491"/>
</g>
<!-- 8&#45;&#45;15 -->
<g id="edge100" class="edge"><title>8&#45;&#45;15</title>
<path fill="none" stroke="black" stroke-width="0.529412" stroke-dasharray="1,5" d="M434.972,-406.242C427.622,-436.098 412.914,-495.841 405.52,-525.877"/>
</g>
<!-- 8&#45;&#45;28 -->
<g id="edge110" class="edge"><title>8&#45;&#45;28</title>
<path fill="none" stroke="black" stroke-width="1.125" stroke-dasharray="1,5" d="M461.323,-377.496C487.27,-364.621 530.179,-343.328 556.081,-330.475"/>
</g>
<!-- 8&#45;&#45;27 -->
<g id="edge108" class="edge"><title>8&#45;&#45;27</title>
<path fill="none" stroke="black" stroke-width="0.529412" stroke-dasharray="1,5" d="M455.834,-373.803C498.083,-336.374 609.944,-237.273 652.028,-199.99"/>
</g>
<!-- 11 -->
<g id="node74" class="node"><title>11</title>
<ellipse fill="none" stroke="black" cx="244.178" cy="-559.394" rx="27" ry="18"/>
<text text-anchor="middle" x="244.178" y="-555.294" font-family="Times Roman,serif" font-size="14.00">11</text>
</g>
<!-- 8&#45;&#45;11 -->
<g id="edge96" class="edge"><title>8&#45;&#45;11</title>
<path fill="none" stroke="black" stroke-width="0.9" stroke-dasharray="1,5" d="M422.725,-402.971C385.848,-435.278 297.615,-512.578 260.778,-544.851"/>
</g>
<!-- 7 -->
<g id="node67" class="node"><title>7</title>
<ellipse fill="none" stroke="black" cx="773.583" cy="-323.615" rx="27" ry="18"/>
<text text-anchor="middle" x="773.583" y="-319.515" font-family="Times Roman,serif" font-size="14.00">7</text>
</g>
<!-- 7&#45;&#45;9 -->
<g id="edge88" class="edge"><title>7&#45;&#45;9</title>
<path fill="none" stroke="black" stroke-dasharray="1,5" d="M749.371,-332.048C705.137,-347.454 611.751,-379.978 567.501,-395.389"/>
</g>
<!-- 7&#45;&#45;19 -->
<g id="edge90" class="edge"><title>7&#45;&#45;19</title>
<path fill="none" stroke="black" stroke-width="9" stroke-dasharray="1,5" d="M749.216,-315.54C721.874,-306.479 677.776,-291.865 650.42,-282.799"/>
</g>
<!-- 7&#45;&#45;28 -->
<g id="edge92" class="edge"><title>7&#45;&#45;28</title>
<path fill="none" stroke="black" stroke-width="0.5" stroke-dasharray="1,5" d="M746.379,-323.061C709.105,-322.302 642.54,-320.946 605.222,-320.186"/>
</g>
<!-- 7&#45;&#45;27 -->
<g id="edge86" class="edge"><title>7&#45;&#45;27</title>
<path fill="none" stroke="black" stroke-width="0.818182" stroke-dasharray="1,5" d="M761.306,-307.505C741.136,-281.04 701.203,-228.644 680.873,-201.969"/>
</g>
<!-- 11&#45;&#45;21 -->
<g id="edge124" class="edge"><title>11&#45;&#45;21</title>
<path fill="none" stroke="black" stroke-width="1.8" stroke-dasharray="1,5" d="M268.289,-550.759C303.112,-538.288 367.106,-515.369 401.823,-502.936"/>
</g>
<!-- 11&#45;&#45;25 -->
<g id="edge128" class="edge"><title>11&#45;&#45;25</title>
<path fill="none" stroke="black" stroke-width="9" stroke-dasharray="1,5" d="M237.842,-541.726C225.005,-505.934 196.059,-425.223 183.195,-389.356"/>
</g>
<!-- 11&#45;&#45;15 -->
<g id="edge120" class="edge"><title>11&#45;&#45;15</title>
<path fill="none" stroke="black" stroke-width="0.6" stroke-dasharray="1,5" d="M271.147,-556.747C299.969,-553.919 345.392,-549.461 374.18,-546.636"/>
</g>
<!-- 11&#45;&#45;17 -->
<g id="edge122" class="edge"><title>11&#45;&#45;17</title>
<path fill="none" stroke="black" stroke-width="0.6" stroke-dasharray="1,5" d="M270.334,-554.804C280.859,-552.958 292.975,-550.832 303.513,-548.983"/>
</g>
<!-- 22 -->
<g id="node91" class="node"><title>22</title>
<ellipse fill="none" stroke="black" cx="27.7675" cy="-529.409" rx="27" ry="18"/>
<text text-anchor="middle" x="27.7675" y="-525.309" font-family="Times Roman,serif" font-size="14.00">22</text>
</g>
<!-- 11&#45;&#45;22 -->
<g id="edge126" class="edge"><title>11&#45;&#45;22</title>
<path fill="none" stroke="black" stroke-width="4.5" stroke-dasharray="1,5" d="M217.642,-555.717C176.107,-549.962 96.1891,-538.889 54.5208,-533.116"/>
</g>
<!-- 17&#45;&#45;25 -->
<g id="edge158" class="edge"><title>17&#45;&#45;25</title>
<path fill="none" stroke="black" stroke-width="1.125" stroke-dasharray="1,5" d="M315.958,-528.733C286.98,-496.005 220.21,-420.596 190.973,-387.576"/>
</g>
<!-- 22&#45;&#45;29 -->
<g id="edge170" class="edge"><title>22&#45;&#45;29</title>
<path fill="none" stroke="black" stroke-width="4.5" stroke-dasharray="1,5" d="M48.8236,-517.998C83.5066,-499.201 152.265,-461.937 187.043,-443.089"/>
</g>
<!-- 22&#45;&#45;26 -->
<g id="edge168" class="edge"><title>22&#45;&#45;26</title>
<path fill="none" stroke="black" stroke-width="1.5" stroke-dasharray="1,5" d="M30.8386,-511.305C36.8633,-475.79 50.1657,-397.373 56.1631,-362.019"/>
</g>
<!-- 24&#45;&#45;28 -->
<g id="edge172" class="edge"><title>24&#45;&#45;28</title>
<path fill="none" stroke="black" stroke-width="0.75" stroke-dasharray="1,5" d="M640.731,-549.776C628.277,-504.133 595.353,-383.467 582.847,-337.636"/>
</g>
</g>
</svg>
