<?xml version="1.0" encoding="UTF-8" standalone="no"?>
<!DOCTYPE svg PUBLIC "-//W3C//DTD SVG 1.1//EN"
 "http://www.w3.org/Graphics/SVG/1.1/DTD/svg11.dtd">
<!-- Generated by graphviz version 2.26.3 (20100126.1600)
 -->
<!-- Title: G Pages: 1 -->
<svg width="430pt" height="504pt"
 viewBox="0.00 0.00 429.74 504.05" xmlns="http://www.w3.org/2000/svg" xmlns:xlink="http://www.w3.org/1999/xlink">
<g id="graph1" class="graph" transform="scale(1 1) rotate(0) translate(4 500.046)">
<title>G</title>
<polygon fill="white" stroke="white" points="-4,5 -4,-500.046 426.739,-500.046 426.739,5 -4,5"/>
<!-- 0 -->
<g id="node1" class="node"><title>0</title>
<ellipse fill="none" stroke="black" cx="225.447" cy="-313.846" rx="27" ry="18"/>
<text text-anchor="middle" x="225.447" y="-309.746" font-family="Times Roman,serif" font-size="14.00">0</text>
</g>
<!-- 7 -->
<g id="node3" class="node"><title>7</title>
<ellipse fill="none" stroke="black" cx="285.822" cy="-280.749" rx="27" ry="18"/>
<text text-anchor="middle" x="285.822" y="-276.649" font-family="Times Roman,serif" font-size="14.00">7</text>
</g>
<!-- 0&#45;&#45;7 -->
<g id="edge2" class="edge"><title>0&#45;&#45;7</title>
<path fill="none" stroke="orange" stroke-width="3" d="M246.563,-302.271C252.412,-299.064 258.761,-295.583 264.615,-292.374"/>
</g>
<!-- 17 -->
<g id="node5" class="node"><title>17</title>
<ellipse fill="none" stroke="black" cx="321.739" cy="-294.589" rx="27" ry="18"/>
<text text-anchor="middle" x="321.739" y="-290.489" font-family="Times Roman,serif" font-size="14.00">17</text>
</g>
<!-- 0&#45;&#45;17 -->
<g id="edge4" class="edge"><title>0&#45;&#45;17</title>
<path fill="none" stroke="red" stroke-width="4.5" d="M251.505,-308.635C265.206,-305.895 281.955,-302.545 295.66,-299.804"/>
</g>
<!-- 27 -->
<g id="node7" class="node"><title>27</title>
<ellipse fill="none" stroke="black" cx="172.205" cy="-244.66" rx="27" ry="18"/>
<text text-anchor="middle" x="172.205" y="-240.56" font-family="Times Roman,serif" font-size="14.00">27</text>
</g>
<!-- 0&#45;&#45;27 -->
<g id="edge6" class="edge"><title>0&#45;&#45;27</title>
<path fill="none" stroke="red" stroke-width="4.5" d="M213.098,-297.8C204.62,-286.782 193.399,-272.201 184.856,-261.1"/>
</g>
<!-- 22 -->
<g id="node9" class="node"><title>22</title>
<ellipse fill="none" stroke="black" cx="141.073" cy="-347.914" rx="27" ry="18"/>
<text text-anchor="middle" x="141.073" y="-343.814" font-family="Times Roman,serif" font-size="14.00">22</text>
</g>
<!-- 0&#45;&#45;22 -->
<g id="edge8" class="edge"><title>0&#45;&#45;22</title>
<path fill="none" stroke="orange" stroke-width="9" d="M201.944,-323.336C190.241,-328.061 176.135,-333.757 164.45,-338.475"/>
</g>
<!-- 23 -->
<g id="node11" class="node"><title>23</title>
<ellipse fill="none" stroke="black" cx="255.804" cy="-404.175" rx="27" ry="18"/>
<text text-anchor="middle" x="255.804" y="-400.075" font-family="Times Roman,serif" font-size="14.00">23</text>
</g>
<!-- 0&#45;&#45;23 -->
<g id="edge10" class="edge"><title>0&#45;&#45;23</title>
<path fill="none" stroke="red" stroke-width="1.8" d="M231.445,-331.692C236.767,-347.528 244.501,-370.541 249.819,-386.366"/>
</g>
<!-- 7&#45;&#45;17 -->
<g id="edge44" class="edge"><title>7&#45;&#45;17</title>
<path fill="none" stroke="orange" stroke-width="1.8" d="M309.579,-289.903C309.683,-289.943 309.787,-289.983 309.891,-290.023"/>
</g>
<!-- 16 -->
<g id="node26" class="node"><title>16</title>
<ellipse fill="none" stroke="black" cx="300.211" cy="-191.445" rx="27" ry="18"/>
<text text-anchor="middle" x="300.211" y="-187.345" font-family="Times Roman,serif" font-size="14.00">16</text>
</g>
<!-- 7&#45;&#45;16 -->
<g id="edge40" class="edge"><title>7&#45;&#45;16</title>
<path fill="none" stroke="red" stroke-width="4.5" d="M288.734,-262.677C291.23,-247.183 294.808,-224.976 297.304,-209.49"/>
</g>
<!-- 10 -->
<g id="node44" class="node"><title>10</title>
<ellipse fill="none" stroke="black" cx="382.348" cy="-283.348" rx="27" ry="18"/>
<text text-anchor="middle" x="382.348" y="-279.248" font-family="Times Roman,serif" font-size="14.00">10</text>
</g>
<!-- 7&#45;&#45;10 -->
<g id="edge42" class="edge"><title>7&#45;&#45;10</title>
<path fill="none" stroke="orange" stroke-width="1.125" d="M312.966,-281.48C326.126,-281.834 341.895,-282.259 355.072,-282.613"/>
</g>
<!-- 26 -->
<g id="node65" class="node"><title>26</title>
<ellipse fill="none" stroke="black" cx="344.236" cy="-206.121" rx="27" ry="18"/>
<text text-anchor="middle" x="344.236" y="-202.021" font-family="Times Roman,serif" font-size="14.00">26</text>
</g>
<!-- 17&#45;&#45;26 -->
<g id="edge72" class="edge"><title>17&#45;&#45;26</title>
<path fill="none" stroke="orange" d="M326.291,-276.686C330.194,-261.337 335.789,-239.338 339.69,-223.997"/>
</g>
<!-- 28 -->
<g id="node31" class="node"><title>28</title>
<ellipse fill="none" stroke="black" cx="325.384" cy="-424.855" rx="27" ry="18"/>
<text text-anchor="middle" x="325.384" y="-420.755" font-family="Times Roman,serif" font-size="14.00">28</text>
</g>
<!-- 23&#45;&#45;28 -->
<g id="edge82" class="edge"><title>23&#45;&#45;28</title>
<path fill="none" stroke="green" stroke-width="1.8" d="M280.531,-411.524C286.937,-413.428 293.841,-415.48 300.267,-417.39"/>
</g>
<!-- 1 -->
<g id="node12" class="node"><title>1</title>
<ellipse fill="none" stroke="black" cx="230.505" cy="-81.6302" rx="27" ry="18"/>
<text text-anchor="middle" x="230.505" y="-77.5302" font-family="Times Roman,serif" font-size="14.00">1</text>
</g>
<!-- 25 -->
<g id="node14" class="node"><title>25</title>
<ellipse fill="none" stroke="black" cx="291.715" cy="-19.6006" rx="27" ry="18"/>
<text text-anchor="middle" x="291.715" y="-15.5006" font-family="Times Roman,serif" font-size="14.00">25</text>
</g>
<!-- 1&#45;&#45;25 -->
<g id="edge12" class="edge"><title>1&#45;&#45;25</title>
<path fill="none" stroke="black" stroke-width="0.9" stroke-dasharray="1,5" d="M245.635,-66.297C255.123,-56.6821 267.304,-44.3386 276.758,-34.7574"/>
</g>
<!-- 19 -->
<g id="node16" class="node"><title>19</title>
<ellipse fill="none" stroke="black" cx="182.495" cy="-19" rx="27" ry="18"/>
<text text-anchor="middle" x="182.495" y="-14.9" font-family="Times Roman,serif" font-size="14.00">19</text>
</g>
<!-- 1&#45;&#45;19 -->
<g id="edge14" class="edge"><title>1&#45;&#45;19</title>
<path fill="none" stroke="black" stroke-dasharray="1,5" d="M218.141,-65.5014C211.028,-56.2229 202.117,-44.5976 194.983,-35.2919"/>
</g>
<!-- 12 -->
<g id="node18" class="node"><title>12</title>
<ellipse fill="none" stroke="black" cx="163.649" cy="-154.093" rx="27" ry="18"/>
<text text-anchor="middle" x="163.649" y="-149.993" font-family="Times Roman,serif" font-size="14.00">12</text>
</g>
<!-- 1&#45;&#45;12 -->
<g id="edge16" class="edge"><title>1&#45;&#45;12</title>
<path fill="none" stroke="black" stroke-width="2.25" stroke-dasharray="1,5" d="M216.326,-96.9977C204.981,-109.295 189.147,-126.456 177.807,-138.747"/>
</g>
<!-- 29 -->
<g id="node20" class="node"><title>29</title>
<ellipse fill="none" stroke="black" cx="285.442" cy="-131.157" rx="27" ry="18"/>
<text text-anchor="middle" x="285.442" y="-127.057" font-family="Times Roman,serif" font-size="14.00">29</text>
</g>
<!-- 1&#45;&#45;29 -->
<g id="edge18" class="edge"><title>1&#45;&#45;29</title>
<path fill="none" stroke="black" stroke-width="1.28571" stroke-dasharray="1,5" d="M246.691,-96.2221C253.78,-102.614 262.084,-110.099 269.182,-116.499"/>
</g>
<!-- 20 -->
<g id="node57" class="node"><title>20</title>
<ellipse fill="none" stroke="black" cx="192.33" cy="-97.4524" rx="27" ry="18"/>
<text text-anchor="middle" x="192.33" y="-93.3524" font-family="Times Roman,serif" font-size="14.00">20</text>
</g>
<!-- 19&#45;&#45;20 -->
<g id="edge74" class="edge"><title>19&#45;&#45;20</title>
<path fill="none" stroke="black" stroke-width="1.5" stroke-dasharray="1,5" d="M184.776,-37.1957C186.365,-49.8699 188.475,-66.7028 190.061,-79.3553"/>
</g>
<!-- 12&#45;&#45;27 -->
<g id="edge58" class="edge"><title>12&#45;&#45;27</title>
<path fill="none" stroke="blue" stroke-width="1.8" d="M165.381,-172.421C166.875,-188.237 169.02,-210.951 170.505,-226.669"/>
</g>
<!-- 14 -->
<g id="node39" class="node"><title>14</title>
<ellipse fill="none" stroke="black" cx="79.6285" cy="-146.051" rx="27" ry="18"/>
<text text-anchor="middle" x="79.6285" y="-141.951" font-family="Times Roman,serif" font-size="14.00">14</text>
</g>
<!-- 12&#45;&#45;14 -->
<g id="edge62" class="edge"><title>12&#45;&#45;14</title>
<path fill="none" stroke="black" stroke-width="1.28571" stroke-dasharray="1,5" d="M136.602,-151.504C127.008,-150.586 116.215,-149.553 106.625,-148.635"/>
</g>
<!-- 12&#45;&#45;20 -->
<g id="edge60" class="edge"><title>12&#45;&#45;20</title>
<path fill="none" stroke="black" stroke-width="9" stroke-dasharray="1,5" d="M172.41,-136.791C175.969,-129.764 180.07,-121.664 183.623,-114.648"/>
</g>
<!-- 2 -->
<g id="node21" class="node"><title>2</title>
<ellipse fill="none" stroke="black" cx="371.171" cy="-45.1439" rx="27" ry="18"/>
<text text-anchor="middle" x="371.171" y="-41.0439" font-family="Times Roman,serif" font-size="14.00">2</text>
</g>
<!-- 2&#45;&#45;25 -->
<g id="edge20" class="edge"><title>2&#45;&#45;25</title>
<path fill="none" stroke="black" stroke-width="4.5" stroke-dasharray="1,5" d="M346.466,-37.2018C336.808,-34.0971 325.761,-30.5458 316.131,-27.45"/>
</g>
<!-- 3 -->
<g id="node24" class="node"><title>3</title>
<ellipse fill="none" stroke="black" cx="377.086" cy="-128.856" rx="27" ry="18"/>
<text text-anchor="middle" x="377.086" y="-124.756" font-family="Times Roman,serif" font-size="14.00">3</text>
</g>
<!-- 2&#45;&#45;3 -->
<g id="edge22" class="edge"><title>2&#45;&#45;3</title>
<path fill="none" stroke="black" stroke-width="1.28571" stroke-dasharray="1,5" d="M372.454,-63.3082C373.446,-77.3495 374.813,-96.6948 375.805,-110.727"/>
</g>
<!-- 3&#45;&#45;16 -->
<g id="edge24" class="edge"><title>3&#45;&#45;16</title>
<path fill="none" stroke="black" stroke-width="1.125" stroke-dasharray="1,5" d="M359.642,-143.058C346.972,-153.373 329.913,-167.263 317.321,-177.514"/>
</g>
<!-- 16&#45;&#45;29 -->
<g id="edge70" class="edge"><title>16&#45;&#45;29</title>
<path fill="none" stroke="black" stroke-width="1.5" stroke-dasharray="1,5" d="M295.78,-173.356C293.911,-165.726 291.739,-156.862 289.87,-149.233"/>
</g>
<!-- 4 -->
<g id="node27" class="node"><title>4</title>
<ellipse fill="none" stroke="black" cx="282.785" cy="-370.296" rx="27" ry="18"/>
<text text-anchor="middle" x="282.785" y="-366.196" font-family="Times Roman,serif" font-size="14.00">4</text>
</g>
<!-- 4&#45;&#45;7 -->
<g id="edge30" class="edge"><title>4&#45;&#45;7</title>
<path fill="none" stroke="red" stroke-width="9" d="M283.4,-352.175C283.926,-336.639 284.681,-314.371 285.208,-298.843"/>
</g>
<!-- 18 -->
<g id="node29" class="node"><title>18</title>
<ellipse fill="none" stroke="black" cx="208.927" cy="-444.06" rx="27" ry="18"/>
<text text-anchor="middle" x="208.927" y="-439.96" font-family="Times Roman,serif" font-size="14.00">18</text>
</g>
<!-- 4&#45;&#45;18 -->
<g id="edge26" class="edge"><title>4&#45;&#45;18</title>
<path fill="none" stroke="black" stroke-width="0.9" stroke-dasharray="1,5" d="M267.482,-385.58C254.721,-398.324 236.642,-416.38 223.958,-429.048"/>
</g>
<!-- 4&#45;&#45;28 -->
<g id="edge28" class="edge"><title>4&#45;&#45;28</title>
<path fill="none" stroke="black" stroke-width="1.5" stroke-dasharray="1,5" d="M295.336,-386.37C300.833,-393.411 307.272,-401.658 312.776,-408.707"/>
</g>
<!-- 5 -->
<g id="node33" class="node"><title>5</title>
<ellipse fill="none" stroke="black" cx="94.6897" cy="-273.589" rx="27" ry="18"/>
<text text-anchor="middle" x="94.6897" y="-269.489" font-family="Times Roman,serif" font-size="14.00">5</text>
</g>
<!-- 5&#45;&#45;27 -->
<g id="edge34" class="edge"><title>5&#45;&#45;27</title>
<path fill="none" stroke="blue" stroke-width="4.5" d="M118.368,-264.752C127.896,-261.196 138.864,-257.103 148.404,-253.543"/>
</g>
<!-- 9 -->
<g id="node35" class="node"><title>9</title>
<ellipse fill="none" stroke="black" cx="72.5657" cy="-356.211" rx="27" ry="18"/>
<text text-anchor="middle" x="72.5657" y="-352.111" font-family="Times Roman,serif" font-size="14.00">9</text>
</g>
<!-- 5&#45;&#45;9 -->
<g id="edge32" class="edge"><title>5&#45;&#45;9</title>
<path fill="none" stroke="black" stroke-width="3" stroke-dasharray="1,5" d="M89.8892,-291.517C86.1782,-305.375 81.0655,-324.469 77.3569,-338.318"/>
</g>
<!-- 9&#45;&#45;22 -->
<g id="edge50" class="edge"><title>9&#45;&#45;22</title>
<path fill="none" stroke="green" stroke-width="4.5" d="M99.2484,-352.98C104.208,-352.379 109.39,-351.751 114.35,-351.151"/>
</g>
<!-- 6 -->
<g id="node37" class="node"><title>6</title>
<ellipse fill="none" stroke="black" cx="28" cy="-213.754" rx="27" ry="18"/>
<text text-anchor="middle" x="28" y="-209.654" font-family="Times Roman,serif" font-size="14.00">6</text>
</g>
<!-- 6&#45;&#45;14 -->
<g id="edge36" class="edge"><title>6&#45;&#45;14</title>
<path fill="none" stroke="black" stroke-width="3" stroke-dasharray="1,5" d="M40.4978,-197.365C48.6151,-186.72 59.1515,-172.903 67.2458,-162.289"/>
</g>
<!-- 15 -->
<g id="node41" class="node"><title>15</title>
<ellipse fill="none" stroke="black" cx="53.5034" cy="-301.122" rx="27" ry="18"/>
<text text-anchor="middle" x="53.5034" y="-297.022" font-family="Times Roman,serif" font-size="14.00">15</text>
</g>
<!-- 6&#45;&#45;15 -->
<g id="edge38" class="edge"><title>6&#45;&#45;15</title>
<path fill="none" stroke="black" stroke-width="1.125" stroke-dasharray="1,5" d="M33.161,-231.434C37.5566,-246.492 43.8442,-268.032 48.2626,-283.168"/>
</g>
<!-- 15&#45;&#45;22 -->
<g id="edge68" class="edge"><title>15&#45;&#45;22</title>
<path fill="none" stroke="orange" stroke-width="4.5" d="M74.7015,-312.449C88.3683,-319.752 106.078,-329.215 119.766,-336.529"/>
</g>
<!-- 10&#45;&#45;17 -->
<g id="edge52" class="edge"><title>10&#45;&#45;17</title>
<path fill="none" stroke="red" stroke-width="4.5" d="M356.292,-288.18C353.469,-288.704 350.595,-289.237 347.772,-289.76"/>
</g>
<!-- 8 -->
<g id="node46" class="node"><title>8</title>
<ellipse fill="none" stroke="black" cx="391.662" cy="-353.538" rx="27" ry="18"/>
<text text-anchor="middle" x="391.662" y="-349.438" font-family="Times Roman,serif" font-size="14.00">8</text>
</g>
<!-- 8&#45;&#45;17 -->
<g id="edge48" class="edge"><title>8&#45;&#45;17</title>
<path fill="none" stroke="orange" stroke-width="0.818182" d="M374.736,-339.268C363.742,-330 349.472,-317.969 338.509,-308.727"/>
</g>
<!-- 24 -->
<g id="node48" class="node"><title>24</title>
<ellipse fill="none" stroke="black" cx="393.739" cy="-437.931" rx="27" ry="18"/>
<text text-anchor="middle" x="393.739" y="-433.831" font-family="Times Roman,serif" font-size="14.00">24</text>
</g>
<!-- 8&#45;&#45;24 -->
<g id="edge46" class="edge"><title>8&#45;&#45;24</title>
<path fill="none" stroke="black" stroke-width="9" stroke-dasharray="1,5" d="M392.113,-371.85C392.461,-386.006 392.941,-405.508 393.289,-419.655"/>
</g>
<!-- 24&#45;&#45;28 -->
<g id="edge84" class="edge"><title>24&#45;&#45;28</title>
<path fill="none" stroke="black" stroke-width="4.5" stroke-dasharray="1,5" d="M367.507,-432.913C362.236,-431.904 356.698,-430.845 351.433,-429.838"/>
</g>
<!-- 11 -->
<g id="node52" class="node"><title>11</title>
<ellipse fill="none" stroke="black" cx="227.662" cy="-166.105" rx="27" ry="18"/>
<text text-anchor="middle" x="227.662" y="-162.005" font-family="Times Roman,serif" font-size="14.00">11</text>
</g>
<!-- 11&#45;&#45;12 -->
<g id="edge56" class="edge"><title>11&#45;&#45;12</title>
<path fill="none" stroke="black" stroke-width="9" stroke-dasharray="1,5" d="M201.625,-161.219C197.749,-160.491 193.751,-159.741 189.87,-159.013"/>
</g>
<!-- 11&#45;&#45;16 -->
<g id="edge54" class="edge"><title>11&#45;&#45;16</title>
<path fill="none" stroke="black" stroke-width="2.25" stroke-dasharray="1,5" d="M251.82,-174.542C259.569,-177.249 268.152,-180.247 275.911,-182.957"/>
</g>
<!-- 20&#45;&#45;29 -->
<g id="edge76" class="edge"><title>20&#45;&#45;29</title>
<path fill="none" stroke="black" stroke-width="1.5" stroke-dasharray="1,5" d="M216.309,-106.132C230.211,-111.165 247.657,-117.48 261.545,-122.507"/>
</g>
<!-- 13 -->
<g id="node59" class="node"><title>13</title>
<ellipse fill="none" stroke="black" cx="131.841" cy="-432.216" rx="27" ry="18"/>
<text text-anchor="middle" x="131.841" y="-428.116" font-family="Times Roman,serif" font-size="14.00">13</text>
</g>
<!-- 13&#45;&#45;22 -->
<g id="edge66" class="edge"><title>13&#45;&#45;22</title>
<path fill="none" stroke="green" stroke-width="9" d="M133.844,-413.924C135.403,-399.687 137.555,-380.035 139.105,-365.881"/>
</g>
<!-- 13&#45;&#45;18 -->
<g id="edge64" class="edge"><title>13&#45;&#45;18</title>
<path fill="none" stroke="black" stroke-width="1.5" stroke-dasharray="1,5" d="M158.37,-436.292C166.209,-437.496 174.785,-438.814 182.611,-440.016"/>
</g>
<!-- 26&#45;&#45;29 -->
<g id="edge86" class="edge"><title>26&#45;&#45;29</title>
<path fill="none" stroke="black" stroke-width="1.28571" stroke-dasharray="1,5" d="M331.479,-189.855C321.55,-177.195 307.844,-159.72 297.973,-147.134"/>
</g>
<!-- 21 -->
<g id="node68" class="node"><title>21</title>
<ellipse fill="none" stroke="black" cx="316.487" cy="-477.046" rx="27" ry="18"/>
<text text-anchor="middle" x="316.487" y="-472.946" font-family="Times Roman,serif" font-size="14.00">21</text>
</g>
<!-- 21&#45;&#45;23 -->
<g id="edge80" class="edge"><title>21&#45;&#45;23</title>
<path fill="none" stroke="green" stroke-width="2.25" d="M303.32,-461.234C293.141,-449.011 279.118,-432.171 268.946,-419.956"/>
</g>
<!-- 21&#45;&#45;24 -->
<g id="edge78" class="edge"><title>21&#45;&#45;24</title>
<path fill="none" stroke="black" stroke-width="1.8" stroke-dasharray="1,5" d="M338.006,-466.15C348.631,-460.77 361.421,-454.294 372.067,-448.904"/>
</g>
</g>
</svg>
