<?xml version="1.0" encoding="UTF-8" standalone="no"?>
<!DOCTYPE svg PUBLIC "-//W3C//DTD SVG 1.1//EN"
 "http://www.w3.org/Graphics/SVG/1.1/DTD/svg11.dtd">
<!-- Generated by graphviz version 2.26.3 (20100126.1600)
 -->
<!-- Title: G Pages: 1 -->
<svg width="317pt" height="294pt"
 viewBox="0.00 0.00 316.97 294.16" xmlns="http://www.w3.org/2000/svg" xmlns:xlink="http://www.w3.org/1999/xlink">
<g id="graph1" class="graph" transform="scale(1 1) rotate(0) translate(4 290.158)">
<title>G</title>
<polygon fill="white" stroke="white" points="-4,5 -4,-290.158 313.968,-290.158 313.968,5 -4,5"/>
<!-- 0 -->
<g id="node1" class="node"><title>0</title>
<ellipse fill="none" stroke="black" cx="157.657" cy="-118.672" rx="27" ry="18"/>
<text text-anchor="middle" x="157.657" y="-114.572" font-family="Times Roman,serif" font-size="14.00">0</text>
</g>
<!-- 2 -->
<g id="node3" class="node"><title>2</title>
<ellipse fill="none" stroke="black" cx="250.939" cy="-160.268" rx="27" ry="18"/>
<text text-anchor="middle" x="250.939" y="-156.168" font-family="Times Roman,serif" font-size="14.00">2</text>
</g>
<!-- 0&#45;&#45;2 -->
<g id="edge2" class="edge"><title>0&#45;&#45;2</title>
<path fill="none" stroke="black" stroke-width="0.818182" stroke-dasharray="1,5" d="M180.238,-128.742C194.796,-135.233 213.661,-143.646 228.243,-150.148"/>
</g>
<!-- 7 -->
<g id="node5" class="node"><title>7</title>
<ellipse fill="none" stroke="black" cx="135.636" cy="-68.2139" rx="27" ry="18"/>
<text text-anchor="middle" x="135.636" y="-64.1139" font-family="Times Roman,serif" font-size="14.00">7</text>
</g>
<!-- 0&#45;&#45;7 -->
<g id="edge4" class="edge"><title>0&#45;&#45;7</title>
<path fill="none" stroke="black" stroke-width="3" stroke-dasharray="1,5" d="M150.079,-101.307C147.889,-96.2901 145.498,-90.8117 143.303,-85.7821"/>
</g>
<!-- 11 -->
<g id="node7" class="node"><title>11</title>
<ellipse fill="none" stroke="black" cx="118.854" cy="-137.408" rx="27" ry="18"/>
<text text-anchor="middle" x="118.854" y="-133.308" font-family="Times Roman,serif" font-size="14.00">11</text>
</g>
<!-- 0&#45;&#45;11 -->
<g id="edge6" class="edge"><title>0&#45;&#45;11</title>
<path fill="none" stroke="black" stroke-width="0.818182" stroke-dasharray="1,5" d="M135.535,-129.353C135.399,-129.419 135.263,-129.485 135.127,-129.55"/>
</g>
<!-- 12 -->
<g id="node9" class="node"><title>12</title>
<ellipse fill="none" stroke="black" cx="151.785" cy="-211.959" rx="27" ry="18"/>
<text text-anchor="middle" x="151.785" y="-207.859" font-family="Times Roman,serif" font-size="14.00">12</text>
</g>
<!-- 0&#45;&#45;12 -->
<g id="edge8" class="edge"><title>0&#45;&#45;12</title>
<path fill="none" stroke="black" stroke-width="0.9" stroke-dasharray="1,5" d="M156.525,-136.659C155.492,-153.072 153.972,-177.214 152.934,-193.709"/>
</g>
<!-- 14 -->
<g id="node11" class="node"><title>14</title>
<ellipse fill="none" stroke="black" cx="158.242" cy="-164.674" rx="27" ry="18"/>
<text text-anchor="middle" x="158.242" y="-160.574" font-family="Times Roman,serif" font-size="14.00">14</text>
</g>
<!-- 0&#45;&#45;14 -->
<g id="edge10" class="edge"><title>0&#45;&#45;14</title>
<path fill="none" stroke="black" stroke-width="0.6" stroke-dasharray="1,5" d="M157.888,-136.853C157.929,-140.068 157.971,-143.414 158.012,-146.625"/>
</g>
<!-- 17 -->
<g id="node13" class="node"><title>17</title>
<ellipse fill="none" stroke="black" cx="108.464" cy="-51.5515" rx="27" ry="18"/>
<text text-anchor="middle" x="108.464" y="-47.4515" font-family="Times Roman,serif" font-size="14.00">17</text>
</g>
<!-- 0&#45;&#45;17 -->
<g id="edge12" class="edge"><title>0&#45;&#45;17</title>
<path fill="none" stroke="black" stroke-width="4.5" stroke-dasharray="1,5" d="M145.749,-102.424C138.128,-92.0263 128.27,-78.5753 120.604,-68.1162"/>
</g>
<!-- 19 -->
<g id="node15" class="node"><title>19</title>
<ellipse fill="none" stroke="black" cx="240.386" cy="-124.638" rx="27" ry="18"/>
<text text-anchor="middle" x="240.386" y="-120.538" font-family="Times Roman,serif" font-size="14.00">19</text>
</g>
<!-- 0&#45;&#45;19 -->
<g id="edge14" class="edge"><title>0&#45;&#45;19</title>
<path fill="none" stroke="black" stroke-width="0.642857" stroke-dasharray="1,5" d="M184.745,-120.626C193.982,-121.292 204.3,-122.036 213.519,-122.701"/>
</g>
<!-- 22 -->
<g id="node17" class="node"><title>22</title>
<ellipse fill="none" stroke="black" cx="98.7438" cy="-174.895" rx="27" ry="18"/>
<text text-anchor="middle" x="98.7438" y="-170.795" font-family="Times Roman,serif" font-size="14.00">22</text>
</g>
<!-- 0&#45;&#45;22 -->
<g id="edge16" class="edge"><title>0&#45;&#45;22</title>
<path fill="none" stroke="black" stroke-width="9" stroke-dasharray="1,5" d="M142.178,-133.444C133.587,-141.643 122.931,-151.812 114.324,-160.026"/>
</g>
<!-- 23 -->
<g id="node19" class="node"><title>23</title>
<ellipse fill="none" stroke="black" cx="226.882" cy="-43.1849" rx="27" ry="18"/>
<text text-anchor="middle" x="226.882" y="-39.0849" font-family="Times Roman,serif" font-size="14.00">23</text>
</g>
<!-- 0&#45;&#45;23 -->
<g id="edge18" class="edge"><title>0&#45;&#45;23</title>
<path fill="none" stroke="black" stroke-width="1.8" stroke-dasharray="1,5" d="M172,-103.031C183.96,-89.9894 200.905,-71.5114 212.794,-58.5476"/>
</g>
<!-- 27 -->
<g id="node21" class="node"><title>27</title>
<ellipse fill="none" stroke="black" cx="92.2584" cy="-140.751" rx="27" ry="18"/>
<text text-anchor="middle" x="92.2584" y="-136.651" font-family="Times Roman,serif" font-size="14.00">27</text>
</g>
<!-- 0&#45;&#45;27 -->
<g id="edge20" class="edge"><title>0&#45;&#45;27</title>
<path fill="none" stroke="black" stroke-width="4.5" stroke-dasharray="1,5" d="M133.305,-126.893C127.785,-128.757 121.925,-130.735 116.413,-132.596"/>
</g>
<!-- 2&#45;&#45;14 -->
<g id="edge36" class="edge"><title>2&#45;&#45;14</title>
<path fill="none" stroke="black" stroke-width="0.5" stroke-dasharray="1,5" d="M223.628,-161.566C211.558,-162.14 197.404,-162.813 185.357,-163.385"/>
</g>
<!-- 25 -->
<g id="node24" class="node"><title>25</title>
<ellipse fill="none" stroke="black" cx="229.251" cy="-219.084" rx="27" ry="18"/>
<text text-anchor="middle" x="229.251" y="-214.984" font-family="Times Roman,serif" font-size="14.00">25</text>
</g>
<!-- 2&#45;&#45;25 -->
<g id="edge30" class="edge"><title>2&#45;&#45;25</title>
<path fill="none" stroke="black" stroke-width="4.5" stroke-dasharray="1,5" d="M244.432,-177.915C241.687,-185.359 238.498,-194.007 235.753,-201.45"/>
</g>
<!-- 3 -->
<g id="node31" class="node"><title>3</title>
<ellipse fill="none" stroke="black" cx="187.979" cy="-214.793" rx="27" ry="18"/>
<text text-anchor="middle" x="187.979" y="-210.693" font-family="Times Roman,serif" font-size="14.00">3</text>
</g>
<!-- 2&#45;&#45;3 -->
<g id="edge32" class="edge"><title>2&#45;&#45;3</title>
<path fill="none" stroke="black" stroke-width="1.28571" stroke-dasharray="1,5" d="M234.397,-174.594C225.215,-182.545 213.827,-192.408 204.629,-200.374"/>
</g>
<!-- 21 -->
<g id="node33" class="node"><title>21</title>
<ellipse fill="none" stroke="black" cx="252.778" cy="-48.4909" rx="27" ry="18"/>
<text text-anchor="middle" x="252.778" y="-44.3909" font-family="Times Roman,serif" font-size="14.00">21</text>
</g>
<!-- 2&#45;&#45;21 -->
<g id="edge34" class="edge"><title>2&#45;&#45;21</title>
<path fill="none" stroke="black" stroke-width="0.473684" stroke-dasharray="1,5" d="M251.243,-141.811C251.585,-120.976 252.14,-87.2974 252.48,-66.6052"/>
</g>
<!-- 7&#45;&#45;14 -->
<g id="edge74" class="edge"><title>7&#45;&#45;14</title>
<path fill="none" stroke="black" stroke-width="1.125" stroke-dasharray="1,5" d="M139.888,-86.3573C143.93,-103.603 149.974,-129.393 154.009,-146.612"/>
</g>
<!-- 7&#45;&#45;17 -->
<g id="edge78" class="edge"><title>7&#45;&#45;17</title>
<path fill="none" stroke="black" stroke-width="1.8" stroke-dasharray="1,5" d="M115.603,-55.9293C115.476,-55.8513 115.35,-55.7738 115.224,-55.697"/>
</g>
<!-- 7&#45;&#45;19 -->
<g id="edge80" class="edge"><title>7&#45;&#45;19</title>
<path fill="none" stroke="black" stroke-width="0.473684" stroke-dasharray="1,5" d="M156.834,-79.6323C175.007,-89.4217 201.055,-103.453 219.22,-113.237"/>
</g>
<!-- 16 -->
<g id="node36" class="node"><title>16</title>
<ellipse fill="none" stroke="black" cx="175.362" cy="-95.1654" rx="27" ry="18"/>
<text text-anchor="middle" x="175.362" y="-91.0654" font-family="Times Roman,serif" font-size="14.00">16</text>
</g>
<!-- 7&#45;&#45;16 -->
<g id="edge76" class="edge"><title>7&#45;&#45;16</title>
<path fill="none" stroke="black" stroke-width="4.5" stroke-dasharray="1,5" d="M154.568,-81.0582C155.048,-81.3836 155.528,-81.7095 156.008,-82.0351"/>
</g>
<!-- 10 -->
<g id="node53" class="node"><title>10</title>
<ellipse fill="none" stroke="black" cx="73.0607" cy="-119.046" rx="27" ry="18"/>
<text text-anchor="middle" x="73.0607" y="-114.946" font-family="Times Roman,serif" font-size="14.00">10</text>
</g>
<!-- 7&#45;&#45;10 -->
<g id="edge72" class="edge"><title>7&#45;&#45;10</title>
<path fill="none" stroke="black" stroke-width="1.125" stroke-dasharray="1,5" d="M118.205,-82.3733C109.526,-89.4237 99.0643,-97.9222 90.398,-104.962"/>
</g>
<!-- 11&#45;&#45;12 -->
<g id="edge106" class="edge"><title>11&#45;&#45;12</title>
<path fill="none" stroke="black" stroke-width="9" stroke-dasharray="1,5" d="M126.492,-154.699C131.774,-166.657 138.777,-182.51 144.075,-194.504"/>
</g>
<!-- 11&#45;&#45;14 -->
<g id="edge108" class="edge"><title>11&#45;&#45;14</title>
<path fill="none" stroke="black" stroke-dasharray="1,5" d="M137.625,-150.402C138.1,-150.731 138.577,-151.061 139.052,-151.39"/>
</g>
<!-- 11&#45;&#45;17 -->
<g id="edge112" class="edge"><title>11&#45;&#45;17</title>
<path fill="none" stroke="black" stroke-width="0.473684" stroke-dasharray="1,5" d="M116.65,-119.2C114.887,-104.63 112.427,-84.2963 110.664,-69.7331"/>
</g>
<!-- 11&#45;&#45;22 -->
<g id="edge114" class="edge"><title>11&#45;&#45;22</title>
<path fill="none" stroke="black" stroke-width="0.642857" stroke-dasharray="1,5" d="M109.74,-154.396C109.158,-155.481 108.572,-156.574 107.989,-157.66"/>
</g>
<!-- 11&#45;&#45;27 -->
<g id="edge116" class="edge"><title>11&#45;&#45;27</title>
<path fill="none" stroke="black" stroke-width="0.529412" stroke-dasharray="1,5" d="M92.3347,-140.741C92.3096,-140.744 92.2905,-140.747 92.2777,-140.748"/>
</g>
<!-- 11&#45;&#45;16 -->
<g id="edge110" class="edge"><title>11&#45;&#45;16</title>
<path fill="none" stroke="black" stroke-width="2.25" stroke-dasharray="1,5" d="M137.044,-123.809C143.497,-118.986 150.756,-113.56 157.206,-108.738"/>
</g>
<!-- 28 -->
<g id="node48" class="node"><title>28</title>
<ellipse fill="none" stroke="black" cx="212.793" cy="-107.253" rx="27" ry="18"/>
<text text-anchor="middle" x="212.793" y="-103.153" font-family="Times Roman,serif" font-size="14.00">28</text>
</g>
<!-- 11&#45;&#45;28 -->
<g id="edge118" class="edge"><title>11&#45;&#45;28</title>
<path fill="none" stroke="black" stroke-width="0.818182" stroke-dasharray="1,5" d="M143.535,-129.485C157.343,-125.053 174.495,-119.547 188.276,-115.123"/>
</g>
<!-- 12&#45;&#45;14 -->
<g id="edge120" class="edge"><title>12&#45;&#45;14</title>
<path fill="none" stroke="black" stroke-width="1.28571" stroke-dasharray="1,5" d="M154.263,-193.813C154.761,-190.167 155.284,-186.336 155.781,-182.694"/>
</g>
<!-- 12&#45;&#45;27 -->
<g id="edge126" class="edge"><title>12&#45;&#45;27</title>
<path fill="none" stroke="black" stroke-width="1.8" stroke-dasharray="1,5" d="M138.574,-196.156C128.71,-184.355 115.288,-168.3 105.432,-156.51"/>
</g>
<!-- 12&#45;&#45;25 -->
<g id="edge124" class="edge"><title>12&#45;&#45;25</title>
<path fill="none" stroke="black" stroke-width="0.9" stroke-dasharray="1,5" d="M178.879,-214.451C186.471,-215.15 194.72,-215.908 202.303,-216.606"/>
</g>
<!-- 20 -->
<g id="node75" class="node"><title>20</title>
<ellipse fill="none" stroke="black" cx="208.135" cy="-182.621" rx="27" ry="18"/>
<text text-anchor="middle" x="208.135" y="-178.521" font-family="Times Roman,serif" font-size="14.00">20</text>
</g>
<!-- 12&#45;&#45;20 -->
<g id="edge122" class="edge"><title>12&#45;&#45;20</title>
<path fill="none" stroke="black" stroke-width="9" stroke-dasharray="1,5" d="M173.089,-200.868C177.577,-198.531 182.312,-196.065 186.801,-193.728"/>
</g>
<!-- 14&#45;&#45;27 -->
<g id="edge138" class="edge"><title>14&#45;&#45;27</title>
<path fill="none" stroke="black" stroke-width="1.125" stroke-dasharray="1,5" d="M134.42,-156.037C128.514,-153.896 122.182,-151.6 116.267,-149.455"/>
</g>
<!-- 14&#45;&#45;28 -->
<g id="edge140" class="edge"><title>14&#45;&#45;28</title>
<path fill="none" stroke="black" stroke-width="0.818182" stroke-dasharray="1,5" d="M172.86,-149.286C180.687,-141.048 190.301,-130.928 198.134,-122.683"/>
</g>
<!-- 17&#45;&#45;27 -->
<g id="edge160" class="edge"><title>17&#45;&#45;27</title>
<path fill="none" stroke="black" stroke-width="0.9" stroke-dasharray="1,5" d="M105.185,-69.6023C102.373,-85.0779 98.3431,-107.259 95.533,-122.727"/>
</g>
<!-- 26 -->
<g id="node98" class="node"><title>26</title>
<ellipse fill="none" stroke="black" cx="209.03" cy="-74.7471" rx="27" ry="18"/>
<text text-anchor="middle" x="209.03" y="-70.6471" font-family="Times Roman,serif" font-size="14.00">26</text>
</g>
<!-- 17&#45;&#45;26 -->
<g id="edge158" class="edge"><title>17&#45;&#45;26</title>
<path fill="none" stroke="black" stroke-dasharray="1,5" d="M134.101,-57.4647C149.232,-60.9546 168.317,-65.3567 183.44,-68.8446"/>
</g>
<!-- 19&#45;&#45;23 -->
<g id="edge172" class="edge"><title>19&#45;&#45;23</title>
<path fill="none" stroke="black" stroke-dasharray="1,5" d="M237.389,-106.561C235.151,-93.0631 232.106,-74.6977 229.87,-61.2116"/>
</g>
<!-- 19&#45;&#45;28 -->
<g id="edge176" class="edge"><title>19&#45;&#45;28</title>
<path fill="none" stroke="black" stroke-width="0.5" stroke-dasharray="1,5" d="M220.626,-112.188C220.488,-112.101 220.35,-112.015 220.214,-111.929"/>
</g>
<!-- 19&#45;&#45;20 -->
<g id="edge170" class="edge"><title>19&#45;&#45;20</title>
<path fill="none" stroke="black" stroke-width="1.5" stroke-dasharray="1,5" d="M230.884,-141.722C226.722,-149.204 221.847,-157.968 217.68,-165.46"/>
</g>
<!-- 19&#45;&#45;26 -->
<g id="edge174" class="edge"><title>19&#45;&#45;26</title>
<path fill="none" stroke="black" stroke-width="0.818182" stroke-dasharray="1,5" d="M229.945,-108.025C226.595,-102.696 222.886,-96.7939 219.532,-91.4578"/>
</g>
<!-- 23&#45;&#45;28 -->
<g id="edge192" class="edge"><title>23&#45;&#45;28</title>
<path fill="none" stroke="black" stroke-width="1.8" stroke-dasharray="1,5" d="M222.957,-61.0314C221.036,-69.7695 218.726,-80.2726 216.794,-89.057"/>
</g>
<!-- 24 -->
<g id="node72" class="node"><title>24</title>
<ellipse fill="none" stroke="black" cx="264.727" cy="-91.6891" rx="27" ry="18"/>
<text text-anchor="middle" x="264.727" y="-87.5891" font-family="Times Roman,serif" font-size="14.00">24</text>
</g>
<!-- 23&#45;&#45;24 -->
<g id="edge190" class="edge"><title>23&#45;&#45;24</title>
<path fill="none" stroke="black" stroke-width="0.473684" stroke-dasharray="1,5" d="M239.484,-59.3361C243.526,-64.5171 248.004,-70.2553 252.051,-75.443"/>
</g>
<!-- 1 -->
<g id="node22" class="node"><title>1</title>
<ellipse fill="none" stroke="black" cx="270.467" cy="-210.326" rx="27" ry="18"/>
<text text-anchor="middle" x="270.467" y="-206.226" font-family="Times Roman,serif" font-size="14.00">1</text>
</g>
<!-- 1&#45;&#45;12 -->
<g id="edge26" class="edge"><title>1&#45;&#45;12</title>
<path fill="none" stroke="black" stroke-width="2.25" stroke-dasharray="1,5" d="M243.239,-210.7C223.94,-210.966 198.157,-211.321 178.887,-211.586"/>
</g>
<!-- 1&#45;&#45;19 -->
<g id="edge24" class="edge"><title>1&#45;&#45;19</title>
<path fill="none" stroke="black" stroke-dasharray="1,5" d="M264.234,-192.571C259.071,-177.865 251.771,-157.07 246.611,-142.37"/>
</g>
<!-- 1&#45;&#45;25 -->
<g id="edge22" class="edge"><title>1&#45;&#45;25</title>
<path fill="none" stroke="black" stroke-width="0.9" stroke-dasharray="1,5" d="M244.598,-215.823C244.469,-215.85 244.34,-215.878 244.211,-215.905"/>
</g>
<!-- 29 -->
<g id="node28" class="node"><title>29</title>
<ellipse fill="none" stroke="black" cx="280.968" cy="-136.424" rx="27" ry="18"/>
<text text-anchor="middle" x="280.968" y="-132.324" font-family="Times Roman,serif" font-size="14.00">29</text>
</g>
<!-- 1&#45;&#45;29 -->
<g id="edge28" class="edge"><title>1&#45;&#45;29</title>
<path fill="none" stroke="black" stroke-width="1.28571" stroke-dasharray="1,5" d="M273.063,-192.058C274.69,-180.603 276.78,-165.897 278.402,-154.482"/>
</g>
<!-- 25&#45;&#45;28 -->
<g id="edge196" class="edge"><title>25&#45;&#45;28</title>
<path fill="none" stroke="black" stroke-width="0.9" stroke-dasharray="1,5" d="M226.607,-201.117C223.535,-180.248 218.499,-146.026 215.43,-125.176"/>
</g>
<!-- 3&#45;&#45;22 -->
<g id="edge42" class="edge"><title>3&#45;&#45;22</title>
<path fill="none" stroke="black" stroke-width="0.473684" stroke-dasharray="1,5" d="M165.461,-204.725C151.934,-198.677 134.78,-191.007 121.254,-184.96"/>
</g>
<!-- 3&#45;&#45;16 -->
<g id="edge38" class="edge"><title>3&#45;&#45;16</title>
<path fill="none" stroke="black" stroke-width="1.125" stroke-dasharray="1,5" d="M186.062,-196.624C183.691,-174.14 179.676,-136.069 177.296,-113.505"/>
</g>
<!-- 18 -->
<g id="node38" class="node"><title>18</title>
<ellipse fill="none" stroke="black" cx="175.654" cy="-138.228" rx="27" ry="18"/>
<text text-anchor="middle" x="175.654" y="-134.128" font-family="Times Roman,serif" font-size="14.00">18</text>
</g>
<!-- 3&#45;&#45;18 -->
<g id="edge40" class="edge"><title>3&#45;&#45;18</title>
<path fill="none" stroke="black" stroke-width="0.5" stroke-dasharray="1,5" d="M185.058,-196.648C183.093,-184.443 180.514,-168.421 178.554,-156.243"/>
</g>
<!-- 21&#45;&#45;23 -->
<g id="edge184" class="edge"><title>21&#45;&#45;23</title>
<path fill="none" stroke="black" stroke-width="2.25" stroke-dasharray="1,5" d="M226.956,-43.2002C226.932,-43.1951 226.913,-43.1913 226.901,-43.1888"/>
</g>
<!-- 21&#45;&#45;24 -->
<g id="edge186" class="edge"><title>21&#45;&#45;24</title>
<path fill="none" stroke="black" stroke-width="1.8" stroke-dasharray="1,5" d="M257.707,-66.3106C258.402,-68.8207 259.115,-71.401 259.81,-73.9102"/>
</g>
<!-- 21&#45;&#45;26 -->
<g id="edge188" class="edge"><title>21&#45;&#45;26</title>
<path fill="none" stroke="black" stroke-width="0.75" stroke-dasharray="1,5" d="M232.697,-60.5431C231.529,-61.2442 230.354,-61.9493 229.186,-62.6505"/>
</g>
<!-- 16&#45;&#45;27 -->
<g id="edge152" class="edge"><title>16&#45;&#45;27</title>
<path fill="none" stroke="black" stroke-width="0.5625" stroke-dasharray="1,5" d="M154.392,-106.669C141.794,-113.579 125.819,-122.342 113.222,-129.251"/>
</g>
<!-- 16&#45;&#45;29 -->
<g id="edge156" class="edge"><title>16&#45;&#45;29</title>
<path fill="none" stroke="black" stroke-width="1.5" stroke-dasharray="1,5" d="M198.799,-104.322C216.3,-111.159 240.111,-120.462 257.596,-127.293"/>
</g>
<!-- 16&#45;&#45;18 -->
<g id="edge150" class="edge"><title>16&#45;&#45;18</title>
<path fill="none" stroke="black" stroke-width="0.692308" stroke-dasharray="1,5" d="M175.484,-113.178C175.5,-115.483 175.516,-117.843 175.531,-120.149"/>
</g>
<!-- 16&#45;&#45;28 -->
<g id="edge154" class="edge"><title>16&#45;&#45;28</title>
<path fill="none" stroke="black" stroke-width="1.125" stroke-dasharray="1,5" d="M199.701,-103.025C199.813,-103.061 199.924,-103.097 200.035,-103.133"/>
</g>
<!-- 18&#45;&#45;19 -->
<g id="edge162" class="edge"><title>18&#45;&#45;19</title>
<path fill="none" stroke="black" stroke-width="0.6" stroke-dasharray="1,5" d="M201.61,-132.779C205.831,-131.893 210.203,-130.975 214.424,-130.089"/>
</g>
<!-- 18&#45;&#45;22 -->
<g id="edge166" class="edge"><title>18&#45;&#45;22</title>
<path fill="none" stroke="black" stroke-width="0.473684" stroke-dasharray="1,5" d="M153.408,-148.834C143.205,-153.698 131.137,-159.451 120.939,-164.313"/>
</g>
<!-- 18&#45;&#45;28 -->
<g id="edge168" class="edge"><title>18&#45;&#45;28</title>
<path fill="none" stroke="black" stroke-width="0.5625" stroke-dasharray="1,5" d="M192.919,-123.829C193.828,-123.07 194.741,-122.309 195.65,-121.55"/>
</g>
<!-- 18&#45;&#45;20 -->
<g id="edge164" class="edge"><title>18&#45;&#45;20</title>
<path fill="none" stroke="black" stroke-width="0.473684" stroke-dasharray="1,5" d="M187.564,-154.506C190.389,-158.367 193.402,-162.485 196.226,-166.345"/>
</g>
<!-- 4 -->
<g id="node40" class="node"><title>4</title>
<ellipse fill="none" stroke="black" cx="171.246" cy="-29.2446" rx="27" ry="18"/>
<text text-anchor="middle" x="171.246" y="-25.1446" font-family="Times Roman,serif" font-size="14.00">4</text>
</g>
<!-- 4&#45;&#45;7 -->
<g id="edge44" class="edge"><title>4&#45;&#45;7</title>
<path fill="none" stroke="black" stroke-width="9" stroke-dasharray="1,5" d="M157.172,-44.6463C154.762,-47.2844 152.255,-50.027 149.841,-52.6687"/>
</g>
<!-- 4&#45;&#45;17 -->
<g id="edge48" class="edge"><title>4&#45;&#45;17</title>
<path fill="none" stroke="black" stroke-dasharray="1,5" d="M147.153,-37.8052C142.311,-39.5253 137.225,-41.3325 132.39,-43.0506"/>
</g>
<!-- 4&#45;&#45;23 -->
<g id="edge54" class="edge"><title>4&#45;&#45;23</title>
<path fill="none" stroke="black" stroke-width="0.5" stroke-dasharray="1,5" d="M196.784,-35.6436C198.384,-36.0444 199.994,-36.4478 201.592,-36.8483"/>
</g>
<!-- 4&#45;&#45;21 -->
<g id="edge52" class="edge"><title>4&#45;&#45;21</title>
<path fill="none" stroke="black" stroke-width="0.6" stroke-dasharray="1,5" d="M197.044,-35.3343C206.654,-37.6029 217.553,-40.1758 227.149,-42.4408"/>
</g>
<!-- 4&#45;&#45;16 -->
<g id="edge46" class="edge"><title>4&#45;&#45;16</title>
<path fill="none" stroke="black" stroke-width="0.5" stroke-dasharray="1,5" d="M172.371,-47.2578C172.952,-56.5593 173.658,-67.8757 174.239,-77.1741"/>
</g>
<!-- 4&#45;&#45;18 -->
<g id="edge50" class="edge"><title>4&#45;&#45;18</title>
<path fill="none" stroke="black" stroke-width="0.9" stroke-dasharray="1,5" d="M171.974,-47.241C172.791,-67.4339 174.108,-100.001 174.925,-120.205"/>
</g>
<!-- 4&#45;&#45;28 -->
<g id="edge56" class="edge"><title>4&#45;&#45;28</title>
<path fill="none" stroke="black" stroke-width="1.5" stroke-dasharray="1,5" d="M180.467,-46.5572C187.4,-59.5743 196.849,-77.3176 203.741,-90.2571"/>
</g>
<!-- 5 -->
<g id="node49" class="node"><title>5</title>
<ellipse fill="none" stroke="black" cx="28" cy="-169.879" rx="27" ry="18"/>
<text text-anchor="middle" x="28" y="-165.779" font-family="Times Roman,serif" font-size="14.00">5</text>
</g>
<!-- 5&#45;&#45;22 -->
<g id="edge64" class="edge"><title>5&#45;&#45;22</title>
<path fill="none" stroke="black" stroke-width="0.473684" stroke-dasharray="1,5" d="M55.1491,-171.804C60.6042,-172.191 66.3355,-172.597 71.7842,-172.983"/>
</g>
<!-- 5&#45;&#45;27 -->
<g id="edge62" class="edge"><title>5&#45;&#45;27</title>
<path fill="none" stroke="black" stroke-width="4.5" stroke-dasharray="1,5" d="M50.4745,-159.691C56.6995,-156.87 63.4576,-153.806 69.688,-150.982"/>
</g>
<!-- 9 -->
<g id="node51" class="node"><title>9</title>
<ellipse fill="none" stroke="black" cx="85.9681" cy="-220.515" rx="27" ry="18"/>
<text text-anchor="middle" x="85.9681" y="-216.415" font-family="Times Roman,serif" font-size="14.00">9</text>
</g>
<!-- 5&#45;&#45;9 -->
<g id="edge58" class="edge"><title>5&#45;&#45;9</title>
<path fill="none" stroke="black" stroke-width="3" stroke-dasharray="1,5" d="M44.4563,-184.254C52.2219,-191.037 61.4732,-199.118 69.2694,-205.928"/>
</g>
<!-- 5&#45;&#45;10 -->
<g id="edge60" class="edge"><title>5&#45;&#45;10</title>
<path fill="none" stroke="black" stroke-width="0.473684" stroke-dasharray="1,5" d="M41.7645,-154.351C47.2515,-148.161 53.5602,-141.044 59.0695,-134.829"/>
</g>
<!-- 9&#45;&#45;11 -->
<g id="edge92" class="edge"><title>9&#45;&#45;11</title>
<path fill="none" stroke="black" stroke-width="0.5625" stroke-dasharray="1,5" d="M92.9423,-202.89C98.5231,-188.786 106.311,-169.104 111.89,-155.007"/>
</g>
<!-- 9&#45;&#45;22 -->
<g id="edge96" class="edge"><title>9&#45;&#45;22</title>
<path fill="none" stroke="black" stroke-width="4.5" stroke-dasharray="1,5" d="M90.9441,-202.746C91.8689,-199.444 92.8353,-195.993 93.7604,-192.69"/>
</g>
<!-- 9&#45;&#45;20 -->
<g id="edge94" class="edge"><title>9&#45;&#45;20</title>
<path fill="none" stroke="black" stroke-width="1.28571" stroke-dasharray="1,5" d="M110.69,-212.846C131.886,-206.272 162.265,-196.849 183.449,-190.278"/>
</g>
<!-- 10&#45;&#45;12 -->
<g id="edge98" class="edge"><title>10&#45;&#45;12</title>
<path fill="none" stroke="black" stroke-width="0.5625" stroke-dasharray="1,5" d="M86.4153,-134.807C100.892,-151.893 123.863,-179.004 138.365,-196.12"/>
</g>
<!-- 10&#45;&#45;17 -->
<g id="edge104" class="edge"><title>10&#45;&#45;17</title>
<path fill="none" stroke="black" stroke-width="4.5" stroke-dasharray="1,5" d="M81.9944,-102.014C87.3203,-91.8605 94.0629,-79.0062 99.4099,-68.8124"/>
</g>
<!-- 15 -->
<g id="node60" class="node"><title>15</title>
<ellipse fill="none" stroke="black" cx="146.937" cy="-193.82" rx="27" ry="18"/>
<text text-anchor="middle" x="146.937" y="-189.72" font-family="Times Roman,serif" font-size="14.00">15</text>
</g>
<!-- 10&#45;&#45;15 -->
<g id="edge102" class="edge"><title>10&#45;&#45;15</title>
<path fill="none" stroke="black" stroke-width="1.125" stroke-dasharray="1,5" d="M88.0107,-134.177C100.828,-147.15 119.198,-165.744 132.009,-178.711"/>
</g>
<!-- 13 -->
<g id="node79" class="node"><title>13</title>
<ellipse fill="none" stroke="black" cx="125.33" cy="-86.7153" rx="27" ry="18"/>
<text text-anchor="middle" x="125.33" y="-82.6153" font-family="Times Roman,serif" font-size="14.00">13</text>
</g>
<!-- 10&#45;&#45;13 -->
<g id="edge100" class="edge"><title>10&#45;&#45;13</title>
<path fill="none" stroke="black" stroke-width="0.692308" stroke-dasharray="1,5" d="M93.12,-106.638C97.1505,-104.145 101.385,-101.526 105.411,-99.036"/>
</g>
<!-- 6 -->
<g id="node56" class="node"><title>6</title>
<ellipse fill="none" stroke="black" cx="149.254" cy="-267.158" rx="27" ry="18"/>
<text text-anchor="middle" x="149.254" y="-263.058" font-family="Times Roman,serif" font-size="14.00">6</text>
</g>
<!-- 6&#45;&#45;12 -->
<g id="edge66" class="edge"><title>6&#45;&#45;12</title>
<path fill="none" stroke="black" stroke-width="0.6" stroke-dasharray="1,5" d="M150.083,-249.084C150.36,-243.047 150.668,-236.317 150.946,-230.263"/>
</g>
<!-- 6&#45;&#45;14 -->
<g id="edge68" class="edge"><title>6&#45;&#45;14</title>
<path fill="none" stroke="black" stroke-width="3" stroke-dasharray="1,5" d="M150.861,-248.836C152.497,-230.182 155.018,-201.434 156.649,-182.838"/>
</g>
<!-- 6&#45;&#45;15 -->
<g id="edge70" class="edge"><title>6&#45;&#45;15</title>
<path fill="none" stroke="black" stroke-width="1.125" stroke-dasharray="1,5" d="M148.681,-249.03C148.325,-237.747 147.868,-223.286 147.511,-211.994"/>
</g>
<!-- 15&#45;&#45;22 -->
<g id="edge142" class="edge"><title>15&#45;&#45;22</title>
<path fill="none" stroke="black" stroke-width="4.5" stroke-dasharray="1,5" d="M123.405,-184.579C123.023,-184.429 122.64,-184.279 122.258,-184.129"/>
</g>
<!-- 15&#45;&#45;27 -->
<g id="edge148" class="edge"><title>15&#45;&#45;27</title>
<path fill="none" stroke="black" stroke-width="0.6" stroke-dasharray="1,5" d="M131.414,-178.755C123.963,-171.523 115.062,-162.883 107.63,-155.67"/>
</g>
<!-- 15&#45;&#45;25 -->
<g id="edge146" class="edge"><title>15&#45;&#45;25</title>
<path fill="none" stroke="black" stroke-width="0.6" stroke-dasharray="1,5" d="M171.634,-201.4C182.052,-204.598 194.155,-208.313 204.571,-211.51"/>
</g>
<!-- 15&#45;&#45;24 -->
<g id="edge144" class="edge"><title>15&#45;&#45;24</title>
<path fill="none" stroke="black" stroke-width="0.75" stroke-dasharray="1,5" d="M163.564,-179.404C186.013,-159.939 225.78,-125.459 248.185,-106.032"/>
</g>
<!-- 8 -->
<g id="node66" class="node"><title>8</title>
<ellipse fill="none" stroke="black" cx="199.601" cy="-19" rx="27" ry="18"/>
<text text-anchor="middle" x="199.601" y="-14.9" font-family="Times Roman,serif" font-size="14.00">8</text>
</g>
<!-- 8&#45;&#45;17 -->
<g id="edge84" class="edge"><title>8&#45;&#45;17</title>
<path fill="none" stroke="black" stroke-width="0.818182" stroke-dasharray="1,5" d="M175.656,-27.5525C162.365,-32.2994 145.881,-38.1873 132.566,-42.9431"/>
</g>
<!-- 8&#45;&#45;21 -->
<g id="edge88" class="edge"><title>8&#45;&#45;21</title>
<path fill="none" stroke="black" stroke-width="0.6" stroke-dasharray="1,5" d="M220.618,-30.6556C224.334,-32.7164 228.202,-34.8615 231.914,-36.9199"/>
</g>
<!-- 8&#45;&#45;16 -->
<g id="edge82" class="edge"><title>8&#45;&#45;16</title>
<path fill="none" stroke="black" stroke-width="0.692308" stroke-dasharray="1,5" d="M193.979,-36.6653C190.091,-48.8821 184.937,-65.079 181.037,-77.3321"/>
</g>
<!-- 8&#45;&#45;28 -->
<g id="edge86" class="edge"><title>8&#45;&#45;28</title>
<path fill="none" stroke="black" stroke-width="0.5" stroke-dasharray="1,5" d="M202.334,-37.2861C204.613,-52.5334 207.842,-74.1362 210.108,-89.2922"/>
</g>
<!-- 8&#45;&#45;24 -->
<g id="edge90" class="edge"><title>8&#45;&#45;24</title>
<path fill="none" stroke="black" stroke-width="9" stroke-dasharray="1,5" d="M213.732,-34.7724C224.656,-46.9648 239.706,-63.7628 250.623,-75.9474"/>
</g>
<!-- 24&#45;&#45;28 -->
<g id="edge194" class="edge"><title>24&#45;&#45;28</title>
<path fill="none" stroke="black" stroke-width="4.5" stroke-dasharray="1,5" d="M239.977,-99.1063C239.141,-99.3569 238.303,-99.6079 237.467,-99.8584"/>
</g>
<!-- 20&#45;&#45;25 -->
<g id="edge178" class="edge"><title>20&#45;&#45;25</title>
<path fill="none" stroke="black" stroke-width="0.529412" stroke-dasharray="1,5" d="M217.951,-199.572C218.468,-200.464 218.987,-201.361 219.504,-202.254"/>
</g>
<!-- 20&#45;&#45;29 -->
<g id="edge182" class="edge"><title>20&#45;&#45;29</title>
<path fill="none" stroke="black" stroke-width="1.5" stroke-dasharray="1,5" d="M228.037,-169.997C238.398,-163.426 251.022,-155.418 261.342,-148.872"/>
</g>
<!-- 20&#45;&#45;26 -->
<g id="edge180" class="edge"><title>20&#45;&#45;26</title>
<path fill="none" stroke="black" stroke-width="0.818182" stroke-dasharray="1,5" d="M208.287,-164.322C208.452,-144.365 208.716,-112.626 208.88,-92.7762"/>
</g>
<!-- 13&#45;&#45;14 -->
<g id="edge128" class="edge"><title>13&#45;&#45;14</title>
<path fill="none" stroke="black" stroke-width="0.5" stroke-dasharray="1,5" d="M132.798,-104.405C138.222,-117.254 145.526,-134.554 150.916,-147.323"/>
</g>
<!-- 13&#45;&#45;22 -->
<g id="edge134" class="edge"><title>13&#45;&#45;22</title>
<path fill="none" stroke="black" stroke-width="9" stroke-dasharray="1,5" d="M119.95,-104.56C115.337,-119.859 108.726,-141.786 104.116,-157.077"/>
</g>
<!-- 13&#45;&#45;21 -->
<g id="edge132" class="edge"><title>13&#45;&#45;21</title>
<path fill="none" stroke="black" stroke-width="0.5" stroke-dasharray="1,5" d="M150.206,-79.2545C172.663,-72.5193 205.528,-62.6623 227.965,-55.9328"/>
</g>
<!-- 13&#45;&#45;18 -->
<g id="edge130" class="edge"><title>13&#45;&#45;18</title>
<path fill="none" stroke="black" stroke-width="1.5" stroke-dasharray="1,5" d="M140.157,-101.892C146.651,-108.54 154.257,-116.326 160.759,-122.982"/>
</g>
<!-- 13&#45;&#45;26 -->
<g id="edge136" class="edge"><title>13&#45;&#45;26</title>
<path fill="none" stroke="black" stroke-width="0.9" stroke-dasharray="1,5" d="M151.813,-82.9285C161.584,-81.5315 172.652,-79.9489 182.432,-78.5504"/>
</g>
<!-- 26&#45;&#45;29 -->
<g id="edge198" class="edge"><title>26&#45;&#45;29</title>
<path fill="none" stroke="black" stroke-width="1.28571" stroke-dasharray="1,5" d="M225.715,-89.052C237.337,-99.016 252.772,-112.25 264.374,-122.197"/>
</g>
</g>
</svg>
