<?xml version="1.0" encoding="UTF-8" standalone="no"?>
<!DOCTYPE svg PUBLIC "-//W3C//DTD SVG 1.1//EN"
 "http://www.w3.org/Graphics/SVG/1.1/DTD/svg11.dtd">
<!-- Generated by graphviz version 2.26.3 (20100126.1600)
 -->
<!-- Title: G Pages: 1 -->
<svg width="497pt" height="420pt"
 viewBox="0.00 0.00 497.00 420.00" xmlns="http://www.w3.org/2000/svg" xmlns:xlink="http://www.w3.org/1999/xlink">
<g id="graph1" class="graph" transform="scale(1 1) rotate(0) translate(4 416)">
<title>G</title>
<polygon fill="white" stroke="white" points="-4,5 -4,-416 494,-416 494,5 -4,5"/>
<!-- 0 -->
<g id="node1" class="node"><title>0</title>
<ellipse fill="none" stroke="black" cx="152.86" cy="-304.002" rx="27" ry="18"/>
<text text-anchor="middle" x="152.86" y="-299.902" font-family="Times Roman,serif" font-size="14.00">0</text>
</g>
<!-- 2 -->
<g id="node3" class="node"><title>2</title>
<ellipse fill="none" stroke="black" cx="156.736" cy="-245.807" rx="27" ry="18"/>
<text text-anchor="middle" x="156.736" y="-241.707" font-family="Times Roman,serif" font-size="14.00">2</text>
</g>
<!-- 0&#45;&#45;2 -->
<g id="edge2" class="edge"><title>0&#45;&#45;2</title>
<path fill="none" stroke="black" stroke-width="3" stroke-dasharray="1,5" d="M154.065,-285.908C154.527,-278.968 155.055,-271.048 155.518,-264.091"/>
</g>
<!-- 10 -->
<g id="node5" class="node"><title>10</title>
<ellipse fill="none" stroke="black" cx="61.0992" cy="-260.797" rx="27" ry="18"/>
<text text-anchor="middle" x="61.0992" y="-256.697" font-family="Times Roman,serif" font-size="14.00">10</text>
</g>
<!-- 0&#45;&#45;10 -->
<g id="edge4" class="edge"><title>0&#45;&#45;10</title>
<path fill="none" stroke="black" stroke-width="6" stroke-dasharray="1,5" d="M130.647,-293.544C116.326,-286.801 97.7687,-278.063 83.4254,-271.31"/>
</g>
<!-- 11 -->
<g id="node7" class="node"><title>11</title>
<ellipse fill="none" stroke="black" cx="314.33" cy="-106.26" rx="27" ry="18"/>
<text text-anchor="middle" x="314.33" y="-102.16" font-family="Times Roman,serif" font-size="14.00">11</text>
</g>
<!-- 0&#45;&#45;11 -->
<g id="edge6" class="edge"><title>0&#45;&#45;11</title>
<path fill="none" stroke="black" stroke-width="2" stroke-dasharray="1,5" d="M165.801,-288.155C196.035,-251.129 271.033,-159.283 301.327,-122.183"/>
</g>
<!-- 13 -->
<g id="node9" class="node"><title>13</title>
<ellipse fill="none" stroke="black" cx="347.521" cy="-250.393" rx="27" ry="18"/>
<text text-anchor="middle" x="347.521" y="-246.293" font-family="Times Roman,serif" font-size="14.00">13</text>
</g>
<!-- 0&#45;&#45;13 -->
<g id="edge8" class="edge"><title>0&#45;&#45;13</title>
<path fill="none" stroke="black" stroke-width="1.5" stroke-dasharray="1,5" d="M177.91,-297.104C215.185,-286.838 284.861,-267.649 322.259,-257.35"/>
</g>
<!-- 16 -->
<g id="node11" class="node"><title>16</title>
<ellipse fill="none" stroke="black" cx="287.674" cy="-392.794" rx="27" ry="18"/>
<text text-anchor="middle" x="287.674" y="-388.694" font-family="Times Roman,serif" font-size="14.00">16</text>
</g>
<!-- 0&#45;&#45;16 -->
<g id="edge10" class="edge"><title>0&#45;&#45;16</title>
<path fill="none" stroke="black" stroke-width="6" stroke-dasharray="1,5" d="M172.175,-316.724C197.804,-333.604 242.784,-363.229 268.394,-380.096"/>
</g>
<!-- 17 -->
<g id="node13" class="node"><title>17</title>
<ellipse fill="none" stroke="black" cx="361.536" cy="-324.551" rx="27" ry="18"/>
<text text-anchor="middle" x="361.536" y="-320.451" font-family="Times Roman,serif" font-size="14.00">17</text>
</g>
<!-- 0&#45;&#45;17 -->
<g id="edge12" class="edge"><title>0&#45;&#45;17</title>
<path fill="none" stroke="black" stroke-width="0.545455" stroke-dasharray="1,5" d="M179.713,-306.647C219.782,-310.592 294.777,-317.977 334.785,-321.917"/>
</g>
<!-- 21 -->
<g id="node15" class="node"><title>21</title>
<ellipse fill="none" stroke="black" cx="215.596" cy="-21.0936" rx="27" ry="18"/>
<text text-anchor="middle" x="215.596" y="-16.9936" font-family="Times Roman,serif" font-size="14.00">21</text>
</g>
<!-- 0&#45;&#45;21 -->
<g id="edge14" class="edge"><title>0&#45;&#45;21</title>
<path fill="none" stroke="black" stroke-width="0.315789" stroke-dasharray="1,5" d="M156.88,-285.875C168.211,-234.776 200.32,-89.9843 211.61,-39.0703"/>
</g>
<!-- 24 -->
<g id="node17" class="node"><title>24</title>
<ellipse fill="none" stroke="black" cx="241.469" cy="-126.511" rx="27" ry="18"/>
<text text-anchor="middle" x="241.469" y="-122.411" font-family="Times Roman,serif" font-size="14.00">24</text>
</g>
<!-- 0&#45;&#45;24 -->
<g id="edge16" class="edge"><title>0&#45;&#45;24</title>
<path fill="none" stroke="black" stroke-width="2" stroke-dasharray="1,5" d="M161.518,-286.661C178.501,-252.641 216,-177.527 232.907,-143.662"/>
</g>
<!-- 2&#45;&#45;10 -->
<g id="edge52" class="edge"><title>2&#45;&#45;10</title>
<path fill="none" stroke="black" stroke-width="0.6" stroke-dasharray="1,5" d="M130.35,-249.943C116.97,-252.04 100.767,-254.58 87.3994,-256.675"/>
</g>
<!-- 2&#45;&#45;13 -->
<g id="edge56" class="edge"><title>2&#45;&#45;13</title>
<path fill="none" stroke="black" stroke-width="0.666667" stroke-dasharray="1,5" d="M184.071,-246.464C220.339,-247.336 283.994,-248.866 320.237,-249.737"/>
</g>
<!-- 2&#45;&#45;16 -->
<g id="edge62" class="edge"><title>2&#45;&#45;16</title>
<path fill="none" stroke="black" stroke-width="0.545455" stroke-dasharray="1,5" d="M170.749,-261.537C195.95,-289.828 248.633,-348.969 273.762,-377.177"/>
</g>
<!-- 2&#45;&#45;17 -->
<g id="edge64" class="edge"><title>2&#45;&#45;17</title>
<path fill="none" stroke="black" stroke-width="0.857143" stroke-dasharray="1,5" d="M180.229,-254.84C219.629,-269.989 298.575,-300.343 338.002,-315.502"/>
</g>
<!-- 2&#45;&#45;24 -->
<g id="edge72" class="edge"><title>2&#45;&#45;24</title>
<path fill="none" stroke="black" stroke-width="0.461538" stroke-dasharray="1,5" d="M168.518,-229.219C184.706,-206.427 213.652,-165.675 229.787,-142.957"/>
</g>
<!-- 3 -->
<g id="node21" class="node"><title>3</title>
<ellipse fill="none" stroke="black" cx="283.266" cy="-43.7647" rx="27" ry="18"/>
<text text-anchor="middle" x="283.266" y="-39.6647" font-family="Times Roman,serif" font-size="14.00">3</text>
</g>
<!-- 2&#45;&#45;3 -->
<g id="edge44" class="edge"><title>2&#45;&#45;3</title>
<path fill="none" stroke="black" stroke-width="0.6" stroke-dasharray="1,5" d="M167.306,-228.929C191.183,-190.802 249.051,-98.3982 272.815,-60.4531"/>
</g>
<!-- 5 -->
<g id="node23" class="node"><title>5</title>
<ellipse fill="none" stroke="black" cx="108.846" cy="-64.4403" rx="27" ry="18"/>
<text text-anchor="middle" x="108.846" y="-60.3403" font-family="Times Roman,serif" font-size="14.00">5</text>
</g>
<!-- 2&#45;&#45;5 -->
<g id="edge46" class="edge"><title>2&#45;&#45;5</title>
<path fill="none" stroke="black" stroke-width="0.375" stroke-dasharray="1,5" d="M151.969,-227.754C142.79,-192.99 122.758,-117.127 113.594,-82.4205"/>
</g>
<!-- 9 -->
<g id="node27" class="node"><title>9</title>
<ellipse fill="none" stroke="black" cx="234.14" cy="-235.732" rx="27" ry="18"/>
<text text-anchor="middle" x="234.14" y="-231.632" font-family="Times Roman,serif" font-size="14.00">9</text>
</g>
<!-- 2&#45;&#45;9 -->
<g id="edge50" class="edge"><title>2&#45;&#45;9</title>
<path fill="none" stroke="black" stroke-width="0.461538" stroke-dasharray="1,5" d="M183.374,-242.34C191.158,-241.327 199.666,-240.219 207.453,-239.206"/>
</g>
<!-- 12 -->
<g id="node31" class="node"><title>12</title>
<ellipse fill="none" stroke="black" cx="353.68" cy="-181.198" rx="27" ry="18"/>
<text text-anchor="middle" x="353.68" y="-177.098" font-family="Times Roman,serif" font-size="14.00">12</text>
</g>
<!-- 2&#45;&#45;12 -->
<g id="edge54" class="edge"><title>2&#45;&#45;12</title>
<path fill="none" stroke="black" stroke-width="3" stroke-dasharray="1,5" d="M181.281,-237.755C219.227,-225.306 291.687,-201.535 329.444,-189.148"/>
</g>
<!-- 15 -->
<g id="node34" class="node"><title>15</title>
<ellipse fill="none" stroke="black" cx="220.318" cy="-334.812" rx="27" ry="18"/>
<text text-anchor="middle" x="220.318" y="-330.712" font-family="Times Roman,serif" font-size="14.00">15</text>
</g>
<!-- 2&#45;&#45;15 -->
<g id="edge60" class="edge"><title>2&#45;&#45;15</title>
<path fill="none" stroke="black" stroke-width="0.428571" stroke-dasharray="1,5" d="M168.398,-262.132C179.799,-278.091 197.066,-302.263 208.515,-318.289"/>
</g>
<!-- 18 -->
<g id="node36" class="node"><title>18</title>
<ellipse fill="none" stroke="black" cx="149.281" cy="-18.6823" rx="27" ry="18"/>
<text text-anchor="middle" x="149.281" y="-14.5823" font-family="Times Roman,serif" font-size="14.00">18</text>
</g>
<!-- 2&#45;&#45;18 -->
<g id="edge66" class="edge"><title>2&#45;&#45;18</title>
<path fill="none" stroke="black" stroke-width="0.857143" stroke-dasharray="1,5" d="M156.139,-227.604C154.743,-185.077 151.28,-79.5843 149.881,-36.9716"/>
</g>
<!-- 8 -->
<g id="node43" class="node"><title>8</title>
<ellipse fill="none" stroke="black" cx="209.482" cy="-176.558" rx="27" ry="18"/>
<text text-anchor="middle" x="209.482" y="-172.458" font-family="Times Roman,serif" font-size="14.00">8</text>
</g>
<!-- 2&#45;&#45;8 -->
<g id="edge48" class="edge"><title>2&#45;&#45;8</title>
<path fill="none" stroke="black" stroke-width="6" stroke-dasharray="1,5" d="M168.97,-229.746C177.369,-218.718 188.486,-204.124 196.949,-193.013"/>
</g>
<!-- 14 -->
<g id="node49" class="node"><title>14</title>
<ellipse fill="none" stroke="black" cx="143.204" cy="-180.915" rx="27" ry="18"/>
<text text-anchor="middle" x="143.204" y="-176.815" font-family="Times Roman,serif" font-size="14.00">14</text>
</g>
<!-- 2&#45;&#45;14 -->
<g id="edge58" class="edge"><title>2&#45;&#45;14</title>
<path fill="none" stroke="black" stroke-width="0.375" stroke-dasharray="1,5" d="M152.967,-227.731C151.09,-218.731 148.827,-207.881 146.953,-198.894"/>
</g>
<!-- 20 -->
<g id="node55" class="node"><title>20</title>
<ellipse fill="none" stroke="black" cx="290.327" cy="-187.25" rx="27" ry="18"/>
<text text-anchor="middle" x="290.327" y="-183.15" font-family="Times Roman,serif" font-size="14.00">20</text>
</g>
<!-- 2&#45;&#45;20 -->
<g id="edge68" class="edge"><title>2&#45;&#45;20</title>
<path fill="none" stroke="black" stroke-width="0.333333" stroke-dasharray="1,5" d="M179.398,-235.874C203.964,-225.106 242.945,-208.019 267.554,-197.232"/>
</g>
<!-- 23 -->
<g id="node57" class="node"><title>23</title>
<ellipse fill="none" stroke="black" cx="192.989" cy="-393.428" rx="27" ry="18"/>
<text text-anchor="middle" x="192.989" y="-389.328" font-family="Times Roman,serif" font-size="14.00">23</text>
</g>
<!-- 2&#45;&#45;23 -->
<g id="edge70" class="edge"><title>2&#45;&#45;23</title>
<path fill="none" stroke="black" stroke-width="0.352941" stroke-dasharray="1,5" d="M161.109,-263.614C168.077,-291.987 181.623,-347.145 188.6,-375.558"/>
</g>
<!-- 10&#45;&#45;16 -->
<g id="edge196" class="edge"><title>10&#45;&#45;16</title>
<path fill="none" stroke="black" stroke-width="0.666667" stroke-dasharray="1,5" d="M81.6058,-272.744C124.634,-297.811 223.92,-355.653 267.05,-380.78"/>
</g>
<!-- 10&#45;&#45;24 -->
<g id="edge204" class="edge"><title>10&#45;&#45;24</title>
<path fill="none" stroke="black" stroke-width="0.375" stroke-dasharray="1,5" d="M79.3866,-247.182C114.047,-221.378 188.912,-165.64 223.401,-139.962"/>
</g>
<!-- 10&#45;&#45;18 -->
<g id="edge198" class="edge"><title>10&#45;&#45;18</title>
<path fill="none" stroke="black" stroke-width="0.666667" stroke-dasharray="1,5" d="M67.5834,-242.994C83.9307,-198.11 126.677,-80.7435 142.906,-36.1852"/>
</g>
<!-- 22 -->
<g id="node39" class="node"><title>22</title>
<ellipse fill="none" stroke="black" cx="297.186" cy="-299.465" rx="27" ry="18"/>
<text text-anchor="middle" x="297.186" y="-295.365" font-family="Times Roman,serif" font-size="14.00">22</text>
</g>
<!-- 10&#45;&#45;22 -->
<g id="edge200" class="edge"><title>10&#45;&#45;22</title>
<path fill="none" stroke="black" stroke-width="0.6" stroke-dasharray="1,5" d="M87.7225,-265.158C133.185,-272.604 225.264,-287.685 270.66,-295.12"/>
</g>
<!-- 10&#45;&#45;14 -->
<g id="edge194" class="edge"><title>10&#45;&#45;14</title>
<path fill="none" stroke="black" stroke-width="0.333333" stroke-dasharray="1,5" d="M76.5425,-245.772C91.2215,-231.49 113.174,-210.132 127.83,-195.873"/>
</g>
<!-- 10&#45;&#45;23 -->
<g id="edge202" class="edge"><title>10&#45;&#45;23</title>
<path fill="none" stroke="black" stroke-width="0.428571" stroke-dasharray="1,5" d="M76.2286,-276.012C101.67,-301.596 152.714,-352.926 178.036,-378.391"/>
</g>
<!-- 11&#45;&#45;13 -->
<g id="edge208" class="edge"><title>11&#45;&#45;13</title>
<path fill="none" stroke="black" stroke-width="1.5" stroke-dasharray="1,5" d="M318.466,-124.223C324.827,-151.843 336.941,-204.448 343.332,-232.204"/>
</g>
<!-- 11&#45;&#45;21 -->
<g id="edge214" class="edge"><title>11&#45;&#45;21</title>
<path fill="none" stroke="black" stroke-width="3" stroke-dasharray="1,5" d="M297.581,-91.8127C279.425,-76.1517 250.615,-51.3005 232.427,-35.6118"/>
</g>
<!-- 11&#45;&#45;24 -->
<g id="edge218" class="edge"><title>11&#45;&#45;24</title>
<path fill="none" stroke="black" stroke-width="0.4" stroke-dasharray="1,5" d="M289.255,-113.229C282.01,-115.243 274.1,-117.441 266.837,-119.46"/>
</g>
<!-- 11&#45;&#45;12 -->
<g id="edge206" class="edge"><title>11&#45;&#45;12</title>
<path fill="none" stroke="black" stroke-width="0.545455" stroke-dasharray="1,5" d="M323.259,-123.265C329.653,-135.442 338.233,-151.78 344.65,-164.001"/>
</g>
<!-- 11&#45;&#45;15 -->
<g id="edge210" class="edge"><title>11&#45;&#45;15</title>
<path fill="none" stroke="black" stroke-dasharray="1,5" d="M307.109,-123.815C289.61,-166.357 245.088,-274.593 227.564,-317.197"/>
</g>
<!-- 11&#45;&#45;18 -->
<g id="edge212" class="edge"><title>11&#45;&#45;18</title>
<path fill="none" stroke="black" stroke-width="2" stroke-dasharray="1,5" d="M293.09,-94.9901C261.399,-78.174 202.083,-46.6999 170.439,-29.909"/>
</g>
<!-- 11&#45;&#45;22 -->
<g id="edge216" class="edge"><title>11&#45;&#45;22</title>
<path fill="none" stroke="black" stroke-width="1.5" stroke-dasharray="1,5" d="M312.717,-124.436C309.441,-161.353 302.044,-244.72 298.782,-281.478"/>
</g>
<!-- 13&#45;&#45;17 -->
<g id="edge240" class="edge"><title>13&#45;&#45;17</title>
<path fill="none" stroke="black" stroke-width="0.333333" stroke-dasharray="1,5" d="M350.913,-268.345C353.101,-279.918 355.935,-294.916 358.126,-306.508"/>
</g>
<!-- 13&#45;&#45;24 -->
<g id="edge248" class="edge"><title>13&#45;&#45;24</title>
<path fill="none" stroke="black" stroke-width="0.6" stroke-dasharray="1,5" d="M334.089,-234.703C313.801,-211.004 275.547,-166.318 255.127,-142.464"/>
</g>
<!-- 13&#45;&#45;15 -->
<g id="edge238" class="edge"><title>13&#45;&#45;15</title>
<path fill="none" stroke="black" stroke-width="3" stroke-dasharray="1,5" d="M328.202,-263.214C304.293,-279.081 263.812,-305.947 239.82,-321.87"/>
</g>
<!-- 13&#45;&#45;14 -->
<g id="edge236" class="edge"><title>13&#45;&#45;14</title>
<path fill="none" stroke="black" stroke-width="1.5" stroke-dasharray="1,5" d="M323.281,-242.15C283.958,-228.779 206.715,-202.512 167.413,-189.147"/>
</g>
<!-- 13&#45;&#45;20 -->
<g id="edge244" class="edge"><title>13&#45;&#45;20</title>
<path fill="none" stroke="black" stroke-width="0.5" stroke-dasharray="1,5" d="M333.383,-234.785C324.518,-224.997 313.137,-212.432 304.302,-202.679"/>
</g>
<!-- 13&#45;&#45;23 -->
<g id="edge246" class="edge"><title>13&#45;&#45;23</title>
<path fill="none" stroke="black" stroke-dasharray="1,5" d="M331.565,-265.162C301.953,-292.57 238.81,-351.016 209.089,-378.525"/>
</g>
<!-- 19 -->
<g id="node76" class="node"><title>19</title>
<ellipse fill="none" stroke="black" cx="457.394" cy="-245.547" rx="27" ry="18"/>
<text text-anchor="middle" x="457.394" y="-241.447" font-family="Times Roman,serif" font-size="14.00">19</text>
</g>
<!-- 13&#45;&#45;19 -->
<g id="edge242" class="edge"><title>13&#45;&#45;19</title>
<path fill="none" stroke="black" stroke-width="0.545455" stroke-dasharray="1,5" d="M374.681,-249.195C391.584,-248.45 413.25,-247.494 430.166,-246.748"/>
</g>
<!-- 16&#45;&#45;22 -->
<g id="edge278" class="edge"><title>16&#45;&#45;22</title>
<path fill="none" stroke="black" stroke-width="0.75" stroke-dasharray="1,5" d="M289.508,-374.8C291.181,-358.379 293.643,-334.226 295.325,-317.723"/>
</g>
<!-- 16&#45;&#45;20 -->
<g id="edge276" class="edge"><title>16&#45;&#45;20</title>
<path fill="none" stroke="black" stroke-width="6" stroke-dasharray="1,5" d="M287.909,-374.554C288.413,-335.548 289.589,-244.419 290.092,-205.45"/>
</g>
<!-- 16&#45;&#45;19 -->
<g id="edge274" class="edge"><title>16&#45;&#45;19</title>
<path fill="none" stroke="black" stroke-width="0.6" stroke-dasharray="1,5" d="M304.256,-378.408C336.703,-350.257 408.244,-288.189 440.744,-259.992"/>
</g>
<!-- 17&#45;&#45;24 -->
<g id="edge284" class="edge"><title>17&#45;&#45;24</title>
<path fill="none" stroke="black" stroke-width="0.545455" stroke-dasharray="1,5" d="M351.299,-307.666C328.615,-270.251 274.34,-180.728 251.68,-143.353"/>
</g>
<!-- 17&#45;&#45;23 -->
<g id="edge282" class="edge"><title>17&#45;&#45;23</title>
<path fill="none" stroke="black" stroke-width="0.461538" stroke-dasharray="1,5" d="M338.453,-333.984C306.267,-347.136 248.244,-370.848 216.062,-383.999"/>
</g>
<!-- 17&#45;&#45;19 -->
<g id="edge280" class="edge"><title>17&#45;&#45;19</title>
<path fill="none" stroke="black" stroke-width="0.461538" stroke-dasharray="1,5" d="M378.673,-310.427C396.121,-296.046 423.011,-273.885 440.405,-259.549"/>
</g>
<!-- 21&#45;&#45;24 -->
<g id="edge300" class="edge"><title>21&#45;&#45;24</title>
<path fill="none" stroke="black" stroke-width="2" stroke-dasharray="1,5" d="M219.985,-38.9762C224.743,-58.3611 232.293,-89.1212 237.059,-108.54"/>
</g>
<!-- 1 -->
<g id="node18" class="node"><title>1</title>
<ellipse fill="none" stroke="black" cx="145.33" cy="-127.073" rx="27" ry="18"/>
<text text-anchor="middle" x="145.33" y="-122.973" font-family="Times Roman,serif" font-size="14.00">1</text>
</g>
<!-- 1&#45;&#45;2 -->
<g id="edge18" class="edge"><title>1&#45;&#45;2</title>
<path fill="none" stroke="black" stroke-dasharray="1,5" d="M147.062,-145.106C149.206,-167.423 152.836,-205.21 154.987,-227.604"/>
</g>
<!-- 1&#45;&#45;10 -->
<g id="edge28" class="edge"><title>1&#45;&#45;10</title>
<path fill="none" stroke="black" stroke-width="0.666667" stroke-dasharray="1,5" d="M134.832,-143.739C118.692,-169.364 87.9493,-218.17 71.7291,-243.921"/>
</g>
<!-- 1&#45;&#45;11 -->
<g id="edge30" class="edge"><title>1&#45;&#45;11</title>
<path fill="none" stroke="black" stroke-width="0.75" stroke-dasharray="1,5" d="M172.108,-123.775C203.753,-119.878 256.086,-113.433 287.676,-109.543"/>
</g>
<!-- 1&#45;&#45;13 -->
<g id="edge34" class="edge"><title>1&#45;&#45;13</title>
<path fill="none" stroke="black" stroke-width="3" stroke-dasharray="1,5" d="M165.456,-139.348C204.212,-162.986 288.785,-214.569 327.476,-238.167"/>
</g>
<!-- 1&#45;&#45;21 -->
<g id="edge40" class="edge"><title>1&#45;&#45;21</title>
<path fill="none" stroke="black" stroke-width="0.428571" stroke-dasharray="1,5" d="M156.309,-110.514C169.433,-90.7203 191.271,-57.7826 204.463,-37.8864"/>
</g>
<!-- 1&#45;&#45;3 -->
<g id="edge20" class="edge"><title>1&#45;&#45;3</title>
<path fill="none" stroke="black" stroke-width="0.461538" stroke-dasharray="1,5" d="M165.387,-114.959C191.539,-99.1647 237.021,-71.695 263.184,-55.8931"/>
</g>
<!-- 1&#45;&#45;5 -->
<g id="edge22" class="edge"><title>1&#45;&#45;5</title>
<path fill="none" stroke="black" stroke-width="0.333333" stroke-dasharray="1,5" d="M135.553,-110.289C130.318,-101.302 123.889,-90.2646 118.65,-81.2711"/>
</g>
<!-- 6 -->
<g id="node25" class="node"><title>6</title>
<ellipse fill="none" stroke="black" cx="27.6531" cy="-125.904" rx="27" ry="18"/>
<text text-anchor="middle" x="27.6531" y="-121.804" font-family="Times Roman,serif" font-size="14.00">6</text>
</g>
<!-- 1&#45;&#45;6 -->
<g id="edge24" class="edge"><title>1&#45;&#45;6</title>
<path fill="none" stroke="black" stroke-width="0.333333" stroke-dasharray="1,5" d="M118.333,-126.805C99.3329,-126.616 73.9944,-126.364 54.9324,-126.175"/>
</g>
<!-- 1&#45;&#45;9 -->
<g id="edge26" class="edge"><title>1&#45;&#45;9</title>
<path fill="none" stroke="black" stroke-dasharray="1,5" d="M158.434,-143.106C175.225,-163.65 204.165,-199.058 220.982,-219.633"/>
</g>
<!-- 1&#45;&#45;12 -->
<g id="edge32" class="edge"><title>1&#45;&#45;12</title>
<path fill="none" stroke="black" stroke-width="1.5" stroke-dasharray="1,5" d="M170.878,-133.71C210.974,-144.126 288.225,-164.194 328.249,-174.591"/>
</g>
<!-- 1&#45;&#45;15 -->
<g id="edge36" class="edge"><title>1&#45;&#45;15</title>
<path fill="none" stroke="black" stroke-width="0.428571" stroke-dasharray="1,5" d="M151.723,-144.785C165.891,-184.033 199.789,-277.939 213.941,-317.145"/>
</g>
<!-- 1&#45;&#45;18 -->
<g id="edge38" class="edge"><title>1&#45;&#45;18</title>
<path fill="none" stroke="black" stroke-width="2" stroke-dasharray="1,5" d="M146,-108.686C146.731,-88.6336 147.894,-56.7427 148.621,-36.7978"/>
</g>
<!-- 1&#45;&#45;22 -->
<g id="edge42" class="edge"><title>1&#45;&#45;22</title>
<path fill="none" stroke="black" stroke-width="0.5" stroke-dasharray="1,5" d="M159.074,-142.676C187.84,-175.331 254.12,-250.575 283.144,-283.523"/>
</g>
<!-- 3&#45;&#45;11 -->
<g id="edge82" class="edge"><title>3&#45;&#45;11</title>
<path fill="none" stroke="black" stroke-width="0.545455" stroke-dasharray="1,5" d="M291.919,-61.1732C296.227,-69.8412 301.421,-80.2898 305.723,-88.945"/>
</g>
<!-- 3&#45;&#45;17 -->
<g id="edge86" class="edge"><title>3&#45;&#45;17</title>
<path fill="none" stroke="black" stroke-width="6" stroke-dasharray="1,5" d="M288.281,-61.7563C302.418,-112.472 342.476,-256.177 356.562,-306.709"/>
</g>
<!-- 3&#45;&#45;21 -->
<g id="edge92" class="edge"><title>3&#45;&#45;21</title>
<path fill="none" stroke="black" stroke-width="0.857143" stroke-dasharray="1,5" d="M258.836,-35.5799C252.627,-33.4999 245.959,-31.2661 239.764,-29.1904"/>
</g>
<!-- 3&#45;&#45;24 -->
<g id="edge94" class="edge"><title>3&#45;&#45;24</title>
<path fill="none" stroke="black" stroke-width="0.375" stroke-dasharray="1,5" d="M274.605,-60.9097C267.432,-75.111 257.289,-95.1924 250.118,-109.388"/>
</g>
<!-- 3&#45;&#45;5 -->
<g id="edge76" class="edge"><title>3&#45;&#45;5</title>
<path fill="none" stroke="black" stroke-width="6" stroke-dasharray="1,5" d="M256.395,-46.95C223.523,-50.8466 168.217,-57.4026 135.462,-61.2854"/>
</g>
<!-- 3&#45;&#45;9 -->
<g id="edge80" class="edge"><title>3&#45;&#45;9</title>
<path fill="none" stroke="black" stroke-width="0.6" stroke-dasharray="1,5" d="M278.644,-61.8245C269.257,-98.5053 248.06,-181.338 238.714,-217.86"/>
</g>
<!-- 3&#45;&#45;18 -->
<g id="edge88" class="edge"><title>3&#45;&#45;18</title>
<path fill="none" stroke="black" stroke-width="0.352941" stroke-dasharray="1,5" d="M257.114,-38.869C233.506,-34.4495 198.955,-27.9814 175.367,-23.5657"/>
</g>
<!-- 3&#45;&#45;14 -->
<g id="edge84" class="edge"><title>3&#45;&#45;14</title>
<path fill="none" stroke="black" stroke-width="1.5" stroke-dasharray="1,5" d="M268.01,-58.7033C241.068,-85.0854 185.37,-139.626 158.441,-165.995"/>
</g>
<!-- 3&#45;&#45;20 -->
<g id="edge90" class="edge"><title>3&#45;&#45;20</title>
<path fill="none" stroke="black" stroke-width="0.375" stroke-dasharray="1,5" d="M284.16,-61.9372C285.518,-89.5372 288.086,-141.713 289.44,-169.225"/>
</g>
<!-- 4 -->
<g id="node60" class="node"><title>4</title>
<ellipse fill="none" stroke="black" cx="460.923" cy="-120.59" rx="27" ry="18"/>
<text text-anchor="middle" x="460.923" y="-116.49" font-family="Times Roman,serif" font-size="14.00">4</text>
</g>
<!-- 3&#45;&#45;4 -->
<g id="edge74" class="edge"><title>3&#45;&#45;4</title>
<path fill="none" stroke="black" stroke-dasharray="1,5" d="M306.128,-53.651C340.24,-68.4024 404.087,-96.0123 438.149,-110.742"/>
</g>
<!-- 7 -->
<g id="node63" class="node"><title>7</title>
<ellipse fill="none" stroke="black" cx="354.758" cy="-45.0283" rx="27" ry="18"/>
<text text-anchor="middle" x="354.758" y="-40.9283" font-family="Times Roman,serif" font-size="14.00">7</text>
</g>
<!-- 3&#45;&#45;7 -->
<g id="edge78" class="edge"><title>3&#45;&#45;7</title>
<path fill="none" stroke="black" stroke-width="0.857143" stroke-dasharray="1,5" d="M310.294,-44.2424C315.988,-44.3431 321.996,-44.4493 327.692,-44.5499"/>
</g>
<!-- 5&#45;&#45;10 -->
<g id="edge114" class="edge"><title>5&#45;&#45;10</title>
<path fill="none" stroke="black" stroke-width="0.375" stroke-dasharray="1,5" d="M104.525,-82.212C95.4574,-119.502 74.5343,-205.546 65.4453,-242.924"/>
</g>
<!-- 5&#45;&#45;11 -->
<g id="edge116" class="edge"><title>5&#45;&#45;11</title>
<path fill="none" stroke="black" stroke-width="0.461538" stroke-dasharray="1,5" d="M134.871,-69.7368C174.289,-77.759 248.709,-92.9049 288.193,-100.941"/>
</g>
<!-- 5&#45;&#45;21 -->
<g id="edge122" class="edge"><title>5&#45;&#45;21</title>
<path fill="none" stroke="black" stroke-width="1.2" stroke-dasharray="1,5" d="M132.01,-55.0347C149.915,-47.764 174.584,-37.7469 192.479,-30.4809"/>
</g>
<!-- 5&#45;&#45;24 -->
<g id="edge124" class="edge"><title>5&#45;&#45;24</title>
<path fill="none" stroke="black" stroke-width="1.2" stroke-dasharray="1,5" d="M131.045,-74.8295C155.526,-86.2873 194.688,-104.616 219.199,-116.088"/>
</g>
<!-- 5&#45;&#45;9 -->
<g id="edge112" class="edge"><title>5&#45;&#45;9</title>
<path fill="none" stroke="black" stroke-width="6" stroke-dasharray="1,5" d="M120.86,-80.8645C144.809,-113.605 198.244,-186.658 222.163,-219.358"/>
</g>
<!-- 5&#45;&#45;18 -->
<g id="edge118" class="edge"><title>5&#45;&#45;18</title>
<path fill="none" stroke="black" stroke-width="0.4" stroke-dasharray="1,5" d="M122.762,-48.693C126.874,-44.0397 131.372,-38.949 135.477,-34.3036"/>
</g>
<!-- 5&#45;&#45;8 -->
<g id="edge110" class="edge"><title>5&#45;&#45;8</title>
<path fill="none" stroke="black" stroke-width="0.6" stroke-dasharray="1,5" d="M122.839,-80.0297C142.066,-101.45 176.444,-139.75 195.608,-161.101"/>
</g>
<!-- 5&#45;&#45;20 -->
<g id="edge120" class="edge"><title>5&#45;&#45;20</title>
<path fill="none" stroke="black" stroke-width="1.2" stroke-dasharray="1,5" d="M127.925,-77.351C162.78,-100.938 236.365,-150.733 271.232,-174.328"/>
</g>
<!-- 5&#45;&#45;7 -->
<g id="edge108" class="edge"><title>5&#45;&#45;7</title>
<path fill="none" stroke="black" stroke-width="0.75" stroke-dasharray="1,5" d="M136.103,-62.2887C183.497,-58.5475 280.537,-50.8872 327.754,-47.16"/>
</g>
<!-- 6&#45;&#45;10 -->
<g id="edge130" class="edge"><title>6&#45;&#45;10</title>
<path fill="none" stroke="black" stroke-width="6" stroke-dasharray="1,5" d="M32.0945,-143.817C38.4915,-169.617 50.2322,-216.969 56.6395,-242.81"/>
</g>
<!-- 6&#45;&#45;24 -->
<g id="edge138" class="edge"><title>6&#45;&#45;24</title>
<path fill="none" stroke="black" stroke-width="0.545455" stroke-dasharray="1,5" d="M54.7331,-125.981C95.7491,-126.097 173.187,-126.317 214.272,-126.433"/>
</g>
<!-- 6&#45;&#45;9 -->
<g id="edge128" class="edge"><title>6&#45;&#45;9</title>
<path fill="none" stroke="black" stroke-width="1.2" stroke-dasharray="1,5" d="M48.9731,-137.244C88.6441,-158.344 173.353,-203.4 212.936,-224.454"/>
</g>
<!-- 6&#45;&#45;18 -->
<g id="edge134" class="edge"><title>6&#45;&#45;18</title>
<path fill="none" stroke="black" stroke-width="0.6" stroke-dasharray="1,5" d="M44.0564,-111.443C67.2699,-90.9795 109.466,-53.7816 132.749,-33.256"/>
</g>
<!-- 6&#45;&#45;8 -->
<g id="edge126" class="edge"><title>6&#45;&#45;8</title>
<path fill="none" stroke="black" stroke-width="0.333333" stroke-dasharray="1,5" d="M52.9357,-132.947C87.6747,-142.625 149.789,-159.928 184.415,-169.574"/>
</g>
<!-- 6&#45;&#45;14 -->
<g id="edge132" class="edge"><title>6&#45;&#45;14</title>
<path fill="none" stroke="black" stroke-width="0.428571" stroke-dasharray="1,5" d="M49.6593,-136.381C70.0892,-146.107 100.357,-160.517 120.886,-170.29"/>
</g>
<!-- 6&#45;&#45;20 -->
<g id="edge136" class="edge"><title>6&#45;&#45;20</title>
<path fill="none" stroke="black" stroke-width="0.666667" stroke-dasharray="1,5" d="M53.3177,-131.898C103.535,-143.626 214.258,-169.484 264.558,-181.232"/>
</g>
<!-- 9&#45;&#45;13 -->
<g id="edge178" class="edge"><title>9&#45;&#45;13</title>
<path fill="none" stroke="black" stroke-width="0.375" stroke-dasharray="1,5" d="M260.723,-239.169C278.788,-241.505 302.599,-244.584 320.712,-246.926"/>
</g>
<!-- 9&#45;&#45;21 -->
<g id="edge188" class="edge"><title>9&#45;&#45;21</title>
<path fill="none" stroke="black" stroke-width="6" stroke-dasharray="1,5" d="M232.559,-217.432C229.056,-176.881 220.673,-79.8555 217.174,-39.3473"/>
</g>
<!-- 9&#45;&#45;15 -->
<g id="edge182" class="edge"><title>9&#45;&#45;15</title>
<path fill="none" stroke="black" stroke-width="0.333333" stroke-dasharray="1,5" d="M231.605,-253.905C229.111,-271.782 225.326,-298.917 222.837,-316.754"/>
</g>
<!-- 9&#45;&#45;22 -->
<g id="edge190" class="edge"><title>9&#45;&#45;22</title>
<path fill="none" stroke="black" stroke-width="0.6" stroke-dasharray="1,5" d="M249.081,-250.836C258.986,-260.848 271.943,-273.947 281.915,-284.027"/>
</g>
<!-- 9&#45;&#45;14 -->
<g id="edge180" class="edge"><title>9&#45;&#45;14</title>
<path fill="none" stroke="black" stroke-width="0.333333" stroke-dasharray="1,5" d="M213.959,-223.567C198.889,-214.482 178.385,-202.123 163.329,-193.047"/>
</g>
<!-- 9&#45;&#45;20 -->
<g id="edge186" class="edge"><title>9&#45;&#45;20</title>
<path fill="none" stroke="black" stroke-width="1.5" stroke-dasharray="1,5" d="M250.694,-221.448C257.945,-215.191 266.438,-207.864 273.697,-201.599"/>
</g>
<!-- 9&#45;&#45;23 -->
<g id="edge192" class="edge"><title>9&#45;&#45;23</title>
<path fill="none" stroke="black" stroke-width="0.5" stroke-dasharray="1,5" d="M229.5,-253.515C221.596,-283.802 205.61,-345.061 197.675,-375.468"/>
</g>
<!-- 9&#45;&#45;19 -->
<g id="edge184" class="edge"><title>9&#45;&#45;19</title>
<path fill="none" stroke="black" stroke-width="0.333333" stroke-dasharray="1,5" d="M261.516,-236.936C304.481,-238.825 387.257,-242.464 430.145,-244.349"/>
</g>
<!-- 12&#45;&#45;13 -->
<g id="edge220" class="edge"><title>12&#45;&#45;13</title>
<path fill="none" stroke="black" stroke-width="0.666667" stroke-dasharray="1,5" d="M352.062,-199.378C351.164,-209.469 350.05,-221.985 349.15,-232.094"/>
</g>
<!-- 12&#45;&#45;16 -->
<g id="edge224" class="edge"><title>12&#45;&#45;16</title>
<path fill="none" stroke="black" stroke-width="0.666667" stroke-dasharray="1,5" d="M348.166,-198.874C335.741,-238.704 305.672,-335.096 293.218,-375.019"/>
</g>
<!-- 12&#45;&#45;21 -->
<g id="edge230" class="edge"><title>12&#45;&#45;21</title>
<path fill="none" stroke="black" stroke-width="0.666667" stroke-dasharray="1,5" d="M340.189,-165.555C313.858,-135.025 255.884,-67.8059 229.347,-37.0373"/>
</g>
<!-- 12&#45;&#45;24 -->
<g id="edge234" class="edge"><title>12&#45;&#45;24</title>
<path fill="none" stroke="black" stroke-width="0.545455" stroke-dasharray="1,5" d="M331.778,-170.524C312.006,-160.888 283.07,-146.785 263.316,-137.158"/>
</g>
<!-- 12&#45;&#45;18 -->
<g id="edge226" class="edge"><title>12&#45;&#45;18</title>
<path fill="none" stroke="black" stroke-width="0.428571" stroke-dasharray="1,5" d="M336.253,-167.342C297.636,-136.638 205.24,-63.1744 166.664,-32.5032"/>
</g>
<!-- 12&#45;&#45;14 -->
<g id="edge222" class="edge"><title>12&#45;&#45;14</title>
<path fill="none" stroke="black" stroke-width="6" stroke-dasharray="1,5" d="M326.595,-181.161C286.292,-181.107 210.954,-181.006 170.519,-180.952"/>
</g>
<!-- 12&#45;&#45;23 -->
<g id="edge232" class="edge"><title>12&#45;&#45;23</title>
<path fill="none" stroke="black" stroke-width="0.352941" stroke-dasharray="1,5" d="M341.338,-197.499C311.426,-237.003 235.327,-337.509 205.373,-377.071"/>
</g>
<!-- 12&#45;&#45;19 -->
<g id="edge228" class="edge"><title>12&#45;&#45;19</title>
<path fill="none" stroke="black" stroke-width="0.666667" stroke-dasharray="1,5" d="M373.677,-193.605C392.043,-205 419.112,-221.795 437.458,-233.178"/>
</g>
<!-- 15&#45;&#45;16 -->
<g id="edge262" class="edge"><title>15&#45;&#45;16</title>
<path fill="none" stroke="black" stroke-width="0.545455" stroke-dasharray="1,5" d="M236.968,-349.145C247.253,-357.998 260.412,-369.327 270.748,-378.224"/>
</g>
<!-- 15&#45;&#45;17 -->
<g id="edge264" class="edge"><title>15&#45;&#45;17</title>
<path fill="none" stroke="black" stroke-width="0.315789" stroke-dasharray="1,5" d="M247.213,-332.858C272.181,-331.044 309.171,-328.356 334.261,-326.533"/>
</g>
<!-- 15&#45;&#45;24 -->
<g id="edge272" class="edge"><title>15&#45;&#45;24</title>
<path fill="none" stroke="black" stroke-width="0.75" stroke-dasharray="1,5" d="M222.158,-316.691C226.158,-277.296 235.608,-184.229 239.618,-144.738"/>
</g>
<!-- 15&#45;&#45;22 -->
<g id="edge268" class="edge"><title>15&#45;&#45;22</title>
<path fill="none" stroke="black" stroke-width="0.375" stroke-dasharray="1,5" d="M242.552,-324.588C252.661,-319.939 264.601,-314.449 274.737,-309.788"/>
</g>
<!-- 15&#45;&#45;20 -->
<g id="edge266" class="edge"><title>15&#45;&#45;20</title>
<path fill="none" stroke="black" stroke-width="0.333333" stroke-dasharray="1,5" d="M228.486,-317.596C241.904,-289.314 268.47,-233.321 281.994,-204.814"/>
</g>
<!-- 15&#45;&#45;23 -->
<g id="edge270" class="edge"><title>15&#45;&#45;23</title>
<path fill="none" stroke="black" stroke-width="0.857143" stroke-dasharray="1,5" d="M212.266,-352.081C208.739,-359.646 204.609,-368.505 201.078,-376.079"/>
</g>
<!-- 18&#45;&#45;21 -->
<g id="edge286" class="edge"><title>18&#45;&#45;21</title>
<path fill="none" stroke="black" stroke-width="2" stroke-dasharray="1,5" d="M176.254,-19.6631C180.27,-19.8091 184.412,-19.9597 188.432,-20.1059"/>
</g>
<!-- 18&#45;&#45;24 -->
<g id="edge288" class="edge"><title>18&#45;&#45;24</title>
<path fill="none" stroke="black" stroke-width="0.461538" stroke-dasharray="1,5" d="M162.884,-34.5928C180.313,-54.9795 210.354,-90.1168 227.811,-110.535"/>
</g>
<!-- 22&#45;&#45;24 -->
<g id="edge304" class="edge"><title>22&#45;&#45;24</title>
<path fill="none" stroke="black" stroke-width="0.375" stroke-dasharray="1,5" d="M291.433,-281.607C280.729,-248.379 257.871,-177.426 247.191,-144.271"/>
</g>
<!-- 22&#45;&#45;23 -->
<g id="edge302" class="edge"><title>22&#45;&#45;23</title>
<path fill="none" stroke="black" stroke-width="3" stroke-dasharray="1,5" d="M280.905,-314.146C261.33,-331.799 228.679,-361.243 209.155,-378.849"/>
</g>
<!-- 8&#45;&#45;11 -->
<g id="edge158" class="edge"><title>8&#45;&#45;11</title>
<path fill="none" stroke="black" stroke-width="0.5" stroke-dasharray="1,5" d="M228.713,-163.664C247.631,-150.98 276.345,-131.728 295.221,-119.072"/>
</g>
<!-- 8&#45;&#45;13 -->
<g id="edge160" class="edge"><title>8&#45;&#45;13</title>
<path fill="none" stroke="black" stroke-width="1.2" stroke-dasharray="1,5" d="M230.748,-187.933C256.764,-201.848 300.534,-225.26 326.457,-239.126"/>
</g>
<!-- 8&#45;&#45;16 -->
<g id="edge166" class="edge"><title>8&#45;&#45;16</title>
<path fill="none" stroke="black" stroke-width="0.666667" stroke-dasharray="1,5" d="M215.881,-194.253C230.58,-234.902 266.618,-334.565 281.296,-375.158"/>
</g>
<!-- 8&#45;&#45;17 -->
<g id="edge168" class="edge"><title>8&#45;&#45;17</title>
<path fill="none" stroke="black" stroke-width="0.4" stroke-dasharray="1,5" d="M224.899,-191.562C254.042,-219.928 316.904,-281.111 346.078,-309.506"/>
</g>
<!-- 8&#45;&#45;21 -->
<g id="edge174" class="edge"><title>8&#45;&#45;21</title>
<path fill="none" stroke="black" stroke-width="3" stroke-dasharray="1,5" d="M210.196,-158.42C211.374,-128.463 213.713,-68.9963 214.888,-39.1161"/>
</g>
<!-- 8&#45;&#45;15 -->
<g id="edge164" class="edge"><title>8&#45;&#45;15</title>
<path fill="none" stroke="black" stroke-width="0.352941" stroke-dasharray="1,5" d="M210.725,-194.711C212.805,-225.076 216.965,-285.835 219.056,-316.382"/>
</g>
<!-- 8&#45;&#45;18 -->
<g id="edge170" class="edge"><title>8&#45;&#45;18</title>
<path fill="none" stroke="black" stroke-width="0.333333" stroke-dasharray="1,5" d="M202.81,-159.059C191.238,-128.712 167.576,-66.6607 155.984,-36.2593"/>
</g>
<!-- 8&#45;&#45;14 -->
<g id="edge162" class="edge"><title>8&#45;&#45;14</title>
<path fill="none" stroke="black" stroke-width="2" stroke-dasharray="1,5" d="M182.524,-178.33C178.51,-178.594 174.371,-178.866 170.353,-179.13"/>
</g>
<!-- 8&#45;&#45;20 -->
<g id="edge172" class="edge"><title>8&#45;&#45;20</title>
<path fill="none" stroke="black" stroke-width="1.5" stroke-dasharray="1,5" d="M236.403,-180.118C245.222,-181.284 255.01,-182.579 263.8,-183.741"/>
</g>
<!-- 8&#45;&#45;23 -->
<g id="edge176" class="edge"><title>8&#45;&#45;23</title>
<path fill="none" stroke="black" stroke-width="0.5" stroke-dasharray="1,5" d="M208.105,-194.675C205,-235.497 197.486,-334.292 194.374,-375.209"/>
</g>
<!-- 14&#45;&#45;21 -->
<g id="edge254" class="edge"><title>14&#45;&#45;21</title>
<path fill="none" stroke="black" stroke-width="0.666667" stroke-dasharray="1,5" d="M151.089,-163.507C165.014,-132.764 193.803,-69.2079 207.721,-38.4801"/>
</g>
<!-- 14&#45;&#45;24 -->
<g id="edge260" class="edge"><title>14&#45;&#45;24</title>
<path fill="none" stroke="black" stroke-width="0.352941" stroke-dasharray="1,5" d="M164.043,-169.377C180.719,-160.145 203.992,-147.26 220.66,-138.032"/>
</g>
<!-- 14&#45;&#45;15 -->
<g id="edge250" class="edge"><title>14&#45;&#45;15</title>
<path fill="none" stroke="black" stroke-width="3" stroke-dasharray="1,5" d="M151.9,-198.27C166.71,-227.827 196.667,-287.61 211.536,-317.284"/>
</g>
<!-- 14&#45;&#45;18 -->
<g id="edge252" class="edge"><title>14&#45;&#45;18</title>
<path fill="none" stroke="black" stroke-width="0.75" stroke-dasharray="1,5" d="M143.889,-162.62C145.056,-131.462 147.417,-68.4409 148.589,-37.1592"/>
</g>
<!-- 14&#45;&#45;22 -->
<g id="edge256" class="edge"><title>14&#45;&#45;22</title>
<path fill="none" stroke="black" stroke-width="0.352941" stroke-dasharray="1,5" d="M161.169,-194.746C190.84,-217.59 249.74,-262.936 279.336,-285.722"/>
</g>
<!-- 14&#45;&#45;23 -->
<g id="edge258" class="edge"><title>14&#45;&#45;23</title>
<path fill="none" stroke="black" stroke-width="0.461538" stroke-dasharray="1,5" d="M147.449,-199.034C156.854,-239.183 179.359,-335.248 188.755,-375.355"/>
</g>
<!-- 20&#45;&#45;21 -->
<g id="edge296" class="edge"><title>20&#45;&#45;21</title>
<path fill="none" stroke="black" stroke-width="0.6" stroke-dasharray="1,5" d="M282.471,-169.782C268.118,-137.871 237.817,-70.4995 223.46,-38.5765"/>
</g>
<!-- 20&#45;&#45;24 -->
<g id="edge298" class="edge"><title>20&#45;&#45;24</title>
<path fill="none" stroke="black" stroke-width="0.333333" stroke-dasharray="1,5" d="M277.49,-171.291C270.366,-162.434 261.528,-151.448 254.39,-142.573"/>
</g>
<!-- 4&#45;&#45;11 -->
<g id="edge98" class="edge"><title>4&#45;&#45;11</title>
<path fill="none" stroke="black" stroke-width="0.4" stroke-dasharray="1,5" d="M434.035,-117.962C407.585,-115.376 367.438,-111.452 341.047,-108.872"/>
</g>
<!-- 4&#45;&#45;13 -->
<g id="edge100" class="edge"><title>4&#45;&#45;13</title>
<path fill="none" stroke="black" stroke-width="0.75" stroke-dasharray="1,5" d="M447.244,-136.247C425.448,-161.196 383.075,-209.697 361.248,-234.68"/>
</g>
<!-- 4&#45;&#45;24 -->
<g id="edge106" class="edge"><title>4&#45;&#45;24</title>
<path fill="none" stroke="black" stroke-width="6" stroke-dasharray="1,5" d="M433.573,-121.328C391.29,-122.469 310.548,-124.647 268.475,-125.782"/>
</g>
<!-- 4&#45;&#45;22 -->
<g id="edge104" class="edge"><title>4&#45;&#45;22</title>
<path fill="none" stroke="black" stroke-width="0.428571" stroke-dasharray="1,5" d="M446.679,-136.151C415.635,-170.065 342.188,-250.302 311.281,-284.067"/>
</g>
<!-- 4&#45;&#45;8 -->
<g id="edge96" class="edge"><title>4&#45;&#45;8</title>
<path fill="none" stroke="black" stroke-width="0.428571" stroke-dasharray="1,5" d="M434.961,-126.369C386.654,-137.121 283.503,-160.082 235.303,-170.81"/>
</g>
<!-- 4&#45;&#45;19 -->
<g id="edge102" class="edge"><title>4&#45;&#45;19</title>
<path fill="none" stroke="black" stroke-width="0.6" stroke-dasharray="1,5" d="M460.41,-138.76C459.741,-162.451 458.577,-203.654 457.908,-227.355"/>
</g>
<!-- 7&#45;&#45;13 -->
<g id="edge146" class="edge"><title>7&#45;&#45;13</title>
<path fill="none" stroke="black" stroke-width="0.5" stroke-dasharray="1,5" d="M354.116,-63.2531C352.742,-102.225 349.534,-193.274 348.162,-232.209"/>
</g>
<!-- 7&#45;&#45;21 -->
<g id="edge156" class="edge"><title>7&#45;&#45;21</title>
<path fill="none" stroke="black" stroke-width="0.315789" stroke-dasharray="1,5" d="M328.583,-40.5264C303.86,-36.2743 266.966,-29.9288 242.127,-25.6568"/>
</g>
<!-- 7&#45;&#45;9 -->
<g id="edge142" class="edge"><title>7&#45;&#45;9</title>
<path fill="none" stroke="black" stroke-width="0.4" stroke-dasharray="1,5" d="M344.265,-61.6184C321.453,-97.6849 267.562,-182.89 244.695,-219.045"/>
</g>
<!-- 7&#45;&#45;12 -->
<g id="edge144" class="edge"><title>7&#45;&#45;12</title>
<path fill="none" stroke="black" stroke-width="0.428571" stroke-dasharray="1,5" d="M354.615,-63.1106C354.409,-89.1548 354.03,-136.955 353.824,-163.041"/>
</g>
<!-- 7&#45;&#45;18 -->
<g id="edge150" class="edge"><title>7&#45;&#45;18</title>
<path fill="none" stroke="black" stroke-width="0.352941" stroke-dasharray="1,5" d="M327.896,-41.584C288.407,-36.5209 215.13,-27.1254 175.825,-22.0857"/>
</g>
<!-- 7&#45;&#45;8 -->
<g id="edge140" class="edge"><title>7&#45;&#45;8</title>
<path fill="none" stroke="black" stroke-width="0.461538" stroke-dasharray="1,5" d="M338.656,-59.6068C310.731,-84.8894 253.632,-136.586 225.657,-161.914"/>
</g>
<!-- 7&#45;&#45;14 -->
<g id="edge148" class="edge"><title>7&#45;&#45;14</title>
<path fill="none" stroke="black" stroke-width="0.545455" stroke-dasharray="1,5" d="M335.235,-57.5687C294.933,-83.4557 202.942,-142.544 162.68,-168.405"/>
</g>
<!-- 7&#45;&#45;20 -->
<g id="edge154" class="edge"><title>7&#45;&#45;20</title>
<path fill="none" stroke="black" stroke-width="0.333333" stroke-dasharray="1,5" d="M346.858,-62.4675C334.492,-89.7636 310.698,-142.284 298.292,-169.668"/>
</g>
<!-- 7&#45;&#45;19 -->
<g id="edge152" class="edge"><title>7&#45;&#45;19</title>
<path fill="none" stroke="black" stroke-dasharray="1,5" d="M363.509,-62.1244C382.9,-100.008 429.295,-190.651 448.666,-228.494"/>
</g>
<!-- 19&#45;&#45;24 -->
<g id="edge294" class="edge"><title>19&#45;&#45;24</title>
<path fill="none" stroke="black" stroke-width="0.315789" stroke-dasharray="1,5" d="M436.297,-233.917C394.911,-211.101 303.532,-160.725 262.334,-138.013"/>
</g>
<!-- 19&#45;&#45;22 -->
<g id="edge292" class="edge"><title>19&#45;&#45;22</title>
<path fill="none" stroke="black" stroke-width="0.375" stroke-dasharray="1,5" d="M433.062,-253.736C402.863,-263.9 351.668,-281.129 321.484,-291.287"/>
</g>
<!-- 19&#45;&#45;20 -->
<g id="edge290" class="edge"><title>19&#45;&#45;20</title>
<path fill="none" stroke="black" stroke-width="1.2" stroke-dasharray="1,5" d="M433.458,-237.195C401.788,-226.144 346.273,-206.772 314.49,-195.682"/>
</g>
</g>
</svg>
