<?xml version="1.0" encoding="UTF-8" standalone="no"?>
<!DOCTYPE svg PUBLIC "-//W3C//DTD SVG 1.1//EN"
 "http://www.w3.org/Graphics/SVG/1.1/DTD/svg11.dtd">
<!-- Generated by graphviz version 2.26.3 (20100126.1600)
 -->
<!-- Title: G Pages: 1 -->
<svg width="567pt" height="500pt"
 viewBox="0.00 0.00 567.00 500.00" xmlns="http://www.w3.org/2000/svg" xmlns:xlink="http://www.w3.org/1999/xlink">
<g id="graph1" class="graph" transform="scale(1 1) rotate(0) translate(4 496)">
<title>G</title>
<polygon fill="white" stroke="white" points="-4,5 -4,-496 564,-496 564,5 -4,5"/>
<!-- 0 -->
<g id="node1" class="node"><title>0</title>
<ellipse fill="none" stroke="black" cx="169.055" cy="-263.376" rx="27" ry="18"/>
<text text-anchor="middle" x="169.055" y="-259.276" font-family="Times Roman,serif" font-size="14.00">0</text>
</g>
<!-- 16 -->
<g id="node3" class="node"><title>16</title>
<ellipse fill="none" stroke="black" cx="48.0413" cy="-249.951" rx="27" ry="18"/>
<text text-anchor="middle" x="48.0413" y="-245.851" font-family="Times Roman,serif" font-size="14.00">16</text>
</g>
<!-- 0&#45;&#45;16 -->
<g id="edge2" class="edge"><title>0&#45;&#45;16</title>
<path fill="none" stroke="red" stroke-width="6" d="M142.198,-260.396C122.144,-258.172 94.859,-255.145 74.8231,-252.922"/>
</g>
<!-- 24 -->
<g id="node5" class="node"><title>24</title>
<ellipse fill="none" stroke="black" cx="274.422" cy="-278.308" rx="27" ry="18"/>
<text text-anchor="middle" x="274.422" y="-274.208" font-family="Times Roman,serif" font-size="14.00">24</text>
</g>
<!-- 0&#45;&#45;24 -->
<g id="edge4" class="edge"><title>0&#45;&#45;24</title>
<path fill="none" stroke="green" stroke-width="2" d="M195.643,-267.144C211.616,-269.407 231.87,-272.278 247.842,-274.541"/>
</g>
<!-- 10 -->
<g id="node7" class="node"><title>10</title>
<ellipse fill="none" stroke="black" cx="86.3546" cy="-367.227" rx="27" ry="18"/>
<text text-anchor="middle" x="86.3546" y="-363.127" font-family="Times Roman,serif" font-size="14.00">10</text>
</g>
<!-- 0&#45;&#45;10 -->
<g id="edge6" class="edge"><title>0&#45;&#45;10</title>
<path fill="none" stroke="green" stroke-width="6" d="M156.133,-279.602C140.596,-299.113 114.682,-331.655 99.1858,-351.114"/>
</g>
<!-- 11 -->
<g id="node9" class="node"><title>11</title>
<ellipse fill="none" stroke="black" cx="303.848" cy="-333.252" rx="27" ry="18"/>
<text text-anchor="middle" x="303.848" y="-329.152" font-family="Times Roman,serif" font-size="14.00">11</text>
</g>
<!-- 0&#45;&#45;11 -->
<g id="edge8" class="edge"><title>0&#45;&#45;11</title>
<path fill="none" stroke="red" stroke-width="2" d="M190.413,-274.448C215.504,-287.455 256.903,-308.916 282.143,-322"/>
</g>
<!-- 2 -->
<g id="node11" class="node"><title>2</title>
<ellipse fill="none" stroke="black" cx="190.804" cy="-134.037" rx="27" ry="18"/>
<text text-anchor="middle" x="190.804" y="-129.937" font-family="Times Roman,serif" font-size="14.00">2</text>
</g>
<!-- 0&#45;&#45;2 -->
<g id="edge10" class="edge"><title>0&#45;&#45;2</title>
<path fill="none" stroke="green" stroke-width="3" d="M172.079,-245.392C176.211,-220.82 183.58,-176.994 187.735,-152.285"/>
</g>
<!-- 20 -->
<g id="node42" class="node"><title>20</title>
<ellipse fill="none" stroke="black" cx="28.3276" cy="-145.624" rx="27" ry="18"/>
<text text-anchor="middle" x="28.3276" y="-141.524" font-family="Times Roman,serif" font-size="14.00">20</text>
</g>
<!-- 16&#45;&#45;20 -->
<g id="edge64" class="edge"><title>16&#45;&#45;20</title>
<path fill="none" stroke="blue" stroke-width="6" d="M44.6074,-231.779C40.9891,-212.631 35.3255,-182.658 31.7221,-163.589"/>
</g>
<!-- 18 -->
<g id="node14" class="node"><title>18</title>
<ellipse fill="none" stroke="black" cx="422.887" cy="-318.674" rx="27" ry="18"/>
<text text-anchor="middle" x="422.887" y="-314.574" font-family="Times Roman,serif" font-size="14.00">18</text>
</g>
<!-- 11&#45;&#45;18 -->
<g id="edge50" class="edge"><title>11&#45;&#45;18</title>
<path fill="none" stroke="green" stroke-width="2" d="M330.562,-329.98C350.167,-327.58 376.677,-324.333 396.261,-321.935"/>
</g>
<!-- 21 -->
<g id="node44" class="node"><title>21</title>
<ellipse fill="none" stroke="black" cx="160.563" cy="-311.52" rx="27" ry="18"/>
<text text-anchor="middle" x="160.563" y="-307.42" font-family="Times Roman,serif" font-size="14.00">21</text>
</g>
<!-- 11&#45;&#45;21 -->
<g id="edge52" class="edge"><title>11&#45;&#45;21</title>
<path fill="none" stroke="red" stroke-width="3" d="M277.233,-329.215C251.497,-325.312 212.723,-319.431 187.036,-315.535"/>
</g>
<!-- 22 -->
<g id="node50" class="node"><title>22</title>
<ellipse fill="none" stroke="black" cx="414.136" cy="-385.896" rx="27" ry="18"/>
<text text-anchor="middle" x="414.136" y="-381.796" font-family="Times Roman,serif" font-size="14.00">22</text>
</g>
<!-- 11&#45;&#45;22 -->
<g id="edge54" class="edge"><title>11&#45;&#45;22</title>
<path fill="none" stroke="green" stroke-width="1.5" d="M325.901,-343.779C345.136,-352.961 372.896,-366.211 392.121,-375.388"/>
</g>
<!-- 8 -->
<g id="node18" class="node"><title>8</title>
<ellipse fill="none" stroke="black" cx="140.411" cy="-191.746" rx="27" ry="18"/>
<text text-anchor="middle" x="140.411" y="-187.646" font-family="Times Roman,serif" font-size="14.00">8</text>
</g>
<!-- 2&#45;&#45;8 -->
<g id="edge16" class="edge"><title>2&#45;&#45;8</title>
<path fill="none" stroke="blue" stroke-width="6" d="M177.034,-149.806C169.923,-157.949 161.272,-167.856 154.164,-175.996"/>
</g>
<!-- 12 -->
<g id="node20" class="node"><title>12</title>
<ellipse fill="none" stroke="black" cx="241.452" cy="-18.6262" rx="27" ry="18"/>
<text text-anchor="middle" x="241.452" y="-14.5262" font-family="Times Roman,serif" font-size="14.00">12</text>
</g>
<!-- 2&#45;&#45;12 -->
<g id="edge18" class="edge"><title>2&#45;&#45;12</title>
<path fill="none" stroke="blue" stroke-width="3" d="M198.496,-116.508C208.071,-94.6902 224.322,-57.6598 233.853,-35.9414"/>
</g>
<!-- 17 -->
<g id="node22" class="node"><title>17</title>
<ellipse fill="none" stroke="black" cx="99.9785" cy="-122.62" rx="27" ry="18"/>
<text text-anchor="middle" x="99.9785" y="-118.52" font-family="Times Roman,serif" font-size="14.00">17</text>
</g>
<!-- 2&#45;&#45;17 -->
<g id="edge20" class="edge"><title>2&#45;&#45;17</title>
<path fill="none" stroke="green" stroke-width="0.857143" d="M164.045,-130.673C152.219,-129.186 138.35,-127.443 126.547,-125.959"/>
</g>
<!-- 1 -->
<g id="node12" class="node"><title>1</title>
<ellipse fill="none" stroke="black" cx="530.776" cy="-258.086" rx="27" ry="18"/>
<text text-anchor="middle" x="530.776" y="-253.986" font-family="Times Roman,serif" font-size="14.00">1</text>
</g>
<!-- 1&#45;&#45;18 -->
<g id="edge12" class="edge"><title>1&#45;&#45;18</title>
<path fill="none" stroke="red" stroke-width="2" d="M509.974,-269.768C490.869,-280.497 462.71,-296.311 443.625,-307.028"/>
</g>
<!-- 13 -->
<g id="node16" class="node"><title>13</title>
<ellipse fill="none" stroke="black" cx="504.952" cy="-203.969" rx="27" ry="18"/>
<text text-anchor="middle" x="504.952" y="-199.869" font-family="Times Roman,serif" font-size="14.00">13</text>
</g>
<!-- 1&#45;&#45;13 -->
<g id="edge14" class="edge"><title>1&#45;&#45;13</title>
<path fill="none" stroke="black" stroke-width="3" stroke-dasharray="1,5" d="M522.463,-240.665C519.514,-234.485 516.197,-227.534 513.25,-221.357"/>
</g>
<!-- 23 -->
<g id="node53" class="node"><title>23</title>
<ellipse fill="none" stroke="black" cx="520.88" cy="-326.227" rx="27" ry="18"/>
<text text-anchor="middle" x="520.88" y="-322.127" font-family="Times Roman,serif" font-size="14.00">23</text>
</g>
<!-- 13&#45;&#45;23 -->
<g id="edge58" class="edge"><title>13&#45;&#45;23</title>
<path fill="none" stroke="black" stroke-dasharray="1,5" d="M507.302,-222.009C510.314,-245.124 515.504,-284.963 518.52,-308.113"/>
</g>
<!-- 15 -->
<g id="node55" class="node"><title>15</title>
<ellipse fill="none" stroke="black" cx="402.63" cy="-127.278" rx="27" ry="18"/>
<text text-anchor="middle" x="402.63" y="-123.178" font-family="Times Roman,serif" font-size="14.00">15</text>
</g>
<!-- 13&#45;&#45;15 -->
<g id="edge60" class="edge"><title>13&#45;&#45;15</title>
<path fill="none" stroke="black" stroke-width="3" stroke-dasharray="1,5" d="M486.659,-190.258C468.035,-176.299 439.332,-154.786 420.765,-140.87"/>
</g>
<!-- 14 -->
<g id="node30" class="node"><title>14</title>
<ellipse fill="none" stroke="black" cx="274.486" cy="-121.354" rx="27" ry="18"/>
<text text-anchor="middle" x="274.486" y="-117.254" font-family="Times Roman,serif" font-size="14.00">14</text>
</g>
<!-- 8&#45;&#45;14 -->
<g id="edge46" class="edge"><title>8&#45;&#45;14</title>
<path fill="none" stroke="red" stroke-width="2" d="M161.655,-180.592C186.613,-167.489 227.791,-145.869 252.896,-132.688"/>
</g>
<!-- 8&#45;&#45;20 -->
<g id="edge42" class="edge"><title>8&#45;&#45;20</title>
<path fill="none" stroke="red" stroke-width="1.5" d="M117.187,-182.19C97.9507,-174.274 70.7495,-163.081 51.5215,-155.169"/>
</g>
<!-- 8&#45;&#45;21 -->
<g id="edge44" class="edge"><title>8&#45;&#45;21</title>
<path fill="none" stroke="blue" stroke-width="3" d="M143.428,-209.677C147.227,-232.257 153.717,-270.828 157.526,-293.466"/>
</g>
<!-- 12&#45;&#45;14 -->
<g id="edge56" class="edge"><title>12&#45;&#45;14</title>
<path fill="none" stroke="green" stroke-width="6" d="M247.206,-36.5199C253.269,-55.3748 262.759,-84.8876 268.797,-103.665"/>
</g>
<!-- 3 -->
<g id="node23" class="node"><title>3</title>
<ellipse fill="none" stroke="black" cx="217.909" cy="-187.053" rx="27" ry="18"/>
<text text-anchor="middle" x="217.909" y="-182.953" font-family="Times Roman,serif" font-size="14.00">3</text>
</g>
<!-- 3&#45;&#45;17 -->
<g id="edge22" class="edge"><title>3&#45;&#45;17</title>
<path fill="none" stroke="blue" stroke-width="6" d="M196.826,-175.534C175.36,-163.806 142.279,-145.732 120.88,-134.04"/>
</g>
<!-- 4 -->
<g id="node26" class="node"><title>4</title>
<ellipse fill="none" stroke="black" cx="324.932" cy="-187.883" rx="27" ry="18"/>
<text text-anchor="middle" x="324.932" y="-183.783" font-family="Times Roman,serif" font-size="14.00">4</text>
</g>
<!-- 3&#45;&#45;4 -->
<g id="edge24" class="edge"><title>3&#45;&#45;4</title>
<path fill="none" stroke="green" d="M244.916,-187.263C261.016,-187.388 281.398,-187.546 297.562,-187.671"/>
</g>
<!-- 5 -->
<g id="node28" class="node"><title>5</title>
<ellipse fill="none" stroke="black" cx="241.793" cy="-331.063" rx="27" ry="18"/>
<text text-anchor="middle" x="241.793" y="-326.963" font-family="Times Roman,serif" font-size="14.00">5</text>
</g>
<!-- 3&#45;&#45;5 -->
<g id="edge26" class="edge"><title>3&#45;&#45;5</title>
<path fill="none" stroke="blue" stroke-width="6" d="M220.886,-205.001C225.463,-232.597 234.18,-285.157 238.779,-312.889"/>
</g>
<!-- 3&#45;&#45;14 -->
<g id="edge28" class="edge"><title>3&#45;&#45;14</title>
<path fill="none" stroke="black" stroke-width="1.5" stroke-dasharray="1,5" d="M231.605,-171.149C240.5,-160.82 252.046,-147.412 260.916,-137.111"/>
</g>
<!-- 7 -->
<g id="node32" class="node"><title>7</title>
<ellipse fill="none" stroke="black" cx="139.706" cy="-64.4234" rx="27" ry="18"/>
<text text-anchor="middle" x="139.706" y="-60.3234" font-family="Times Roman,serif" font-size="14.00">7</text>
</g>
<!-- 3&#45;&#45;7 -->
<g id="edge30" class="edge"><title>3&#45;&#45;7</title>
<path fill="none" stroke="black" stroke-width="0.857143" stroke-dasharray="1,5" d="M207.2,-170.259C192.224,-146.776 165.193,-104.389 150.287,-81.0146"/>
</g>
<!-- 4&#45;&#45;24 -->
<g id="edge32" class="edge"><title>4&#45;&#45;24</title>
<path fill="none" stroke="blue" stroke-width="6" d="M315.431,-204.891C306.401,-221.058 292.896,-245.235 283.88,-261.376"/>
</g>
<!-- 9 -->
<g id="node35" class="node"><title>9</title>
<ellipse fill="none" stroke="black" cx="164.493" cy="-429.788" rx="27" ry="18"/>
<text text-anchor="middle" x="164.493" y="-425.688" font-family="Times Roman,serif" font-size="14.00">9</text>
</g>
<!-- 5&#45;&#45;9 -->
<g id="edge34" class="edge"><title>5&#45;&#45;9</title>
<path fill="none" stroke="black" stroke-width="6" stroke-dasharray="1,5" d="M229.028,-347.366C214.62,-365.767 191.33,-395.513 177.02,-413.789"/>
</g>
<!-- 14&#45;&#45;15 -->
<g id="edge62" class="edge"><title>14&#45;&#45;15</title>
<path fill="none" stroke="black" stroke-width="3" stroke-dasharray="1,5" d="M301.662,-122.61C323.408,-123.615 353.757,-125.018 375.493,-126.023"/>
</g>
<!-- 19 -->
<g id="node40" class="node"><title>19</title>
<ellipse fill="none" stroke="black" cx="35.152" cy="-30.626" rx="27" ry="18"/>
<text text-anchor="middle" x="35.152" y="-26.526" font-family="Times Roman,serif" font-size="14.00">19</text>
</g>
<!-- 7&#45;&#45;19 -->
<g id="edge40" class="edge"><title>7&#45;&#45;19</title>
<path fill="none" stroke="green" d="M115.193,-56.4994C98.4134,-51.0754 76.2582,-43.9137 59.5117,-38.5004"/>
</g>
<!-- 9&#45;&#45;21 -->
<g id="edge48" class="edge"><title>9&#45;&#45;21</title>
<path fill="none" stroke="red" stroke-width="6" d="M163.888,-411.567C163.147,-389.278 161.901,-351.777 161.163,-329.566"/>
</g>
<!-- 6 -->
<g id="node36" class="node"><title>6</title>
<ellipse fill="none" stroke="black" cx="62.7627" cy="-473.097" rx="27" ry="18"/>
<text text-anchor="middle" x="62.7627" y="-468.997" font-family="Times Roman,serif" font-size="14.00">6</text>
</g>
<!-- 6&#45;&#45;10 -->
<g id="edge38" class="edge"><title>6&#45;&#45;10</title>
<path fill="none" stroke="red" stroke-width="6" d="M66.7648,-455.137C71.103,-435.669 77.987,-404.777 82.3329,-385.275"/>
</g>
<!-- 6&#45;&#45;9 -->
<g id="edge36" class="edge"><title>6&#45;&#45;9</title>
<path fill="none" stroke="blue" stroke-width="1.2" d="M85.593,-463.377C102.23,-456.294 124.686,-446.734 141.387,-439.624"/>
</g>
<!-- 19&#45;&#45;20 -->
<g id="edge66" class="edge"><title>19&#45;&#45;20</title>
<path fill="none" stroke="red" stroke-width="1.2" d="M34.0706,-48.8479C32.7928,-70.3811 30.6795,-105.992 29.4039,-127.488"/>
</g>
<!-- 21&#45;&#45;24 -->
<g id="edge68" class="edge"><title>21&#45;&#45;24</title>
<path fill="none" stroke="blue" stroke-width="2" d="M185.55,-304.231C204.534,-298.694 230.524,-291.113 249.493,-285.579"/>
</g>
<!-- 22&#45;&#45;23 -->
<g id="edge70" class="edge"><title>22&#45;&#45;23</title>
<path fill="none" stroke="blue" stroke-width="3" d="M434.97,-374.25C453.779,-363.736 481.305,-348.349 500.098,-337.844"/>
</g>
</g>
</svg>
